,time,event,type,channel_x,parameter1,parameter2,parameterMetaSystem,track_x,length,track_y,channel_y,note,notename,velocity
0,0.0,Time Signature,58,0.0,0.0,0.0,"4/4, 24 clocks/tick, 8 1/32 notes / 24 clocks",1,,,,,,
1,0.0,Set Tempo,51,0.0,0.0,0.0,555550,1,,,,,,
2,136704.0,Set Tempo,51,0.0,0.0,0.0,566030,1,700.0,3.0,1.0,36.0,C,82.0
3,136704.0,Set Tempo,51,0.0,0.0,0.0,566030,1,328.0,5.0,3.0,67.0,g',73.0
4,136704.0,Set Tempo,51,0.0,0.0,0.0,566030,1,96.0,11.0,9.0,35.0,"B,",82.0
5,136704.0,Set Tempo,51,0.0,0.0,0.0,566030,1,108.0,11.0,9.0,42.0,F#,72.0
6,136704.0,Set Tempo,51,0.0,0.0,0.0,566030,1,80.0,11.0,9.0,52.0,e,64.0
7,137472.0,Set Tempo,51,0.0,0.0,0.0,576920,1,748.0,2.0,0.0,45.0,A,97.0
8,137472.0,Set Tempo,51,0.0,0.0,0.0,576920,1,804.0,2.0,0.0,59.0,b,83.0
9,137472.0,Set Tempo,51,0.0,0.0,0.0,576920,1,820.0,2.0,0.0,64.0,e',83.0
10,137472.0,Set Tempo,51,0.0,0.0,0.0,576920,1,700.0,3.0,1.0,33.0,"A,",82.0
11,137472.0,Set Tempo,51,0.0,0.0,0.0,576920,1,96.0,11.0,9.0,54.0,f#,91.0
12,141312.0,Set Tempo,51,0.0,0.0,0.0,555550,1,,,,,,
13,148992.0,Set Tempo,51,0.0,0.0,0.0,566030,1,1524.0,5.0,3.0,69.0,a',56.0
14,148992.0,Set Tempo,51,0.0,0.0,0.0,566030,1,48.0,11.0,9.0,55.0,g,38.0
15,148992.0,Set Tempo,51,0.0,0.0,0.0,566030,1,48.0,11.0,9.0,59.0,b,64.0
16,148992.0,Set Tempo,51,0.0,0.0,0.0,566030,1,112.0,11.0,9.0,70.0,a#',69.0
17,149376.0,Set Tempo,51,0.0,0.0,0.0,576920,1,112.0,11.0,9.0,70.0,a#',52.0
18,149760.0,Set Tempo,51,0.0,0.0,0.0,588230,1,,,,,,
19,150144.0,Set Tempo,51,0.0,0.0,0.0,6e+05,1,,,,,,
20,150528.0,Set Tempo,51,0.0,0.0,0.0,666660,1,24.0,11.0,9.0,51.0,d#,52.0
21,152064.0,Set Tempo,51,0.0,0.0,0.0,555550,1,1468.0,2.0,0.0,61.0,c#',70.0
22,156672.0,Set Tempo,51,0.0,0.0,0.0,566030,1,1316.0,2.0,0.0,50.0,d,92.0
23,156672.0,Set Tempo,51,0.0,0.0,0.0,566030,1,156.0,2.0,0.0,57.0,a,83.0
24,156672.0,Set Tempo,51,0.0,0.0,0.0,566030,1,536.0,2.0,0.0,66.0,f#',92.0
25,156672.0,Set Tempo,51,0.0,0.0,0.0,566030,1,744.0,2.0,0.0,74.0,d'',66.0
26,156672.0,Set Tempo,51,0.0,0.0,0.0,566030,1,24.0,11.0,9.0,51.0,d#,52.0
27,158208.0,Set Tempo,51,0.0,0.0,0.0,576920,1,,,,,,
28,158592.0,Set Tempo,51,0.0,0.0,0.0,588230,1,1036.0,15.0,13.0,72.0,c'',31.0
29,158976.0,Set Tempo,51,0.0,0.0,0.0,6e+05,1,444.0,4.0,2.0,88.0,e''',30.0
30,165888.0,End of Track,2f,0.0,0.0,0.0,0,1,,,,,,
31,0.0,Sequence/Track Name,03,0.0,0.0,0.0,E.PIANO 2,2,,,,,,
32,384.0,Controller,0,0.0,0.0,0.0,0,2,,,,,,
33,392.0,Program Change,0,0.0,5.0,0.0,0,2,,,,,,
34,396.0,Controller,0,0.0,7.0,127.0,0,2,,,,,,
35,396.0,Controller,0,0.0,10.0,64.0,0,2,,,,,,
36,396.0,Controller,0,0.0,11.0,127.0,0,2,,,,,,
37,400.0,Controller,0,0.0,91.0,100.0,0,2,,,,,,
38,400.0,Controller,0,0.0,93.0,20.0,0,2,,,,,,
39,3072.0,Note On,0,0.0,46.0,83.0,0,2,1460.0,2.0,0.0,46.0,A#,83.0
40,3072.0,Note On,0,0.0,46.0,83.0,0,2,3016.0,4.0,2.0,65.0,f',32.0
41,3072.0,Note On,0,0.0,46.0,83.0,0,2,112.0,11.0,9.0,70.0,a#',69.0
42,3072.0,Note On,0,0.0,46.0,83.0,0,2,60.0,12.0,10.0,41.0,F,48.0
43,3072.0,Note On,0,0.0,46.0,83.0,0,2,132.0,13.0,11.0,46.0,A#,69.0
44,3260.0,Note On,0,0.0,53.0,70.0,0,2,204.0,2.0,0.0,53.0,f,70.0
45,3448.0,Note On,0,0.0,51.0,74.0,0,2,184.0,2.0,0.0,51.0,d#,74.0
46,3456.0,Note On,0,0.0,60.0,83.0,0,2,192.0,2.0,0.0,60.0,c',83.0
47,3456.0,Note On,0,0.0,60.0,83.0,0,2,112.0,11.0,9.0,70.0,a#',52.0
48,3464.0,Note Off,0,0.0,53.0,70.0,0,2,,,,,,
49,3632.0,Note Off,0,0.0,51.0,74.0,0,2,984.0,13.0,11.0,53.0,f,61.0
50,3636.0,Note On,0,0.0,53.0,83.0,0,2,960.0,2.0,0.0,53.0,f,83.0
51,3644.0,Note On,0,0.0,62.0,83.0,0,2,980.0,2.0,0.0,62.0,d',83.0
52,3648.0,Note Off,0,0.0,60.0,83.0,0,2,2084.0,4.0,2.0,74.0,d'',32.0
53,3648.0,Note Off,0,0.0,60.0,83.0,0,2,220.0,11.0,9.0,70.0,a#',32.0
54,4532.0,Note Off,0,0.0,46.0,83.0,0,2,,,,,,
55,4596.0,Note Off,0,0.0,53.0,83.0,0,2,,,,,,
56,4600.0,Note On,0,0.0,46.0,85.0,0,2,168.0,2.0,0.0,46.0,A#,85.0
57,4624.0,Note Off,0,0.0,62.0,83.0,0,2,,,,,,
58,4768.0,Note Off,0,0.0,46.0,85.0,0,2,,,,,,
59,4792.0,Note On,0,0.0,46.0,74.0,0,2,1328.0,2.0,0.0,46.0,A#,74.0
60,4792.0,Note On,0,0.0,46.0,74.0,0,2,1300.0,13.0,11.0,46.0,A#,52.0
61,4980.0,Note On,0,0.0,62.0,85.0,0,2,196.0,2.0,0.0,62.0,d',85.0
62,4980.0,Note On,0,0.0,62.0,85.0,0,2,196.0,13.0,11.0,53.0,f,55.0
63,4984.0,Note On,0,0.0,53.0,74.0,0,2,192.0,2.0,0.0,53.0,f,74.0
64,5172.0,Note On,0,0.0,63.0,92.0,0,2,1004.0,2.0,0.0,63.0,d#',92.0
65,5176.0,Note Off,0,0.0,53.0,74.0,0,2,412.0,2.0,0.0,55.0,g,83.0
66,5176.0,Note Off,0,0.0,62.0,85.0,0,2,412.0,2.0,0.0,55.0,g,83.0
67,5176.0,Note On,0,0.0,55.0,83.0,0,2,412.0,2.0,0.0,55.0,g,83.0
68,5564.0,Note On,0,0.0,51.0,74.0,0,2,584.0,2.0,0.0,51.0,d#,74.0
69,5564.0,Note On,0,0.0,51.0,74.0,0,2,572.0,2.0,0.0,60.0,c',83.0
70,5564.0,Note On,0,0.0,60.0,83.0,0,2,584.0,2.0,0.0,51.0,d#,74.0
71,5564.0,Note On,0,0.0,60.0,83.0,0,2,572.0,2.0,0.0,60.0,c',83.0
72,5588.0,Note Off,0,0.0,55.0,83.0,0,2,,,,,,
73,6120.0,Note Off,0,0.0,46.0,74.0,0,2,1164.0,4.0,2.0,65.0,f',32.0
74,6120.0,Note Off,0,0.0,46.0,74.0,0,2,1176.0,4.0,2.0,70.0,a#',32.0
75,6136.0,Note Off,0,0.0,60.0,83.0,0,2,3092.0,4.0,2.0,82.0,a#'',32.0
76,6144.0,Note On,0,0.0,46.0,83.0,0,2,1460.0,2.0,0.0,46.0,A#,83.0
77,6144.0,Note On,0,0.0,46.0,83.0,0,2,112.0,11.0,9.0,70.0,a#',69.0
78,6144.0,Note On,0,0.0,46.0,83.0,0,2,60.0,12.0,10.0,41.0,F,48.0
79,6144.0,Note On,0,0.0,46.0,83.0,0,2,132.0,13.0,11.0,46.0,A#,69.0
80,6148.0,Note Off,0,0.0,51.0,74.0,0,2,,,,,,
81,6176.0,Note Off,0,0.0,63.0,92.0,0,2,,,,,,
82,6332.0,Note On,0,0.0,53.0,70.0,0,2,204.0,2.0,0.0,53.0,f,70.0
83,6520.0,Note On,0,0.0,51.0,74.0,0,2,184.0,2.0,0.0,51.0,d#,74.0
84,6528.0,Note On,0,0.0,60.0,83.0,0,2,192.0,2.0,0.0,60.0,c',83.0
85,6528.0,Note On,0,0.0,60.0,83.0,0,2,112.0,11.0,9.0,70.0,a#',52.0
86,6536.0,Note Off,0,0.0,53.0,70.0,0,2,,,,,,
87,6704.0,Note Off,0,0.0,51.0,74.0,0,2,984.0,13.0,11.0,53.0,f,61.0
88,6708.0,Note On,0,0.0,53.0,83.0,0,2,960.0,2.0,0.0,53.0,f,83.0
89,6716.0,Note On,0,0.0,62.0,83.0,0,2,980.0,2.0,0.0,62.0,d',83.0
90,6720.0,Note Off,0,0.0,60.0,83.0,0,2,220.0,11.0,9.0,70.0,a#',32.0
91,7604.0,Note Off,0,0.0,46.0,83.0,0,2,,,,,,
92,7668.0,Note Off,0,0.0,53.0,83.0,0,2,,,,,,
93,7672.0,Note On,0,0.0,46.0,85.0,0,2,168.0,2.0,0.0,46.0,A#,85.0
94,7696.0,Note Off,0,0.0,62.0,83.0,0,2,,,,,,
95,7840.0,Note Off,0,0.0,46.0,85.0,0,2,,,,,,
96,7864.0,Note On,0,0.0,46.0,74.0,0,2,1328.0,2.0,0.0,46.0,A#,74.0
97,7864.0,Note On,0,0.0,46.0,74.0,0,2,1360.0,13.0,11.0,46.0,A#,52.0
98,8052.0,Note On,0,0.0,62.0,85.0,0,2,196.0,2.0,0.0,62.0,d',85.0
99,8052.0,Note On,0,0.0,62.0,85.0,0,2,196.0,13.0,11.0,53.0,f,55.0
100,8056.0,Note On,0,0.0,53.0,74.0,0,2,192.0,2.0,0.0,53.0,f,74.0
101,8244.0,Note On,0,0.0,63.0,92.0,0,2,944.0,2.0,0.0,63.0,d#',92.0
102,8248.0,Note Off,0,0.0,53.0,74.0,0,2,412.0,2.0,0.0,55.0,g,83.0
103,8248.0,Note Off,0,0.0,62.0,85.0,0,2,412.0,2.0,0.0,55.0,g,83.0
104,8248.0,Note On,0,0.0,55.0,83.0,0,2,412.0,2.0,0.0,55.0,g,83.0
105,8636.0,Note On,0,0.0,51.0,74.0,0,2,584.0,2.0,0.0,51.0,d#,74.0
106,8636.0,Note On,0,0.0,51.0,74.0,0,2,572.0,2.0,0.0,60.0,c',83.0
107,8636.0,Note On,0,0.0,51.0,74.0,0,2,44.0,7.0,5.0,69.0,a',34.0
108,8636.0,Note On,0,0.0,60.0,83.0,0,2,584.0,2.0,0.0,51.0,d#,74.0
109,8636.0,Note On,0,0.0,60.0,83.0,0,2,572.0,2.0,0.0,60.0,c',83.0
110,8636.0,Note On,0,0.0,60.0,83.0,0,2,44.0,7.0,5.0,69.0,a',34.0
111,8660.0,Note Off,0,0.0,55.0,83.0,0,2,,,,,,
112,9188.0,Note Off,0,0.0,63.0,92.0,0,2,,,,,,
113,9192.0,Note Off,0,0.0,46.0,74.0,0,2,600.0,7.0,5.0,94.0,a#''',69.0
114,9208.0,Note Off,0,0.0,60.0,83.0,0,2,,,,,,
115,9216.0,Note On,0,0.0,46.0,92.0,0,2,1436.0,2.0,0.0,46.0,A#,92.0
116,9216.0,Note On,0,0.0,46.0,92.0,0,2,492.0,2.0,0.0,53.0,f,83.0
117,9216.0,Note On,0,0.0,46.0,92.0,0,2,296.0,5.0,3.0,62.0,d',73.0
118,9216.0,Note On,0,0.0,46.0,92.0,0,2,48.0,11.0,9.0,59.0,b,64.0
119,9216.0,Note On,0,0.0,46.0,92.0,0,2,112.0,11.0,9.0,70.0,a#',69.0
120,9216.0,Note On,0,0.0,53.0,83.0,0,2,1436.0,2.0,0.0,46.0,A#,92.0
121,9216.0,Note On,0,0.0,53.0,83.0,0,2,492.0,2.0,0.0,53.0,f,83.0
122,9216.0,Note On,0,0.0,53.0,83.0,0,2,296.0,5.0,3.0,62.0,d',73.0
123,9216.0,Note On,0,0.0,53.0,83.0,0,2,48.0,11.0,9.0,59.0,b,64.0
124,9216.0,Note On,0,0.0,53.0,83.0,0,2,112.0,11.0,9.0,70.0,a#',69.0
125,9220.0,Note Off,0,0.0,51.0,74.0,0,2,,,,,,
126,9224.0,Note On,0,0.0,62.0,92.0,0,2,536.0,2.0,0.0,62.0,d',92.0
127,9708.0,Note Off,0,0.0,53.0,83.0,0,2,,,,,,
128,9760.0,Note Off,0,0.0,62.0,92.0,0,2,,,,,,
129,9780.0,Note On,0,0.0,63.0,83.0,0,2,596.0,2.0,0.0,63.0,d#',83.0
130,9784.0,Note On,0,0.0,55.0,92.0,0,2,536.0,2.0,0.0,55.0,g,92.0
131,10320.0,Note Off,0,0.0,55.0,92.0,0,2,,,,,,
132,10364.0,Note On,0,0.0,65.0,92.0,0,2,348.0,2.0,0.0,57.0,a,92.0
133,10364.0,Note On,0,0.0,65.0,92.0,0,2,368.0,2.0,0.0,65.0,f',92.0
134,10364.0,Note On,0,0.0,57.0,92.0,0,2,348.0,2.0,0.0,57.0,a,92.0
135,10364.0,Note On,0,0.0,57.0,92.0,0,2,368.0,2.0,0.0,65.0,f',92.0
136,10376.0,Note Off,0,0.0,63.0,83.0,0,2,,,,,,
137,10652.0,Note Off,0,0.0,46.0,92.0,0,2,,,,,,
138,10712.0,Note Off,0,0.0,57.0,92.0,0,2,,,,,,
139,10732.0,Note Off,0,0.0,65.0,92.0,0,2,,,,,,
140,10744.0,Note On,0,0.0,46.0,87.0,0,2,1504.0,2.0,0.0,46.0,A#,87.0
141,10744.0,Note On,0,0.0,46.0,87.0,0,2,1520.0,2.0,0.0,62.0,d',83.0
142,10744.0,Note On,0,0.0,62.0,83.0,0,2,1504.0,2.0,0.0,46.0,A#,87.0
143,10744.0,Note On,0,0.0,62.0,83.0,0,2,1520.0,2.0,0.0,62.0,d',83.0
144,10756.0,Note On,0,0.0,53.0,83.0,0,2,1480.0,2.0,0.0,53.0,f,83.0
145,11320.0,Note On,0,0.0,65.0,66.0,0,2,452.0,2.0,0.0,65.0,f',66.0
146,11508.0,Note On,0,0.0,74.0,83.0,0,2,312.0,2.0,0.0,74.0,d'',83.0
147,11700.0,Note On,0,0.0,63.0,74.0,0,2,572.0,2.0,0.0,63.0,d#',74.0
148,11700.0,Note On,0,0.0,63.0,74.0,0,2,216.0,9.0,7.0,63.0,d#',48.0
149,11772.0,Note Off,0,0.0,65.0,66.0,0,2,,,,,,
150,11820.0,Note Off,0,0.0,74.0,83.0,0,2,,,,,,
151,11892.0,Note On,0,0.0,72.0,83.0,0,2,412.0,2.0,0.0,72.0,c'',83.0
152,12236.0,Note Off,0,0.0,53.0,83.0,0,2,,,,,,
153,12248.0,Note Off,0,0.0,46.0,87.0,0,2,,,,,,
154,12264.0,Note Off,0,0.0,62.0,83.0,0,2,,,,,,
155,12272.0,Note Off,0,0.0,63.0,74.0,0,2,,,,,,
156,12288.0,Note On,0,0.0,46.0,92.0,0,2,1496.0,2.0,0.0,46.0,A#,92.0
157,12288.0,Note On,0,0.0,46.0,92.0,0,2,492.0,2.0,0.0,53.0,f,83.0
158,12288.0,Note On,0,0.0,46.0,92.0,0,2,548.0,2.0,0.0,65.0,f',70.0
159,12288.0,Note On,0,0.0,46.0,92.0,0,2,332.0,5.0,3.0,62.0,d',64.0
160,12288.0,Note On,0,0.0,46.0,92.0,0,2,112.0,11.0,9.0,70.0,a#',69.0
161,12288.0,Note On,0,0.0,53.0,83.0,0,2,1496.0,2.0,0.0,46.0,A#,92.0
162,12288.0,Note On,0,0.0,53.0,83.0,0,2,492.0,2.0,0.0,53.0,f,83.0
163,12288.0,Note On,0,0.0,53.0,83.0,0,2,548.0,2.0,0.0,65.0,f',70.0
164,12288.0,Note On,0,0.0,53.0,83.0,0,2,332.0,5.0,3.0,62.0,d',64.0
165,12288.0,Note On,0,0.0,53.0,83.0,0,2,112.0,11.0,9.0,70.0,a#',69.0
166,12288.0,Note On,0,0.0,65.0,70.0,0,2,1496.0,2.0,0.0,46.0,A#,92.0
167,12288.0,Note On,0,0.0,65.0,70.0,0,2,492.0,2.0,0.0,53.0,f,83.0
168,12288.0,Note On,0,0.0,65.0,70.0,0,2,548.0,2.0,0.0,65.0,f',70.0
169,12288.0,Note On,0,0.0,65.0,70.0,0,2,332.0,5.0,3.0,62.0,d',64.0
170,12288.0,Note On,0,0.0,65.0,70.0,0,2,112.0,11.0,9.0,70.0,a#',69.0
171,12296.0,Note On,0,0.0,62.0,92.0,0,2,536.0,2.0,0.0,62.0,d',92.0
172,12304.0,Note Off,0,0.0,72.0,83.0,0,2,,,,,,
173,12780.0,Note Off,0,0.0,53.0,83.0,0,2,,,,,,
174,12832.0,Note Off,0,0.0,62.0,92.0,0,2,,,,,,
175,12836.0,Note Off,0,0.0,65.0,70.0,0,2,,,,,,
176,12852.0,Note On,0,0.0,63.0,83.0,0,2,376.0,2.0,0.0,63.0,d#',83.0
177,12856.0,Note On,0,0.0,55.0,92.0,0,2,944.0,2.0,0.0,55.0,g,92.0
178,13224.0,Note On,0,0.0,62.0,66.0,0,2,264.0,2.0,0.0,62.0,d',66.0
179,13228.0,Note Off,0,0.0,63.0,83.0,0,2,,,,,,
180,13424.0,Note On,0,0.0,58.0,66.0,0,2,372.0,2.0,0.0,58.0,a#,66.0
181,13488.0,Note Off,0,0.0,62.0,66.0,0,2,,,,,,
182,13784.0,Note Off,0,0.0,46.0,92.0,0,2,,,,,,
183,13796.0,Note Off,0,0.0,58.0,66.0,0,2,,,,,,
184,13800.0,Note Off,0,0.0,55.0,92.0,0,2,,,,,,
185,13816.0,Note On,0,0.0,58.0,80.0,0,2,772.0,2.0,0.0,43.0,G,92.0
186,13816.0,Note On,0,0.0,58.0,80.0,0,2,804.0,2.0,0.0,58.0,a#,80.0
187,13816.0,Note On,0,0.0,58.0,80.0,0,2,776.0,2.0,0.0,62.0,d',92.0
188,13816.0,Note On,0,0.0,62.0,92.0,0,2,772.0,2.0,0.0,43.0,G,92.0
189,13816.0,Note On,0,0.0,62.0,92.0,0,2,804.0,2.0,0.0,58.0,a#,80.0
190,13816.0,Note On,0,0.0,62.0,92.0,0,2,776.0,2.0,0.0,62.0,d',92.0
191,13816.0,Note On,0,0.0,43.0,92.0,0,2,772.0,2.0,0.0,43.0,G,92.0
192,13816.0,Note On,0,0.0,43.0,92.0,0,2,804.0,2.0,0.0,58.0,a#,80.0
193,13816.0,Note On,0,0.0,43.0,92.0,0,2,776.0,2.0,0.0,62.0,d',92.0
194,13824.0,Note On,0,0.0,51.0,80.0,0,2,744.0,2.0,0.0,51.0,d#,80.0
195,13824.0,Note On,0,0.0,51.0,80.0,0,2,752.0,5.0,3.0,62.0,d',75.0
196,14568.0,Note Off,0,0.0,51.0,80.0,0,2,,,,,,
197,14588.0,Note Off,0,0.0,43.0,92.0,0,2,756.0,2.0,0.0,45.0,A,92.0
198,14588.0,Note Off,0,0.0,43.0,92.0,0,2,740.0,2.0,0.0,53.0,f,74.0
199,14588.0,Note Off,0,0.0,43.0,92.0,0,2,764.0,2.0,0.0,60.0,c',80.0
200,14588.0,Note On,0,0.0,45.0,92.0,0,2,756.0,2.0,0.0,45.0,A,92.0
201,14588.0,Note On,0,0.0,45.0,92.0,0,2,740.0,2.0,0.0,53.0,f,74.0
202,14588.0,Note On,0,0.0,45.0,92.0,0,2,764.0,2.0,0.0,60.0,c',80.0
203,14588.0,Note On,0,0.0,60.0,80.0,0,2,756.0,2.0,0.0,45.0,A,92.0
204,14588.0,Note On,0,0.0,60.0,80.0,0,2,740.0,2.0,0.0,53.0,f,74.0
205,14588.0,Note On,0,0.0,60.0,80.0,0,2,764.0,2.0,0.0,60.0,c',80.0
206,14588.0,Note On,0,0.0,53.0,74.0,0,2,756.0,2.0,0.0,45.0,A,92.0
207,14588.0,Note On,0,0.0,53.0,74.0,0,2,740.0,2.0,0.0,53.0,f,74.0
208,14588.0,Note On,0,0.0,53.0,74.0,0,2,764.0,2.0,0.0,60.0,c',80.0
209,14592.0,Note Off,0,0.0,62.0,92.0,0,2,604.0,5.0,3.0,60.0,c',73.0
210,14592.0,Note Off,0,0.0,62.0,92.0,0,2,96.0,11.0,9.0,54.0,f#,91.0
211,14620.0,Note Off,0,0.0,58.0,80.0,0,2,,,,,,
212,15328.0,Note Off,0,0.0,53.0,74.0,0,2,,,,,,
213,15344.0,Note Off,0,0.0,45.0,92.0,0,2,,,,,,
214,15352.0,Note Off,0,0.0,60.0,80.0,0,2,,,,,,
215,15360.0,Note On,0,0.0,60.0,88.0,0,2,572.0,2.0,0.0,60.0,c',88.0
216,15360.0,Note On,0,0.0,60.0,88.0,0,2,112.0,11.0,9.0,70.0,a#',69.0
217,15364.0,Note On,0,0.0,39.0,92.0,0,2,712.0,2.0,0.0,39.0,D#,92.0
218,15364.0,Note On,0,0.0,39.0,92.0,0,2,488.0,2.0,0.0,55.0,g,70.0
219,15364.0,Note On,0,0.0,55.0,70.0,0,2,712.0,2.0,0.0,39.0,D#,92.0
220,15364.0,Note On,0,0.0,55.0,70.0,0,2,488.0,2.0,0.0,55.0,g,70.0
221,15852.0,Note Off,0,0.0,55.0,70.0,0,2,,,,,,
222,15920.0,Note On,0,0.0,62.0,91.0,0,2,916.0,2.0,0.0,62.0,d',91.0
223,15924.0,Note On,0,0.0,55.0,92.0,0,2,360.0,2.0,0.0,55.0,g,92.0
224,15932.0,Note Off,0,0.0,60.0,88.0,0,2,,,,,,
225,16076.0,Note Off,0,0.0,39.0,92.0,0,2,,,,,,
226,16128.0,Note On,0,0.0,38.0,92.0,0,2,756.0,2.0,0.0,38.0,D,92.0
227,16128.0,Note On,0,0.0,38.0,92.0,0,2,180.0,11.0,9.0,37.0,C#,82.0
228,16284.0,Note Off,0,0.0,55.0,92.0,0,2,,,,,,
229,16304.0,Note On,0,0.0,54.0,85.0,0,2,548.0,2.0,0.0,54.0,f#,85.0
230,16836.0,Note Off,0,0.0,62.0,91.0,0,2,,,,,,
231,16852.0,Note Off,0,0.0,54.0,85.0,0,2,,,,,,
232,16884.0,Note Off,0,0.0,38.0,92.0,0,2,,,,,,
233,16900.0,Note On,0,0.0,43.0,92.0,0,2,712.0,2.0,0.0,43.0,G,92.0
234,16900.0,Note On,0,0.0,43.0,92.0,0,2,344.0,2.0,0.0,60.0,c',89.0
235,16900.0,Note On,0,0.0,43.0,92.0,0,2,692.0,2.0,0.0,62.0,d',77.0
236,16900.0,Note On,0,0.0,60.0,89.0,0,2,712.0,2.0,0.0,43.0,G,92.0
237,16900.0,Note On,0,0.0,60.0,89.0,0,2,344.0,2.0,0.0,60.0,c',89.0
238,16900.0,Note On,0,0.0,60.0,89.0,0,2,692.0,2.0,0.0,62.0,d',77.0
239,16900.0,Note On,0,0.0,62.0,77.0,0,2,712.0,2.0,0.0,43.0,G,92.0
240,16900.0,Note On,0,0.0,62.0,77.0,0,2,344.0,2.0,0.0,60.0,c',89.0
241,16900.0,Note On,0,0.0,62.0,77.0,0,2,692.0,2.0,0.0,62.0,d',77.0
242,17244.0,Note Off,0,0.0,60.0,89.0,0,2,,,,,,
243,17272.0,Note On,0,0.0,58.0,88.0,0,2,340.0,2.0,0.0,58.0,a#,88.0
244,17272.0,Note On,0,0.0,58.0,88.0,0,2,356.0,5.0,3.0,58.0,a#,60.0
245,17592.0,Note Off,0,0.0,62.0,77.0,0,2,,,,,,
246,17612.0,Note Off,0,0.0,58.0,88.0,0,2,,,,,,
247,17612.0,Note Off,0,0.0,43.0,92.0,0,2,,,,,,
248,17652.0,Note On,0,0.0,62.0,80.0,0,2,776.0,2.0,0.0,41.0,F,91.0
249,17652.0,Note On,0,0.0,62.0,80.0,0,2,348.0,2.0,0.0,57.0,a,92.0
250,17652.0,Note On,0,0.0,62.0,80.0,0,2,788.0,2.0,0.0,62.0,d',80.0
251,17652.0,Note On,0,0.0,41.0,91.0,0,2,776.0,2.0,0.0,41.0,F,91.0
252,17652.0,Note On,0,0.0,41.0,91.0,0,2,348.0,2.0,0.0,57.0,a,92.0
253,17652.0,Note On,0,0.0,41.0,91.0,0,2,788.0,2.0,0.0,62.0,d',80.0
254,17652.0,Note On,0,0.0,57.0,92.0,0,2,776.0,2.0,0.0,41.0,F,91.0
255,17652.0,Note On,0,0.0,57.0,92.0,0,2,348.0,2.0,0.0,57.0,a,92.0
256,17652.0,Note On,0,0.0,57.0,92.0,0,2,788.0,2.0,0.0,62.0,d',80.0
257,18000.0,Note Off,0,0.0,57.0,92.0,0,2,,,,,,
258,18036.0,Note On,0,0.0,58.0,88.0,0,2,352.0,2.0,0.0,58.0,a#,88.0
259,18388.0,Note Off,0,0.0,58.0,88.0,0,2,,,,,,
260,18428.0,Note Off,0,0.0,41.0,91.0,0,2,,,,,,
261,18432.0,Note On,0,0.0,58.0,86.0,0,2,772.0,2.0,0.0,58.0,a#,86.0
262,18432.0,Note On,0,0.0,58.0,86.0,0,2,324.0,5.0,3.0,55.0,g,73.0
263,18432.0,Note On,0,0.0,58.0,86.0,0,2,112.0,11.0,9.0,70.0,a#',69.0
264,18436.0,Note On,0,0.0,39.0,85.0,0,2,468.0,2.0,0.0,39.0,D#,85.0
265,18436.0,Note On,0,0.0,39.0,85.0,0,2,612.0,2.0,0.0,55.0,g,83.0
266,18436.0,Note On,0,0.0,55.0,83.0,0,2,468.0,2.0,0.0,39.0,D#,85.0
267,18436.0,Note On,0,0.0,55.0,83.0,0,2,612.0,2.0,0.0,55.0,g,83.0
268,18440.0,Note Off,0,0.0,62.0,80.0,0,2,,,,,,
269,18904.0,Note Off,0,0.0,39.0,85.0,0,2,,,,,,
270,19012.0,Note On,0,0.0,39.0,74.0,0,2,776.0,2.0,0.0,39.0,D#,74.0
271,19048.0,Note Off,0,0.0,55.0,83.0,0,2,,,,,,
272,19196.0,Note On,0,0.0,55.0,70.0,0,2,540.0,2.0,0.0,55.0,g,70.0
273,19204.0,Note Off,0,0.0,58.0,86.0,0,2,,,,,,
274,19380.0,Note On,0,0.0,58.0,74.0,0,2,360.0,2.0,0.0,58.0,a#,74.0
275,19584.0,Note On,0,0.0,63.0,92.0,0,2,148.0,2.0,0.0,63.0,d#',92.0
276,19584.0,Note On,0,0.0,63.0,92.0,0,2,184.0,5.0,3.0,58.0,a#,56.0
277,19732.0,Note Off,0,0.0,63.0,92.0,0,2,,,,,,
278,19736.0,Note Off,0,0.0,55.0,70.0,0,2,,,,,,
279,19740.0,Note Off,0,0.0,58.0,74.0,0,2,,,,,,
280,19772.0,Note On,0,0.0,58.0,92.0,0,2,976.0,2.0,0.0,58.0,a#,92.0
281,19772.0,Note On,0,0.0,58.0,92.0,0,2,1452.0,2.0,0.0,62.0,d',101.0
282,19772.0,Note On,0,0.0,62.0,101.0,0,2,976.0,2.0,0.0,58.0,a#,92.0
283,19772.0,Note On,0,0.0,62.0,101.0,0,2,1452.0,2.0,0.0,62.0,d',101.0
284,19784.0,Note On,0,0.0,53.0,83.0,0,2,700.0,2.0,0.0,53.0,f,83.0
285,19788.0,Note Off,0,0.0,39.0,74.0,0,2,,,,,,
286,19968.0,Note On,0,0.0,46.0,92.0,0,2,1404.0,2.0,0.0,46.0,A#,92.0
287,20484.0,Note Off,0,0.0,53.0,83.0,0,2,,,,,,
288,20536.0,Note On,0,0.0,53.0,74.0,0,2,396.0,2.0,0.0,53.0,f,74.0
289,20536.0,Note On,0,0.0,53.0,74.0,0,2,392.0,2.0,0.0,65.0,f',74.0
290,20536.0,Note On,0,0.0,65.0,74.0,0,2,396.0,2.0,0.0,53.0,f,74.0
291,20536.0,Note On,0,0.0,65.0,74.0,0,2,392.0,2.0,0.0,65.0,f',74.0
292,20732.0,Note On,0,0.0,74.0,83.0,0,2,392.0,2.0,0.0,74.0,d'',83.0
293,20748.0,Note Off,0,0.0,58.0,92.0,0,2,,,,,,
294,20924.0,Note On,0,0.0,63.0,82.0,0,2,384.0,2.0,0.0,63.0,d#',82.0
295,20924.0,Note On,0,0.0,63.0,82.0,0,2,192.0,9.0,7.0,75.0,d#'',48.0
296,20928.0,Note Off,0,0.0,65.0,74.0,0,2,60.0,12.0,10.0,50.0,d,48.0
297,20932.0,Note Off,0,0.0,53.0,74.0,0,2,,,,,,
298,20936.0,Note On,0,0.0,58.0,54.0,0,2,180.0,2.0,0.0,58.0,a#,54.0
299,21112.0,Note On,0,0.0,72.0,83.0,0,2,384.0,2.0,0.0,72.0,c'',83.0
300,21116.0,Note Off,0,0.0,58.0,54.0,0,2,368.0,2.0,0.0,53.0,f,66.0
301,21116.0,Note On,0,0.0,53.0,66.0,0,2,368.0,2.0,0.0,53.0,f,66.0
302,21124.0,Note Off,0,0.0,74.0,83.0,0,2,,,,,,
303,21224.0,Note Off,0,0.0,62.0,101.0,0,2,,,,,,
304,21304.0,Note On,0,0.0,62.0,83.0,0,2,192.0,2.0,0.0,62.0,d',83.0
305,21308.0,Note Off,0,0.0,63.0,82.0,0,2,,,,,,
306,21372.0,Note Off,0,0.0,46.0,92.0,0,2,,,,,,
307,21484.0,Note Off,0,0.0,53.0,66.0,0,2,412.0,10.0,8.0,74.0,d'',75.0
308,21496.0,Note Off,0,0.0,62.0,83.0,0,2,1264.0,2.0,0.0,70.0,a#',88.0
309,21496.0,Note Off,0,0.0,62.0,83.0,0,2,792.0,9.0,7.0,82.0,a#'',48.0
310,21496.0,Note Off,0,0.0,72.0,83.0,0,2,1264.0,2.0,0.0,70.0,a#',88.0
311,21496.0,Note Off,0,0.0,72.0,83.0,0,2,792.0,9.0,7.0,82.0,a#'',48.0
312,21496.0,Note On,0,0.0,70.0,88.0,0,2,1264.0,2.0,0.0,70.0,a#',88.0
313,21496.0,Note On,0,0.0,70.0,88.0,0,2,792.0,9.0,7.0,82.0,a#'',48.0
314,21504.0,Note On,0,0.0,46.0,92.0,0,2,1436.0,2.0,0.0,46.0,A#,92.0
315,21504.0,Note On,0,0.0,46.0,92.0,0,2,492.0,2.0,0.0,53.0,f,83.0
316,21504.0,Note On,0,0.0,46.0,92.0,0,2,296.0,5.0,3.0,62.0,d',73.0
317,21504.0,Note On,0,0.0,46.0,92.0,0,2,48.0,11.0,9.0,59.0,b,64.0
318,21504.0,Note On,0,0.0,46.0,92.0,0,2,112.0,11.0,9.0,70.0,a#',69.0
319,21504.0,Note On,0,0.0,46.0,92.0,0,2,96.0,12.0,10.0,36.0,C,78.0
320,21504.0,Note On,0,0.0,53.0,83.0,0,2,1436.0,2.0,0.0,46.0,A#,92.0
321,21504.0,Note On,0,0.0,53.0,83.0,0,2,492.0,2.0,0.0,53.0,f,83.0
322,21504.0,Note On,0,0.0,53.0,83.0,0,2,296.0,5.0,3.0,62.0,d',73.0
323,21504.0,Note On,0,0.0,53.0,83.0,0,2,48.0,11.0,9.0,59.0,b,64.0
324,21504.0,Note On,0,0.0,53.0,83.0,0,2,112.0,11.0,9.0,70.0,a#',69.0
325,21504.0,Note On,0,0.0,53.0,83.0,0,2,96.0,12.0,10.0,36.0,C,78.0
326,21512.0,Note On,0,0.0,62.0,92.0,0,2,536.0,2.0,0.0,62.0,d',92.0
327,21996.0,Note Off,0,0.0,53.0,83.0,0,2,,,,,,
328,22048.0,Note Off,0,0.0,62.0,92.0,0,2,,,,,,
329,22068.0,Note On,0,0.0,63.0,83.0,0,2,356.0,2.0,0.0,63.0,d#',83.0
330,22072.0,Note On,0,0.0,55.0,92.0,0,2,536.0,2.0,0.0,55.0,g,92.0
331,22424.0,Note Off,0,0.0,63.0,83.0,0,2,,,,,,
332,22452.0,Note On,0,0.0,62.0,79.0,0,2,1704.0,2.0,0.0,62.0,d',79.0
333,22608.0,Note Off,0,0.0,55.0,92.0,0,2,,,,,,
334,22640.0,Note On,0,0.0,58.0,79.0,0,2,216.0,2.0,0.0,58.0,a#,79.0
335,22760.0,Note Off,0,0.0,70.0,88.0,0,2,,,,,,
336,22828.0,Note On,0,0.0,53.0,85.0,0,2,1700.0,2.0,0.0,53.0,f,85.0
337,22856.0,Note Off,0,0.0,58.0,79.0,0,2,,,,,,
338,22940.0,Note Off,0,0.0,46.0,92.0,0,2,,,,,,
339,23032.0,Note On,0,0.0,46.0,87.0,0,2,1504.0,2.0,0.0,46.0,A#,87.0
340,23404.0,Note On,0,0.0,65.0,70.0,0,2,204.0,2.0,0.0,65.0,f',70.0
341,23408.0,Note On,0,0.0,72.0,70.0,0,2,228.0,2.0,0.0,72.0,c'',70.0
342,23604.0,Note On,0,0.0,67.0,70.0,0,2,400.0,2.0,0.0,67.0,g',70.0
343,23608.0,Note Off,0,0.0,65.0,70.0,0,2,416.0,2.0,0.0,75.0,d#'',92.0
344,23608.0,Note Off,0,0.0,65.0,70.0,0,2,416.0,9.0,7.0,75.0,d#'',52.0
345,23608.0,Note On,0,0.0,75.0,92.0,0,2,416.0,2.0,0.0,75.0,d#'',92.0
346,23608.0,Note On,0,0.0,75.0,92.0,0,2,416.0,9.0,7.0,75.0,d#'',52.0
347,23636.0,Note Off,0,0.0,72.0,70.0,0,2,,,,,,
348,23992.0,Note On,0,0.0,65.0,66.0,0,2,212.0,2.0,0.0,65.0,f',66.0
349,23996.0,Note On,0,0.0,74.0,83.0,0,2,212.0,2.0,0.0,74.0,d'',83.0
350,24004.0,Note Off,0,0.0,67.0,70.0,0,2,,,,,,
351,24024.0,Note Off,0,0.0,75.0,92.0,0,2,,,,,,
352,24156.0,Note Off,0,0.0,62.0,79.0,0,2,,,,,,
353,24188.0,Note On,0,0.0,62.0,66.0,0,2,376.0,2.0,0.0,62.0,d',66.0
354,24188.0,Note On,0,0.0,62.0,66.0,0,2,204.0,9.0,7.0,70.0,a#',52.0
355,24196.0,Note On,0,0.0,70.0,74.0,0,2,192.0,2.0,0.0,70.0,a#',74.0
356,24204.0,Note Off,0,0.0,65.0,66.0,0,2,,,,,,
357,24208.0,Note Off,0,0.0,74.0,83.0,0,2,,,,,,
358,24368.0,Note On,0,0.0,65.0,77.0,0,2,176.0,2.0,0.0,65.0,f',77.0
359,24388.0,Note Off,0,0.0,70.0,74.0,0,2,,,,,,
360,24528.0,Note Off,0,0.0,53.0,85.0,0,2,,,,,,
361,24536.0,Note Off,0,0.0,46.0,87.0,0,2,,,,,,
362,24544.0,Note Off,0,0.0,65.0,77.0,0,2,,,,,,
363,24564.0,Note Off,0,0.0,62.0,66.0,0,2,,,,,,
364,24572.0,Note On,0,0.0,65.0,62.0,0,2,588.0,2.0,0.0,65.0,f',62.0
365,24576.0,Note On,0,0.0,46.0,92.0,0,2,1316.0,2.0,0.0,46.0,A#,92.0
366,24576.0,Note On,0,0.0,46.0,92.0,0,2,492.0,2.0,0.0,53.0,f,83.0
367,24576.0,Note On,0,0.0,46.0,92.0,0,2,536.0,2.0,0.0,62.0,d',92.0
368,24576.0,Note On,0,0.0,46.0,92.0,0,2,332.0,5.0,3.0,62.0,d',64.0
369,24576.0,Note On,0,0.0,46.0,92.0,0,2,300.0,11.0,9.0,44.0,G#,56.0
370,24576.0,Note On,0,0.0,46.0,92.0,0,2,280.0,11.0,9.0,51.0,d#,48.0
371,24576.0,Note On,0,0.0,46.0,92.0,0,2,112.0,11.0,9.0,70.0,a#',69.0
372,24576.0,Note On,0,0.0,46.0,92.0,0,2,96.0,12.0,10.0,36.0,C,78.0
373,24576.0,Note On,0,0.0,53.0,83.0,0,2,1316.0,2.0,0.0,46.0,A#,92.0
374,24576.0,Note On,0,0.0,53.0,83.0,0,2,492.0,2.0,0.0,53.0,f,83.0
375,24576.0,Note On,0,0.0,53.0,83.0,0,2,536.0,2.0,0.0,62.0,d',92.0
376,24576.0,Note On,0,0.0,53.0,83.0,0,2,332.0,5.0,3.0,62.0,d',64.0
377,24576.0,Note On,0,0.0,53.0,83.0,0,2,300.0,11.0,9.0,44.0,G#,56.0
378,24576.0,Note On,0,0.0,53.0,83.0,0,2,280.0,11.0,9.0,51.0,d#,48.0
379,24576.0,Note On,0,0.0,53.0,83.0,0,2,112.0,11.0,9.0,70.0,a#',69.0
380,24576.0,Note On,0,0.0,53.0,83.0,0,2,96.0,12.0,10.0,36.0,C,78.0
381,24576.0,Note On,0,0.0,62.0,92.0,0,2,1316.0,2.0,0.0,46.0,A#,92.0
382,24576.0,Note On,0,0.0,62.0,92.0,0,2,492.0,2.0,0.0,53.0,f,83.0
383,24576.0,Note On,0,0.0,62.0,92.0,0,2,536.0,2.0,0.0,62.0,d',92.0
384,24576.0,Note On,0,0.0,62.0,92.0,0,2,332.0,5.0,3.0,62.0,d',64.0
385,24576.0,Note On,0,0.0,62.0,92.0,0,2,300.0,11.0,9.0,44.0,G#,56.0
386,24576.0,Note On,0,0.0,62.0,92.0,0,2,280.0,11.0,9.0,51.0,d#,48.0
387,24576.0,Note On,0,0.0,62.0,92.0,0,2,112.0,11.0,9.0,70.0,a#',69.0
388,24576.0,Note On,0,0.0,62.0,92.0,0,2,96.0,12.0,10.0,36.0,C,78.0
389,25068.0,Note Off,0,0.0,53.0,83.0,0,2,,,,,,
390,25112.0,Note Off,0,0.0,62.0,92.0,0,2,,,,,,
391,25148.0,Note On,0,0.0,58.0,63.0,0,2,384.0,2.0,0.0,55.0,g,92.0
392,25148.0,Note On,0,0.0,58.0,63.0,0,2,384.0,2.0,0.0,58.0,a#,63.0
393,25148.0,Note On,0,0.0,58.0,63.0,0,2,376.0,2.0,0.0,63.0,d#',83.0
394,25148.0,Note On,0,0.0,58.0,63.0,0,2,332.0,5.0,3.0,63.0,d#',64.0
395,25148.0,Note On,0,0.0,63.0,83.0,0,2,384.0,2.0,0.0,55.0,g,92.0
396,25148.0,Note On,0,0.0,63.0,83.0,0,2,384.0,2.0,0.0,58.0,a#,63.0
397,25148.0,Note On,0,0.0,63.0,83.0,0,2,376.0,2.0,0.0,63.0,d#',83.0
398,25148.0,Note On,0,0.0,63.0,83.0,0,2,332.0,5.0,3.0,63.0,d#',64.0
399,25148.0,Note On,0,0.0,55.0,92.0,0,2,384.0,2.0,0.0,55.0,g,92.0
400,25148.0,Note On,0,0.0,55.0,92.0,0,2,384.0,2.0,0.0,58.0,a#,63.0
401,25148.0,Note On,0,0.0,55.0,92.0,0,2,376.0,2.0,0.0,63.0,d#',83.0
402,25148.0,Note On,0,0.0,55.0,92.0,0,2,332.0,5.0,3.0,63.0,d#',64.0
403,25160.0,Note Off,0,0.0,65.0,62.0,0,2,,,,,,
404,25524.0,Note Off,0,0.0,63.0,83.0,0,2,176.0,5.0,3.0,62.0,d',73.0
405,25532.0,Note Off,0,0.0,55.0,92.0,0,2,524.0,2.0,0.0,62.0,d',82.0
406,25532.0,Note Off,0,0.0,58.0,63.0,0,2,524.0,2.0,0.0,62.0,d',82.0
407,25532.0,Note On,0,0.0,62.0,82.0,0,2,524.0,2.0,0.0,62.0,d',82.0
408,25724.0,Note On,0,0.0,58.0,82.0,0,2,388.0,2.0,0.0,58.0,a#,82.0
409,25724.0,Note On,0,0.0,58.0,82.0,0,2,364.0,5.0,3.0,58.0,a#,64.0
410,25892.0,Note Off,0,0.0,46.0,92.0,0,2,,,,,,
411,25908.0,Note On,0,0.0,46.0,74.0,0,2,192.0,2.0,0.0,46.0,A#,74.0
412,25908.0,Note On,0,0.0,46.0,74.0,0,2,208.0,2.0,0.0,53.0,f,68.0
413,25908.0,Note On,0,0.0,53.0,68.0,0,2,192.0,2.0,0.0,46.0,A#,74.0
414,25908.0,Note On,0,0.0,53.0,68.0,0,2,208.0,2.0,0.0,53.0,f,68.0
415,26056.0,Note Off,0,0.0,62.0,82.0,0,2,,,,,,
416,26100.0,Note Off,0,0.0,46.0,74.0,0,2,,,,,,
417,26104.0,Note On,0,0.0,43.0,92.0,0,2,772.0,2.0,0.0,43.0,G,92.0
418,26104.0,Note On,0,0.0,43.0,92.0,0,2,756.0,2.0,0.0,55.0,g,70.0
419,26104.0,Note On,0,0.0,43.0,92.0,0,2,608.0,2.0,0.0,62.0,d',83.0
420,26104.0,Note On,0,0.0,55.0,70.0,0,2,772.0,2.0,0.0,43.0,G,92.0
421,26104.0,Note On,0,0.0,55.0,70.0,0,2,756.0,2.0,0.0,55.0,g,70.0
422,26104.0,Note On,0,0.0,55.0,70.0,0,2,608.0,2.0,0.0,62.0,d',83.0
423,26104.0,Note On,0,0.0,62.0,83.0,0,2,772.0,2.0,0.0,43.0,G,92.0
424,26104.0,Note On,0,0.0,62.0,83.0,0,2,756.0,2.0,0.0,55.0,g,70.0
425,26104.0,Note On,0,0.0,62.0,83.0,0,2,608.0,2.0,0.0,62.0,d',83.0
426,26112.0,Note Off,0,0.0,58.0,82.0,0,2,752.0,5.0,3.0,62.0,d',75.0
427,26112.0,Note Off,0,0.0,58.0,82.0,0,2,96.0,12.0,10.0,36.0,C,78.0
428,26116.0,Note Off,0,0.0,53.0,68.0,0,2,,,,,,
429,26304.0,Note On,0,0.0,51.0,79.0,0,2,536.0,2.0,0.0,51.0,d#,79.0
430,26492.0,Note On,0,0.0,58.0,70.0,0,2,408.0,2.0,0.0,58.0,a#,70.0
431,26680.0,Note On,0,0.0,60.0,83.0,0,2,168.0,2.0,0.0,60.0,c',83.0
432,26712.0,Note Off,0,0.0,62.0,83.0,0,2,,,,,,
433,26840.0,Note Off,0,0.0,51.0,79.0,0,2,,,,,,
434,26848.0,Note Off,0,0.0,60.0,83.0,0,2,,,,,,
435,26860.0,Note Off,0,0.0,55.0,70.0,0,2,,,,,,
436,26872.0,Note On,0,0.0,57.0,66.0,0,2,756.0,2.0,0.0,57.0,a,66.0
437,26872.0,Note On,0,0.0,57.0,66.0,0,2,732.0,2.0,0.0,60.0,c',88.0
438,26872.0,Note On,0,0.0,60.0,88.0,0,2,756.0,2.0,0.0,57.0,a,66.0
439,26872.0,Note On,0,0.0,60.0,88.0,0,2,732.0,2.0,0.0,60.0,c',88.0
440,26876.0,Note Off,0,0.0,43.0,92.0,0,2,756.0,2.0,0.0,45.0,A,92.0
441,26876.0,Note On,0,0.0,45.0,92.0,0,2,756.0,2.0,0.0,45.0,A,92.0
442,26900.0,Note Off,0,0.0,58.0,70.0,0,2,,,,,,
443,27068.0,Note On,0,0.0,53.0,74.0,0,2,196.0,2.0,0.0,53.0,f,74.0
444,27264.0,Note Off,0,0.0,53.0,74.0,0,2,,,,,,
445,27268.0,Note On,0,0.0,65.0,83.0,0,2,420.0,2.0,0.0,65.0,f',83.0
446,27452.0,Note On,0,0.0,53.0,74.0,0,2,224.0,2.0,0.0,53.0,f,74.0
447,27604.0,Note Off,0,0.0,60.0,88.0,0,2,,,,,,
448,27628.0,Note Off,0,0.0,57.0,66.0,0,2,,,,,,
449,27632.0,Note Off,0,0.0,45.0,92.0,0,2,,,,,,
450,27648.0,Note On,0,0.0,60.0,88.0,0,2,572.0,2.0,0.0,60.0,c',88.0
451,27648.0,Note On,0,0.0,60.0,88.0,0,2,112.0,11.0,9.0,70.0,a#',69.0
452,27648.0,Note On,0,0.0,60.0,88.0,0,2,236.0,12.0,10.0,36.0,C,78.0
453,27652.0,Note On,0,0.0,39.0,92.0,0,2,712.0,2.0,0.0,39.0,D#,92.0
454,27652.0,Note On,0,0.0,39.0,92.0,0,2,488.0,2.0,0.0,55.0,g,70.0
455,27652.0,Note On,0,0.0,55.0,70.0,0,2,712.0,2.0,0.0,39.0,D#,92.0
456,27652.0,Note On,0,0.0,55.0,70.0,0,2,488.0,2.0,0.0,55.0,g,70.0
457,27676.0,Note Off,0,0.0,53.0,74.0,0,2,,,,,,
458,27688.0,Note Off,0,0.0,65.0,83.0,0,2,,,,,,
459,28140.0,Note Off,0,0.0,55.0,70.0,0,2,,,,,,
460,28208.0,Note On,0,0.0,62.0,91.0,0,2,920.0,2.0,0.0,62.0,d',91.0
461,28220.0,Note Off,0,0.0,60.0,88.0,0,2,,,,,,
462,28364.0,Note Off,0,0.0,39.0,92.0,0,2,,,,,,
463,28400.0,Note On,0,0.0,55.0,84.0,0,2,164.0,2.0,0.0,55.0,g,84.0
464,28416.0,Note On,0,0.0,38.0,92.0,0,2,756.0,2.0,0.0,38.0,D,92.0
465,28416.0,Note On,0,0.0,38.0,92.0,0,2,180.0,11.0,9.0,37.0,C#,82.0
466,28564.0,Note Off,0,0.0,55.0,84.0,0,2,,,,,,
467,28572.0,Note On,0,0.0,54.0,62.0,0,2,352.0,2.0,0.0,54.0,f#,62.0
468,28924.0,Note Off,0,0.0,54.0,62.0,0,2,,,,,,
469,28968.0,Note On,0,0.0,54.0,46.0,0,2,184.0,2.0,0.0,54.0,f#,46.0
470,28992.0,Note On,0,0.0,57.0,58.0,0,2,172.0,2.0,0.0,57.0,a,58.0
471,28992.0,Note On,0,0.0,57.0,58.0,0,2,144.0,5.0,3.0,57.0,a,56.0
472,29128.0,Note Off,0,0.0,62.0,91.0,0,2,,,,,,
473,29152.0,Note Off,0,0.0,54.0,46.0,0,2,,,,,,
474,29164.0,Note Off,0,0.0,57.0,58.0,0,2,,,,,,
475,29172.0,Note Off,0,0.0,38.0,92.0,0,2,,,,,,
476,29180.0,Note On,0,0.0,62.0,82.0,0,2,676.0,2.0,0.0,62.0,d',82.0
477,29180.0,Note On,0,0.0,62.0,82.0,0,2,320.0,5.0,3.0,60.0,c',64.0
478,29184.0,Note On,0,0.0,60.0,74.0,0,2,168.0,2.0,0.0,60.0,c',74.0
479,29184.0,Note On,0,0.0,60.0,74.0,0,2,236.0,12.0,10.0,36.0,C,78.0
480,29188.0,Note On,0,0.0,43.0,92.0,0,2,712.0,2.0,0.0,43.0,G,92.0
481,29188.0,Note On,0,0.0,43.0,92.0,0,2,676.0,2.0,0.0,55.0,g,74.0
482,29188.0,Note On,0,0.0,55.0,74.0,0,2,712.0,2.0,0.0,43.0,G,92.0
483,29188.0,Note On,0,0.0,55.0,74.0,0,2,676.0,2.0,0.0,55.0,g,74.0
484,29348.0,Note On,0,0.0,58.0,58.0,0,2,556.0,2.0,0.0,58.0,a#,58.0
485,29352.0,Note Off,0,0.0,60.0,74.0,0,2,,,,,,
486,29856.0,Note Off,0,0.0,62.0,82.0,0,2,,,,,,
487,29864.0,Note Off,0,0.0,55.0,74.0,0,2,,,,,,
488,29900.0,Note Off,0,0.0,43.0,92.0,0,2,,,,,,
489,29904.0,Note Off,0,0.0,58.0,58.0,0,2,,,,,,
490,29936.0,Note On,0,0.0,58.0,70.0,0,2,756.0,2.0,0.0,58.0,a#,70.0
491,29936.0,Note On,0,0.0,58.0,70.0,0,2,760.0,2.0,0.0,62.0,d',74.0
492,29936.0,Note On,0,0.0,62.0,74.0,0,2,756.0,2.0,0.0,58.0,a#,70.0
493,29936.0,Note On,0,0.0,62.0,74.0,0,2,760.0,2.0,0.0,62.0,d',74.0
494,29940.0,Note On,0,0.0,55.0,83.0,0,2,776.0,2.0,0.0,41.0,F,91.0
495,29940.0,Note On,0,0.0,55.0,83.0,0,2,760.0,2.0,0.0,55.0,g,83.0
496,29940.0,Note On,0,0.0,41.0,91.0,0,2,776.0,2.0,0.0,41.0,F,91.0
497,29940.0,Note On,0,0.0,41.0,91.0,0,2,760.0,2.0,0.0,55.0,g,83.0
498,30320.0,Note On,0,0.0,67.0,82.0,0,2,364.0,2.0,0.0,67.0,g',82.0
499,30684.0,Note Off,0,0.0,67.0,82.0,0,2,,,,,,
500,30692.0,Note Off,0,0.0,58.0,70.0,0,2,,,,,,
501,30696.0,Note Off,0,0.0,62.0,74.0,0,2,,,,,,
502,30700.0,Note Off,0,0.0,55.0,83.0,0,2,,,,,,
503,30712.0,Note On,0,0.0,67.0,87.0,0,2,564.0,2.0,0.0,67.0,g',87.0
504,30716.0,Note Off,0,0.0,41.0,91.0,0,2,376.0,2.0,0.0,58.0,a#,86.0
505,30716.0,Note On,0,0.0,58.0,86.0,0,2,376.0,2.0,0.0,58.0,a#,86.0
506,30720.0,Note On,0,0.0,63.0,76.0,0,2,520.0,2.0,0.0,63.0,d#',76.0
507,30720.0,Note On,0,0.0,63.0,76.0,0,2,324.0,5.0,3.0,55.0,g,73.0
508,30720.0,Note On,0,0.0,63.0,76.0,0,2,112.0,11.0,9.0,70.0,a#',69.0
509,30720.0,Note On,0,0.0,63.0,76.0,0,2,96.0,12.0,10.0,36.0,C,78.0
510,30724.0,Note On,0,0.0,39.0,85.0,0,2,468.0,2.0,0.0,39.0,D#,85.0
511,31092.0,Note Off,0,0.0,58.0,86.0,0,2,180.0,5.0,3.0,58.0,a#,56.0
512,31104.0,Note On,0,0.0,55.0,66.0,0,2,188.0,2.0,0.0,55.0,g,66.0
513,31104.0,Note On,0,0.0,55.0,66.0,0,2,112.0,11.0,9.0,70.0,a#',52.0
514,31192.0,Note Off,0,0.0,39.0,85.0,0,2,,,,,,
515,31240.0,Note Off,0,0.0,63.0,76.0,0,2,,,,,,
516,31276.0,Note Off,0,0.0,67.0,87.0,0,2,,,,,,
517,31292.0,Note Off,0,0.0,55.0,66.0,0,2,156.0,2.0,0.0,58.0,a#,72.0
518,31292.0,Note Off,0,0.0,55.0,66.0,0,2,444.0,5.0,3.0,60.0,c',64.0
519,31292.0,Note On,0,0.0,58.0,72.0,0,2,156.0,2.0,0.0,58.0,a#,72.0
520,31292.0,Note On,0,0.0,58.0,72.0,0,2,444.0,5.0,3.0,60.0,c',64.0
521,31296.0,Note On,0,0.0,63.0,79.0,0,2,168.0,2.0,0.0,63.0,d#',79.0
522,31296.0,Note On,0,0.0,63.0,79.0,0,2,164.0,2.0,0.0,70.0,a#',83.0
523,31296.0,Note On,0,0.0,63.0,79.0,0,2,220.0,11.0,9.0,70.0,a#',32.0
524,31296.0,Note On,0,0.0,70.0,83.0,0,2,168.0,2.0,0.0,63.0,d#',79.0
525,31296.0,Note On,0,0.0,70.0,83.0,0,2,164.0,2.0,0.0,70.0,a#',83.0
526,31296.0,Note On,0,0.0,70.0,83.0,0,2,220.0,11.0,9.0,70.0,a#',32.0
527,31300.0,Note On,0,0.0,39.0,74.0,0,2,776.0,2.0,0.0,39.0,D#,74.0
528,31448.0,Note Off,0,0.0,58.0,72.0,0,2,,,,,,
529,31460.0,Note Off,0,0.0,70.0,83.0,0,2,,,,,,
530,31464.0,Note Off,0,0.0,63.0,79.0,0,2,,,,,,
531,31484.0,Note On,0,0.0,55.0,83.0,0,2,160.0,2.0,0.0,55.0,g,83.0
532,31484.0,Note On,0,0.0,55.0,83.0,0,2,160.0,2.0,0.0,58.0,a#,50.0
533,31484.0,Note On,0,0.0,58.0,50.0,0,2,160.0,2.0,0.0,55.0,g,83.0
534,31484.0,Note On,0,0.0,58.0,50.0,0,2,160.0,2.0,0.0,58.0,a#,50.0
535,31644.0,Note Off,0,0.0,58.0,50.0,0,2,,,,,,
536,31644.0,Note Off,0,0.0,55.0,83.0,0,2,,,,,,
537,31668.0,Note On,0,0.0,70.0,74.0,0,2,172.0,2.0,0.0,58.0,a#,74.0
538,31668.0,Note On,0,0.0,70.0,74.0,0,2,176.0,2.0,0.0,70.0,a#',74.0
539,31668.0,Note On,0,0.0,58.0,74.0,0,2,172.0,2.0,0.0,58.0,a#,74.0
540,31668.0,Note On,0,0.0,58.0,74.0,0,2,176.0,2.0,0.0,70.0,a#',74.0
541,31676.0,Note On,0,0.0,63.0,92.0,0,2,168.0,2.0,0.0,63.0,d#',92.0
542,31676.0,Note On,0,0.0,63.0,92.0,0,2,164.0,2.0,0.0,65.0,f',65.0
543,31676.0,Note On,0,0.0,65.0,65.0,0,2,168.0,2.0,0.0,63.0,d#',92.0
544,31676.0,Note On,0,0.0,65.0,65.0,0,2,164.0,2.0,0.0,65.0,f',65.0
545,31840.0,Note Off,0,0.0,65.0,65.0,0,2,,,,,,
546,31840.0,Note Off,0,0.0,58.0,74.0,0,2,,,,,,
547,31844.0,Note Off,0,0.0,63.0,92.0,0,2,,,,,,
548,31844.0,Note Off,0,0.0,70.0,74.0,0,2,,,,,,
549,31856.0,Note On,0,0.0,58.0,54.0,0,2,184.0,2.0,0.0,55.0,g,66.0
550,31856.0,Note On,0,0.0,58.0,54.0,0,2,184.0,2.0,0.0,58.0,a#,54.0
551,31856.0,Note On,0,0.0,55.0,66.0,0,2,184.0,2.0,0.0,55.0,g,66.0
552,31856.0,Note On,0,0.0,55.0,66.0,0,2,184.0,2.0,0.0,58.0,a#,54.0
553,32040.0,Note Off,0,0.0,55.0,66.0,0,2,,,,,,
554,32040.0,Note Off,0,0.0,58.0,54.0,0,2,,,,,,
555,32060.0,Note On,0,0.0,58.0,92.0,0,2,940.0,2.0,0.0,58.0,a#,92.0
556,32060.0,Note On,0,0.0,58.0,92.0,0,2,580.0,2.0,0.0,62.0,d',101.0
557,32060.0,Note On,0,0.0,62.0,101.0,0,2,940.0,2.0,0.0,58.0,a#,92.0
558,32060.0,Note On,0,0.0,62.0,101.0,0,2,580.0,2.0,0.0,62.0,d',101.0
559,32068.0,Note On,0,0.0,53.0,83.0,0,2,320.0,2.0,0.0,53.0,f,83.0
560,32068.0,Note On,0,0.0,53.0,83.0,0,2,588.0,5.0,3.0,62.0,d',73.0
561,32076.0,Note Off,0,0.0,39.0,74.0,0,2,,,,,,
562,32256.0,Note On,0,0.0,46.0,92.0,0,2,1404.0,2.0,0.0,46.0,A#,92.0
563,32256.0,Note On,0,0.0,46.0,92.0,0,2,96.0,12.0,10.0,36.0,C,78.0
564,32388.0,Note Off,0,0.0,53.0,83.0,0,2,,,,,,
565,32440.0,Note On,0,0.0,53.0,70.0,0,2,592.0,2.0,0.0,53.0,f,70.0
566,32632.0,Note On,0,0.0,60.0,83.0,0,2,368.0,2.0,0.0,60.0,c',83.0
567,32640.0,Note Off,0,0.0,62.0,101.0,0,2,68.0,7.0,5.0,70.0,a#',75.0
568,32640.0,Note Off,0,0.0,62.0,101.0,0,2,1036.0,15.0,13.0,72.0,c'',31.0
569,32828.0,Note On,0,0.0,62.0,74.0,0,2,180.0,2.0,0.0,62.0,d',74.0
570,33000.0,Note Off,0,0.0,60.0,83.0,0,2,,,,,,
571,33000.0,Note Off,0,0.0,58.0,92.0,0,2,,,,,,
572,33008.0,Note Off,0,0.0,62.0,74.0,0,2,,,,,,
573,33016.0,Note On,0,0.0,58.0,70.0,0,2,368.0,2.0,0.0,58.0,a#,70.0
574,33024.0,Note On,0,0.0,55.0,83.0,0,2,360.0,2.0,0.0,55.0,g,83.0
575,33024.0,Note On,0,0.0,55.0,83.0,0,2,344.0,2.0,0.0,63.0,d#',86.0
576,33024.0,Note On,0,0.0,55.0,83.0,0,2,96.0,11.0,9.0,54.0,f#,91.0
577,33024.0,Note On,0,0.0,55.0,83.0,0,2,60.0,12.0,10.0,50.0,d,48.0
578,33024.0,Note On,0,0.0,63.0,86.0,0,2,360.0,2.0,0.0,55.0,g,83.0
579,33024.0,Note On,0,0.0,63.0,86.0,0,2,344.0,2.0,0.0,63.0,d#',86.0
580,33024.0,Note On,0,0.0,63.0,86.0,0,2,96.0,11.0,9.0,54.0,f#,91.0
581,33024.0,Note On,0,0.0,63.0,86.0,0,2,60.0,12.0,10.0,50.0,d,48.0
582,33032.0,Note Off,0,0.0,53.0,70.0,0,2,,,,,,
583,33368.0,Note Off,0,0.0,63.0,86.0,0,2,,,,,,
584,33384.0,Note Off,0,0.0,55.0,83.0,0,2,,,,,,
585,33384.0,Note Off,0,0.0,58.0,70.0,0,2,,,,,,
586,33404.0,Note On,0,0.0,58.0,66.0,0,2,384.0,2.0,0.0,58.0,a#,66.0
587,33408.0,Note On,0,0.0,55.0,74.0,0,2,368.0,2.0,0.0,55.0,g,74.0
588,33408.0,Note On,0,0.0,55.0,74.0,0,2,372.0,2.0,0.0,63.0,d#',101.0
589,33408.0,Note On,0,0.0,55.0,74.0,0,2,340.0,5.0,3.0,67.0,g',91.0
590,33408.0,Note On,0,0.0,55.0,74.0,0,2,60.0,12.0,10.0,41.0,F,48.0
591,33408.0,Note On,0,0.0,63.0,101.0,0,2,368.0,2.0,0.0,55.0,g,74.0
592,33408.0,Note On,0,0.0,63.0,101.0,0,2,372.0,2.0,0.0,63.0,d#',101.0
593,33408.0,Note On,0,0.0,63.0,101.0,0,2,340.0,5.0,3.0,67.0,g',91.0
594,33408.0,Note On,0,0.0,63.0,101.0,0,2,60.0,12.0,10.0,41.0,F,48.0
595,33660.0,Note Off,0,0.0,46.0,92.0,0,2,,,,,,
596,33776.0,Note Off,0,0.0,55.0,74.0,0,2,9240.0,4.0,2.0,65.0,f',42.0
597,33780.0,Note Off,0,0.0,63.0,101.0,0,2,,,,,,
598,33788.0,Note Off,0,0.0,58.0,66.0,0,2,,,,,,
599,33792.0,Note On,0,0.0,57.0,101.0,0,2,540.0,2.0,0.0,53.0,f,92.0
600,33792.0,Note On,0,0.0,57.0,101.0,0,2,588.0,2.0,0.0,57.0,a,101.0
601,33792.0,Note On,0,0.0,57.0,101.0,0,2,588.0,3.0,1.0,29.0,"F,",64.0
602,33792.0,Note On,0,0.0,57.0,101.0,0,2,1868.0,5.0,3.0,65.0,f',82.0
603,33792.0,Note On,0,0.0,57.0,101.0,0,2,760.0,9.0,7.0,89.0,f''',64.0
604,33792.0,Note On,0,0.0,57.0,101.0,0,2,48.0,11.0,9.0,55.0,g,38.0
605,33792.0,Note On,0,0.0,57.0,101.0,0,2,48.0,11.0,9.0,59.0,b,64.0
606,33792.0,Note On,0,0.0,57.0,101.0,0,2,112.0,11.0,9.0,70.0,a#',69.0
607,33792.0,Note On,0,0.0,57.0,101.0,0,2,96.0,12.0,10.0,36.0,C,78.0
608,33792.0,Note On,0,0.0,53.0,92.0,0,2,540.0,2.0,0.0,53.0,f,92.0
609,33792.0,Note On,0,0.0,53.0,92.0,0,2,588.0,2.0,0.0,57.0,a,101.0
610,33792.0,Note On,0,0.0,53.0,92.0,0,2,588.0,3.0,1.0,29.0,"F,",64.0
611,33792.0,Note On,0,0.0,53.0,92.0,0,2,1868.0,5.0,3.0,65.0,f',82.0
612,33792.0,Note On,0,0.0,53.0,92.0,0,2,760.0,9.0,7.0,89.0,f''',64.0
613,33792.0,Note On,0,0.0,53.0,92.0,0,2,48.0,11.0,9.0,55.0,g,38.0
614,33792.0,Note On,0,0.0,53.0,92.0,0,2,48.0,11.0,9.0,59.0,b,64.0
615,33792.0,Note On,0,0.0,53.0,92.0,0,2,112.0,11.0,9.0,70.0,a#',69.0
616,33792.0,Note On,0,0.0,53.0,92.0,0,2,96.0,12.0,10.0,36.0,C,78.0
617,33796.0,Note On,0,0.0,41.0,95.0,0,2,556.0,2.0,0.0,41.0,F,95.0
618,34332.0,Note Off,0,0.0,53.0,92.0,0,2,,,,,,
619,34352.0,Note Off,0,0.0,41.0,95.0,0,2,,,,,,
620,34356.0,Note On,0,0.0,43.0,83.0,0,2,216.0,2.0,0.0,43.0,G,83.0
621,34368.0,Note On,0,0.0,58.0,74.0,0,2,216.0,2.0,0.0,58.0,a#,74.0
622,34368.0,Note On,0,0.0,58.0,74.0,0,2,188.0,3.0,1.0,31.0,"G,",64.0
623,34368.0,Note On,0,0.0,58.0,74.0,0,2,220.0,11.0,9.0,70.0,a#',32.0
624,34372.0,Note On,0,0.0,55.0,83.0,0,2,160.0,2.0,0.0,55.0,g,83.0
625,34380.0,Note Off,0,0.0,57.0,101.0,0,2,,,,,,
626,34532.0,Note Off,0,0.0,55.0,83.0,0,2,,,,,,
627,34552.0,Note On,0,0.0,45.0,101.0,0,2,748.0,2.0,0.0,45.0,A,101.0
628,34556.0,Note On,0,0.0,57.0,92.0,0,2,372.0,2.0,0.0,57.0,a,92.0
629,34560.0,Note On,0,0.0,60.0,101.0,0,2,360.0,2.0,0.0,60.0,c',101.0
630,34560.0,Note On,0,0.0,60.0,101.0,0,2,724.0,3.0,1.0,33.0,"A,",64.0
631,34560.0,Note On,0,0.0,60.0,101.0,0,2,180.0,11.0,9.0,37.0,C#,82.0
632,34572.0,Note Off,0,0.0,43.0,83.0,0,2,,,,,,
633,34584.0,Note Off,0,0.0,58.0,74.0,0,2,,,,,,
634,34920.0,Note Off,0,0.0,60.0,101.0,0,2,,,,,,
635,34928.0,Note Off,0,0.0,57.0,92.0,0,2,,,,,,
636,34940.0,Note On,0,0.0,53.0,83.0,0,2,184.0,2.0,0.0,53.0,f,83.0
637,35124.0,Note Off,0,0.0,53.0,83.0,0,2,184.0,2.0,0.0,63.0,d#',83.0
638,35124.0,Note On,0,0.0,63.0,83.0,0,2,184.0,2.0,0.0,63.0,d#',83.0
639,35128.0,Note On,0,0.0,60.0,92.0,0,2,176.0,2.0,0.0,60.0,c',92.0
640,35300.0,Note Off,0,0.0,45.0,101.0,0,2,,,,,,
641,35304.0,Note Off,0,0.0,60.0,92.0,0,2,,,,,,
642,35308.0,Note Off,0,0.0,63.0,83.0,0,2,,,,,,
643,35316.0,Note On,0,0.0,62.0,92.0,0,2,492.0,2.0,0.0,62.0,d',92.0
644,35320.0,Note On,0,0.0,46.0,92.0,0,2,1520.0,2.0,0.0,46.0,A#,92.0
645,35320.0,Note On,0,0.0,46.0,92.0,0,2,780.0,2.0,0.0,58.0,a#,83.0
646,35320.0,Note On,0,0.0,58.0,83.0,0,2,1520.0,2.0,0.0,46.0,A#,92.0
647,35320.0,Note On,0,0.0,58.0,83.0,0,2,780.0,2.0,0.0,58.0,a#,83.0
648,35696.0,Note On,0,0.0,53.0,58.0,0,2,520.0,2.0,0.0,53.0,f,58.0
649,35808.0,Note Off,0,0.0,62.0,92.0,0,2,,,,,,
650,35888.0,Note On,0,0.0,62.0,97.0,0,2,660.0,2.0,0.0,62.0,d',97.0
651,36100.0,Note Off,0,0.0,58.0,83.0,0,2,,,,,,
652,36216.0,Note Off,0,0.0,53.0,58.0,0,2,,,,,,
653,36280.0,Note On,0,0.0,53.0,74.0,0,2,552.0,2.0,0.0,53.0,f,74.0
654,36472.0,Note On,0,0.0,67.0,97.0,0,2,356.0,2.0,0.0,67.0,g',97.0
655,36548.0,Note Off,0,0.0,62.0,97.0,0,2,,,,,,
656,36828.0,Note Off,0,0.0,67.0,97.0,0,2,,,,,,
657,36832.0,Note Off,0,0.0,53.0,74.0,0,2,,,,,,
658,36840.0,Note Off,0,0.0,46.0,92.0,0,2,,,,,,
659,36860.0,Note On,0,0.0,65.0,98.0,0,2,216.0,2.0,0.0,60.0,c',83.0
660,36860.0,Note On,0,0.0,65.0,98.0,0,2,392.0,2.0,0.0,65.0,f',98.0
661,36860.0,Note On,0,0.0,65.0,98.0,0,2,368.0,5.0,3.0,65.0,f',73.0
662,36860.0,Note On,0,0.0,60.0,83.0,0,2,216.0,2.0,0.0,60.0,c',83.0
663,36860.0,Note On,0,0.0,60.0,83.0,0,2,392.0,2.0,0.0,65.0,f',98.0
664,36860.0,Note On,0,0.0,60.0,83.0,0,2,368.0,5.0,3.0,65.0,f',73.0
665,36864.0,Note On,0,0.0,45.0,91.0,0,2,1516.0,2.0,0.0,45.0,A,91.0
666,36864.0,Note On,0,0.0,45.0,91.0,0,2,1444.0,3.0,1.0,33.0,"A,",64.0
667,36864.0,Note On,0,0.0,45.0,91.0,0,2,112.0,11.0,9.0,70.0,a#',69.0
668,36864.0,Note On,0,0.0,45.0,91.0,0,2,96.0,12.0,10.0,36.0,C,78.0
669,37048.0,Note On,0,0.0,53.0,66.0,0,2,180.0,2.0,0.0,53.0,f,66.0
670,37076.0,Note Off,0,0.0,60.0,83.0,0,2,,,,,,
671,37228.0,Note Off,0,0.0,53.0,66.0,0,2,160.0,2.0,0.0,60.0,c',74.0
672,37228.0,Note On,0,0.0,60.0,74.0,0,2,160.0,2.0,0.0,60.0,c',74.0
673,37252.0,Note Off,0,0.0,65.0,98.0,0,2,,,,,,
674,37388.0,Note Off,0,0.0,60.0,74.0,0,2,,,,,,
675,37432.0,Note On,0,0.0,60.0,92.0,0,2,328.0,2.0,0.0,60.0,c',92.0
676,37432.0,Note On,0,0.0,60.0,92.0,0,2,340.0,2.0,0.0,63.0,d#',91.0
677,37432.0,Note On,0,0.0,63.0,91.0,0,2,328.0,2.0,0.0,60.0,c',92.0
678,37432.0,Note On,0,0.0,63.0,91.0,0,2,340.0,2.0,0.0,63.0,d#',91.0
679,37760.0,Note Off,0,0.0,60.0,92.0,0,2,,,,,,
680,37772.0,Note Off,0,0.0,63.0,91.0,0,2,,,,,,
681,37816.0,Note On,0,0.0,53.0,66.0,0,2,556.0,2.0,0.0,53.0,f,66.0
682,37816.0,Note On,0,0.0,53.0,66.0,0,2,356.0,2.0,0.0,60.0,c',63.0
683,37816.0,Note On,0,0.0,53.0,66.0,0,2,564.0,2.0,0.0,62.0,d',93.0
684,37816.0,Note On,0,0.0,60.0,63.0,0,2,556.0,2.0,0.0,53.0,f,66.0
685,37816.0,Note On,0,0.0,60.0,63.0,0,2,356.0,2.0,0.0,60.0,c',63.0
686,37816.0,Note On,0,0.0,60.0,63.0,0,2,564.0,2.0,0.0,62.0,d',93.0
687,37816.0,Note On,0,0.0,62.0,93.0,0,2,556.0,2.0,0.0,53.0,f,66.0
688,37816.0,Note On,0,0.0,62.0,93.0,0,2,356.0,2.0,0.0,60.0,c',63.0
689,37816.0,Note On,0,0.0,62.0,93.0,0,2,564.0,2.0,0.0,62.0,d',93.0
690,38172.0,Note Off,0,0.0,60.0,63.0,0,2,,,,,,
691,38196.0,Note On,0,0.0,58.0,88.0,0,2,720.0,2.0,0.0,58.0,a#,88.0
692,38372.0,Note Off,0,0.0,53.0,66.0,0,2,,,,,,
693,38380.0,Note Off,0,0.0,62.0,93.0,0,2,,,,,,
694,38380.0,Note Off,0,0.0,45.0,91.0,0,2,,,,,,
695,38392.0,Note On,0,0.0,62.0,97.0,0,2,732.0,2.0,0.0,62.0,d',97.0
696,38400.0,Note On,0,0.0,53.0,74.0,0,2,744.0,2.0,0.0,46.0,A#,92.0
697,38400.0,Note On,0,0.0,53.0,74.0,0,2,728.0,2.0,0.0,53.0,f,74.0
698,38400.0,Note On,0,0.0,53.0,74.0,0,2,716.0,3.0,1.0,34.0,"A#,",64.0
699,38400.0,Note On,0,0.0,53.0,74.0,0,2,96.0,12.0,10.0,36.0,C,78.0
700,38400.0,Note On,0,0.0,46.0,92.0,0,2,744.0,2.0,0.0,46.0,A#,92.0
701,38400.0,Note On,0,0.0,46.0,92.0,0,2,728.0,2.0,0.0,53.0,f,74.0
702,38400.0,Note On,0,0.0,46.0,92.0,0,2,716.0,3.0,1.0,34.0,"A#,",64.0
703,38400.0,Note On,0,0.0,46.0,92.0,0,2,96.0,12.0,10.0,36.0,C,78.0
704,38916.0,Note Off,0,0.0,58.0,88.0,0,2,,,,,,
705,38972.0,Note On,0,0.0,58.0,62.0,0,2,924.0,2.0,0.0,58.0,a#,62.0
706,39124.0,Note Off,0,0.0,62.0,97.0,0,2,,,,,,
707,39128.0,Note Off,0,0.0,53.0,74.0,0,2,,,,,,
708,39144.0,Note Off,0,0.0,46.0,92.0,0,2,,,,,,
709,39152.0,Note On,0,0.0,38.0,92.0,0,2,780.0,2.0,0.0,38.0,D,92.0
710,39156.0,Note On,0,0.0,53.0,74.0,0,2,768.0,2.0,0.0,53.0,f,74.0
711,39156.0,Note On,0,0.0,53.0,74.0,0,2,280.0,2.0,0.0,62.0,d',101.0
712,39156.0,Note On,0,0.0,53.0,74.0,0,2,220.0,5.0,3.0,62.0,d',73.0
713,39156.0,Note On,0,0.0,62.0,101.0,0,2,768.0,2.0,0.0,53.0,f,74.0
714,39156.0,Note On,0,0.0,62.0,101.0,0,2,280.0,2.0,0.0,62.0,d',101.0
715,39156.0,Note On,0,0.0,62.0,101.0,0,2,220.0,5.0,3.0,62.0,d',73.0
716,39420.0,Note On,0,0.0,63.0,92.0,0,2,308.0,2.0,0.0,63.0,d#',92.0
717,39436.0,Note Off,0,0.0,62.0,101.0,0,2,,,,,,
718,39676.0,Note On,0,0.0,65.0,97.0,0,2,260.0,2.0,0.0,65.0,f',97.0
719,39728.0,Note Off,0,0.0,63.0,92.0,0,2,,,,,,
720,39896.0,Note Off,0,0.0,58.0,62.0,0,2,,,,,,
721,39924.0,Note Off,0,0.0,53.0,74.0,0,2,,,,,,
722,39928.0,Note On,0,0.0,39.0,91.0,0,2,740.0,2.0,0.0,39.0,D#,91.0
723,39928.0,Note On,0,0.0,39.0,91.0,0,2,328.0,5.0,3.0,69.0,a',73.0
724,39932.0,Note Off,0,0.0,38.0,92.0,0,2,200.0,2.0,0.0,60.0,c',92.0
725,39932.0,Note Off,0,0.0,38.0,92.0,0,2,772.0,2.0,0.0,69.0,a',99.0
726,39932.0,Note On,0,0.0,60.0,92.0,0,2,200.0,2.0,0.0,60.0,c',92.0
727,39932.0,Note On,0,0.0,60.0,92.0,0,2,772.0,2.0,0.0,69.0,a',99.0
728,39932.0,Note On,0,0.0,69.0,99.0,0,2,200.0,2.0,0.0,60.0,c',92.0
729,39932.0,Note On,0,0.0,69.0,99.0,0,2,772.0,2.0,0.0,69.0,a',99.0
730,39936.0,Note Off,0,0.0,65.0,97.0,0,2,732.0,3.0,1.0,39.0,D#,64.0
731,39936.0,Note Off,0,0.0,65.0,97.0,0,2,112.0,11.0,9.0,70.0,a#',69.0
732,39936.0,Note Off,0,0.0,65.0,97.0,0,2,96.0,12.0,10.0,36.0,C,78.0
733,40116.0,Note On,0,0.0,67.0,85.0,0,2,204.0,2.0,0.0,67.0,g',85.0
734,40132.0,Note Off,0,0.0,60.0,92.0,0,2,,,,,,
735,40304.0,Note On,0,0.0,60.0,76.0,0,2,400.0,2.0,0.0,60.0,c',76.0
736,40320.0,Note Off,0,0.0,67.0,85.0,0,2,112.0,11.0,9.0,70.0,a#',52.0
737,40500.0,Note On,0,0.0,65.0,74.0,0,2,180.0,2.0,0.0,65.0,f',74.0
738,40668.0,Note Off,0,0.0,39.0,91.0,0,2,,,,,,
739,40680.0,Note Off,0,0.0,65.0,74.0,0,2,,,,,,
740,40696.0,Note On,0,0.0,38.0,92.0,0,2,724.0,2.0,0.0,38.0,D,92.0
741,40696.0,Note On,0,0.0,38.0,92.0,0,2,208.0,2.0,0.0,58.0,a#,91.0
742,40696.0,Note On,0,0.0,38.0,92.0,0,2,412.0,2.0,0.0,65.0,f',97.0
743,40696.0,Note On,0,0.0,38.0,92.0,0,2,396.0,5.0,3.0,65.0,f',64.0
744,40696.0,Note On,0,0.0,58.0,91.0,0,2,724.0,2.0,0.0,38.0,D,92.0
745,40696.0,Note On,0,0.0,58.0,91.0,0,2,208.0,2.0,0.0,58.0,a#,91.0
746,40696.0,Note On,0,0.0,58.0,91.0,0,2,412.0,2.0,0.0,65.0,f',97.0
747,40696.0,Note On,0,0.0,58.0,91.0,0,2,396.0,5.0,3.0,65.0,f',64.0
748,40696.0,Note On,0,0.0,65.0,97.0,0,2,724.0,2.0,0.0,38.0,D,92.0
749,40696.0,Note On,0,0.0,65.0,97.0,0,2,208.0,2.0,0.0,58.0,a#,91.0
750,40696.0,Note On,0,0.0,65.0,97.0,0,2,412.0,2.0,0.0,65.0,f',97.0
751,40696.0,Note On,0,0.0,65.0,97.0,0,2,396.0,5.0,3.0,65.0,f',64.0
752,40704.0,Note Off,0,0.0,60.0,76.0,0,2,660.0,3.0,1.0,38.0,D,64.0
753,40704.0,Note Off,0,0.0,60.0,76.0,0,2,180.0,11.0,9.0,37.0,C#,82.0
754,40704.0,Note Off,0,0.0,69.0,99.0,0,2,660.0,3.0,1.0,38.0,D,64.0
755,40704.0,Note Off,0,0.0,69.0,99.0,0,2,180.0,11.0,9.0,37.0,C#,82.0
756,40896.0,Note On,0,0.0,53.0,79.0,0,2,520.0,2.0,0.0,53.0,f,79.0
757,40904.0,Note Off,0,0.0,58.0,91.0,0,2,,,,,,
758,41080.0,Note On,0,0.0,58.0,74.0,0,2,372.0,2.0,0.0,58.0,a#,74.0
759,41108.0,Note Off,0,0.0,65.0,97.0,0,2,,,,,,
760,41272.0,Note On,0,0.0,65.0,83.0,0,2,184.0,2.0,0.0,65.0,f',83.0
761,41416.0,Note Off,0,0.0,53.0,79.0,0,2,,,,,,
762,41420.0,Note Off,0,0.0,38.0,92.0,0,2,,,,,,
763,41452.0,Note Off,0,0.0,58.0,74.0,0,2,,,,,,
764,41456.0,Note Off,0,0.0,65.0,83.0,0,2,,,,,,
765,41468.0,Note On,0,0.0,39.0,94.0,0,2,692.0,2.0,0.0,39.0,D#,94.0
766,41472.0,Note On,0,0.0,65.0,83.0,0,2,328.0,2.0,0.0,65.0,f',83.0
767,41472.0,Note On,0,0.0,65.0,83.0,0,2,300.0,2.0,0.0,69.0,a',96.0
768,41472.0,Note On,0,0.0,65.0,83.0,0,2,688.0,3.0,1.0,39.0,D#,64.0
769,41472.0,Note On,0,0.0,65.0,83.0,0,2,96.0,12.0,10.0,36.0,C,78.0
770,41472.0,Note On,0,0.0,69.0,96.0,0,2,328.0,2.0,0.0,65.0,f',83.0
771,41472.0,Note On,0,0.0,69.0,96.0,0,2,300.0,2.0,0.0,69.0,a',96.0
772,41472.0,Note On,0,0.0,69.0,96.0,0,2,688.0,3.0,1.0,39.0,D#,64.0
773,41472.0,Note On,0,0.0,69.0,96.0,0,2,96.0,12.0,10.0,36.0,C,78.0
774,41660.0,Note On,0,0.0,58.0,58.0,0,2,276.0,2.0,0.0,58.0,a#,58.0
775,41772.0,Note Off,0,0.0,69.0,96.0,0,2,,,,,,
776,41800.0,Note Off,0,0.0,65.0,83.0,0,2,,,,,,
777,41844.0,Note On,0,0.0,70.0,83.0,0,2,576.0,2.0,0.0,70.0,a#',83.0
778,41936.0,Note Off,0,0.0,58.0,58.0,0,2,,,,,,
779,42036.0,Note On,0,0.0,65.0,94.0,0,2,392.0,2.0,0.0,65.0,f',94.0
780,42160.0,Note Off,0,0.0,39.0,94.0,0,2,,,,,,
781,42228.0,Note On,0,0.0,38.0,83.0,0,2,776.0,2.0,0.0,38.0,D,83.0
782,42412.0,Note On,0,0.0,58.0,62.0,0,2,228.0,2.0,0.0,58.0,a#,62.0
783,42420.0,Note Off,0,0.0,70.0,83.0,0,2,,,,,,
784,42428.0,Note Off,0,0.0,65.0,94.0,0,2,,,,,,
785,42604.0,Note On,0,0.0,65.0,91.0,0,2,420.0,2.0,0.0,65.0,f',91.0
786,42640.0,Note Off,0,0.0,58.0,62.0,0,2,,,,,,
787,42792.0,Note On,0,0.0,58.0,58.0,0,2,188.0,2.0,0.0,58.0,a#,58.0
788,42980.0,Note Off,0,0.0,58.0,58.0,0,2,3108.0,4.0,2.0,70.0,a#',41.0
789,42992.0,Note On,0,0.0,43.0,83.0,0,2,792.0,2.0,0.0,43.0,G,83.0
790,43004.0,Note Off,0,0.0,38.0,83.0,0,2,728.0,2.0,0.0,58.0,a#,86.0
791,43004.0,Note Off,0,0.0,38.0,83.0,0,2,628.0,2.0,0.0,62.0,d',93.0
792,43004.0,Note On,0,0.0,58.0,86.0,0,2,728.0,2.0,0.0,58.0,a#,86.0
793,43004.0,Note On,0,0.0,58.0,86.0,0,2,628.0,2.0,0.0,62.0,d',93.0
794,43004.0,Note On,0,0.0,62.0,93.0,0,2,728.0,2.0,0.0,58.0,a#,86.0
795,43004.0,Note On,0,0.0,62.0,93.0,0,2,628.0,2.0,0.0,62.0,d',93.0
796,43024.0,Note Off,0,0.0,65.0,91.0,0,2,,,,,,
797,43580.0,Note On,0,0.0,53.0,74.0,0,2,208.0,2.0,0.0,53.0,f,74.0
798,43632.0,Note Off,0,0.0,62.0,93.0,0,2,,,,,,
799,43732.0,Note Off,0,0.0,58.0,86.0,0,2,,,,,,
800,43772.0,Note On,0,0.0,40.0,92.0,0,2,580.0,2.0,0.0,40.0,E,92.0
801,43776.0,Note On,0,0.0,55.0,78.0,0,2,740.0,2.0,0.0,55.0,g,78.0
802,43776.0,Note On,0,0.0,55.0,78.0,0,2,792.0,2.0,0.0,60.0,c',83.0
803,43776.0,Note On,0,0.0,55.0,78.0,0,2,556.0,3.0,1.0,28.0,"E,",64.0
804,43776.0,Note On,0,0.0,55.0,78.0,0,2,180.0,11.0,9.0,37.0,C#,82.0
805,43776.0,Note On,0,0.0,60.0,83.0,0,2,740.0,2.0,0.0,55.0,g,78.0
806,43776.0,Note On,0,0.0,60.0,83.0,0,2,792.0,2.0,0.0,60.0,c',83.0
807,43776.0,Note On,0,0.0,60.0,83.0,0,2,556.0,3.0,1.0,28.0,"E,",64.0
808,43776.0,Note On,0,0.0,60.0,83.0,0,2,180.0,11.0,9.0,37.0,C#,82.0
809,43784.0,Note Off,0,0.0,43.0,83.0,0,2,,,,,,
810,43788.0,Note Off,0,0.0,53.0,74.0,0,2,,,,,,
811,44160.0,Note On,0,0.0,52.0,83.0,0,2,364.0,2.0,0.0,52.0,e,83.0
812,44352.0,Note Off,0,0.0,40.0,92.0,0,2,160.0,2.0,0.0,40.0,E,82.0
813,44352.0,Note Off,0,0.0,40.0,92.0,0,2,160.0,3.0,1.0,28.0,"E,",56.0
814,44352.0,Note Off,0,0.0,40.0,92.0,0,2,96.0,12.0,10.0,36.0,C,55.0
815,44352.0,Note On,0,0.0,40.0,82.0,0,2,160.0,2.0,0.0,40.0,E,82.0
816,44352.0,Note On,0,0.0,40.0,82.0,0,2,160.0,3.0,1.0,28.0,"E,",56.0
817,44352.0,Note On,0,0.0,40.0,82.0,0,2,96.0,12.0,10.0,36.0,C,55.0
818,44512.0,Note Off,0,0.0,40.0,82.0,0,2,,,,,,
819,44516.0,Note Off,0,0.0,55.0,78.0,0,2,,,,,,
820,44524.0,Note Off,0,0.0,52.0,83.0,0,2,,,,,,
821,44536.0,Note On,0,0.0,58.0,91.0,0,2,948.0,2.0,0.0,41.0,F,101.0
822,44536.0,Note On,0,0.0,58.0,91.0,0,2,552.0,2.0,0.0,51.0,d#,70.0
823,44536.0,Note On,0,0.0,58.0,91.0,0,2,212.0,2.0,0.0,58.0,a#,91.0
824,44536.0,Note On,0,0.0,41.0,101.0,0,2,948.0,2.0,0.0,41.0,F,101.0
825,44536.0,Note On,0,0.0,41.0,101.0,0,2,552.0,2.0,0.0,51.0,d#,70.0
826,44536.0,Note On,0,0.0,41.0,101.0,0,2,212.0,2.0,0.0,58.0,a#,91.0
827,44536.0,Note On,0,0.0,51.0,70.0,0,2,948.0,2.0,0.0,41.0,F,101.0
828,44536.0,Note On,0,0.0,51.0,70.0,0,2,552.0,2.0,0.0,51.0,d#,70.0
829,44536.0,Note On,0,0.0,51.0,70.0,0,2,212.0,2.0,0.0,58.0,a#,91.0
830,44568.0,Note Off,0,0.0,60.0,83.0,0,2,,,,,,
831,44724.0,Note On,0,0.0,53.0,74.0,0,2,332.0,2.0,0.0,53.0,f,74.0
832,44748.0,Note Off,0,0.0,58.0,91.0,0,2,,,,,,
833,44912.0,Note On,0,0.0,60.0,72.0,0,2,172.0,2.0,0.0,60.0,c',72.0
834,45056.0,Note Off,0,0.0,53.0,74.0,0,2,,,,,,
835,45084.0,Note Off,0,0.0,60.0,72.0,0,2,,,,,,
836,45088.0,Note Off,0,0.0,51.0,70.0,0,2,44.0,7.0,5.0,60.0,c',58.0
837,45108.0,Note On,0,0.0,62.0,74.0,0,2,152.0,2.0,0.0,62.0,d',74.0
838,45112.0,Note On,0,0.0,53.0,74.0,0,2,168.0,2.0,0.0,53.0,f,74.0
839,45112.0,Note On,0,0.0,53.0,74.0,0,2,52.0,7.0,5.0,58.0,a#,52.0
840,45260.0,Note Off,0,0.0,62.0,74.0,0,2,32.0,7.0,5.0,51.0,d#,44.0
841,45280.0,Note Off,0,0.0,53.0,74.0,0,2,,,,,,
842,45304.0,Note On,0,0.0,63.0,89.0,0,2,364.0,2.0,0.0,63.0,d#',89.0
843,45308.0,Note On,0,0.0,55.0,98.0,0,2,344.0,2.0,0.0,55.0,g,98.0
844,45308.0,Note On,0,0.0,55.0,98.0,0,2,64.0,7.0,5.0,55.0,g,55.0
845,45484.0,Note Off,0,0.0,41.0,101.0,0,2,,,,,,
846,45496.0,Note On,0,0.0,36.0,83.0,0,2,184.0,2.0,0.0,36.0,C,83.0
847,45652.0,Note Off,0,0.0,55.0,98.0,0,2,,,,,,
848,45668.0,Note Off,0,0.0,63.0,89.0,0,2,,,,,,
849,45680.0,Note Off,0,0.0,36.0,83.0,0,2,56.0,7.0,5.0,69.0,a',64.0
850,45688.0,Note On,0,0.0,39.0,83.0,0,2,200.0,2.0,0.0,39.0,D#,83.0
851,45692.0,Note On,0,0.0,58.0,92.0,0,2,352.0,2.0,0.0,58.0,a#,92.0
852,45700.0,Note On,0,0.0,67.0,95.0,0,2,360.0,2.0,0.0,67.0,g',95.0
853,45868.0,Note On,0,0.0,36.0,83.0,0,2,212.0,2.0,0.0,36.0,C,83.0
854,45888.0,Note Off,0,0.0,39.0,83.0,0,2,168.0,3.0,1.0,24.0,"C,",64.0
855,46044.0,Note Off,0,0.0,58.0,92.0,0,2,,,,,,
856,46060.0,Note Off,0,0.0,67.0,95.0,0,2,,,,,,
857,46080.0,Note Off,0,0.0,36.0,83.0,0,2,312.0,2.0,0.0,57.0,a,92.0
858,46080.0,Note Off,0,0.0,36.0,83.0,0,2,340.0,2.0,0.0,65.0,f',95.0
859,46080.0,Note Off,0,0.0,36.0,83.0,0,2,588.0,3.0,1.0,29.0,"F,",64.0
860,46080.0,Note Off,0,0.0,36.0,83.0,0,2,1540.0,4.0,2.0,69.0,a',52.0
861,46080.0,Note Off,0,0.0,36.0,83.0,0,2,168.0,9.0,7.0,89.0,f''',66.0
862,46080.0,Note Off,0,0.0,36.0,83.0,0,2,48.0,11.0,9.0,55.0,g,38.0
863,46080.0,Note Off,0,0.0,36.0,83.0,0,2,48.0,11.0,9.0,59.0,b,64.0
864,46080.0,Note Off,0,0.0,36.0,83.0,0,2,112.0,11.0,9.0,70.0,a#',69.0
865,46080.0,Note Off,0,0.0,36.0,83.0,0,2,96.0,12.0,10.0,36.0,C,78.0
866,46080.0,Note On,0,0.0,57.0,92.0,0,2,312.0,2.0,0.0,57.0,a,92.0
867,46080.0,Note On,0,0.0,57.0,92.0,0,2,340.0,2.0,0.0,65.0,f',95.0
868,46080.0,Note On,0,0.0,57.0,92.0,0,2,588.0,3.0,1.0,29.0,"F,",64.0
869,46080.0,Note On,0,0.0,57.0,92.0,0,2,1540.0,4.0,2.0,69.0,a',52.0
870,46080.0,Note On,0,0.0,57.0,92.0,0,2,168.0,9.0,7.0,89.0,f''',66.0
871,46080.0,Note On,0,0.0,57.0,92.0,0,2,48.0,11.0,9.0,55.0,g,38.0
872,46080.0,Note On,0,0.0,57.0,92.0,0,2,48.0,11.0,9.0,59.0,b,64.0
873,46080.0,Note On,0,0.0,57.0,92.0,0,2,112.0,11.0,9.0,70.0,a#',69.0
874,46080.0,Note On,0,0.0,57.0,92.0,0,2,96.0,12.0,10.0,36.0,C,78.0
875,46080.0,Note On,0,0.0,65.0,95.0,0,2,312.0,2.0,0.0,57.0,a,92.0
876,46080.0,Note On,0,0.0,65.0,95.0,0,2,340.0,2.0,0.0,65.0,f',95.0
877,46080.0,Note On,0,0.0,65.0,95.0,0,2,588.0,3.0,1.0,29.0,"F,",64.0
878,46080.0,Note On,0,0.0,65.0,95.0,0,2,1540.0,4.0,2.0,69.0,a',52.0
879,46080.0,Note On,0,0.0,65.0,95.0,0,2,168.0,9.0,7.0,89.0,f''',66.0
880,46080.0,Note On,0,0.0,65.0,95.0,0,2,48.0,11.0,9.0,55.0,g,38.0
881,46080.0,Note On,0,0.0,65.0,95.0,0,2,48.0,11.0,9.0,59.0,b,64.0
882,46080.0,Note On,0,0.0,65.0,95.0,0,2,112.0,11.0,9.0,70.0,a#',69.0
883,46080.0,Note On,0,0.0,65.0,95.0,0,2,96.0,12.0,10.0,36.0,C,78.0
884,46084.0,Note On,0,0.0,41.0,95.0,0,2,556.0,2.0,0.0,41.0,F,95.0
885,46392.0,Note Off,0,0.0,57.0,92.0,0,2,,,,,,
886,46420.0,Note Off,0,0.0,65.0,95.0,0,2,,,,,,
887,46464.0,Note On,0,0.0,57.0,66.0,0,2,192.0,2.0,0.0,57.0,a,66.0
888,46464.0,Note On,0,0.0,57.0,66.0,0,2,112.0,11.0,9.0,70.0,a#',52.0
889,46468.0,Note On,0,0.0,60.0,66.0,0,2,196.0,2.0,0.0,60.0,c',66.0
890,46640.0,Note Off,0,0.0,41.0,95.0,0,2,,,,,,
891,46644.0,Note On,0,0.0,43.0,83.0,0,2,216.0,2.0,0.0,43.0,G,83.0
892,46644.0,Note On,0,0.0,43.0,83.0,0,2,144.0,2.0,0.0,53.0,f,70.0
893,46644.0,Note On,0,0.0,53.0,70.0,0,2,216.0,2.0,0.0,43.0,G,83.0
894,46644.0,Note On,0,0.0,53.0,70.0,0,2,144.0,2.0,0.0,53.0,f,70.0
895,46656.0,Note Off,0,0.0,57.0,66.0,0,2,188.0,3.0,1.0,31.0,"G,",64.0
896,46656.0,Note Off,0,0.0,57.0,66.0,0,2,220.0,11.0,9.0,70.0,a#',32.0
897,46664.0,Note Off,0,0.0,60.0,66.0,0,2,,,,,,
898,46788.0,Note Off,0,0.0,53.0,70.0,0,2,,,,,,
899,46840.0,Note On,0,0.0,45.0,101.0,0,2,748.0,2.0,0.0,45.0,A,101.0
900,46840.0,Note On,0,0.0,45.0,101.0,0,2,784.0,4.0,2.0,72.0,c'',52.0
901,46840.0,Note On,0,0.0,45.0,101.0,0,2,272.0,9.0,7.0,81.0,a'',43.0
902,46848.0,Note On,0,0.0,57.0,92.0,0,2,360.0,2.0,0.0,57.0,a,92.0
903,46848.0,Note On,0,0.0,57.0,92.0,0,2,724.0,3.0,1.0,33.0,"A,",64.0
904,46848.0,Note On,0,0.0,57.0,92.0,0,2,180.0,11.0,9.0,37.0,C#,82.0
905,46852.0,Note On,0,0.0,60.0,83.0,0,2,356.0,2.0,0.0,60.0,c',83.0
906,46860.0,Note Off,0,0.0,43.0,83.0,0,2,,,,,,
907,47208.0,Note Off,0,0.0,60.0,83.0,0,2,,,,,,
908,47208.0,Note Off,0,0.0,57.0,92.0,0,2,,,,,,
909,47220.0,Note On,0,0.0,60.0,92.0,0,2,380.0,2.0,0.0,60.0,c',92.0
910,47224.0,Note On,0,0.0,63.0,74.0,0,2,376.0,2.0,0.0,63.0,d#',74.0
911,47420.0,Note On,0,0.0,53.0,66.0,0,2,164.0,2.0,0.0,53.0,f,66.0
912,47584.0,Note Off,0,0.0,53.0,66.0,0,2,,,,,,
913,47588.0,Note Off,0,0.0,45.0,101.0,0,2,,,,,,
914,47600.0,Note Off,0,0.0,63.0,74.0,0,2,784.0,4.0,2.0,74.0,d'',52.0
915,47600.0,Note Off,0,0.0,60.0,92.0,0,2,784.0,4.0,2.0,74.0,d'',52.0
916,47604.0,Note On,0,0.0,62.0,92.0,0,2,332.0,2.0,0.0,62.0,d',92.0
917,47608.0,Note On,0,0.0,46.0,92.0,0,2,520.0,2.0,0.0,46.0,A#,92.0
918,47608.0,Note On,0,0.0,46.0,92.0,0,2,560.0,2.0,0.0,58.0,a#,83.0
919,47608.0,Note On,0,0.0,58.0,83.0,0,2,520.0,2.0,0.0,46.0,A#,92.0
920,47608.0,Note On,0,0.0,58.0,83.0,0,2,560.0,2.0,0.0,58.0,a#,83.0
921,47792.0,Note On,0,0.0,53.0,62.0,0,2,572.0,2.0,0.0,53.0,f,62.0
922,47936.0,Note Off,0,0.0,62.0,92.0,0,2,,,,,,
923,47988.0,Note On,0,0.0,62.0,83.0,0,2,392.0,2.0,0.0,62.0,d',83.0
924,48128.0,Note Off,0,0.0,46.0,92.0,0,2,,,,,,
925,48168.0,Note Off,0,0.0,58.0,83.0,0,2,,,,,,
926,48176.0,Note On,0,0.0,58.0,66.0,0,2,176.0,2.0,0.0,58.0,a#,66.0
927,48180.0,Note On,0,0.0,65.0,74.0,0,2,568.0,2.0,0.0,65.0,f',74.0
928,48180.0,Note On,0,0.0,65.0,74.0,0,2,168.0,5.0,3.0,62.0,d',73.0
929,48188.0,Note On,0,0.0,46.0,92.0,0,2,912.0,2.0,0.0,46.0,A#,92.0
930,48352.0,Note Off,0,0.0,58.0,66.0,0,2,,,,,,
931,48364.0,Note Off,0,0.0,53.0,62.0,0,2,,,,,,
932,48372.0,Note On,0,0.0,58.0,83.0,0,2,336.0,2.0,0.0,58.0,a#,83.0
933,48372.0,Note On,0,0.0,58.0,83.0,0,2,368.0,2.0,0.0,70.0,a#',94.0
934,48372.0,Note On,0,0.0,70.0,94.0,0,2,336.0,2.0,0.0,58.0,a#,83.0
935,48372.0,Note On,0,0.0,70.0,94.0,0,2,368.0,2.0,0.0,70.0,a#',94.0
936,48380.0,Note Off,0,0.0,62.0,83.0,0,2,356.0,5.0,3.0,63.0,d#',82.0
937,48708.0,Note Off,0,0.0,58.0,83.0,0,2,,,,,,
938,48740.0,Note Off,0,0.0,70.0,94.0,0,2,,,,,,
939,48748.0,Note Off,0,0.0,65.0,74.0,0,2,,,,,,
940,48764.0,Note On,0,0.0,58.0,74.0,0,2,400.0,2.0,0.0,58.0,a#,74.0
941,48764.0,Note On,0,0.0,58.0,74.0,0,2,380.0,2.0,0.0,67.0,g',92.0
942,48764.0,Note On,0,0.0,67.0,92.0,0,2,400.0,2.0,0.0,58.0,a#,74.0
943,48764.0,Note On,0,0.0,67.0,92.0,0,2,380.0,2.0,0.0,67.0,g',92.0
944,49100.0,Note Off,0,0.0,46.0,92.0,0,2,,,,,,
945,49144.0,Note Off,0,0.0,67.0,92.0,0,2,,,,,,
946,49148.0,Note On,0,0.0,65.0,98.0,0,2,216.0,2.0,0.0,57.0,a,83.0
947,49148.0,Note On,0,0.0,65.0,98.0,0,2,392.0,2.0,0.0,65.0,f',98.0
948,49148.0,Note On,0,0.0,57.0,83.0,0,2,216.0,2.0,0.0,57.0,a,83.0
949,49148.0,Note On,0,0.0,57.0,83.0,0,2,392.0,2.0,0.0,65.0,f',98.0
950,49152.0,Note On,0,0.0,41.0,91.0,0,2,536.0,2.0,0.0,41.0,F,91.0
951,49152.0,Note On,0,0.0,41.0,91.0,0,2,540.0,3.0,1.0,29.0,"F,",64.0
952,49152.0,Note On,0,0.0,41.0,91.0,0,2,732.0,4.0,2.0,77.0,f'',52.0
953,49152.0,Note On,0,0.0,41.0,91.0,0,2,112.0,11.0,9.0,70.0,a#',69.0
954,49152.0,Note On,0,0.0,41.0,91.0,0,2,96.0,12.0,10.0,36.0,C,78.0
955,49164.0,Note Off,0,0.0,58.0,74.0,0,2,,,,,,
956,49336.0,Note On,0,0.0,53.0,66.0,0,2,180.0,2.0,0.0,53.0,f,66.0
957,49364.0,Note Off,0,0.0,57.0,83.0,0,2,,,,,,
958,49516.0,Note Off,0,0.0,53.0,66.0,0,2,160.0,2.0,0.0,60.0,c',74.0
959,49516.0,Note On,0,0.0,60.0,74.0,0,2,160.0,2.0,0.0,60.0,c',74.0
960,49540.0,Note Off,0,0.0,65.0,98.0,0,2,,,,,,
961,49676.0,Note Off,0,0.0,60.0,74.0,0,2,,,,,,
962,49688.0,Note Off,0,0.0,41.0,91.0,0,2,,,,,,
963,49720.0,Note On,0,0.0,42.0,101.0,0,2,748.0,2.0,0.0,42.0,F#,101.0
964,49720.0,Note On,0,0.0,42.0,101.0,0,2,388.0,2.0,0.0,60.0,c',92.0
965,49720.0,Note On,0,0.0,42.0,101.0,0,2,380.0,2.0,0.0,63.0,d#',91.0
966,49720.0,Note On,0,0.0,42.0,101.0,0,2,576.0,5.0,3.0,63.0,d#',73.0
967,49720.0,Note On,0,0.0,60.0,92.0,0,2,748.0,2.0,0.0,42.0,F#,101.0
968,49720.0,Note On,0,0.0,60.0,92.0,0,2,388.0,2.0,0.0,60.0,c',92.0
969,49720.0,Note On,0,0.0,60.0,92.0,0,2,380.0,2.0,0.0,63.0,d#',91.0
970,49720.0,Note On,0,0.0,60.0,92.0,0,2,576.0,5.0,3.0,63.0,d#',73.0
971,49720.0,Note On,0,0.0,63.0,91.0,0,2,748.0,2.0,0.0,42.0,F#,101.0
972,49720.0,Note On,0,0.0,63.0,91.0,0,2,388.0,2.0,0.0,60.0,c',92.0
973,49720.0,Note On,0,0.0,63.0,91.0,0,2,380.0,2.0,0.0,63.0,d#',91.0
974,49720.0,Note On,0,0.0,63.0,91.0,0,2,576.0,5.0,3.0,63.0,d#',73.0
975,50100.0,Note Off,0,0.0,63.0,91.0,0,2,,,,,,
976,50108.0,Note Off,0,0.0,60.0,92.0,0,2,556.0,2.0,0.0,62.0,d',70.0
977,50108.0,Note On,0,0.0,62.0,70.0,0,2,556.0,2.0,0.0,62.0,d',70.0
978,50296.0,Note On,0,0.0,54.0,66.0,0,2,380.0,2.0,0.0,54.0,f#,66.0
979,50468.0,Note Off,0,0.0,42.0,101.0,0,2,,,,,,
980,50484.0,Note On,0,0.0,57.0,74.0,0,2,180.0,2.0,0.0,45.0,A,58.0
981,50484.0,Note On,0,0.0,57.0,74.0,0,2,184.0,2.0,0.0,57.0,a,74.0
982,50484.0,Note On,0,0.0,45.0,58.0,0,2,180.0,2.0,0.0,45.0,A,58.0
983,50484.0,Note On,0,0.0,45.0,58.0,0,2,184.0,2.0,0.0,57.0,a,74.0
984,50664.0,Note Off,0,0.0,45.0,58.0,0,2,,,,,,
985,50664.0,Note Off,0,0.0,62.0,70.0,0,2,,,,,,
986,50668.0,Note Off,0,0.0,57.0,74.0,0,2,,,,,,
987,50672.0,Note On,0,0.0,43.0,92.0,0,2,776.0,2.0,0.0,43.0,G,92.0
988,50676.0,Note Off,0,0.0,54.0,66.0,0,2,704.0,2.0,0.0,50.0,d,74.0
989,50676.0,Note On,0,0.0,50.0,74.0,0,2,704.0,2.0,0.0,50.0,d,74.0
990,50872.0,Note On,0,0.0,57.0,70.0,0,2,516.0,2.0,0.0,57.0,a,70.0
991,51056.0,Note On,0,0.0,58.0,74.0,0,2,348.0,2.0,0.0,58.0,a#,74.0
992,51380.0,Note Off,0,0.0,50.0,74.0,0,2,,,,,,
993,51388.0,Note Off,0,0.0,57.0,70.0,0,2,,,,,,
994,51404.0,Note Off,0,0.0,58.0,74.0,0,2,,,,,,
995,51440.0,Note On,0,0.0,46.0,92.0,0,2,780.0,2.0,0.0,46.0,A#,92.0
996,51440.0,Note On,0,0.0,46.0,92.0,0,2,236.0,2.0,0.0,58.0,a#,70.0
997,51440.0,Note On,0,0.0,58.0,70.0,0,2,780.0,2.0,0.0,46.0,A#,92.0
998,51440.0,Note On,0,0.0,58.0,70.0,0,2,236.0,2.0,0.0,58.0,a#,70.0
999,51444.0,Note On,0,0.0,62.0,101.0,0,2,280.0,2.0,0.0,62.0,d',101.0
1000,51448.0,Note Off,0,0.0,43.0,92.0,0,2,,,,,,
1001,51676.0,Note Off,0,0.0,58.0,70.0,0,2,,,,,,
1002,51708.0,Note On,0,0.0,60.0,74.0,0,2,212.0,2.0,0.0,60.0,c',74.0
1003,51708.0,Note On,0,0.0,60.0,74.0,0,2,308.0,2.0,0.0,63.0,d#',92.0
1004,51708.0,Note On,0,0.0,63.0,92.0,0,2,212.0,2.0,0.0,60.0,c',74.0
1005,51708.0,Note On,0,0.0,63.0,92.0,0,2,308.0,2.0,0.0,63.0,d#',92.0
1006,51724.0,Note Off,0,0.0,62.0,101.0,0,2,,,,,,
1007,51920.0,Note Off,0,0.0,60.0,74.0,0,2,,,,,,
1008,51960.0,Note On,0,0.0,62.0,83.0,0,2,220.0,2.0,0.0,62.0,d',83.0
1009,51964.0,Note On,0,0.0,65.0,97.0,0,2,260.0,2.0,0.0,65.0,f',97.0
1010,51964.0,Note On,0,0.0,65.0,97.0,0,2,200.0,5.0,3.0,65.0,f',73.0
1011,52016.0,Note Off,0,0.0,63.0,92.0,0,2,,,,,,
1012,52180.0,Note Off,0,0.0,62.0,83.0,0,2,,,,,,
1013,52216.0,Note On,0,0.0,39.0,91.0,0,2,740.0,2.0,0.0,39.0,D#,91.0
1014,52220.0,Note Off,0,0.0,46.0,92.0,0,2,200.0,2.0,0.0,60.0,c',92.0
1015,52220.0,Note Off,0,0.0,46.0,92.0,0,2,772.0,2.0,0.0,69.0,a',99.0
1016,52220.0,Note On,0,0.0,60.0,92.0,0,2,200.0,2.0,0.0,60.0,c',92.0
1017,52220.0,Note On,0,0.0,60.0,92.0,0,2,772.0,2.0,0.0,69.0,a',99.0
1018,52220.0,Note On,0,0.0,69.0,99.0,0,2,200.0,2.0,0.0,60.0,c',92.0
1019,52220.0,Note On,0,0.0,69.0,99.0,0,2,772.0,2.0,0.0,69.0,a',99.0
1020,52224.0,Note Off,0,0.0,65.0,97.0,0,2,732.0,3.0,1.0,39.0,D#,64.0
1021,52224.0,Note Off,0,0.0,65.0,97.0,0,2,112.0,11.0,9.0,70.0,a#',69.0
1022,52224.0,Note Off,0,0.0,65.0,97.0,0,2,96.0,12.0,10.0,36.0,C,78.0
1023,52404.0,Note On,0,0.0,67.0,85.0,0,2,204.0,2.0,0.0,67.0,g',85.0
1024,52420.0,Note Off,0,0.0,60.0,92.0,0,2,,,,,,
1025,52592.0,Note On,0,0.0,60.0,76.0,0,2,400.0,2.0,0.0,60.0,c',76.0
1026,52592.0,Note On,0,0.0,60.0,76.0,0,2,168.0,5.0,3.0,67.0,g',64.0
1027,52608.0,Note Off,0,0.0,67.0,85.0,0,2,212.0,4.0,2.0,79.0,g'',40.0
1028,52608.0,Note Off,0,0.0,67.0,85.0,0,2,112.0,11.0,9.0,70.0,a#',52.0
1029,52788.0,Note On,0,0.0,65.0,74.0,0,2,180.0,2.0,0.0,65.0,f',74.0
1030,52956.0,Note Off,0,0.0,39.0,91.0,0,2,,,,,,
1031,52968.0,Note Off,0,0.0,65.0,74.0,0,2,,,,,,
1032,52984.0,Note On,0,0.0,38.0,92.0,0,2,724.0,2.0,0.0,38.0,D,92.0
1033,52984.0,Note On,0,0.0,38.0,92.0,0,2,208.0,2.0,0.0,58.0,a#,91.0
1034,52984.0,Note On,0,0.0,38.0,92.0,0,2,412.0,2.0,0.0,65.0,f',97.0
1035,52984.0,Note On,0,0.0,58.0,91.0,0,2,724.0,2.0,0.0,38.0,D,92.0
1036,52984.0,Note On,0,0.0,58.0,91.0,0,2,208.0,2.0,0.0,58.0,a#,91.0
1037,52984.0,Note On,0,0.0,58.0,91.0,0,2,412.0,2.0,0.0,65.0,f',97.0
1038,52984.0,Note On,0,0.0,65.0,97.0,0,2,724.0,2.0,0.0,38.0,D,92.0
1039,52984.0,Note On,0,0.0,65.0,97.0,0,2,208.0,2.0,0.0,58.0,a#,91.0
1040,52984.0,Note On,0,0.0,65.0,97.0,0,2,412.0,2.0,0.0,65.0,f',97.0
1041,52992.0,Note Off,0,0.0,60.0,76.0,0,2,660.0,3.0,1.0,38.0,D,64.0
1042,52992.0,Note Off,0,0.0,60.0,76.0,0,2,180.0,11.0,9.0,37.0,C#,82.0
1043,52992.0,Note Off,0,0.0,69.0,99.0,0,2,660.0,3.0,1.0,38.0,D,64.0
1044,52992.0,Note Off,0,0.0,69.0,99.0,0,2,180.0,11.0,9.0,37.0,C#,82.0
1045,53184.0,Note On,0,0.0,57.0,68.0,0,2,520.0,2.0,0.0,57.0,a,68.0
1046,53192.0,Note Off,0,0.0,58.0,91.0,0,2,,,,,,
1047,53368.0,Note On,0,0.0,58.0,74.0,0,2,372.0,2.0,0.0,58.0,a#,74.0
1048,53396.0,Note Off,0,0.0,65.0,97.0,0,2,,,,,,
1049,53560.0,Note On,0,0.0,65.0,83.0,0,2,184.0,2.0,0.0,65.0,f',83.0
1050,53704.0,Note Off,0,0.0,57.0,68.0,0,2,,,,,,
1051,53708.0,Note Off,0,0.0,38.0,92.0,0,2,,,,,,
1052,53740.0,Note Off,0,0.0,58.0,74.0,0,2,,,,,,
1053,53744.0,Note Off,0,0.0,65.0,83.0,0,2,172.0,5.0,3.0,69.0,a',64.0
1054,53756.0,Note On,0,0.0,39.0,94.0,0,2,692.0,2.0,0.0,39.0,D#,94.0
1055,53760.0,Note On,0,0.0,65.0,83.0,0,2,328.0,2.0,0.0,65.0,f',83.0
1056,53760.0,Note On,0,0.0,65.0,83.0,0,2,300.0,2.0,0.0,69.0,a',96.0
1057,53760.0,Note On,0,0.0,65.0,83.0,0,2,688.0,3.0,1.0,39.0,D#,64.0
1058,53760.0,Note On,0,0.0,65.0,83.0,0,2,96.0,12.0,10.0,36.0,C,78.0
1059,53760.0,Note On,0,0.0,69.0,96.0,0,2,328.0,2.0,0.0,65.0,f',83.0
1060,53760.0,Note On,0,0.0,69.0,96.0,0,2,300.0,2.0,0.0,69.0,a',96.0
1061,53760.0,Note On,0,0.0,69.0,96.0,0,2,688.0,3.0,1.0,39.0,D#,64.0
1062,53760.0,Note On,0,0.0,69.0,96.0,0,2,96.0,12.0,10.0,36.0,C,78.0
1063,53948.0,Note On,0,0.0,58.0,58.0,0,2,636.0,2.0,0.0,58.0,a#,58.0
1064,54060.0,Note Off,0,0.0,69.0,96.0,0,2,,,,,,
1065,54088.0,Note Off,0,0.0,65.0,83.0,0,2,,,,,,
1066,54132.0,Note On,0,0.0,70.0,83.0,0,2,1120.0,2.0,0.0,70.0,a#',83.0
1067,54324.0,Note On,0,0.0,65.0,94.0,0,2,892.0,2.0,0.0,65.0,f',94.0
1068,54448.0,Note Off,0,0.0,39.0,94.0,0,2,,,,,,
1069,54516.0,Note On,0,0.0,38.0,83.0,0,2,776.0,2.0,0.0,38.0,D,83.0
1070,54584.0,Note Off,0,0.0,58.0,58.0,0,2,,,,,,
1071,54700.0,Note On,0,0.0,58.0,76.0,0,2,548.0,2.0,0.0,58.0,a#,76.0
1072,55216.0,Note Off,0,0.0,65.0,94.0,0,2,,,,,,
1073,55248.0,Note Off,0,0.0,58.0,76.0,0,2,,,,,,
1074,55252.0,Note Off,0,0.0,70.0,83.0,0,2,,,,,,
1075,55280.0,Note On,0,0.0,43.0,83.0,0,2,792.0,2.0,0.0,43.0,G,83.0
1076,55292.0,Note Off,0,0.0,38.0,83.0,0,2,728.0,2.0,0.0,58.0,a#,86.0
1077,55292.0,Note Off,0,0.0,38.0,83.0,0,2,628.0,2.0,0.0,62.0,d',93.0
1078,55292.0,Note Off,0,0.0,38.0,83.0,0,2,312.0,5.0,3.0,62.0,d',73.0
1079,55292.0,Note On,0,0.0,58.0,86.0,0,2,728.0,2.0,0.0,58.0,a#,86.0
1080,55292.0,Note On,0,0.0,58.0,86.0,0,2,628.0,2.0,0.0,62.0,d',93.0
1081,55292.0,Note On,0,0.0,58.0,86.0,0,2,312.0,5.0,3.0,62.0,d',73.0
1082,55292.0,Note On,0,0.0,62.0,93.0,0,2,728.0,2.0,0.0,58.0,a#,86.0
1083,55292.0,Note On,0,0.0,62.0,93.0,0,2,628.0,2.0,0.0,62.0,d',93.0
1084,55292.0,Note On,0,0.0,62.0,93.0,0,2,312.0,5.0,3.0,62.0,d',73.0
1085,55868.0,Note On,0,0.0,53.0,74.0,0,2,208.0,2.0,0.0,53.0,f,74.0
1086,55920.0,Note Off,0,0.0,62.0,93.0,0,2,,,,,,
1087,56020.0,Note Off,0,0.0,58.0,86.0,0,2,,,,,,
1088,56060.0,Note On,0,0.0,40.0,92.0,0,2,756.0,2.0,0.0,40.0,E,92.0
1089,56064.0,Note On,0,0.0,60.0,83.0,0,2,792.0,2.0,0.0,60.0,c',83.0
1090,56064.0,Note On,0,0.0,60.0,83.0,0,2,712.0,3.0,1.0,28.0,"E,",64.0
1091,56064.0,Note On,0,0.0,60.0,83.0,0,2,180.0,11.0,9.0,37.0,C#,82.0
1092,56064.0,Note On,0,0.0,60.0,83.0,0,2,60.0,12.0,10.0,50.0,d,48.0
1093,56068.0,Note On,0,0.0,55.0,92.0,0,2,708.0,2.0,0.0,55.0,g,92.0
1094,56072.0,Note Off,0,0.0,43.0,83.0,0,2,,,,,,
1095,56076.0,Note Off,0,0.0,53.0,74.0,0,2,,,,,,
1096,56448.0,Note On,0,0.0,52.0,83.0,0,2,364.0,2.0,0.0,52.0,e,83.0
1097,56776.0,Note Off,0,0.0,55.0,92.0,0,2,,,,,,
1098,56812.0,Note Off,0,0.0,52.0,83.0,0,2,412.0,4.0,2.0,75.0,d#'',56.0
1099,56816.0,Note Off,0,0.0,40.0,92.0,0,2,,,,,,
1100,56824.0,Note On,0,0.0,63.0,92.0,0,2,748.0,2.0,0.0,44.0,G#,97.0
1101,56824.0,Note On,0,0.0,63.0,92.0,0,2,716.0,2.0,0.0,55.0,g,101.0
1102,56824.0,Note On,0,0.0,63.0,92.0,0,2,416.0,2.0,0.0,63.0,d#',92.0
1103,56824.0,Note On,0,0.0,44.0,97.0,0,2,748.0,2.0,0.0,44.0,G#,97.0
1104,56824.0,Note On,0,0.0,44.0,97.0,0,2,716.0,2.0,0.0,55.0,g,101.0
1105,56824.0,Note On,0,0.0,44.0,97.0,0,2,416.0,2.0,0.0,63.0,d#',92.0
1106,56824.0,Note On,0,0.0,55.0,101.0,0,2,748.0,2.0,0.0,44.0,G#,97.0
1107,56824.0,Note On,0,0.0,55.0,101.0,0,2,716.0,2.0,0.0,55.0,g,101.0
1108,56824.0,Note On,0,0.0,55.0,101.0,0,2,416.0,2.0,0.0,63.0,d#',92.0
1109,56856.0,Note Off,0,0.0,60.0,83.0,0,2,,,,,,
1110,57208.0,Note On,0,0.0,62.0,83.0,0,2,376.0,2.0,0.0,62.0,d',83.0
1111,57208.0,Note On,0,0.0,62.0,83.0,0,2,40.0,9.0,7.0,86.0,d''',56.0
1112,57240.0,Note Off,0,0.0,63.0,92.0,0,2,,,,,,
1113,57540.0,Note Off,0,0.0,55.0,101.0,0,2,,,,,,
1114,57572.0,Note Off,0,0.0,44.0,97.0,0,2,796.0,4.0,2.0,65.0,f',40.0
1115,57584.0,Note Off,0,0.0,62.0,83.0,0,2,740.0,2.0,0.0,60.0,c',92.0
1116,57584.0,Note On,0,0.0,60.0,92.0,0,2,740.0,2.0,0.0,60.0,c',92.0
1117,57592.0,Note On,0,0.0,53.0,83.0,0,2,372.0,2.0,0.0,53.0,f,83.0
1118,57600.0,Note On,0,0.0,41.0,97.0,0,2,748.0,2.0,0.0,41.0,F,97.0
1119,57600.0,Note On,0,0.0,41.0,97.0,0,2,680.0,3.0,1.0,29.0,"F,",64.0
1120,57600.0,Note On,0,0.0,41.0,97.0,0,2,96.0,11.0,9.0,54.0,f#,91.0
1121,57964.0,Note Off,0,0.0,53.0,83.0,0,2,,,,,,
1122,57968.0,Note On,0,0.0,58.0,74.0,0,2,356.0,2.0,0.0,58.0,a#,74.0
1123,57972.0,Note On,0,0.0,51.0,73.0,0,2,380.0,2.0,0.0,51.0,d#,73.0
1124,57972.0,Note On,0,0.0,51.0,73.0,0,2,356.0,4.0,2.0,70.0,a#',40.0
1125,58324.0,Note Off,0,0.0,58.0,74.0,0,2,,,,,,
1126,58324.0,Note Off,0,0.0,60.0,92.0,0,2,,,,,,
1127,58348.0,Note Off,0,0.0,41.0,97.0,0,2,3000.0,2.0,0.0,46.0,A#,92.0
1128,58348.0,Note On,0,0.0,46.0,92.0,0,2,3000.0,2.0,0.0,46.0,A#,92.0
1129,58352.0,Note Off,0,0.0,51.0,73.0,0,2,,,,,,
1130,58540.0,Note On,0,0.0,53.0,74.0,0,2,2804.0,2.0,0.0,53.0,f,74.0
1131,58736.0,Note On,0,0.0,60.0,83.0,0,2,2632.0,2.0,0.0,60.0,c',83.0
1132,58928.0,Note On,0,0.0,62.0,83.0,0,2,2436.0,2.0,0.0,62.0,d',83.0
1133,59324.0,Note On,0,0.0,65.0,62.0,0,2,784.0,2.0,0.0,65.0,f',62.0
1134,59324.0,Note On,0,0.0,65.0,62.0,0,2,612.0,9.0,7.0,65.0,f',40.0
1135,59504.0,Note On,0,0.0,72.0,74.0,0,2,616.0,2.0,0.0,72.0,c'',74.0
1136,59696.0,Note On,0,0.0,74.0,74.0,0,2,428.0,2.0,0.0,74.0,d'',74.0
1137,60092.0,Note On,0,0.0,77.0,58.0,0,2,1212.0,2.0,0.0,77.0,f'',58.0
1138,60108.0,Note Off,0,0.0,65.0,62.0,0,2,84.0,7.0,5.0,54.0,f#,26.0
1139,60120.0,Note Off,0,0.0,72.0,74.0,0,2,,,,,,
1140,60124.0,Note Off,0,0.0,74.0,74.0,0,2,,,,,,
1141,60272.0,Note On,0,0.0,84.0,74.0,0,2,1044.0,2.0,0.0,84.0,c''',74.0
1142,60468.0,Note On,0,0.0,86.0,83.0,0,2,848.0,2.0,0.0,86.0,d''',83.0
1143,60468.0,Note On,0,0.0,86.0,83.0,0,2,864.0,9.0,7.0,86.0,d''',56.0
1144,61304.0,Note Off,0,0.0,77.0,58.0,0,2,,,,,,
1145,61316.0,Note Off,0,0.0,86.0,83.0,0,2,,,,,,
1146,61316.0,Note Off,0,0.0,84.0,74.0,0,2,,,,,,
1147,61344.0,Note Off,0,0.0,53.0,74.0,0,2,,,,,,
1148,61348.0,Note Off,0,0.0,46.0,92.0,0,2,,,,,,
1149,61364.0,Note Off,0,0.0,62.0,83.0,0,2,,,,,,
1150,61368.0,Note Off,0,0.0,60.0,83.0,0,2,,,,,,
1151,61432.0,Note On,0,0.0,73.0,88.0,0,2,1264.0,2.0,0.0,73.0,c#'',88.0
1152,61440.0,Note On,0,0.0,49.0,92.0,0,2,1436.0,2.0,0.0,49.0,c#,92.0
1153,61440.0,Note On,0,0.0,49.0,92.0,0,2,492.0,2.0,0.0,56.0,g#,83.0
1154,61440.0,Note On,0,0.0,49.0,92.0,0,2,1260.0,3.0,1.0,37.0,C#,82.0
1155,61440.0,Note On,0,0.0,49.0,92.0,0,2,296.0,5.0,3.0,65.0,f',73.0
1156,61440.0,Note On,0,0.0,49.0,92.0,0,2,96.0,11.0,9.0,35.0,"B,",82.0
1157,61440.0,Note On,0,0.0,49.0,92.0,0,2,48.0,11.0,9.0,49.0,c#,50.0
1158,61440.0,Note On,0,0.0,49.0,92.0,0,2,48.0,11.0,9.0,59.0,b,64.0
1159,61440.0,Note On,0,0.0,49.0,92.0,0,2,112.0,11.0,9.0,70.0,a#',69.0
1160,61440.0,Note On,0,0.0,56.0,83.0,0,2,1436.0,2.0,0.0,49.0,c#,92.0
1161,61440.0,Note On,0,0.0,56.0,83.0,0,2,492.0,2.0,0.0,56.0,g#,83.0
1162,61440.0,Note On,0,0.0,56.0,83.0,0,2,1260.0,3.0,1.0,37.0,C#,82.0
1163,61440.0,Note On,0,0.0,56.0,83.0,0,2,296.0,5.0,3.0,65.0,f',73.0
1164,61440.0,Note On,0,0.0,56.0,83.0,0,2,96.0,11.0,9.0,35.0,"B,",82.0
1165,61440.0,Note On,0,0.0,56.0,83.0,0,2,48.0,11.0,9.0,49.0,c#,50.0
1166,61440.0,Note On,0,0.0,56.0,83.0,0,2,48.0,11.0,9.0,59.0,b,64.0
1167,61440.0,Note On,0,0.0,56.0,83.0,0,2,112.0,11.0,9.0,70.0,a#',69.0
1168,61448.0,Note On,0,0.0,65.0,92.0,0,2,536.0,2.0,0.0,65.0,f',92.0
1169,61932.0,Note Off,0,0.0,56.0,83.0,0,2,,,,,,
1170,61984.0,Note Off,0,0.0,65.0,92.0,0,2,,,,,,
1171,62004.0,Note On,0,0.0,66.0,83.0,0,2,356.0,2.0,0.0,66.0,f#',83.0
1172,62008.0,Note On,0,0.0,58.0,92.0,0,2,536.0,2.0,0.0,58.0,a#,92.0
1173,62360.0,Note Off,0,0.0,66.0,83.0,0,2,,,,,,
1174,62388.0,Note On,0,0.0,65.0,79.0,0,2,1736.0,2.0,0.0,65.0,f',79.0
1175,62544.0,Note Off,0,0.0,58.0,92.0,0,2,,,,,,
1176,62576.0,Note On,0,0.0,61.0,79.0,0,2,216.0,2.0,0.0,61.0,c#',79.0
1177,62696.0,Note Off,0,0.0,73.0,88.0,0,2,,,,,,
1178,62764.0,Note On,0,0.0,56.0,85.0,0,2,1700.0,2.0,0.0,56.0,g#,85.0
1179,62792.0,Note Off,0,0.0,61.0,79.0,0,2,,,,,,
1180,62876.0,Note Off,0,0.0,49.0,92.0,0,2,,,,,,
1181,62968.0,Note On,0,0.0,49.0,87.0,0,2,1504.0,2.0,0.0,49.0,c#,87.0
1182,63556.0,Note On,0,0.0,68.0,62.0,0,2,264.0,2.0,0.0,68.0,g#',62.0
1183,63740.0,Note On,0,0.0,77.0,92.0,0,2,360.0,2.0,0.0,77.0,f'',92.0
1184,63740.0,Note On,0,0.0,77.0,92.0,0,2,216.0,9.0,7.0,77.0,f'',56.0
1185,63820.0,Note Off,0,0.0,68.0,62.0,0,2,,,,,,
1186,63940.0,Note On,0,0.0,66.0,66.0,0,2,256.0,2.0,0.0,66.0,f#',66.0
1187,63940.0,Note On,0,0.0,66.0,66.0,0,2,216.0,9.0,7.0,66.0,f#',40.0
1188,64100.0,Note Off,0,0.0,77.0,92.0,0,2,,,,,,
1189,64124.0,Note Off,0,0.0,65.0,79.0,0,2,,,,,,
1190,64132.0,Note On,0,0.0,75.0,92.0,0,2,408.0,2.0,0.0,75.0,d#'',92.0
1191,64196.0,Note Off,0,0.0,66.0,66.0,0,2,,,,,,
1192,64320.0,Note On,0,0.0,65.0,66.0,0,2,184.0,2.0,0.0,65.0,f',66.0
1193,64464.0,Note Off,0,0.0,56.0,85.0,0,2,,,,,,
1194,64472.0,Note Off,0,0.0,49.0,87.0,0,2,,,,,,
1195,64504.0,Note Off,0,0.0,65.0,66.0,0,2,,,,,,
1196,64508.0,Note On,0,0.0,68.0,62.0,0,2,588.0,2.0,0.0,68.0,g#',62.0
1197,64512.0,Note On,0,0.0,49.0,92.0,0,2,1316.0,2.0,0.0,49.0,c#,92.0
1198,64512.0,Note On,0,0.0,49.0,92.0,0,2,492.0,2.0,0.0,56.0,g#,83.0
1199,64512.0,Note On,0,0.0,49.0,92.0,0,2,536.0,2.0,0.0,65.0,f',92.0
1200,64512.0,Note On,0,0.0,49.0,92.0,0,2,1312.0,3.0,1.0,37.0,C#,82.0
1201,64512.0,Note On,0,0.0,49.0,92.0,0,2,332.0,5.0,3.0,65.0,f',64.0
1202,64512.0,Note On,0,0.0,49.0,92.0,0,2,776.0,9.0,7.0,73.0,c#'',48.0
1203,64512.0,Note On,0,0.0,49.0,92.0,0,2,96.0,11.0,9.0,35.0,"B,",82.0
1204,64512.0,Note On,0,0.0,49.0,92.0,0,2,108.0,11.0,9.0,42.0,F#,72.0
1205,64512.0,Note On,0,0.0,49.0,92.0,0,2,112.0,11.0,9.0,70.0,a#',69.0
1206,64512.0,Note On,0,0.0,56.0,83.0,0,2,1316.0,2.0,0.0,49.0,c#,92.0
1207,64512.0,Note On,0,0.0,56.0,83.0,0,2,492.0,2.0,0.0,56.0,g#,83.0
1208,64512.0,Note On,0,0.0,56.0,83.0,0,2,536.0,2.0,0.0,65.0,f',92.0
1209,64512.0,Note On,0,0.0,56.0,83.0,0,2,1312.0,3.0,1.0,37.0,C#,82.0
1210,64512.0,Note On,0,0.0,56.0,83.0,0,2,332.0,5.0,3.0,65.0,f',64.0
1211,64512.0,Note On,0,0.0,56.0,83.0,0,2,776.0,9.0,7.0,73.0,c#'',48.0
1212,64512.0,Note On,0,0.0,56.0,83.0,0,2,96.0,11.0,9.0,35.0,"B,",82.0
1213,64512.0,Note On,0,0.0,56.0,83.0,0,2,108.0,11.0,9.0,42.0,F#,72.0
1214,64512.0,Note On,0,0.0,56.0,83.0,0,2,112.0,11.0,9.0,70.0,a#',69.0
1215,64512.0,Note On,0,0.0,65.0,92.0,0,2,1316.0,2.0,0.0,49.0,c#,92.0
1216,64512.0,Note On,0,0.0,65.0,92.0,0,2,492.0,2.0,0.0,56.0,g#,83.0
1217,64512.0,Note On,0,0.0,65.0,92.0,0,2,536.0,2.0,0.0,65.0,f',92.0
1218,64512.0,Note On,0,0.0,65.0,92.0,0,2,1312.0,3.0,1.0,37.0,C#,82.0
1219,64512.0,Note On,0,0.0,65.0,92.0,0,2,332.0,5.0,3.0,65.0,f',64.0
1220,64512.0,Note On,0,0.0,65.0,92.0,0,2,776.0,9.0,7.0,73.0,c#'',48.0
1221,64512.0,Note On,0,0.0,65.0,92.0,0,2,96.0,11.0,9.0,35.0,"B,",82.0
1222,64512.0,Note On,0,0.0,65.0,92.0,0,2,108.0,11.0,9.0,42.0,F#,72.0
1223,64512.0,Note On,0,0.0,65.0,92.0,0,2,112.0,11.0,9.0,70.0,a#',69.0
1224,64540.0,Note Off,0,0.0,75.0,92.0,0,2,,,,,,
1225,65004.0,Note Off,0,0.0,56.0,83.0,0,2,,,,,,
1226,65048.0,Note Off,0,0.0,65.0,92.0,0,2,,,,,,
1227,65084.0,Note On,0,0.0,61.0,63.0,0,2,384.0,2.0,0.0,58.0,a#,92.0
1228,65084.0,Note On,0,0.0,61.0,63.0,0,2,384.0,2.0,0.0,61.0,c#',63.0
1229,65084.0,Note On,0,0.0,61.0,63.0,0,2,376.0,2.0,0.0,66.0,f#',83.0
1230,65084.0,Note On,0,0.0,61.0,63.0,0,2,332.0,5.0,3.0,66.0,f#',64.0
1231,65084.0,Note On,0,0.0,61.0,63.0,0,2,52.0,11.0,9.0,42.0,F#,31.0
1232,65084.0,Note On,0,0.0,66.0,83.0,0,2,384.0,2.0,0.0,58.0,a#,92.0
1233,65084.0,Note On,0,0.0,66.0,83.0,0,2,384.0,2.0,0.0,61.0,c#',63.0
1234,65084.0,Note On,0,0.0,66.0,83.0,0,2,376.0,2.0,0.0,66.0,f#',83.0
1235,65084.0,Note On,0,0.0,66.0,83.0,0,2,332.0,5.0,3.0,66.0,f#',64.0
1236,65084.0,Note On,0,0.0,66.0,83.0,0,2,52.0,11.0,9.0,42.0,F#,31.0
1237,65084.0,Note On,0,0.0,58.0,92.0,0,2,384.0,2.0,0.0,58.0,a#,92.0
1238,65084.0,Note On,0,0.0,58.0,92.0,0,2,384.0,2.0,0.0,61.0,c#',63.0
1239,65084.0,Note On,0,0.0,58.0,92.0,0,2,376.0,2.0,0.0,66.0,f#',83.0
1240,65084.0,Note On,0,0.0,58.0,92.0,0,2,332.0,5.0,3.0,66.0,f#',64.0
1241,65084.0,Note On,0,0.0,58.0,92.0,0,2,52.0,11.0,9.0,42.0,F#,31.0
1242,65096.0,Note Off,0,0.0,68.0,62.0,0,2,,,,,,
1243,65460.0,Note Off,0,0.0,66.0,83.0,0,2,176.0,5.0,3.0,65.0,f',73.0
1244,65468.0,Note Off,0,0.0,58.0,92.0,0,2,524.0,2.0,0.0,65.0,f',82.0
1245,65468.0,Note Off,0,0.0,58.0,92.0,0,2,56.0,11.0,9.0,42.0,F#,23.0
1246,65468.0,Note Off,0,0.0,61.0,63.0,0,2,524.0,2.0,0.0,65.0,f',82.0
1247,65468.0,Note Off,0,0.0,61.0,63.0,0,2,56.0,11.0,9.0,42.0,F#,23.0
1248,65468.0,Note On,0,0.0,65.0,82.0,0,2,524.0,2.0,0.0,65.0,f',82.0
1249,65468.0,Note On,0,0.0,65.0,82.0,0,2,56.0,11.0,9.0,42.0,F#,23.0
1250,65660.0,Note On,0,0.0,61.0,82.0,0,2,388.0,2.0,0.0,61.0,c#',82.0
1251,65660.0,Note On,0,0.0,61.0,82.0,0,2,364.0,5.0,3.0,61.0,c#',64.0
1252,65828.0,Note Off,0,0.0,49.0,92.0,0,2,,,,,,
1253,65844.0,Note On,0,0.0,49.0,74.0,0,2,192.0,2.0,0.0,49.0,c#,74.0
1254,65844.0,Note On,0,0.0,49.0,74.0,0,2,208.0,2.0,0.0,56.0,g#,68.0
1255,65844.0,Note On,0,0.0,56.0,68.0,0,2,192.0,2.0,0.0,49.0,c#,74.0
1256,65844.0,Note On,0,0.0,56.0,68.0,0,2,208.0,2.0,0.0,56.0,g#,68.0
1257,65992.0,Note Off,0,0.0,65.0,82.0,0,2,,,,,,
1258,66036.0,Note Off,0,0.0,49.0,74.0,0,2,,,,,,
1259,66040.0,Note On,0,0.0,46.0,92.0,0,2,772.0,2.0,0.0,46.0,A#,92.0
1260,66040.0,Note On,0,0.0,46.0,92.0,0,2,756.0,2.0,0.0,58.0,a#,70.0
1261,66040.0,Note On,0,0.0,46.0,92.0,0,2,608.0,2.0,0.0,65.0,f',83.0
1262,66040.0,Note On,0,0.0,58.0,70.0,0,2,772.0,2.0,0.0,46.0,A#,92.0
1263,66040.0,Note On,0,0.0,58.0,70.0,0,2,756.0,2.0,0.0,58.0,a#,70.0
1264,66040.0,Note On,0,0.0,58.0,70.0,0,2,608.0,2.0,0.0,65.0,f',83.0
1265,66040.0,Note On,0,0.0,65.0,83.0,0,2,772.0,2.0,0.0,46.0,A#,92.0
1266,66040.0,Note On,0,0.0,65.0,83.0,0,2,756.0,2.0,0.0,58.0,a#,70.0
1267,66040.0,Note On,0,0.0,65.0,83.0,0,2,608.0,2.0,0.0,65.0,f',83.0
1268,66048.0,Note Off,0,0.0,61.0,82.0,0,2,748.0,3.0,1.0,34.0,"A#,",82.0
1269,66048.0,Note Off,0,0.0,61.0,82.0,0,2,752.0,5.0,3.0,65.0,f',75.0
1270,66048.0,Note Off,0,0.0,61.0,82.0,0,2,96.0,11.0,9.0,35.0,"B,",82.0
1271,66048.0,Note Off,0,0.0,61.0,82.0,0,2,108.0,11.0,9.0,42.0,F#,72.0
1272,66052.0,Note Off,0,0.0,56.0,68.0,0,2,,,,,,
1273,66240.0,Note On,0,0.0,54.0,79.0,0,2,536.0,2.0,0.0,54.0,f#,79.0
1274,66428.0,Note On,0,0.0,61.0,70.0,0,2,408.0,2.0,0.0,61.0,c#',70.0
1275,66616.0,Note On,0,0.0,63.0,83.0,0,2,168.0,2.0,0.0,63.0,d#',83.0
1276,66648.0,Note Off,0,0.0,65.0,83.0,0,2,,,,,,
1277,66776.0,Note Off,0,0.0,54.0,79.0,0,2,,,,,,
1278,66784.0,Note Off,0,0.0,63.0,83.0,0,2,,,,,,
1279,66796.0,Note Off,0,0.0,58.0,70.0,0,2,,,,,,
1280,66808.0,Note On,0,0.0,60.0,66.0,0,2,756.0,2.0,0.0,60.0,c',66.0
1281,66808.0,Note On,0,0.0,60.0,66.0,0,2,732.0,2.0,0.0,63.0,d#',88.0
1282,66808.0,Note On,0,0.0,63.0,88.0,0,2,756.0,2.0,0.0,60.0,c',66.0
1283,66808.0,Note On,0,0.0,63.0,88.0,0,2,732.0,2.0,0.0,63.0,d#',88.0
1284,66812.0,Note Off,0,0.0,46.0,92.0,0,2,756.0,2.0,0.0,48.0,c,92.0
1285,66812.0,Note On,0,0.0,48.0,92.0,0,2,756.0,2.0,0.0,48.0,c,92.0
1286,66836.0,Note Off,0,0.0,61.0,70.0,0,2,,,,,,
1287,67004.0,Note On,0,0.0,56.0,74.0,0,2,196.0,2.0,0.0,56.0,g#,74.0
1288,67004.0,Note On,0,0.0,56.0,74.0,0,2,56.0,11.0,9.0,42.0,F#,23.0
1289,67200.0,Note Off,0,0.0,56.0,74.0,0,2,356.0,3.0,1.0,32.0,"G#,",82.0
1290,67200.0,Note Off,0,0.0,56.0,74.0,0,2,140.0,11.0,9.0,42.0,F#,72.0
1291,67204.0,Note On,0,0.0,68.0,83.0,0,2,420.0,2.0,0.0,68.0,g#',83.0
1292,67388.0,Note On,0,0.0,56.0,74.0,0,2,224.0,2.0,0.0,56.0,g#,74.0
1293,67388.0,Note On,0,0.0,56.0,74.0,0,2,56.0,11.0,9.0,42.0,F#,31.0
1294,67540.0,Note Off,0,0.0,63.0,88.0,0,2,,,,,,
1295,67564.0,Note Off,0,0.0,60.0,66.0,0,2,,,,,,
1296,67568.0,Note Off,0,0.0,48.0,92.0,0,2,,,,,,
1297,67584.0,Note On,0,0.0,63.0,88.0,0,2,572.0,2.0,0.0,63.0,d#',88.0
1298,67584.0,Note On,0,0.0,63.0,88.0,0,2,544.0,3.0,1.0,30.0,"F#,",82.0
1299,67584.0,Note On,0,0.0,63.0,88.0,0,2,96.0,11.0,9.0,35.0,"B,",82.0
1300,67584.0,Note On,0,0.0,63.0,88.0,0,2,140.0,11.0,9.0,42.0,F#,72.0
1301,67584.0,Note On,0,0.0,63.0,88.0,0,2,112.0,11.0,9.0,70.0,a#',69.0
1302,67588.0,Note On,0,0.0,42.0,92.0,0,2,712.0,2.0,0.0,42.0,F#,92.0
1303,67588.0,Note On,0,0.0,42.0,92.0,0,2,488.0,2.0,0.0,58.0,a#,70.0
1304,67588.0,Note On,0,0.0,58.0,70.0,0,2,712.0,2.0,0.0,42.0,F#,92.0
1305,67588.0,Note On,0,0.0,58.0,70.0,0,2,488.0,2.0,0.0,58.0,a#,70.0
1306,67612.0,Note Off,0,0.0,56.0,74.0,0,2,,,,,,
1307,67624.0,Note Off,0,0.0,68.0,83.0,0,2,,,,,,
1308,68076.0,Note Off,0,0.0,58.0,70.0,0,2,,,,,,
1309,68144.0,Note On,0,0.0,65.0,91.0,0,2,920.0,2.0,0.0,65.0,f',91.0
1310,68156.0,Note Off,0,0.0,63.0,88.0,0,2,52.0,11.0,9.0,42.0,F#,31.0
1311,68300.0,Note Off,0,0.0,42.0,92.0,0,2,,,,,,
1312,68336.0,Note On,0,0.0,58.0,84.0,0,2,164.0,2.0,0.0,58.0,a#,84.0
1313,68352.0,Note On,0,0.0,41.0,92.0,0,2,756.0,2.0,0.0,41.0,F,92.0
1314,68352.0,Note On,0,0.0,41.0,92.0,0,2,180.0,11.0,9.0,37.0,C#,82.0
1315,68352.0,Note On,0,0.0,41.0,92.0,0,2,112.0,11.0,9.0,42.0,F#,75.0
1316,68500.0,Note Off,0,0.0,58.0,84.0,0,2,,,,,,
1317,68508.0,Note On,0,0.0,57.0,62.0,0,2,352.0,2.0,0.0,57.0,a,62.0
1318,68860.0,Note Off,0,0.0,57.0,62.0,0,2,,,,,,
1319,68904.0,Note On,0,0.0,57.0,46.0,0,2,184.0,2.0,0.0,57.0,a,46.0
1320,68928.0,Note On,0,0.0,60.0,58.0,0,2,172.0,2.0,0.0,60.0,c',58.0
1321,68928.0,Note On,0,0.0,60.0,58.0,0,2,176.0,3.0,1.0,29.0,"F,",64.0
1322,68928.0,Note On,0,0.0,60.0,58.0,0,2,96.0,11.0,9.0,35.0,"B,",64.0
1323,68928.0,Note On,0,0.0,60.0,58.0,0,2,52.0,11.0,9.0,42.0,F#,48.0
1324,69064.0,Note Off,0,0.0,65.0,91.0,0,2,,,,,,
1325,69088.0,Note Off,0,0.0,57.0,46.0,0,2,808.0,4.0,2.0,85.0,c#''',58.0
1326,69100.0,Note Off,0,0.0,60.0,58.0,0,2,,,,,,
1327,69108.0,Note Off,0,0.0,41.0,92.0,0,2,,,,,,
1328,69116.0,Note On,0,0.0,65.0,82.0,0,2,676.0,2.0,0.0,65.0,f',82.0
1329,69120.0,Note On,0,0.0,63.0,74.0,0,2,168.0,2.0,0.0,63.0,d#',74.0
1330,69120.0,Note On,0,0.0,63.0,74.0,0,2,720.0,3.0,1.0,34.0,"A#,",73.0
1331,69120.0,Note On,0,0.0,63.0,74.0,0,2,3076.0,4.0,2.0,73.0,c#'',48.0
1332,69120.0,Note On,0,0.0,63.0,74.0,0,2,96.0,11.0,9.0,35.0,"B,",82.0
1333,69120.0,Note On,0,0.0,63.0,74.0,0,2,108.0,11.0,9.0,42.0,F#,72.0
1334,69124.0,Note On,0,0.0,46.0,92.0,0,2,712.0,2.0,0.0,46.0,A#,92.0
1335,69124.0,Note On,0,0.0,46.0,92.0,0,2,676.0,2.0,0.0,58.0,a#,74.0
1336,69124.0,Note On,0,0.0,58.0,74.0,0,2,712.0,2.0,0.0,46.0,A#,92.0
1337,69124.0,Note On,0,0.0,58.0,74.0,0,2,676.0,2.0,0.0,58.0,a#,74.0
1338,69284.0,Note On,0,0.0,61.0,58.0,0,2,556.0,2.0,0.0,61.0,c#',58.0
1339,69288.0,Note Off,0,0.0,63.0,74.0,0,2,,,,,,
1340,69792.0,Note Off,0,0.0,65.0,82.0,0,2,,,,,,
1341,69800.0,Note Off,0,0.0,58.0,74.0,0,2,,,,,,
1342,69836.0,Note Off,0,0.0,46.0,92.0,0,2,,,,,,
1343,69840.0,Note Off,0,0.0,61.0,58.0,0,2,,,,,,
1344,69872.0,Note On,0,0.0,61.0,70.0,0,2,756.0,2.0,0.0,61.0,c#',70.0
1345,69872.0,Note On,0,0.0,61.0,70.0,0,2,760.0,2.0,0.0,65.0,f',74.0
1346,69872.0,Note On,0,0.0,65.0,74.0,0,2,756.0,2.0,0.0,61.0,c#',70.0
1347,69872.0,Note On,0,0.0,65.0,74.0,0,2,760.0,2.0,0.0,65.0,f',74.0
1348,69876.0,Note On,0,0.0,58.0,83.0,0,2,776.0,2.0,0.0,44.0,G#,91.0
1349,69876.0,Note On,0,0.0,58.0,83.0,0,2,760.0,2.0,0.0,58.0,a#,83.0
1350,69876.0,Note On,0,0.0,44.0,91.0,0,2,776.0,2.0,0.0,44.0,G#,91.0
1351,69876.0,Note On,0,0.0,44.0,91.0,0,2,760.0,2.0,0.0,58.0,a#,83.0
1352,70256.0,Note On,0,0.0,70.0,82.0,0,2,364.0,2.0,0.0,70.0,a#',82.0
1353,70620.0,Note Off,0,0.0,70.0,82.0,0,2,,,,,,
1354,70628.0,Note Off,0,0.0,61.0,70.0,0,2,,,,,,
1355,70632.0,Note Off,0,0.0,65.0,74.0,0,2,,,,,,
1356,70636.0,Note Off,0,0.0,58.0,83.0,0,2,,,,,,
1357,70648.0,Note On,0,0.0,58.0,87.0,0,2,724.0,2.0,0.0,58.0,a#,87.0
1358,70652.0,Note Off,0,0.0,44.0,91.0,0,2,736.0,2.0,0.0,61.0,c#',86.0
1359,70652.0,Note On,0,0.0,61.0,86.0,0,2,736.0,2.0,0.0,61.0,c#',86.0
1360,70656.0,Note On,0,0.0,66.0,76.0,0,2,708.0,2.0,0.0,66.0,f#',76.0
1361,70656.0,Note On,0,0.0,66.0,76.0,0,2,712.0,3.0,1.0,30.0,"F#,",82.0
1362,70656.0,Note On,0,0.0,66.0,76.0,0,2,324.0,5.0,3.0,58.0,a#,73.0
1363,70656.0,Note On,0,0.0,66.0,76.0,0,2,96.0,11.0,9.0,35.0,"B,",82.0
1364,70656.0,Note On,0,0.0,66.0,76.0,0,2,108.0,11.0,9.0,42.0,F#,72.0
1365,70656.0,Note On,0,0.0,66.0,76.0,0,2,112.0,11.0,9.0,70.0,a#',69.0
1366,70660.0,Note On,0,0.0,42.0,85.0,0,2,728.0,2.0,0.0,42.0,F#,85.0
1367,71364.0,Note Off,0,0.0,66.0,76.0,0,2,,,,,,
1368,71372.0,Note Off,0,0.0,58.0,87.0,0,2,,,,,,
1369,71388.0,Note Off,0,0.0,42.0,85.0,0,2,,,,,,
1370,71388.0,Note Off,0,0.0,61.0,86.0,0,2,,,,,,
1371,71416.0,Note On,0,0.0,46.0,74.0,0,2,180.0,2.0,0.0,46.0,A#,74.0
1372,71420.0,Note On,0,0.0,58.0,74.0,0,2,540.0,2.0,0.0,58.0,a#,74.0
1373,71424.0,Note On,0,0.0,61.0,83.0,0,2,536.0,2.0,0.0,61.0,c#',83.0
1374,71424.0,Note On,0,0.0,61.0,83.0,0,2,556.0,2.0,0.0,66.0,f#',70.0
1375,71424.0,Note On,0,0.0,61.0,83.0,0,2,160.0,3.0,1.0,34.0,"A#,",82.0
1376,71424.0,Note On,0,0.0,61.0,83.0,0,2,180.0,11.0,9.0,37.0,C#,82.0
1377,71424.0,Note On,0,0.0,61.0,83.0,0,2,112.0,11.0,9.0,42.0,F#,75.0
1378,71424.0,Note On,0,0.0,66.0,70.0,0,2,536.0,2.0,0.0,61.0,c#',83.0
1379,71424.0,Note On,0,0.0,66.0,70.0,0,2,556.0,2.0,0.0,66.0,f#',70.0
1380,71424.0,Note On,0,0.0,66.0,70.0,0,2,160.0,3.0,1.0,34.0,"A#,",82.0
1381,71424.0,Note On,0,0.0,66.0,70.0,0,2,180.0,11.0,9.0,37.0,C#,82.0
1382,71424.0,Note On,0,0.0,66.0,70.0,0,2,112.0,11.0,9.0,42.0,F#,75.0
1383,71596.0,Note Off,0,0.0,46.0,74.0,0,2,,,,,,
1384,71604.0,Note On,0,0.0,42.0,83.0,0,2,548.0,2.0,0.0,42.0,F#,83.0
1385,71960.0,Note Off,0,0.0,61.0,83.0,0,2,,,,,,
1386,71960.0,Note Off,0,0.0,58.0,74.0,0,2,,,,,,
1387,71980.0,Note Off,0,0.0,66.0,70.0,0,2,,,,,,
1388,71996.0,Note On,0,0.0,61.0,92.0,0,2,940.0,2.0,0.0,61.0,c#',92.0
1389,71996.0,Note On,0,0.0,61.0,92.0,0,2,580.0,2.0,0.0,65.0,f',101.0
1390,71996.0,Note On,0,0.0,65.0,101.0,0,2,940.0,2.0,0.0,61.0,c#',92.0
1391,71996.0,Note On,0,0.0,65.0,101.0,0,2,580.0,2.0,0.0,65.0,f',101.0
1392,72004.0,Note On,0,0.0,56.0,83.0,0,2,320.0,2.0,0.0,56.0,g#,83.0
1393,72152.0,Note Off,0,0.0,42.0,83.0,0,2,,,,,,
1394,72192.0,Note On,0,0.0,49.0,92.0,0,2,1404.0,2.0,0.0,49.0,c#,92.0
1395,72192.0,Note On,0,0.0,49.0,92.0,0,2,1468.0,3.0,1.0,37.0,C#,82.0
1396,72192.0,Note On,0,0.0,49.0,92.0,0,2,96.0,11.0,9.0,35.0,"B,",82.0
1397,72192.0,Note On,0,0.0,49.0,92.0,0,2,108.0,11.0,9.0,42.0,F#,72.0
1398,72324.0,Note Off,0,0.0,56.0,83.0,0,2,,,,,,
1399,72376.0,Note On,0,0.0,56.0,70.0,0,2,592.0,2.0,0.0,56.0,g#,70.0
1400,72568.0,Note On,0,0.0,63.0,83.0,0,2,368.0,2.0,0.0,63.0,d#',83.0
1401,72576.0,Note Off,0,0.0,65.0,101.0,0,2,120.0,11.0,9.0,42.0,F#,69.0
1402,72764.0,Note On,0,0.0,65.0,74.0,0,2,180.0,2.0,0.0,65.0,f',74.0
1403,72936.0,Note Off,0,0.0,63.0,83.0,0,2,,,,,,
1404,72936.0,Note Off,0,0.0,61.0,92.0,0,2,,,,,,
1405,72944.0,Note Off,0,0.0,65.0,74.0,0,2,,,,,,
1406,72952.0,Note On,0,0.0,61.0,70.0,0,2,368.0,2.0,0.0,61.0,c#',70.0
1407,72960.0,Note On,0,0.0,58.0,83.0,0,2,360.0,2.0,0.0,58.0,a#,83.0
1408,72960.0,Note On,0,0.0,58.0,83.0,0,2,344.0,2.0,0.0,66.0,f#',86.0
1409,72960.0,Note On,0,0.0,58.0,83.0,0,2,188.0,11.0,9.0,38.0,D,81.0
1410,72960.0,Note On,0,0.0,58.0,83.0,0,2,96.0,11.0,9.0,54.0,f#,91.0
1411,72960.0,Note On,0,0.0,66.0,86.0,0,2,360.0,2.0,0.0,58.0,a#,83.0
1412,72960.0,Note On,0,0.0,66.0,86.0,0,2,344.0,2.0,0.0,66.0,f#',86.0
1413,72960.0,Note On,0,0.0,66.0,86.0,0,2,188.0,11.0,9.0,38.0,D,81.0
1414,72960.0,Note On,0,0.0,66.0,86.0,0,2,96.0,11.0,9.0,54.0,f#,91.0
1415,72968.0,Note Off,0,0.0,56.0,70.0,0,2,,,,,,
1416,73304.0,Note Off,0,0.0,66.0,86.0,0,2,,,,,,
1417,73320.0,Note Off,0,0.0,58.0,83.0,0,2,,,,,,
1418,73320.0,Note Off,0,0.0,61.0,70.0,0,2,,,,,,
1419,73340.0,Note On,0,0.0,61.0,66.0,0,2,384.0,2.0,0.0,61.0,c#',66.0
1420,73344.0,Note On,0,0.0,58.0,74.0,0,2,368.0,2.0,0.0,58.0,a#,74.0
1421,73344.0,Note On,0,0.0,58.0,74.0,0,2,372.0,2.0,0.0,66.0,f#',101.0
1422,73344.0,Note On,0,0.0,58.0,74.0,0,2,340.0,5.0,3.0,70.0,a#',91.0
1423,73344.0,Note On,0,0.0,66.0,101.0,0,2,368.0,2.0,0.0,58.0,a#,74.0
1424,73344.0,Note On,0,0.0,66.0,101.0,0,2,372.0,2.0,0.0,66.0,f#',101.0
1425,73344.0,Note On,0,0.0,66.0,101.0,0,2,340.0,5.0,3.0,70.0,a#',91.0
1426,73596.0,Note Off,0,0.0,49.0,92.0,0,2,,,,,,
1427,73712.0,Note Off,0,0.0,58.0,74.0,0,2,,,,,,
1428,73716.0,Note Off,0,0.0,66.0,101.0,0,2,,,,,,
1429,73724.0,Note Off,0,0.0,61.0,66.0,0,2,,,,,,
1430,73728.0,Note On,0,0.0,60.0,101.0,0,2,540.0,2.0,0.0,56.0,g#,92.0
1431,73728.0,Note On,0,0.0,60.0,101.0,0,2,588.0,2.0,0.0,60.0,c',101.0
1432,73728.0,Note On,0,0.0,60.0,101.0,0,2,536.0,3.0,1.0,32.0,"G#,",82.0
1433,73728.0,Note On,0,0.0,60.0,101.0,0,2,1868.0,5.0,3.0,68.0,g#',82.0
1434,73728.0,Note On,0,0.0,60.0,101.0,0,2,176.0,7.0,5.0,80.0,g#'',75.0
1435,73728.0,Note On,0,0.0,60.0,101.0,0,2,96.0,11.0,9.0,35.0,"B,",82.0
1436,73728.0,Note On,0,0.0,60.0,101.0,0,2,700.0,11.0,9.0,49.0,c#,64.0
1437,73728.0,Note On,0,0.0,56.0,92.0,0,2,540.0,2.0,0.0,56.0,g#,92.0
1438,73728.0,Note On,0,0.0,56.0,92.0,0,2,588.0,2.0,0.0,60.0,c',101.0
1439,73728.0,Note On,0,0.0,56.0,92.0,0,2,536.0,3.0,1.0,32.0,"G#,",82.0
1440,73728.0,Note On,0,0.0,56.0,92.0,0,2,1868.0,5.0,3.0,68.0,g#',82.0
1441,73728.0,Note On,0,0.0,56.0,92.0,0,2,176.0,7.0,5.0,80.0,g#'',75.0
1442,73728.0,Note On,0,0.0,56.0,92.0,0,2,96.0,11.0,9.0,35.0,"B,",82.0
1443,73728.0,Note On,0,0.0,56.0,92.0,0,2,700.0,11.0,9.0,49.0,c#,64.0
1444,73732.0,Note On,0,0.0,44.0,95.0,0,2,556.0,2.0,0.0,44.0,G#,95.0
1445,74268.0,Note Off,0,0.0,56.0,92.0,0,2,,,,,,
1446,74288.0,Note Off,0,0.0,44.0,95.0,0,2,,,,,,
1447,74292.0,Note On,0,0.0,46.0,83.0,0,2,216.0,2.0,0.0,46.0,A#,83.0
1448,74304.0,Note On,0,0.0,61.0,74.0,0,2,216.0,2.0,0.0,61.0,c#',74.0
1449,74304.0,Note On,0,0.0,61.0,74.0,0,2,168.0,3.0,1.0,32.0,"G#,",64.0
1450,74308.0,Note On,0,0.0,58.0,83.0,0,2,160.0,2.0,0.0,58.0,a#,83.0
1451,74316.0,Note Off,0,0.0,60.0,101.0,0,2,,,,,,
1452,74468.0,Note Off,0,0.0,58.0,83.0,0,2,,,,,,
1453,74488.0,Note On,0,0.0,48.0,101.0,0,2,748.0,2.0,0.0,48.0,c,101.0
1454,74492.0,Note On,0,0.0,60.0,92.0,0,2,372.0,2.0,0.0,60.0,c',92.0
1455,74496.0,Note On,0,0.0,63.0,101.0,0,2,360.0,2.0,0.0,63.0,d#',101.0
1456,74496.0,Note On,0,0.0,63.0,101.0,0,2,540.0,3.0,1.0,36.0,C,82.0
1457,74496.0,Note On,0,0.0,63.0,101.0,0,2,240.0,11.0,9.0,38.0,D,73.0
1458,74496.0,Note On,0,0.0,63.0,101.0,0,2,112.0,11.0,9.0,42.0,F#,75.0
1459,74508.0,Note Off,0,0.0,46.0,83.0,0,2,,,,,,
1460,74520.0,Note Off,0,0.0,61.0,74.0,0,2,,,,,,
1461,74856.0,Note Off,0,0.0,63.0,101.0,0,2,,,,,,
1462,74864.0,Note Off,0,0.0,60.0,92.0,0,2,,,,,,
1463,74876.0,Note On,0,0.0,56.0,83.0,0,2,184.0,2.0,0.0,56.0,g#,83.0
1464,75060.0,Note Off,0,0.0,56.0,83.0,0,2,184.0,2.0,0.0,66.0,f#',83.0
1465,75060.0,Note On,0,0.0,66.0,83.0,0,2,184.0,2.0,0.0,66.0,f#',83.0
1466,75064.0,Note On,0,0.0,63.0,92.0,0,2,176.0,2.0,0.0,63.0,d#',92.0
1467,75236.0,Note Off,0,0.0,48.0,101.0,0,2,,,,,,
1468,75240.0,Note Off,0,0.0,63.0,92.0,0,2,,,,,,
1469,75244.0,Note Off,0,0.0,66.0,83.0,0,2,,,,,,
1470,75252.0,Note On,0,0.0,65.0,92.0,0,2,492.0,2.0,0.0,65.0,f',92.0
1471,75256.0,Note On,0,0.0,49.0,92.0,0,2,1520.0,2.0,0.0,49.0,c#,92.0
1472,75256.0,Note On,0,0.0,49.0,92.0,0,2,780.0,2.0,0.0,61.0,c#',83.0
1473,75256.0,Note On,0,0.0,61.0,83.0,0,2,1520.0,2.0,0.0,49.0,c#,92.0
1474,75256.0,Note On,0,0.0,61.0,83.0,0,2,780.0,2.0,0.0,61.0,c#',83.0
1475,75632.0,Note On,0,0.0,56.0,58.0,0,2,520.0,2.0,0.0,56.0,g#,58.0
1476,75744.0,Note Off,0,0.0,65.0,92.0,0,2,,,,,,
1477,75824.0,Note On,0,0.0,65.0,97.0,0,2,660.0,2.0,0.0,65.0,f',97.0
1478,76036.0,Note Off,0,0.0,61.0,83.0,0,2,,,,,,
1479,76152.0,Note Off,0,0.0,56.0,58.0,0,2,,,,,,
1480,76216.0,Note On,0,0.0,56.0,74.0,0,2,552.0,2.0,0.0,56.0,g#,74.0
1481,76408.0,Note On,0,0.0,70.0,97.0,0,2,356.0,2.0,0.0,70.0,a#',97.0
1482,76484.0,Note Off,0,0.0,65.0,97.0,0,2,,,,,,
1483,76764.0,Note Off,0,0.0,70.0,97.0,0,2,,,,,,
1484,76768.0,Note Off,0,0.0,56.0,74.0,0,2,,,,,,
1485,76776.0,Note Off,0,0.0,49.0,92.0,0,2,,,,,,
1486,76796.0,Note On,0,0.0,68.0,98.0,0,2,216.0,2.0,0.0,63.0,d#',83.0
1487,76796.0,Note On,0,0.0,68.0,98.0,0,2,392.0,2.0,0.0,68.0,g#',98.0
1488,76796.0,Note On,0,0.0,68.0,98.0,0,2,368.0,5.0,3.0,68.0,g#',73.0
1489,76796.0,Note On,0,0.0,63.0,83.0,0,2,216.0,2.0,0.0,63.0,d#',83.0
1490,76796.0,Note On,0,0.0,63.0,83.0,0,2,392.0,2.0,0.0,68.0,g#',98.0
1491,76796.0,Note On,0,0.0,63.0,83.0,0,2,368.0,5.0,3.0,68.0,g#',73.0
1492,76800.0,Note On,0,0.0,44.0,91.0,0,2,1516.0,2.0,0.0,44.0,G#,91.0
1493,76800.0,Note On,0,0.0,44.0,91.0,0,2,728.0,3.0,1.0,32.0,"G#,",82.0
1494,76800.0,Note On,0,0.0,44.0,91.0,0,2,96.0,11.0,9.0,35.0,"B,",82.0
1495,76800.0,Note On,0,0.0,44.0,91.0,0,2,108.0,11.0,9.0,42.0,F#,72.0
1496,76984.0,Note On,0,0.0,56.0,66.0,0,2,180.0,2.0,0.0,56.0,g#,66.0
1497,77012.0,Note Off,0,0.0,63.0,83.0,0,2,,,,,,
1498,77164.0,Note Off,0,0.0,56.0,66.0,0,2,160.0,2.0,0.0,63.0,d#',74.0
1499,77164.0,Note On,0,0.0,63.0,74.0,0,2,160.0,2.0,0.0,63.0,d#',74.0
1500,77188.0,Note Off,0,0.0,68.0,98.0,0,2,,,,,,
1501,77324.0,Note Off,0,0.0,63.0,74.0,0,2,,,,,,
1502,77368.0,Note On,0,0.0,63.0,92.0,0,2,328.0,2.0,0.0,63.0,d#',92.0
1503,77368.0,Note On,0,0.0,63.0,92.0,0,2,340.0,2.0,0.0,66.0,f#',91.0
1504,77368.0,Note On,0,0.0,66.0,91.0,0,2,328.0,2.0,0.0,63.0,d#',92.0
1505,77368.0,Note On,0,0.0,66.0,91.0,0,2,340.0,2.0,0.0,66.0,f#',91.0
1506,77696.0,Note Off,0,0.0,63.0,92.0,0,2,,,,,,
1507,77708.0,Note Off,0,0.0,66.0,91.0,0,2,,,,,,
1508,77752.0,Note On,0,0.0,56.0,66.0,0,2,556.0,2.0,0.0,56.0,g#,66.0
1509,77752.0,Note On,0,0.0,56.0,66.0,0,2,356.0,2.0,0.0,63.0,d#',63.0
1510,77752.0,Note On,0,0.0,56.0,66.0,0,2,564.0,2.0,0.0,65.0,f',93.0
1511,77752.0,Note On,0,0.0,63.0,63.0,0,2,556.0,2.0,0.0,56.0,g#,66.0
1512,77752.0,Note On,0,0.0,63.0,63.0,0,2,356.0,2.0,0.0,63.0,d#',63.0
1513,77752.0,Note On,0,0.0,63.0,63.0,0,2,564.0,2.0,0.0,65.0,f',93.0
1514,77752.0,Note On,0,0.0,65.0,93.0,0,2,556.0,2.0,0.0,56.0,g#,66.0
1515,77752.0,Note On,0,0.0,65.0,93.0,0,2,356.0,2.0,0.0,63.0,d#',63.0
1516,77752.0,Note On,0,0.0,65.0,93.0,0,2,564.0,2.0,0.0,65.0,f',93.0
1517,78108.0,Note Off,0,0.0,63.0,63.0,0,2,,,,,,
1518,78132.0,Note On,0,0.0,61.0,88.0,0,2,720.0,2.0,0.0,61.0,c#',88.0
1519,78308.0,Note Off,0,0.0,56.0,66.0,0,2,,,,,,
1520,78316.0,Note Off,0,0.0,65.0,93.0,0,2,,,,,,
1521,78316.0,Note Off,0,0.0,44.0,91.0,0,2,,,,,,
1522,78328.0,Note On,0,0.0,65.0,97.0,0,2,732.0,2.0,0.0,65.0,f',97.0
1523,78336.0,Note On,0,0.0,56.0,74.0,0,2,744.0,2.0,0.0,49.0,c#,92.0
1524,78336.0,Note On,0,0.0,56.0,74.0,0,2,728.0,2.0,0.0,56.0,g#,74.0
1525,78336.0,Note On,0,0.0,56.0,74.0,0,2,712.0,3.0,1.0,37.0,C#,82.0
1526,78336.0,Note On,0,0.0,56.0,74.0,0,2,96.0,11.0,9.0,35.0,"B,",82.0
1527,78336.0,Note On,0,0.0,56.0,74.0,0,2,108.0,11.0,9.0,42.0,F#,72.0
1528,78336.0,Note On,0,0.0,49.0,92.0,0,2,744.0,2.0,0.0,49.0,c#,92.0
1529,78336.0,Note On,0,0.0,49.0,92.0,0,2,728.0,2.0,0.0,56.0,g#,74.0
1530,78336.0,Note On,0,0.0,49.0,92.0,0,2,712.0,3.0,1.0,37.0,C#,82.0
1531,78336.0,Note On,0,0.0,49.0,92.0,0,2,96.0,11.0,9.0,35.0,"B,",82.0
1532,78336.0,Note On,0,0.0,49.0,92.0,0,2,108.0,11.0,9.0,42.0,F#,72.0
1533,78852.0,Note Off,0,0.0,61.0,88.0,0,2,,,,,,
1534,78908.0,Note On,0,0.0,61.0,62.0,0,2,924.0,2.0,0.0,61.0,c#',62.0
1535,78908.0,Note On,0,0.0,61.0,62.0,0,2,52.0,11.0,9.0,42.0,F#,34.0
1536,79060.0,Note Off,0,0.0,65.0,97.0,0,2,,,,,,
1537,79064.0,Note Off,0,0.0,56.0,74.0,0,2,,,,,,
1538,79080.0,Note Off,0,0.0,49.0,92.0,0,2,,,,,,
1539,79092.0,Note On,0,0.0,56.0,74.0,0,2,768.0,2.0,0.0,56.0,g#,74.0
1540,79092.0,Note On,0,0.0,56.0,74.0,0,2,280.0,2.0,0.0,65.0,f',101.0
1541,79092.0,Note On,0,0.0,56.0,74.0,0,2,220.0,5.0,3.0,65.0,f',73.0
1542,79092.0,Note On,0,0.0,65.0,101.0,0,2,768.0,2.0,0.0,56.0,g#,74.0
1543,79092.0,Note On,0,0.0,65.0,101.0,0,2,280.0,2.0,0.0,65.0,f',101.0
1544,79092.0,Note On,0,0.0,65.0,101.0,0,2,220.0,5.0,3.0,65.0,f',73.0
1545,79096.0,Note On,0,0.0,41.0,83.0,0,2,224.0,2.0,0.0,41.0,F,83.0
1546,79320.0,Note Off,0,0.0,41.0,83.0,0,2,,,,,,
1547,79356.0,Note On,0,0.0,66.0,92.0,0,2,308.0,2.0,0.0,66.0,f#',92.0
1548,79360.0,Note On,0,0.0,42.0,74.0,0,2,208.0,2.0,0.0,42.0,F#,74.0
1549,79360.0,Note On,0,0.0,42.0,74.0,0,2,224.0,5.0,3.0,66.0,f#',73.0
1550,79372.0,Note Off,0,0.0,65.0,101.0,0,2,,,,,,
1551,79568.0,Note Off,0,0.0,42.0,74.0,0,2,,,,,,
1552,79604.0,Note On,0,0.0,44.0,83.0,0,2,232.0,2.0,0.0,44.0,G#,83.0
1553,79612.0,Note On,0,0.0,68.0,97.0,0,2,260.0,2.0,0.0,68.0,g#',97.0
1554,79664.0,Note Off,0,0.0,66.0,92.0,0,2,,,,,,
1555,79832.0,Note Off,0,0.0,61.0,62.0,0,2,,,,,,
1556,79836.0,Note Off,0,0.0,44.0,83.0,0,2,,,,,,
1557,79860.0,Note Off,0,0.0,56.0,74.0,0,2,,,,,,
1558,79864.0,Note On,0,0.0,42.0,91.0,0,2,740.0,2.0,0.0,42.0,F#,91.0
1559,79864.0,Note On,0,0.0,42.0,91.0,0,2,328.0,5.0,3.0,72.0,c'',73.0
1560,79868.0,Note On,0,0.0,63.0,92.0,0,2,200.0,2.0,0.0,63.0,d#',92.0
1561,79868.0,Note On,0,0.0,63.0,92.0,0,2,772.0,2.0,0.0,72.0,c'',99.0
1562,79868.0,Note On,0,0.0,72.0,99.0,0,2,200.0,2.0,0.0,63.0,d#',92.0
1563,79868.0,Note On,0,0.0,72.0,99.0,0,2,772.0,2.0,0.0,72.0,c'',99.0
1564,79872.0,Note Off,0,0.0,68.0,97.0,0,2,716.0,3.0,1.0,30.0,"F#,",82.0
1565,79872.0,Note Off,0,0.0,68.0,97.0,0,2,96.0,11.0,9.0,35.0,"B,",82.0
1566,79872.0,Note Off,0,0.0,68.0,97.0,0,2,108.0,11.0,9.0,42.0,F#,72.0
1567,80052.0,Note On,0,0.0,70.0,85.0,0,2,204.0,2.0,0.0,70.0,a#',85.0
1568,80068.0,Note Off,0,0.0,63.0,92.0,0,2,,,,,,
1569,80240.0,Note On,0,0.0,63.0,76.0,0,2,400.0,2.0,0.0,63.0,d#',76.0
1570,80256.0,Note Off,0,0.0,70.0,85.0,0,2,120.0,11.0,9.0,42.0,F#,69.0
1571,80436.0,Note On,0,0.0,68.0,74.0,0,2,180.0,2.0,0.0,68.0,g#',74.0
1572,80604.0,Note Off,0,0.0,42.0,91.0,0,2,,,,,,
1573,80616.0,Note Off,0,0.0,68.0,74.0,0,2,,,,,,
1574,80632.0,Note On,0,0.0,41.0,92.0,0,2,724.0,2.0,0.0,41.0,F,92.0
1575,80632.0,Note On,0,0.0,41.0,92.0,0,2,208.0,2.0,0.0,61.0,c#',91.0
1576,80632.0,Note On,0,0.0,41.0,92.0,0,2,412.0,2.0,0.0,68.0,g#',97.0
1577,80632.0,Note On,0,0.0,41.0,92.0,0,2,396.0,5.0,3.0,68.0,g#',64.0
1578,80632.0,Note On,0,0.0,61.0,91.0,0,2,724.0,2.0,0.0,41.0,F,92.0
1579,80632.0,Note On,0,0.0,61.0,91.0,0,2,208.0,2.0,0.0,61.0,c#',91.0
1580,80632.0,Note On,0,0.0,61.0,91.0,0,2,412.0,2.0,0.0,68.0,g#',97.0
1581,80632.0,Note On,0,0.0,61.0,91.0,0,2,396.0,5.0,3.0,68.0,g#',64.0
1582,80632.0,Note On,0,0.0,68.0,97.0,0,2,724.0,2.0,0.0,41.0,F,92.0
1583,80632.0,Note On,0,0.0,68.0,97.0,0,2,208.0,2.0,0.0,61.0,c#',91.0
1584,80632.0,Note On,0,0.0,68.0,97.0,0,2,412.0,2.0,0.0,68.0,g#',97.0
1585,80632.0,Note On,0,0.0,68.0,97.0,0,2,396.0,5.0,3.0,68.0,g#',64.0
1586,80640.0,Note Off,0,0.0,63.0,76.0,0,2,556.0,3.0,1.0,29.0,"F,",82.0
1587,80640.0,Note Off,0,0.0,63.0,76.0,0,2,240.0,11.0,9.0,38.0,D,73.0
1588,80640.0,Note Off,0,0.0,63.0,76.0,0,2,112.0,11.0,9.0,42.0,F#,75.0
1589,80640.0,Note Off,0,0.0,72.0,99.0,0,2,556.0,3.0,1.0,29.0,"F,",82.0
1590,80640.0,Note Off,0,0.0,72.0,99.0,0,2,240.0,11.0,9.0,38.0,D,73.0
1591,80640.0,Note Off,0,0.0,72.0,99.0,0,2,112.0,11.0,9.0,42.0,F#,75.0
1592,80832.0,Note On,0,0.0,56.0,79.0,0,2,520.0,2.0,0.0,56.0,g#,79.0
1593,80840.0,Note Off,0,0.0,61.0,91.0,0,2,,,,,,
1594,81016.0,Note On,0,0.0,61.0,74.0,0,2,372.0,2.0,0.0,61.0,c#',74.0
1595,81044.0,Note Off,0,0.0,68.0,97.0,0,2,,,,,,
1596,81208.0,Note On,0,0.0,68.0,83.0,0,2,184.0,2.0,0.0,68.0,g#',83.0
1597,81352.0,Note Off,0,0.0,56.0,79.0,0,2,,,,,,
1598,81356.0,Note Off,0,0.0,41.0,92.0,0,2,,,,,,
1599,81388.0,Note Off,0,0.0,61.0,74.0,0,2,,,,,,
1600,81392.0,Note Off,0,0.0,68.0,83.0,0,2,,,,,,
1601,81404.0,Note On,0,0.0,42.0,94.0,0,2,692.0,2.0,0.0,42.0,F#,94.0
1602,81408.0,Note On,0,0.0,68.0,83.0,0,2,328.0,2.0,0.0,68.0,g#',83.0
1603,81408.0,Note On,0,0.0,68.0,83.0,0,2,300.0,2.0,0.0,72.0,c'',96.0
1604,81408.0,Note On,0,0.0,68.0,83.0,0,2,704.0,3.0,1.0,30.0,"F#,",82.0
1605,81408.0,Note On,0,0.0,68.0,83.0,0,2,96.0,11.0,9.0,35.0,"B,",82.0
1606,81408.0,Note On,0,0.0,68.0,83.0,0,2,108.0,11.0,9.0,42.0,F#,72.0
1607,81408.0,Note On,0,0.0,72.0,96.0,0,2,328.0,2.0,0.0,68.0,g#',83.0
1608,81408.0,Note On,0,0.0,72.0,96.0,0,2,300.0,2.0,0.0,72.0,c'',96.0
1609,81408.0,Note On,0,0.0,72.0,96.0,0,2,704.0,3.0,1.0,30.0,"F#,",82.0
1610,81408.0,Note On,0,0.0,72.0,96.0,0,2,96.0,11.0,9.0,35.0,"B,",82.0
1611,81408.0,Note On,0,0.0,72.0,96.0,0,2,108.0,11.0,9.0,42.0,F#,72.0
1612,81596.0,Note On,0,0.0,61.0,58.0,0,2,276.0,2.0,0.0,61.0,c#',58.0
1613,81596.0,Note On,0,0.0,61.0,58.0,0,2,44.0,11.0,9.0,42.0,F#,23.0
1614,81708.0,Note Off,0,0.0,72.0,96.0,0,2,,,,,,
1615,81736.0,Note Off,0,0.0,68.0,83.0,0,2,,,,,,
1616,81780.0,Note On,0,0.0,73.0,83.0,0,2,576.0,2.0,0.0,73.0,c#'',83.0
1617,81872.0,Note Off,0,0.0,61.0,58.0,0,2,,,,,,
1618,81972.0,Note On,0,0.0,68.0,94.0,0,2,392.0,2.0,0.0,68.0,g#',94.0
1619,82096.0,Note Off,0,0.0,42.0,94.0,0,2,,,,,,
1620,82164.0,Note On,0,0.0,41.0,83.0,0,2,776.0,2.0,0.0,41.0,F,83.0
1621,82348.0,Note On,0,0.0,61.0,62.0,0,2,228.0,2.0,0.0,61.0,c#',62.0
1622,82356.0,Note Off,0,0.0,73.0,83.0,0,2,,,,,,
1623,82364.0,Note Off,0,0.0,68.0,94.0,0,2,56.0,11.0,9.0,42.0,F#,23.0
1624,82540.0,Note On,0,0.0,68.0,91.0,0,2,420.0,2.0,0.0,68.0,g#',91.0
1625,82576.0,Note Off,0,0.0,61.0,62.0,0,2,,,,,,
1626,82728.0,Note On,0,0.0,61.0,58.0,0,2,188.0,2.0,0.0,61.0,c#',58.0
1627,82916.0,Note Off,0,0.0,61.0,58.0,0,2,776.0,4.0,2.0,85.0,c#''',64.0
1628,82928.0,Note On,0,0.0,46.0,83.0,0,2,792.0,2.0,0.0,46.0,A#,83.0
1629,82940.0,Note Off,0,0.0,41.0,83.0,0,2,728.0,2.0,0.0,61.0,c#',86.0
1630,82940.0,Note Off,0,0.0,41.0,83.0,0,2,628.0,2.0,0.0,65.0,f',93.0
1631,82940.0,Note On,0,0.0,61.0,86.0,0,2,728.0,2.0,0.0,61.0,c#',86.0
1632,82940.0,Note On,0,0.0,61.0,86.0,0,2,628.0,2.0,0.0,65.0,f',93.0
1633,82940.0,Note On,0,0.0,65.0,93.0,0,2,728.0,2.0,0.0,61.0,c#',86.0
1634,82940.0,Note On,0,0.0,65.0,93.0,0,2,628.0,2.0,0.0,65.0,f',93.0
1635,82960.0,Note Off,0,0.0,68.0,91.0,0,2,,,,,,
1636,83516.0,Note On,0,0.0,56.0,74.0,0,2,208.0,2.0,0.0,56.0,g#,74.0
1637,83516.0,Note On,0,0.0,56.0,74.0,0,2,52.0,11.0,9.0,42.0,F#,31.0
1638,83568.0,Note Off,0,0.0,65.0,93.0,0,2,,,,,,
1639,83668.0,Note Off,0,0.0,61.0,86.0,0,2,,,,,,
1640,83708.0,Note On,0,0.0,39.0,92.0,0,2,580.0,2.0,0.0,39.0,D#,92.0
1641,83712.0,Note On,0,0.0,58.0,78.0,0,2,740.0,2.0,0.0,58.0,a#,78.0
1642,83712.0,Note On,0,0.0,58.0,78.0,0,2,792.0,2.0,0.0,63.0,d#',83.0
1643,83712.0,Note On,0,0.0,58.0,78.0,0,2,496.0,3.0,1.0,27.0,"D#,",82.0
1644,83712.0,Note On,0,0.0,58.0,78.0,0,2,180.0,11.0,9.0,38.0,D,73.0
1645,83712.0,Note On,0,0.0,58.0,78.0,0,2,112.0,11.0,9.0,42.0,F#,75.0
1646,83712.0,Note On,0,0.0,63.0,83.0,0,2,740.0,2.0,0.0,58.0,a#,78.0
1647,83712.0,Note On,0,0.0,63.0,83.0,0,2,792.0,2.0,0.0,63.0,d#',83.0
1648,83712.0,Note On,0,0.0,63.0,83.0,0,2,496.0,3.0,1.0,27.0,"D#,",82.0
1649,83712.0,Note On,0,0.0,63.0,83.0,0,2,180.0,11.0,9.0,38.0,D,73.0
1650,83712.0,Note On,0,0.0,63.0,83.0,0,2,112.0,11.0,9.0,42.0,F#,75.0
1651,83720.0,Note Off,0,0.0,46.0,83.0,0,2,,,,,,
1652,83724.0,Note Off,0,0.0,56.0,74.0,0,2,,,,,,
1653,84096.0,Note On,0,0.0,55.0,83.0,0,2,364.0,2.0,0.0,55.0,g,83.0
1654,84096.0,Note On,0,0.0,55.0,83.0,0,2,140.0,11.0,9.0,42.0,F#,72.0
1655,84288.0,Note Off,0,0.0,39.0,92.0,0,2,160.0,2.0,0.0,46.0,A#,82.0
1656,84288.0,Note Off,0,0.0,39.0,92.0,0,2,180.0,3.0,1.0,34.0,"A#,",64.0
1657,84288.0,Note Off,0,0.0,39.0,92.0,0,2,96.0,11.0,9.0,35.0,"B,",64.0
1658,84288.0,Note Off,0,0.0,39.0,92.0,0,2,52.0,11.0,9.0,42.0,F#,48.0
1659,84288.0,Note On,0,0.0,46.0,82.0,0,2,160.0,2.0,0.0,46.0,A#,82.0
1660,84288.0,Note On,0,0.0,46.0,82.0,0,2,180.0,3.0,1.0,34.0,"A#,",64.0
1661,84288.0,Note On,0,0.0,46.0,82.0,0,2,96.0,11.0,9.0,35.0,"B,",64.0
1662,84288.0,Note On,0,0.0,46.0,82.0,0,2,52.0,11.0,9.0,42.0,F#,48.0
1663,84448.0,Note Off,0,0.0,46.0,82.0,0,2,,,,,,
1664,84452.0,Note Off,0,0.0,58.0,78.0,0,2,1476.0,4.0,2.0,80.0,g#'',64.0
1665,84460.0,Note Off,0,0.0,55.0,83.0,0,2,,,,,,
1666,84472.0,Note On,0,0.0,61.0,91.0,0,2,748.0,2.0,0.0,44.0,G#,101.0
1667,84472.0,Note On,0,0.0,61.0,91.0,0,2,552.0,2.0,0.0,54.0,f#,70.0
1668,84472.0,Note On,0,0.0,61.0,91.0,0,2,212.0,2.0,0.0,61.0,c#',91.0
1669,84472.0,Note On,0,0.0,44.0,101.0,0,2,748.0,2.0,0.0,44.0,G#,101.0
1670,84472.0,Note On,0,0.0,44.0,101.0,0,2,552.0,2.0,0.0,54.0,f#,70.0
1671,84472.0,Note On,0,0.0,44.0,101.0,0,2,212.0,2.0,0.0,61.0,c#',91.0
1672,84472.0,Note On,0,0.0,54.0,70.0,0,2,748.0,2.0,0.0,44.0,G#,101.0
1673,84472.0,Note On,0,0.0,54.0,70.0,0,2,552.0,2.0,0.0,54.0,f#,70.0
1674,84472.0,Note On,0,0.0,54.0,70.0,0,2,212.0,2.0,0.0,61.0,c#',91.0
1675,84504.0,Note Off,0,0.0,63.0,83.0,0,2,,,,,,
1676,84660.0,Note On,0,0.0,56.0,74.0,0,2,332.0,2.0,0.0,56.0,g#,74.0
1677,84684.0,Note Off,0,0.0,61.0,91.0,0,2,,,,,,
1678,84848.0,Note On,0,0.0,63.0,72.0,0,2,172.0,2.0,0.0,63.0,d#',72.0
1679,84992.0,Note Off,0,0.0,56.0,74.0,0,2,,,,,,
1680,85020.0,Note Off,0,0.0,63.0,72.0,0,2,,,,,,
1681,85024.0,Note Off,0,0.0,54.0,70.0,0,2,,,,,,
1682,85044.0,Note On,0,0.0,65.0,74.0,0,2,152.0,2.0,0.0,65.0,f',74.0
1683,85048.0,Note On,0,0.0,56.0,74.0,0,2,168.0,2.0,0.0,56.0,g#,74.0
1684,85196.0,Note Off,0,0.0,65.0,74.0,0,2,,,,,,
1685,85216.0,Note Off,0,0.0,56.0,74.0,0,2,,,,,,
1686,85220.0,Note Off,0,0.0,44.0,101.0,0,2,,,,,,
1687,85240.0,Note On,0,0.0,66.0,89.0,0,2,364.0,2.0,0.0,66.0,f#',89.0
1688,85240.0,Note On,0,0.0,66.0,89.0,0,2,68.0,7.0,5.0,44.0,G#,40.0
1689,85244.0,Note On,0,0.0,58.0,98.0,0,2,344.0,2.0,0.0,58.0,a#,98.0
1690,85248.0,Note On,0,0.0,44.0,83.0,0,2,172.0,2.0,0.0,44.0,G#,83.0
1691,85248.0,Note On,0,0.0,44.0,83.0,0,2,148.0,3.0,1.0,32.0,"G#,",73.0
1692,85248.0,Note On,0,0.0,44.0,83.0,0,2,376.0,5.0,3.0,66.0,f#',87.0
1693,85248.0,Note On,0,0.0,44.0,83.0,0,2,188.0,11.0,9.0,38.0,D,81.0
1694,85248.0,Note On,0,0.0,44.0,83.0,0,2,96.0,11.0,9.0,54.0,f#,91.0
1695,85420.0,Note Off,0,0.0,44.0,83.0,0,2,,,,,,
1696,85424.0,Note On,0,0.0,46.0,70.0,0,2,160.0,2.0,0.0,46.0,A#,70.0
1697,85584.0,Note Off,0,0.0,46.0,70.0,0,2,,,,,,
1698,85588.0,Note Off,0,0.0,58.0,98.0,0,2,56.0,7.0,5.0,58.0,a#,40.0
1699,85604.0,Note Off,0,0.0,66.0,89.0,0,2,,,,,,
1700,85616.0,Note On,0,0.0,49.0,83.0,0,2,152.0,2.0,0.0,49.0,c#,83.0
1701,85628.0,Note On,0,0.0,61.0,92.0,0,2,352.0,2.0,0.0,61.0,c#',92.0
1702,85636.0,Note On,0,0.0,70.0,95.0,0,2,360.0,2.0,0.0,70.0,a#',95.0
1703,85768.0,Note Off,0,0.0,49.0,83.0,0,2,,,,,,
1704,85800.0,Note On,0,0.0,44.0,83.0,0,2,188.0,2.0,0.0,44.0,G#,83.0
1705,85980.0,Note Off,0,0.0,61.0,92.0,0,2,,,,,,
1706,85988.0,Note Off,0,0.0,44.0,83.0,0,2,,,,,,
1707,85996.0,Note Off,0,0.0,70.0,95.0,0,2,,,,,,
1708,86016.0,Note On,0,0.0,60.0,92.0,0,2,312.0,2.0,0.0,60.0,c',92.0
1709,86016.0,Note On,0,0.0,60.0,92.0,0,2,340.0,2.0,0.0,68.0,g#',95.0
1710,86016.0,Note On,0,0.0,60.0,92.0,0,2,1096.0,3.0,1.0,32.0,"G#,",82.0
1711,86016.0,Note On,0,0.0,60.0,92.0,0,2,96.0,11.0,9.0,35.0,"B,",82.0
1712,86016.0,Note On,0,0.0,60.0,92.0,0,2,700.0,11.0,9.0,49.0,c#,64.0
1713,86016.0,Note On,0,0.0,68.0,95.0,0,2,312.0,2.0,0.0,60.0,c',92.0
1714,86016.0,Note On,0,0.0,68.0,95.0,0,2,340.0,2.0,0.0,68.0,g#',95.0
1715,86016.0,Note On,0,0.0,68.0,95.0,0,2,1096.0,3.0,1.0,32.0,"G#,",82.0
1716,86016.0,Note On,0,0.0,68.0,95.0,0,2,96.0,11.0,9.0,35.0,"B,",82.0
1717,86016.0,Note On,0,0.0,68.0,95.0,0,2,700.0,11.0,9.0,49.0,c#,64.0
1718,86020.0,Note On,0,0.0,44.0,95.0,0,2,1116.0,2.0,0.0,44.0,G#,95.0
1719,86020.0,Note On,0,0.0,44.0,95.0,0,2,3812.0,4.0,2.0,92.0,g#''',57.0
1720,86328.0,Note Off,0,0.0,60.0,92.0,0,2,,,,,,
1721,86356.0,Note Off,0,0.0,68.0,95.0,0,2,,,,,,
1722,86400.0,Note On,0,0.0,60.0,66.0,0,2,192.0,2.0,0.0,60.0,c',66.0
1723,86400.0,Note On,0,0.0,60.0,66.0,0,2,120.0,11.0,9.0,42.0,F#,69.0
1724,86404.0,Note On,0,0.0,63.0,66.0,0,2,196.0,2.0,0.0,63.0,d#',66.0
1725,86580.0,Note On,0,0.0,56.0,70.0,0,2,144.0,2.0,0.0,56.0,g#,70.0
1726,86592.0,Note Off,0,0.0,60.0,66.0,0,2,,,,,,
1727,86600.0,Note Off,0,0.0,63.0,66.0,0,2,,,,,,
1728,86724.0,Note Off,0,0.0,56.0,70.0,0,2,,,,,,
1729,86784.0,Note On,0,0.0,60.0,92.0,0,2,360.0,2.0,0.0,60.0,c',92.0
1730,86784.0,Note On,0,0.0,60.0,92.0,0,2,240.0,11.0,9.0,38.0,D,73.0
1731,86784.0,Note On,0,0.0,60.0,92.0,0,2,112.0,11.0,9.0,42.0,F#,75.0
1732,86788.0,Note On,0,0.0,63.0,83.0,0,2,356.0,2.0,0.0,63.0,d#',83.0
1733,87136.0,Note Off,0,0.0,44.0,95.0,0,2,,,,,,
1734,87144.0,Note Off,0,0.0,63.0,83.0,0,2,,,,,,
1735,87144.0,Note Off,0,0.0,60.0,92.0,0,2,,,,,,
1736,87156.0,Note On,0,0.0,63.0,92.0,0,2,380.0,2.0,0.0,63.0,d#',92.0
1737,87160.0,Note On,0,0.0,44.0,83.0,0,2,176.0,2.0,0.0,44.0,G#,83.0
1738,87160.0,Note On,0,0.0,44.0,83.0,0,2,376.0,2.0,0.0,66.0,f#',74.0
1739,87160.0,Note On,0,0.0,66.0,74.0,0,2,176.0,2.0,0.0,44.0,G#,83.0
1740,87160.0,Note On,0,0.0,66.0,74.0,0,2,376.0,2.0,0.0,66.0,f#',74.0
1741,87336.0,Note Off,0,0.0,44.0,83.0,0,2,,,,,,
1742,87356.0,Note On,0,0.0,56.0,66.0,0,2,164.0,2.0,0.0,56.0,g#,66.0
1743,87360.0,Note On,0,0.0,48.0,83.0,0,2,176.0,2.0,0.0,48.0,c,83.0
1744,87360.0,Note On,0,0.0,48.0,83.0,0,2,164.0,3.0,1.0,36.0,C,81.0
1745,87360.0,Note On,0,0.0,48.0,83.0,0,2,96.0,11.0,9.0,35.0,"B,",64.0
1746,87360.0,Note On,0,0.0,48.0,83.0,0,2,52.0,11.0,9.0,42.0,F#,48.0
1747,87520.0,Note Off,0,0.0,56.0,66.0,0,2,,,,,,
1748,87536.0,Note Off,0,0.0,48.0,83.0,0,2,,,,,,
1749,87536.0,Note Off,0,0.0,66.0,74.0,0,2,,,,,,
1750,87536.0,Note Off,0,0.0,63.0,92.0,0,2,,,,,,
1751,87540.0,Note On,0,0.0,65.0,92.0,0,2,332.0,2.0,0.0,65.0,f',92.0
1752,87544.0,Note On,0,0.0,49.0,92.0,0,2,520.0,2.0,0.0,49.0,c#,92.0
1753,87544.0,Note On,0,0.0,49.0,92.0,0,2,560.0,2.0,0.0,61.0,c#',83.0
1754,87544.0,Note On,0,0.0,61.0,83.0,0,2,520.0,2.0,0.0,49.0,c#,92.0
1755,87544.0,Note On,0,0.0,61.0,83.0,0,2,560.0,2.0,0.0,61.0,c#',83.0
1756,87728.0,Note On,0,0.0,56.0,62.0,0,2,572.0,2.0,0.0,56.0,g#,62.0
1757,87872.0,Note Off,0,0.0,65.0,92.0,0,2,,,,,,
1758,87924.0,Note On,0,0.0,65.0,83.0,0,2,392.0,2.0,0.0,65.0,f',83.0
1759,88064.0,Note Off,0,0.0,49.0,92.0,0,2,,,,,,
1760,88104.0,Note Off,0,0.0,61.0,83.0,0,2,,,,,,
1761,88112.0,Note On,0,0.0,61.0,66.0,0,2,176.0,2.0,0.0,61.0,c#',66.0
1762,88116.0,Note On,0,0.0,68.0,74.0,0,2,568.0,2.0,0.0,68.0,g#',74.0
1763,88116.0,Note On,0,0.0,68.0,74.0,0,2,168.0,5.0,3.0,65.0,f',73.0
1764,88124.0,Note On,0,0.0,49.0,92.0,0,2,912.0,2.0,0.0,49.0,c#,92.0
1765,88124.0,Note On,0,0.0,49.0,92.0,0,2,52.0,11.0,9.0,42.0,F#,31.0
1766,88288.0,Note Off,0,0.0,61.0,66.0,0,2,,,,,,
1767,88300.0,Note Off,0,0.0,56.0,62.0,0,2,,,,,,
1768,88308.0,Note On,0,0.0,61.0,83.0,0,2,336.0,2.0,0.0,61.0,c#',83.0
1769,88308.0,Note On,0,0.0,61.0,83.0,0,2,368.0,2.0,0.0,73.0,c#'',94.0
1770,88308.0,Note On,0,0.0,73.0,94.0,0,2,336.0,2.0,0.0,61.0,c#',83.0
1771,88308.0,Note On,0,0.0,73.0,94.0,0,2,368.0,2.0,0.0,73.0,c#'',94.0
1772,88316.0,Note Off,0,0.0,65.0,83.0,0,2,356.0,5.0,3.0,66.0,f#',82.0
1773,88644.0,Note Off,0,0.0,61.0,83.0,0,2,,,,,,
1774,88676.0,Note Off,0,0.0,73.0,94.0,0,2,,,,,,
1775,88684.0,Note Off,0,0.0,68.0,74.0,0,2,,,,,,
1776,88700.0,Note On,0,0.0,61.0,74.0,0,2,400.0,2.0,0.0,61.0,c#',74.0
1777,88700.0,Note On,0,0.0,61.0,74.0,0,2,380.0,2.0,0.0,70.0,a#',92.0
1778,88700.0,Note On,0,0.0,70.0,92.0,0,2,400.0,2.0,0.0,61.0,c#',74.0
1779,88700.0,Note On,0,0.0,70.0,92.0,0,2,380.0,2.0,0.0,70.0,a#',92.0
1780,89036.0,Note Off,0,0.0,49.0,92.0,0,2,,,,,,
1781,89080.0,Note Off,0,0.0,70.0,92.0,0,2,,,,,,
1782,89084.0,Note On,0,0.0,68.0,98.0,0,2,216.0,2.0,0.0,60.0,c',83.0
1783,89084.0,Note On,0,0.0,68.0,98.0,0,2,392.0,2.0,0.0,68.0,g#',98.0
1784,89084.0,Note On,0,0.0,60.0,83.0,0,2,216.0,2.0,0.0,60.0,c',83.0
1785,89084.0,Note On,0,0.0,60.0,83.0,0,2,392.0,2.0,0.0,68.0,g#',98.0
1786,89088.0,Note On,0,0.0,48.0,91.0,0,2,536.0,2.0,0.0,48.0,c,91.0
1787,89088.0,Note On,0,0.0,48.0,91.0,0,2,736.0,3.0,1.0,36.0,C,82.0
1788,89088.0,Note On,0,0.0,48.0,91.0,0,2,96.0,11.0,9.0,35.0,"B,",82.0
1789,89088.0,Note On,0,0.0,48.0,91.0,0,2,108.0,11.0,9.0,42.0,F#,72.0
1790,89100.0,Note Off,0,0.0,61.0,74.0,0,2,,,,,,
1791,89272.0,Note On,0,0.0,56.0,66.0,0,2,180.0,2.0,0.0,56.0,g#,66.0
1792,89300.0,Note Off,0,0.0,60.0,83.0,0,2,,,,,,
1793,89452.0,Note Off,0,0.0,56.0,66.0,0,2,160.0,2.0,0.0,63.0,d#',74.0
1794,89452.0,Note On,0,0.0,63.0,74.0,0,2,160.0,2.0,0.0,63.0,d#',74.0
1795,89476.0,Note Off,0,0.0,68.0,98.0,0,2,,,,,,
1796,89612.0,Note Off,0,0.0,63.0,74.0,0,2,,,,,,
1797,89624.0,Note Off,0,0.0,48.0,91.0,0,2,,,,,,
1798,89656.0,Note On,0,0.0,63.0,92.0,0,2,388.0,2.0,0.0,63.0,d#',92.0
1799,89656.0,Note On,0,0.0,63.0,92.0,0,2,380.0,2.0,0.0,66.0,f#',91.0
1800,89656.0,Note On,0,0.0,63.0,92.0,0,2,576.0,5.0,3.0,66.0,f#',73.0
1801,89656.0,Note On,0,0.0,66.0,91.0,0,2,388.0,2.0,0.0,63.0,d#',92.0
1802,89656.0,Note On,0,0.0,66.0,91.0,0,2,380.0,2.0,0.0,66.0,f#',91.0
1803,89656.0,Note On,0,0.0,66.0,91.0,0,2,576.0,5.0,3.0,66.0,f#',73.0
1804,89660.0,Note On,0,0.0,48.0,80.0,0,2,164.0,2.0,0.0,48.0,c,80.0
1805,89660.0,Note On,0,0.0,48.0,80.0,0,2,52.0,11.0,9.0,42.0,F#,31.0
1806,89824.0,Note Off,0,0.0,48.0,80.0,0,2,440.0,4.0,2.0,78.0,f#'',52.0
1807,89856.0,Note On,0,0.0,45.0,101.0,0,2,528.0,2.0,0.0,45.0,A,101.0
1808,89856.0,Note On,0,0.0,45.0,101.0,0,2,468.0,3.0,1.0,33.0,"A,",82.0
1809,89856.0,Note On,0,0.0,45.0,101.0,0,2,240.0,11.0,9.0,38.0,D,73.0
1810,89856.0,Note On,0,0.0,45.0,101.0,0,2,112.0,11.0,9.0,42.0,F#,75.0
1811,90036.0,Note Off,0,0.0,66.0,91.0,0,2,,,,,,
1812,90044.0,Note Off,0,0.0,63.0,92.0,0,2,556.0,2.0,0.0,65.0,f',70.0
1813,90044.0,Note Off,0,0.0,63.0,92.0,0,2,56.0,11.0,9.0,42.0,F#,23.0
1814,90044.0,Note On,0,0.0,65.0,70.0,0,2,556.0,2.0,0.0,65.0,f',70.0
1815,90044.0,Note On,0,0.0,65.0,70.0,0,2,56.0,11.0,9.0,42.0,F#,23.0
1816,90232.0,Note On,0,0.0,57.0,66.0,0,2,380.0,2.0,0.0,57.0,a,66.0
1817,90384.0,Note Off,0,0.0,45.0,101.0,0,2,,,,,,
1818,90420.0,Note On,0,0.0,60.0,74.0,0,2,180.0,2.0,0.0,45.0,A,58.0
1819,90420.0,Note On,0,0.0,60.0,74.0,0,2,184.0,2.0,0.0,60.0,c',74.0
1820,90420.0,Note On,0,0.0,45.0,58.0,0,2,180.0,2.0,0.0,45.0,A,58.0
1821,90420.0,Note On,0,0.0,45.0,58.0,0,2,184.0,2.0,0.0,60.0,c',74.0
1822,90600.0,Note Off,0,0.0,45.0,58.0,0,2,,,,,,
1823,90600.0,Note Off,0,0.0,65.0,70.0,0,2,,,,,,
1824,90604.0,Note Off,0,0.0,60.0,74.0,0,2,,,,,,
1825,90608.0,Note On,0,0.0,46.0,92.0,0,2,776.0,2.0,0.0,46.0,A#,92.0
1826,90612.0,Note Off,0,0.0,57.0,66.0,0,2,704.0,2.0,0.0,53.0,f,74.0
1827,90612.0,Note On,0,0.0,53.0,74.0,0,2,704.0,2.0,0.0,53.0,f,74.0
1828,90808.0,Note On,0,0.0,60.0,70.0,0,2,516.0,2.0,0.0,60.0,c',70.0
1829,90992.0,Note On,0,0.0,61.0,74.0,0,2,348.0,2.0,0.0,61.0,c#',74.0
1830,91316.0,Note Off,0,0.0,53.0,74.0,0,2,,,,,,
1831,91324.0,Note Off,0,0.0,60.0,70.0,0,2,,,,,,
1832,91340.0,Note Off,0,0.0,61.0,74.0,0,2,,,,,,
1833,91376.0,Note On,0,0.0,44.0,92.0,0,2,780.0,2.0,0.0,44.0,G#,92.0
1834,91376.0,Note On,0,0.0,44.0,92.0,0,2,236.0,2.0,0.0,61.0,c#',70.0
1835,91376.0,Note On,0,0.0,61.0,70.0,0,2,780.0,2.0,0.0,44.0,G#,92.0
1836,91376.0,Note On,0,0.0,61.0,70.0,0,2,236.0,2.0,0.0,61.0,c#',70.0
1837,91380.0,Note On,0,0.0,65.0,101.0,0,2,280.0,2.0,0.0,65.0,f',101.0
1838,91384.0,Note Off,0,0.0,46.0,92.0,0,2,,,,,,
1839,91612.0,Note Off,0,0.0,61.0,70.0,0,2,,,,,,
1840,91644.0,Note On,0,0.0,63.0,74.0,0,2,212.0,2.0,0.0,63.0,d#',74.0
1841,91644.0,Note On,0,0.0,63.0,74.0,0,2,308.0,2.0,0.0,66.0,f#',92.0
1842,91644.0,Note On,0,0.0,66.0,92.0,0,2,212.0,2.0,0.0,63.0,d#',74.0
1843,91644.0,Note On,0,0.0,66.0,92.0,0,2,308.0,2.0,0.0,66.0,f#',92.0
1844,91660.0,Note Off,0,0.0,65.0,101.0,0,2,,,,,,
1845,91856.0,Note Off,0,0.0,63.0,74.0,0,2,,,,,,
1846,91896.0,Note On,0,0.0,65.0,83.0,0,2,220.0,2.0,0.0,65.0,f',83.0
1847,91900.0,Note On,0,0.0,68.0,97.0,0,2,260.0,2.0,0.0,68.0,g#',97.0
1848,91900.0,Note On,0,0.0,68.0,97.0,0,2,200.0,5.0,3.0,68.0,g#',73.0
1849,91952.0,Note Off,0,0.0,66.0,92.0,0,2,,,,,,
1850,92116.0,Note Off,0,0.0,65.0,83.0,0,2,,,,,,
1851,92152.0,Note On,0,0.0,42.0,91.0,0,2,740.0,2.0,0.0,42.0,F#,91.0
1852,92156.0,Note Off,0,0.0,44.0,92.0,0,2,200.0,2.0,0.0,63.0,d#',92.0
1853,92156.0,Note Off,0,0.0,44.0,92.0,0,2,772.0,2.0,0.0,72.0,c'',99.0
1854,92156.0,Note On,0,0.0,63.0,92.0,0,2,200.0,2.0,0.0,63.0,d#',92.0
1855,92156.0,Note On,0,0.0,63.0,92.0,0,2,772.0,2.0,0.0,72.0,c'',99.0
1856,92156.0,Note On,0,0.0,72.0,99.0,0,2,200.0,2.0,0.0,63.0,d#',92.0
1857,92156.0,Note On,0,0.0,72.0,99.0,0,2,772.0,2.0,0.0,72.0,c'',99.0
1858,92160.0,Note Off,0,0.0,68.0,97.0,0,2,732.0,3.0,1.0,30.0,"F#,",82.0
1859,92160.0,Note Off,0,0.0,68.0,97.0,0,2,96.0,11.0,9.0,35.0,"B,",82.0
1860,92160.0,Note Off,0,0.0,68.0,97.0,0,2,108.0,11.0,9.0,42.0,F#,72.0
1861,92340.0,Note On,0,0.0,70.0,85.0,0,2,204.0,2.0,0.0,70.0,a#',85.0
1862,92356.0,Note Off,0,0.0,63.0,92.0,0,2,,,,,,
1863,92528.0,Note On,0,0.0,63.0,76.0,0,2,400.0,2.0,0.0,63.0,d#',76.0
1864,92528.0,Note On,0,0.0,63.0,76.0,0,2,168.0,5.0,3.0,70.0,a#',64.0
1865,92544.0,Note Off,0,0.0,70.0,85.0,0,2,120.0,11.0,9.0,42.0,F#,69.0
1866,92724.0,Note On,0,0.0,68.0,74.0,0,2,180.0,2.0,0.0,68.0,g#',74.0
1867,92892.0,Note Off,0,0.0,42.0,91.0,0,2,,,,,,
1868,92904.0,Note Off,0,0.0,68.0,74.0,0,2,,,,,,
1869,92920.0,Note On,0,0.0,41.0,92.0,0,2,724.0,2.0,0.0,41.0,F,92.0
1870,92920.0,Note On,0,0.0,41.0,92.0,0,2,208.0,2.0,0.0,61.0,c#',91.0
1871,92920.0,Note On,0,0.0,41.0,92.0,0,2,412.0,2.0,0.0,68.0,g#',97.0
1872,92920.0,Note On,0,0.0,61.0,91.0,0,2,724.0,2.0,0.0,41.0,F,92.0
1873,92920.0,Note On,0,0.0,61.0,91.0,0,2,208.0,2.0,0.0,61.0,c#',91.0
1874,92920.0,Note On,0,0.0,61.0,91.0,0,2,412.0,2.0,0.0,68.0,g#',97.0
1875,92920.0,Note On,0,0.0,68.0,97.0,0,2,724.0,2.0,0.0,41.0,F,92.0
1876,92920.0,Note On,0,0.0,68.0,97.0,0,2,208.0,2.0,0.0,61.0,c#',91.0
1877,92920.0,Note On,0,0.0,68.0,97.0,0,2,412.0,2.0,0.0,68.0,g#',97.0
1878,92928.0,Note Off,0,0.0,63.0,76.0,0,2,532.0,3.0,1.0,29.0,"F,",82.0
1879,92928.0,Note Off,0,0.0,63.0,76.0,0,2,240.0,11.0,9.0,38.0,D,73.0
1880,92928.0,Note Off,0,0.0,63.0,76.0,0,2,112.0,11.0,9.0,42.0,F#,75.0
1881,92928.0,Note Off,0,0.0,72.0,99.0,0,2,532.0,3.0,1.0,29.0,"F,",82.0
1882,92928.0,Note Off,0,0.0,72.0,99.0,0,2,240.0,11.0,9.0,38.0,D,73.0
1883,92928.0,Note Off,0,0.0,72.0,99.0,0,2,112.0,11.0,9.0,42.0,F#,75.0
1884,93120.0,Note On,0,0.0,60.0,68.0,0,2,520.0,2.0,0.0,60.0,c',68.0
1885,93128.0,Note Off,0,0.0,61.0,91.0,0,2,,,,,,
1886,93304.0,Note On,0,0.0,61.0,74.0,0,2,372.0,2.0,0.0,61.0,c#',74.0
1887,93332.0,Note Off,0,0.0,68.0,97.0,0,2,,,,,,
1888,93496.0,Note On,0,0.0,68.0,83.0,0,2,184.0,2.0,0.0,68.0,g#',83.0
1889,93640.0,Note Off,0,0.0,60.0,68.0,0,2,,,,,,
1890,93644.0,Note Off,0,0.0,41.0,92.0,0,2,,,,,,
1891,93676.0,Note Off,0,0.0,61.0,74.0,0,2,,,,,,
1892,93680.0,Note Off,0,0.0,68.0,83.0,0,2,,,,,,
1893,93692.0,Note On,0,0.0,42.0,94.0,0,2,692.0,2.0,0.0,42.0,F#,94.0
1894,93692.0,Note On,0,0.0,42.0,94.0,0,2,340.0,5.0,3.0,72.0,c'',82.0
1895,93696.0,Note On,0,0.0,68.0,83.0,0,2,328.0,2.0,0.0,68.0,g#',83.0
1896,93696.0,Note On,0,0.0,68.0,83.0,0,2,300.0,2.0,0.0,72.0,c'',96.0
1897,93696.0,Note On,0,0.0,68.0,83.0,0,2,568.0,3.0,1.0,30.0,"F#,",82.0
1898,93696.0,Note On,0,0.0,68.0,83.0,0,2,96.0,11.0,9.0,35.0,"B,",82.0
1899,93696.0,Note On,0,0.0,68.0,83.0,0,2,108.0,11.0,9.0,42.0,F#,72.0
1900,93696.0,Note On,0,0.0,72.0,96.0,0,2,328.0,2.0,0.0,68.0,g#',83.0
1901,93696.0,Note On,0,0.0,72.0,96.0,0,2,300.0,2.0,0.0,72.0,c'',96.0
1902,93696.0,Note On,0,0.0,72.0,96.0,0,2,568.0,3.0,1.0,30.0,"F#,",82.0
1903,93696.0,Note On,0,0.0,72.0,96.0,0,2,96.0,11.0,9.0,35.0,"B,",82.0
1904,93696.0,Note On,0,0.0,72.0,96.0,0,2,108.0,11.0,9.0,42.0,F#,72.0
1905,93884.0,Note On,0,0.0,61.0,58.0,0,2,636.0,2.0,0.0,61.0,c#',58.0
1906,93884.0,Note On,0,0.0,61.0,58.0,0,2,44.0,11.0,9.0,42.0,F#,23.0
1907,93996.0,Note Off,0,0.0,72.0,96.0,0,2,,,,,,
1908,94024.0,Note Off,0,0.0,68.0,83.0,0,2,,,,,,
1909,94068.0,Note On,0,0.0,73.0,83.0,0,2,1120.0,2.0,0.0,73.0,c#'',83.0
1910,94260.0,Note On,0,0.0,68.0,94.0,0,2,892.0,2.0,0.0,68.0,g#',94.0
1911,94384.0,Note Off,0,0.0,42.0,94.0,0,2,,,,,,
1912,94452.0,Note On,0,0.0,41.0,83.0,0,2,776.0,2.0,0.0,41.0,F,83.0
1913,94520.0,Note Off,0,0.0,61.0,58.0,0,2,,,,,,
1914,94636.0,Note On,0,0.0,61.0,76.0,0,2,548.0,2.0,0.0,61.0,c#',76.0
1915,95152.0,Note Off,0,0.0,68.0,94.0,0,2,,,,,,
1916,95184.0,Note Off,0,0.0,61.0,76.0,0,2,,,,,,
1917,95188.0,Note Off,0,0.0,73.0,83.0,0,2,,,,,,
1918,95216.0,Note On,0,0.0,46.0,83.0,0,2,792.0,2.0,0.0,46.0,A#,83.0
1919,95216.0,Note On,0,0.0,46.0,83.0,0,2,776.0,4.0,2.0,73.0,c#'',52.0
1920,95216.0,Note On,0,0.0,46.0,83.0,0,2,352.0,5.0,3.0,65.0,f',73.0
1921,95228.0,Note Off,0,0.0,41.0,83.0,0,2,728.0,2.0,0.0,61.0,c#',86.0
1922,95228.0,Note Off,0,0.0,41.0,83.0,0,2,628.0,2.0,0.0,65.0,f',93.0
1923,95228.0,Note On,0,0.0,61.0,86.0,0,2,728.0,2.0,0.0,61.0,c#',86.0
1924,95228.0,Note On,0,0.0,61.0,86.0,0,2,628.0,2.0,0.0,65.0,f',93.0
1925,95228.0,Note On,0,0.0,65.0,93.0,0,2,728.0,2.0,0.0,61.0,c#',86.0
1926,95228.0,Note On,0,0.0,65.0,93.0,0,2,628.0,2.0,0.0,65.0,f',93.0
1927,95804.0,Note On,0,0.0,56.0,74.0,0,2,208.0,2.0,0.0,56.0,g#,74.0
1928,95804.0,Note On,0,0.0,56.0,74.0,0,2,52.0,11.0,9.0,42.0,F#,31.0
1929,95856.0,Note Off,0,0.0,65.0,93.0,0,2,,,,,,
1930,95956.0,Note Off,0,0.0,61.0,86.0,0,2,,,,,,
1931,95996.0,Note On,0,0.0,39.0,92.0,0,2,756.0,2.0,0.0,39.0,D#,92.0
1932,95996.0,Note On,0,0.0,39.0,92.0,0,2,368.0,5.0,3.0,61.0,c#',60.0
1933,96000.0,Note On,0,0.0,63.0,83.0,0,2,792.0,2.0,0.0,63.0,d#',83.0
1934,96000.0,Note On,0,0.0,63.0,83.0,0,2,516.0,3.0,1.0,27.0,"D#,",82.0
1935,96000.0,Note On,0,0.0,63.0,83.0,0,2,240.0,11.0,9.0,38.0,D,73.0
1936,96000.0,Note On,0,0.0,63.0,83.0,0,2,112.0,11.0,9.0,42.0,F#,75.0
1937,96004.0,Note On,0,0.0,58.0,92.0,0,2,708.0,2.0,0.0,58.0,a#,92.0
1938,96008.0,Note Off,0,0.0,46.0,83.0,0,2,,,,,,
1939,96012.0,Note Off,0,0.0,56.0,74.0,0,2,,,,,,
1940,96384.0,Note On,0,0.0,55.0,83.0,0,2,364.0,2.0,0.0,55.0,g,83.0
1941,96384.0,Note On,0,0.0,55.0,83.0,0,2,140.0,11.0,9.0,42.0,F#,72.0
1942,96712.0,Note Off,0,0.0,58.0,92.0,0,2,,,,,,
1943,96748.0,Note Off,0,0.0,55.0,83.0,0,2,,,,,,
1944,96752.0,Note Off,0,0.0,39.0,92.0,0,2,,,,,,
1945,96760.0,Note On,0,0.0,66.0,92.0,0,2,748.0,2.0,0.0,47.0,B,97.0
1946,96760.0,Note On,0,0.0,66.0,92.0,0,2,716.0,2.0,0.0,58.0,a#,101.0
1947,96760.0,Note On,0,0.0,66.0,92.0,0,2,416.0,2.0,0.0,66.0,f#',92.0
1948,96760.0,Note On,0,0.0,47.0,97.0,0,2,748.0,2.0,0.0,47.0,B,97.0
1949,96760.0,Note On,0,0.0,47.0,97.0,0,2,716.0,2.0,0.0,58.0,a#,101.0
1950,96760.0,Note On,0,0.0,47.0,97.0,0,2,416.0,2.0,0.0,66.0,f#',92.0
1951,96760.0,Note On,0,0.0,58.0,101.0,0,2,748.0,2.0,0.0,47.0,B,97.0
1952,96760.0,Note On,0,0.0,58.0,101.0,0,2,716.0,2.0,0.0,58.0,a#,101.0
1953,96760.0,Note On,0,0.0,58.0,101.0,0,2,416.0,2.0,0.0,66.0,f#',92.0
1954,96792.0,Note Off,0,0.0,63.0,83.0,0,2,,,,,,
1955,97144.0,Note On,0,0.0,65.0,83.0,0,2,376.0,2.0,0.0,65.0,f',83.0
1956,97176.0,Note Off,0,0.0,66.0,92.0,0,2,,,,,,
1957,97476.0,Note Off,0,0.0,58.0,101.0,0,2,,,,,,
1958,97508.0,Note Off,0,0.0,47.0,97.0,0,2,,,,,,
1959,97520.0,Note Off,0,0.0,65.0,83.0,0,2,408.0,4.0,2.0,87.0,d#''',73.0
1960,97520.0,Note Off,0,0.0,65.0,83.0,0,2,68.0,7.0,5.0,68.0,g#',73.0
1961,97528.0,Note On,0,0.0,54.0,87.0,0,2,772.0,2.0,0.0,54.0,f#,87.0
1962,97528.0,Note On,0,0.0,54.0,87.0,0,2,428.0,2.0,0.0,63.0,d#',99.0
1963,97528.0,Note On,0,0.0,54.0,87.0,0,2,400.0,4.0,2.0,75.0,d#'',56.0
1964,97528.0,Note On,0,0.0,63.0,99.0,0,2,772.0,2.0,0.0,54.0,f#,87.0
1965,97528.0,Note On,0,0.0,63.0,99.0,0,2,428.0,2.0,0.0,63.0,d#',99.0
1966,97528.0,Note On,0,0.0,63.0,99.0,0,2,400.0,4.0,2.0,75.0,d#'',56.0
1967,97536.0,Note On,0,0.0,44.0,97.0,0,2,748.0,2.0,0.0,44.0,G#,97.0
1968,97536.0,Note On,0,0.0,44.0,97.0,0,2,344.0,3.0,1.0,32.0,"G#,",82.0
1969,97536.0,Note On,0,0.0,44.0,97.0,0,2,96.0,11.0,9.0,35.0,"B,",82.0
1970,97536.0,Note On,0,0.0,44.0,97.0,0,2,112.0,11.0,9.0,42.0,F#,75.0
1971,97536.0,Note On,0,0.0,44.0,97.0,0,2,96.0,11.0,9.0,54.0,f#,91.0
1972,97716.0,Note On,0,0.0,61.0,74.0,0,2,588.0,2.0,0.0,61.0,c#',74.0
1973,97912.0,Note On,0,0.0,56.0,83.0,0,2,376.0,2.0,0.0,56.0,g#,83.0
1974,97956.0,Note Off,0,0.0,63.0,99.0,0,2,,,,,,
1975,98108.0,Note On,0,0.0,63.0,92.0,0,2,200.0,2.0,0.0,63.0,d#',92.0
1976,98284.0,Note Off,0,0.0,44.0,97.0,0,2,,,,,,
1977,98288.0,Note Off,0,0.0,56.0,83.0,0,2,652.0,4.0,2.0,85.0,c#''',78.0
1978,98296.0,Note On,0,0.0,69.0,88.0,0,2,1264.0,2.0,0.0,69.0,a',88.0
1979,98300.0,Note Off,0,0.0,54.0,87.0,0,2,780.0,5.0,3.0,61.0,c#',82.0
1980,98304.0,Note Off,0,0.0,61.0,74.0,0,2,1436.0,2.0,0.0,45.0,A,92.0
1981,98304.0,Note Off,0,0.0,61.0,74.0,0,2,492.0,2.0,0.0,52.0,e,83.0
1982,98304.0,Note Off,0,0.0,61.0,74.0,0,2,1304.0,3.0,1.0,33.0,"A,",82.0
1983,98304.0,Note Off,0,0.0,61.0,74.0,0,2,764.0,4.0,2.0,64.0,e',52.0
1984,98304.0,Note Off,0,0.0,61.0,74.0,0,2,400.0,6.0,4.0,61.0,c#',91.0
1985,98304.0,Note Off,0,0.0,61.0,74.0,0,2,96.0,11.0,9.0,35.0,"B,",82.0
1986,98304.0,Note Off,0,0.0,61.0,74.0,0,2,700.0,11.0,9.0,49.0,c#,64.0
1987,98304.0,Note On,0,0.0,45.0,92.0,0,2,1436.0,2.0,0.0,45.0,A,92.0
1988,98304.0,Note On,0,0.0,45.0,92.0,0,2,492.0,2.0,0.0,52.0,e,83.0
1989,98304.0,Note On,0,0.0,45.0,92.0,0,2,1304.0,3.0,1.0,33.0,"A,",82.0
1990,98304.0,Note On,0,0.0,45.0,92.0,0,2,764.0,4.0,2.0,64.0,e',52.0
1991,98304.0,Note On,0,0.0,45.0,92.0,0,2,400.0,6.0,4.0,61.0,c#',91.0
1992,98304.0,Note On,0,0.0,45.0,92.0,0,2,96.0,11.0,9.0,35.0,"B,",82.0
1993,98304.0,Note On,0,0.0,45.0,92.0,0,2,700.0,11.0,9.0,49.0,c#,64.0
1994,98304.0,Note On,0,0.0,52.0,83.0,0,2,1436.0,2.0,0.0,45.0,A,92.0
1995,98304.0,Note On,0,0.0,52.0,83.0,0,2,492.0,2.0,0.0,52.0,e,83.0
1996,98304.0,Note On,0,0.0,52.0,83.0,0,2,1304.0,3.0,1.0,33.0,"A,",82.0
1997,98304.0,Note On,0,0.0,52.0,83.0,0,2,764.0,4.0,2.0,64.0,e',52.0
1998,98304.0,Note On,0,0.0,52.0,83.0,0,2,400.0,6.0,4.0,61.0,c#',91.0
1999,98304.0,Note On,0,0.0,52.0,83.0,0,2,96.0,11.0,9.0,35.0,"B,",82.0
2000,98304.0,Note On,0,0.0,52.0,83.0,0,2,700.0,11.0,9.0,49.0,c#,64.0
2001,98308.0,Note Off,0,0.0,63.0,92.0,0,2,768.0,4.0,2.0,73.0,c#'',52.0
2002,98312.0,Note On,0,0.0,61.0,92.0,0,2,536.0,2.0,0.0,61.0,c#',92.0
2003,98312.0,Note On,0,0.0,61.0,92.0,0,2,2980.0,4.0,2.0,69.0,a',44.0
2004,98796.0,Note Off,0,0.0,52.0,83.0,0,2,,,,,,
2005,98848.0,Note Off,0,0.0,61.0,92.0,0,2,,,,,,
2006,98868.0,Note On,0,0.0,62.0,83.0,0,2,356.0,2.0,0.0,62.0,d',83.0
2007,98868.0,Note On,0,0.0,62.0,83.0,0,2,372.0,6.0,4.0,62.0,d',93.0
2008,98872.0,Note On,0,0.0,54.0,92.0,0,2,536.0,2.0,0.0,54.0,f#,92.0
2009,99224.0,Note Off,0,0.0,62.0,83.0,0,2,,,,,,
2010,99252.0,Note On,0,0.0,61.0,79.0,0,2,1736.0,2.0,0.0,61.0,c#',79.0
2011,99408.0,Note Off,0,0.0,54.0,92.0,0,2,,,,,,
2012,99440.0,Note On,0,0.0,57.0,79.0,0,2,216.0,2.0,0.0,57.0,a,79.0
2013,99560.0,Note Off,0,0.0,69.0,88.0,0,2,,,,,,
2014,99628.0,Note On,0,0.0,52.0,85.0,0,2,1700.0,2.0,0.0,52.0,e,85.0
2015,99656.0,Note Off,0,0.0,57.0,79.0,0,2,,,,,,
2016,99740.0,Note Off,0,0.0,45.0,92.0,0,2,,,,,,
2017,99832.0,Note On,0,0.0,45.0,87.0,0,2,1504.0,2.0,0.0,45.0,A,87.0
2018,100420.0,Note On,0,0.0,64.0,62.0,0,2,264.0,2.0,0.0,64.0,e',62.0
2019,100604.0,Note On,0,0.0,73.0,92.0,0,2,360.0,2.0,0.0,73.0,c#'',92.0
2020,100684.0,Note Off,0,0.0,64.0,62.0,0,2,,,,,,
2021,100804.0,Note On,0,0.0,62.0,66.0,0,2,256.0,2.0,0.0,62.0,d',66.0
2022,100964.0,Note Off,0,0.0,73.0,92.0,0,2,,,,,,
2023,100988.0,Note Off,0,0.0,61.0,79.0,0,2,,,,,,
2024,100996.0,Note On,0,0.0,71.0,92.0,0,2,408.0,2.0,0.0,71.0,b',92.0
2025,101060.0,Note Off,0,0.0,62.0,66.0,0,2,,,,,,
2026,101184.0,Note On,0,0.0,61.0,66.0,0,2,184.0,2.0,0.0,61.0,c#',66.0
2027,101184.0,Note On,0,0.0,61.0,66.0,0,2,352.0,11.0,9.0,81.0,a'',52.0
2028,101328.0,Note Off,0,0.0,52.0,85.0,0,2,,,,,,
2029,101336.0,Note Off,0,0.0,45.0,87.0,0,2,772.0,4.0,2.0,64.0,e',60.0
2030,101336.0,Note Off,0,0.0,45.0,87.0,0,2,796.0,4.0,2.0,73.0,c#'',60.0
2031,101368.0,Note Off,0,0.0,61.0,66.0,0,2,,,,,,
2032,101372.0,Note On,0,0.0,64.0,62.0,0,2,588.0,2.0,0.0,64.0,e',62.0
2033,101372.0,Note On,0,0.0,64.0,62.0,0,2,760.0,9.0,7.0,81.0,a'',81.0
2034,101376.0,Note On,0,0.0,45.0,92.0,0,2,716.0,2.0,0.0,45.0,A,92.0
2035,101376.0,Note On,0,0.0,45.0,92.0,0,2,492.0,2.0,0.0,52.0,e,83.0
2036,101376.0,Note On,0,0.0,45.0,92.0,0,2,536.0,2.0,0.0,61.0,c#',92.0
2037,101376.0,Note On,0,0.0,45.0,92.0,0,2,732.0,3.0,1.0,33.0,"A,",82.0
2038,101376.0,Note On,0,0.0,45.0,92.0,0,2,96.0,11.0,9.0,35.0,"B,",82.0
2039,101376.0,Note On,0,0.0,45.0,92.0,0,2,108.0,11.0,9.0,42.0,F#,72.0
2040,101376.0,Note On,0,0.0,52.0,83.0,0,2,716.0,2.0,0.0,45.0,A,92.0
2041,101376.0,Note On,0,0.0,52.0,83.0,0,2,492.0,2.0,0.0,52.0,e,83.0
2042,101376.0,Note On,0,0.0,52.0,83.0,0,2,536.0,2.0,0.0,61.0,c#',92.0
2043,101376.0,Note On,0,0.0,52.0,83.0,0,2,732.0,3.0,1.0,33.0,"A,",82.0
2044,101376.0,Note On,0,0.0,52.0,83.0,0,2,96.0,11.0,9.0,35.0,"B,",82.0
2045,101376.0,Note On,0,0.0,52.0,83.0,0,2,108.0,11.0,9.0,42.0,F#,72.0
2046,101376.0,Note On,0,0.0,61.0,92.0,0,2,716.0,2.0,0.0,45.0,A,92.0
2047,101376.0,Note On,0,0.0,61.0,92.0,0,2,492.0,2.0,0.0,52.0,e,83.0
2048,101376.0,Note On,0,0.0,61.0,92.0,0,2,536.0,2.0,0.0,61.0,c#',92.0
2049,101376.0,Note On,0,0.0,61.0,92.0,0,2,732.0,3.0,1.0,33.0,"A,",82.0
2050,101376.0,Note On,0,0.0,61.0,92.0,0,2,96.0,11.0,9.0,35.0,"B,",82.0
2051,101376.0,Note On,0,0.0,61.0,92.0,0,2,108.0,11.0,9.0,42.0,F#,72.0
2052,101404.0,Note Off,0,0.0,71.0,92.0,0,2,,,,,,
2053,101868.0,Note Off,0,0.0,52.0,83.0,0,2,,,,,,
2054,101912.0,Note Off,0,0.0,61.0,92.0,0,2,,,,,,
2055,101948.0,Note On,0,0.0,57.0,63.0,0,2,384.0,2.0,0.0,54.0,f#,92.0
2056,101948.0,Note On,0,0.0,57.0,63.0,0,2,384.0,2.0,0.0,57.0,a,63.0
2057,101948.0,Note On,0,0.0,57.0,63.0,0,2,376.0,2.0,0.0,62.0,d',83.0
2058,101948.0,Note On,0,0.0,57.0,63.0,0,2,52.0,11.0,9.0,42.0,F#,31.0
2059,101948.0,Note On,0,0.0,62.0,83.0,0,2,384.0,2.0,0.0,54.0,f#,92.0
2060,101948.0,Note On,0,0.0,62.0,83.0,0,2,384.0,2.0,0.0,57.0,a,63.0
2061,101948.0,Note On,0,0.0,62.0,83.0,0,2,376.0,2.0,0.0,62.0,d',83.0
2062,101948.0,Note On,0,0.0,62.0,83.0,0,2,52.0,11.0,9.0,42.0,F#,31.0
2063,101948.0,Note On,0,0.0,54.0,92.0,0,2,384.0,2.0,0.0,54.0,f#,92.0
2064,101948.0,Note On,0,0.0,54.0,92.0,0,2,384.0,2.0,0.0,57.0,a,63.0
2065,101948.0,Note On,0,0.0,54.0,92.0,0,2,376.0,2.0,0.0,62.0,d',83.0
2066,101948.0,Note On,0,0.0,54.0,92.0,0,2,52.0,11.0,9.0,42.0,F#,31.0
2067,101960.0,Note Off,0,0.0,64.0,62.0,0,2,,,,,,
2068,102092.0,Note Off,0,0.0,45.0,92.0,0,2,,,,,,
2069,102144.0,Note On,0,0.0,42.0,92.0,0,2,560.0,2.0,0.0,42.0,F#,92.0
2070,102144.0,Note On,0,0.0,42.0,92.0,0,2,572.0,3.0,1.0,30.0,"F#,",82.0
2071,102144.0,Note On,0,0.0,42.0,92.0,0,2,240.0,11.0,9.0,38.0,D,73.0
2072,102144.0,Note On,0,0.0,42.0,92.0,0,2,112.0,11.0,9.0,42.0,F#,75.0
2073,102324.0,Note Off,0,0.0,62.0,83.0,0,2,,,,,,
2074,102332.0,Note Off,0,0.0,54.0,92.0,0,2,524.0,2.0,0.0,61.0,c#',82.0
2075,102332.0,Note Off,0,0.0,54.0,92.0,0,2,72.0,6.0,4.0,59.0,b,75.0
2076,102332.0,Note Off,0,0.0,54.0,92.0,0,2,200.0,9.0,7.0,73.0,c#'',64.0
2077,102332.0,Note Off,0,0.0,54.0,92.0,0,2,56.0,11.0,9.0,42.0,F#,23.0
2078,102332.0,Note Off,0,0.0,57.0,63.0,0,2,524.0,2.0,0.0,61.0,c#',82.0
2079,102332.0,Note Off,0,0.0,57.0,63.0,0,2,72.0,6.0,4.0,59.0,b,75.0
2080,102332.0,Note Off,0,0.0,57.0,63.0,0,2,200.0,9.0,7.0,73.0,c#'',64.0
2081,102332.0,Note Off,0,0.0,57.0,63.0,0,2,56.0,11.0,9.0,42.0,F#,23.0
2082,102332.0,Note On,0,0.0,61.0,82.0,0,2,524.0,2.0,0.0,61.0,c#',82.0
2083,102332.0,Note On,0,0.0,61.0,82.0,0,2,72.0,6.0,4.0,59.0,b,75.0
2084,102332.0,Note On,0,0.0,61.0,82.0,0,2,200.0,9.0,7.0,73.0,c#'',64.0
2085,102332.0,Note On,0,0.0,61.0,82.0,0,2,56.0,11.0,9.0,42.0,F#,23.0
2086,102524.0,Note On,0,0.0,57.0,82.0,0,2,388.0,2.0,0.0,57.0,a,82.0
2087,102524.0,Note On,0,0.0,57.0,82.0,0,2,188.0,9.0,7.0,76.0,e'',69.0
2088,102704.0,Note Off,0,0.0,42.0,92.0,0,2,,,,,,
2089,102708.0,Note On,0,0.0,45.0,74.0,0,2,192.0,2.0,0.0,45.0,A,74.0
2090,102708.0,Note On,0,0.0,45.0,74.0,0,2,208.0,2.0,0.0,52.0,e,68.0
2091,102708.0,Note On,0,0.0,52.0,68.0,0,2,192.0,2.0,0.0,45.0,A,74.0
2092,102708.0,Note On,0,0.0,52.0,68.0,0,2,208.0,2.0,0.0,52.0,e,68.0
2093,102856.0,Note Off,0,0.0,61.0,82.0,0,2,,,,,,
2094,102900.0,Note Off,0,0.0,45.0,74.0,0,2,,,,,,
2095,102904.0,Note On,0,0.0,41.0,92.0,0,2,1152.0,2.0,0.0,41.0,F,92.0
2096,102904.0,Note On,0,0.0,41.0,92.0,0,2,756.0,2.0,0.0,53.0,f,70.0
2097,102904.0,Note On,0,0.0,41.0,92.0,0,2,608.0,2.0,0.0,62.0,d',83.0
2098,102904.0,Note On,0,0.0,41.0,92.0,0,2,2276.0,4.0,2.0,62.0,d',56.0
2099,102904.0,Note On,0,0.0,41.0,92.0,0,2,380.0,4.0,2.0,71.0,b',64.0
2100,102904.0,Note On,0,0.0,53.0,70.0,0,2,1152.0,2.0,0.0,41.0,F,92.0
2101,102904.0,Note On,0,0.0,53.0,70.0,0,2,756.0,2.0,0.0,53.0,f,70.0
2102,102904.0,Note On,0,0.0,53.0,70.0,0,2,608.0,2.0,0.0,62.0,d',83.0
2103,102904.0,Note On,0,0.0,53.0,70.0,0,2,2276.0,4.0,2.0,62.0,d',56.0
2104,102904.0,Note On,0,0.0,53.0,70.0,0,2,380.0,4.0,2.0,71.0,b',64.0
2105,102904.0,Note On,0,0.0,62.0,83.0,0,2,1152.0,2.0,0.0,41.0,F,92.0
2106,102904.0,Note On,0,0.0,62.0,83.0,0,2,756.0,2.0,0.0,53.0,f,70.0
2107,102904.0,Note On,0,0.0,62.0,83.0,0,2,608.0,2.0,0.0,62.0,d',83.0
2108,102904.0,Note On,0,0.0,62.0,83.0,0,2,2276.0,4.0,2.0,62.0,d',56.0
2109,102904.0,Note On,0,0.0,62.0,83.0,0,2,380.0,4.0,2.0,71.0,b',64.0
2110,102912.0,Note Off,0,0.0,57.0,82.0,0,2,1120.0,3.0,1.0,29.0,"F,",82.0
2111,102912.0,Note Off,0,0.0,57.0,82.0,0,2,1560.0,4.0,2.0,53.0,f,56.0
2112,102912.0,Note Off,0,0.0,57.0,82.0,0,2,376.0,6.0,4.0,69.0,a',100.0
2113,102912.0,Note Off,0,0.0,57.0,82.0,0,2,388.0,9.0,7.0,83.0,b'',73.0
2114,102912.0,Note Off,0,0.0,57.0,82.0,0,2,96.0,11.0,9.0,35.0,"B,",82.0
2115,102912.0,Note Off,0,0.0,57.0,82.0,0,2,108.0,11.0,9.0,42.0,F#,72.0
2116,102916.0,Note Off,0,0.0,52.0,68.0,0,2,,,,,,
2117,103104.0,Note On,0,0.0,50.0,79.0,0,2,536.0,2.0,0.0,50.0,d,79.0
2118,103292.0,Note On,0,0.0,57.0,70.0,0,2,408.0,2.0,0.0,57.0,a,70.0
2119,103292.0,Note On,0,0.0,57.0,70.0,0,2,168.0,9.0,7.0,81.0,a'',64.0
2120,103480.0,Note On,0,0.0,59.0,83.0,0,2,168.0,2.0,0.0,59.0,b,83.0
2121,103480.0,Note On,0,0.0,59.0,83.0,0,2,548.0,6.0,4.0,69.0,a',95.0
2122,103512.0,Note Off,0,0.0,62.0,83.0,0,2,,,,,,
2123,103640.0,Note Off,0,0.0,50.0,79.0,0,2,,,,,,
2124,103648.0,Note Off,0,0.0,59.0,83.0,0,2,,,,,,
2125,103660.0,Note Off,0,0.0,53.0,70.0,0,2,,,,,,
2126,103672.0,Note On,0,0.0,59.0,66.0,0,2,376.0,2.0,0.0,59.0,b,66.0
2127,103672.0,Note On,0,0.0,59.0,66.0,0,2,352.0,2.0,0.0,62.0,d',88.0
2128,103672.0,Note On,0,0.0,62.0,88.0,0,2,376.0,2.0,0.0,59.0,b,66.0
2129,103672.0,Note On,0,0.0,62.0,88.0,0,2,352.0,2.0,0.0,62.0,d',88.0
2130,103700.0,Note Off,0,0.0,57.0,70.0,0,2,,,,,,
2131,103868.0,Note On,0,0.0,53.0,74.0,0,2,196.0,2.0,0.0,53.0,f,74.0
2132,104024.0,Note Off,0,0.0,62.0,88.0,0,2,,,,,,
2133,104048.0,Note Off,0,0.0,59.0,66.0,0,2,,,,,,
2134,104056.0,Note Off,0,0.0,41.0,92.0,0,2,,,,,,
2135,104064.0,Note Off,0,0.0,53.0,74.0,0,2,360.0,2.0,0.0,40.0,E,92.0
2136,104064.0,Note Off,0,0.0,53.0,74.0,0,2,356.0,2.0,0.0,56.0,g#,92.0
2137,104064.0,Note Off,0,0.0,53.0,74.0,0,2,344.0,2.0,0.0,62.0,d',83.0
2138,104064.0,Note Off,0,0.0,53.0,74.0,0,2,352.0,3.0,1.0,28.0,"E,",82.0
2139,104064.0,Note Off,0,0.0,53.0,74.0,0,2,396.0,9.0,7.0,80.0,g#'',72.0
2140,104064.0,Note Off,0,0.0,53.0,74.0,0,2,196.0,11.0,9.0,43.0,G,82.0
2141,104064.0,Note Off,0,0.0,53.0,74.0,0,2,60.0,11.0,9.0,80.0,g#'',36.0
2142,104064.0,Note On,0,0.0,40.0,92.0,0,2,360.0,2.0,0.0,40.0,E,92.0
2143,104064.0,Note On,0,0.0,40.0,92.0,0,2,356.0,2.0,0.0,56.0,g#,92.0
2144,104064.0,Note On,0,0.0,40.0,92.0,0,2,344.0,2.0,0.0,62.0,d',83.0
2145,104064.0,Note On,0,0.0,40.0,92.0,0,2,352.0,3.0,1.0,28.0,"E,",82.0
2146,104064.0,Note On,0,0.0,40.0,92.0,0,2,396.0,9.0,7.0,80.0,g#'',72.0
2147,104064.0,Note On,0,0.0,40.0,92.0,0,2,196.0,11.0,9.0,43.0,G,82.0
2148,104064.0,Note On,0,0.0,40.0,92.0,0,2,60.0,11.0,9.0,80.0,g#'',36.0
2149,104064.0,Note On,0,0.0,56.0,92.0,0,2,360.0,2.0,0.0,40.0,E,92.0
2150,104064.0,Note On,0,0.0,56.0,92.0,0,2,356.0,2.0,0.0,56.0,g#,92.0
2151,104064.0,Note On,0,0.0,56.0,92.0,0,2,344.0,2.0,0.0,62.0,d',83.0
2152,104064.0,Note On,0,0.0,56.0,92.0,0,2,352.0,3.0,1.0,28.0,"E,",82.0
2153,104064.0,Note On,0,0.0,56.0,92.0,0,2,396.0,9.0,7.0,80.0,g#'',72.0
2154,104064.0,Note On,0,0.0,56.0,92.0,0,2,196.0,11.0,9.0,43.0,G,82.0
2155,104064.0,Note On,0,0.0,56.0,92.0,0,2,60.0,11.0,9.0,80.0,g#'',36.0
2156,104064.0,Note On,0,0.0,62.0,83.0,0,2,360.0,2.0,0.0,40.0,E,92.0
2157,104064.0,Note On,0,0.0,62.0,83.0,0,2,356.0,2.0,0.0,56.0,g#,92.0
2158,104064.0,Note On,0,0.0,62.0,83.0,0,2,344.0,2.0,0.0,62.0,d',83.0
2159,104064.0,Note On,0,0.0,62.0,83.0,0,2,352.0,3.0,1.0,28.0,"E,",82.0
2160,104064.0,Note On,0,0.0,62.0,83.0,0,2,396.0,9.0,7.0,80.0,g#'',72.0
2161,104064.0,Note On,0,0.0,62.0,83.0,0,2,196.0,11.0,9.0,43.0,G,82.0
2162,104064.0,Note On,0,0.0,62.0,83.0,0,2,60.0,11.0,9.0,80.0,g#'',36.0
2163,104408.0,Note Off,0,0.0,62.0,83.0,0,2,,,,,,
2164,104420.0,Note Off,0,0.0,56.0,92.0,0,2,,,,,,
2165,104424.0,Note Off,0,0.0,40.0,92.0,0,2,,,,,,
2166,104448.0,Note On,0,0.0,38.0,92.0,0,2,712.0,2.0,0.0,38.0,D,92.0
2167,104448.0,Note On,0,0.0,38.0,92.0,0,2,732.0,2.0,0.0,59.0,b,88.0
2168,104448.0,Note On,0,0.0,38.0,92.0,0,2,724.0,3.0,1.0,26.0,"D,",82.0
2169,104448.0,Note On,0,0.0,38.0,92.0,0,2,412.0,6.0,4.0,66.0,f#',90.0
2170,104448.0,Note On,0,0.0,38.0,92.0,0,2,96.0,11.0,9.0,35.0,"B,",82.0
2171,104448.0,Note On,0,0.0,38.0,92.0,0,2,700.0,11.0,9.0,49.0,c#,64.0
2172,104448.0,Note On,0,0.0,59.0,88.0,0,2,712.0,2.0,0.0,38.0,D,92.0
2173,104448.0,Note On,0,0.0,59.0,88.0,0,2,732.0,2.0,0.0,59.0,b,88.0
2174,104448.0,Note On,0,0.0,59.0,88.0,0,2,724.0,3.0,1.0,26.0,"D,",82.0
2175,104448.0,Note On,0,0.0,59.0,88.0,0,2,412.0,6.0,4.0,66.0,f#',90.0
2176,104448.0,Note On,0,0.0,59.0,88.0,0,2,96.0,11.0,9.0,35.0,"B,",82.0
2177,104448.0,Note On,0,0.0,59.0,88.0,0,2,700.0,11.0,9.0,49.0,c#,64.0
2178,104452.0,Note On,0,0.0,54.0,70.0,0,2,488.0,2.0,0.0,54.0,f#,70.0
2179,104452.0,Note On,0,0.0,54.0,70.0,0,2,768.0,4.0,2.0,66.0,f#',64.0
2180,104940.0,Note Off,0,0.0,54.0,70.0,0,2,,,,,,
2181,105028.0,Note On,0,0.0,54.0,66.0,0,2,176.0,2.0,0.0,54.0,f#,66.0
2182,105160.0,Note Off,0,0.0,38.0,92.0,0,2,,,,,,
2183,105180.0,Note Off,0,0.0,59.0,88.0,0,2,,,,,,
2184,105204.0,Note Off,0,0.0,54.0,66.0,0,2,596.0,6.0,4.0,65.0,f',87.0
2185,105216.0,Note On,0,0.0,37.0,92.0,0,2,756.0,2.0,0.0,37.0,C#,92.0
2186,105216.0,Note On,0,0.0,37.0,92.0,0,2,732.0,2.0,0.0,61.0,c#',96.0
2187,105216.0,Note On,0,0.0,37.0,92.0,0,2,748.0,3.0,1.0,25.0,"C#,",82.0
2188,105216.0,Note On,0,0.0,37.0,92.0,0,2,756.0,4.0,2.0,65.0,f',64.0
2189,105216.0,Note On,0,0.0,37.0,92.0,0,2,240.0,11.0,9.0,38.0,D,73.0
2190,105216.0,Note On,0,0.0,37.0,92.0,0,2,112.0,11.0,9.0,42.0,F#,75.0
2191,105216.0,Note On,0,0.0,61.0,96.0,0,2,756.0,2.0,0.0,37.0,C#,92.0
2192,105216.0,Note On,0,0.0,61.0,96.0,0,2,732.0,2.0,0.0,61.0,c#',96.0
2193,105216.0,Note On,0,0.0,61.0,96.0,0,2,748.0,3.0,1.0,25.0,"C#,",82.0
2194,105216.0,Note On,0,0.0,61.0,96.0,0,2,756.0,4.0,2.0,65.0,f',64.0
2195,105216.0,Note On,0,0.0,61.0,96.0,0,2,240.0,11.0,9.0,38.0,D,73.0
2196,105216.0,Note On,0,0.0,61.0,96.0,0,2,112.0,11.0,9.0,42.0,F#,75.0
2197,105400.0,Note On,0,0.0,56.0,58.0,0,2,580.0,2.0,0.0,56.0,g#,58.0
2198,105600.0,Note On,0,0.0,53.0,83.0,0,2,368.0,2.0,0.0,53.0,f,83.0
2199,105600.0,Note On,0,0.0,53.0,83.0,0,2,140.0,11.0,9.0,42.0,F#,72.0
2200,105600.0,Note On,0,0.0,53.0,83.0,0,2,60.0,11.0,9.0,80.0,g#'',36.0
2201,105948.0,Note Off,0,0.0,61.0,96.0,0,2,,,,,,
2202,105968.0,Note Off,0,0.0,53.0,83.0,0,2,,,,,,
2203,105972.0,Note Off,0,0.0,37.0,92.0,0,2,,,,,,
2204,105980.0,Note Off,0,0.0,56.0,58.0,0,2,676.0,2.0,0.0,61.0,c#',82.0
2205,105980.0,Note On,0,0.0,61.0,82.0,0,2,676.0,2.0,0.0,61.0,c#',82.0
2206,105984.0,Note On,0,0.0,59.0,74.0,0,2,168.0,2.0,0.0,59.0,b,74.0
2207,105984.0,Note On,0,0.0,59.0,74.0,0,2,548.0,3.0,1.0,30.0,"F#,",82.0
2208,105984.0,Note On,0,0.0,59.0,74.0,0,2,96.0,11.0,9.0,35.0,"B,",82.0
2209,105984.0,Note On,0,0.0,59.0,74.0,0,2,108.0,11.0,9.0,42.0,F#,72.0
2210,105988.0,Note On,0,0.0,42.0,92.0,0,2,712.0,2.0,0.0,42.0,F#,92.0
2211,105988.0,Note On,0,0.0,42.0,92.0,0,2,676.0,2.0,0.0,54.0,f#,74.0
2212,105988.0,Note On,0,0.0,54.0,74.0,0,2,712.0,2.0,0.0,42.0,F#,92.0
2213,105988.0,Note On,0,0.0,54.0,74.0,0,2,676.0,2.0,0.0,54.0,f#,74.0
2214,106148.0,Note On,0,0.0,57.0,58.0,0,2,556.0,2.0,0.0,57.0,a,58.0
2215,106152.0,Note Off,0,0.0,59.0,74.0,0,2,232.0,4.0,2.0,66.0,f#',64.0
2216,106656.0,Note Off,0,0.0,61.0,82.0,0,2,,,,,,
2217,106664.0,Note Off,0,0.0,54.0,74.0,0,2,,,,,,
2218,106700.0,Note Off,0,0.0,42.0,92.0,0,2,,,,,,
2219,106704.0,Note Off,0,0.0,57.0,58.0,0,2,,,,,,
2220,106736.0,Note On,0,0.0,57.0,70.0,0,2,756.0,2.0,0.0,57.0,a,70.0
2221,106736.0,Note On,0,0.0,57.0,70.0,0,2,760.0,2.0,0.0,61.0,c#',74.0
2222,106736.0,Note On,0,0.0,57.0,70.0,0,2,404.0,4.0,2.0,69.0,a',72.0
2223,106736.0,Note On,0,0.0,61.0,74.0,0,2,756.0,2.0,0.0,57.0,a,70.0
2224,106736.0,Note On,0,0.0,61.0,74.0,0,2,760.0,2.0,0.0,61.0,c#',74.0
2225,106736.0,Note On,0,0.0,61.0,74.0,0,2,404.0,4.0,2.0,69.0,a',72.0
2226,106740.0,Note On,0,0.0,64.0,83.0,0,2,776.0,2.0,0.0,40.0,E,91.0
2227,106740.0,Note On,0,0.0,64.0,83.0,0,2,756.0,2.0,0.0,64.0,e',83.0
2228,106740.0,Note On,0,0.0,64.0,83.0,0,2,760.0,2.0,0.0,66.0,f#',83.0
2229,106740.0,Note On,0,0.0,66.0,83.0,0,2,776.0,2.0,0.0,40.0,E,91.0
2230,106740.0,Note On,0,0.0,66.0,83.0,0,2,756.0,2.0,0.0,64.0,e',83.0
2231,106740.0,Note On,0,0.0,66.0,83.0,0,2,760.0,2.0,0.0,66.0,f#',83.0
2232,106740.0,Note On,0,0.0,40.0,91.0,0,2,776.0,2.0,0.0,40.0,E,91.0
2233,106740.0,Note On,0,0.0,40.0,91.0,0,2,756.0,2.0,0.0,64.0,e',83.0
2234,106740.0,Note On,0,0.0,40.0,91.0,0,2,760.0,2.0,0.0,66.0,f#',83.0
2235,107492.0,Note Off,0,0.0,57.0,70.0,0,2,,,,,,
2236,107496.0,Note Off,0,0.0,64.0,83.0,0,2,1560.0,4.0,2.0,62.0,d',56.0
2237,107496.0,Note Off,0,0.0,61.0,74.0,0,2,1560.0,4.0,2.0,62.0,d',56.0
2238,107500.0,Note Off,0,0.0,66.0,83.0,0,2,,,,,,
2239,107516.0,Note Off,0,0.0,40.0,91.0,0,2,,,,,,
2240,107520.0,Note On,0,0.0,62.0,101.0,0,2,740.0,2.0,0.0,62.0,d',101.0
2241,107520.0,Note On,0,0.0,62.0,101.0,0,2,536.0,3.0,1.0,33.0,"A,",82.0
2242,107520.0,Note On,0,0.0,62.0,101.0,0,2,1552.0,4.0,2.0,74.0,d'',52.0
2243,107520.0,Note On,0,0.0,62.0,101.0,0,2,1548.0,9.0,7.0,81.0,a'',82.0
2244,107520.0,Note On,0,0.0,62.0,101.0,0,2,96.0,11.0,9.0,35.0,"B,",82.0
2245,107520.0,Note On,0,0.0,62.0,101.0,0,2,108.0,11.0,9.0,42.0,F#,72.0
2246,107524.0,Note On,0,0.0,45.0,83.0,0,2,748.0,2.0,0.0,45.0,A,83.0
2247,107524.0,Note On,0,0.0,45.0,83.0,0,2,748.0,2.0,0.0,55.0,g,83.0
2248,107524.0,Note On,0,0.0,45.0,83.0,0,2,740.0,2.0,0.0,59.0,b,92.0
2249,107524.0,Note On,0,0.0,45.0,83.0,0,2,752.0,2.0,0.0,66.0,f#',70.0
2250,107524.0,Note On,0,0.0,45.0,83.0,0,2,752.0,2.0,0.0,69.0,a',74.0
2251,107524.0,Note On,0,0.0,55.0,83.0,0,2,748.0,2.0,0.0,45.0,A,83.0
2252,107524.0,Note On,0,0.0,55.0,83.0,0,2,748.0,2.0,0.0,55.0,g,83.0
2253,107524.0,Note On,0,0.0,55.0,83.0,0,2,740.0,2.0,0.0,59.0,b,92.0
2254,107524.0,Note On,0,0.0,55.0,83.0,0,2,752.0,2.0,0.0,66.0,f#',70.0
2255,107524.0,Note On,0,0.0,55.0,83.0,0,2,752.0,2.0,0.0,69.0,a',74.0
2256,107524.0,Note On,0,0.0,59.0,92.0,0,2,748.0,2.0,0.0,45.0,A,83.0
2257,107524.0,Note On,0,0.0,59.0,92.0,0,2,748.0,2.0,0.0,55.0,g,83.0
2258,107524.0,Note On,0,0.0,59.0,92.0,0,2,740.0,2.0,0.0,59.0,b,92.0
2259,107524.0,Note On,0,0.0,59.0,92.0,0,2,752.0,2.0,0.0,66.0,f#',70.0
2260,107524.0,Note On,0,0.0,59.0,92.0,0,2,752.0,2.0,0.0,69.0,a',74.0
2261,107524.0,Note On,0,0.0,66.0,70.0,0,2,748.0,2.0,0.0,45.0,A,83.0
2262,107524.0,Note On,0,0.0,66.0,70.0,0,2,748.0,2.0,0.0,55.0,g,83.0
2263,107524.0,Note On,0,0.0,66.0,70.0,0,2,740.0,2.0,0.0,59.0,b,92.0
2264,107524.0,Note On,0,0.0,66.0,70.0,0,2,752.0,2.0,0.0,66.0,f#',70.0
2265,107524.0,Note On,0,0.0,66.0,70.0,0,2,752.0,2.0,0.0,69.0,a',74.0
2266,107524.0,Note On,0,0.0,69.0,74.0,0,2,748.0,2.0,0.0,45.0,A,83.0
2267,107524.0,Note On,0,0.0,69.0,74.0,0,2,748.0,2.0,0.0,55.0,g,83.0
2268,107524.0,Note On,0,0.0,69.0,74.0,0,2,740.0,2.0,0.0,59.0,b,92.0
2269,107524.0,Note On,0,0.0,69.0,74.0,0,2,752.0,2.0,0.0,66.0,f#',70.0
2270,107524.0,Note On,0,0.0,69.0,74.0,0,2,752.0,2.0,0.0,69.0,a',74.0
2271,108260.0,Note Off,0,0.0,62.0,101.0,0,2,,,,,,
2272,108264.0,Note Off,0,0.0,59.0,92.0,0,2,,,,,,
2273,108272.0,Note Off,0,0.0,55.0,83.0,0,2,,,,,,
2274,108272.0,Note Off,0,0.0,45.0,83.0,0,2,,,,,,
2275,108276.0,Note Off,0,0.0,69.0,74.0,0,2,,,,,,
2276,108276.0,Note Off,0,0.0,66.0,70.0,0,2,,,,,,
2277,108288.0,Note On,0,0.0,45.0,62.0,0,2,692.0,2.0,0.0,45.0,A,62.0
2278,108288.0,Note On,0,0.0,45.0,62.0,0,2,708.0,2.0,0.0,59.0,b,58.0
2279,108288.0,Note On,0,0.0,45.0,62.0,0,2,716.0,2.0,0.0,62.0,d',101.0
2280,108288.0,Note On,0,0.0,45.0,62.0,0,2,720.0,2.0,0.0,66.0,f#',92.0
2281,108288.0,Note On,0,0.0,45.0,62.0,0,2,336.0,3.0,1.0,33.0,"A,",83.0
2282,108288.0,Note On,0,0.0,45.0,62.0,0,2,112.0,6.0,4.0,81.0,a'',84.0
2283,108288.0,Note On,0,0.0,45.0,62.0,0,2,240.0,11.0,9.0,38.0,D,73.0
2284,108288.0,Note On,0,0.0,45.0,62.0,0,2,112.0,11.0,9.0,42.0,F#,75.0
2285,108288.0,Note On,0,0.0,59.0,58.0,0,2,692.0,2.0,0.0,45.0,A,62.0
2286,108288.0,Note On,0,0.0,59.0,58.0,0,2,708.0,2.0,0.0,59.0,b,58.0
2287,108288.0,Note On,0,0.0,59.0,58.0,0,2,716.0,2.0,0.0,62.0,d',101.0
2288,108288.0,Note On,0,0.0,59.0,58.0,0,2,720.0,2.0,0.0,66.0,f#',92.0
2289,108288.0,Note On,0,0.0,59.0,58.0,0,2,336.0,3.0,1.0,33.0,"A,",83.0
2290,108288.0,Note On,0,0.0,59.0,58.0,0,2,112.0,6.0,4.0,81.0,a'',84.0
2291,108288.0,Note On,0,0.0,59.0,58.0,0,2,240.0,11.0,9.0,38.0,D,73.0
2292,108288.0,Note On,0,0.0,59.0,58.0,0,2,112.0,11.0,9.0,42.0,F#,75.0
2293,108288.0,Note On,0,0.0,62.0,101.0,0,2,692.0,2.0,0.0,45.0,A,62.0
2294,108288.0,Note On,0,0.0,62.0,101.0,0,2,708.0,2.0,0.0,59.0,b,58.0
2295,108288.0,Note On,0,0.0,62.0,101.0,0,2,716.0,2.0,0.0,62.0,d',101.0
2296,108288.0,Note On,0,0.0,62.0,101.0,0,2,720.0,2.0,0.0,66.0,f#',92.0
2297,108288.0,Note On,0,0.0,62.0,101.0,0,2,336.0,3.0,1.0,33.0,"A,",83.0
2298,108288.0,Note On,0,0.0,62.0,101.0,0,2,112.0,6.0,4.0,81.0,a'',84.0
2299,108288.0,Note On,0,0.0,62.0,101.0,0,2,240.0,11.0,9.0,38.0,D,73.0
2300,108288.0,Note On,0,0.0,62.0,101.0,0,2,112.0,11.0,9.0,42.0,F#,75.0
2301,108288.0,Note On,0,0.0,66.0,92.0,0,2,692.0,2.0,0.0,45.0,A,62.0
2302,108288.0,Note On,0,0.0,66.0,92.0,0,2,708.0,2.0,0.0,59.0,b,58.0
2303,108288.0,Note On,0,0.0,66.0,92.0,0,2,716.0,2.0,0.0,62.0,d',101.0
2304,108288.0,Note On,0,0.0,66.0,92.0,0,2,720.0,2.0,0.0,66.0,f#',92.0
2305,108288.0,Note On,0,0.0,66.0,92.0,0,2,336.0,3.0,1.0,33.0,"A,",83.0
2306,108288.0,Note On,0,0.0,66.0,92.0,0,2,112.0,6.0,4.0,81.0,a'',84.0
2307,108288.0,Note On,0,0.0,66.0,92.0,0,2,240.0,11.0,9.0,38.0,D,73.0
2308,108288.0,Note On,0,0.0,66.0,92.0,0,2,112.0,11.0,9.0,42.0,F#,75.0
2309,108292.0,Note On,0,0.0,55.0,70.0,0,2,684.0,2.0,0.0,55.0,g,70.0
2310,108292.0,Note On,0,0.0,55.0,70.0,0,2,708.0,2.0,0.0,69.0,a',83.0
2311,108292.0,Note On,0,0.0,69.0,83.0,0,2,684.0,2.0,0.0,55.0,g,70.0
2312,108292.0,Note On,0,0.0,69.0,83.0,0,2,708.0,2.0,0.0,69.0,a',83.0
2313,108976.0,Note Off,0,0.0,55.0,70.0,0,2,,,,,,
2314,108980.0,Note Off,0,0.0,45.0,62.0,0,2,,,,,,
2315,108996.0,Note Off,0,0.0,59.0,58.0,0,2,,,,,,
2316,109000.0,Note Off,0,0.0,69.0,83.0,0,2,,,,,,
2317,109004.0,Note Off,0,0.0,62.0,101.0,0,2,,,,,,
2318,109008.0,Note Off,0,0.0,66.0,92.0,0,2,,,,,,
2319,109040.0,Note On,0,0.0,45.0,83.0,0,2,108.0,2.0,0.0,45.0,A,83.0
2320,109044.0,Note On,0,0.0,59.0,101.0,0,2,116.0,2.0,0.0,59.0,b,101.0
2321,109044.0,Note On,0,0.0,59.0,101.0,0,2,120.0,2.0,0.0,62.0,d',101.0
2322,109044.0,Note On,0,0.0,59.0,101.0,0,2,124.0,2.0,0.0,64.0,e',92.0
2323,109044.0,Note On,0,0.0,59.0,101.0,0,2,112.0,2.0,0.0,69.0,a',62.0
2324,109044.0,Note On,0,0.0,59.0,101.0,0,2,16.0,11.0,9.0,38.0,D,55.0
2325,109044.0,Note On,0,0.0,62.0,101.0,0,2,116.0,2.0,0.0,59.0,b,101.0
2326,109044.0,Note On,0,0.0,62.0,101.0,0,2,120.0,2.0,0.0,62.0,d',101.0
2327,109044.0,Note On,0,0.0,62.0,101.0,0,2,124.0,2.0,0.0,64.0,e',92.0
2328,109044.0,Note On,0,0.0,62.0,101.0,0,2,112.0,2.0,0.0,69.0,a',62.0
2329,109044.0,Note On,0,0.0,62.0,101.0,0,2,16.0,11.0,9.0,38.0,D,55.0
2330,109044.0,Note On,0,0.0,64.0,92.0,0,2,116.0,2.0,0.0,59.0,b,101.0
2331,109044.0,Note On,0,0.0,64.0,92.0,0,2,120.0,2.0,0.0,62.0,d',101.0
2332,109044.0,Note On,0,0.0,64.0,92.0,0,2,124.0,2.0,0.0,64.0,e',92.0
2333,109044.0,Note On,0,0.0,64.0,92.0,0,2,112.0,2.0,0.0,69.0,a',62.0
2334,109044.0,Note On,0,0.0,64.0,92.0,0,2,16.0,11.0,9.0,38.0,D,55.0
2335,109044.0,Note On,0,0.0,69.0,62.0,0,2,116.0,2.0,0.0,59.0,b,101.0
2336,109044.0,Note On,0,0.0,69.0,62.0,0,2,120.0,2.0,0.0,62.0,d',101.0
2337,109044.0,Note On,0,0.0,69.0,62.0,0,2,124.0,2.0,0.0,64.0,e',92.0
2338,109044.0,Note On,0,0.0,69.0,62.0,0,2,112.0,2.0,0.0,69.0,a',62.0
2339,109044.0,Note On,0,0.0,69.0,62.0,0,2,16.0,11.0,9.0,38.0,D,55.0
2340,109048.0,Note On,0,0.0,55.0,83.0,0,2,100.0,2.0,0.0,55.0,g,83.0
2341,109148.0,Note Off,0,0.0,55.0,83.0,0,2,,,,,,
2342,109148.0,Note Off,0,0.0,45.0,83.0,0,2,,,,,,
2343,109156.0,Note Off,0,0.0,69.0,62.0,0,2,,,,,,
2344,109160.0,Note Off,0,0.0,59.0,101.0,0,2,,,,,,
2345,109164.0,Note Off,0,0.0,62.0,101.0,0,2,,,,,,
2346,109168.0,Note Off,0,0.0,64.0,92.0,0,2,,,,,,
2347,109628.0,Note On,0,0.0,66.0,74.0,0,2,180.0,2.0,0.0,66.0,f#',74.0
2348,109808.0,Note Off,0,0.0,66.0,74.0,0,2,,,,,,
2349,109816.0,Note On,0,0.0,62.0,70.0,0,2,368.0,2.0,0.0,62.0,d',70.0
2350,109824.0,Note On,0,0.0,50.0,92.0,0,2,740.0,2.0,0.0,50.0,d,92.0
2351,109824.0,Note On,0,0.0,50.0,92.0,0,2,360.0,2.0,0.0,59.0,b,83.0
2352,109824.0,Note On,0,0.0,50.0,92.0,0,2,344.0,2.0,0.0,67.0,g',86.0
2353,109824.0,Note On,0,0.0,50.0,92.0,0,2,80.0,11.0,9.0,38.0,D,78.0
2354,109824.0,Note On,0,0.0,59.0,83.0,0,2,740.0,2.0,0.0,50.0,d,92.0
2355,109824.0,Note On,0,0.0,59.0,83.0,0,2,360.0,2.0,0.0,59.0,b,83.0
2356,109824.0,Note On,0,0.0,59.0,83.0,0,2,344.0,2.0,0.0,67.0,g',86.0
2357,109824.0,Note On,0,0.0,59.0,83.0,0,2,80.0,11.0,9.0,38.0,D,78.0
2358,109824.0,Note On,0,0.0,67.0,86.0,0,2,740.0,2.0,0.0,50.0,d,92.0
2359,109824.0,Note On,0,0.0,67.0,86.0,0,2,360.0,2.0,0.0,59.0,b,83.0
2360,109824.0,Note On,0,0.0,67.0,86.0,0,2,344.0,2.0,0.0,67.0,g',86.0
2361,109824.0,Note On,0,0.0,67.0,86.0,0,2,80.0,11.0,9.0,38.0,D,78.0
2362,110168.0,Note Off,0,0.0,67.0,86.0,0,2,,,,,,
2363,110184.0,Note Off,0,0.0,59.0,83.0,0,2,,,,,,
2364,110184.0,Note Off,0,0.0,62.0,70.0,0,2,,,,,,
2365,110204.0,Note On,0,0.0,62.0,66.0,0,2,384.0,2.0,0.0,62.0,d',66.0
2366,110204.0,Note On,0,0.0,62.0,66.0,0,2,72.0,7.0,5.0,38.0,D,34.0
2367,110208.0,Note On,0,0.0,59.0,74.0,0,2,368.0,2.0,0.0,59.0,b,74.0
2368,110208.0,Note On,0,0.0,59.0,74.0,0,2,372.0,2.0,0.0,67.0,g',101.0
2369,110208.0,Note On,0,0.0,59.0,74.0,0,2,340.0,5.0,3.0,71.0,b',91.0
2370,110208.0,Note On,0,0.0,67.0,101.0,0,2,368.0,2.0,0.0,59.0,b,74.0
2371,110208.0,Note On,0,0.0,67.0,101.0,0,2,372.0,2.0,0.0,67.0,g',101.0
2372,110208.0,Note On,0,0.0,67.0,101.0,0,2,340.0,5.0,3.0,71.0,b',91.0
2373,110564.0,Note Off,0,0.0,50.0,92.0,0,2,,,,,,
2374,110576.0,Note Off,0,0.0,59.0,74.0,0,2,,,,,,
2375,110580.0,Note Off,0,0.0,67.0,101.0,0,2,,,,,,
2376,110588.0,Note Off,0,0.0,62.0,66.0,0,2,56.0,6.0,4.0,45.0,A,40.0
2377,110592.0,Note On,0,0.0,61.0,101.0,0,2,740.0,2.0,0.0,61.0,c#',101.0
2378,110592.0,Note On,0,0.0,61.0,101.0,0,2,732.0,2.0,0.0,64.0,e',92.0
2379,110592.0,Note On,0,0.0,61.0,101.0,0,2,716.0,3.0,1.0,30.0,"F#,",82.0
2380,110592.0,Note On,0,0.0,61.0,101.0,0,2,1868.0,5.0,3.0,69.0,a',82.0
2381,110592.0,Note On,0,0.0,61.0,101.0,0,2,800.0,9.0,7.0,81.0,a'',78.0
2382,110592.0,Note On,0,0.0,61.0,101.0,0,2,96.0,11.0,9.0,35.0,"B,",82.0
2383,110592.0,Note On,0,0.0,61.0,101.0,0,2,700.0,11.0,9.0,49.0,c#,64.0
2384,110592.0,Note On,0,0.0,64.0,92.0,0,2,740.0,2.0,0.0,61.0,c#',101.0
2385,110592.0,Note On,0,0.0,64.0,92.0,0,2,732.0,2.0,0.0,64.0,e',92.0
2386,110592.0,Note On,0,0.0,64.0,92.0,0,2,716.0,3.0,1.0,30.0,"F#,",82.0
2387,110592.0,Note On,0,0.0,64.0,92.0,0,2,1868.0,5.0,3.0,69.0,a',82.0
2388,110592.0,Note On,0,0.0,64.0,92.0,0,2,800.0,9.0,7.0,81.0,a'',78.0
2389,110592.0,Note On,0,0.0,64.0,92.0,0,2,96.0,11.0,9.0,35.0,"B,",82.0
2390,110592.0,Note On,0,0.0,64.0,92.0,0,2,700.0,11.0,9.0,49.0,c#,64.0
2391,110596.0,Note On,0,0.0,42.0,95.0,0,2,776.0,2.0,0.0,42.0,F#,95.0
2392,110596.0,Note On,0,0.0,42.0,95.0,0,2,716.0,2.0,0.0,59.0,b,83.0
2393,110596.0,Note On,0,0.0,42.0,95.0,0,2,732.0,2.0,0.0,69.0,a',70.0
2394,110596.0,Note On,0,0.0,59.0,83.0,0,2,776.0,2.0,0.0,42.0,F#,95.0
2395,110596.0,Note On,0,0.0,59.0,83.0,0,2,716.0,2.0,0.0,59.0,b,83.0
2396,110596.0,Note On,0,0.0,59.0,83.0,0,2,732.0,2.0,0.0,69.0,a',70.0
2397,110596.0,Note On,0,0.0,69.0,70.0,0,2,776.0,2.0,0.0,42.0,F#,95.0
2398,110596.0,Note On,0,0.0,69.0,70.0,0,2,716.0,2.0,0.0,59.0,b,83.0
2399,110596.0,Note On,0,0.0,69.0,70.0,0,2,732.0,2.0,0.0,69.0,a',70.0
2400,110600.0,Note On,0,0.0,57.0,66.0,0,2,716.0,2.0,0.0,57.0,a,66.0
2401,110600.0,Note On,0,0.0,57.0,66.0,0,2,4604.0,4.0,2.0,81.0,a'',68.0
2402,111160.0,Note On,0,0.0,62.0,66.0,0,2,380.0,2.0,0.0,62.0,d',66.0
2403,111312.0,Note Off,0,0.0,59.0,83.0,0,2,,,,,,
2404,111316.0,Note Off,0,0.0,57.0,66.0,0,2,,,,,,
2405,111324.0,Note Off,0,0.0,64.0,92.0,0,2,,,,,,
2406,111328.0,Note Off,0,0.0,69.0,70.0,0,2,,,,,,
2407,111332.0,Note Off,0,0.0,61.0,101.0,0,2,,,,,,
2408,111344.0,Note On,0,0.0,57.0,83.0,0,2,488.0,2.0,0.0,57.0,a,83.0
2409,111348.0,Note On,0,0.0,45.0,74.0,0,2,184.0,2.0,0.0,45.0,A,74.0
2410,111372.0,Note Off,0,0.0,42.0,95.0,0,2,,,,,,
2411,111532.0,Note Off,0,0.0,45.0,74.0,0,2,,,,,,
2412,111540.0,Note Off,0,0.0,62.0,66.0,0,2,488.0,2.0,0.0,67.0,g',101.0
2413,111540.0,Note On,0,0.0,67.0,101.0,0,2,488.0,2.0,0.0,67.0,g',101.0
2414,111552.0,Note On,0,0.0,49.0,101.0,0,2,524.0,2.0,0.0,49.0,c#,101.0
2415,111832.0,Note Off,0,0.0,57.0,83.0,0,2,,,,,,
2416,111924.0,Note On,0,0.0,57.0,74.0,0,2,188.0,2.0,0.0,57.0,a,74.0
2417,112028.0,Note Off,0,0.0,67.0,101.0,0,2,,,,,,
2418,112076.0,Note Off,0,0.0,49.0,101.0,0,2,,,,,,
2419,112112.0,Note Off,0,0.0,57.0,74.0,0,2,,,,,,
2420,112116.0,Note On,0,0.0,66.0,92.0,0,2,492.0,2.0,0.0,66.0,f#',92.0
2421,112120.0,Note On,0,0.0,50.0,92.0,0,2,1520.0,2.0,0.0,50.0,d,92.0
2422,112120.0,Note On,0,0.0,50.0,92.0,0,2,780.0,2.0,0.0,62.0,d',83.0
2423,112120.0,Note On,0,0.0,62.0,83.0,0,2,1520.0,2.0,0.0,50.0,d,92.0
2424,112120.0,Note On,0,0.0,62.0,83.0,0,2,780.0,2.0,0.0,62.0,d',83.0
2425,112496.0,Note On,0,0.0,57.0,58.0,0,2,520.0,2.0,0.0,57.0,a,58.0
2426,112608.0,Note Off,0,0.0,66.0,92.0,0,2,,,,,,
2427,112688.0,Note On,0,0.0,66.0,97.0,0,2,660.0,2.0,0.0,66.0,f#',97.0
2428,112900.0,Note Off,0,0.0,62.0,83.0,0,2,,,,,,
2429,113016.0,Note Off,0,0.0,57.0,58.0,0,2,,,,,,
2430,113080.0,Note On,0,0.0,57.0,74.0,0,2,552.0,2.0,0.0,57.0,a,74.0
2431,113272.0,Note On,0,0.0,71.0,97.0,0,2,356.0,2.0,0.0,71.0,b',97.0
2432,113348.0,Note Off,0,0.0,66.0,97.0,0,2,,,,,,
2433,113628.0,Note Off,0,0.0,71.0,97.0,0,2,,,,,,
2434,113632.0,Note Off,0,0.0,57.0,74.0,0,2,,,,,,
2435,113640.0,Note Off,0,0.0,50.0,92.0,0,2,,,,,,
2436,113660.0,Note On,0,0.0,49.0,88.0,0,2,724.0,2.0,0.0,49.0,c#,88.0
2437,113660.0,Note On,0,0.0,49.0,88.0,0,2,216.0,2.0,0.0,64.0,e',83.0
2438,113660.0,Note On,0,0.0,49.0,88.0,0,2,392.0,2.0,0.0,69.0,a',98.0
2439,113660.0,Note On,0,0.0,49.0,88.0,0,2,368.0,5.0,3.0,69.0,a',73.0
2440,113660.0,Note On,0,0.0,69.0,98.0,0,2,724.0,2.0,0.0,49.0,c#,88.0
2441,113660.0,Note On,0,0.0,69.0,98.0,0,2,216.0,2.0,0.0,64.0,e',83.0
2442,113660.0,Note On,0,0.0,69.0,98.0,0,2,392.0,2.0,0.0,69.0,a',98.0
2443,113660.0,Note On,0,0.0,69.0,98.0,0,2,368.0,5.0,3.0,69.0,a',73.0
2444,113660.0,Note On,0,0.0,64.0,83.0,0,2,724.0,2.0,0.0,49.0,c#,88.0
2445,113660.0,Note On,0,0.0,64.0,83.0,0,2,216.0,2.0,0.0,64.0,e',83.0
2446,113660.0,Note On,0,0.0,64.0,83.0,0,2,392.0,2.0,0.0,69.0,a',98.0
2447,113660.0,Note On,0,0.0,64.0,83.0,0,2,368.0,5.0,3.0,69.0,a',73.0
2448,113848.0,Note On,0,0.0,57.0,66.0,0,2,180.0,2.0,0.0,57.0,a,66.0
2449,113876.0,Note Off,0,0.0,64.0,83.0,0,2,,,,,,
2450,114028.0,Note Off,0,0.0,57.0,66.0,0,2,160.0,2.0,0.0,64.0,e',74.0
2451,114028.0,Note On,0,0.0,64.0,74.0,0,2,160.0,2.0,0.0,64.0,e',74.0
2452,114052.0,Note Off,0,0.0,69.0,98.0,0,2,,,,,,
2453,114188.0,Note Off,0,0.0,64.0,74.0,0,2,,,,,,
2454,114232.0,Note On,0,0.0,64.0,92.0,0,2,328.0,2.0,0.0,64.0,e',92.0
2455,114232.0,Note On,0,0.0,64.0,92.0,0,2,340.0,2.0,0.0,67.0,g',91.0
2456,114232.0,Note On,0,0.0,67.0,91.0,0,2,328.0,2.0,0.0,64.0,e',92.0
2457,114232.0,Note On,0,0.0,67.0,91.0,0,2,340.0,2.0,0.0,67.0,g',91.0
2458,114384.0,Note Off,0,0.0,49.0,88.0,0,2,,,,,,
2459,114428.0,Note On,0,0.0,49.0,101.0,0,2,584.0,2.0,0.0,49.0,c#,101.0
2460,114560.0,Note Off,0,0.0,64.0,92.0,0,2,,,,,,
2461,114572.0,Note Off,0,0.0,67.0,91.0,0,2,,,,,,
2462,114616.0,Note On,0,0.0,57.0,66.0,0,2,556.0,2.0,0.0,57.0,a,66.0
2463,114616.0,Note On,0,0.0,57.0,66.0,0,2,356.0,2.0,0.0,64.0,e',63.0
2464,114616.0,Note On,0,0.0,57.0,66.0,0,2,564.0,2.0,0.0,66.0,f#',93.0
2465,114616.0,Note On,0,0.0,64.0,63.0,0,2,556.0,2.0,0.0,57.0,a,66.0
2466,114616.0,Note On,0,0.0,64.0,63.0,0,2,356.0,2.0,0.0,64.0,e',63.0
2467,114616.0,Note On,0,0.0,64.0,63.0,0,2,564.0,2.0,0.0,66.0,f#',93.0
2468,114616.0,Note On,0,0.0,66.0,93.0,0,2,556.0,2.0,0.0,57.0,a,66.0
2469,114616.0,Note On,0,0.0,66.0,93.0,0,2,356.0,2.0,0.0,64.0,e',63.0
2470,114616.0,Note On,0,0.0,66.0,93.0,0,2,564.0,2.0,0.0,66.0,f#',93.0
2471,114972.0,Note Off,0,0.0,64.0,63.0,0,2,,,,,,
2472,114996.0,Note On,0,0.0,62.0,88.0,0,2,720.0,2.0,0.0,62.0,d',88.0
2473,115012.0,Note Off,0,0.0,49.0,101.0,0,2,168.0,2.0,0.0,45.0,A,74.0
2474,115012.0,Note Off,0,0.0,49.0,101.0,0,2,580.0,5.0,3.0,66.0,f#',82.0
2475,115012.0,Note On,0,0.0,45.0,74.0,0,2,168.0,2.0,0.0,45.0,A,74.0
2476,115012.0,Note On,0,0.0,45.0,74.0,0,2,580.0,5.0,3.0,66.0,f#',82.0
2477,115172.0,Note Off,0,0.0,57.0,66.0,0,2,388.0,4.0,2.0,78.0,f#'',73.0
2478,115180.0,Note Off,0,0.0,45.0,74.0,0,2,,,,,,
2479,115180.0,Note Off,0,0.0,66.0,93.0,0,2,,,,,,
2480,115192.0,Note On,0,0.0,66.0,97.0,0,2,732.0,2.0,0.0,66.0,f#',97.0
2481,115200.0,Note On,0,0.0,57.0,74.0,0,2,744.0,2.0,0.0,50.0,d,92.0
2482,115200.0,Note On,0,0.0,57.0,74.0,0,2,728.0,2.0,0.0,57.0,a,74.0
2483,115200.0,Note On,0,0.0,57.0,74.0,0,2,724.0,3.0,1.0,38.0,D,82.0
2484,115200.0,Note On,0,0.0,57.0,74.0,0,2,96.0,11.0,9.0,35.0,"B,",82.0
2485,115200.0,Note On,0,0.0,57.0,74.0,0,2,108.0,11.0,9.0,42.0,F#,72.0
2486,115200.0,Note On,0,0.0,50.0,92.0,0,2,744.0,2.0,0.0,50.0,d,92.0
2487,115200.0,Note On,0,0.0,50.0,92.0,0,2,728.0,2.0,0.0,57.0,a,74.0
2488,115200.0,Note On,0,0.0,50.0,92.0,0,2,724.0,3.0,1.0,38.0,D,82.0
2489,115200.0,Note On,0,0.0,50.0,92.0,0,2,96.0,11.0,9.0,35.0,"B,",82.0
2490,115200.0,Note On,0,0.0,50.0,92.0,0,2,108.0,11.0,9.0,42.0,F#,72.0
2491,115716.0,Note Off,0,0.0,62.0,88.0,0,2,,,,,,
2492,115772.0,Note On,0,0.0,62.0,62.0,0,2,924.0,2.0,0.0,62.0,d',62.0
2493,115772.0,Note On,0,0.0,62.0,62.0,0,2,52.0,11.0,9.0,42.0,F#,34.0
2494,115924.0,Note Off,0,0.0,66.0,97.0,0,2,,,,,,
2495,115928.0,Note Off,0,0.0,57.0,74.0,0,2,,,,,,
2496,115944.0,Note Off,0,0.0,50.0,92.0,0,2,,,,,,
2497,115956.0,Note On,0,0.0,57.0,74.0,0,2,768.0,2.0,0.0,57.0,a,74.0
2498,115956.0,Note On,0,0.0,57.0,74.0,0,2,280.0,2.0,0.0,66.0,f#',101.0
2499,115956.0,Note On,0,0.0,57.0,74.0,0,2,220.0,5.0,3.0,66.0,f#',73.0
2500,115956.0,Note On,0,0.0,66.0,101.0,0,2,768.0,2.0,0.0,57.0,a,74.0
2501,115956.0,Note On,0,0.0,66.0,101.0,0,2,280.0,2.0,0.0,66.0,f#',101.0
2502,115956.0,Note On,0,0.0,66.0,101.0,0,2,220.0,5.0,3.0,66.0,f#',73.0
2503,115960.0,Note On,0,0.0,38.0,83.0,0,2,224.0,2.0,0.0,38.0,D,83.0
2504,116184.0,Note Off,0,0.0,38.0,83.0,0,2,,,,,,
2505,116220.0,Note On,0,0.0,67.0,92.0,0,2,308.0,2.0,0.0,67.0,g',92.0
2506,116224.0,Note On,0,0.0,40.0,74.0,0,2,208.0,2.0,0.0,40.0,E,74.0
2507,116224.0,Note On,0,0.0,40.0,74.0,0,2,200.0,3.0,1.0,28.0,"E,",78.0
2508,116224.0,Note On,0,0.0,40.0,74.0,0,2,224.0,5.0,3.0,67.0,g',73.0
2509,116236.0,Note Off,0,0.0,66.0,101.0,0,2,,,,,,
2510,116432.0,Note Off,0,0.0,40.0,74.0,0,2,,,,,,
2511,116468.0,Note On,0,0.0,42.0,83.0,0,2,232.0,2.0,0.0,42.0,F#,83.0
2512,116476.0,Note On,0,0.0,69.0,97.0,0,2,260.0,2.0,0.0,69.0,a',97.0
2513,116528.0,Note Off,0,0.0,67.0,92.0,0,2,,,,,,
2514,116696.0,Note Off,0,0.0,62.0,62.0,0,2,,,,,,
2515,116700.0,Note Off,0,0.0,42.0,83.0,0,2,,,,,,
2516,116724.0,Note Off,0,0.0,57.0,74.0,0,2,3880.0,4.0,2.0,93.0,a''',57.0
2517,116728.0,Note On,0,0.0,43.0,91.0,0,2,740.0,2.0,0.0,43.0,G,91.0
2518,116728.0,Note On,0,0.0,43.0,91.0,0,2,328.0,5.0,3.0,73.0,c#'',73.0
2519,116732.0,Note On,0,0.0,64.0,92.0,0,2,200.0,2.0,0.0,64.0,e',92.0
2520,116732.0,Note On,0,0.0,64.0,92.0,0,2,772.0,2.0,0.0,73.0,c#'',99.0
2521,116732.0,Note On,0,0.0,73.0,99.0,0,2,200.0,2.0,0.0,64.0,e',92.0
2522,116732.0,Note On,0,0.0,73.0,99.0,0,2,772.0,2.0,0.0,73.0,c#'',99.0
2523,116736.0,Note Off,0,0.0,69.0,97.0,0,2,540.0,3.0,1.0,31.0,"G,",82.0
2524,116736.0,Note Off,0,0.0,69.0,97.0,0,2,96.0,11.0,9.0,35.0,"B,",82.0
2525,116736.0,Note Off,0,0.0,69.0,97.0,0,2,108.0,11.0,9.0,42.0,F#,72.0
2526,116916.0,Note On,0,0.0,71.0,85.0,0,2,204.0,2.0,0.0,71.0,b',85.0
2527,116932.0,Note Off,0,0.0,64.0,92.0,0,2,,,,,,
2528,117104.0,Note On,0,0.0,64.0,76.0,0,2,400.0,2.0,0.0,64.0,e',76.0
2529,117120.0,Note Off,0,0.0,71.0,85.0,0,2,120.0,11.0,9.0,42.0,F#,69.0
2530,117300.0,Note On,0,0.0,69.0,74.0,0,2,180.0,2.0,0.0,69.0,a',74.0
2531,117468.0,Note Off,0,0.0,43.0,91.0,0,2,828.0,4.0,2.0,69.0,a',64.0
2532,117480.0,Note Off,0,0.0,69.0,74.0,0,2,,,,,,
2533,117496.0,Note On,0,0.0,42.0,92.0,0,2,724.0,2.0,0.0,42.0,F#,92.0
2534,117496.0,Note On,0,0.0,42.0,92.0,0,2,208.0,2.0,0.0,62.0,d',91.0
2535,117496.0,Note On,0,0.0,42.0,92.0,0,2,412.0,2.0,0.0,69.0,a',97.0
2536,117496.0,Note On,0,0.0,42.0,92.0,0,2,396.0,5.0,3.0,69.0,a',64.0
2537,117496.0,Note On,0,0.0,62.0,91.0,0,2,724.0,2.0,0.0,42.0,F#,92.0
2538,117496.0,Note On,0,0.0,62.0,91.0,0,2,208.0,2.0,0.0,62.0,d',91.0
2539,117496.0,Note On,0,0.0,62.0,91.0,0,2,412.0,2.0,0.0,69.0,a',97.0
2540,117496.0,Note On,0,0.0,62.0,91.0,0,2,396.0,5.0,3.0,69.0,a',64.0
2541,117496.0,Note On,0,0.0,69.0,97.0,0,2,724.0,2.0,0.0,42.0,F#,92.0
2542,117496.0,Note On,0,0.0,69.0,97.0,0,2,208.0,2.0,0.0,62.0,d',91.0
2543,117496.0,Note On,0,0.0,69.0,97.0,0,2,412.0,2.0,0.0,69.0,a',97.0
2544,117496.0,Note On,0,0.0,69.0,97.0,0,2,396.0,5.0,3.0,69.0,a',64.0
2545,117504.0,Note Off,0,0.0,64.0,76.0,0,2,536.0,3.0,1.0,30.0,"F#,",82.0
2546,117504.0,Note Off,0,0.0,64.0,76.0,0,2,240.0,11.0,9.0,38.0,D,73.0
2547,117504.0,Note Off,0,0.0,64.0,76.0,0,2,112.0,11.0,9.0,42.0,F#,75.0
2548,117504.0,Note Off,0,0.0,73.0,99.0,0,2,536.0,3.0,1.0,30.0,"F#,",82.0
2549,117504.0,Note Off,0,0.0,73.0,99.0,0,2,240.0,11.0,9.0,38.0,D,73.0
2550,117504.0,Note Off,0,0.0,73.0,99.0,0,2,112.0,11.0,9.0,42.0,F#,75.0
2551,117696.0,Note On,0,0.0,57.0,79.0,0,2,520.0,2.0,0.0,57.0,a,79.0
2552,117704.0,Note Off,0,0.0,62.0,91.0,0,2,,,,,,
2553,117880.0,Note On,0,0.0,62.0,74.0,0,2,372.0,2.0,0.0,62.0,d',74.0
2554,117908.0,Note Off,0,0.0,69.0,97.0,0,2,,,,,,
2555,118072.0,Note On,0,0.0,69.0,83.0,0,2,184.0,2.0,0.0,69.0,a',83.0
2556,118216.0,Note Off,0,0.0,57.0,79.0,0,2,,,,,,
2557,118220.0,Note Off,0,0.0,42.0,92.0,0,2,,,,,,
2558,118252.0,Note Off,0,0.0,62.0,74.0,0,2,,,,,,
2559,118256.0,Note Off,0,0.0,69.0,83.0,0,2,,,,,,
2560,118268.0,Note On,0,0.0,43.0,94.0,0,2,692.0,2.0,0.0,43.0,G,94.0
2561,118272.0,Note On,0,0.0,69.0,83.0,0,2,328.0,2.0,0.0,69.0,a',83.0
2562,118272.0,Note On,0,0.0,69.0,83.0,0,2,300.0,2.0,0.0,73.0,c#'',96.0
2563,118272.0,Note On,0,0.0,69.0,83.0,0,2,540.0,3.0,1.0,31.0,"G,",82.0
2564,118272.0,Note On,0,0.0,69.0,83.0,0,2,96.0,11.0,9.0,35.0,"B,",82.0
2565,118272.0,Note On,0,0.0,69.0,83.0,0,2,108.0,11.0,9.0,42.0,F#,72.0
2566,118272.0,Note On,0,0.0,73.0,96.0,0,2,328.0,2.0,0.0,69.0,a',83.0
2567,118272.0,Note On,0,0.0,73.0,96.0,0,2,300.0,2.0,0.0,73.0,c#'',96.0
2568,118272.0,Note On,0,0.0,73.0,96.0,0,2,540.0,3.0,1.0,31.0,"G,",82.0
2569,118272.0,Note On,0,0.0,73.0,96.0,0,2,96.0,11.0,9.0,35.0,"B,",82.0
2570,118272.0,Note On,0,0.0,73.0,96.0,0,2,108.0,11.0,9.0,42.0,F#,72.0
2571,118460.0,Note On,0,0.0,62.0,58.0,0,2,276.0,2.0,0.0,62.0,d',58.0
2572,118460.0,Note On,0,0.0,62.0,58.0,0,2,44.0,11.0,9.0,42.0,F#,23.0
2573,118572.0,Note Off,0,0.0,73.0,96.0,0,2,,,,,,
2574,118600.0,Note Off,0,0.0,69.0,83.0,0,2,,,,,,
2575,118644.0,Note On,0,0.0,74.0,83.0,0,2,576.0,2.0,0.0,74.0,d'',83.0
2576,118736.0,Note Off,0,0.0,62.0,58.0,0,2,,,,,,
2577,118836.0,Note On,0,0.0,69.0,94.0,0,2,392.0,2.0,0.0,69.0,a',94.0
2578,118836.0,Note On,0,0.0,69.0,94.0,0,2,980.0,4.0,2.0,69.0,a',56.0
2579,118960.0,Note Off,0,0.0,43.0,94.0,0,2,,,,,,
2580,119028.0,Note On,0,0.0,42.0,83.0,0,2,776.0,2.0,0.0,42.0,F#,83.0
2581,119212.0,Note On,0,0.0,62.0,62.0,0,2,228.0,2.0,0.0,62.0,d',62.0
2582,119220.0,Note Off,0,0.0,74.0,83.0,0,2,,,,,,
2583,119228.0,Note Off,0,0.0,69.0,94.0,0,2,56.0,11.0,9.0,42.0,F#,23.0
2584,119404.0,Note On,0,0.0,69.0,91.0,0,2,420.0,2.0,0.0,69.0,a',91.0
2585,119440.0,Note Off,0,0.0,62.0,62.0,0,2,,,,,,
2586,119592.0,Note On,0,0.0,62.0,58.0,0,2,188.0,2.0,0.0,62.0,d',58.0
2587,119780.0,Note Off,0,0.0,62.0,58.0,0,2,,,,,,
2588,119792.0,Note On,0,0.0,62.0,101.0,0,2,792.0,2.0,0.0,47.0,B,83.0
2589,119792.0,Note On,0,0.0,62.0,101.0,0,2,752.0,2.0,0.0,62.0,d',101.0
2590,119792.0,Note On,0,0.0,62.0,101.0,0,2,720.0,2.0,0.0,66.0,f#',92.0
2591,119792.0,Note On,0,0.0,66.0,92.0,0,2,792.0,2.0,0.0,47.0,B,83.0
2592,119792.0,Note On,0,0.0,66.0,92.0,0,2,752.0,2.0,0.0,62.0,d',101.0
2593,119792.0,Note On,0,0.0,66.0,92.0,0,2,720.0,2.0,0.0,66.0,f#',92.0
2594,119792.0,Note On,0,0.0,47.0,83.0,0,2,792.0,2.0,0.0,47.0,B,83.0
2595,119792.0,Note On,0,0.0,47.0,83.0,0,2,752.0,2.0,0.0,62.0,d',101.0
2596,119792.0,Note On,0,0.0,47.0,83.0,0,2,720.0,2.0,0.0,66.0,f#',92.0
2597,119796.0,Note On,0,0.0,57.0,83.0,0,2,744.0,2.0,0.0,57.0,a,83.0
2598,119804.0,Note Off,0,0.0,42.0,83.0,0,2,,,,,,
2599,119824.0,Note Off,0,0.0,69.0,91.0,0,2,,,,,,
2600,120512.0,Note Off,0,0.0,66.0,92.0,0,2,,,,,,
2601,120540.0,Note Off,0,0.0,57.0,83.0,0,2,,,,,,
2602,120544.0,Note Off,0,0.0,62.0,101.0,0,2,,,,,,
2603,120564.0,Note On,0,0.0,66.0,74.0,0,2,772.0,2.0,0.0,66.0,f#',74.0
2604,120568.0,Note On,0,0.0,62.0,83.0,0,2,748.0,2.0,0.0,56.0,g#,83.0
2605,120568.0,Note On,0,0.0,62.0,83.0,0,2,748.0,2.0,0.0,59.0,b,83.0
2606,120568.0,Note On,0,0.0,62.0,83.0,0,2,408.0,2.0,0.0,62.0,d',83.0
2607,120568.0,Note On,0,0.0,62.0,83.0,0,2,84.0,5.0,3.0,73.0,c#'',56.0
2608,120568.0,Note On,0,0.0,56.0,83.0,0,2,748.0,2.0,0.0,56.0,g#,83.0
2609,120568.0,Note On,0,0.0,56.0,83.0,0,2,748.0,2.0,0.0,59.0,b,83.0
2610,120568.0,Note On,0,0.0,56.0,83.0,0,2,408.0,2.0,0.0,62.0,d',83.0
2611,120568.0,Note On,0,0.0,56.0,83.0,0,2,84.0,5.0,3.0,73.0,c#'',56.0
2612,120568.0,Note On,0,0.0,59.0,83.0,0,2,748.0,2.0,0.0,56.0,g#,83.0
2613,120568.0,Note On,0,0.0,59.0,83.0,0,2,748.0,2.0,0.0,59.0,b,83.0
2614,120568.0,Note On,0,0.0,59.0,83.0,0,2,408.0,2.0,0.0,62.0,d',83.0
2615,120568.0,Note On,0,0.0,59.0,83.0,0,2,84.0,5.0,3.0,73.0,c#'',56.0
2616,120572.0,Note On,0,0.0,40.0,92.0,0,2,580.0,2.0,0.0,40.0,E,92.0
2617,120584.0,Note Off,0,0.0,47.0,83.0,0,2,,,,,,
2618,120936.0,Note On,0,0.0,64.0,83.0,0,2,364.0,2.0,0.0,64.0,e',83.0
2619,120976.0,Note Off,0,0.0,62.0,83.0,0,2,,,,,,
2620,121152.0,Note Off,0,0.0,40.0,92.0,0,2,160.0,2.0,0.0,47.0,B,82.0
2621,121152.0,Note Off,0,0.0,40.0,92.0,0,2,192.0,3.0,1.0,28.0,"E,",73.0
2622,121152.0,Note Off,0,0.0,40.0,92.0,0,2,164.0,5.0,3.0,69.0,a',73.0
2623,121152.0,Note Off,0,0.0,40.0,92.0,0,2,96.0,11.0,9.0,35.0,"B,",64.0
2624,121152.0,Note Off,0,0.0,40.0,92.0,0,2,52.0,11.0,9.0,42.0,F#,48.0
2625,121152.0,Note On,0,0.0,47.0,82.0,0,2,160.0,2.0,0.0,47.0,B,82.0
2626,121152.0,Note On,0,0.0,47.0,82.0,0,2,192.0,3.0,1.0,28.0,"E,",73.0
2627,121152.0,Note On,0,0.0,47.0,82.0,0,2,164.0,5.0,3.0,69.0,a',73.0
2628,121152.0,Note On,0,0.0,47.0,82.0,0,2,96.0,11.0,9.0,35.0,"B,",64.0
2629,121152.0,Note On,0,0.0,47.0,82.0,0,2,52.0,11.0,9.0,42.0,F#,48.0
2630,121300.0,Note Off,0,0.0,64.0,83.0,0,2,,,,,,
2631,121312.0,Note Off,0,0.0,47.0,82.0,0,2,,,,,,
2632,121316.0,Note Off,0,0.0,59.0,83.0,0,2,,,,,,
2633,121316.0,Note Off,0,0.0,56.0,83.0,0,2,,,,,,
2634,121332.0,Note On,0,0.0,64.0,83.0,0,2,568.0,2.0,0.0,64.0,e',83.0
2635,121336.0,Note Off,0,0.0,66.0,74.0,0,2,748.0,2.0,0.0,45.0,A,101.0
2636,121336.0,Note Off,0,0.0,66.0,74.0,0,2,552.0,2.0,0.0,55.0,g,70.0
2637,121336.0,Note Off,0,0.0,66.0,74.0,0,2,212.0,2.0,0.0,62.0,d',91.0
2638,121336.0,Note On,0,0.0,62.0,91.0,0,2,748.0,2.0,0.0,45.0,A,101.0
2639,121336.0,Note On,0,0.0,62.0,91.0,0,2,552.0,2.0,0.0,55.0,g,70.0
2640,121336.0,Note On,0,0.0,62.0,91.0,0,2,212.0,2.0,0.0,62.0,d',91.0
2641,121336.0,Note On,0,0.0,45.0,101.0,0,2,748.0,2.0,0.0,45.0,A,101.0
2642,121336.0,Note On,0,0.0,45.0,101.0,0,2,552.0,2.0,0.0,55.0,g,70.0
2643,121336.0,Note On,0,0.0,45.0,101.0,0,2,212.0,2.0,0.0,62.0,d',91.0
2644,121336.0,Note On,0,0.0,55.0,70.0,0,2,748.0,2.0,0.0,45.0,A,101.0
2645,121336.0,Note On,0,0.0,55.0,70.0,0,2,552.0,2.0,0.0,55.0,g,70.0
2646,121336.0,Note On,0,0.0,55.0,70.0,0,2,212.0,2.0,0.0,62.0,d',91.0
2647,121524.0,Note On,0,0.0,61.0,56.0,0,2,332.0,2.0,0.0,61.0,c#',56.0
2648,121548.0,Note Off,0,0.0,62.0,91.0,0,2,,,,,,
2649,121712.0,Note On,0,0.0,57.0,72.0,0,2,172.0,2.0,0.0,57.0,a,72.0
2650,121856.0,Note Off,0,0.0,61.0,56.0,0,2,,,,,,
2651,121884.0,Note Off,0,0.0,57.0,72.0,0,2,,,,,,
2652,121888.0,Note Off,0,0.0,55.0,70.0,0,2,,,,,,
2653,121900.0,Note Off,0,0.0,64.0,83.0,0,2,,,,,,
2654,121908.0,Note On,0,0.0,66.0,74.0,0,2,152.0,2.0,0.0,66.0,f#',74.0
2655,121912.0,Note On,0,0.0,57.0,74.0,0,2,168.0,2.0,0.0,57.0,a,74.0
2656,122060.0,Note Off,0,0.0,66.0,74.0,0,2,,,,,,
2657,122080.0,Note Off,0,0.0,57.0,74.0,0,2,,,,,,
2658,122084.0,Note Off,0,0.0,45.0,101.0,0,2,,,,,,
2659,122104.0,Note On,0,0.0,67.0,89.0,0,2,364.0,2.0,0.0,67.0,g',89.0
2660,122108.0,Note On,0,0.0,59.0,98.0,0,2,344.0,2.0,0.0,59.0,b,98.0
2661,122112.0,Note On,0,0.0,45.0,83.0,0,2,172.0,2.0,0.0,45.0,A,83.0
2662,122112.0,Note On,0,0.0,45.0,83.0,0,2,376.0,5.0,3.0,67.0,g',87.0
2663,122112.0,Note On,0,0.0,45.0,83.0,0,2,96.0,11.0,9.0,35.0,"B,",82.0
2664,122112.0,Note On,0,0.0,45.0,83.0,0,2,80.0,11.0,9.0,38.0,D,81.0
2665,122112.0,Note On,0,0.0,45.0,83.0,0,2,96.0,11.0,9.0,54.0,f#,91.0
2666,122284.0,Note Off,0,0.0,45.0,83.0,0,2,,,,,,
2667,122288.0,Note On,0,0.0,47.0,70.0,0,2,160.0,2.0,0.0,47.0,B,70.0
2668,122448.0,Note Off,0,0.0,47.0,70.0,0,2,,,,,,
2669,122452.0,Note Off,0,0.0,59.0,98.0,0,2,,,,,,
2670,122468.0,Note Off,0,0.0,67.0,89.0,0,2,,,,,,
2671,122480.0,Note On,0,0.0,50.0,83.0,0,2,152.0,2.0,0.0,50.0,d,83.0
2672,122492.0,Note On,0,0.0,62.0,92.0,0,2,352.0,2.0,0.0,62.0,d',92.0
2673,122500.0,Note On,0,0.0,71.0,95.0,0,2,360.0,2.0,0.0,71.0,b',95.0
2674,122632.0,Note Off,0,0.0,50.0,83.0,0,2,,,,,,
2675,122664.0,Note On,0,0.0,45.0,83.0,0,2,188.0,2.0,0.0,45.0,A,83.0
2676,122844.0,Note Off,0,0.0,62.0,92.0,0,2,,,,,,
2677,122852.0,Note Off,0,0.0,45.0,83.0,0,2,,,,,,
2678,122860.0,Note Off,0,0.0,71.0,95.0,0,2,,,,,,
2679,122880.0,Note On,0,0.0,61.0,92.0,0,2,312.0,2.0,0.0,61.0,c#',92.0
2680,122880.0,Note On,0,0.0,61.0,92.0,0,2,340.0,2.0,0.0,69.0,a',95.0
2681,122880.0,Note On,0,0.0,61.0,92.0,0,2,96.0,11.0,9.0,35.0,"B,",82.0
2682,122880.0,Note On,0,0.0,61.0,92.0,0,2,40.0,11.0,9.0,44.0,G#,30.0
2683,122880.0,Note On,0,0.0,61.0,92.0,0,2,700.0,11.0,9.0,49.0,c#,64.0
2684,122880.0,Note On,0,0.0,69.0,95.0,0,2,312.0,2.0,0.0,61.0,c#',92.0
2685,122880.0,Note On,0,0.0,69.0,95.0,0,2,340.0,2.0,0.0,69.0,a',95.0
2686,122880.0,Note On,0,0.0,69.0,95.0,0,2,96.0,11.0,9.0,35.0,"B,",82.0
2687,122880.0,Note On,0,0.0,69.0,95.0,0,2,40.0,11.0,9.0,44.0,G#,30.0
2688,122880.0,Note On,0,0.0,69.0,95.0,0,2,700.0,11.0,9.0,49.0,c#,64.0
2689,122884.0,Note On,0,0.0,45.0,95.0,0,2,1116.0,2.0,0.0,45.0,A,95.0
2690,123192.0,Note Off,0,0.0,61.0,92.0,0,2,,,,,,
2691,123220.0,Note Off,0,0.0,69.0,95.0,0,2,,,,,,
2692,123264.0,Note On,0,0.0,61.0,66.0,0,2,192.0,2.0,0.0,61.0,c#',66.0
2693,123264.0,Note On,0,0.0,61.0,66.0,0,2,120.0,11.0,9.0,42.0,F#,69.0
2694,123268.0,Note On,0,0.0,64.0,66.0,0,2,196.0,2.0,0.0,64.0,e',66.0
2695,123444.0,Note On,0,0.0,57.0,70.0,0,2,144.0,2.0,0.0,57.0,a,70.0
2696,123456.0,Note Off,0,0.0,61.0,66.0,0,2,148.0,3.0,1.0,33.0,"A,",64.0
2697,123464.0,Note Off,0,0.0,64.0,66.0,0,2,,,,,,
2698,123588.0,Note Off,0,0.0,57.0,70.0,0,2,,,,,,
2699,123648.0,Note On,0,0.0,61.0,92.0,0,2,360.0,2.0,0.0,61.0,c#',92.0
2700,123648.0,Note On,0,0.0,61.0,92.0,0,2,548.0,3.0,1.0,37.0,C#,82.0
2701,123648.0,Note On,0,0.0,61.0,92.0,0,2,240.0,11.0,9.0,38.0,D,73.0
2702,123648.0,Note On,0,0.0,61.0,92.0,0,2,112.0,11.0,9.0,42.0,F#,75.0
2703,123652.0,Note On,0,0.0,64.0,83.0,0,2,356.0,2.0,0.0,64.0,e',83.0
2704,124000.0,Note Off,0,0.0,45.0,95.0,0,2,,,,,,
2705,124008.0,Note Off,0,0.0,64.0,83.0,0,2,,,,,,
2706,124008.0,Note Off,0,0.0,61.0,92.0,0,2,,,,,,
2707,124020.0,Note On,0,0.0,64.0,92.0,0,2,380.0,2.0,0.0,64.0,e',92.0
2708,124024.0,Note On,0,0.0,45.0,83.0,0,2,176.0,2.0,0.0,45.0,A,83.0
2709,124024.0,Note On,0,0.0,45.0,83.0,0,2,376.0,2.0,0.0,67.0,g',74.0
2710,124024.0,Note On,0,0.0,67.0,74.0,0,2,176.0,2.0,0.0,45.0,A,83.0
2711,124024.0,Note On,0,0.0,67.0,74.0,0,2,376.0,2.0,0.0,67.0,g',74.0
2712,124200.0,Note Off,0,0.0,45.0,83.0,0,2,,,,,,
2713,124220.0,Note On,0,0.0,57.0,66.0,0,2,164.0,2.0,0.0,57.0,a,66.0
2714,124224.0,Note On,0,0.0,49.0,83.0,0,2,176.0,2.0,0.0,49.0,c#,83.0
2715,124224.0,Note On,0,0.0,49.0,83.0,0,2,148.0,3.0,1.0,37.0,C#,64.0
2716,124224.0,Note On,0,0.0,49.0,83.0,0,2,96.0,11.0,9.0,35.0,"B,",64.0
2717,124224.0,Note On,0,0.0,49.0,83.0,0,2,52.0,11.0,9.0,42.0,F#,48.0
2718,124384.0,Note Off,0,0.0,57.0,66.0,0,2,,,,,,
2719,124400.0,Note Off,0,0.0,49.0,83.0,0,2,,,,,,
2720,124400.0,Note Off,0,0.0,67.0,74.0,0,2,,,,,,
2721,124400.0,Note Off,0,0.0,64.0,92.0,0,2,,,,,,
2722,124404.0,Note On,0,0.0,66.0,92.0,0,2,332.0,2.0,0.0,66.0,f#',92.0
2723,124408.0,Note On,0,0.0,50.0,92.0,0,2,520.0,2.0,0.0,50.0,d,92.0
2724,124408.0,Note On,0,0.0,50.0,92.0,0,2,560.0,2.0,0.0,62.0,d',83.0
2725,124408.0,Note On,0,0.0,62.0,83.0,0,2,520.0,2.0,0.0,50.0,d,92.0
2726,124408.0,Note On,0,0.0,62.0,83.0,0,2,560.0,2.0,0.0,62.0,d',83.0
2727,124592.0,Note On,0,0.0,57.0,62.0,0,2,572.0,2.0,0.0,57.0,a,62.0
2728,124736.0,Note Off,0,0.0,66.0,92.0,0,2,,,,,,
2729,124788.0,Note On,0,0.0,66.0,83.0,0,2,392.0,2.0,0.0,66.0,f#',83.0
2730,124928.0,Note Off,0,0.0,50.0,92.0,0,2,,,,,,
2731,124968.0,Note Off,0,0.0,62.0,83.0,0,2,,,,,,
2732,124976.0,Note On,0,0.0,62.0,66.0,0,2,176.0,2.0,0.0,62.0,d',66.0
2733,124980.0,Note On,0,0.0,69.0,74.0,0,2,568.0,2.0,0.0,69.0,a',74.0
2734,124980.0,Note On,0,0.0,69.0,74.0,0,2,168.0,5.0,3.0,66.0,f#',73.0
2735,124988.0,Note On,0,0.0,50.0,92.0,0,2,912.0,2.0,0.0,50.0,d,92.0
2736,124988.0,Note On,0,0.0,50.0,92.0,0,2,52.0,11.0,9.0,42.0,F#,31.0
2737,125152.0,Note Off,0,0.0,62.0,66.0,0,2,,,,,,
2738,125164.0,Note Off,0,0.0,57.0,62.0,0,2,,,,,,
2739,125172.0,Note On,0,0.0,62.0,83.0,0,2,336.0,2.0,0.0,62.0,d',83.0
2740,125172.0,Note On,0,0.0,62.0,83.0,0,2,368.0,2.0,0.0,74.0,d'',94.0
2741,125172.0,Note On,0,0.0,74.0,94.0,0,2,336.0,2.0,0.0,62.0,d',83.0
2742,125172.0,Note On,0,0.0,74.0,94.0,0,2,368.0,2.0,0.0,74.0,d'',94.0
2743,125180.0,Note Off,0,0.0,66.0,83.0,0,2,356.0,5.0,3.0,67.0,g',82.0
2744,125508.0,Note Off,0,0.0,62.0,83.0,0,2,,,,,,
2745,125540.0,Note Off,0,0.0,74.0,94.0,0,2,,,,,,
2746,125548.0,Note Off,0,0.0,69.0,74.0,0,2,,,,,,
2747,125564.0,Note On,0,0.0,62.0,74.0,0,2,384.0,2.0,0.0,62.0,d',74.0
2748,125564.0,Note On,0,0.0,62.0,74.0,0,2,380.0,2.0,0.0,71.0,b',92.0
2749,125564.0,Note On,0,0.0,71.0,92.0,0,2,384.0,2.0,0.0,62.0,d',74.0
2750,125564.0,Note On,0,0.0,71.0,92.0,0,2,380.0,2.0,0.0,71.0,b',92.0
2751,125900.0,Note Off,0,0.0,50.0,92.0,0,2,,,,,,
2752,125944.0,Note Off,0,0.0,71.0,92.0,0,2,,,,,,
2753,125948.0,Note Off,0,0.0,62.0,74.0,0,2,216.0,2.0,0.0,61.0,c#',83.0
2754,125948.0,Note Off,0,0.0,62.0,74.0,0,2,392.0,2.0,0.0,69.0,a',98.0
2755,125948.0,Note On,0,0.0,69.0,98.0,0,2,216.0,2.0,0.0,61.0,c#',83.0
2756,125948.0,Note On,0,0.0,69.0,98.0,0,2,392.0,2.0,0.0,69.0,a',98.0
2757,125948.0,Note On,0,0.0,61.0,83.0,0,2,216.0,2.0,0.0,61.0,c#',83.0
2758,125948.0,Note On,0,0.0,61.0,83.0,0,2,392.0,2.0,0.0,69.0,a',98.0
2759,125952.0,Note On,0,0.0,49.0,91.0,0,2,536.0,2.0,0.0,49.0,c#,91.0
2760,125952.0,Note On,0,0.0,49.0,91.0,0,2,548.0,3.0,1.0,37.0,C#,82.0
2761,125952.0,Note On,0,0.0,49.0,91.0,0,2,96.0,11.0,9.0,35.0,"B,",82.0
2762,125952.0,Note On,0,0.0,49.0,91.0,0,2,108.0,11.0,9.0,42.0,F#,72.0
2763,126136.0,Note On,0,0.0,57.0,66.0,0,2,180.0,2.0,0.0,57.0,a,66.0
2764,126164.0,Note Off,0,0.0,61.0,83.0,0,2,,,,,,
2765,126316.0,Note Off,0,0.0,57.0,66.0,0,2,160.0,2.0,0.0,64.0,e',74.0
2766,126316.0,Note On,0,0.0,64.0,74.0,0,2,160.0,2.0,0.0,64.0,e',74.0
2767,126340.0,Note Off,0,0.0,69.0,98.0,0,2,,,,,,
2768,126476.0,Note Off,0,0.0,64.0,74.0,0,2,,,,,,
2769,126488.0,Note Off,0,0.0,49.0,91.0,0,2,,,,,,
2770,126520.0,Note On,0,0.0,64.0,92.0,0,2,388.0,2.0,0.0,64.0,e',92.0
2771,126520.0,Note On,0,0.0,64.0,92.0,0,2,380.0,2.0,0.0,67.0,g',91.0
2772,126520.0,Note On,0,0.0,64.0,92.0,0,2,576.0,5.0,3.0,67.0,g',73.0
2773,126520.0,Note On,0,0.0,67.0,91.0,0,2,388.0,2.0,0.0,64.0,e',92.0
2774,126520.0,Note On,0,0.0,67.0,91.0,0,2,380.0,2.0,0.0,67.0,g',91.0
2775,126520.0,Note On,0,0.0,67.0,91.0,0,2,576.0,5.0,3.0,67.0,g',73.0
2776,126524.0,Note On,0,0.0,49.0,80.0,0,2,164.0,2.0,0.0,49.0,c#,80.0
2777,126524.0,Note On,0,0.0,49.0,80.0,0,2,52.0,11.0,9.0,42.0,F#,31.0
2778,126688.0,Note Off,0,0.0,49.0,80.0,0,2,,,,,,
2779,126720.0,Note On,0,0.0,46.0,92.0,0,2,384.0,2.0,0.0,46.0,A#,92.0
2780,126720.0,Note On,0,0.0,46.0,92.0,0,2,512.0,3.0,1.0,34.0,"A#,",82.0
2781,126720.0,Note On,0,0.0,46.0,92.0,0,2,240.0,11.0,9.0,38.0,D,73.0
2782,126720.0,Note On,0,0.0,46.0,92.0,0,2,112.0,11.0,9.0,42.0,F#,75.0
2783,126900.0,Note Off,0,0.0,67.0,91.0,0,2,,,,,,
2784,126908.0,Note Off,0,0.0,64.0,92.0,0,2,556.0,2.0,0.0,66.0,f#',70.0
2785,126908.0,Note Off,0,0.0,64.0,92.0,0,2,56.0,11.0,9.0,42.0,F#,23.0
2786,126908.0,Note On,0,0.0,66.0,70.0,0,2,556.0,2.0,0.0,66.0,f#',70.0
2787,126908.0,Note On,0,0.0,66.0,70.0,0,2,56.0,11.0,9.0,42.0,F#,23.0
2788,127096.0,Note On,0,0.0,58.0,66.0,0,2,380.0,2.0,0.0,58.0,a#,66.0
2789,127104.0,Note Off,0,0.0,46.0,92.0,0,2,328.0,2.0,0.0,42.0,F#,92.0
2790,127104.0,Note Off,0,0.0,46.0,92.0,0,2,140.0,11.0,9.0,42.0,F#,72.0
2791,127104.0,Note On,0,0.0,42.0,92.0,0,2,328.0,2.0,0.0,42.0,F#,92.0
2792,127104.0,Note On,0,0.0,42.0,92.0,0,2,140.0,11.0,9.0,42.0,F#,72.0
2793,127284.0,Note On,0,0.0,61.0,74.0,0,2,184.0,2.0,0.0,61.0,c#',74.0
2794,127432.0,Note Off,0,0.0,42.0,92.0,0,2,,,,,,
2795,127464.0,Note Off,0,0.0,66.0,70.0,0,2,,,,,,
2796,127468.0,Note Off,0,0.0,61.0,74.0,0,2,,,,,,
2797,127472.0,Note On,0,0.0,47.0,92.0,0,2,776.0,2.0,0.0,47.0,B,92.0
2798,127476.0,Note Off,0,0.0,58.0,66.0,0,2,704.0,2.0,0.0,54.0,f#,74.0
2799,127476.0,Note On,0,0.0,54.0,74.0,0,2,704.0,2.0,0.0,54.0,f#,74.0
2800,127672.0,Note On,0,0.0,61.0,70.0,0,2,516.0,2.0,0.0,61.0,c#',70.0
2801,127856.0,Note On,0,0.0,62.0,74.0,0,2,348.0,2.0,0.0,62.0,d',74.0
2802,128180.0,Note Off,0,0.0,54.0,74.0,0,2,,,,,,
2803,128188.0,Note Off,0,0.0,61.0,70.0,0,2,,,,,,
2804,128204.0,Note Off,0,0.0,62.0,74.0,0,2,,,,,,
2805,128240.0,Note On,0,0.0,45.0,92.0,0,2,780.0,2.0,0.0,45.0,A,92.0
2806,128240.0,Note On,0,0.0,45.0,92.0,0,2,236.0,2.0,0.0,62.0,d',70.0
2807,128240.0,Note On,0,0.0,62.0,70.0,0,2,780.0,2.0,0.0,45.0,A,92.0
2808,128240.0,Note On,0,0.0,62.0,70.0,0,2,236.0,2.0,0.0,62.0,d',70.0
2809,128244.0,Note On,0,0.0,66.0,101.0,0,2,280.0,2.0,0.0,66.0,f#',101.0
2810,128248.0,Note Off,0,0.0,47.0,92.0,0,2,276.0,4.0,2.0,90.0,f#''',60.0
2811,128476.0,Note Off,0,0.0,62.0,70.0,0,2,,,,,,
2812,128508.0,Note On,0,0.0,64.0,74.0,0,2,212.0,2.0,0.0,64.0,e',74.0
2813,128508.0,Note On,0,0.0,64.0,74.0,0,2,308.0,2.0,0.0,67.0,g',92.0
2814,128508.0,Note On,0,0.0,64.0,74.0,0,2,292.0,4.0,2.0,91.0,g''',73.0
2815,128508.0,Note On,0,0.0,67.0,92.0,0,2,212.0,2.0,0.0,64.0,e',74.0
2816,128508.0,Note On,0,0.0,67.0,92.0,0,2,308.0,2.0,0.0,67.0,g',92.0
2817,128508.0,Note On,0,0.0,67.0,92.0,0,2,292.0,4.0,2.0,91.0,g''',73.0
2818,128524.0,Note Off,0,0.0,66.0,101.0,0,2,,,,,,
2819,128720.0,Note Off,0,0.0,64.0,74.0,0,2,,,,,,
2820,128760.0,Note On,0,0.0,66.0,83.0,0,2,220.0,2.0,0.0,66.0,f#',83.0
2821,128760.0,Note On,0,0.0,66.0,83.0,0,2,3320.0,4.0,2.0,93.0,a''',65.0
2822,128764.0,Note On,0,0.0,69.0,97.0,0,2,260.0,2.0,0.0,69.0,a',97.0
2823,128764.0,Note On,0,0.0,69.0,97.0,0,2,200.0,5.0,3.0,69.0,a',73.0
2824,128816.0,Note Off,0,0.0,67.0,92.0,0,2,,,,,,
2825,128980.0,Note Off,0,0.0,66.0,83.0,0,2,,,,,,
2826,129016.0,Note On,0,0.0,43.0,91.0,0,2,740.0,2.0,0.0,43.0,G,91.0
2827,129020.0,Note Off,0,0.0,45.0,92.0,0,2,200.0,2.0,0.0,64.0,e',92.0
2828,129020.0,Note Off,0,0.0,45.0,92.0,0,2,772.0,2.0,0.0,73.0,c#'',99.0
2829,129020.0,Note On,0,0.0,64.0,92.0,0,2,200.0,2.0,0.0,64.0,e',92.0
2830,129020.0,Note On,0,0.0,64.0,92.0,0,2,772.0,2.0,0.0,73.0,c#'',99.0
2831,129020.0,Note On,0,0.0,73.0,99.0,0,2,200.0,2.0,0.0,64.0,e',92.0
2832,129020.0,Note On,0,0.0,73.0,99.0,0,2,772.0,2.0,0.0,73.0,c#'',99.0
2833,129024.0,Note Off,0,0.0,69.0,97.0,0,2,540.0,3.0,1.0,31.0,"G,",82.0
2834,129024.0,Note Off,0,0.0,69.0,97.0,0,2,96.0,11.0,9.0,35.0,"B,",82.0
2835,129024.0,Note Off,0,0.0,69.0,97.0,0,2,80.0,11.0,9.0,49.0,c#,64.0
2836,129204.0,Note On,0,0.0,71.0,85.0,0,2,204.0,2.0,0.0,71.0,b',85.0
2837,129220.0,Note Off,0,0.0,64.0,92.0,0,2,,,,,,
2838,129392.0,Note On,0,0.0,64.0,76.0,0,2,400.0,2.0,0.0,64.0,e',76.0
2839,129392.0,Note On,0,0.0,64.0,76.0,0,2,168.0,5.0,3.0,71.0,b',64.0
2840,129408.0,Note Off,0,0.0,71.0,85.0,0,2,120.0,11.0,9.0,42.0,F#,69.0
2841,129588.0,Note On,0,0.0,69.0,74.0,0,2,180.0,2.0,0.0,69.0,a',74.0
2842,129756.0,Note Off,0,0.0,43.0,91.0,0,2,,,,,,
2843,129768.0,Note Off,0,0.0,69.0,74.0,0,2,,,,,,
2844,129784.0,Note On,0,0.0,42.0,92.0,0,2,724.0,2.0,0.0,42.0,F#,92.0
2845,129784.0,Note On,0,0.0,42.0,92.0,0,2,208.0,2.0,0.0,62.0,d',91.0
2846,129784.0,Note On,0,0.0,42.0,92.0,0,2,412.0,2.0,0.0,69.0,a',97.0
2847,129784.0,Note On,0,0.0,62.0,91.0,0,2,724.0,2.0,0.0,42.0,F#,92.0
2848,129784.0,Note On,0,0.0,62.0,91.0,0,2,208.0,2.0,0.0,62.0,d',91.0
2849,129784.0,Note On,0,0.0,62.0,91.0,0,2,412.0,2.0,0.0,69.0,a',97.0
2850,129784.0,Note On,0,0.0,69.0,97.0,0,2,724.0,2.0,0.0,42.0,F#,92.0
2851,129784.0,Note On,0,0.0,69.0,97.0,0,2,208.0,2.0,0.0,62.0,d',91.0
2852,129784.0,Note On,0,0.0,69.0,97.0,0,2,412.0,2.0,0.0,69.0,a',97.0
2853,129792.0,Note Off,0,0.0,64.0,76.0,0,2,536.0,3.0,1.0,30.0,"F#,",82.0
2854,129792.0,Note Off,0,0.0,64.0,76.0,0,2,240.0,11.0,9.0,38.0,D,73.0
2855,129792.0,Note Off,0,0.0,64.0,76.0,0,2,112.0,11.0,9.0,42.0,F#,75.0
2856,129792.0,Note Off,0,0.0,73.0,99.0,0,2,536.0,3.0,1.0,30.0,"F#,",82.0
2857,129792.0,Note Off,0,0.0,73.0,99.0,0,2,240.0,11.0,9.0,38.0,D,73.0
2858,129792.0,Note Off,0,0.0,73.0,99.0,0,2,112.0,11.0,9.0,42.0,F#,75.0
2859,129984.0,Note On,0,0.0,61.0,68.0,0,2,520.0,2.0,0.0,61.0,c#',68.0
2860,129992.0,Note Off,0,0.0,62.0,91.0,0,2,,,,,,
2861,130168.0,Note On,0,0.0,62.0,74.0,0,2,372.0,2.0,0.0,62.0,d',74.0
2862,130196.0,Note Off,0,0.0,69.0,97.0,0,2,,,,,,
2863,130360.0,Note On,0,0.0,69.0,83.0,0,2,184.0,2.0,0.0,69.0,a',83.0
2864,130504.0,Note Off,0,0.0,61.0,68.0,0,2,,,,,,
2865,130508.0,Note Off,0,0.0,42.0,92.0,0,2,,,,,,
2866,130540.0,Note Off,0,0.0,62.0,74.0,0,2,,,,,,
2867,130544.0,Note Off,0,0.0,69.0,83.0,0,2,,,,,,
2868,130556.0,Note On,0,0.0,43.0,94.0,0,2,692.0,2.0,0.0,43.0,G,94.0
2869,130556.0,Note On,0,0.0,43.0,94.0,0,2,340.0,5.0,3.0,73.0,c#'',82.0
2870,130560.0,Note On,0,0.0,69.0,83.0,0,2,328.0,2.0,0.0,69.0,a',83.0
2871,130560.0,Note On,0,0.0,69.0,83.0,0,2,300.0,2.0,0.0,73.0,c#'',96.0
2872,130560.0,Note On,0,0.0,69.0,83.0,0,2,540.0,3.0,1.0,31.0,"G,",82.0
2873,130560.0,Note On,0,0.0,69.0,83.0,0,2,96.0,11.0,9.0,35.0,"B,",82.0
2874,130560.0,Note On,0,0.0,69.0,83.0,0,2,108.0,11.0,9.0,42.0,F#,72.0
2875,130560.0,Note On,0,0.0,69.0,83.0,0,2,80.0,11.0,9.0,52.0,e,64.0
2876,130560.0,Note On,0,0.0,73.0,96.0,0,2,328.0,2.0,0.0,69.0,a',83.0
2877,130560.0,Note On,0,0.0,73.0,96.0,0,2,300.0,2.0,0.0,73.0,c#'',96.0
2878,130560.0,Note On,0,0.0,73.0,96.0,0,2,540.0,3.0,1.0,31.0,"G,",82.0
2879,130560.0,Note On,0,0.0,73.0,96.0,0,2,96.0,11.0,9.0,35.0,"B,",82.0
2880,130560.0,Note On,0,0.0,73.0,96.0,0,2,108.0,11.0,9.0,42.0,F#,72.0
2881,130560.0,Note On,0,0.0,73.0,96.0,0,2,80.0,11.0,9.0,52.0,e,64.0
2882,130748.0,Note On,0,0.0,62.0,58.0,0,2,636.0,2.0,0.0,62.0,d',58.0
2883,130748.0,Note On,0,0.0,62.0,58.0,0,2,44.0,11.0,9.0,42.0,F#,23.0
2884,130860.0,Note Off,0,0.0,73.0,96.0,0,2,,,,,,
2885,130888.0,Note Off,0,0.0,69.0,83.0,0,2,,,,,,
2886,130932.0,Note On,0,0.0,74.0,83.0,0,2,1120.0,2.0,0.0,74.0,d'',83.0
2887,131124.0,Note On,0,0.0,69.0,94.0,0,2,892.0,2.0,0.0,69.0,a',94.0
2888,131248.0,Note Off,0,0.0,43.0,94.0,0,2,,,,,,
2889,131320.0,Note On,0,0.0,42.0,83.0,0,2,776.0,2.0,0.0,42.0,F#,83.0
2890,131384.0,Note Off,0,0.0,62.0,58.0,0,2,,,,,,
2891,131500.0,Note On,0,0.0,62.0,76.0,0,2,548.0,2.0,0.0,62.0,d',76.0
2892,132016.0,Note Off,0,0.0,69.0,94.0,0,2,,,,,,
2893,132048.0,Note Off,0,0.0,62.0,76.0,0,2,,,,,,
2894,132052.0,Note Off,0,0.0,74.0,83.0,0,2,,,,,,
2895,132096.0,Note Off,0,0.0,42.0,83.0,0,2,756.0,2.0,0.0,69.0,a',101.0
2896,132096.0,Note Off,0,0.0,42.0,83.0,0,2,696.0,3.0,1.0,31.0,"G,",82.0
2897,132096.0,Note Off,0,0.0,42.0,83.0,0,2,96.0,11.0,9.0,35.0,"B,",82.0
2898,132096.0,Note Off,0,0.0,42.0,83.0,0,2,108.0,11.0,9.0,42.0,F#,72.0
2899,132096.0,Note Off,0,0.0,42.0,83.0,0,2,80.0,11.0,9.0,49.0,c#,64.0
2900,132096.0,Note On,0,0.0,69.0,101.0,0,2,756.0,2.0,0.0,69.0,a',101.0
2901,132096.0,Note On,0,0.0,69.0,101.0,0,2,696.0,3.0,1.0,31.0,"G,",82.0
2902,132096.0,Note On,0,0.0,69.0,101.0,0,2,96.0,11.0,9.0,35.0,"B,",82.0
2903,132096.0,Note On,0,0.0,69.0,101.0,0,2,108.0,11.0,9.0,42.0,F#,72.0
2904,132096.0,Note On,0,0.0,69.0,101.0,0,2,80.0,11.0,9.0,49.0,c#,64.0
2905,132100.0,Note On,0,0.0,43.0,92.0,0,2,744.0,2.0,0.0,43.0,G,92.0
2906,132100.0,Note On,0,0.0,43.0,92.0,0,2,744.0,2.0,0.0,65.0,f',70.0
2907,132100.0,Note On,0,0.0,43.0,92.0,0,2,764.0,2.0,0.0,73.0,c#'',83.0
2908,132100.0,Note On,0,0.0,65.0,70.0,0,2,744.0,2.0,0.0,43.0,G,92.0
2909,132100.0,Note On,0,0.0,65.0,70.0,0,2,744.0,2.0,0.0,65.0,f',70.0
2910,132100.0,Note On,0,0.0,65.0,70.0,0,2,764.0,2.0,0.0,73.0,c#'',83.0
2911,132100.0,Note On,0,0.0,73.0,83.0,0,2,744.0,2.0,0.0,43.0,G,92.0
2912,132100.0,Note On,0,0.0,73.0,83.0,0,2,744.0,2.0,0.0,65.0,f',70.0
2913,132100.0,Note On,0,0.0,73.0,83.0,0,2,764.0,2.0,0.0,73.0,c#'',83.0
2914,132484.0,Note On,0,0.0,71.0,92.0,0,2,368.0,2.0,0.0,71.0,b',92.0
2915,132844.0,Note Off,0,0.0,65.0,70.0,0,2,,,,,,
2916,132844.0,Note Off,0,0.0,43.0,92.0,0,2,,,,,,
2917,132852.0,Note Off,0,0.0,71.0,92.0,0,2,1564.0,4.0,2.0,85.0,c#''',64.0
2918,132852.0,Note Off,0,0.0,69.0,101.0,0,2,1564.0,4.0,2.0,85.0,c#''',64.0
2919,132860.0,Note On,0,0.0,42.0,101.0,0,2,368.0,2.0,0.0,42.0,F#,101.0
2920,132860.0,Note On,0,0.0,42.0,101.0,0,2,360.0,2.0,0.0,61.0,c#',83.0
2921,132860.0,Note On,0,0.0,42.0,101.0,0,2,368.0,5.0,3.0,69.0,a',60.0
2922,132860.0,Note On,0,0.0,61.0,83.0,0,2,368.0,2.0,0.0,42.0,F#,101.0
2923,132860.0,Note On,0,0.0,61.0,83.0,0,2,360.0,2.0,0.0,61.0,c#',83.0
2924,132860.0,Note On,0,0.0,61.0,83.0,0,2,368.0,5.0,3.0,69.0,a',60.0
2925,132864.0,Note Off,0,0.0,73.0,83.0,0,2,316.0,3.0,1.0,30.0,"F#,",82.0
2926,132864.0,Note Off,0,0.0,73.0,83.0,0,2,240.0,11.0,9.0,38.0,D,73.0
2927,132864.0,Note Off,0,0.0,73.0,83.0,0,2,112.0,11.0,9.0,42.0,F#,75.0
2928,132868.0,Note On,0,0.0,64.0,92.0,0,2,752.0,2.0,0.0,64.0,e',92.0
2929,132868.0,Note On,0,0.0,64.0,92.0,0,2,748.0,2.0,0.0,69.0,a',83.0
2930,132868.0,Note On,0,0.0,69.0,83.0,0,2,752.0,2.0,0.0,64.0,e',92.0
2931,132868.0,Note On,0,0.0,69.0,83.0,0,2,748.0,2.0,0.0,69.0,a',83.0
2932,132872.0,Note On,0,0.0,66.0,83.0,0,2,728.0,2.0,0.0,66.0,f#',83.0
2933,133220.0,Note Off,0,0.0,61.0,83.0,0,2,,,,,,
2934,133228.0,Note Off,0,0.0,42.0,101.0,0,2,,,,,,
2935,133248.0,Note On,0,0.0,62.0,74.0,0,2,376.0,2.0,0.0,62.0,d',74.0
2936,133248.0,Note On,0,0.0,62.0,74.0,0,2,316.0,3.0,1.0,26.0,"D,",82.0
2937,133248.0,Note On,0,0.0,62.0,74.0,0,2,140.0,11.0,9.0,42.0,F#,72.0
2938,133252.0,Note On,0,0.0,38.0,92.0,0,2,360.0,2.0,0.0,38.0,D,92.0
2939,133600.0,Note Off,0,0.0,66.0,83.0,0,2,,,,,,
2940,133612.0,Note Off,0,0.0,38.0,92.0,0,2,,,,,,
2941,133616.0,Note Off,0,0.0,69.0,83.0,0,2,,,,,,
2942,133620.0,Note Off,0,0.0,64.0,92.0,0,2,,,,,,
2943,133624.0,Note Off,0,0.0,62.0,74.0,0,2,,,,,,
2944,133628.0,Note On,0,0.0,58.0,74.0,0,2,768.0,2.0,0.0,58.0,a#,74.0
2945,133632.0,Note On,0,0.0,61.0,83.0,0,2,756.0,2.0,0.0,61.0,c#',83.0
2946,133632.0,Note On,0,0.0,61.0,83.0,0,2,760.0,2.0,0.0,66.0,f#',84.0
2947,133632.0,Note On,0,0.0,61.0,83.0,0,2,720.0,3.0,1.0,34.0,"A#,",82.0
2948,133632.0,Note On,0,0.0,61.0,83.0,0,2,96.0,11.0,9.0,35.0,"B,",82.0
2949,133632.0,Note On,0,0.0,61.0,83.0,0,2,108.0,11.0,9.0,42.0,F#,72.0
2950,133632.0,Note On,0,0.0,61.0,83.0,0,2,80.0,11.0,9.0,52.0,e,64.0
2951,133632.0,Note On,0,0.0,66.0,84.0,0,2,756.0,2.0,0.0,61.0,c#',83.0
2952,133632.0,Note On,0,0.0,66.0,84.0,0,2,760.0,2.0,0.0,66.0,f#',84.0
2953,133632.0,Note On,0,0.0,66.0,84.0,0,2,720.0,3.0,1.0,34.0,"A#,",82.0
2954,133632.0,Note On,0,0.0,66.0,84.0,0,2,96.0,11.0,9.0,35.0,"B,",82.0
2955,133632.0,Note On,0,0.0,66.0,84.0,0,2,108.0,11.0,9.0,42.0,F#,72.0
2956,133632.0,Note On,0,0.0,66.0,84.0,0,2,80.0,11.0,9.0,52.0,e,64.0
2957,133636.0,Note On,0,0.0,46.0,92.0,0,2,704.0,2.0,0.0,46.0,A#,92.0
2958,133636.0,Note On,0,0.0,46.0,92.0,0,2,744.0,2.0,0.0,64.0,e',92.0
2959,133636.0,Note On,0,0.0,64.0,92.0,0,2,704.0,2.0,0.0,46.0,A#,92.0
2960,133636.0,Note On,0,0.0,64.0,92.0,0,2,744.0,2.0,0.0,64.0,e',92.0
2961,134340.0,Note Off,0,0.0,46.0,92.0,0,2,,,,,,
2962,134380.0,Note Off,0,0.0,64.0,92.0,0,2,,,,,,
2963,134388.0,Note Off,0,0.0,61.0,83.0,0,2,696.0,2.0,0.0,47.0,B,101.0
2964,134388.0,Note Off,0,0.0,61.0,83.0,0,2,764.0,2.0,0.0,57.0,a,92.0
2965,134388.0,Note Off,0,0.0,61.0,83.0,0,2,752.0,2.0,0.0,62.0,d',101.0
2966,134388.0,Note On,0,0.0,47.0,101.0,0,2,696.0,2.0,0.0,47.0,B,101.0
2967,134388.0,Note On,0,0.0,47.0,101.0,0,2,764.0,2.0,0.0,57.0,a,92.0
2968,134388.0,Note On,0,0.0,47.0,101.0,0,2,752.0,2.0,0.0,62.0,d',101.0
2969,134388.0,Note On,0,0.0,57.0,92.0,0,2,696.0,2.0,0.0,47.0,B,101.0
2970,134388.0,Note On,0,0.0,57.0,92.0,0,2,764.0,2.0,0.0,57.0,a,92.0
2971,134388.0,Note On,0,0.0,57.0,92.0,0,2,752.0,2.0,0.0,62.0,d',101.0
2972,134388.0,Note On,0,0.0,62.0,101.0,0,2,696.0,2.0,0.0,47.0,B,101.0
2973,134388.0,Note On,0,0.0,62.0,101.0,0,2,764.0,2.0,0.0,57.0,a,92.0
2974,134388.0,Note On,0,0.0,62.0,101.0,0,2,752.0,2.0,0.0,62.0,d',101.0
2975,134392.0,Note Off,0,0.0,66.0,84.0,0,2,436.0,5.0,3.0,62.0,d',73.0
2976,134396.0,Note Off,0,0.0,58.0,74.0,0,2,,,,,,
2977,134584.0,Note On,0,0.0,64.0,83.0,0,2,568.0,2.0,0.0,64.0,e',83.0
2978,134772.0,Note On,0,0.0,66.0,101.0,0,2,356.0,2.0,0.0,66.0,f#',101.0
2979,135084.0,Note Off,0,0.0,47.0,101.0,0,2,,,,,,
2980,135128.0,Note Off,0,0.0,66.0,101.0,0,2,,,,,,
2981,135140.0,Note Off,0,0.0,62.0,101.0,0,2,788.0,4.0,2.0,78.0,f#'',52.0
2982,135152.0,Note Off,0,0.0,64.0,83.0,0,2,748.0,2.0,0.0,40.0,E,83.0
2983,135152.0,Note Off,0,0.0,57.0,92.0,0,2,748.0,2.0,0.0,40.0,E,83.0
2984,135152.0,Note On,0,0.0,40.0,83.0,0,2,748.0,2.0,0.0,40.0,E,83.0
2985,135164.0,Note On,0,0.0,57.0,92.0,0,2,684.0,2.0,0.0,57.0,a,92.0
2986,135164.0,Note On,0,0.0,57.0,92.0,0,2,728.0,2.0,0.0,62.0,d',86.0
2987,135164.0,Note On,0,0.0,57.0,92.0,0,2,628.0,2.0,0.0,66.0,f#',93.0
2988,135164.0,Note On,0,0.0,62.0,86.0,0,2,684.0,2.0,0.0,57.0,a,92.0
2989,135164.0,Note On,0,0.0,62.0,86.0,0,2,728.0,2.0,0.0,62.0,d',86.0
2990,135164.0,Note On,0,0.0,62.0,86.0,0,2,628.0,2.0,0.0,66.0,f#',93.0
2991,135164.0,Note On,0,0.0,66.0,93.0,0,2,684.0,2.0,0.0,57.0,a,92.0
2992,135164.0,Note On,0,0.0,66.0,93.0,0,2,728.0,2.0,0.0,62.0,d',86.0
2993,135164.0,Note On,0,0.0,66.0,93.0,0,2,628.0,2.0,0.0,66.0,f#',93.0
2994,135792.0,Note Off,0,0.0,66.0,93.0,0,2,,,,,,
2995,135848.0,Note Off,0,0.0,57.0,92.0,0,2,,,,,,
2996,135892.0,Note Off,0,0.0,62.0,86.0,0,2,,,,,,
2997,135900.0,Note Off,0,0.0,40.0,83.0,0,2,5824.0,4.0,2.0,74.0,d'',52.0
2998,135932.0,Note On,0,0.0,40.0,92.0,0,2,756.0,2.0,0.0,40.0,E,92.0
2999,135932.0,Note On,0,0.0,40.0,92.0,0,2,776.0,2.0,0.0,56.0,g#,83.0
3000,135932.0,Note On,0,0.0,56.0,83.0,0,2,756.0,2.0,0.0,40.0,E,92.0
3001,135932.0,Note On,0,0.0,56.0,83.0,0,2,776.0,2.0,0.0,56.0,g#,83.0
3002,135936.0,Note On,0,0.0,64.0,83.0,0,2,732.0,2.0,0.0,64.0,e',83.0
3003,135936.0,Note On,0,0.0,64.0,83.0,0,2,240.0,11.0,9.0,38.0,D,73.0
3004,135936.0,Note On,0,0.0,64.0,83.0,0,2,112.0,11.0,9.0,42.0,F#,75.0
3005,135940.0,Note On,0,0.0,59.0,92.0,0,2,708.0,2.0,0.0,59.0,b,92.0
3006,136648.0,Note Off,0,0.0,59.0,92.0,0,2,,,,,,
3007,136668.0,Note Off,0,0.0,64.0,83.0,0,2,,,,,,
3008,136688.0,Note Off,0,0.0,40.0,92.0,0,2,,,,,,
3009,136696.0,Note On,0,0.0,67.0,92.0,0,2,748.0,2.0,0.0,48.0,c,97.0
3010,136696.0,Note On,0,0.0,67.0,92.0,0,2,716.0,2.0,0.0,59.0,b,101.0
3011,136696.0,Note On,0,0.0,67.0,92.0,0,2,416.0,2.0,0.0,67.0,g',92.0
3012,136696.0,Note On,0,0.0,48.0,97.0,0,2,748.0,2.0,0.0,48.0,c,97.0
3013,136696.0,Note On,0,0.0,48.0,97.0,0,2,716.0,2.0,0.0,59.0,b,101.0
3014,136696.0,Note On,0,0.0,48.0,97.0,0,2,416.0,2.0,0.0,67.0,g',92.0
3015,136696.0,Note On,0,0.0,59.0,101.0,0,2,748.0,2.0,0.0,48.0,c,97.0
3016,136696.0,Note On,0,0.0,59.0,101.0,0,2,716.0,2.0,0.0,59.0,b,101.0
3017,136696.0,Note On,0,0.0,59.0,101.0,0,2,416.0,2.0,0.0,67.0,g',92.0
3018,136700.0,Note On,0,0.0,62.0,83.0,0,2,744.0,2.0,0.0,62.0,d',83.0
3019,136708.0,Note Off,0,0.0,56.0,83.0,0,2,,,,,,
3020,137080.0,Note On,0,0.0,66.0,83.0,0,2,376.0,2.0,0.0,66.0,f#',83.0
3021,137112.0,Note Off,0,0.0,67.0,92.0,0,2,,,,,,
3022,137412.0,Note Off,0,0.0,59.0,101.0,0,2,,,,,,
3023,137444.0,Note Off,0,0.0,62.0,83.0,0,2,,,,,,
3024,137444.0,Note Off,0,0.0,48.0,97.0,0,2,,,,,,
3025,137456.0,Note Off,0,0.0,66.0,83.0,0,2,,,,,,
3026,137472.0,Note On,0,0.0,45.0,97.0,0,2,748.0,2.0,0.0,45.0,A,97.0
3027,137472.0,Note On,0,0.0,45.0,97.0,0,2,804.0,2.0,0.0,59.0,b,83.0
3028,137472.0,Note On,0,0.0,45.0,97.0,0,2,820.0,2.0,0.0,64.0,e',83.0
3029,137472.0,Note On,0,0.0,45.0,97.0,0,2,700.0,3.0,1.0,33.0,"A,",82.0
3030,137472.0,Note On,0,0.0,45.0,97.0,0,2,96.0,11.0,9.0,54.0,f#,91.0
3031,137472.0,Note On,0,0.0,59.0,83.0,0,2,748.0,2.0,0.0,45.0,A,97.0
3032,137472.0,Note On,0,0.0,59.0,83.0,0,2,804.0,2.0,0.0,59.0,b,83.0
3033,137472.0,Note On,0,0.0,59.0,83.0,0,2,820.0,2.0,0.0,64.0,e',83.0
3034,137472.0,Note On,0,0.0,59.0,83.0,0,2,700.0,3.0,1.0,33.0,"A,",82.0
3035,137472.0,Note On,0,0.0,59.0,83.0,0,2,96.0,11.0,9.0,54.0,f#,91.0
3036,137472.0,Note On,0,0.0,64.0,83.0,0,2,748.0,2.0,0.0,45.0,A,97.0
3037,137472.0,Note On,0,0.0,64.0,83.0,0,2,804.0,2.0,0.0,59.0,b,83.0
3038,137472.0,Note On,0,0.0,64.0,83.0,0,2,820.0,2.0,0.0,64.0,e',83.0
3039,137472.0,Note On,0,0.0,64.0,83.0,0,2,700.0,3.0,1.0,33.0,"A,",82.0
3040,137472.0,Note On,0,0.0,64.0,83.0,0,2,96.0,11.0,9.0,54.0,f#,91.0
3041,137476.0,Note On,0,0.0,55.0,92.0,0,2,800.0,2.0,0.0,55.0,g,92.0
3042,137856.0,Note On,0,0.0,62.0,74.0,0,2,380.0,2.0,0.0,62.0,d',74.0
3043,137856.0,Note On,0,0.0,62.0,74.0,0,2,1336.0,9.0,7.0,86.0,d''',55.0
3044,138220.0,Note Off,0,0.0,45.0,97.0,0,2,,,,,,
3045,138236.0,Note Off,0,0.0,62.0,74.0,0,2,,,,,,
3046,138240.0,Note On,0,0.0,47.0,83.0,0,2,812.0,2.0,0.0,47.0,B,83.0
3047,138240.0,Note On,0,0.0,47.0,83.0,0,2,1500.0,3.0,1.0,35.0,"B,",82.0
3048,138240.0,Note On,0,0.0,47.0,83.0,0,2,1424.0,5.0,3.0,62.0,d',73.0
3049,138240.0,Note On,0,0.0,47.0,83.0,0,2,80.0,11.0,9.0,49.0,c#,34.0
3050,138276.0,Note Off,0,0.0,55.0,92.0,0,2,,,,,,
3051,138276.0,Note Off,0,0.0,59.0,83.0,0,2,,,,,,
3052,138292.0,Note Off,0,0.0,64.0,83.0,0,2,,,,,,
3053,138440.0,Note On,0,0.0,54.0,62.0,0,2,616.0,2.0,0.0,54.0,f#,62.0
3054,138632.0,Note On,0,0.0,61.0,74.0,0,2,436.0,2.0,0.0,61.0,c#',74.0
3055,138828.0,Note On,0,0.0,62.0,83.0,0,2,240.0,2.0,0.0,62.0,d',83.0
3056,139000.0,Note On,0,0.0,66.0,54.0,0,2,792.0,2.0,0.0,66.0,f#',54.0
3057,139008.0,Note On,0,0.0,57.0,74.0,0,2,752.0,2.0,0.0,57.0,a,74.0
3058,139052.0,Note Off,0,0.0,47.0,83.0,0,2,,,,,,
3059,139056.0,Note Off,0,0.0,54.0,62.0,0,2,,,,,,
3060,139068.0,Note Off,0,0.0,62.0,83.0,0,2,,,,,,
3061,139068.0,Note Off,0,0.0,61.0,74.0,0,2,,,,,,
3062,139200.0,Note On,0,0.0,71.0,70.0,0,2,596.0,2.0,0.0,71.0,b',70.0
3063,139200.0,Note On,0,0.0,71.0,70.0,0,2,588.0,14.0,12.0,60.0,c',43.0
3064,139380.0,Note On,0,0.0,73.0,74.0,0,2,424.0,2.0,0.0,73.0,c#'',74.0
3065,139576.0,Note On,0,0.0,74.0,83.0,0,2,220.0,2.0,0.0,74.0,d'',83.0
3066,139688.0,Note On,0,0.0,44.0,74.0,0,2,1624.0,2.0,0.0,44.0,G#,74.0
3067,139688.0,Note On,0,0.0,44.0,74.0,0,2,72.0,11.0,9.0,59.0,b,45.0
3068,139712.0,Note On,0,0.0,50.0,70.0,0,2,1584.0,2.0,0.0,50.0,d,70.0
3069,139740.0,Note On,0,0.0,59.0,78.0,0,2,1540.0,2.0,0.0,59.0,b,78.0
3070,139756.0,Note On,0,0.0,54.0,62.0,0,2,1556.0,2.0,0.0,54.0,f#,62.0
3071,139760.0,Note Off,0,0.0,57.0,74.0,0,2,,,,,,
3072,139792.0,Note Off,0,0.0,66.0,54.0,0,2,,,,,,
3073,139796.0,Note Off,0,0.0,74.0,83.0,0,2,,,,,,
3074,139796.0,Note Off,0,0.0,71.0,70.0,0,2,,,,,,
3075,139804.0,Note Off,0,0.0,73.0,74.0,0,2,,,,,,
3076,139936.0,Note On,0,0.0,66.0,58.0,0,2,1368.0,2.0,0.0,66.0,f#',58.0
3077,140144.0,Note On,0,0.0,71.0,83.0,0,2,1156.0,2.0,0.0,71.0,b',83.0
3078,140320.0,Note On,0,0.0,78.0,50.0,0,2,1024.0,2.0,0.0,78.0,f#'',50.0
3079,140536.0,Note On,0,0.0,83.0,74.0,0,2,788.0,2.0,0.0,83.0,b'',74.0
3080,141280.0,Note Off,0,0.0,59.0,78.0,0,2,,,,,,
3081,141296.0,Note Off,0,0.0,50.0,70.0,0,2,,,,,,
3082,141300.0,Note Off,0,0.0,71.0,83.0,0,2,,,,,,
3083,141304.0,Note Off,0,0.0,66.0,58.0,0,2,,,,,,
3084,141312.0,Note Off,0,0.0,54.0,62.0,0,2,,,,,,
3085,141312.0,Note Off,0,0.0,44.0,74.0,0,2,,,,,,
3086,141324.0,Note Off,0,0.0,83.0,74.0,0,2,,,,,,
3087,141344.0,Note Off,0,0.0,78.0,50.0,0,2,,,,,,
3088,141880.0,Note On,0,0.0,66.0,66.0,0,2,228.0,2.0,0.0,66.0,f#',66.0
3089,142084.0,Note On,0,0.0,67.0,83.0,0,2,372.0,2.0,0.0,67.0,g',83.0
3090,142108.0,Note Off,0,0.0,66.0,66.0,0,2,,,,,,
3091,142456.0,Note Off,0,0.0,67.0,83.0,0,2,,,,,,
3092,142468.0,Note On,0,0.0,71.0,85.0,0,2,380.0,2.0,0.0,71.0,b',85.0
3093,142468.0,Note On,0,0.0,71.0,85.0,0,2,328.0,5.0,3.0,71.0,b',60.0
3094,142748.0,Note On,0,0.0,59.0,62.0,0,2,900.0,2.0,0.0,59.0,b,62.0
3095,142800.0,Note On,0,0.0,61.0,72.0,0,2,848.0,2.0,0.0,61.0,c#',72.0
3096,142816.0,Note On,0,0.0,64.0,70.0,0,2,640.0,2.0,0.0,64.0,e',70.0
3097,142848.0,Note Off,0,0.0,71.0,85.0,0,2,1304.0,2.0,0.0,42.0,F#,82.0
3098,142848.0,Note Off,0,0.0,71.0,85.0,0,2,24.0,11.0,9.0,51.0,d#,52.0
3099,142848.0,Note Off,0,0.0,71.0,85.0,0,2,112.0,11.0,9.0,70.0,a#',69.0
3100,142848.0,Note On,0,0.0,42.0,82.0,0,2,1304.0,2.0,0.0,42.0,F#,82.0
3101,142848.0,Note On,0,0.0,42.0,82.0,0,2,24.0,11.0,9.0,51.0,d#,52.0
3102,142848.0,Note On,0,0.0,42.0,82.0,0,2,112.0,11.0,9.0,70.0,a#',69.0
3103,142872.0,Note On,0,0.0,69.0,88.0,0,2,1436.0,2.0,0.0,69.0,a',88.0
3104,143456.0,Note Off,0,0.0,64.0,70.0,0,2,,,,,,
3105,143600.0,Note On,0,0.0,64.0,74.0,0,2,232.0,2.0,0.0,64.0,e',74.0
3106,143648.0,Note Off,0,0.0,61.0,72.0,0,2,,,,,,
3107,143648.0,Note Off,0,0.0,59.0,62.0,0,2,,,,,,
3108,143800.0,Note On,0,0.0,57.0,58.0,0,2,220.0,2.0,0.0,57.0,a,58.0
3109,143832.0,Note Off,0,0.0,64.0,74.0,0,2,,,,,,
3110,143996.0,Note On,0,0.0,61.0,83.0,0,2,228.0,2.0,0.0,61.0,c#',83.0
3111,143996.0,Note On,0,0.0,61.0,83.0,0,2,360.0,5.0,3.0,64.0,e',49.0
3112,144020.0,Note Off,0,0.0,57.0,58.0,0,2,,,,,,
3113,144152.0,Note Off,0,0.0,42.0,82.0,0,2,,,,,,
3114,144184.0,Note On,0,0.0,62.0,66.0,0,2,220.0,2.0,0.0,62.0,d',66.0
3115,144224.0,Note Off,0,0.0,61.0,83.0,0,2,,,,,,
3116,144308.0,Note Off,0,0.0,69.0,88.0,0,2,,,,,,
3117,144384.0,Note On,0,0.0,43.0,76.0,0,2,1372.0,2.0,0.0,43.0,G,76.0
3118,144384.0,Note On,0,0.0,43.0,76.0,0,2,1484.0,2.0,0.0,55.0,g,62.0
3119,144384.0,Note On,0,0.0,55.0,62.0,0,2,1372.0,2.0,0.0,43.0,G,76.0
3120,144384.0,Note On,0,0.0,55.0,62.0,0,2,1484.0,2.0,0.0,55.0,g,62.0
3121,144388.0,Note On,0,0.0,59.0,74.0,0,2,1484.0,2.0,0.0,59.0,b,74.0
3122,144388.0,Note On,0,0.0,59.0,74.0,0,2,540.0,2.0,0.0,66.0,f#',73.0
3123,144388.0,Note On,0,0.0,66.0,73.0,0,2,1484.0,2.0,0.0,59.0,b,74.0
3124,144388.0,Note On,0,0.0,66.0,73.0,0,2,540.0,2.0,0.0,66.0,f#',73.0
3125,144404.0,Note Off,0,0.0,62.0,66.0,0,2,,,,,,
3126,144928.0,Note Off,0,0.0,66.0,73.0,0,2,,,,,,
3127,144944.0,Note On,0,0.0,66.0,54.0,0,2,232.0,2.0,0.0,66.0,f#',54.0
3128,145136.0,Note On,0,0.0,67.0,85.0,0,2,412.0,2.0,0.0,67.0,g',85.0
3129,145176.0,Note Off,0,0.0,66.0,54.0,0,2,,,,,,
3130,145332.0,Note On,0,0.0,57.0,66.0,0,2,560.0,2.0,0.0,57.0,a,66.0
3131,145524.0,Note On,0,0.0,71.0,83.0,0,2,384.0,2.0,0.0,71.0,b',83.0
3132,145548.0,Note Off,0,0.0,67.0,85.0,0,2,,,,,,
3133,145756.0,Note Off,0,0.0,43.0,76.0,0,2,,,,,,
3134,145868.0,Note Off,0,0.0,55.0,62.0,0,2,,,,,,
3135,145872.0,Note Off,0,0.0,59.0,74.0,0,2,,,,,,
3136,145892.0,Note Off,0,0.0,57.0,66.0,0,2,,,,,,
3137,145900.0,Note On,0,0.0,69.0,82.0,0,2,1504.0,2.0,0.0,69.0,a',82.0
3138,145908.0,Note Off,0,0.0,71.0,83.0,0,2,340.0,2.0,0.0,59.0,b,70.0
3139,145908.0,Note Off,0,0.0,71.0,83.0,0,2,560.0,2.0,0.0,61.0,c#',70.0
3140,145908.0,Note Off,0,0.0,71.0,83.0,0,2,1520.0,2.0,0.0,64.0,e',74.0
3141,145908.0,Note On,0,0.0,59.0,70.0,0,2,340.0,2.0,0.0,59.0,b,70.0
3142,145908.0,Note On,0,0.0,59.0,70.0,0,2,560.0,2.0,0.0,61.0,c#',70.0
3143,145908.0,Note On,0,0.0,59.0,70.0,0,2,1520.0,2.0,0.0,64.0,e',74.0
3144,145908.0,Note On,0,0.0,61.0,70.0,0,2,340.0,2.0,0.0,59.0,b,70.0
3145,145908.0,Note On,0,0.0,61.0,70.0,0,2,560.0,2.0,0.0,61.0,c#',70.0
3146,145908.0,Note On,0,0.0,61.0,70.0,0,2,1520.0,2.0,0.0,64.0,e',74.0
3147,145908.0,Note On,0,0.0,64.0,74.0,0,2,340.0,2.0,0.0,59.0,b,70.0
3148,145908.0,Note On,0,0.0,64.0,74.0,0,2,560.0,2.0,0.0,61.0,c#',70.0
3149,145908.0,Note On,0,0.0,64.0,74.0,0,2,1520.0,2.0,0.0,64.0,e',74.0
3150,145920.0,Note On,0,0.0,42.0,75.0,0,2,1380.0,2.0,0.0,42.0,F#,75.0
3151,145920.0,Note On,0,0.0,42.0,75.0,0,2,112.0,11.0,9.0,70.0,a#',69.0
3152,146248.0,Note Off,0,0.0,59.0,70.0,0,2,,,,,,
3153,146288.0,Note On,0,0.0,59.0,62.0,0,2,760.0,2.0,0.0,59.0,b,62.0
3154,146468.0,Note Off,0,0.0,61.0,70.0,0,2,,,,,,
3155,146488.0,Note On,0,0.0,62.0,76.0,0,2,224.0,2.0,0.0,62.0,d',76.0
3156,146676.0,Note On,0,0.0,52.0,59.0,0,2,228.0,2.0,0.0,52.0,e,59.0
3157,146712.0,Note Off,0,0.0,62.0,76.0,0,2,,,,,,
3158,146872.0,Note On,0,0.0,61.0,74.0,0,2,196.0,2.0,0.0,61.0,c#',74.0
3159,146904.0,Note Off,0,0.0,52.0,59.0,0,2,,,,,,
3160,147048.0,Note Off,0,0.0,59.0,62.0,0,2,,,,,,
3161,147068.0,Note Off,0,0.0,61.0,74.0,0,2,,,,,,
3162,147076.0,Note On,0,0.0,52.0,40.0,0,2,188.0,2.0,0.0,52.0,e,40.0
3163,147260.0,Note On,0,0.0,59.0,74.0,0,2,188.0,2.0,0.0,59.0,b,74.0
3164,147264.0,Note Off,0,0.0,52.0,40.0,0,2,,,,,,
3165,147300.0,Note Off,0,0.0,42.0,75.0,0,2,,,,,,
3166,147404.0,Note Off,0,0.0,69.0,82.0,0,2,,,,,,
3167,147428.0,Note Off,0,0.0,64.0,74.0,0,2,,,,,,
3168,147448.0,Note Off,0,0.0,59.0,74.0,0,2,,,,,,
3169,147456.0,Note On,0,0.0,43.0,75.0,0,2,1452.0,2.0,0.0,43.0,G,75.0
3170,147456.0,Note On,0,0.0,43.0,75.0,0,2,1484.0,2.0,0.0,55.0,g,62.0
3171,147456.0,Note On,0,0.0,55.0,62.0,0,2,1452.0,2.0,0.0,43.0,G,75.0
3172,147456.0,Note On,0,0.0,55.0,62.0,0,2,1484.0,2.0,0.0,55.0,g,62.0
3173,147460.0,Note On,0,0.0,59.0,74.0,0,2,1484.0,2.0,0.0,59.0,b,74.0
3174,147460.0,Note On,0,0.0,59.0,74.0,0,2,540.0,2.0,0.0,66.0,f#',73.0
3175,147460.0,Note On,0,0.0,66.0,73.0,0,2,1484.0,2.0,0.0,59.0,b,74.0
3176,147460.0,Note On,0,0.0,66.0,73.0,0,2,540.0,2.0,0.0,66.0,f#',73.0
3177,148000.0,Note Off,0,0.0,66.0,73.0,0,2,,,,,,
3178,148016.0,Note On,0,0.0,66.0,54.0,0,2,232.0,2.0,0.0,66.0,f#',54.0
3179,148208.0,Note On,0,0.0,67.0,85.0,0,2,412.0,2.0,0.0,67.0,g',85.0
3180,148248.0,Note Off,0,0.0,66.0,54.0,0,2,,,,,,
3181,148404.0,Note On,0,0.0,57.0,66.0,0,2,560.0,2.0,0.0,57.0,a,66.0
3182,148596.0,Note On,0,0.0,71.0,83.0,0,2,384.0,2.0,0.0,71.0,b',83.0
3183,148620.0,Note Off,0,0.0,67.0,85.0,0,2,,,,,,
3184,148908.0,Note Off,0,0.0,43.0,75.0,0,2,,,,,,
3185,148940.0,Note Off,0,0.0,55.0,62.0,0,2,76.0,11.0,9.0,51.0,d#,44.0
3186,148944.0,Note Off,0,0.0,59.0,74.0,0,2,,,,,,
3187,148964.0,Note Off,0,0.0,57.0,66.0,0,2,,,,,,
3188,148972.0,Note On,0,0.0,69.0,82.0,0,2,1504.0,2.0,0.0,69.0,a',82.0
3189,148980.0,Note Off,0,0.0,71.0,83.0,0,2,1360.0,2.0,0.0,42.0,F#,75.0
3190,148980.0,Note Off,0,0.0,71.0,83.0,0,2,780.0,2.0,0.0,59.0,b,70.0
3191,148980.0,Note Off,0,0.0,71.0,83.0,0,2,760.0,2.0,0.0,61.0,c#',70.0
3192,148980.0,Note Off,0,0.0,71.0,83.0,0,2,1520.0,2.0,0.0,64.0,e',74.0
3193,148980.0,Note On,0,0.0,42.0,75.0,0,2,1360.0,2.0,0.0,42.0,F#,75.0
3194,148980.0,Note On,0,0.0,42.0,75.0,0,2,780.0,2.0,0.0,59.0,b,70.0
3195,148980.0,Note On,0,0.0,42.0,75.0,0,2,760.0,2.0,0.0,61.0,c#',70.0
3196,148980.0,Note On,0,0.0,42.0,75.0,0,2,1520.0,2.0,0.0,64.0,e',74.0
3197,148980.0,Note On,0,0.0,59.0,70.0,0,2,1360.0,2.0,0.0,42.0,F#,75.0
3198,148980.0,Note On,0,0.0,59.0,70.0,0,2,780.0,2.0,0.0,59.0,b,70.0
3199,148980.0,Note On,0,0.0,59.0,70.0,0,2,760.0,2.0,0.0,61.0,c#',70.0
3200,148980.0,Note On,0,0.0,59.0,70.0,0,2,1520.0,2.0,0.0,64.0,e',74.0
3201,148980.0,Note On,0,0.0,61.0,70.0,0,2,1360.0,2.0,0.0,42.0,F#,75.0
3202,148980.0,Note On,0,0.0,61.0,70.0,0,2,780.0,2.0,0.0,59.0,b,70.0
3203,148980.0,Note On,0,0.0,61.0,70.0,0,2,760.0,2.0,0.0,61.0,c#',70.0
3204,148980.0,Note On,0,0.0,61.0,70.0,0,2,1520.0,2.0,0.0,64.0,e',74.0
3205,148980.0,Note On,0,0.0,64.0,74.0,0,2,1360.0,2.0,0.0,42.0,F#,75.0
3206,148980.0,Note On,0,0.0,64.0,74.0,0,2,780.0,2.0,0.0,59.0,b,70.0
3207,148980.0,Note On,0,0.0,64.0,74.0,0,2,760.0,2.0,0.0,61.0,c#',70.0
3208,148980.0,Note On,0,0.0,64.0,74.0,0,2,1520.0,2.0,0.0,64.0,e',74.0
3209,149740.0,Note Off,0,0.0,61.0,70.0,0,2,,,,,,
3210,149756.0,Note On,0,0.0,62.0,74.0,0,2,220.0,2.0,0.0,62.0,d',74.0
3211,149760.0,Note Off,0,0.0,59.0,70.0,0,2,,,,,,
3212,149976.0,Note Off,0,0.0,62.0,74.0,0,2,,,,,,
3213,150012.0,Note On,0,0.0,57.0,59.0,0,2,244.0,2.0,0.0,57.0,a,59.0
3214,150256.0,Note Off,0,0.0,57.0,59.0,0,2,216.0,2.0,0.0,62.0,d',70.0
3215,150256.0,Note On,0,0.0,62.0,70.0,0,2,216.0,2.0,0.0,62.0,d',70.0
3216,150340.0,Note Off,0,0.0,42.0,75.0,0,2,,,,,,
3217,150472.0,Note Off,0,0.0,62.0,70.0,0,2,572.0,5.0,3.0,57.0,a,40.0
3218,150476.0,Note Off,0,0.0,69.0,82.0,0,2,,,,,,
3219,150484.0,Note On,0,0.0,55.0,70.0,0,2,1500.0,2.0,0.0,55.0,g,70.0
3220,150500.0,Note Off,0,0.0,64.0,74.0,0,2,,,,,,
3221,150504.0,Note On,0,0.0,59.0,83.0,0,2,1520.0,2.0,0.0,59.0,b,83.0
3222,150504.0,Note On,0,0.0,59.0,83.0,0,2,1524.0,2.0,0.0,62.0,d',74.0
3223,150504.0,Note On,0,0.0,62.0,74.0,0,2,1520.0,2.0,0.0,59.0,b,83.0
3224,150504.0,Note On,0,0.0,62.0,74.0,0,2,1524.0,2.0,0.0,62.0,d',74.0
3225,150508.0,Note On,0,0.0,45.0,74.0,0,2,3028.0,2.0,0.0,45.0,A,74.0
3226,150512.0,Note On,0,0.0,66.0,74.0,0,2,3024.0,2.0,0.0,66.0,f#',74.0
3227,150512.0,Note On,0,0.0,66.0,74.0,0,2,1248.0,4.0,2.0,62.0,d',25.0
3228,151984.0,Note Off,0,0.0,55.0,70.0,0,2,,,,,,
3229,152024.0,Note Off,0,0.0,59.0,83.0,0,2,,,,,,
3230,152028.0,Note Off,0,0.0,62.0,74.0,0,2,,,,,,
3231,152064.0,Note On,0,0.0,61.0,70.0,0,2,1468.0,2.0,0.0,61.0,c#',70.0
3232,152076.0,Note On,0,0.0,55.0,70.0,0,2,1488.0,2.0,0.0,55.0,g,70.0
3233,153532.0,Note Off,0,0.0,61.0,70.0,0,2,,,,,,
3234,153536.0,Note Off,0,0.0,66.0,74.0,0,2,,,,,,
3235,153536.0,Note Off,0,0.0,45.0,74.0,0,2,,,,,,
3236,153564.0,Note Off,0,0.0,55.0,70.0,0,2,,,,,,
3237,153600.0,Note On,0,0.0,50.0,92.0,0,2,1436.0,2.0,0.0,50.0,d,92.0
3238,153600.0,Note On,0,0.0,50.0,92.0,0,2,160.0,2.0,0.0,57.0,a,83.0
3239,153600.0,Note On,0,0.0,50.0,92.0,0,2,24.0,11.0,9.0,51.0,d#,52.0
3240,153600.0,Note On,0,0.0,57.0,83.0,0,2,1436.0,2.0,0.0,50.0,d,92.0
3241,153600.0,Note On,0,0.0,57.0,83.0,0,2,160.0,2.0,0.0,57.0,a,83.0
3242,153600.0,Note On,0,0.0,57.0,83.0,0,2,24.0,11.0,9.0,51.0,d#,52.0
3243,153608.0,Note On,0,0.0,66.0,92.0,0,2,536.0,2.0,0.0,66.0,f#',92.0
3244,153760.0,Note Off,0,0.0,57.0,83.0,0,2,,,,,,
3245,153784.0,Note On,0,0.0,57.0,62.0,0,2,364.0,2.0,0.0,57.0,a,62.0
3246,153968.0,Note On,0,0.0,64.0,83.0,0,2,192.0,2.0,0.0,64.0,e',83.0
3247,154144.0,Note Off,0,0.0,66.0,92.0,0,2,,,,,,
3248,154148.0,Note Off,0,0.0,57.0,62.0,0,2,,,,,,
3249,154156.0,Note On,0,0.0,59.0,66.0,0,2,904.0,2.0,0.0,59.0,b,66.0
3250,154156.0,Note On,0,0.0,59.0,66.0,0,2,556.0,2.0,0.0,67.0,g',92.0
3251,154156.0,Note On,0,0.0,67.0,92.0,0,2,904.0,2.0,0.0,59.0,b,66.0
3252,154156.0,Note On,0,0.0,67.0,92.0,0,2,556.0,2.0,0.0,67.0,g',92.0
3253,154160.0,Note Off,0,0.0,64.0,83.0,0,2,,,,,,
3254,154548.0,Note On,0,0.0,66.0,79.0,0,2,1704.0,2.0,0.0,66.0,f#',79.0
3255,154712.0,Note Off,0,0.0,67.0,92.0,0,2,,,,,,
3256,154736.0,Note On,0,0.0,62.0,79.0,0,2,216.0,2.0,0.0,62.0,d',79.0
3257,154924.0,Note On,0,0.0,57.0,85.0,0,2,356.0,2.0,0.0,57.0,a,85.0
3258,154952.0,Note Off,0,0.0,62.0,79.0,0,2,,,,,,
3259,155036.0,Note Off,0,0.0,50.0,92.0,0,2,,,,,,
3260,155060.0,Note Off,0,0.0,59.0,66.0,0,2,,,,,,
3261,155128.0,Note On,0,0.0,50.0,87.0,0,2,1504.0,2.0,0.0,50.0,d,87.0
3262,155280.0,Note Off,0,0.0,57.0,85.0,0,2,,,,,,
3263,155312.0,Note On,0,0.0,57.0,59.0,0,2,216.0,2.0,0.0,57.0,a,59.0
3264,155504.0,Note On,0,0.0,62.0,83.0,0,2,1124.0,2.0,0.0,62.0,d',83.0
3265,155528.0,Note Off,0,0.0,57.0,59.0,0,2,,,,,,
3266,155676.0,Note On,0,0.0,69.0,70.0,0,2,240.0,2.0,0.0,69.0,a',70.0
3267,155696.0,Note On,0,0.0,57.0,70.0,0,2,916.0,2.0,0.0,57.0,a,70.0
3268,155896.0,Note On,0,0.0,78.0,74.0,0,2,224.0,2.0,0.0,78.0,f#'',74.0
3269,155896.0,Note On,0,0.0,78.0,74.0,0,2,216.0,9.0,7.0,78.0,f#'',64.0
3270,155916.0,Note Off,0,0.0,69.0,70.0,0,2,,,,,,
3271,156092.0,Note On,0,0.0,67.0,58.0,0,2,208.0,2.0,0.0,67.0,g',58.0
3272,156092.0,Note On,0,0.0,67.0,58.0,0,2,212.0,9.0,7.0,67.0,g',56.0
3273,156120.0,Note Off,0,0.0,78.0,74.0,0,2,,,,,,
3274,156252.0,Note Off,0,0.0,66.0,79.0,0,2,,,,,,
3275,156280.0,Note On,0,0.0,76.0,70.0,0,2,204.0,2.0,0.0,76.0,e'',70.0
3276,156300.0,Note Off,0,0.0,67.0,58.0,0,2,,,,,,
3277,156480.0,Note On,0,0.0,66.0,50.0,0,2,168.0,2.0,0.0,66.0,f#',50.0
3278,156480.0,Note On,0,0.0,66.0,50.0,0,2,24.0,11.0,9.0,51.0,d#,31.0
3279,156484.0,Note Off,0,0.0,76.0,70.0,0,2,,,,,,
3280,156612.0,Note Off,0,0.0,57.0,70.0,0,2,,,,,,
3281,156628.0,Note Off,0,0.0,62.0,83.0,0,2,,,,,,
3282,156632.0,Note Off,0,0.0,50.0,87.0,0,2,,,,,,
3283,156648.0,Note Off,0,0.0,66.0,50.0,0,2,,,,,,
3284,156668.0,Note On,0,0.0,69.0,62.0,0,2,588.0,2.0,0.0,69.0,a',62.0
3285,156668.0,Note On,0,0.0,69.0,62.0,0,2,744.0,9.0,7.0,74.0,d'',49.0
3286,156672.0,Note On,0,0.0,50.0,92.0,0,2,1316.0,2.0,0.0,50.0,d,92.0
3287,156672.0,Note On,0,0.0,50.0,92.0,0,2,156.0,2.0,0.0,57.0,a,83.0
3288,156672.0,Note On,0,0.0,50.0,92.0,0,2,536.0,2.0,0.0,66.0,f#',92.0
3289,156672.0,Note On,0,0.0,50.0,92.0,0,2,744.0,2.0,0.0,74.0,d'',66.0
3290,156672.0,Note On,0,0.0,50.0,92.0,0,2,24.0,11.0,9.0,51.0,d#,52.0
3291,156672.0,Note On,0,0.0,57.0,83.0,0,2,1316.0,2.0,0.0,50.0,d,92.0
3292,156672.0,Note On,0,0.0,57.0,83.0,0,2,156.0,2.0,0.0,57.0,a,83.0
3293,156672.0,Note On,0,0.0,57.0,83.0,0,2,536.0,2.0,0.0,66.0,f#',92.0
3294,156672.0,Note On,0,0.0,57.0,83.0,0,2,744.0,2.0,0.0,74.0,d'',66.0
3295,156672.0,Note On,0,0.0,57.0,83.0,0,2,24.0,11.0,9.0,51.0,d#,52.0
3296,156672.0,Note On,0,0.0,74.0,66.0,0,2,1316.0,2.0,0.0,50.0,d,92.0
3297,156672.0,Note On,0,0.0,74.0,66.0,0,2,156.0,2.0,0.0,57.0,a,83.0
3298,156672.0,Note On,0,0.0,74.0,66.0,0,2,536.0,2.0,0.0,66.0,f#',92.0
3299,156672.0,Note On,0,0.0,74.0,66.0,0,2,744.0,2.0,0.0,74.0,d'',66.0
3300,156672.0,Note On,0,0.0,74.0,66.0,0,2,24.0,11.0,9.0,51.0,d#,52.0
3301,156672.0,Note On,0,0.0,66.0,92.0,0,2,1316.0,2.0,0.0,50.0,d,92.0
3302,156672.0,Note On,0,0.0,66.0,92.0,0,2,156.0,2.0,0.0,57.0,a,83.0
3303,156672.0,Note On,0,0.0,66.0,92.0,0,2,536.0,2.0,0.0,66.0,f#',92.0
3304,156672.0,Note On,0,0.0,66.0,92.0,0,2,744.0,2.0,0.0,74.0,d'',66.0
3305,156672.0,Note On,0,0.0,66.0,92.0,0,2,24.0,11.0,9.0,51.0,d#,52.0
3306,156828.0,Note Off,0,0.0,57.0,83.0,0,2,,,,,,
3307,156848.0,Note On,0,0.0,57.0,70.0,0,2,216.0,2.0,0.0,57.0,a,70.0
3308,157040.0,Note On,0,0.0,64.0,83.0,0,2,184.0,2.0,0.0,64.0,e',83.0
3309,157064.0,Note Off,0,0.0,57.0,70.0,0,2,,,,,,
3310,157208.0,Note Off,0,0.0,66.0,92.0,0,2,,,,,,
3311,157224.0,Note Off,0,0.0,64.0,83.0,0,2,,,,,,
3312,157244.0,Note On,0,0.0,62.0,63.0,0,2,384.0,2.0,0.0,59.0,b,92.0
3313,157244.0,Note On,0,0.0,62.0,63.0,0,2,384.0,2.0,0.0,62.0,d',63.0
3314,157244.0,Note On,0,0.0,62.0,63.0,0,2,376.0,2.0,0.0,67.0,g',83.0
3315,157244.0,Note On,0,0.0,67.0,83.0,0,2,384.0,2.0,0.0,59.0,b,92.0
3316,157244.0,Note On,0,0.0,67.0,83.0,0,2,384.0,2.0,0.0,62.0,d',63.0
3317,157244.0,Note On,0,0.0,67.0,83.0,0,2,376.0,2.0,0.0,67.0,g',83.0
3318,157244.0,Note On,0,0.0,59.0,92.0,0,2,384.0,2.0,0.0,59.0,b,92.0
3319,157244.0,Note On,0,0.0,59.0,92.0,0,2,384.0,2.0,0.0,62.0,d',63.0
3320,157244.0,Note On,0,0.0,59.0,92.0,0,2,376.0,2.0,0.0,67.0,g',83.0
3321,157256.0,Note Off,0,0.0,69.0,62.0,0,2,,,,,,
3322,157416.0,Note Off,0,0.0,74.0,66.0,0,2,,,,,,
3323,157620.0,Note Off,0,0.0,67.0,83.0,0,2,,,,,,
3324,157628.0,Note Off,0,0.0,59.0,92.0,0,2,524.0,2.0,0.0,66.0,f#',82.0
3325,157628.0,Note Off,0,0.0,62.0,63.0,0,2,524.0,2.0,0.0,66.0,f#',82.0
3326,157628.0,Note On,0,0.0,66.0,82.0,0,2,524.0,2.0,0.0,66.0,f#',82.0
3327,157820.0,Note On,0,0.0,62.0,82.0,0,2,360.0,2.0,0.0,62.0,d',82.0
3328,157988.0,Note Off,0,0.0,50.0,92.0,0,2,,,,,,
3329,158004.0,Note On,0,0.0,50.0,74.0,0,2,192.0,2.0,0.0,50.0,d,74.0
3330,158004.0,Note On,0,0.0,50.0,74.0,0,2,208.0,2.0,0.0,57.0,a,68.0
3331,158004.0,Note On,0,0.0,57.0,68.0,0,2,192.0,2.0,0.0,50.0,d,74.0
3332,158004.0,Note On,0,0.0,57.0,68.0,0,2,208.0,2.0,0.0,57.0,a,68.0
3333,158152.0,Note Off,0,0.0,66.0,82.0,0,2,,,,,,
3334,158180.0,Note Off,0,0.0,62.0,82.0,0,2,,,,,,
3335,158196.0,Note Off,0,0.0,50.0,74.0,0,2,,,,,,
3336,158200.0,Note On,0,0.0,47.0,92.0,0,2,772.0,2.0,0.0,47.0,B,92.0
3337,158200.0,Note On,0,0.0,47.0,92.0,0,2,356.0,2.0,0.0,62.0,d',70.0
3338,158200.0,Note On,0,0.0,47.0,92.0,0,2,608.0,2.0,0.0,66.0,f#',83.0
3339,158200.0,Note On,0,0.0,62.0,70.0,0,2,772.0,2.0,0.0,47.0,B,92.0
3340,158200.0,Note On,0,0.0,62.0,70.0,0,2,356.0,2.0,0.0,62.0,d',70.0
3341,158200.0,Note On,0,0.0,62.0,70.0,0,2,608.0,2.0,0.0,66.0,f#',83.0
3342,158200.0,Note On,0,0.0,66.0,83.0,0,2,772.0,2.0,0.0,47.0,B,92.0
3343,158200.0,Note On,0,0.0,66.0,83.0,0,2,356.0,2.0,0.0,62.0,d',70.0
3344,158200.0,Note On,0,0.0,66.0,83.0,0,2,608.0,2.0,0.0,66.0,f#',83.0
3345,158212.0,Note Off,0,0.0,57.0,68.0,0,2,,,,,,
3346,158400.0,Note On,0,0.0,55.0,79.0,0,2,536.0,2.0,0.0,55.0,g,79.0
3347,158556.0,Note Off,0,0.0,62.0,70.0,0,2,,,,,,
3348,158588.0,Note On,0,0.0,62.0,70.0,0,2,408.0,2.0,0.0,62.0,d',70.0
3349,158776.0,Note On,0,0.0,64.0,83.0,0,2,168.0,2.0,0.0,64.0,e',83.0
3350,158808.0,Note Off,0,0.0,66.0,83.0,0,2,,,,,,
3351,158936.0,Note Off,0,0.0,55.0,79.0,0,2,,,,,,
3352,158944.0,Note Off,0,0.0,64.0,83.0,0,2,,,,,,
3353,158968.0,Note On,0,0.0,61.0,66.0,0,2,756.0,2.0,0.0,61.0,c#',66.0
3354,158968.0,Note On,0,0.0,61.0,66.0,0,2,732.0,2.0,0.0,64.0,e',88.0
3355,158968.0,Note On,0,0.0,64.0,88.0,0,2,756.0,2.0,0.0,61.0,c#',66.0
3356,158968.0,Note On,0,0.0,64.0,88.0,0,2,732.0,2.0,0.0,64.0,e',88.0
3357,158972.0,Note Off,0,0.0,47.0,92.0,0,2,756.0,2.0,0.0,49.0,c#,92.0
3358,158972.0,Note On,0,0.0,49.0,92.0,0,2,756.0,2.0,0.0,49.0,c#,92.0
3359,158996.0,Note Off,0,0.0,62.0,70.0,0,2,,,,,,
3360,159164.0,Note On,0,0.0,57.0,74.0,0,2,196.0,2.0,0.0,57.0,a,74.0
3361,159360.0,Note Off,0,0.0,57.0,74.0,0,2,,,,,,
3362,159364.0,Note On,0,0.0,69.0,91.0,0,2,420.0,2.0,0.0,69.0,a',91.0
3363,159548.0,Note On,0,0.0,67.0,79.0,0,2,224.0,2.0,0.0,67.0,g',79.0
3364,159668.0,Note On,0,0.0,38.0,58.0,0,2,3060.0,2.0,0.0,38.0,D,58.0
3365,159692.0,Note On,0,0.0,54.0,54.0,0,2,3052.0,2.0,0.0,54.0,f#,54.0
3366,159692.0,Note On,0,0.0,54.0,54.0,0,2,76.0,11.0,9.0,51.0,d#,44.0
3367,159700.0,Note Off,0,0.0,64.0,88.0,0,2,,,,,,
3368,159724.0,Note Off,0,0.0,61.0,66.0,0,2,,,,,,
3369,159728.0,Note Off,0,0.0,49.0,92.0,0,2,3004.0,2.0,0.0,45.0,A,66.0
3370,159728.0,Note On,0,0.0,45.0,66.0,0,2,3004.0,2.0,0.0,45.0,A,66.0
3371,159768.0,Note On,0,0.0,50.0,70.0,0,2,2964.0,2.0,0.0,50.0,d,70.0
3372,159768.0,Note On,0,0.0,50.0,70.0,0,2,2972.0,2.0,0.0,57.0,a,74.0
3373,159768.0,Note On,0,0.0,50.0,70.0,0,2,2916.0,4.0,2.0,57.0,a,18.0
3374,159768.0,Note On,0,0.0,50.0,70.0,0,2,2932.0,4.0,2.0,64.0,e',21.0
3375,159768.0,Note On,0,0.0,57.0,74.0,0,2,2964.0,2.0,0.0,50.0,d,70.0
3376,159768.0,Note On,0,0.0,57.0,74.0,0,2,2972.0,2.0,0.0,57.0,a,74.0
3377,159768.0,Note On,0,0.0,57.0,74.0,0,2,2916.0,4.0,2.0,57.0,a,18.0
3378,159768.0,Note On,0,0.0,57.0,74.0,0,2,2932.0,4.0,2.0,64.0,e',21.0
3379,159772.0,Note Off,0,0.0,67.0,79.0,0,2,,,,,,
3380,159784.0,Note Off,0,0.0,69.0,91.0,0,2,,,,,,
3381,159792.0,Note On,0,0.0,62.0,66.0,0,2,2952.0,2.0,0.0,62.0,d',66.0
3382,159800.0,Note On,0,0.0,66.0,83.0,0,2,2948.0,2.0,0.0,66.0,f#',83.0
3383,162728.0,Note Off,0,0.0,38.0,58.0,0,2,,,,,,
3384,162732.0,Note Off,0,0.0,50.0,70.0,0,2,,,,,,
3385,162732.0,Note Off,0,0.0,45.0,66.0,0,2,,,,,,
3386,162740.0,Note Off,0,0.0,57.0,74.0,0,2,,,,,,
3387,162744.0,Note Off,0,0.0,62.0,66.0,0,2,,,,,,
3388,162744.0,Note Off,0,0.0,54.0,54.0,0,2,,,,,,
3389,162748.0,Note Off,0,0.0,66.0,83.0,0,2,,,,,,
3390,165120.0,Controller,0,0.0,121.0,127.0,0,2,,,,,,
3391,165888.0,End of Track,2f,0.0,0.0,0.0,0,2,,,,,,
3392,0.0,Sequence/Track Name,03,0.0,0.0,0.0,FINGERDBAS,3,,,,,,
3393,404.0,Controller,0,1.0,0.0,0.0,0,3,,,,,,
3394,412.0,Program Change,0,1.0,33.0,0.0,0,3,,,,,,
3395,416.0,Controller,0,1.0,7.0,100.0,0,3,,,,,,
3396,416.0,Controller,0,1.0,10.0,64.0,0,3,,,,,,
3397,416.0,Controller,0,1.0,11.0,127.0,0,3,,,,,,
3398,420.0,Controller,0,1.0,91.0,0.0,0,3,,,,,,
3399,420.0,Controller,0,1.0,93.0,0.0,0,3,,,,,,
3400,33792.0,Note On,0,1.0,29.0,64.0,0,3,540.0,2.0,0.0,53.0,f,92.0
3401,33792.0,Note On,0,1.0,29.0,64.0,0,3,588.0,2.0,0.0,57.0,a,101.0
3402,33792.0,Note On,0,1.0,29.0,64.0,0,3,588.0,3.0,1.0,29.0,"F,",64.0
3403,33792.0,Note On,0,1.0,29.0,64.0,0,3,1868.0,5.0,3.0,65.0,f',82.0
3404,33792.0,Note On,0,1.0,29.0,64.0,0,3,760.0,9.0,7.0,89.0,f''',64.0
3405,33792.0,Note On,0,1.0,29.0,64.0,0,3,48.0,11.0,9.0,55.0,g,38.0
3406,33792.0,Note On,0,1.0,29.0,64.0,0,3,48.0,11.0,9.0,59.0,b,64.0
3407,33792.0,Note On,0,1.0,29.0,64.0,0,3,112.0,11.0,9.0,70.0,a#',69.0
3408,33792.0,Note On,0,1.0,29.0,64.0,0,3,96.0,12.0,10.0,36.0,C,78.0
3409,34368.0,Note On,0,1.0,31.0,64.0,0,3,216.0,2.0,0.0,58.0,a#,74.0
3410,34368.0,Note On,0,1.0,31.0,64.0,0,3,188.0,3.0,1.0,31.0,"G,",64.0
3411,34368.0,Note On,0,1.0,31.0,64.0,0,3,220.0,11.0,9.0,70.0,a#',32.0
3412,34380.0,Note Off,0,1.0,29.0,64.0,0,3,,,,,,
3413,34556.0,Note Off,0,1.0,31.0,64.0,0,3,372.0,2.0,0.0,57.0,a,92.0
3414,34560.0,Note On,0,1.0,33.0,64.0,0,3,360.0,2.0,0.0,60.0,c',101.0
3415,34560.0,Note On,0,1.0,33.0,64.0,0,3,724.0,3.0,1.0,33.0,"A,",64.0
3416,34560.0,Note On,0,1.0,33.0,64.0,0,3,180.0,11.0,9.0,37.0,C#,82.0
3417,35284.0,Note Off,0,1.0,33.0,64.0,0,3,,,,,,
3418,35328.0,Note On,0,1.0,34.0,64.0,0,3,1492.0,3.0,1.0,34.0,"A#,",64.0
3419,35328.0,Note On,0,1.0,34.0,64.0,0,3,96.0,12.0,10.0,36.0,C,78.0
3420,36820.0,Note Off,0,1.0,34.0,64.0,0,3,,,,,,
3421,36864.0,Note On,0,1.0,33.0,64.0,0,3,1516.0,2.0,0.0,45.0,A,91.0
3422,36864.0,Note On,0,1.0,33.0,64.0,0,3,1444.0,3.0,1.0,33.0,"A,",64.0
3423,36864.0,Note On,0,1.0,33.0,64.0,0,3,112.0,11.0,9.0,70.0,a#',69.0
3424,36864.0,Note On,0,1.0,33.0,64.0,0,3,96.0,12.0,10.0,36.0,C,78.0
3425,38308.0,Note Off,0,1.0,33.0,64.0,0,3,,,,,,
3426,38400.0,Note On,0,1.0,34.0,64.0,0,3,744.0,2.0,0.0,46.0,A#,92.0
3427,38400.0,Note On,0,1.0,34.0,64.0,0,3,728.0,2.0,0.0,53.0,f,74.0
3428,38400.0,Note On,0,1.0,34.0,64.0,0,3,716.0,3.0,1.0,34.0,"A#,",64.0
3429,38400.0,Note On,0,1.0,34.0,64.0,0,3,96.0,12.0,10.0,36.0,C,78.0
3430,39116.0,Note Off,0,1.0,34.0,64.0,0,3,,,,,,
3431,39168.0,Note On,0,1.0,38.0,64.0,0,3,720.0,3.0,1.0,38.0,D,64.0
3432,39168.0,Note On,0,1.0,38.0,64.0,0,3,96.0,11.0,9.0,54.0,f#,91.0
3433,39888.0,Note Off,0,1.0,38.0,64.0,0,3,,,,,,
3434,39936.0,Note On,0,1.0,39.0,64.0,0,3,732.0,3.0,1.0,39.0,D#,64.0
3435,39936.0,Note On,0,1.0,39.0,64.0,0,3,112.0,11.0,9.0,70.0,a#',69.0
3436,39936.0,Note On,0,1.0,39.0,64.0,0,3,96.0,12.0,10.0,36.0,C,78.0
3437,40668.0,Note Off,0,1.0,39.0,64.0,0,3,,,,,,
3438,40704.0,Note On,0,1.0,38.0,64.0,0,3,660.0,3.0,1.0,38.0,D,64.0
3439,40704.0,Note On,0,1.0,38.0,64.0,0,3,180.0,11.0,9.0,37.0,C#,82.0
3440,41364.0,Note Off,0,1.0,38.0,64.0,0,3,,,,,,
3441,41472.0,Note On,0,1.0,39.0,64.0,0,3,328.0,2.0,0.0,65.0,f',83.0
3442,41472.0,Note On,0,1.0,39.0,64.0,0,3,300.0,2.0,0.0,69.0,a',96.0
3443,41472.0,Note On,0,1.0,39.0,64.0,0,3,688.0,3.0,1.0,39.0,D#,64.0
3444,41472.0,Note On,0,1.0,39.0,64.0,0,3,96.0,12.0,10.0,36.0,C,78.0
3445,42160.0,Note Off,0,1.0,39.0,64.0,0,3,,,,,,
3446,42240.0,Note On,0,1.0,38.0,64.0,0,3,696.0,3.0,1.0,38.0,D,64.0
3447,42240.0,Note On,0,1.0,38.0,64.0,0,3,96.0,11.0,9.0,54.0,f#,91.0
3448,42936.0,Note Off,0,1.0,38.0,64.0,0,3,,,,,,
3449,43008.0,Note On,0,1.0,31.0,64.0,0,3,716.0,3.0,1.0,31.0,"G,",64.0
3450,43008.0,Note On,0,1.0,31.0,64.0,0,3,372.0,5.0,3.0,62.0,d',75.0
3451,43008.0,Note On,0,1.0,31.0,64.0,0,3,112.0,11.0,9.0,70.0,a#',69.0
3452,43008.0,Note On,0,1.0,31.0,64.0,0,3,96.0,12.0,10.0,36.0,C,78.0
3453,43724.0,Note Off,0,1.0,31.0,64.0,0,3,,,,,,
3454,43776.0,Note On,0,1.0,28.0,64.0,0,3,740.0,2.0,0.0,55.0,g,78.0
3455,43776.0,Note On,0,1.0,28.0,64.0,0,3,792.0,2.0,0.0,60.0,c',83.0
3456,43776.0,Note On,0,1.0,28.0,64.0,0,3,556.0,3.0,1.0,28.0,"E,",64.0
3457,43776.0,Note On,0,1.0,28.0,64.0,0,3,180.0,11.0,9.0,37.0,C#,82.0
3458,44332.0,Note Off,0,1.0,28.0,64.0,0,3,,,,,,
3459,44352.0,Note On,0,1.0,28.0,56.0,0,3,160.0,2.0,0.0,40.0,E,82.0
3460,44352.0,Note On,0,1.0,28.0,56.0,0,3,160.0,3.0,1.0,28.0,"E,",56.0
3461,44352.0,Note On,0,1.0,28.0,56.0,0,3,96.0,12.0,10.0,36.0,C,55.0
3462,44512.0,Note Off,0,1.0,28.0,56.0,0,3,,,,,,
3463,44544.0,Note On,0,1.0,29.0,64.0,0,3,940.0,3.0,1.0,29.0,"F,",64.0
3464,44544.0,Note On,0,1.0,29.0,64.0,0,3,96.0,12.0,10.0,36.0,C,78.0
3465,45484.0,Note Off,0,1.0,29.0,64.0,0,3,,,,,,
3466,45504.0,Note On,0,1.0,24.0,64.0,0,3,168.0,3.0,1.0,24.0,"C,",64.0
3467,45504.0,Note On,0,1.0,24.0,64.0,0,3,60.0,12.0,10.0,45.0,A,55.0
3468,45504.0,Note On,0,1.0,24.0,64.0,0,3,588.0,14.0,12.0,60.0,c',43.0
3469,45672.0,Note Off,0,1.0,24.0,64.0,0,3,,,,,,
3470,45696.0,Note On,0,1.0,27.0,64.0,0,3,172.0,3.0,1.0,27.0,"D#,",64.0
3471,45696.0,Note On,0,1.0,27.0,64.0,0,3,332.0,5.0,3.0,67.0,g',82.0
3472,45696.0,Note On,0,1.0,27.0,64.0,0,3,60.0,12.0,10.0,41.0,F,69.0
3473,45868.0,Note Off,0,1.0,27.0,64.0,0,3,212.0,2.0,0.0,36.0,C,83.0
3474,45888.0,Note On,0,1.0,24.0,64.0,0,3,168.0,3.0,1.0,24.0,"C,",64.0
3475,46056.0,Note Off,0,1.0,24.0,64.0,0,3,,,,,,
3476,46080.0,Note On,0,1.0,29.0,64.0,0,3,312.0,2.0,0.0,57.0,a,92.0
3477,46080.0,Note On,0,1.0,29.0,64.0,0,3,340.0,2.0,0.0,65.0,f',95.0
3478,46080.0,Note On,0,1.0,29.0,64.0,0,3,588.0,3.0,1.0,29.0,"F,",64.0
3479,46080.0,Note On,0,1.0,29.0,64.0,0,3,1540.0,4.0,2.0,69.0,a',52.0
3480,46080.0,Note On,0,1.0,29.0,64.0,0,3,168.0,9.0,7.0,89.0,f''',66.0
3481,46080.0,Note On,0,1.0,29.0,64.0,0,3,48.0,11.0,9.0,55.0,g,38.0
3482,46080.0,Note On,0,1.0,29.0,64.0,0,3,48.0,11.0,9.0,59.0,b,64.0
3483,46080.0,Note On,0,1.0,29.0,64.0,0,3,112.0,11.0,9.0,70.0,a#',69.0
3484,46080.0,Note On,0,1.0,29.0,64.0,0,3,96.0,12.0,10.0,36.0,C,78.0
3485,46656.0,Note On,0,1.0,31.0,64.0,0,3,188.0,3.0,1.0,31.0,"G,",64.0
3486,46656.0,Note On,0,1.0,31.0,64.0,0,3,220.0,11.0,9.0,70.0,a#',32.0
3487,46668.0,Note Off,0,1.0,29.0,64.0,0,3,,,,,,
3488,46844.0,Note Off,0,1.0,31.0,64.0,0,3,,,,,,
3489,46848.0,Note On,0,1.0,33.0,64.0,0,3,360.0,2.0,0.0,57.0,a,92.0
3490,46848.0,Note On,0,1.0,33.0,64.0,0,3,724.0,3.0,1.0,33.0,"A,",64.0
3491,46848.0,Note On,0,1.0,33.0,64.0,0,3,180.0,11.0,9.0,37.0,C#,82.0
3492,47572.0,Note Off,0,1.0,33.0,64.0,0,3,,,,,,
3493,47616.0,Note On,0,1.0,34.0,64.0,0,3,540.0,3.0,1.0,34.0,"A#,",64.0
3494,47616.0,Note On,0,1.0,34.0,64.0,0,3,96.0,12.0,10.0,36.0,C,78.0
3495,48156.0,Note Off,0,1.0,34.0,64.0,0,3,,,,,,
3496,48192.0,Note On,0,1.0,34.0,64.0,0,3,920.0,3.0,1.0,34.0,"A#,",64.0
3497,48192.0,Note On,0,1.0,34.0,64.0,0,3,352.0,11.0,9.0,81.0,a'',52.0
3498,48192.0,Note On,0,1.0,34.0,64.0,0,3,60.0,12.0,10.0,50.0,d,48.0
3499,49112.0,Note Off,0,1.0,34.0,64.0,0,3,,,,,,
3500,49152.0,Note On,0,1.0,29.0,64.0,0,3,536.0,2.0,0.0,41.0,F,91.0
3501,49152.0,Note On,0,1.0,29.0,64.0,0,3,540.0,3.0,1.0,29.0,"F,",64.0
3502,49152.0,Note On,0,1.0,29.0,64.0,0,3,732.0,4.0,2.0,77.0,f'',52.0
3503,49152.0,Note On,0,1.0,29.0,64.0,0,3,112.0,11.0,9.0,70.0,a#',69.0
3504,49152.0,Note On,0,1.0,29.0,64.0,0,3,96.0,12.0,10.0,36.0,C,78.0
3505,49692.0,Note Off,0,1.0,29.0,64.0,0,3,,,,,,
3506,49728.0,Note On,0,1.0,30.0,64.0,0,3,736.0,3.0,1.0,30.0,"F#,",64.0
3507,49728.0,Note On,0,1.0,30.0,64.0,0,3,220.0,11.0,9.0,70.0,a#',32.0
3508,50464.0,Note Off,0,1.0,30.0,64.0,0,3,,,,,,
3509,50496.0,Note On,0,1.0,33.0,52.0,0,3,176.0,3.0,1.0,33.0,"A,",52.0
3510,50496.0,Note On,0,1.0,33.0,52.0,0,3,96.0,12.0,10.0,36.0,C,55.0
3511,50672.0,Note Off,0,1.0,33.0,52.0,0,3,776.0,2.0,0.0,43.0,G,92.0
3512,50688.0,Note On,0,1.0,31.0,64.0,0,3,716.0,3.0,1.0,31.0,"G,",64.0
3513,50688.0,Note On,0,1.0,31.0,64.0,0,3,1528.0,4.0,2.0,70.0,a#',44.0
3514,50688.0,Note On,0,1.0,31.0,64.0,0,3,96.0,12.0,10.0,36.0,C,78.0
3515,51404.0,Note Off,0,1.0,31.0,64.0,0,3,,,,,,
3516,51456.0,Note On,0,1.0,34.0,64.0,0,3,716.0,3.0,1.0,34.0,"A#,",64.0
3517,51456.0,Note On,0,1.0,34.0,64.0,0,3,96.0,11.0,9.0,54.0,f#,91.0
3518,51456.0,Note On,0,1.0,34.0,64.0,0,3,60.0,12.0,10.0,50.0,d,48.0
3519,52172.0,Note Off,0,1.0,34.0,64.0,0,3,,,,,,
3520,52224.0,Note On,0,1.0,39.0,64.0,0,3,732.0,3.0,1.0,39.0,D#,64.0
3521,52224.0,Note On,0,1.0,39.0,64.0,0,3,112.0,11.0,9.0,70.0,a#',69.0
3522,52224.0,Note On,0,1.0,39.0,64.0,0,3,96.0,12.0,10.0,36.0,C,78.0
3523,52956.0,Note Off,0,1.0,39.0,64.0,0,3,,,,,,
3524,52992.0,Note On,0,1.0,38.0,64.0,0,3,660.0,3.0,1.0,38.0,D,64.0
3525,52992.0,Note On,0,1.0,38.0,64.0,0,3,180.0,11.0,9.0,37.0,C#,82.0
3526,53652.0,Note Off,0,1.0,38.0,64.0,0,3,,,,,,
3527,53760.0,Note On,0,1.0,39.0,64.0,0,3,328.0,2.0,0.0,65.0,f',83.0
3528,53760.0,Note On,0,1.0,39.0,64.0,0,3,300.0,2.0,0.0,69.0,a',96.0
3529,53760.0,Note On,0,1.0,39.0,64.0,0,3,688.0,3.0,1.0,39.0,D#,64.0
3530,53760.0,Note On,0,1.0,39.0,64.0,0,3,96.0,12.0,10.0,36.0,C,78.0
3531,54448.0,Note Off,0,1.0,39.0,64.0,0,3,,,,,,
3532,54528.0,Note On,0,1.0,38.0,64.0,0,3,696.0,3.0,1.0,38.0,D,64.0
3533,54528.0,Note On,0,1.0,38.0,64.0,0,3,96.0,11.0,9.0,54.0,f#,91.0
3534,55224.0,Note Off,0,1.0,38.0,64.0,0,3,,,,,,
3535,55296.0,Note On,0,1.0,31.0,64.0,0,3,716.0,3.0,1.0,31.0,"G,",64.0
3536,55296.0,Note On,0,1.0,31.0,64.0,0,3,112.0,11.0,9.0,70.0,a#',69.0
3537,55296.0,Note On,0,1.0,31.0,64.0,0,3,96.0,12.0,10.0,36.0,C,78.0
3538,56012.0,Note Off,0,1.0,31.0,64.0,0,3,816.0,4.0,2.0,72.0,c'',48.0
3539,56064.0,Note On,0,1.0,28.0,64.0,0,3,792.0,2.0,0.0,60.0,c',83.0
3540,56064.0,Note On,0,1.0,28.0,64.0,0,3,712.0,3.0,1.0,28.0,"E,",64.0
3541,56064.0,Note On,0,1.0,28.0,64.0,0,3,180.0,11.0,9.0,37.0,C#,82.0
3542,56064.0,Note On,0,1.0,28.0,64.0,0,3,60.0,12.0,10.0,50.0,d,48.0
3543,56776.0,Note Off,0,1.0,28.0,64.0,0,3,,,,,,
3544,56832.0,Note On,0,1.0,32.0,64.0,0,3,680.0,3.0,1.0,32.0,"G#,",64.0
3545,56832.0,Note On,0,1.0,32.0,64.0,0,3,96.0,12.0,10.0,36.0,C,78.0
3546,57512.0,Note Off,0,1.0,32.0,64.0,0,3,,,,,,
3547,57600.0,Note On,0,1.0,29.0,64.0,0,3,748.0,2.0,0.0,41.0,F,97.0
3548,57600.0,Note On,0,1.0,29.0,64.0,0,3,680.0,3.0,1.0,29.0,"F,",64.0
3549,57600.0,Note On,0,1.0,29.0,64.0,0,3,96.0,11.0,9.0,54.0,f#,91.0
3550,58280.0,Note Off,0,1.0,29.0,64.0,0,3,72.0,11.0,9.0,59.0,b,45.0
3551,58368.0,Note On,0,1.0,34.0,64.0,0,3,3020.0,3.0,1.0,34.0,"A#,",64.0
3552,58368.0,Note On,0,1.0,34.0,64.0,0,3,48.0,11.0,9.0,49.0,c#,38.0
3553,58368.0,Note On,0,1.0,34.0,64.0,0,3,48.0,11.0,9.0,59.0,b,64.0
3554,58368.0,Note On,0,1.0,34.0,64.0,0,3,112.0,11.0,9.0,70.0,a#',69.0
3555,58368.0,Note On,0,1.0,34.0,64.0,0,3,96.0,12.0,10.0,36.0,C,78.0
3556,61388.0,Note Off,0,1.0,34.0,64.0,0,3,136.0,7.0,5.0,96.0,c'''',66.0
3557,61388.0,Note Off,0,1.0,34.0,64.0,0,3,76.0,11.0,9.0,51.0,d#,44.0
3558,61440.0,Note On,0,1.0,37.0,82.0,0,3,1436.0,2.0,0.0,49.0,c#,92.0
3559,61440.0,Note On,0,1.0,37.0,82.0,0,3,492.0,2.0,0.0,56.0,g#,83.0
3560,61440.0,Note On,0,1.0,37.0,82.0,0,3,1260.0,3.0,1.0,37.0,C#,82.0
3561,61440.0,Note On,0,1.0,37.0,82.0,0,3,296.0,5.0,3.0,65.0,f',73.0
3562,61440.0,Note On,0,1.0,37.0,82.0,0,3,96.0,11.0,9.0,35.0,"B,",82.0
3563,61440.0,Note On,0,1.0,37.0,82.0,0,3,48.0,11.0,9.0,49.0,c#,50.0
3564,61440.0,Note On,0,1.0,37.0,82.0,0,3,48.0,11.0,9.0,59.0,b,64.0
3565,61440.0,Note On,0,1.0,37.0,82.0,0,3,112.0,11.0,9.0,70.0,a#',69.0
3566,62700.0,Note Off,0,1.0,37.0,82.0,0,3,,,,,,
3567,62784.0,Note On,0,1.0,37.0,64.0,0,3,148.0,3.0,1.0,37.0,C#,64.0
3568,62784.0,Note On,0,1.0,37.0,64.0,0,3,96.0,11.0,9.0,35.0,"B,",64.0
3569,62784.0,Note On,0,1.0,37.0,64.0,0,3,52.0,11.0,9.0,42.0,F#,48.0
3570,62932.0,Note Off,0,1.0,37.0,64.0,0,3,,,,,,
3571,62976.0,Note On,0,1.0,37.0,82.0,0,3,1460.0,3.0,1.0,37.0,C#,82.0
3572,62976.0,Note On,0,1.0,37.0,82.0,0,3,96.0,11.0,9.0,35.0,"B,",82.0
3573,62976.0,Note On,0,1.0,37.0,82.0,0,3,108.0,11.0,9.0,42.0,F#,72.0
3574,64436.0,Note Off,0,1.0,37.0,82.0,0,3,,,,,,
3575,64512.0,Note On,0,1.0,37.0,82.0,0,3,1316.0,2.0,0.0,49.0,c#,92.0
3576,64512.0,Note On,0,1.0,37.0,82.0,0,3,492.0,2.0,0.0,56.0,g#,83.0
3577,64512.0,Note On,0,1.0,37.0,82.0,0,3,536.0,2.0,0.0,65.0,f',92.0
3578,64512.0,Note On,0,1.0,37.0,82.0,0,3,1312.0,3.0,1.0,37.0,C#,82.0
3579,64512.0,Note On,0,1.0,37.0,82.0,0,3,332.0,5.0,3.0,65.0,f',64.0
3580,64512.0,Note On,0,1.0,37.0,82.0,0,3,776.0,9.0,7.0,73.0,c#'',48.0
3581,64512.0,Note On,0,1.0,37.0,82.0,0,3,96.0,11.0,9.0,35.0,"B,",82.0
3582,64512.0,Note On,0,1.0,37.0,82.0,0,3,108.0,11.0,9.0,42.0,F#,72.0
3583,64512.0,Note On,0,1.0,37.0,82.0,0,3,112.0,11.0,9.0,70.0,a#',69.0
3584,65824.0,Note Off,0,1.0,37.0,82.0,0,3,,,,,,
3585,65856.0,Note On,0,1.0,37.0,64.0,0,3,188.0,3.0,1.0,37.0,C#,64.0
3586,65856.0,Note On,0,1.0,37.0,64.0,0,3,96.0,11.0,9.0,35.0,"B,",64.0
3587,65856.0,Note On,0,1.0,37.0,64.0,0,3,52.0,11.0,9.0,42.0,F#,48.0
3588,66044.0,Note Off,0,1.0,37.0,64.0,0,3,,,,,,
3589,66048.0,Note On,0,1.0,34.0,82.0,0,3,748.0,3.0,1.0,34.0,"A#,",82.0
3590,66048.0,Note On,0,1.0,34.0,82.0,0,3,752.0,5.0,3.0,65.0,f',75.0
3591,66048.0,Note On,0,1.0,34.0,82.0,0,3,96.0,11.0,9.0,35.0,"B,",82.0
3592,66048.0,Note On,0,1.0,34.0,82.0,0,3,108.0,11.0,9.0,42.0,F#,72.0
3593,66796.0,Note Off,0,1.0,34.0,82.0,0,3,,,,,,
3594,66816.0,Note On,0,1.0,36.0,82.0,0,3,348.0,3.0,1.0,36.0,C,82.0
3595,66816.0,Note On,0,1.0,36.0,82.0,0,3,604.0,5.0,3.0,63.0,d#',73.0
3596,66816.0,Note On,0,1.0,36.0,82.0,0,3,112.0,11.0,9.0,42.0,F#,75.0
3597,66816.0,Note On,0,1.0,36.0,82.0,0,3,96.0,11.0,9.0,54.0,f#,91.0
3598,67164.0,Note Off,0,1.0,36.0,82.0,0,3,,,,,,
3599,67200.0,Note On,0,1.0,32.0,82.0,0,3,356.0,3.0,1.0,32.0,"G#,",82.0
3600,67200.0,Note On,0,1.0,32.0,82.0,0,3,140.0,11.0,9.0,42.0,F#,72.0
3601,67556.0,Note Off,0,1.0,32.0,82.0,0,3,772.0,4.0,2.0,87.0,d#''',48.0
3602,67584.0,Note On,0,1.0,30.0,82.0,0,3,572.0,2.0,0.0,63.0,d#',88.0
3603,67584.0,Note On,0,1.0,30.0,82.0,0,3,544.0,3.0,1.0,30.0,"F#,",82.0
3604,67584.0,Note On,0,1.0,30.0,82.0,0,3,96.0,11.0,9.0,35.0,"B,",82.0
3605,67584.0,Note On,0,1.0,30.0,82.0,0,3,140.0,11.0,9.0,42.0,F#,72.0
3606,67584.0,Note On,0,1.0,30.0,82.0,0,3,112.0,11.0,9.0,70.0,a#',69.0
3607,68128.0,Note Off,0,1.0,30.0,82.0,0,3,,,,,,
3608,68160.0,Note On,0,1.0,29.0,82.0,0,3,700.0,3.0,1.0,29.0,"F,",82.0
3609,68160.0,Note On,0,1.0,29.0,82.0,0,3,380.0,5.0,3.0,65.0,f',75.0
3610,68860.0,Note Off,0,1.0,29.0,82.0,0,3,,,,,,
3611,68928.0,Note On,0,1.0,29.0,64.0,0,3,172.0,2.0,0.0,60.0,c',58.0
3612,68928.0,Note On,0,1.0,29.0,64.0,0,3,176.0,3.0,1.0,29.0,"F,",64.0
3613,68928.0,Note On,0,1.0,29.0,64.0,0,3,96.0,11.0,9.0,35.0,"B,",64.0
3614,68928.0,Note On,0,1.0,29.0,64.0,0,3,52.0,11.0,9.0,42.0,F#,48.0
3615,69104.0,Note Off,0,1.0,29.0,64.0,0,3,,,,,,
3616,69120.0,Note On,0,1.0,34.0,73.0,0,3,168.0,2.0,0.0,63.0,d#',74.0
3617,69120.0,Note On,0,1.0,34.0,73.0,0,3,720.0,3.0,1.0,34.0,"A#,",73.0
3618,69120.0,Note On,0,1.0,34.0,73.0,0,3,3076.0,4.0,2.0,73.0,c#'',48.0
3619,69120.0,Note On,0,1.0,34.0,73.0,0,3,96.0,11.0,9.0,35.0,"B,",82.0
3620,69120.0,Note On,0,1.0,34.0,73.0,0,3,108.0,11.0,9.0,42.0,F#,72.0
3621,69840.0,Note Off,0,1.0,34.0,73.0,0,3,,,,,,
3622,69888.0,Note On,0,1.0,32.0,82.0,0,3,720.0,3.0,1.0,32.0,"G#,",82.0
3623,69888.0,Note On,0,1.0,32.0,82.0,0,3,112.0,11.0,9.0,42.0,F#,75.0
3624,69888.0,Note On,0,1.0,32.0,82.0,0,3,96.0,11.0,9.0,54.0,f#,91.0
3625,70608.0,Note Off,0,1.0,32.0,82.0,0,3,,,,,,
3626,70656.0,Note On,0,1.0,30.0,82.0,0,3,708.0,2.0,0.0,66.0,f#',76.0
3627,70656.0,Note On,0,1.0,30.0,82.0,0,3,712.0,3.0,1.0,30.0,"F#,",82.0
3628,70656.0,Note On,0,1.0,30.0,82.0,0,3,324.0,5.0,3.0,58.0,a#,73.0
3629,70656.0,Note On,0,1.0,30.0,82.0,0,3,96.0,11.0,9.0,35.0,"B,",82.0
3630,70656.0,Note On,0,1.0,30.0,82.0,0,3,108.0,11.0,9.0,42.0,F#,72.0
3631,70656.0,Note On,0,1.0,30.0,82.0,0,3,112.0,11.0,9.0,70.0,a#',69.0
3632,71368.0,Note Off,0,1.0,30.0,82.0,0,3,,,,,,
3633,71424.0,Note On,0,1.0,34.0,82.0,0,3,536.0,2.0,0.0,61.0,c#',83.0
3634,71424.0,Note On,0,1.0,34.0,82.0,0,3,556.0,2.0,0.0,66.0,f#',70.0
3635,71424.0,Note On,0,1.0,34.0,82.0,0,3,160.0,3.0,1.0,34.0,"A#,",82.0
3636,71424.0,Note On,0,1.0,34.0,82.0,0,3,180.0,11.0,9.0,37.0,C#,82.0
3637,71424.0,Note On,0,1.0,34.0,82.0,0,3,112.0,11.0,9.0,42.0,F#,75.0
3638,71584.0,Note Off,0,1.0,34.0,82.0,0,3,,,,,,
3639,71616.0,Note On,0,1.0,30.0,82.0,0,3,392.0,3.0,1.0,30.0,"F#,",82.0
3640,72000.0,Note On,0,1.0,37.0,64.0,0,3,84.0,3.0,1.0,37.0,C#,64.0
3641,72000.0,Note On,0,1.0,37.0,64.0,0,3,588.0,5.0,3.0,65.0,f',73.0
3642,72000.0,Note On,0,1.0,37.0,64.0,0,3,96.0,11.0,9.0,35.0,"B,",64.0
3643,72000.0,Note On,0,1.0,37.0,64.0,0,3,52.0,11.0,9.0,42.0,F#,48.0
3644,72008.0,Note Off,0,1.0,30.0,82.0,0,3,,,,,,
3645,72084.0,Note Off,0,1.0,37.0,64.0,0,3,,,,,,
3646,72096.0,Note On,0,1.0,39.0,64.0,0,3,100.0,3.0,1.0,39.0,D#,64.0
3647,72192.0,Note On,0,1.0,37.0,82.0,0,3,1404.0,2.0,0.0,49.0,c#,92.0
3648,72192.0,Note On,0,1.0,37.0,82.0,0,3,1468.0,3.0,1.0,37.0,C#,82.0
3649,72192.0,Note On,0,1.0,37.0,82.0,0,3,96.0,11.0,9.0,35.0,"B,",82.0
3650,72192.0,Note On,0,1.0,37.0,82.0,0,3,108.0,11.0,9.0,42.0,F#,72.0
3651,72196.0,Note Off,0,1.0,39.0,64.0,0,3,,,,,,
3652,73660.0,Note Off,0,1.0,37.0,82.0,0,3,,,,,,
3653,73728.0,Note On,0,1.0,32.0,82.0,0,3,540.0,2.0,0.0,56.0,g#,92.0
3654,73728.0,Note On,0,1.0,32.0,82.0,0,3,588.0,2.0,0.0,60.0,c',101.0
3655,73728.0,Note On,0,1.0,32.0,82.0,0,3,536.0,3.0,1.0,32.0,"G#,",82.0
3656,73728.0,Note On,0,1.0,32.0,82.0,0,3,1868.0,5.0,3.0,68.0,g#',82.0
3657,73728.0,Note On,0,1.0,32.0,82.0,0,3,176.0,7.0,5.0,80.0,g#'',75.0
3658,73728.0,Note On,0,1.0,32.0,82.0,0,3,96.0,11.0,9.0,35.0,"B,",82.0
3659,73728.0,Note On,0,1.0,32.0,82.0,0,3,700.0,11.0,9.0,49.0,c#,64.0
3660,74264.0,Note Off,0,1.0,32.0,82.0,0,3,,,,,,
3661,74304.0,Note On,0,1.0,32.0,64.0,0,3,216.0,2.0,0.0,61.0,c#',74.0
3662,74304.0,Note On,0,1.0,32.0,64.0,0,3,168.0,3.0,1.0,32.0,"G#,",64.0
3663,74472.0,Note Off,0,1.0,32.0,64.0,0,3,,,,,,
3664,74496.0,Note On,0,1.0,36.0,82.0,0,3,360.0,2.0,0.0,63.0,d#',101.0
3665,74496.0,Note On,0,1.0,36.0,82.0,0,3,540.0,3.0,1.0,36.0,C,82.0
3666,74496.0,Note On,0,1.0,36.0,82.0,0,3,240.0,11.0,9.0,38.0,D,73.0
3667,74496.0,Note On,0,1.0,36.0,82.0,0,3,112.0,11.0,9.0,42.0,F#,75.0
3668,75036.0,Note Off,0,1.0,36.0,82.0,0,3,,,,,,
3669,75072.0,Note On,0,1.0,32.0,64.0,0,3,168.0,3.0,1.0,32.0,"G#,",64.0
3670,75072.0,Note On,0,1.0,32.0,64.0,0,3,96.0,11.0,9.0,35.0,"B,",64.0
3671,75072.0,Note On,0,1.0,32.0,64.0,0,3,52.0,11.0,9.0,42.0,F#,48.0
3672,75240.0,Note Off,0,1.0,32.0,64.0,0,3,,,,,,
3673,75264.0,Note On,0,1.0,37.0,82.0,0,3,1500.0,3.0,1.0,37.0,C#,82.0
3674,75264.0,Note On,0,1.0,37.0,82.0,0,3,96.0,11.0,9.0,35.0,"B,",82.0
3675,75264.0,Note On,0,1.0,37.0,82.0,0,3,108.0,11.0,9.0,42.0,F#,72.0
3676,76764.0,Note Off,0,1.0,37.0,82.0,0,3,,,,,,
3677,76800.0,Note On,0,1.0,32.0,82.0,0,3,1516.0,2.0,0.0,44.0,G#,91.0
3678,76800.0,Note On,0,1.0,32.0,82.0,0,3,728.0,3.0,1.0,32.0,"G#,",82.0
3679,76800.0,Note On,0,1.0,32.0,82.0,0,3,96.0,11.0,9.0,35.0,"B,",82.0
3680,76800.0,Note On,0,1.0,32.0,82.0,0,3,108.0,11.0,9.0,42.0,F#,72.0
3681,77528.0,Note Off,0,1.0,32.0,82.0,0,3,,,,,,
3682,77568.0,Note On,0,1.0,36.0,91.0,0,3,160.0,3.0,1.0,36.0,C,91.0
3683,77568.0,Note On,0,1.0,36.0,91.0,0,3,240.0,11.0,9.0,38.0,D,73.0
3684,77568.0,Note On,0,1.0,36.0,91.0,0,3,112.0,11.0,9.0,42.0,F#,75.0
3685,77728.0,Note Off,0,1.0,36.0,91.0,0,3,,,,,,
3686,77760.0,Note On,0,1.0,34.0,64.0,0,3,180.0,3.0,1.0,34.0,"A#,",64.0
3687,77940.0,Note Off,0,1.0,34.0,64.0,0,3,,,,,,
3688,77952.0,Note On,0,1.0,32.0,73.0,0,3,212.0,3.0,1.0,32.0,"G#,",73.0
3689,77952.0,Note On,0,1.0,32.0,73.0,0,3,140.0,11.0,9.0,42.0,F#,72.0
3690,78144.0,Note On,0,1.0,37.0,64.0,0,3,148.0,3.0,1.0,37.0,C#,64.0
3691,78144.0,Note On,0,1.0,37.0,64.0,0,3,96.0,11.0,9.0,35.0,"B,",64.0
3692,78144.0,Note On,0,1.0,37.0,64.0,0,3,52.0,11.0,9.0,42.0,F#,48.0
3693,78164.0,Note Off,0,1.0,32.0,73.0,0,3,,,,,,
3694,78292.0,Note Off,0,1.0,37.0,64.0,0,3,,,,,,
3695,78336.0,Note On,0,1.0,37.0,82.0,0,3,744.0,2.0,0.0,49.0,c#,92.0
3696,78336.0,Note On,0,1.0,37.0,82.0,0,3,728.0,2.0,0.0,56.0,g#,74.0
3697,78336.0,Note On,0,1.0,37.0,82.0,0,3,712.0,3.0,1.0,37.0,C#,82.0
3698,78336.0,Note On,0,1.0,37.0,82.0,0,3,96.0,11.0,9.0,35.0,"B,",82.0
3699,78336.0,Note On,0,1.0,37.0,82.0,0,3,108.0,11.0,9.0,42.0,F#,72.0
3700,79048.0,Note Off,0,1.0,37.0,82.0,0,3,,,,,,
3701,79104.0,Note On,0,1.0,30.0,82.0,0,3,712.0,3.0,1.0,30.0,"F#,",82.0
3702,79104.0,Note On,0,1.0,30.0,82.0,0,3,240.0,11.0,9.0,38.0,D,73.0
3703,79104.0,Note On,0,1.0,30.0,82.0,0,3,112.0,11.0,9.0,42.0,F#,75.0
3704,79104.0,Note On,0,1.0,30.0,82.0,0,3,96.0,11.0,9.0,54.0,f#,91.0
3705,79816.0,Note Off,0,1.0,30.0,82.0,0,3,,,,,,
3706,79872.0,Note On,0,1.0,30.0,82.0,0,3,716.0,3.0,1.0,30.0,"F#,",82.0
3707,79872.0,Note On,0,1.0,30.0,82.0,0,3,96.0,11.0,9.0,35.0,"B,",82.0
3708,79872.0,Note On,0,1.0,30.0,82.0,0,3,108.0,11.0,9.0,42.0,F#,72.0
3709,80588.0,Note Off,0,1.0,30.0,82.0,0,3,,,,,,
3710,80640.0,Note On,0,1.0,29.0,82.0,0,3,556.0,3.0,1.0,29.0,"F,",82.0
3711,80640.0,Note On,0,1.0,29.0,82.0,0,3,240.0,11.0,9.0,38.0,D,73.0
3712,80640.0,Note On,0,1.0,29.0,82.0,0,3,112.0,11.0,9.0,42.0,F#,75.0
3713,81196.0,Note Off,0,1.0,29.0,82.0,0,3,,,,,,
3714,81216.0,Note On,0,1.0,29.0,64.0,0,3,148.0,3.0,1.0,29.0,"F,",64.0
3715,81216.0,Note On,0,1.0,29.0,64.0,0,3,96.0,11.0,9.0,35.0,"B,",64.0
3716,81216.0,Note On,0,1.0,29.0,64.0,0,3,52.0,11.0,9.0,42.0,F#,48.0
3717,81364.0,Note Off,0,1.0,29.0,64.0,0,3,,,,,,
3718,81408.0,Note On,0,1.0,30.0,82.0,0,3,328.0,2.0,0.0,68.0,g#',83.0
3719,81408.0,Note On,0,1.0,30.0,82.0,0,3,300.0,2.0,0.0,72.0,c'',96.0
3720,81408.0,Note On,0,1.0,30.0,82.0,0,3,704.0,3.0,1.0,30.0,"F#,",82.0
3721,81408.0,Note On,0,1.0,30.0,82.0,0,3,96.0,11.0,9.0,35.0,"B,",82.0
3722,81408.0,Note On,0,1.0,30.0,82.0,0,3,108.0,11.0,9.0,42.0,F#,72.0
3723,82112.0,Note Off,0,1.0,30.0,82.0,0,3,,,,,,
3724,82176.0,Note On,0,1.0,29.0,82.0,0,3,740.0,3.0,1.0,29.0,"F,",82.0
3725,82176.0,Note On,0,1.0,29.0,82.0,0,3,240.0,11.0,9.0,38.0,D,73.0
3726,82176.0,Note On,0,1.0,29.0,82.0,0,3,112.0,11.0,9.0,42.0,F#,75.0
3727,82176.0,Note On,0,1.0,29.0,82.0,0,3,96.0,11.0,9.0,54.0,f#,91.0
3728,82916.0,Note Off,0,1.0,29.0,82.0,0,3,776.0,4.0,2.0,85.0,c#''',64.0
3729,82944.0,Note On,0,1.0,34.0,82.0,0,3,752.0,3.0,1.0,34.0,"A#,",82.0
3730,82944.0,Note On,0,1.0,34.0,82.0,0,3,372.0,5.0,3.0,65.0,f',75.0
3731,82944.0,Note On,0,1.0,34.0,82.0,0,3,96.0,11.0,9.0,35.0,"B,",82.0
3732,82944.0,Note On,0,1.0,34.0,82.0,0,3,108.0,11.0,9.0,42.0,F#,72.0
3733,83696.0,Note Off,0,1.0,34.0,82.0,0,3,,,,,,
3734,83712.0,Note On,0,1.0,27.0,82.0,0,3,740.0,2.0,0.0,58.0,a#,78.0
3735,83712.0,Note On,0,1.0,27.0,82.0,0,3,792.0,2.0,0.0,63.0,d#',83.0
3736,83712.0,Note On,0,1.0,27.0,82.0,0,3,496.0,3.0,1.0,27.0,"D#,",82.0
3737,83712.0,Note On,0,1.0,27.0,82.0,0,3,180.0,11.0,9.0,38.0,D,73.0
3738,83712.0,Note On,0,1.0,27.0,82.0,0,3,112.0,11.0,9.0,42.0,F#,75.0
3739,84208.0,Note Off,0,1.0,27.0,82.0,0,3,,,,,,
3740,84288.0,Note On,0,1.0,34.0,64.0,0,3,160.0,2.0,0.0,46.0,A#,82.0
3741,84288.0,Note On,0,1.0,34.0,64.0,0,3,180.0,3.0,1.0,34.0,"A#,",64.0
3742,84288.0,Note On,0,1.0,34.0,64.0,0,3,96.0,11.0,9.0,35.0,"B,",64.0
3743,84288.0,Note On,0,1.0,34.0,64.0,0,3,52.0,11.0,9.0,42.0,F#,48.0
3744,84468.0,Note Off,0,1.0,34.0,64.0,0,3,,,,,,
3745,84480.0,Note On,0,1.0,32.0,82.0,0,3,736.0,3.0,1.0,32.0,"G#,",82.0
3746,84480.0,Note On,0,1.0,32.0,82.0,0,3,96.0,11.0,9.0,35.0,"B,",82.0
3747,84480.0,Note On,0,1.0,32.0,82.0,0,3,108.0,11.0,9.0,42.0,F#,72.0
3748,85216.0,Note Off,0,1.0,32.0,82.0,0,3,,,,,,
3749,85248.0,Note On,0,1.0,32.0,73.0,0,3,172.0,2.0,0.0,44.0,G#,83.0
3750,85248.0,Note On,0,1.0,32.0,73.0,0,3,148.0,3.0,1.0,32.0,"G#,",73.0
3751,85248.0,Note On,0,1.0,32.0,73.0,0,3,376.0,5.0,3.0,66.0,f#',87.0
3752,85248.0,Note On,0,1.0,32.0,73.0,0,3,188.0,11.0,9.0,38.0,D,81.0
3753,85248.0,Note On,0,1.0,32.0,73.0,0,3,96.0,11.0,9.0,54.0,f#,91.0
3754,85396.0,Note Off,0,1.0,32.0,73.0,0,3,,,,,,
3755,85440.0,Note On,0,1.0,34.0,64.0,0,3,156.0,3.0,1.0,34.0,"A#,",64.0
3756,85596.0,Note Off,0,1.0,34.0,64.0,0,3,,,,,,
3757,85632.0,Note On,0,1.0,37.0,82.0,0,3,172.0,3.0,1.0,37.0,C#,82.0
3758,85632.0,Note On,0,1.0,37.0,82.0,0,3,332.0,5.0,3.0,70.0,a#',82.0
3759,85804.0,Note Off,0,1.0,37.0,82.0,0,3,,,,,,
3760,85824.0,Note On,0,1.0,32.0,64.0,0,3,156.0,3.0,1.0,32.0,"G#,",64.0
3761,85980.0,Note Off,0,1.0,32.0,64.0,0,3,,,,,,
3762,86016.0,Note On,0,1.0,32.0,82.0,0,3,312.0,2.0,0.0,60.0,c',92.0
3763,86016.0,Note On,0,1.0,32.0,82.0,0,3,340.0,2.0,0.0,68.0,g#',95.0
3764,86016.0,Note On,0,1.0,32.0,82.0,0,3,1096.0,3.0,1.0,32.0,"G#,",82.0
3765,86016.0,Note On,0,1.0,32.0,82.0,0,3,96.0,11.0,9.0,35.0,"B,",82.0
3766,86016.0,Note On,0,1.0,32.0,82.0,0,3,700.0,11.0,9.0,49.0,c#,64.0
3767,87112.0,Note Off,0,1.0,32.0,82.0,0,3,,,,,,
3768,87168.0,Note On,0,1.0,32.0,81.0,0,3,164.0,3.0,1.0,32.0,"G#,",81.0
3769,87168.0,Note On,0,1.0,32.0,81.0,0,3,140.0,11.0,9.0,42.0,F#,72.0
3770,87332.0,Note Off,0,1.0,32.0,81.0,0,3,,,,,,
3771,87360.0,Note On,0,1.0,36.0,81.0,0,3,176.0,2.0,0.0,48.0,c,83.0
3772,87360.0,Note On,0,1.0,36.0,81.0,0,3,164.0,3.0,1.0,36.0,C,81.0
3773,87360.0,Note On,0,1.0,36.0,81.0,0,3,96.0,11.0,9.0,35.0,"B,",64.0
3774,87360.0,Note On,0,1.0,36.0,81.0,0,3,52.0,11.0,9.0,42.0,F#,48.0
3775,87524.0,Note Off,0,1.0,36.0,81.0,0,3,,,,,,
3776,87552.0,Note On,0,1.0,37.0,82.0,0,3,1108.0,3.0,1.0,37.0,C#,82.0
3777,87552.0,Note On,0,1.0,37.0,82.0,0,3,96.0,11.0,9.0,35.0,"B,",82.0
3778,87552.0,Note On,0,1.0,37.0,82.0,0,3,108.0,11.0,9.0,42.0,F#,72.0
3779,88660.0,Note Off,0,1.0,37.0,82.0,0,3,,,,,,
3780,88704.0,Note On,0,1.0,37.0,82.0,0,3,348.0,3.0,1.0,37.0,C#,82.0
3781,88704.0,Note On,0,1.0,37.0,82.0,0,3,328.0,5.0,3.0,70.0,a#',82.0
3782,88704.0,Note On,0,1.0,37.0,82.0,0,3,140.0,11.0,9.0,42.0,F#,72.0
3783,89052.0,Note Off,0,1.0,37.0,82.0,0,3,,,,,,
3784,89088.0,Note On,0,1.0,36.0,82.0,0,3,536.0,2.0,0.0,48.0,c,91.0
3785,89088.0,Note On,0,1.0,36.0,82.0,0,3,736.0,3.0,1.0,36.0,C,82.0
3786,89088.0,Note On,0,1.0,36.0,82.0,0,3,96.0,11.0,9.0,35.0,"B,",82.0
3787,89088.0,Note On,0,1.0,36.0,82.0,0,3,108.0,11.0,9.0,42.0,F#,72.0
3788,89824.0,Note Off,0,1.0,36.0,82.0,0,3,440.0,4.0,2.0,78.0,f#'',52.0
3789,89856.0,Note On,0,1.0,33.0,82.0,0,3,528.0,2.0,0.0,45.0,A,101.0
3790,89856.0,Note On,0,1.0,33.0,82.0,0,3,468.0,3.0,1.0,33.0,"A,",82.0
3791,89856.0,Note On,0,1.0,33.0,82.0,0,3,240.0,11.0,9.0,38.0,D,73.0
3792,89856.0,Note On,0,1.0,33.0,82.0,0,3,112.0,11.0,9.0,42.0,F#,75.0
3793,90324.0,Note Off,0,1.0,33.0,82.0,0,3,,,,,,
3794,90432.0,Note On,0,1.0,33.0,64.0,0,3,144.0,3.0,1.0,33.0,"A,",64.0
3795,90432.0,Note On,0,1.0,33.0,64.0,0,3,96.0,11.0,9.0,35.0,"B,",64.0
3796,90432.0,Note On,0,1.0,33.0,64.0,0,3,52.0,11.0,9.0,42.0,F#,48.0
3797,90576.0,Note Off,0,1.0,33.0,64.0,0,3,,,,,,
3798,90624.0,Note On,0,1.0,34.0,82.0,0,3,744.0,3.0,1.0,34.0,"A#,",82.0
3799,90624.0,Note On,0,1.0,34.0,82.0,0,3,96.0,11.0,9.0,35.0,"B,",82.0
3800,90624.0,Note On,0,1.0,34.0,82.0,0,3,108.0,11.0,9.0,42.0,F#,72.0
3801,91368.0,Note Off,0,1.0,34.0,82.0,0,3,,,,,,
3802,91392.0,Note On,0,1.0,32.0,82.0,0,3,728.0,3.0,1.0,32.0,"G#,",82.0
3803,91392.0,Note On,0,1.0,32.0,82.0,0,3,240.0,11.0,9.0,38.0,D,73.0
3804,91392.0,Note On,0,1.0,32.0,82.0,0,3,112.0,11.0,9.0,42.0,F#,75.0
3805,91392.0,Note On,0,1.0,32.0,82.0,0,3,96.0,11.0,9.0,54.0,f#,91.0
3806,92120.0,Note Off,0,1.0,32.0,82.0,0,3,,,,,,
3807,92160.0,Note On,0,1.0,30.0,82.0,0,3,732.0,3.0,1.0,30.0,"F#,",82.0
3808,92160.0,Note On,0,1.0,30.0,82.0,0,3,96.0,11.0,9.0,35.0,"B,",82.0
3809,92160.0,Note On,0,1.0,30.0,82.0,0,3,108.0,11.0,9.0,42.0,F#,72.0
3810,92892.0,Note Off,0,1.0,30.0,82.0,0,3,,,,,,
3811,92928.0,Note On,0,1.0,29.0,82.0,0,3,532.0,3.0,1.0,29.0,"F,",82.0
3812,92928.0,Note On,0,1.0,29.0,82.0,0,3,240.0,11.0,9.0,38.0,D,73.0
3813,92928.0,Note On,0,1.0,29.0,82.0,0,3,112.0,11.0,9.0,42.0,F#,75.0
3814,93460.0,Note Off,0,1.0,29.0,82.0,0,3,,,,,,
3815,93504.0,Note On,0,1.0,29.0,64.0,0,3,144.0,3.0,1.0,29.0,"F,",64.0
3816,93504.0,Note On,0,1.0,29.0,64.0,0,3,96.0,11.0,9.0,35.0,"B,",64.0
3817,93504.0,Note On,0,1.0,29.0,64.0,0,3,52.0,11.0,9.0,42.0,F#,48.0
3818,93648.0,Note Off,0,1.0,29.0,64.0,0,3,,,,,,
3819,93696.0,Note On,0,1.0,30.0,82.0,0,3,328.0,2.0,0.0,68.0,g#',83.0
3820,93696.0,Note On,0,1.0,30.0,82.0,0,3,300.0,2.0,0.0,72.0,c'',96.0
3821,93696.0,Note On,0,1.0,30.0,82.0,0,3,568.0,3.0,1.0,30.0,"F#,",82.0
3822,93696.0,Note On,0,1.0,30.0,82.0,0,3,96.0,11.0,9.0,35.0,"B,",82.0
3823,93696.0,Note On,0,1.0,30.0,82.0,0,3,108.0,11.0,9.0,42.0,F#,72.0
3824,94264.0,Note Off,0,1.0,30.0,82.0,0,3,,,,,,
3825,94272.0,Note On,0,1.0,34.0,64.0,0,3,152.0,3.0,1.0,34.0,"A#,",64.0
3826,94272.0,Note On,0,1.0,34.0,64.0,0,3,656.0,5.0,3.0,68.0,g#',64.0
3827,94424.0,Note Off,0,1.0,34.0,64.0,0,3,,,,,,
3828,94464.0,Note On,0,1.0,29.0,82.0,0,3,732.0,3.0,1.0,29.0,"F,",82.0
3829,94464.0,Note On,0,1.0,29.0,82.0,0,3,240.0,11.0,9.0,38.0,D,73.0
3830,94464.0,Note On,0,1.0,29.0,82.0,0,3,112.0,11.0,9.0,42.0,F#,75.0
3831,94464.0,Note On,0,1.0,29.0,82.0,0,3,96.0,11.0,9.0,54.0,f#,91.0
3832,95196.0,Note Off,0,1.0,29.0,82.0,0,3,,,,,,
3833,95232.0,Note On,0,1.0,34.0,82.0,0,3,728.0,3.0,1.0,34.0,"A#,",82.0
3834,95232.0,Note On,0,1.0,34.0,82.0,0,3,96.0,11.0,9.0,35.0,"B,",82.0
3835,95232.0,Note On,0,1.0,34.0,82.0,0,3,108.0,11.0,9.0,42.0,F#,72.0
3836,95960.0,Note Off,0,1.0,34.0,82.0,0,3,,,,,,
3837,96000.0,Note On,0,1.0,27.0,82.0,0,3,792.0,2.0,0.0,63.0,d#',83.0
3838,96000.0,Note On,0,1.0,27.0,82.0,0,3,516.0,3.0,1.0,27.0,"D#,",82.0
3839,96000.0,Note On,0,1.0,27.0,82.0,0,3,240.0,11.0,9.0,38.0,D,73.0
3840,96000.0,Note On,0,1.0,27.0,82.0,0,3,112.0,11.0,9.0,42.0,F#,75.0
3841,96516.0,Note Off,0,1.0,27.0,82.0,0,3,,,,,,
3842,96576.0,Note On,0,1.0,27.0,64.0,0,3,164.0,3.0,1.0,27.0,"D#,",64.0
3843,96576.0,Note On,0,1.0,27.0,64.0,0,3,96.0,11.0,9.0,35.0,"B,",64.0
3844,96576.0,Note On,0,1.0,27.0,64.0,0,3,52.0,11.0,9.0,42.0,F#,48.0
3845,96740.0,Note Off,0,1.0,27.0,64.0,0,3,,,,,,
3846,96768.0,Note On,0,1.0,35.0,82.0,0,3,556.0,3.0,1.0,35.0,"B,",82.0
3847,96768.0,Note On,0,1.0,35.0,82.0,0,3,96.0,11.0,9.0,35.0,"B,",82.0
3848,96768.0,Note On,0,1.0,35.0,82.0,0,3,108.0,11.0,9.0,42.0,F#,72.0
3849,97324.0,Note Off,0,1.0,35.0,82.0,0,3,,,,,,
3850,97344.0,Note On,0,1.0,35.0,64.0,0,3,164.0,3.0,1.0,35.0,"B,",64.0
3851,97344.0,Note On,0,1.0,35.0,64.0,0,3,96.0,11.0,9.0,35.0,"B,",78.0
3852,97508.0,Note Off,0,1.0,35.0,64.0,0,3,,,,,,
3853,97536.0,Note On,0,1.0,32.0,82.0,0,3,748.0,2.0,0.0,44.0,G#,97.0
3854,97536.0,Note On,0,1.0,32.0,82.0,0,3,344.0,3.0,1.0,32.0,"G#,",82.0
3855,97536.0,Note On,0,1.0,32.0,82.0,0,3,96.0,11.0,9.0,35.0,"B,",82.0
3856,97536.0,Note On,0,1.0,32.0,82.0,0,3,112.0,11.0,9.0,42.0,F#,75.0
3857,97536.0,Note On,0,1.0,32.0,82.0,0,3,96.0,11.0,9.0,54.0,f#,91.0
3858,97880.0,Note Off,0,1.0,32.0,82.0,0,3,,,,,,
3859,97920.0,Note On,0,1.0,32.0,82.0,0,3,344.0,3.0,1.0,32.0,"G#,",82.0
3860,97920.0,Note On,0,1.0,32.0,82.0,0,3,340.0,5.0,3.0,61.0,c#',73.0
3861,97920.0,Note On,0,1.0,32.0,82.0,0,3,56.0,6.0,4.0,57.0,a,109.0
3862,97920.0,Note On,0,1.0,32.0,82.0,0,3,80.0,11.0,9.0,38.0,D,81.0
3863,98264.0,Note Off,0,1.0,32.0,82.0,0,3,,,,,,
3864,98304.0,Note On,0,1.0,33.0,82.0,0,3,1436.0,2.0,0.0,45.0,A,92.0
3865,98304.0,Note On,0,1.0,33.0,82.0,0,3,492.0,2.0,0.0,52.0,e,83.0
3866,98304.0,Note On,0,1.0,33.0,82.0,0,3,1304.0,3.0,1.0,33.0,"A,",82.0
3867,98304.0,Note On,0,1.0,33.0,82.0,0,3,764.0,4.0,2.0,64.0,e',52.0
3868,98304.0,Note On,0,1.0,33.0,82.0,0,3,400.0,6.0,4.0,61.0,c#',91.0
3869,98304.0,Note On,0,1.0,33.0,82.0,0,3,96.0,11.0,9.0,35.0,"B,",82.0
3870,98304.0,Note On,0,1.0,33.0,82.0,0,3,700.0,11.0,9.0,49.0,c#,64.0
3871,99608.0,Note Off,0,1.0,33.0,82.0,0,3,,,,,,
3872,99648.0,Note On,0,1.0,33.0,64.0,0,3,156.0,3.0,1.0,33.0,"A,",64.0
3873,99648.0,Note On,0,1.0,33.0,64.0,0,3,96.0,11.0,9.0,35.0,"B,",64.0
3874,99648.0,Note On,0,1.0,33.0,64.0,0,3,52.0,11.0,9.0,42.0,F#,48.0
3875,99648.0,Note On,0,1.0,33.0,64.0,0,3,352.0,11.0,9.0,81.0,a'',52.0
3876,99804.0,Note Off,0,1.0,33.0,64.0,0,3,,,,,,
3877,99840.0,Note On,0,1.0,33.0,82.0,0,3,1456.0,3.0,1.0,33.0,"A,",82.0
3878,99840.0,Note On,0,1.0,33.0,82.0,0,3,96.0,11.0,9.0,35.0,"B,",82.0
3879,99840.0,Note On,0,1.0,33.0,82.0,0,3,108.0,11.0,9.0,42.0,F#,72.0
3880,101296.0,Note Off,0,1.0,33.0,82.0,0,3,,,,,,
3881,101376.0,Note On,0,1.0,33.0,82.0,0,3,716.0,2.0,0.0,45.0,A,92.0
3882,101376.0,Note On,0,1.0,33.0,82.0,0,3,492.0,2.0,0.0,52.0,e,83.0
3883,101376.0,Note On,0,1.0,33.0,82.0,0,3,536.0,2.0,0.0,61.0,c#',92.0
3884,101376.0,Note On,0,1.0,33.0,82.0,0,3,732.0,3.0,1.0,33.0,"A,",82.0
3885,101376.0,Note On,0,1.0,33.0,82.0,0,3,96.0,11.0,9.0,35.0,"B,",82.0
3886,101376.0,Note On,0,1.0,33.0,82.0,0,3,108.0,11.0,9.0,42.0,F#,72.0
3887,102108.0,Note Off,0,1.0,33.0,82.0,0,3,,,,,,
3888,102144.0,Note On,0,1.0,30.0,82.0,0,3,560.0,2.0,0.0,42.0,F#,92.0
3889,102144.0,Note On,0,1.0,30.0,82.0,0,3,572.0,3.0,1.0,30.0,"F#,",82.0
3890,102144.0,Note On,0,1.0,30.0,82.0,0,3,240.0,11.0,9.0,38.0,D,73.0
3891,102144.0,Note On,0,1.0,30.0,82.0,0,3,112.0,11.0,9.0,42.0,F#,75.0
3892,102716.0,Note Off,0,1.0,30.0,82.0,0,3,,,,,,
3893,102720.0,Note On,0,1.0,33.0,64.0,0,3,180.0,3.0,1.0,33.0,"A,",64.0
3894,102720.0,Note On,0,1.0,33.0,64.0,0,3,96.0,11.0,9.0,35.0,"B,",64.0
3895,102720.0,Note On,0,1.0,33.0,64.0,0,3,52.0,11.0,9.0,42.0,F#,48.0
3896,102720.0,Note On,0,1.0,33.0,64.0,0,3,352.0,11.0,9.0,81.0,a'',52.0
3897,102900.0,Note Off,0,1.0,33.0,64.0,0,3,,,,,,
3898,102912.0,Note On,0,1.0,29.0,82.0,0,3,1120.0,3.0,1.0,29.0,"F,",82.0
3899,102912.0,Note On,0,1.0,29.0,82.0,0,3,1560.0,4.0,2.0,53.0,f,56.0
3900,102912.0,Note On,0,1.0,29.0,82.0,0,3,376.0,6.0,4.0,69.0,a',100.0
3901,102912.0,Note On,0,1.0,29.0,82.0,0,3,388.0,9.0,7.0,83.0,b'',73.0
3902,102912.0,Note On,0,1.0,29.0,82.0,0,3,96.0,11.0,9.0,35.0,"B,",82.0
3903,102912.0,Note On,0,1.0,29.0,82.0,0,3,108.0,11.0,9.0,42.0,F#,72.0
3904,104032.0,Note Off,0,1.0,29.0,82.0,0,3,,,,,,
3905,104064.0,Note On,0,1.0,28.0,82.0,0,3,360.0,2.0,0.0,40.0,E,92.0
3906,104064.0,Note On,0,1.0,28.0,82.0,0,3,356.0,2.0,0.0,56.0,g#,92.0
3907,104064.0,Note On,0,1.0,28.0,82.0,0,3,344.0,2.0,0.0,62.0,d',83.0
3908,104064.0,Note On,0,1.0,28.0,82.0,0,3,352.0,3.0,1.0,28.0,"E,",82.0
3909,104064.0,Note On,0,1.0,28.0,82.0,0,3,396.0,9.0,7.0,80.0,g#'',72.0
3910,104064.0,Note On,0,1.0,28.0,82.0,0,3,196.0,11.0,9.0,43.0,G,82.0
3911,104064.0,Note On,0,1.0,28.0,82.0,0,3,60.0,11.0,9.0,80.0,g#'',36.0
3912,104416.0,Note Off,0,1.0,28.0,82.0,0,3,1496.0,4.0,2.0,59.0,b,60.0
3913,104448.0,Note On,0,1.0,26.0,82.0,0,3,712.0,2.0,0.0,38.0,D,92.0
3914,104448.0,Note On,0,1.0,26.0,82.0,0,3,732.0,2.0,0.0,59.0,b,88.0
3915,104448.0,Note On,0,1.0,26.0,82.0,0,3,724.0,3.0,1.0,26.0,"D,",82.0
3916,104448.0,Note On,0,1.0,26.0,82.0,0,3,412.0,6.0,4.0,66.0,f#',90.0
3917,104448.0,Note On,0,1.0,26.0,82.0,0,3,96.0,11.0,9.0,35.0,"B,",82.0
3918,104448.0,Note On,0,1.0,26.0,82.0,0,3,700.0,11.0,9.0,49.0,c#,64.0
3919,105172.0,Note Off,0,1.0,26.0,82.0,0,3,,,,,,
3920,105216.0,Note On,0,1.0,25.0,82.0,0,3,756.0,2.0,0.0,37.0,C#,92.0
3921,105216.0,Note On,0,1.0,25.0,82.0,0,3,732.0,2.0,0.0,61.0,c#',96.0
3922,105216.0,Note On,0,1.0,25.0,82.0,0,3,748.0,3.0,1.0,25.0,"C#,",82.0
3923,105216.0,Note On,0,1.0,25.0,82.0,0,3,756.0,4.0,2.0,65.0,f',64.0
3924,105216.0,Note On,0,1.0,25.0,82.0,0,3,240.0,11.0,9.0,38.0,D,73.0
3925,105216.0,Note On,0,1.0,25.0,82.0,0,3,112.0,11.0,9.0,42.0,F#,75.0
3926,105964.0,Note Off,0,1.0,25.0,82.0,0,3,,,,,,
3927,105984.0,Note On,0,1.0,30.0,82.0,0,3,168.0,2.0,0.0,59.0,b,74.0
3928,105984.0,Note On,0,1.0,30.0,82.0,0,3,548.0,3.0,1.0,30.0,"F#,",82.0
3929,105984.0,Note On,0,1.0,30.0,82.0,0,3,96.0,11.0,9.0,35.0,"B,",82.0
3930,105984.0,Note On,0,1.0,30.0,82.0,0,3,108.0,11.0,9.0,42.0,F#,72.0
3931,106532.0,Note Off,0,1.0,30.0,82.0,0,3,,,,,,
3932,106560.0,Note On,0,1.0,30.0,64.0,0,3,160.0,3.0,1.0,30.0,"F#,",64.0
3933,106720.0,Note Off,0,1.0,30.0,64.0,0,3,,,,,,
3934,106752.0,Note On,0,1.0,28.0,82.0,0,3,744.0,3.0,1.0,28.0,"E,",82.0
3935,106752.0,Note On,0,1.0,28.0,82.0,0,3,364.0,9.0,7.0,81.0,a'',73.0
3936,106752.0,Note On,0,1.0,28.0,82.0,0,3,240.0,11.0,9.0,38.0,D,73.0
3937,106752.0,Note On,0,1.0,28.0,82.0,0,3,112.0,11.0,9.0,42.0,F#,75.0
3938,106752.0,Note On,0,1.0,28.0,82.0,0,3,96.0,11.0,9.0,54.0,f#,91.0
3939,107496.0,Note Off,0,1.0,28.0,82.0,0,3,1560.0,4.0,2.0,62.0,d',56.0
3940,107520.0,Note On,0,1.0,33.0,82.0,0,3,740.0,2.0,0.0,62.0,d',101.0
3941,107520.0,Note On,0,1.0,33.0,82.0,0,3,536.0,3.0,1.0,33.0,"A,",82.0
3942,107520.0,Note On,0,1.0,33.0,82.0,0,3,1552.0,4.0,2.0,74.0,d'',52.0
3943,107520.0,Note On,0,1.0,33.0,82.0,0,3,1548.0,9.0,7.0,81.0,a'',82.0
3944,107520.0,Note On,0,1.0,33.0,82.0,0,3,96.0,11.0,9.0,35.0,"B,",82.0
3945,107520.0,Note On,0,1.0,33.0,82.0,0,3,108.0,11.0,9.0,42.0,F#,72.0
3946,108056.0,Note Off,0,1.0,33.0,82.0,0,3,,,,,,
3947,108096.0,Note On,0,1.0,33.0,64.0,0,3,160.0,3.0,1.0,33.0,"A,",64.0
3948,108256.0,Note Off,0,1.0,33.0,64.0,0,3,,,,,,
3949,108288.0,Note On,0,1.0,33.0,83.0,0,3,692.0,2.0,0.0,45.0,A,62.0
3950,108288.0,Note On,0,1.0,33.0,83.0,0,3,708.0,2.0,0.0,59.0,b,58.0
3951,108288.0,Note On,0,1.0,33.0,83.0,0,3,716.0,2.0,0.0,62.0,d',101.0
3952,108288.0,Note On,0,1.0,33.0,83.0,0,3,720.0,2.0,0.0,66.0,f#',92.0
3953,108288.0,Note On,0,1.0,33.0,83.0,0,3,336.0,3.0,1.0,33.0,"A,",83.0
3954,108288.0,Note On,0,1.0,33.0,83.0,0,3,112.0,6.0,4.0,81.0,a'',84.0
3955,108288.0,Note On,0,1.0,33.0,83.0,0,3,240.0,11.0,9.0,38.0,D,73.0
3956,108288.0,Note On,0,1.0,33.0,83.0,0,3,112.0,11.0,9.0,42.0,F#,75.0
3957,108624.0,Note Off,0,1.0,33.0,83.0,0,3,,,,,,
3958,108672.0,Note On,0,1.0,33.0,83.0,0,3,336.0,3.0,1.0,33.0,"A,",83.0
3959,108672.0,Note On,0,1.0,33.0,83.0,0,3,140.0,11.0,9.0,42.0,F#,72.0
3960,108672.0,Note On,0,1.0,33.0,83.0,0,3,60.0,11.0,9.0,80.0,g#'',36.0
3961,109008.0,Note Off,0,1.0,33.0,83.0,0,3,,,,,,
3962,109056.0,Note On,0,1.0,33.0,82.0,0,3,148.0,3.0,1.0,33.0,"A,",82.0
3963,109204.0,Note Off,0,1.0,33.0,82.0,0,3,,,,,,
3964,110592.0,Note On,0,1.0,30.0,82.0,0,3,740.0,2.0,0.0,61.0,c#',101.0
3965,110592.0,Note On,0,1.0,30.0,82.0,0,3,732.0,2.0,0.0,64.0,e',92.0
3966,110592.0,Note On,0,1.0,30.0,82.0,0,3,716.0,3.0,1.0,30.0,"F#,",82.0
3967,110592.0,Note On,0,1.0,30.0,82.0,0,3,1868.0,5.0,3.0,69.0,a',82.0
3968,110592.0,Note On,0,1.0,30.0,82.0,0,3,800.0,9.0,7.0,81.0,a'',78.0
3969,110592.0,Note On,0,1.0,30.0,82.0,0,3,96.0,11.0,9.0,35.0,"B,",82.0
3970,110592.0,Note On,0,1.0,30.0,82.0,0,3,700.0,11.0,9.0,49.0,c#,64.0
3971,111308.0,Note Off,0,1.0,30.0,82.0,0,3,,,,,,
3972,111360.0,Note On,0,1.0,37.0,82.0,0,3,548.0,3.0,1.0,37.0,C#,82.0
3973,111360.0,Note On,0,1.0,37.0,82.0,0,3,240.0,11.0,9.0,38.0,D,73.0
3974,111360.0,Note On,0,1.0,37.0,82.0,0,3,112.0,11.0,9.0,42.0,F#,75.0
3975,111908.0,Note Off,0,1.0,37.0,82.0,0,3,,,,,,
3976,111936.0,Note On,0,1.0,37.0,64.0,0,3,148.0,3.0,1.0,37.0,C#,64.0
3977,111936.0,Note On,0,1.0,37.0,64.0,0,3,96.0,11.0,9.0,35.0,"B,",64.0
3978,111936.0,Note On,0,1.0,37.0,64.0,0,3,52.0,11.0,9.0,42.0,F#,48.0
3979,112084.0,Note Off,0,1.0,37.0,64.0,0,3,,,,,,
3980,112128.0,Note On,0,1.0,38.0,82.0,0,3,1512.0,3.0,1.0,38.0,D,82.0
3981,112128.0,Note On,0,1.0,38.0,82.0,0,3,96.0,11.0,9.0,35.0,"B,",82.0
3982,112128.0,Note On,0,1.0,38.0,82.0,0,3,108.0,11.0,9.0,42.0,F#,72.0
3983,113640.0,Note Off,0,1.0,38.0,82.0,0,3,,,,,,
3984,113664.0,Note On,0,1.0,37.0,82.0,0,3,708.0,3.0,1.0,37.0,C#,82.0
3985,113664.0,Note On,0,1.0,37.0,82.0,0,3,96.0,11.0,9.0,35.0,"B,",82.0
3986,113664.0,Note On,0,1.0,37.0,82.0,0,3,108.0,11.0,9.0,42.0,F#,72.0
3987,114372.0,Note Off,0,1.0,37.0,82.0,0,3,,,,,,
3988,114432.0,Note On,0,1.0,37.0,82.0,0,3,512.0,3.0,1.0,37.0,C#,82.0
3989,114432.0,Note On,0,1.0,37.0,82.0,0,3,240.0,11.0,9.0,38.0,D,73.0
3990,114432.0,Note On,0,1.0,37.0,82.0,0,3,112.0,11.0,9.0,42.0,F#,75.0
3991,114944.0,Note Off,0,1.0,37.0,82.0,0,3,,,,,,
3992,115008.0,Note On,0,1.0,33.0,64.0,0,3,148.0,3.0,1.0,33.0,"A,",64.0
3993,115008.0,Note On,0,1.0,33.0,64.0,0,3,96.0,11.0,9.0,35.0,"B,",64.0
3994,115008.0,Note On,0,1.0,33.0,64.0,0,3,52.0,11.0,9.0,42.0,F#,48.0
3995,115156.0,Note Off,0,1.0,33.0,64.0,0,3,,,,,,
3996,115200.0,Note On,0,1.0,38.0,82.0,0,3,744.0,2.0,0.0,50.0,d,92.0
3997,115200.0,Note On,0,1.0,38.0,82.0,0,3,728.0,2.0,0.0,57.0,a,74.0
3998,115200.0,Note On,0,1.0,38.0,82.0,0,3,724.0,3.0,1.0,38.0,D,82.0
3999,115200.0,Note On,0,1.0,38.0,82.0,0,3,96.0,11.0,9.0,35.0,"B,",82.0
4000,115200.0,Note On,0,1.0,38.0,82.0,0,3,108.0,11.0,9.0,42.0,F#,72.0
4001,115924.0,Note Off,0,1.0,38.0,82.0,0,3,,,,,,
4002,115968.0,Note On,0,1.0,26.0,82.0,0,3,228.0,3.0,1.0,26.0,"D,",82.0
4003,115968.0,Note On,0,1.0,26.0,82.0,0,3,240.0,11.0,9.0,38.0,D,73.0
4004,115968.0,Note On,0,1.0,26.0,82.0,0,3,112.0,11.0,9.0,42.0,F#,75.0
4005,115968.0,Note On,0,1.0,26.0,82.0,0,3,96.0,11.0,9.0,54.0,f#,91.0
4006,116196.0,Note Off,0,1.0,26.0,82.0,0,3,,,,,,
4007,116224.0,Note On,0,1.0,28.0,78.0,0,3,208.0,2.0,0.0,40.0,E,74.0
4008,116224.0,Note On,0,1.0,28.0,78.0,0,3,200.0,3.0,1.0,28.0,"E,",78.0
4009,116224.0,Note On,0,1.0,28.0,78.0,0,3,224.0,5.0,3.0,67.0,g',73.0
4010,116424.0,Note Off,0,1.0,28.0,78.0,0,3,,,,,,
4011,116480.0,Note On,0,1.0,30.0,78.0,0,3,208.0,3.0,1.0,30.0,"F#,",78.0
4012,116688.0,Note Off,0,1.0,30.0,78.0,0,3,,,,,,
4013,116736.0,Note On,0,1.0,31.0,82.0,0,3,540.0,3.0,1.0,31.0,"G,",82.0
4014,116736.0,Note On,0,1.0,31.0,82.0,0,3,96.0,11.0,9.0,35.0,"B,",82.0
4015,116736.0,Note On,0,1.0,31.0,82.0,0,3,108.0,11.0,9.0,42.0,F#,72.0
4016,117276.0,Note Off,0,1.0,31.0,82.0,0,3,,,,,,
4017,117312.0,Note On,0,1.0,31.0,64.0,0,3,148.0,3.0,1.0,31.0,"G,",64.0
4018,117460.0,Note Off,0,1.0,31.0,64.0,0,3,,,,,,
4019,117504.0,Note On,0,1.0,30.0,82.0,0,3,536.0,3.0,1.0,30.0,"F#,",82.0
4020,117504.0,Note On,0,1.0,30.0,82.0,0,3,240.0,11.0,9.0,38.0,D,73.0
4021,117504.0,Note On,0,1.0,30.0,82.0,0,3,112.0,11.0,9.0,42.0,F#,75.0
4022,118040.0,Note Off,0,1.0,30.0,82.0,0,3,,,,,,
4023,118080.0,Note On,0,1.0,30.0,64.0,0,3,148.0,3.0,1.0,30.0,"F#,",64.0
4024,118080.0,Note On,0,1.0,30.0,64.0,0,3,96.0,11.0,9.0,35.0,"B,",64.0
4025,118080.0,Note On,0,1.0,30.0,64.0,0,3,52.0,11.0,9.0,42.0,F#,48.0
4026,118228.0,Note Off,0,1.0,30.0,64.0,0,3,,,,,,
4027,118272.0,Note On,0,1.0,31.0,82.0,0,3,328.0,2.0,0.0,69.0,a',83.0
4028,118272.0,Note On,0,1.0,31.0,82.0,0,3,300.0,2.0,0.0,73.0,c#'',96.0
4029,118272.0,Note On,0,1.0,31.0,82.0,0,3,540.0,3.0,1.0,31.0,"G,",82.0
4030,118272.0,Note On,0,1.0,31.0,82.0,0,3,96.0,11.0,9.0,35.0,"B,",82.0
4031,118272.0,Note On,0,1.0,31.0,82.0,0,3,108.0,11.0,9.0,42.0,F#,72.0
4032,118812.0,Note Off,0,1.0,31.0,82.0,0,3,,,,,,
4033,118848.0,Note On,0,1.0,31.0,64.0,0,3,148.0,3.0,1.0,31.0,"G,",64.0
4034,118996.0,Note Off,0,1.0,31.0,64.0,0,3,,,,,,
4035,119040.0,Note On,0,1.0,30.0,82.0,0,3,520.0,3.0,1.0,30.0,"F#,",82.0
4036,119040.0,Note On,0,1.0,30.0,82.0,0,3,240.0,11.0,9.0,38.0,D,73.0
4037,119040.0,Note On,0,1.0,30.0,82.0,0,3,112.0,11.0,9.0,42.0,F#,75.0
4038,119040.0,Note On,0,1.0,30.0,82.0,0,3,96.0,11.0,9.0,54.0,f#,91.0
4039,119560.0,Note Off,0,1.0,30.0,82.0,0,3,,,,,,
4040,119616.0,Note On,0,1.0,30.0,64.0,0,3,148.0,3.0,1.0,30.0,"F#,",64.0
4041,119764.0,Note Off,0,1.0,30.0,64.0,0,3,,,,,,
4042,119808.0,Note On,0,1.0,35.0,82.0,0,3,696.0,3.0,1.0,35.0,"B,",82.0
4043,119808.0,Note On,0,1.0,35.0,82.0,0,3,524.0,5.0,3.0,74.0,d'',82.0
4044,119808.0,Note On,0,1.0,35.0,82.0,0,3,96.0,11.0,9.0,35.0,"B,",82.0
4045,119808.0,Note On,0,1.0,35.0,82.0,0,3,20.0,11.0,9.0,49.0,c#,64.0
4046,120504.0,Note Off,0,1.0,35.0,82.0,0,3,,,,,,
4047,120576.0,Note On,0,1.0,28.0,82.0,0,3,520.0,3.0,1.0,28.0,"E,",82.0
4048,120576.0,Note On,0,1.0,28.0,82.0,0,3,240.0,11.0,9.0,38.0,D,73.0
4049,120576.0,Note On,0,1.0,28.0,82.0,0,3,20.0,11.0,9.0,57.0,a,64.0
4050,121096.0,Note Off,0,1.0,28.0,82.0,0,3,,,,,,
4051,121152.0,Note On,0,1.0,28.0,73.0,0,3,160.0,2.0,0.0,47.0,B,82.0
4052,121152.0,Note On,0,1.0,28.0,73.0,0,3,192.0,3.0,1.0,28.0,"E,",73.0
4053,121152.0,Note On,0,1.0,28.0,73.0,0,3,164.0,5.0,3.0,69.0,a',73.0
4054,121152.0,Note On,0,1.0,28.0,73.0,0,3,96.0,11.0,9.0,35.0,"B,",64.0
4055,121152.0,Note On,0,1.0,28.0,73.0,0,3,52.0,11.0,9.0,42.0,F#,48.0
4056,121344.0,Note Off,0,1.0,28.0,73.0,0,3,1460.0,3.0,1.0,33.0,"A,",82.0
4057,121344.0,Note Off,0,1.0,28.0,73.0,0,3,516.0,5.0,3.0,69.0,a',91.0
4058,121344.0,Note Off,0,1.0,28.0,73.0,0,3,96.0,11.0,9.0,35.0,"B,",82.0
4059,121344.0,Note Off,0,1.0,28.0,73.0,0,3,20.0,11.0,9.0,49.0,c#,64.0
4060,121344.0,Note On,0,1.0,33.0,82.0,0,3,1460.0,3.0,1.0,33.0,"A,",82.0
4061,121344.0,Note On,0,1.0,33.0,82.0,0,3,516.0,5.0,3.0,69.0,a',91.0
4062,121344.0,Note On,0,1.0,33.0,82.0,0,3,96.0,11.0,9.0,35.0,"B,",82.0
4063,121344.0,Note On,0,1.0,33.0,82.0,0,3,20.0,11.0,9.0,49.0,c#,64.0
4064,122804.0,Note Off,0,1.0,33.0,82.0,0,3,,,,,,
4065,122872.0,Note On,0,1.0,37.0,93.0,0,3,212.0,3.0,1.0,37.0,C#,93.0
4066,122872.0,Note On,0,1.0,37.0,93.0,0,3,3852.0,4.0,2.0,81.0,a'',56.0
4067,122872.0,Note On,0,1.0,37.0,93.0,0,3,1592.0,5.0,3.0,69.0,a',73.0
4068,123056.0,Note On,0,1.0,33.0,87.0,0,3,188.0,3.0,1.0,33.0,"A,",87.0
4069,123084.0,Note Off,0,1.0,37.0,93.0,0,3,,,,,,
4070,123244.0,Note Off,0,1.0,33.0,87.0,0,3,,,,,,
4071,123252.0,Note On,0,1.0,28.0,73.0,0,3,200.0,3.0,1.0,28.0,"E,",73.0
4072,123452.0,Note Off,0,1.0,28.0,73.0,0,3,52.0,11.0,9.0,42.0,F#,31.0
4073,123456.0,Note On,0,1.0,33.0,64.0,0,3,148.0,3.0,1.0,33.0,"A,",64.0
4074,123604.0,Note Off,0,1.0,33.0,64.0,0,3,,,,,,
4075,123648.0,Note On,0,1.0,37.0,82.0,0,3,360.0,2.0,0.0,61.0,c#',92.0
4076,123648.0,Note On,0,1.0,37.0,82.0,0,3,548.0,3.0,1.0,37.0,C#,82.0
4077,123648.0,Note On,0,1.0,37.0,82.0,0,3,240.0,11.0,9.0,38.0,D,73.0
4078,123648.0,Note On,0,1.0,37.0,82.0,0,3,112.0,11.0,9.0,42.0,F#,75.0
4079,124196.0,Note Off,0,1.0,37.0,82.0,0,3,,,,,,
4080,124224.0,Note On,0,1.0,37.0,64.0,0,3,176.0,2.0,0.0,49.0,c#,83.0
4081,124224.0,Note On,0,1.0,37.0,64.0,0,3,148.0,3.0,1.0,37.0,C#,64.0
4082,124224.0,Note On,0,1.0,37.0,64.0,0,3,96.0,11.0,9.0,35.0,"B,",64.0
4083,124224.0,Note On,0,1.0,37.0,64.0,0,3,52.0,11.0,9.0,42.0,F#,48.0
4084,124372.0,Note Off,0,1.0,37.0,64.0,0,3,,,,,,
4085,124416.0,Note On,0,1.0,38.0,82.0,0,3,732.0,3.0,1.0,38.0,D,82.0
4086,124416.0,Note On,0,1.0,38.0,82.0,0,3,96.0,11.0,9.0,35.0,"B,",82.0
4087,124416.0,Note On,0,1.0,38.0,82.0,0,3,108.0,11.0,9.0,42.0,F#,72.0
4088,125148.0,Note Off,0,1.0,38.0,82.0,0,3,,,,,,
4089,125184.0,Note On,0,1.0,38.0,86.0,0,3,344.0,3.0,1.0,38.0,D,86.0
4090,125184.0,Note On,0,1.0,38.0,86.0,0,3,240.0,11.0,9.0,38.0,D,73.0
4091,125184.0,Note On,0,1.0,38.0,86.0,0,3,112.0,11.0,9.0,42.0,F#,75.0
4092,125184.0,Note On,0,1.0,38.0,86.0,0,3,96.0,11.0,9.0,54.0,f#,91.0
4093,125528.0,Note Off,0,1.0,38.0,86.0,0,3,,,,,,
4094,125568.0,Note On,0,1.0,35.0,78.0,0,3,344.0,3.0,1.0,35.0,"B,",78.0
4095,125568.0,Note On,0,1.0,35.0,78.0,0,3,328.0,5.0,3.0,71.0,b',82.0
4096,125568.0,Note On,0,1.0,35.0,78.0,0,3,140.0,11.0,9.0,42.0,F#,72.0
4097,125912.0,Note Off,0,1.0,35.0,78.0,0,3,,,,,,
4098,125952.0,Note On,0,1.0,37.0,82.0,0,3,536.0,2.0,0.0,49.0,c#,91.0
4099,125952.0,Note On,0,1.0,37.0,82.0,0,3,548.0,3.0,1.0,37.0,C#,82.0
4100,125952.0,Note On,0,1.0,37.0,82.0,0,3,96.0,11.0,9.0,35.0,"B,",82.0
4101,125952.0,Note On,0,1.0,37.0,82.0,0,3,108.0,11.0,9.0,42.0,F#,72.0
4102,126500.0,Note Off,0,1.0,37.0,82.0,0,3,,,,,,
4103,126528.0,Note On,0,1.0,37.0,64.0,0,3,148.0,3.0,1.0,37.0,C#,64.0
4104,126676.0,Note Off,0,1.0,37.0,64.0,0,3,,,,,,
4105,126720.0,Note On,0,1.0,34.0,82.0,0,3,384.0,2.0,0.0,46.0,A#,92.0
4106,126720.0,Note On,0,1.0,34.0,82.0,0,3,512.0,3.0,1.0,34.0,"A#,",82.0
4107,126720.0,Note On,0,1.0,34.0,82.0,0,3,240.0,11.0,9.0,38.0,D,73.0
4108,126720.0,Note On,0,1.0,34.0,82.0,0,3,112.0,11.0,9.0,42.0,F#,75.0
4109,127232.0,Note Off,0,1.0,34.0,82.0,0,3,,,,,,
4110,127296.0,Note On,0,1.0,30.0,64.0,0,3,148.0,3.0,1.0,30.0,"F#,",64.0
4111,127296.0,Note On,0,1.0,30.0,64.0,0,3,96.0,11.0,9.0,35.0,"B,",64.0
4112,127296.0,Note On,0,1.0,30.0,64.0,0,3,52.0,11.0,9.0,42.0,F#,48.0
4113,127444.0,Note Off,0,1.0,30.0,64.0,0,3,,,,,,
4114,127488.0,Note On,0,1.0,35.0,82.0,0,3,724.0,3.0,1.0,35.0,"B,",82.0
4115,127488.0,Note On,0,1.0,35.0,82.0,0,3,96.0,11.0,9.0,35.0,"B,",82.0
4116,127488.0,Note On,0,1.0,35.0,82.0,0,3,108.0,11.0,9.0,42.0,F#,72.0
4117,128212.0,Note Off,0,1.0,35.0,82.0,0,3,,,,,,
4118,128256.0,Note On,0,1.0,33.0,82.0,0,3,668.0,3.0,1.0,33.0,"A,",82.0
4119,128256.0,Note On,0,1.0,33.0,82.0,0,3,240.0,11.0,9.0,38.0,D,73.0
4120,128256.0,Note On,0,1.0,33.0,82.0,0,3,112.0,11.0,9.0,42.0,F#,75.0
4121,128256.0,Note On,0,1.0,33.0,82.0,0,3,96.0,11.0,9.0,54.0,f#,91.0
4122,128924.0,Note Off,0,1.0,33.0,82.0,0,3,,,,,,
4123,129024.0,Note On,0,1.0,31.0,82.0,0,3,540.0,3.0,1.0,31.0,"G,",82.0
4124,129024.0,Note On,0,1.0,31.0,82.0,0,3,96.0,11.0,9.0,35.0,"B,",82.0
4125,129024.0,Note On,0,1.0,31.0,82.0,0,3,80.0,11.0,9.0,49.0,c#,64.0
4126,129564.0,Note Off,0,1.0,31.0,82.0,0,3,,,,,,
4127,129600.0,Note On,0,1.0,31.0,64.0,0,3,148.0,3.0,1.0,31.0,"G,",64.0
4128,129748.0,Note Off,0,1.0,31.0,64.0,0,3,,,,,,
4129,129792.0,Note On,0,1.0,30.0,82.0,0,3,536.0,3.0,1.0,30.0,"F#,",82.0
4130,129792.0,Note On,0,1.0,30.0,82.0,0,3,240.0,11.0,9.0,38.0,D,73.0
4131,129792.0,Note On,0,1.0,30.0,82.0,0,3,112.0,11.0,9.0,42.0,F#,75.0
4132,130328.0,Note Off,0,1.0,30.0,82.0,0,3,,,,,,
4133,130368.0,Note On,0,1.0,30.0,64.0,0,3,148.0,3.0,1.0,30.0,"F#,",64.0
4134,130368.0,Note On,0,1.0,30.0,64.0,0,3,96.0,11.0,9.0,35.0,"B,",64.0
4135,130368.0,Note On,0,1.0,30.0,64.0,0,3,52.0,11.0,9.0,42.0,F#,48.0
4136,130368.0,Note On,0,1.0,30.0,64.0,0,3,80.0,11.0,9.0,52.0,e,49.0
4137,130516.0,Note Off,0,1.0,30.0,64.0,0,3,,,,,,
4138,130560.0,Note On,0,1.0,31.0,82.0,0,3,328.0,2.0,0.0,69.0,a',83.0
4139,130560.0,Note On,0,1.0,31.0,82.0,0,3,300.0,2.0,0.0,73.0,c#'',96.0
4140,130560.0,Note On,0,1.0,31.0,82.0,0,3,540.0,3.0,1.0,31.0,"G,",82.0
4141,130560.0,Note On,0,1.0,31.0,82.0,0,3,96.0,11.0,9.0,35.0,"B,",82.0
4142,130560.0,Note On,0,1.0,31.0,82.0,0,3,108.0,11.0,9.0,42.0,F#,72.0
4143,130560.0,Note On,0,1.0,31.0,82.0,0,3,80.0,11.0,9.0,52.0,e,64.0
4144,131100.0,Note Off,0,1.0,31.0,82.0,0,3,,,,,,
4145,131136.0,Note On,0,1.0,33.0,64.0,0,3,148.0,3.0,1.0,33.0,"A,",64.0
4146,131136.0,Note On,0,1.0,33.0,64.0,0,3,656.0,5.0,3.0,69.0,a',64.0
4147,131136.0,Note On,0,1.0,33.0,64.0,0,3,60.0,12.0,10.0,50.0,d,48.0
4148,131284.0,Note Off,0,1.0,33.0,64.0,0,3,,,,,,
4149,131328.0,Note On,0,1.0,30.0,82.0,0,3,520.0,3.0,1.0,30.0,"F#,",82.0
4150,131328.0,Note On,0,1.0,30.0,82.0,0,3,240.0,11.0,9.0,38.0,D,73.0
4151,131328.0,Note On,0,1.0,30.0,82.0,0,3,112.0,11.0,9.0,42.0,F#,75.0
4152,131328.0,Note On,0,1.0,30.0,82.0,0,3,96.0,11.0,9.0,54.0,f#,91.0
4153,131848.0,Note Off,0,1.0,30.0,82.0,0,3,,,,,,
4154,131904.0,Note On,0,1.0,30.0,64.0,0,3,148.0,3.0,1.0,30.0,"F#,",64.0
4155,132052.0,Note Off,0,1.0,30.0,64.0,0,3,,,,,,
4156,132096.0,Note On,0,1.0,31.0,82.0,0,3,756.0,2.0,0.0,69.0,a',101.0
4157,132096.0,Note On,0,1.0,31.0,82.0,0,3,696.0,3.0,1.0,31.0,"G,",82.0
4158,132096.0,Note On,0,1.0,31.0,82.0,0,3,96.0,11.0,9.0,35.0,"B,",82.0
4159,132096.0,Note On,0,1.0,31.0,82.0,0,3,108.0,11.0,9.0,42.0,F#,72.0
4160,132096.0,Note On,0,1.0,31.0,82.0,0,3,80.0,11.0,9.0,49.0,c#,64.0
4161,132792.0,Note Off,0,1.0,31.0,82.0,0,3,,,,,,
4162,132864.0,Note On,0,1.0,30.0,82.0,0,3,316.0,3.0,1.0,30.0,"F#,",82.0
4163,132864.0,Note On,0,1.0,30.0,82.0,0,3,240.0,11.0,9.0,38.0,D,73.0
4164,132864.0,Note On,0,1.0,30.0,82.0,0,3,112.0,11.0,9.0,42.0,F#,75.0
4165,133180.0,Note Off,0,1.0,30.0,82.0,0,3,,,,,,
4166,133248.0,Note On,0,1.0,26.0,82.0,0,3,376.0,2.0,0.0,62.0,d',74.0
4167,133248.0,Note On,0,1.0,26.0,82.0,0,3,316.0,3.0,1.0,26.0,"D,",82.0
4168,133248.0,Note On,0,1.0,26.0,82.0,0,3,140.0,11.0,9.0,42.0,F#,72.0
4169,133564.0,Note Off,0,1.0,26.0,82.0,0,3,,,,,,
4170,133632.0,Note On,0,1.0,34.0,82.0,0,3,756.0,2.0,0.0,61.0,c#',83.0
4171,133632.0,Note On,0,1.0,34.0,82.0,0,3,760.0,2.0,0.0,66.0,f#',84.0
4172,133632.0,Note On,0,1.0,34.0,82.0,0,3,720.0,3.0,1.0,34.0,"A#,",82.0
4173,133632.0,Note On,0,1.0,34.0,82.0,0,3,96.0,11.0,9.0,35.0,"B,",82.0
4174,133632.0,Note On,0,1.0,34.0,82.0,0,3,108.0,11.0,9.0,42.0,F#,72.0
4175,133632.0,Note On,0,1.0,34.0,82.0,0,3,80.0,11.0,9.0,52.0,e,64.0
4176,134352.0,Note Off,0,1.0,34.0,82.0,0,3,,,,,,
4177,134400.0,Note On,0,1.0,35.0,82.0,0,3,340.0,3.0,1.0,35.0,"B,",82.0
4178,134400.0,Note On,0,1.0,35.0,82.0,0,3,240.0,11.0,9.0,38.0,D,73.0
4179,134400.0,Note On,0,1.0,35.0,82.0,0,3,96.0,11.0,9.0,54.0,f#,91.0
4180,134740.0,Note Off,0,1.0,35.0,82.0,0,3,,,,,,
4181,134784.0,Note On,0,1.0,30.0,82.0,0,3,340.0,3.0,1.0,30.0,"F#,",82.0
4182,134784.0,Note On,0,1.0,30.0,82.0,0,3,196.0,11.0,9.0,43.0,G,82.0
4183,135124.0,Note Off,0,1.0,30.0,82.0,0,3,,,,,,
4184,135168.0,Note On,0,1.0,28.0,82.0,0,3,1500.0,3.0,1.0,28.0,"E,",82.0
4185,135168.0,Note On,0,1.0,28.0,82.0,0,3,96.0,11.0,9.0,35.0,"B,",82.0
4186,135168.0,Note On,0,1.0,28.0,82.0,0,3,108.0,11.0,9.0,42.0,F#,72.0
4187,135168.0,Note On,0,1.0,28.0,82.0,0,3,80.0,11.0,9.0,49.0,c#,64.0
4188,136668.0,Note Off,0,1.0,28.0,82.0,0,3,,,,,,
4189,136704.0,Note On,0,1.0,36.0,82.0,0,3,700.0,3.0,1.0,36.0,C,82.0
4190,136704.0,Note On,0,1.0,36.0,82.0,0,3,328.0,5.0,3.0,67.0,g',73.0
4191,136704.0,Note On,0,1.0,36.0,82.0,0,3,96.0,11.0,9.0,35.0,"B,",82.0
4192,136704.0,Note On,0,1.0,36.0,82.0,0,3,108.0,11.0,9.0,42.0,F#,72.0
4193,136704.0,Note On,0,1.0,36.0,82.0,0,3,80.0,11.0,9.0,52.0,e,64.0
4194,137404.0,Note Off,0,1.0,36.0,82.0,0,3,56.0,11.0,9.0,51.0,d#,34.0
4195,137472.0,Note On,0,1.0,33.0,82.0,0,3,748.0,2.0,0.0,45.0,A,97.0
4196,137472.0,Note On,0,1.0,33.0,82.0,0,3,804.0,2.0,0.0,59.0,b,83.0
4197,137472.0,Note On,0,1.0,33.0,82.0,0,3,820.0,2.0,0.0,64.0,e',83.0
4198,137472.0,Note On,0,1.0,33.0,82.0,0,3,700.0,3.0,1.0,33.0,"A,",82.0
4199,137472.0,Note On,0,1.0,33.0,82.0,0,3,96.0,11.0,9.0,54.0,f#,91.0
4200,138172.0,Note Off,0,1.0,33.0,82.0,0,3,,,,,,
4201,138240.0,Note On,0,1.0,35.0,82.0,0,3,812.0,2.0,0.0,47.0,B,83.0
4202,138240.0,Note On,0,1.0,35.0,82.0,0,3,1500.0,3.0,1.0,35.0,"B,",82.0
4203,138240.0,Note On,0,1.0,35.0,82.0,0,3,1424.0,5.0,3.0,62.0,d',73.0
4204,138240.0,Note On,0,1.0,35.0,82.0,0,3,80.0,11.0,9.0,49.0,c#,34.0
4205,139740.0,Note Off,0,1.0,35.0,82.0,0,3,1540.0,2.0,0.0,59.0,b,78.0
4206,139776.0,Note On,0,1.0,32.0,82.0,0,3,1500.0,3.0,1.0,32.0,"G#,",82.0
4207,139776.0,Note On,0,1.0,32.0,82.0,0,3,48.0,11.0,9.0,55.0,g,38.0
4208,139776.0,Note On,0,1.0,32.0,82.0,0,3,48.0,11.0,9.0,59.0,b,64.0
4209,141276.0,Note Off,0,1.0,32.0,82.0,0,3,,,,,,
4210,165140.0,Controller,0,1.0,121.0,127.0,0,3,,,,,,
4211,165888.0,End of Track,2f,0.0,0.0,0.0,0,3,,,,,,
4212,0.0,Sequence/Track Name,03,0.0,0.0,0.0,SLOWSTRING,4,,,,,,
4213,424.0,Controller,0,2.0,0.0,0.0,0,4,,,,,,
4214,432.0,Program Change,0,2.0,49.0,0.0,0,4,,,,,,
4215,436.0,Controller,0,2.0,7.0,127.0,0,4,,,,,,
4216,436.0,Controller,0,2.0,10.0,64.0,0,4,,,,,,
4217,436.0,Controller,0,2.0,11.0,127.0,0,4,,,,,,
4218,440.0,Controller,0,2.0,91.0,100.0,0,4,,,,,,
4219,440.0,Controller,0,2.0,93.0,0.0,0,4,,,,,,
4220,3072.0,Note On,0,2.0,65.0,32.0,0,4,1460.0,2.0,0.0,46.0,A#,83.0
4221,3072.0,Note On,0,2.0,65.0,32.0,0,4,3016.0,4.0,2.0,65.0,f',32.0
4222,3072.0,Note On,0,2.0,65.0,32.0,0,4,112.0,11.0,9.0,70.0,a#',69.0
4223,3072.0,Note On,0,2.0,65.0,32.0,0,4,60.0,12.0,10.0,41.0,F,48.0
4224,3072.0,Note On,0,2.0,65.0,32.0,0,4,132.0,13.0,11.0,46.0,A#,69.0
4225,3084.0,Note On,0,2.0,70.0,32.0,0,4,2996.0,4.0,2.0,70.0,a#',32.0
4226,3420.0,Note On,0,2.0,72.0,32.0,0,4,240.0,4.0,2.0,72.0,c'',32.0
4227,3648.0,Note On,0,2.0,74.0,32.0,0,4,2084.0,4.0,2.0,74.0,d'',32.0
4228,3648.0,Note On,0,2.0,74.0,32.0,0,4,220.0,11.0,9.0,70.0,a#',32.0
4229,3660.0,Note Off,0,2.0,72.0,32.0,0,4,,,,,,
4230,5704.0,Note On,0,2.0,72.0,32.0,0,4,444.0,4.0,2.0,72.0,c'',32.0
4231,5732.0,Note Off,0,2.0,74.0,32.0,0,4,396.0,4.0,2.0,63.0,d#',32.0
4232,5732.0,Note On,0,2.0,63.0,32.0,0,4,396.0,4.0,2.0,63.0,d#',32.0
4233,6080.0,Note Off,0,2.0,70.0,32.0,0,4,,,,,,
4234,6088.0,Note Off,0,2.0,65.0,32.0,0,4,,,,,,
4235,6120.0,Note On,0,2.0,65.0,32.0,0,4,1164.0,4.0,2.0,65.0,f',32.0
4236,6120.0,Note On,0,2.0,65.0,32.0,0,4,1176.0,4.0,2.0,70.0,a#',32.0
4237,6120.0,Note On,0,2.0,70.0,32.0,0,4,1164.0,4.0,2.0,65.0,f',32.0
4238,6120.0,Note On,0,2.0,70.0,32.0,0,4,1176.0,4.0,2.0,70.0,a#',32.0
4239,6128.0,Note Off,0,2.0,63.0,32.0,0,4,,,,,,
4240,6136.0,Note On,0,2.0,82.0,32.0,0,4,3092.0,4.0,2.0,82.0,a#'',32.0
4241,6148.0,Note Off,0,2.0,72.0,32.0,0,4,,,,,,
4242,6472.0,Note On,0,2.0,72.0,32.0,0,4,228.0,4.0,2.0,72.0,c'',32.0
4243,6684.0,Note On,0,2.0,74.0,32.0,0,4,612.0,4.0,2.0,74.0,d'',32.0
4244,6700.0,Note Off,0,2.0,72.0,32.0,0,4,,,,,,
4245,7284.0,Note Off,0,2.0,65.0,32.0,0,4,,,,,,
4246,7296.0,Note Off,0,2.0,74.0,32.0,0,4,,,,,,
4247,7296.0,Note Off,0,2.0,70.0,32.0,0,4,,,,,,
4248,9228.0,Note Off,0,2.0,82.0,32.0,0,4,,,,,,
4249,33776.0,Note On,0,2.0,65.0,42.0,0,4,9240.0,4.0,2.0,65.0,f',42.0
4250,42980.0,Note On,0,2.0,70.0,41.0,0,4,3108.0,4.0,2.0,70.0,a#',41.0
4251,43016.0,Note Off,0,2.0,65.0,42.0,0,4,,,,,,
4252,46080.0,Note On,0,2.0,69.0,52.0,0,4,312.0,2.0,0.0,57.0,a,92.0
4253,46080.0,Note On,0,2.0,69.0,52.0,0,4,340.0,2.0,0.0,65.0,f',95.0
4254,46080.0,Note On,0,2.0,69.0,52.0,0,4,588.0,3.0,1.0,29.0,"F,",64.0
4255,46080.0,Note On,0,2.0,69.0,52.0,0,4,1540.0,4.0,2.0,69.0,a',52.0
4256,46080.0,Note On,0,2.0,69.0,52.0,0,4,168.0,9.0,7.0,89.0,f''',66.0
4257,46080.0,Note On,0,2.0,69.0,52.0,0,4,48.0,11.0,9.0,55.0,g,38.0
4258,46080.0,Note On,0,2.0,69.0,52.0,0,4,48.0,11.0,9.0,59.0,b,64.0
4259,46080.0,Note On,0,2.0,69.0,52.0,0,4,112.0,11.0,9.0,70.0,a#',69.0
4260,46080.0,Note On,0,2.0,69.0,52.0,0,4,96.0,12.0,10.0,36.0,C,78.0
4261,46088.0,Note Off,0,2.0,70.0,41.0,0,4,,,,,,
4262,46840.0,Note On,0,2.0,72.0,52.0,0,4,748.0,2.0,0.0,45.0,A,101.0
4263,46840.0,Note On,0,2.0,72.0,52.0,0,4,784.0,4.0,2.0,72.0,c'',52.0
4264,46840.0,Note On,0,2.0,72.0,52.0,0,4,272.0,9.0,7.0,81.0,a'',43.0
4265,47592.0,Note On,0,2.0,70.0,40.0,0,4,1572.0,4.0,2.0,70.0,a#',40.0
4266,47600.0,Note On,0,2.0,74.0,52.0,0,4,784.0,4.0,2.0,74.0,d'',52.0
4267,47620.0,Note Off,0,2.0,69.0,52.0,0,4,,,,,,
4268,47624.0,Note Off,0,2.0,72.0,52.0,0,4,,,,,,
4269,48360.0,Note On,0,2.0,75.0,56.0,0,4,424.0,4.0,2.0,75.0,d#'',56.0
4270,48384.0,Note Off,0,2.0,74.0,52.0,0,4,96.0,11.0,9.0,54.0,f#,91.0
4271,48756.0,Note On,0,2.0,79.0,52.0,0,4,404.0,4.0,2.0,79.0,g'',52.0
4272,48784.0,Note Off,0,2.0,75.0,56.0,0,4,,,,,,
4273,49136.0,Note On,0,2.0,69.0,52.0,0,4,1564.0,4.0,2.0,69.0,a',52.0
4274,49152.0,Note On,0,2.0,77.0,52.0,0,4,536.0,2.0,0.0,41.0,F,91.0
4275,49152.0,Note On,0,2.0,77.0,52.0,0,4,540.0,3.0,1.0,29.0,"F,",64.0
4276,49152.0,Note On,0,2.0,77.0,52.0,0,4,732.0,4.0,2.0,77.0,f'',52.0
4277,49152.0,Note On,0,2.0,77.0,52.0,0,4,112.0,11.0,9.0,70.0,a#',69.0
4278,49152.0,Note On,0,2.0,77.0,52.0,0,4,96.0,12.0,10.0,36.0,C,78.0
4279,49160.0,Note Off,0,2.0,79.0,52.0,0,4,,,,,,
4280,49164.0,Note Off,0,2.0,70.0,40.0,0,4,,,,,,
4281,49880.0,Note On,0,2.0,75.0,60.0,0,4,424.0,4.0,2.0,75.0,d#'',60.0
4282,49884.0,Note Off,0,2.0,77.0,52.0,0,4,,,,,,
4283,50300.0,Note On,0,2.0,74.0,52.0,0,4,1120.0,4.0,2.0,74.0,d'',52.0
4284,50304.0,Note Off,0,2.0,75.0,60.0,0,4,,,,,,
4285,50688.0,Note On,0,2.0,70.0,44.0,0,4,716.0,3.0,1.0,31.0,"G,",64.0
4286,50688.0,Note On,0,2.0,70.0,44.0,0,4,1528.0,4.0,2.0,70.0,a#',44.0
4287,50688.0,Note On,0,2.0,70.0,44.0,0,4,96.0,12.0,10.0,36.0,C,78.0
4288,50700.0,Note Off,0,2.0,69.0,52.0,0,4,,,,,,
4289,51420.0,Note Off,0,2.0,74.0,52.0,0,4,,,,,,
4290,51436.0,Note On,0,2.0,74.0,52.0,0,4,284.0,4.0,2.0,74.0,d'',52.0
4291,51696.0,Note On,0,2.0,75.0,56.0,0,4,276.0,4.0,2.0,75.0,d#'',56.0
4292,51720.0,Note Off,0,2.0,74.0,52.0,0,4,,,,,,
4293,51924.0,Note On,0,2.0,77.0,52.0,0,4,288.0,4.0,2.0,77.0,f'',52.0
4294,51972.0,Note Off,0,2.0,75.0,56.0,0,4,,,,,,
4295,52192.0,Note On,0,2.0,81.0,48.0,0,4,476.0,4.0,2.0,81.0,a'',48.0
4296,52200.0,Note On,0,2.0,69.0,50.0,0,4,776.0,4.0,2.0,69.0,a',50.0
4297,52212.0,Note Off,0,2.0,77.0,52.0,0,4,,,,,,
4298,52216.0,Note Off,0,2.0,70.0,44.0,0,4,740.0,2.0,0.0,39.0,D#,91.0
4299,52608.0,Note On,0,2.0,79.0,40.0,0,4,212.0,4.0,2.0,79.0,g'',40.0
4300,52608.0,Note On,0,2.0,79.0,40.0,0,4,112.0,11.0,9.0,70.0,a#',52.0
4301,52668.0,Note Off,0,2.0,81.0,48.0,0,4,,,,,,
4302,52800.0,Note On,0,2.0,77.0,44.0,0,4,2472.0,4.0,2.0,77.0,f'',44.0
4303,52800.0,Note On,0,2.0,77.0,44.0,0,4,220.0,11.0,9.0,70.0,a#',32.0
4304,52820.0,Note Off,0,2.0,79.0,40.0,0,4,,,,,,
4305,52976.0,Note Off,0,2.0,69.0,50.0,0,4,,,,,,
4306,52980.0,Note On,0,2.0,70.0,48.0,0,4,2292.0,4.0,2.0,70.0,a#',48.0
4307,55272.0,Note Off,0,2.0,70.0,48.0,0,4,,,,,,
4308,55272.0,Note Off,0,2.0,77.0,44.0,0,4,,,,,,
4309,55288.0,Note On,0,2.0,70.0,30.0,0,4,800.0,4.0,2.0,70.0,a#',30.0
4310,55300.0,Note On,0,2.0,74.0,40.0,0,4,736.0,4.0,2.0,74.0,d'',40.0
4311,56012.0,Note On,0,2.0,72.0,48.0,0,4,816.0,4.0,2.0,72.0,c'',48.0
4312,56036.0,Note Off,0,2.0,74.0,40.0,0,4,1564.0,4.0,2.0,67.0,g',41.0
4313,56036.0,Note On,0,2.0,67.0,41.0,0,4,1564.0,4.0,2.0,67.0,g',41.0
4314,56088.0,Note Off,0,2.0,70.0,30.0,0,4,,,,,,
4315,56812.0,Note On,0,2.0,75.0,56.0,0,4,412.0,4.0,2.0,75.0,d#'',56.0
4316,56828.0,Note Off,0,2.0,72.0,48.0,0,4,,,,,,
4317,57204.0,Note On,0,2.0,74.0,56.0,0,4,408.0,4.0,2.0,74.0,d'',56.0
4318,57224.0,Note Off,0,2.0,75.0,56.0,0,4,,,,,,
4319,57568.0,Note On,0,2.0,72.0,60.0,0,4,420.0,4.0,2.0,72.0,c'',60.0
4320,57572.0,Note On,0,2.0,65.0,40.0,0,4,796.0,4.0,2.0,65.0,f',40.0
4321,57600.0,Note Off,0,2.0,67.0,41.0,0,4,748.0,2.0,0.0,41.0,F,97.0
4322,57600.0,Note Off,0,2.0,67.0,41.0,0,4,680.0,3.0,1.0,29.0,"F,",64.0
4323,57600.0,Note Off,0,2.0,67.0,41.0,0,4,96.0,11.0,9.0,54.0,f#,91.0
4324,57612.0,Note Off,0,2.0,74.0,56.0,0,4,,,,,,
4325,57972.0,Note On,0,2.0,70.0,40.0,0,4,380.0,2.0,0.0,51.0,d#,73.0
4326,57972.0,Note On,0,2.0,70.0,40.0,0,4,356.0,4.0,2.0,70.0,a#',40.0
4327,57988.0,Note Off,0,2.0,72.0,60.0,0,4,,,,,,
4328,58328.0,Note Off,0,2.0,70.0,40.0,0,4,,,,,,
4329,58344.0,Note On,0,2.0,70.0,27.0,0,4,3052.0,4.0,2.0,70.0,a#',27.0
4330,58360.0,Note On,0,2.0,82.0,49.0,0,4,3028.0,4.0,2.0,82.0,a#'',49.0
4331,58368.0,Note Off,0,2.0,65.0,40.0,0,4,3020.0,3.0,1.0,34.0,"A#,",64.0
4332,58368.0,Note Off,0,2.0,65.0,40.0,0,4,48.0,11.0,9.0,49.0,c#,38.0
4333,58368.0,Note Off,0,2.0,65.0,40.0,0,4,48.0,11.0,9.0,59.0,b,64.0
4334,58368.0,Note Off,0,2.0,65.0,40.0,0,4,112.0,11.0,9.0,70.0,a#',69.0
4335,58368.0,Note Off,0,2.0,65.0,40.0,0,4,96.0,12.0,10.0,36.0,C,78.0
4336,61388.0,Note Off,0,2.0,82.0,49.0,0,4,136.0,7.0,5.0,96.0,c'''',66.0
4337,61388.0,Note Off,0,2.0,82.0,49.0,0,4,76.0,11.0,9.0,51.0,d#,44.0
4338,61396.0,Note Off,0,2.0,70.0,27.0,0,4,624.0,4.0,2.0,77.0,f'',56.0
4339,61396.0,Note On,0,2.0,77.0,56.0,0,4,624.0,4.0,2.0,77.0,f'',56.0
4340,62000.0,Note On,0,2.0,78.0,60.0,0,4,388.0,4.0,2.0,78.0,f#'',60.0
4341,62020.0,Note Off,0,2.0,77.0,56.0,0,4,,,,,,
4342,62364.0,Note On,0,2.0,77.0,56.0,0,4,232.0,4.0,2.0,77.0,f'',56.0
4343,62388.0,Note Off,0,2.0,78.0,60.0,0,4,1736.0,2.0,0.0,65.0,f',79.0
4344,62572.0,Note On,0,2.0,73.0,56.0,0,4,392.0,4.0,2.0,73.0,c#'',56.0
4345,62596.0,Note Off,0,2.0,77.0,56.0,0,4,,,,,,
4346,62944.0,Note On,0,2.0,68.0,44.0,0,4,1572.0,4.0,2.0,68.0,g#',44.0
4347,62964.0,Note Off,0,2.0,73.0,56.0,0,4,,,,,,
4348,64484.0,Note On,0,2.0,77.0,52.0,0,4,612.0,4.0,2.0,77.0,f'',52.0
4349,64516.0,Note Off,0,2.0,68.0,44.0,0,4,,,,,,
4350,65068.0,Note On,0,2.0,78.0,52.0,0,4,416.0,4.0,2.0,78.0,f#'',52.0
4351,65096.0,Note Off,0,2.0,77.0,52.0,0,4,,,,,,
4352,65432.0,Note On,0,2.0,77.0,64.0,0,4,244.0,4.0,2.0,77.0,f'',64.0
4353,65484.0,Note Off,0,2.0,78.0,52.0,0,4,,,,,,
4354,65644.0,Note On,0,2.0,73.0,60.0,0,4,1152.0,4.0,2.0,73.0,c#'',60.0
4355,65676.0,Note Off,0,2.0,77.0,64.0,0,4,,,,,,
4356,66760.0,Note On,0,2.0,75.0,56.0,0,4,776.0,4.0,2.0,75.0,d#'',56.0
4357,66796.0,Note Off,0,2.0,73.0,60.0,0,4,,,,,,
4358,67536.0,Note Off,0,2.0,75.0,56.0,0,4,,,,,,
4359,67556.0,Note On,0,2.0,87.0,48.0,0,4,772.0,4.0,2.0,87.0,d#''',48.0
4360,67576.0,Note On,0,2.0,75.0,52.0,0,4,764.0,4.0,2.0,75.0,d#'',52.0
4361,68312.0,Note On,0,2.0,89.0,56.0,0,4,796.0,4.0,2.0,89.0,f''',56.0
4362,68316.0,Note On,0,2.0,77.0,52.0,0,4,772.0,4.0,2.0,77.0,f'',52.0
4363,68328.0,Note Off,0,2.0,87.0,48.0,0,4,,,,,,
4364,68340.0,Note Off,0,2.0,75.0,52.0,0,4,,,,,,
4365,69088.0,Note Off,0,2.0,77.0,52.0,0,4,808.0,4.0,2.0,85.0,c#''',58.0
4366,69088.0,Note On,0,2.0,85.0,58.0,0,4,808.0,4.0,2.0,85.0,c#''',58.0
4367,69108.0,Note Off,0,2.0,89.0,56.0,0,4,,,,,,
4368,69120.0,Note On,0,2.0,73.0,48.0,0,4,168.0,2.0,0.0,63.0,d#',74.0
4369,69120.0,Note On,0,2.0,73.0,48.0,0,4,720.0,3.0,1.0,34.0,"A#,",73.0
4370,69120.0,Note On,0,2.0,73.0,48.0,0,4,3076.0,4.0,2.0,73.0,c#'',48.0
4371,69120.0,Note On,0,2.0,73.0,48.0,0,4,96.0,11.0,9.0,35.0,"B,",82.0
4372,69120.0,Note On,0,2.0,73.0,48.0,0,4,108.0,11.0,9.0,42.0,F#,72.0
4373,69884.0,Note On,0,2.0,84.0,55.0,0,4,740.0,4.0,2.0,84.0,c''',55.0
4374,69896.0,Note Off,0,2.0,85.0,58.0,0,4,,,,,,
4375,70600.0,Note On,0,2.0,82.0,60.0,0,4,1608.0,4.0,2.0,82.0,a#'',60.0
4376,70624.0,Note Off,0,2.0,84.0,55.0,0,4,,,,,,
4377,72172.0,Note On,0,2.0,77.0,42.0,0,4,1552.0,4.0,2.0,77.0,f'',42.0
4378,72188.0,Note On,0,2.0,80.0,56.0,0,4,1480.0,4.0,2.0,80.0,g#'',56.0
4379,72196.0,Note Off,0,2.0,73.0,48.0,0,4,,,,,,
4380,72208.0,Note Off,0,2.0,82.0,60.0,0,4,,,,,,
4381,73668.0,Note Off,0,2.0,80.0,56.0,0,4,,,,,,
4382,73684.0,Note On,0,2.0,80.0,55.0,0,4,9252.0,4.0,2.0,80.0,g#'',55.0
4383,73684.0,Note On,0,2.0,80.0,55.0,0,4,9252.0,4.0,2.0,92.0,g#''',55.0
4384,73684.0,Note On,0,2.0,80.0,55.0,0,4,60.0,7.0,5.0,78.0,f#'',64.0
4385,73684.0,Note On,0,2.0,92.0,55.0,0,4,9252.0,4.0,2.0,80.0,g#'',55.0
4386,73684.0,Note On,0,2.0,92.0,55.0,0,4,9252.0,4.0,2.0,92.0,g#''',55.0
4387,73684.0,Note On,0,2.0,92.0,55.0,0,4,60.0,7.0,5.0,78.0,f#'',64.0
4388,73724.0,Note Off,0,2.0,77.0,42.0,0,4,,,,,,
4389,82908.0,Note On,0,2.0,73.0,36.0,0,4,3096.0,4.0,2.0,73.0,c#'',36.0
4390,82916.0,Note On,0,2.0,85.0,64.0,0,4,776.0,4.0,2.0,85.0,c#''',64.0
4391,82936.0,Note Off,0,2.0,92.0,55.0,0,4,,,,,,
4392,82936.0,Note Off,0,2.0,80.0,55.0,0,4,,,,,,
4393,83672.0,Note On,0,2.0,87.0,64.0,0,4,820.0,4.0,2.0,87.0,d#''',64.0
4394,83692.0,Note Off,0,2.0,85.0,64.0,0,4,,,,,,
4395,84452.0,Note On,0,2.0,80.0,64.0,0,4,1476.0,4.0,2.0,80.0,g#'',64.0
4396,84492.0,Note Off,0,2.0,87.0,64.0,0,4,,,,,,
4397,85928.0,Note Off,0,2.0,80.0,64.0,0,4,,,,,,
4398,85948.0,Note On,0,2.0,80.0,52.0,0,4,3936.0,4.0,2.0,80.0,g#'',52.0
4399,86004.0,Note Off,0,2.0,73.0,36.0,0,4,,,,,,
4400,86020.0,Note On,0,2.0,92.0,57.0,0,4,1116.0,2.0,0.0,44.0,G#,95.0
4401,86020.0,Note On,0,2.0,92.0,57.0,0,4,3812.0,4.0,2.0,92.0,g#''',57.0
4402,89820.0,Note On,0,2.0,90.0,60.0,0,4,424.0,4.0,2.0,90.0,f#''',60.0
4403,89824.0,Note On,0,2.0,78.0,52.0,0,4,440.0,4.0,2.0,78.0,f#'',52.0
4404,89832.0,Note Off,0,2.0,92.0,57.0,0,4,,,,,,
4405,89884.0,Note Off,0,2.0,80.0,52.0,0,4,,,,,,
4406,90216.0,Note On,0,2.0,77.0,44.0,0,4,1944.0,4.0,2.0,77.0,f'',44.0
4407,90220.0,Note On,0,2.0,89.0,56.0,0,4,1936.0,4.0,2.0,89.0,f''',56.0
4408,90244.0,Note Off,0,2.0,90.0,60.0,0,4,,,,,,
4409,90264.0,Note Off,0,2.0,78.0,52.0,0,4,,,,,,
4410,92108.0,Note On,0,2.0,72.0,55.0,0,4,828.0,4.0,2.0,72.0,c'',55.0
4411,92128.0,Note On,0,2.0,84.0,56.0,0,4,788.0,4.0,2.0,84.0,c''',56.0
4412,92156.0,Note Off,0,2.0,89.0,56.0,0,4,200.0,2.0,0.0,63.0,d#',92.0
4413,92156.0,Note Off,0,2.0,89.0,56.0,0,4,772.0,2.0,0.0,72.0,c'',99.0
4414,92160.0,Note Off,0,2.0,77.0,44.0,0,4,732.0,3.0,1.0,30.0,"F#,",82.0
4415,92160.0,Note Off,0,2.0,77.0,44.0,0,4,96.0,11.0,9.0,35.0,"B,",82.0
4416,92160.0,Note Off,0,2.0,77.0,44.0,0,4,108.0,11.0,9.0,42.0,F#,72.0
4417,92908.0,Note On,0,2.0,80.0,56.0,0,4,2320.0,4.0,2.0,80.0,g#'',56.0
4418,92908.0,Note On,0,2.0,80.0,56.0,0,4,2332.0,4.0,2.0,92.0,g#''',64.0
4419,92908.0,Note On,0,2.0,92.0,64.0,0,4,2320.0,4.0,2.0,80.0,g#'',56.0
4420,92908.0,Note On,0,2.0,92.0,64.0,0,4,2332.0,4.0,2.0,92.0,g#''',64.0
4421,92916.0,Note Off,0,2.0,84.0,56.0,0,4,,,,,,
4422,92936.0,Note Off,0,2.0,72.0,55.0,0,4,,,,,,
4423,95200.0,Note On,0,2.0,85.0,60.0,0,4,812.0,4.0,2.0,85.0,c#''',60.0
4424,95216.0,Note On,0,2.0,73.0,52.0,0,4,792.0,2.0,0.0,46.0,A#,83.0
4425,95216.0,Note On,0,2.0,73.0,52.0,0,4,776.0,4.0,2.0,73.0,c#'',52.0
4426,95216.0,Note On,0,2.0,73.0,52.0,0,4,352.0,5.0,3.0,65.0,f',73.0
4427,95228.0,Note Off,0,2.0,80.0,56.0,0,4,728.0,2.0,0.0,61.0,c#',86.0
4428,95228.0,Note Off,0,2.0,80.0,56.0,0,4,628.0,2.0,0.0,65.0,f',93.0
4429,95240.0,Note Off,0,2.0,92.0,64.0,0,4,,,,,,
4430,95972.0,Note On,0,2.0,87.0,56.0,0,4,764.0,4.0,2.0,87.0,d#''',56.0
4431,95976.0,Note On,0,2.0,75.0,60.0,0,4,768.0,4.0,2.0,75.0,d#'',60.0
4432,95992.0,Note Off,0,2.0,73.0,52.0,0,4,,,,,,
4433,96012.0,Note Off,0,2.0,85.0,60.0,0,4,,,,,,
4434,96732.0,Note On,0,2.0,78.0,60.0,0,4,412.0,4.0,2.0,78.0,f#'',60.0
4435,96732.0,Note On,0,2.0,78.0,60.0,0,4,388.0,4.0,2.0,90.0,f#''',64.0
4436,96732.0,Note On,0,2.0,90.0,64.0,0,4,412.0,4.0,2.0,78.0,f#'',60.0
4437,96732.0,Note On,0,2.0,90.0,64.0,0,4,388.0,4.0,2.0,90.0,f#''',64.0
4438,96736.0,Note Off,0,2.0,87.0,56.0,0,4,,,,,,
4439,96744.0,Note Off,0,2.0,75.0,60.0,0,4,,,,,,
4440,97104.0,Note On,0,2.0,89.0,64.0,0,4,452.0,4.0,2.0,89.0,f''',64.0
4441,97108.0,Note On,0,2.0,77.0,64.0,0,4,432.0,4.0,2.0,77.0,f'',64.0
4442,97120.0,Note Off,0,2.0,90.0,64.0,0,4,,,,,,
4443,97144.0,Note Off,0,2.0,78.0,60.0,0,4,376.0,2.0,0.0,65.0,f',83.0
4444,97520.0,Note On,0,2.0,87.0,73.0,0,4,408.0,4.0,2.0,87.0,d#''',73.0
4445,97520.0,Note On,0,2.0,87.0,73.0,0,4,68.0,7.0,5.0,68.0,g#',73.0
4446,97528.0,Note On,0,2.0,75.0,56.0,0,4,772.0,2.0,0.0,54.0,f#,87.0
4447,97528.0,Note On,0,2.0,75.0,56.0,0,4,428.0,2.0,0.0,63.0,d#',99.0
4448,97528.0,Note On,0,2.0,75.0,56.0,0,4,400.0,4.0,2.0,75.0,d#'',56.0
4449,97540.0,Note Off,0,2.0,77.0,64.0,0,4,376.0,5.0,3.0,63.0,d#',73.0
4450,97556.0,Note Off,0,2.0,89.0,64.0,0,4,,,,,,
4451,97904.0,Note On,0,2.0,92.0,64.0,0,4,408.0,4.0,2.0,80.0,g#'',64.0
4452,97904.0,Note On,0,2.0,92.0,64.0,0,4,412.0,4.0,2.0,92.0,g#''',64.0
4453,97904.0,Note On,0,2.0,80.0,64.0,0,4,408.0,4.0,2.0,80.0,g#'',64.0
4454,97904.0,Note On,0,2.0,80.0,64.0,0,4,412.0,4.0,2.0,92.0,g#''',64.0
4455,97928.0,Note Off,0,2.0,75.0,56.0,0,4,,,,,,
4456,97928.0,Note Off,0,2.0,87.0,73.0,0,4,,,,,,
4457,98288.0,Note On,0,2.0,85.0,78.0,0,4,652.0,4.0,2.0,85.0,c#''',78.0
4458,98304.0,Note On,0,2.0,64.0,52.0,0,4,1436.0,2.0,0.0,45.0,A,92.0
4459,98304.0,Note On,0,2.0,64.0,52.0,0,4,492.0,2.0,0.0,52.0,e,83.0
4460,98304.0,Note On,0,2.0,64.0,52.0,0,4,1304.0,3.0,1.0,33.0,"A,",82.0
4461,98304.0,Note On,0,2.0,64.0,52.0,0,4,764.0,4.0,2.0,64.0,e',52.0
4462,98304.0,Note On,0,2.0,64.0,52.0,0,4,400.0,6.0,4.0,61.0,c#',91.0
4463,98304.0,Note On,0,2.0,64.0,52.0,0,4,96.0,11.0,9.0,35.0,"B,",82.0
4464,98304.0,Note On,0,2.0,64.0,52.0,0,4,700.0,11.0,9.0,49.0,c#,64.0
4465,98308.0,Note On,0,2.0,73.0,52.0,0,4,768.0,4.0,2.0,73.0,c#'',52.0
4466,98312.0,Note Off,0,2.0,80.0,64.0,0,4,536.0,2.0,0.0,61.0,c#',92.0
4467,98312.0,Note Off,0,2.0,80.0,64.0,0,4,2980.0,4.0,2.0,69.0,a',44.0
4468,98312.0,Note On,0,2.0,69.0,44.0,0,4,536.0,2.0,0.0,61.0,c#',92.0
4469,98312.0,Note On,0,2.0,69.0,44.0,0,4,2980.0,4.0,2.0,69.0,a',44.0
4470,98316.0,Note Off,0,2.0,92.0,64.0,0,4,,,,,,
4471,98892.0,Note On,0,2.0,86.0,73.0,0,4,384.0,4.0,2.0,86.0,d''',73.0
4472,98940.0,Note Off,0,2.0,85.0,78.0,0,4,,,,,,
4473,99052.0,Note On,0,2.0,66.0,60.0,0,4,768.0,4.0,2.0,66.0,f#',60.0
4474,99056.0,Note On,0,2.0,74.0,73.0,0,4,764.0,4.0,2.0,74.0,d'',73.0
4475,99068.0,Note Off,0,2.0,64.0,52.0,0,4,,,,,,
4476,99076.0,Note Off,0,2.0,73.0,52.0,0,4,,,,,,
4477,99248.0,Note On,0,2.0,85.0,73.0,0,4,216.0,4.0,2.0,85.0,c#''',73.0
4478,99248.0,Note On,0,2.0,85.0,73.0,0,4,196.0,6.0,4.0,61.0,c#',73.0
4479,99276.0,Note Off,0,2.0,86.0,73.0,0,4,,,,,,
4480,99436.0,Note On,0,2.0,81.0,73.0,0,4,208.0,4.0,2.0,81.0,a'',73.0
4481,99464.0,Note Off,0,2.0,85.0,73.0,0,4,,,,,,
4482,99624.0,Note On,0,2.0,76.0,73.0,0,4,1712.0,4.0,2.0,76.0,e'',73.0
4483,99644.0,Note Off,0,2.0,81.0,73.0,0,4,,,,,,
4484,99792.0,Note On,0,2.0,64.0,56.0,0,4,1504.0,4.0,2.0,64.0,e',56.0
4485,99792.0,Note On,0,2.0,64.0,56.0,0,4,768.0,8.0,6.0,76.0,e'',52.0
4486,99800.0,Note On,0,2.0,73.0,56.0,0,4,1496.0,4.0,2.0,73.0,c#'',56.0
4487,99820.0,Note Off,0,2.0,74.0,73.0,0,4,,,,,,
4488,99820.0,Note Off,0,2.0,66.0,60.0,0,4,,,,,,
4489,101292.0,Note Off,0,2.0,69.0,44.0,0,4,,,,,,
4490,101296.0,Note Off,0,2.0,73.0,56.0,0,4,,,,,,
4491,101296.0,Note Off,0,2.0,64.0,56.0,0,4,,,,,,
4492,101332.0,Note On,0,2.0,85.0,75.0,0,4,632.0,4.0,2.0,85.0,c#''',75.0
4493,101336.0,Note Off,0,2.0,76.0,73.0,0,4,772.0,4.0,2.0,64.0,e',60.0
4494,101336.0,Note Off,0,2.0,76.0,73.0,0,4,796.0,4.0,2.0,73.0,c#'',60.0
4495,101336.0,Note On,0,2.0,73.0,60.0,0,4,772.0,4.0,2.0,64.0,e',60.0
4496,101336.0,Note On,0,2.0,73.0,60.0,0,4,796.0,4.0,2.0,73.0,c#'',60.0
4497,101336.0,Note On,0,2.0,64.0,60.0,0,4,772.0,4.0,2.0,64.0,e',60.0
4498,101336.0,Note On,0,2.0,64.0,60.0,0,4,796.0,4.0,2.0,73.0,c#'',60.0
4499,101344.0,Note On,0,2.0,69.0,52.0,0,4,1492.0,4.0,2.0,69.0,a',52.0
4500,101916.0,Note On,0,2.0,86.0,72.0,0,4,388.0,4.0,2.0,86.0,d''',72.0
4501,101964.0,Note Off,0,2.0,85.0,75.0,0,4,,,,,,
4502,102104.0,Note On,0,2.0,66.0,60.0,0,4,728.0,4.0,2.0,66.0,f#',60.0
4503,102104.0,Note On,0,2.0,66.0,60.0,0,4,756.0,4.0,2.0,74.0,d'',73.0
4504,102104.0,Note On,0,2.0,74.0,73.0,0,4,728.0,4.0,2.0,66.0,f#',60.0
4505,102104.0,Note On,0,2.0,74.0,73.0,0,4,756.0,4.0,2.0,74.0,d'',73.0
4506,102108.0,Note Off,0,2.0,64.0,60.0,0,4,,,,,,
4507,102132.0,Note Off,0,2.0,73.0,60.0,0,4,,,,,,
4508,102284.0,Note On,0,2.0,85.0,73.0,0,4,224.0,4.0,2.0,85.0,c#''',73.0
4509,102304.0,Note Off,0,2.0,86.0,72.0,0,4,,,,,,
4510,102492.0,Note On,0,2.0,81.0,72.0,0,4,420.0,4.0,2.0,81.0,a'',72.0
4511,102508.0,Note Off,0,2.0,85.0,73.0,0,4,,,,,,
4512,102832.0,Note Off,0,2.0,66.0,60.0,0,4,,,,,,
4513,102836.0,Note Off,0,2.0,69.0,52.0,0,4,,,,,,
4514,102860.0,Note Off,0,2.0,74.0,73.0,0,4,,,,,,
4515,102888.0,Note On,0,2.0,95.0,73.0,0,4,412.0,4.0,2.0,95.0,b''',73.0
4516,102904.0,Note On,0,2.0,62.0,56.0,0,4,1152.0,2.0,0.0,41.0,F,92.0
4517,102904.0,Note On,0,2.0,62.0,56.0,0,4,756.0,2.0,0.0,53.0,f,70.0
4518,102904.0,Note On,0,2.0,62.0,56.0,0,4,608.0,2.0,0.0,62.0,d',83.0
4519,102904.0,Note On,0,2.0,62.0,56.0,0,4,2276.0,4.0,2.0,62.0,d',56.0
4520,102904.0,Note On,0,2.0,62.0,56.0,0,4,380.0,4.0,2.0,71.0,b',64.0
4521,102904.0,Note On,0,2.0,71.0,64.0,0,4,1152.0,2.0,0.0,41.0,F,92.0
4522,102904.0,Note On,0,2.0,71.0,64.0,0,4,756.0,2.0,0.0,53.0,f,70.0
4523,102904.0,Note On,0,2.0,71.0,64.0,0,4,608.0,2.0,0.0,62.0,d',83.0
4524,102904.0,Note On,0,2.0,71.0,64.0,0,4,2276.0,4.0,2.0,62.0,d',56.0
4525,102904.0,Note On,0,2.0,71.0,64.0,0,4,380.0,4.0,2.0,71.0,b',64.0
4526,102912.0,Note Off,0,2.0,81.0,72.0,0,4,1120.0,3.0,1.0,29.0,"F,",82.0
4527,102912.0,Note Off,0,2.0,81.0,72.0,0,4,1560.0,4.0,2.0,53.0,f,56.0
4528,102912.0,Note Off,0,2.0,81.0,72.0,0,4,376.0,6.0,4.0,69.0,a',100.0
4529,102912.0,Note Off,0,2.0,81.0,72.0,0,4,388.0,9.0,7.0,83.0,b'',73.0
4530,102912.0,Note Off,0,2.0,81.0,72.0,0,4,96.0,11.0,9.0,35.0,"B,",82.0
4531,102912.0,Note Off,0,2.0,81.0,72.0,0,4,108.0,11.0,9.0,42.0,F#,72.0
4532,102912.0,Note On,0,2.0,53.0,56.0,0,4,1120.0,3.0,1.0,29.0,"F,",82.0
4533,102912.0,Note On,0,2.0,53.0,56.0,0,4,1560.0,4.0,2.0,53.0,f,56.0
4534,102912.0,Note On,0,2.0,53.0,56.0,0,4,376.0,6.0,4.0,69.0,a',100.0
4535,102912.0,Note On,0,2.0,53.0,56.0,0,4,388.0,9.0,7.0,83.0,b'',73.0
4536,102912.0,Note On,0,2.0,53.0,56.0,0,4,96.0,11.0,9.0,35.0,"B,",82.0
4537,102912.0,Note On,0,2.0,53.0,56.0,0,4,108.0,11.0,9.0,42.0,F#,72.0
4538,103272.0,Note On,0,2.0,69.0,73.0,0,4,784.0,4.0,2.0,69.0,a',73.0
4539,103284.0,Note Off,0,2.0,71.0,64.0,0,4,760.0,4.0,2.0,93.0,a''',73.0
4540,103284.0,Note On,0,2.0,93.0,73.0,0,4,760.0,4.0,2.0,93.0,a''',73.0
4541,103300.0,Note Off,0,2.0,95.0,73.0,0,4,,,,,,
4542,104036.0,Note On,0,2.0,92.0,82.0,0,4,436.0,4.0,2.0,92.0,g#''',82.0
4543,104040.0,Note On,0,2.0,68.0,64.0,0,4,416.0,4.0,2.0,68.0,g#',64.0
4544,104044.0,Note Off,0,2.0,93.0,73.0,0,4,,,,,,
4545,104056.0,Note Off,0,2.0,69.0,73.0,0,4,,,,,,
4546,104416.0,Note On,0,2.0,59.0,60.0,0,4,1496.0,4.0,2.0,59.0,b,60.0
4547,104428.0,Note On,0,2.0,90.0,73.0,0,4,772.0,4.0,2.0,90.0,f#''',73.0
4548,104452.0,Note On,0,2.0,66.0,64.0,0,4,488.0,2.0,0.0,54.0,f#,70.0
4549,104452.0,Note On,0,2.0,66.0,64.0,0,4,768.0,4.0,2.0,66.0,f#',64.0
4550,104456.0,Note Off,0,2.0,68.0,64.0,0,4,,,,,,
4551,104472.0,Note Off,0,2.0,92.0,82.0,0,4,,,,,,
4552,104472.0,Note Off,0,2.0,53.0,56.0,0,4,,,,,,
4553,105180.0,Note Off,0,2.0,62.0,56.0,0,4,,,,,,
4554,105192.0,Note On,0,2.0,89.0,73.0,0,4,772.0,4.0,2.0,89.0,f''',73.0
4555,105200.0,Note Off,0,2.0,90.0,73.0,0,4,728.0,4.0,2.0,61.0,c#',60.0
4556,105200.0,Note On,0,2.0,61.0,60.0,0,4,728.0,4.0,2.0,61.0,c#',60.0
4557,105216.0,Note On,0,2.0,65.0,64.0,0,4,756.0,2.0,0.0,37.0,C#,92.0
4558,105216.0,Note On,0,2.0,65.0,64.0,0,4,732.0,2.0,0.0,61.0,c#',96.0
4559,105216.0,Note On,0,2.0,65.0,64.0,0,4,748.0,3.0,1.0,25.0,"C#,",82.0
4560,105216.0,Note On,0,2.0,65.0,64.0,0,4,756.0,4.0,2.0,65.0,f',64.0
4561,105216.0,Note On,0,2.0,65.0,64.0,0,4,240.0,11.0,9.0,38.0,D,73.0
4562,105216.0,Note On,0,2.0,65.0,64.0,0,4,112.0,11.0,9.0,42.0,F#,75.0
4563,105220.0,Note Off,0,2.0,66.0,64.0,0,4,,,,,,
4564,105912.0,Note Off,0,2.0,59.0,60.0,0,4,,,,,,
4565,105928.0,Note Off,0,2.0,61.0,60.0,0,4,44.0,6.0,4.0,58.0,a#,31.0
4566,105932.0,Note On,0,2.0,57.0,52.0,0,4,1660.0,4.0,2.0,57.0,a,52.0
4567,105944.0,Note On,0,2.0,93.0,73.0,0,4,3232.0,4.0,2.0,93.0,a''',73.0
4568,105956.0,Note On,0,2.0,73.0,52.0,0,4,228.0,4.0,2.0,61.0,c#',60.0
4569,105956.0,Note On,0,2.0,73.0,52.0,0,4,1576.0,4.0,2.0,73.0,c#'',52.0
4570,105956.0,Note On,0,2.0,61.0,60.0,0,4,228.0,4.0,2.0,61.0,c#',60.0
4571,105956.0,Note On,0,2.0,61.0,60.0,0,4,1576.0,4.0,2.0,73.0,c#'',52.0
4572,105964.0,Note Off,0,2.0,89.0,73.0,0,4,,,,,,
4573,105972.0,Note Off,0,2.0,65.0,64.0,0,4,,,,,,
4574,106152.0,Note On,0,2.0,66.0,64.0,0,4,232.0,4.0,2.0,66.0,f#',64.0
4575,106184.0,Note Off,0,2.0,61.0,60.0,0,4,,,,,,
4576,106356.0,Note On,0,2.0,68.0,75.0,0,4,424.0,4.0,2.0,68.0,g#',75.0
4577,106384.0,Note Off,0,2.0,66.0,64.0,0,4,,,,,,
4578,106736.0,Note On,0,2.0,69.0,72.0,0,4,756.0,2.0,0.0,57.0,a,70.0
4579,106736.0,Note On,0,2.0,69.0,72.0,0,4,760.0,2.0,0.0,61.0,c#',74.0
4580,106736.0,Note On,0,2.0,69.0,72.0,0,4,404.0,4.0,2.0,69.0,a',72.0
4581,106780.0,Note Off,0,2.0,68.0,75.0,0,4,,,,,,
4582,107124.0,Note On,0,2.0,71.0,73.0,0,4,400.0,4.0,2.0,71.0,b',73.0
4583,107140.0,Note Off,0,2.0,69.0,72.0,0,4,,,,,,
4584,107496.0,Note On,0,2.0,62.0,56.0,0,4,1560.0,4.0,2.0,62.0,d',56.0
4585,107504.0,Note On,0,2.0,69.0,56.0,0,4,1572.0,4.0,2.0,69.0,a',56.0
4586,107520.0,Note On,0,2.0,74.0,52.0,0,4,740.0,2.0,0.0,62.0,d',101.0
4587,107520.0,Note On,0,2.0,74.0,52.0,0,4,536.0,3.0,1.0,33.0,"A,",82.0
4588,107520.0,Note On,0,2.0,74.0,52.0,0,4,1552.0,4.0,2.0,74.0,d'',52.0
4589,107520.0,Note On,0,2.0,74.0,52.0,0,4,1548.0,9.0,7.0,81.0,a'',82.0
4590,107520.0,Note On,0,2.0,74.0,52.0,0,4,96.0,11.0,9.0,35.0,"B,",82.0
4591,107520.0,Note On,0,2.0,74.0,52.0,0,4,108.0,11.0,9.0,42.0,F#,72.0
4592,107524.0,Note Off,0,2.0,71.0,73.0,0,4,748.0,2.0,0.0,45.0,A,83.0
4593,107524.0,Note Off,0,2.0,71.0,73.0,0,4,748.0,2.0,0.0,55.0,g,83.0
4594,107524.0,Note Off,0,2.0,71.0,73.0,0,4,740.0,2.0,0.0,59.0,b,92.0
4595,107524.0,Note Off,0,2.0,71.0,73.0,0,4,752.0,2.0,0.0,66.0,f#',70.0
4596,107524.0,Note Off,0,2.0,71.0,73.0,0,4,752.0,2.0,0.0,69.0,a',74.0
4597,107532.0,Note Off,0,2.0,73.0,52.0,0,4,,,,,,
4598,107592.0,Note Off,0,2.0,57.0,52.0,0,4,,,,,,
4599,109056.0,Note Off,0,2.0,62.0,56.0,0,4,148.0,3.0,1.0,33.0,"A,",82.0
4600,109072.0,Note Off,0,2.0,74.0,52.0,0,4,,,,,,
4601,109076.0,Note Off,0,2.0,69.0,56.0,0,4,,,,,,
4602,109176.0,Note Off,0,2.0,93.0,73.0,0,4,,,,,,
4603,109592.0,Note On,0,2.0,90.0,48.0,0,4,248.0,4.0,2.0,90.0,f#''',48.0
4604,109596.0,Note On,0,2.0,78.0,56.0,0,4,264.0,4.0,2.0,78.0,f#'',56.0
4605,109596.0,Note On,0,2.0,78.0,56.0,0,4,96.0,7.0,5.0,57.0,a,31.0
4606,109804.0,Note On,0,2.0,91.0,64.0,0,4,420.0,4.0,2.0,91.0,g''',64.0
4607,109820.0,Note On,0,2.0,79.0,64.0,0,4,408.0,4.0,2.0,79.0,g'',64.0
4608,109820.0,Note On,0,2.0,79.0,64.0,0,4,40.0,7.0,5.0,59.0,b,56.0
4609,109820.0,Note On,0,2.0,79.0,64.0,0,4,404.0,9.0,7.0,79.0,g'',69.0
4610,109840.0,Note Off,0,2.0,90.0,48.0,0,4,,,,,,
4611,109860.0,Note Off,0,2.0,78.0,56.0,0,4,,,,,,
4612,110212.0,Note On,0,2.0,95.0,60.0,0,4,424.0,4.0,2.0,95.0,b''',60.0
4613,110212.0,Note On,0,2.0,95.0,60.0,0,4,372.0,9.0,7.0,83.0,b'',72.0
4614,110216.0,Note On,0,2.0,83.0,64.0,0,4,428.0,4.0,2.0,83.0,b'',64.0
4615,110224.0,Note Off,0,2.0,91.0,64.0,0,4,,,,,,
4616,110228.0,Note Off,0,2.0,79.0,64.0,0,4,,,,,,
4617,110600.0,Note On,0,2.0,81.0,68.0,0,4,716.0,2.0,0.0,57.0,a,66.0
4618,110600.0,Note On,0,2.0,81.0,68.0,0,4,4604.0,4.0,2.0,81.0,a'',68.0
4619,110604.0,Note On,0,2.0,93.0,58.0,0,4,4600.0,4.0,2.0,93.0,a''',58.0
4620,110636.0,Note Off,0,2.0,95.0,60.0,0,4,,,,,,
4621,110644.0,Note Off,0,2.0,83.0,64.0,0,4,,,,,,
4622,115172.0,Note On,0,2.0,78.0,73.0,0,4,388.0,4.0,2.0,78.0,f#'',73.0
4623,115184.0,Note On,0,2.0,90.0,60.0,0,4,380.0,4.0,2.0,90.0,f#''',60.0
4624,115204.0,Note Off,0,2.0,93.0,58.0,0,4,,,,,,
4625,115204.0,Note Off,0,2.0,81.0,68.0,0,4,,,,,,
4626,115544.0,Note On,0,2.0,76.0,73.0,0,4,404.0,4.0,2.0,76.0,e'',73.0
4627,115556.0,Note On,0,2.0,88.0,64.0,0,4,408.0,4.0,2.0,88.0,e''',64.0
4628,115560.0,Note Off,0,2.0,78.0,73.0,0,4,,,,,,
4629,115564.0,Note Off,0,2.0,90.0,60.0,0,4,,,,,,
4630,115940.0,Note On,0,2.0,74.0,64.0,0,4,420.0,4.0,2.0,74.0,d'',64.0
4631,115948.0,Note Off,0,2.0,76.0,73.0,0,4,,,,,,
4632,115952.0,Note On,0,2.0,86.0,64.0,0,4,380.0,4.0,2.0,86.0,d''',64.0
4633,115964.0,Note Off,0,2.0,88.0,64.0,0,4,,,,,,
4634,116324.0,Note On,0,2.0,73.0,61.0,0,4,792.0,4.0,2.0,73.0,c#'',61.0
4635,116332.0,Note Off,0,2.0,86.0,64.0,0,4,424.0,4.0,2.0,85.0,c#''',64.0
4636,116332.0,Note On,0,2.0,85.0,64.0,0,4,424.0,4.0,2.0,85.0,c#''',64.0
4637,116360.0,Note Off,0,2.0,74.0,64.0,0,4,,,,,,
4638,116724.0,Note On,0,2.0,93.0,57.0,0,4,3880.0,4.0,2.0,93.0,a''',57.0
4639,116756.0,Note Off,0,2.0,85.0,64.0,0,4,,,,,,
4640,117084.0,Note On,0,2.0,71.0,64.0,0,4,416.0,4.0,2.0,71.0,b',64.0
4641,117116.0,Note Off,0,2.0,73.0,61.0,0,4,,,,,,
4642,117468.0,Note On,0,2.0,69.0,64.0,0,4,828.0,4.0,2.0,69.0,a',64.0
4643,117500.0,Note Off,0,2.0,71.0,64.0,0,4,,,,,,
4644,118212.0,Note On,0,2.0,73.0,64.0,0,4,456.0,4.0,2.0,73.0,c#'',64.0
4645,118296.0,Note Off,0,2.0,69.0,64.0,0,4,,,,,,
4646,118628.0,Note On,0,2.0,74.0,73.0,0,4,240.0,4.0,2.0,74.0,d'',73.0
4647,118668.0,Note Off,0,2.0,73.0,64.0,0,4,,,,,,
4648,118836.0,Note On,0,2.0,69.0,56.0,0,4,392.0,2.0,0.0,69.0,a',94.0
4649,118836.0,Note On,0,2.0,69.0,56.0,0,4,980.0,4.0,2.0,69.0,a',56.0
4650,118868.0,Note Off,0,2.0,74.0,73.0,0,4,,,,,,
4651,119776.0,Note On,0,2.0,78.0,60.0,0,4,968.0,4.0,2.0,78.0,f#'',60.0
4652,119816.0,Note Off,0,2.0,69.0,56.0,0,4,,,,,,
4653,120536.0,Note On,0,2.0,90.0,64.0,0,4,392.0,4.0,2.0,90.0,f#''',64.0
4654,120604.0,Note Off,0,2.0,93.0,57.0,0,4,,,,,,
4655,120736.0,Note On,0,2.0,76.0,56.0,0,4,588.0,4.0,2.0,76.0,e'',56.0
4656,120744.0,Note Off,0,2.0,78.0,60.0,0,4,,,,,,
4657,120912.0,Note On,0,2.0,88.0,56.0,0,4,452.0,4.0,2.0,88.0,e''',56.0
4658,120928.0,Note Off,0,2.0,90.0,64.0,0,4,,,,,,
4659,121292.0,Note On,0,2.0,81.0,61.0,0,4,1508.0,4.0,2.0,81.0,a'',61.0
4660,121320.0,Note On,0,2.0,93.0,63.0,0,4,1476.0,4.0,2.0,93.0,a''',63.0
4661,121324.0,Note Off,0,2.0,76.0,56.0,0,4,,,,,,
4662,121364.0,Note Off,0,2.0,88.0,56.0,0,4,,,,,,
4663,122796.0,Note Off,0,2.0,93.0,63.0,0,4,,,,,,
4664,122800.0,Note Off,0,2.0,81.0,61.0,0,4,,,,,,
4665,122868.0,Note On,0,2.0,93.0,64.0,0,4,3824.0,4.0,2.0,93.0,a''',64.0
4666,122868.0,Note On,0,2.0,93.0,64.0,0,4,176.0,7.0,5.0,81.0,a'',49.0
4667,122872.0,Note On,0,2.0,81.0,56.0,0,4,212.0,3.0,1.0,37.0,C#,93.0
4668,122872.0,Note On,0,2.0,81.0,56.0,0,4,3852.0,4.0,2.0,81.0,a'',56.0
4669,122872.0,Note On,0,2.0,81.0,56.0,0,4,1592.0,5.0,3.0,69.0,a',73.0
4670,126680.0,Note On,0,2.0,91.0,66.0,0,4,804.0,4.0,2.0,91.0,g''',66.0
4671,126684.0,Note On,0,2.0,79.0,56.0,0,4,768.0,4.0,2.0,79.0,g'',56.0
4672,126692.0,Note Off,0,2.0,93.0,64.0,0,4,,,,,,
4673,126724.0,Note Off,0,2.0,81.0,56.0,0,4,,,,,,
4674,127452.0,Note Off,0,2.0,79.0,56.0,0,4,,,,,,
4675,127456.0,Note On,0,2.0,78.0,60.0,0,4,720.0,4.0,2.0,78.0,f#'',60.0
4676,127460.0,Note On,0,2.0,90.0,56.0,0,4,780.0,4.0,2.0,90.0,f#''',56.0
4677,127484.0,Note Off,0,2.0,91.0,66.0,0,4,,,,,,
4678,128176.0,Note Off,0,2.0,78.0,60.0,0,4,,,,,,
4679,128216.0,Note On,0,2.0,78.0,64.0,0,4,304.0,4.0,2.0,78.0,f#'',64.0
4680,128240.0,Note Off,0,2.0,90.0,56.0,0,4,780.0,2.0,0.0,45.0,A,92.0
4681,128240.0,Note Off,0,2.0,90.0,56.0,0,4,236.0,2.0,0.0,62.0,d',70.0
4682,128248.0,Note On,0,2.0,90.0,60.0,0,4,276.0,4.0,2.0,90.0,f#''',60.0
4683,128500.0,Note On,0,2.0,79.0,64.0,0,4,288.0,4.0,2.0,79.0,g'',64.0
4684,128508.0,Note On,0,2.0,91.0,73.0,0,4,212.0,2.0,0.0,64.0,e',74.0
4685,128508.0,Note On,0,2.0,91.0,73.0,0,4,308.0,2.0,0.0,67.0,g',92.0
4686,128508.0,Note On,0,2.0,91.0,73.0,0,4,292.0,4.0,2.0,91.0,g''',73.0
4687,128520.0,Note Off,0,2.0,78.0,64.0,0,4,,,,,,
4688,128524.0,Note Off,0,2.0,90.0,60.0,0,4,,,,,,
4689,128752.0,Note On,0,2.0,81.0,64.0,0,4,3280.0,4.0,2.0,81.0,a'',64.0
4690,128760.0,Note On,0,2.0,93.0,65.0,0,4,220.0,2.0,0.0,66.0,f#',83.0
4691,128760.0,Note On,0,2.0,93.0,65.0,0,4,3320.0,4.0,2.0,93.0,a''',65.0
4692,128788.0,Note Off,0,2.0,79.0,64.0,0,4,,,,,,
4693,128800.0,Note Off,0,2.0,91.0,73.0,0,4,,,,,,
4694,132032.0,Note Off,0,2.0,81.0,64.0,0,4,,,,,,
4695,132080.0,Note Off,0,2.0,93.0,65.0,0,4,352.0,5.0,3.0,73.0,c#'',73.0
4696,132084.0,Note On,0,2.0,73.0,48.0,0,4,416.0,4.0,2.0,73.0,c#'',48.0
4697,132088.0,Note On,0,2.0,85.0,64.0,0,4,600.0,4.0,2.0,85.0,c#''',64.0
4698,132480.0,Note On,0,2.0,74.0,48.0,0,4,372.0,4.0,2.0,74.0,d'',48.0
4699,132480.0,Note On,0,2.0,74.0,48.0,0,4,120.0,11.0,9.0,42.0,F#,69.0
4700,132500.0,Note Off,0,2.0,73.0,48.0,0,4,,,,,,
4701,132644.0,Note On,0,2.0,86.0,72.0,0,4,244.0,4.0,2.0,86.0,d''',72.0
4702,132688.0,Note Off,0,2.0,85.0,64.0,0,4,,,,,,
4703,132820.0,Note On,0,2.0,73.0,52.0,0,4,1572.0,4.0,2.0,73.0,c#'',52.0
4704,132852.0,Note Off,0,2.0,74.0,48.0,0,4,1564.0,4.0,2.0,85.0,c#''',64.0
4705,132852.0,Note On,0,2.0,85.0,64.0,0,4,1564.0,4.0,2.0,85.0,c#''',64.0
4706,132888.0,Note Off,0,2.0,86.0,72.0,0,4,,,,,,
4707,134360.0,Note On,0,2.0,86.0,64.0,0,4,760.0,4.0,2.0,86.0,d''',64.0
4708,134368.0,Note On,0,2.0,74.0,48.0,0,4,792.0,4.0,2.0,74.0,d'',48.0
4709,134392.0,Note Off,0,2.0,73.0,52.0,0,4,436.0,5.0,3.0,62.0,d',73.0
4710,134416.0,Note Off,0,2.0,85.0,64.0,0,4,,,,,,
4711,135120.0,Note Off,0,2.0,86.0,64.0,0,4,,,,,,
4712,135140.0,Note On,0,2.0,78.0,52.0,0,4,788.0,4.0,2.0,78.0,f#'',52.0
4713,135144.0,Note On,0,2.0,90.0,48.0,0,4,788.0,4.0,2.0,90.0,f#''',48.0
4714,135160.0,Note Off,0,2.0,74.0,48.0,0,4,,,,,,
4715,135900.0,Note On,0,2.0,74.0,52.0,0,4,5824.0,4.0,2.0,74.0,d'',52.0
4716,135908.0,Note On,0,2.0,86.0,48.0,0,4,5864.0,4.0,2.0,86.0,d''',48.0
4717,135928.0,Note Off,0,2.0,78.0,52.0,0,4,,,,,,
4718,135932.0,Note Off,0,2.0,90.0,48.0,0,4,756.0,2.0,0.0,40.0,E,92.0
4719,135932.0,Note Off,0,2.0,90.0,48.0,0,4,776.0,2.0,0.0,56.0,g#,83.0
4720,141724.0,Note Off,0,2.0,74.0,52.0,0,4,,,,,,
4721,141772.0,Note Off,0,2.0,86.0,48.0,0,4,,,,,,
4722,142824.0,Note On,0,2.0,69.0,25.0,0,4,7692.0,4.0,2.0,69.0,a',25.0
4723,150512.0,Note On,0,2.0,62.0,25.0,0,4,3024.0,2.0,0.0,66.0,f#',74.0
4724,150512.0,Note On,0,2.0,62.0,25.0,0,4,1248.0,4.0,2.0,62.0,d',25.0
4725,150516.0,Note Off,0,2.0,69.0,25.0,0,4,,,,,,
4726,151760.0,Note Off,0,2.0,62.0,25.0,0,4,,,,,,
4727,151796.0,Note On,0,2.0,61.0,26.0,0,4,1796.0,4.0,2.0,61.0,c#',26.0
4728,153592.0,Note Off,0,2.0,61.0,26.0,0,4,5416.0,4.0,2.0,86.0,d''',30.0
4729,153592.0,Note On,0,2.0,86.0,30.0,0,4,5416.0,4.0,2.0,86.0,d''',30.0
4730,158976.0,Note On,0,2.0,88.0,30.0,0,4,444.0,4.0,2.0,88.0,e''',30.0
4731,159008.0,Note Off,0,2.0,86.0,30.0,0,4,,,,,,
4732,159388.0,Note On,0,2.0,81.0,30.0,0,4,3316.0,4.0,2.0,81.0,a'',30.0
4733,159420.0,Note Off,0,2.0,88.0,30.0,0,4,,,,,,
4734,159752.0,Note On,0,2.0,62.0,21.0,0,4,2936.0,4.0,2.0,62.0,d',21.0
4735,159756.0,Note On,0,2.0,50.0,21.0,0,4,2888.0,4.0,2.0,50.0,d,21.0
4736,159764.0,Note On,0,2.0,66.0,20.0,0,4,2940.0,4.0,2.0,66.0,f#',20.0
4737,159768.0,Note On,0,2.0,57.0,18.0,0,4,2964.0,2.0,0.0,50.0,d,70.0
4738,159768.0,Note On,0,2.0,57.0,18.0,0,4,2972.0,2.0,0.0,57.0,a,74.0
4739,159768.0,Note On,0,2.0,57.0,18.0,0,4,2916.0,4.0,2.0,57.0,a,18.0
4740,159768.0,Note On,0,2.0,57.0,18.0,0,4,2932.0,4.0,2.0,64.0,e',21.0
4741,159768.0,Note On,0,2.0,64.0,21.0,0,4,2964.0,2.0,0.0,50.0,d,70.0
4742,159768.0,Note On,0,2.0,64.0,21.0,0,4,2972.0,2.0,0.0,57.0,a,74.0
4743,159768.0,Note On,0,2.0,64.0,21.0,0,4,2916.0,4.0,2.0,57.0,a,18.0
4744,159768.0,Note On,0,2.0,64.0,21.0,0,4,2932.0,4.0,2.0,64.0,e',21.0
4745,162644.0,Note Off,0,2.0,50.0,21.0,0,4,,,,,,
4746,162684.0,Note Off,0,2.0,57.0,18.0,0,4,,,,,,
4747,162688.0,Note Off,0,2.0,62.0,21.0,0,4,,,,,,
4748,162700.0,Note Off,0,2.0,64.0,21.0,0,4,,,,,,
4749,162704.0,Note Off,0,2.0,66.0,20.0,0,4,,,,,,
4750,162704.0,Note Off,0,2.0,81.0,30.0,0,4,,,,,,
4751,165160.0,Controller,0,2.0,121.0,127.0,0,4,,,,,,
4752,165888.0,End of Track,2f,0.0,0.0,0.0,0,4,,,,,,
4753,0.0,Sequence/Track Name,03,0.0,0.0,0.0,MELODY,5,,,,,,
4754,444.0,Controller,0,3.0,0.0,0.0,0,5,,,,,,
4755,452.0,Program Change,0,3.0,26.0,0.0,0,5,,,,,,
4756,456.0,Controller,0,3.0,7.0,97.0,0,5,,,,,,
4757,456.0,Controller,0,3.0,10.0,64.0,0,5,,,,,,
4758,456.0,Controller,0,3.0,11.0,127.0,0,5,,,,,,
4759,460.0,Controller,0,3.0,91.0,100.0,0,5,,,,,,
4760,460.0,Controller,0,3.0,93.0,40.0,0,5,,,,,,
4761,9216.0,Note On,0,3.0,62.0,73.0,0,5,1436.0,2.0,0.0,46.0,A#,92.0
4762,9216.0,Note On,0,3.0,62.0,73.0,0,5,492.0,2.0,0.0,53.0,f,83.0
4763,9216.0,Note On,0,3.0,62.0,73.0,0,5,296.0,5.0,3.0,62.0,d',73.0
4764,9216.0,Note On,0,3.0,62.0,73.0,0,5,48.0,11.0,9.0,59.0,b,64.0
4765,9216.0,Note On,0,3.0,62.0,73.0,0,5,112.0,11.0,9.0,70.0,a#',69.0
4766,9512.0,Note Off,0,3.0,62.0,73.0,0,5,,,,,,
4767,9592.0,Note On,0,3.0,60.0,64.0,0,5,172.0,5.0,3.0,60.0,c',64.0
4768,9764.0,Note Off,0,3.0,60.0,64.0,0,5,,,,,,
4769,9792.0,Note On,0,3.0,63.0,64.0,0,5,360.0,5.0,3.0,63.0,d#',64.0
4770,9792.0,Note On,0,3.0,63.0,64.0,0,5,220.0,11.0,9.0,70.0,a#',32.0
4771,9864.0,Controller,0,3.0,1.0,8.0,0,5,,,,,,
4772,9900.0,Controller,0,3.0,1.0,21.0,0,5,,,,,,
4773,9936.0,Controller,0,3.0,1.0,30.0,0,5,,,,,,
4774,9976.0,Controller,0,3.0,1.0,34.0,0,5,,,,,,
4775,10008.0,Controller,0,3.0,1.0,30.0,0,5,,,,,,
4776,10044.0,Controller,0,3.0,1.0,21.0,0,5,,,,,,
4777,10080.0,Controller,0,3.0,1.0,12.0,0,5,,,,,,
4778,10116.0,Controller,0,3.0,1.0,1.0,0,5,,,,,,
4779,10152.0,Note Off,0,3.0,63.0,64.0,0,5,,,,,,
4780,10164.0,Controller,0,3.0,1.0,0.0,0,5,,,,,,
4781,10172.0,Note On,0,3.0,62.0,56.0,0,5,164.0,5.0,3.0,62.0,d',56.0
4782,10336.0,Note Off,0,3.0,62.0,56.0,0,5,,,,,,
4783,10360.0,Note On,0,3.0,58.0,56.0,0,5,168.0,5.0,3.0,58.0,a#,56.0
4784,10528.0,Note Off,0,3.0,58.0,56.0,0,5,,,,,,
4785,10556.0,Note On,0,3.0,53.0,73.0,0,5,1360.0,5.0,3.0,53.0,f,73.0
4786,10924.0,Controller,0,3.0,1.0,1.0,0,5,,,,,,
4787,11088.0,Controller,0,3.0,1.0,3.0,0,5,,,,,,
4788,11112.0,Controller,0,3.0,1.0,4.0,0,5,,,,,,
4789,11136.0,Controller,0,3.0,1.0,5.0,0,5,,,,,,
4790,11160.0,Controller,0,3.0,1.0,6.0,0,5,,,,,,
4791,11200.0,Controller,0,3.0,1.0,8.0,0,5,,,,,,
4792,11240.0,Controller,0,3.0,1.0,10.0,0,5,,,,,,
4793,11268.0,Controller,0,3.0,1.0,13.0,0,5,,,,,,
4794,11308.0,Controller,0,3.0,1.0,14.0,0,5,,,,,,
4795,11348.0,Controller,0,3.0,1.0,16.0,0,5,,,,,,
4796,11388.0,Controller,0,3.0,1.0,18.0,0,5,,,,,,
4797,11428.0,Controller,0,3.0,1.0,20.0,0,5,,,,,,
4798,11572.0,Controller,0,3.0,1.0,19.0,0,5,,,,,,
4799,11608.0,Controller,0,3.0,1.0,18.0,0,5,,,,,,
4800,11664.0,Controller,0,3.0,1.0,15.0,0,5,,,,,,
4801,11708.0,Controller,0,3.0,1.0,13.0,0,5,,,,,,
4802,11744.0,Controller,0,3.0,1.0,11.0,0,5,,,,,,
4803,11780.0,Controller,0,3.0,1.0,7.0,0,5,,,,,,
4804,11812.0,Controller,0,3.0,1.0,1.0,0,5,,,,,,
4805,11848.0,Controller,0,3.0,1.0,0.0,0,5,,,,,,
4806,11916.0,Note Off,0,3.0,53.0,73.0,0,5,,,,,,
4807,12288.0,Note On,0,3.0,62.0,64.0,0,5,1496.0,2.0,0.0,46.0,A#,92.0
4808,12288.0,Note On,0,3.0,62.0,64.0,0,5,492.0,2.0,0.0,53.0,f,83.0
4809,12288.0,Note On,0,3.0,62.0,64.0,0,5,548.0,2.0,0.0,65.0,f',70.0
4810,12288.0,Note On,0,3.0,62.0,64.0,0,5,332.0,5.0,3.0,62.0,d',64.0
4811,12288.0,Note On,0,3.0,62.0,64.0,0,5,112.0,11.0,9.0,70.0,a#',69.0
4812,12320.0,Controller,0,3.0,1.0,1.0,0,5,,,,,,
4813,12364.0,Controller,0,3.0,1.0,6.0,0,5,,,,,,
4814,12404.0,Controller,0,3.0,1.0,10.0,0,5,,,,,,
4815,12440.0,Controller,0,3.0,1.0,12.0,0,5,,,,,,
4816,12476.0,Controller,0,3.0,1.0,16.0,0,5,,,,,,
4817,12564.0,Controller,0,3.0,1.0,11.0,0,5,,,,,,
4818,12600.0,Controller,0,3.0,1.0,1.0,0,5,,,,,,
4819,12620.0,Note Off,0,3.0,62.0,64.0,0,5,,,,,,
4820,12632.0,Controller,0,3.0,1.0,0.0,0,5,,,,,,
4821,12664.0,Note On,0,3.0,60.0,73.0,0,5,168.0,5.0,3.0,60.0,c',73.0
4822,12832.0,Note Off,0,3.0,60.0,73.0,0,5,,,,,,
4823,12860.0,Note On,0,3.0,63.0,64.0,0,5,332.0,5.0,3.0,63.0,d#',64.0
4824,12952.0,Controller,0,3.0,1.0,1.0,0,5,,,,,,
4825,12996.0,Controller,0,3.0,1.0,4.0,0,5,,,,,,
4826,13036.0,Controller,0,3.0,1.0,10.0,0,5,,,,,,
4827,13072.0,Controller,0,3.0,1.0,15.0,0,5,,,,,,
4828,13104.0,Controller,0,3.0,1.0,17.0,0,5,,,,,,
4829,13144.0,Controller,0,3.0,1.0,12.0,0,5,,,,,,
4830,13176.0,Controller,0,3.0,1.0,1.0,0,5,,,,,,
4831,13192.0,Note Off,0,3.0,63.0,64.0,0,5,,,,,,
4832,13208.0,Controller,0,3.0,1.0,0.0,0,5,,,,,,
4833,13236.0,Note On,0,3.0,62.0,73.0,0,5,176.0,5.0,3.0,62.0,d',73.0
4834,13412.0,Note Off,0,3.0,62.0,73.0,0,5,,,,,,
4835,13436.0,Note On,0,3.0,58.0,64.0,0,5,364.0,5.0,3.0,58.0,a#,64.0
4836,13800.0,Note Off,0,3.0,58.0,64.0,0,5,,,,,,
4837,13824.0,Note On,0,3.0,62.0,75.0,0,5,744.0,2.0,0.0,51.0,d#,80.0
4838,13824.0,Note On,0,3.0,62.0,75.0,0,5,752.0,5.0,3.0,62.0,d',75.0
4839,13912.0,Controller,0,3.0,1.0,1.0,0,5,,,,,,
4840,13996.0,Controller,0,3.0,1.0,2.0,0,5,,,,,,
4841,14024.0,Controller,0,3.0,1.0,7.0,0,5,,,,,,
4842,14056.0,Controller,0,3.0,1.0,10.0,0,5,,,,,,
4843,14096.0,Controller,0,3.0,1.0,14.0,0,5,,,,,,
4844,14132.0,Controller,0,3.0,1.0,18.0,0,5,,,,,,
4845,14164.0,Controller,0,3.0,1.0,19.0,0,5,,,,,,
4846,14236.0,Controller,0,3.0,1.0,17.0,0,5,,,,,,
4847,14264.0,Controller,0,3.0,1.0,15.0,0,5,,,,,,
4848,14296.0,Controller,0,3.0,1.0,11.0,0,5,,,,,,
4849,14328.0,Controller,0,3.0,1.0,5.0,0,5,,,,,,
4850,14364.0,Controller,0,3.0,1.0,1.0,0,5,,,,,,
4851,14440.0,Controller,0,3.0,1.0,0.0,0,5,,,,,,
4852,14576.0,Note Off,0,3.0,62.0,75.0,0,5,,,,,,
4853,14592.0,Note On,0,3.0,60.0,73.0,0,5,604.0,5.0,3.0,60.0,c',73.0
4854,14592.0,Note On,0,3.0,60.0,73.0,0,5,96.0,11.0,9.0,54.0,f#,91.0
4855,14748.0,Controller,0,3.0,1.0,1.0,0,5,,,,,,
4856,14920.0,Controller,0,3.0,1.0,4.0,0,5,,,,,,
4857,14960.0,Controller,0,3.0,1.0,7.0,0,5,,,,,,
4858,14988.0,Controller,0,3.0,1.0,8.0,0,5,,,,,,
4859,15012.0,Controller,0,3.0,1.0,11.0,0,5,,,,,,
4860,15052.0,Controller,0,3.0,1.0,13.0,0,5,,,,,,
4861,15088.0,Controller,0,3.0,1.0,15.0,0,5,,,,,,
4862,15112.0,Controller,0,3.0,1.0,16.0,0,5,,,,,,
4863,15168.0,Controller,0,3.0,1.0,15.0,0,5,,,,,,
4864,15196.0,Note Off,0,3.0,60.0,73.0,0,5,,,,,,
4865,15208.0,Controller,0,3.0,1.0,9.0,0,5,,,,,,
4866,15248.0,Controller,0,3.0,1.0,1.0,0,5,,,,,,
4867,15272.0,Controller,0,3.0,1.0,0.0,0,5,,,,,,
4868,15356.0,Note On,0,3.0,60.0,72.0,0,5,356.0,5.0,3.0,60.0,c',72.0
4869,15376.0,Controller,0,3.0,1.0,1.0,0,5,,,,,,
4870,15428.0,Controller,0,3.0,1.0,5.0,0,5,,,,,,
4871,15464.0,Controller,0,3.0,1.0,10.0,0,5,,,,,,
4872,15500.0,Controller,0,3.0,1.0,14.0,0,5,,,,,,
4873,15540.0,Controller,0,3.0,1.0,17.0,0,5,,,,,,
4874,15588.0,Controller,0,3.0,1.0,13.0,0,5,,,,,,
4875,15612.0,Controller,0,3.0,1.0,9.0,0,5,,,,,,
4876,15644.0,Controller,0,3.0,1.0,1.0,0,5,,,,,,
4877,15680.0,Controller,0,3.0,1.0,0.0,0,5,,,,,,
4878,15712.0,Note Off,0,3.0,60.0,72.0,0,5,,,,,,
4879,15740.0,Note On,0,3.0,59.0,60.0,0,5,164.0,5.0,3.0,59.0,b,60.0
4880,15904.0,Note Off,0,3.0,59.0,60.0,0,5,,,,,,
4881,15936.0,Note On,0,3.0,62.0,75.0,0,5,300.0,5.0,3.0,62.0,d',75.0
4882,15936.0,Note On,0,3.0,62.0,75.0,0,5,220.0,11.0,9.0,70.0,a#',32.0
4883,15960.0,Controller,0,3.0,1.0,1.0,0,5,,,,,,
4884,16116.0,Controller,0,3.0,1.0,0.0,0,5,,,,,,
4885,16236.0,Note Off,0,3.0,62.0,75.0,0,5,,,,,,
4886,16312.0,Note On,0,3.0,60.0,60.0,0,5,304.0,5.0,3.0,60.0,c',60.0
4887,16340.0,Controller,0,3.0,1.0,1.0,0,5,,,,,,
4888,16416.0,Controller,0,3.0,1.0,5.0,0,5,,,,,,
4889,16456.0,Controller,0,3.0,1.0,11.0,0,5,,,,,,
4890,16492.0,Controller,0,3.0,1.0,16.0,0,5,,,,,,
4891,16532.0,Controller,0,3.0,1.0,19.0,0,5,,,,,,
4892,16576.0,Controller,0,3.0,1.0,6.0,0,5,,,,,,
4893,16612.0,Controller,0,3.0,1.0,0.0,0,5,,,,,,
4894,16616.0,Note Off,0,3.0,60.0,60.0,0,5,,,,,,
4895,16704.0,Note On,0,3.0,57.0,56.0,0,5,144.0,5.0,3.0,57.0,a,56.0
4896,16848.0,Note Off,0,3.0,57.0,56.0,0,5,,,,,,
4897,16892.0,Note On,0,3.0,60.0,64.0,0,5,320.0,5.0,3.0,60.0,c',64.0
4898,16920.0,Controller,0,3.0,1.0,1.0,0,5,,,,,,
4899,16992.0,Controller,0,3.0,1.0,5.0,0,5,,,,,,
4900,17064.0,Controller,0,3.0,1.0,1.0,0,5,,,,,,
4901,17136.0,Controller,0,3.0,1.0,0.0,0,5,,,,,,
4902,17212.0,Note Off,0,3.0,60.0,64.0,0,5,,,,,,
4903,17272.0,Note On,0,3.0,58.0,60.0,0,5,340.0,2.0,0.0,58.0,a#,88.0
4904,17272.0,Note On,0,3.0,58.0,60.0,0,5,356.0,5.0,3.0,58.0,a#,60.0
4905,17628.0,Note Off,0,3.0,58.0,60.0,0,5,,,,,,
4906,17656.0,Note On,0,3.0,57.0,69.0,0,5,356.0,5.0,3.0,57.0,a,69.0
4907,18012.0,Note Off,0,3.0,57.0,69.0,0,5,,,,,,
4908,18052.0,Note On,0,3.0,58.0,60.0,0,5,340.0,5.0,3.0,58.0,a#,60.0
4909,18100.0,Controller,0,3.0,1.0,1.0,0,5,,,,,,
4910,18152.0,Controller,0,3.0,1.0,2.0,0,5,,,,,,
4911,18196.0,Controller,0,3.0,1.0,1.0,0,5,,,,,,
4912,18248.0,Controller,0,3.0,1.0,0.0,0,5,,,,,,
4913,18392.0,Note Off,0,3.0,58.0,60.0,0,5,,,,,,
4914,18432.0,Note On,0,3.0,55.0,73.0,0,5,772.0,2.0,0.0,58.0,a#,86.0
4915,18432.0,Note On,0,3.0,55.0,73.0,0,5,324.0,5.0,3.0,55.0,g,73.0
4916,18432.0,Note On,0,3.0,55.0,73.0,0,5,112.0,11.0,9.0,70.0,a#',69.0
4917,18480.0,Controller,0,3.0,1.0,1.0,0,5,,,,,,
4918,18596.0,Controller,0,3.0,1.0,3.0,0,5,,,,,,
4919,18660.0,Controller,0,3.0,1.0,1.0,0,5,,,,,,
4920,18708.0,Controller,0,3.0,1.0,0.0,0,5,,,,,,
4921,18756.0,Note Off,0,3.0,55.0,73.0,0,5,,,,,,
4922,18804.0,Note On,0,3.0,58.0,56.0,0,5,180.0,5.0,3.0,58.0,a#,56.0
4923,18984.0,Note Off,0,3.0,58.0,56.0,0,5,,,,,,
4924,19004.0,Note On,0,3.0,60.0,64.0,0,5,444.0,5.0,3.0,60.0,c',64.0
4925,19196.0,Controller,0,3.0,1.0,1.0,0,5,540.0,2.0,0.0,55.0,g,70.0
4926,19240.0,Controller,0,3.0,1.0,12.0,0,5,,,,,,
4927,19280.0,Controller,0,3.0,1.0,21.0,0,5,,,,,,
4928,19316.0,Controller,0,3.0,1.0,26.0,0,5,,,,,,
4929,19376.0,Controller,0,3.0,1.0,25.0,0,5,,,,,,
4930,19404.0,Controller,0,3.0,1.0,20.0,0,5,,,,,,
4931,19440.0,Controller,0,3.0,1.0,11.0,0,5,,,,,,
4932,19448.0,Note Off,0,3.0,60.0,64.0,0,5,,,,,,
4933,19480.0,Controller,0,3.0,1.0,1.0,0,5,,,,,,
4934,19516.0,Controller,0,3.0,1.0,0.0,0,5,,,,,,
4935,19584.0,Note On,0,3.0,58.0,56.0,0,5,148.0,2.0,0.0,63.0,d#',92.0
4936,19584.0,Note On,0,3.0,58.0,56.0,0,5,184.0,5.0,3.0,58.0,a#,56.0
4937,19768.0,Note Off,0,3.0,58.0,56.0,0,5,,,,,,
4938,19780.0,Note On,0,3.0,53.0,73.0,0,5,988.0,5.0,3.0,53.0,f,73.0
4939,20116.0,Controller,0,3.0,1.0,1.0,0,5,,,,,,
4940,20248.0,Controller,0,3.0,1.0,2.0,0,5,,,,,,
4941,20288.0,Controller,0,3.0,1.0,4.0,0,5,,,,,,
4942,20320.0,Controller,0,3.0,1.0,8.0,0,5,,,,,,
4943,20352.0,Controller,0,3.0,1.0,9.0,0,5,,,,,,
4944,20376.0,Controller,0,3.0,1.0,12.0,0,5,,,,,,
4945,20400.0,Controller,0,3.0,1.0,13.0,0,5,,,,,,
4946,20432.0,Controller,0,3.0,1.0,16.0,0,5,,,,,,
4947,20464.0,Controller,0,3.0,1.0,19.0,0,5,,,,,,
4948,20504.0,Controller,0,3.0,1.0,21.0,0,5,,,,,,
4949,20544.0,Controller,0,3.0,1.0,23.0,0,5,60.0,12.0,10.0,45.0,A,48.0
4950,20572.0,Controller,0,3.0,1.0,26.0,0,5,,,,,,
4951,20608.0,Controller,0,3.0,1.0,27.0,0,5,,,,,,
4952,20672.0,Controller,0,3.0,1.0,25.0,0,5,,,,,,
4953,20700.0,Controller,0,3.0,1.0,16.0,0,5,,,,,,
4954,20736.0,Controller,0,3.0,1.0,0.0,0,5,96.0,11.0,9.0,54.0,f#,91.0
4955,20768.0,Note Off,0,3.0,53.0,73.0,0,5,,,,,,
4956,21504.0,Note On,0,3.0,62.0,73.0,0,5,1436.0,2.0,0.0,46.0,A#,92.0
4957,21504.0,Note On,0,3.0,62.0,73.0,0,5,492.0,2.0,0.0,53.0,f,83.0
4958,21504.0,Note On,0,3.0,62.0,73.0,0,5,296.0,5.0,3.0,62.0,d',73.0
4959,21504.0,Note On,0,3.0,62.0,73.0,0,5,48.0,11.0,9.0,59.0,b,64.0
4960,21504.0,Note On,0,3.0,62.0,73.0,0,5,112.0,11.0,9.0,70.0,a#',69.0
4961,21504.0,Note On,0,3.0,62.0,73.0,0,5,96.0,12.0,10.0,36.0,C,78.0
4962,21800.0,Note Off,0,3.0,62.0,73.0,0,5,,,,,,
4963,21880.0,Note On,0,3.0,60.0,64.0,0,5,172.0,5.0,3.0,60.0,c',64.0
4964,22052.0,Note Off,0,3.0,60.0,64.0,0,5,,,,,,
4965,22080.0,Note On,0,3.0,63.0,64.0,0,5,360.0,5.0,3.0,63.0,d#',64.0
4966,22080.0,Note On,0,3.0,63.0,64.0,0,5,220.0,11.0,9.0,70.0,a#',32.0
4967,22132.0,Controller,0,3.0,1.0,1.0,0,5,,,,,,
4968,22156.0,Controller,0,3.0,1.0,11.0,0,5,,,,,,
4969,22196.0,Controller,0,3.0,1.0,23.0,0,5,,,,,,
4970,22232.0,Controller,0,3.0,1.0,31.0,0,5,,,,,,
4971,22264.0,Controller,0,3.0,1.0,34.0,0,5,,,,,,
4972,22300.0,Controller,0,3.0,1.0,29.0,0,5,,,,,,
4973,22336.0,Controller,0,3.0,1.0,19.0,0,5,,,,,,
4974,22376.0,Controller,0,3.0,1.0,9.0,0,5,,,,,,
4975,22408.0,Controller,0,3.0,1.0,1.0,0,5,,,,,,
4976,22440.0,Note Off,0,3.0,63.0,64.0,0,5,,,,,,
4977,22452.0,Controller,0,3.0,1.0,0.0,0,5,1704.0,2.0,0.0,62.0,d',79.0
4978,22460.0,Note On,0,3.0,62.0,56.0,0,5,164.0,5.0,3.0,62.0,d',56.0
4979,22624.0,Note Off,0,3.0,62.0,56.0,0,5,,,,,,
4980,22648.0,Note On,0,3.0,58.0,56.0,0,5,168.0,5.0,3.0,58.0,a#,56.0
4981,22816.0,Note Off,0,3.0,58.0,56.0,0,5,,,,,,
4982,22844.0,Note On,0,3.0,53.0,73.0,0,5,1360.0,5.0,3.0,53.0,f,73.0
4983,23212.0,Controller,0,3.0,1.0,1.0,0,5,,,,,,
4984,23376.0,Controller,0,3.0,1.0,3.0,0,5,,,,,,
4985,23400.0,Controller,0,3.0,1.0,4.0,0,5,,,,,,
4986,23424.0,Controller,0,3.0,1.0,5.0,0,5,216.0,9.0,7.0,63.0,d#',48.0
4987,23424.0,Controller,0,3.0,1.0,5.0,0,5,208.0,9.0,7.0,72.0,c'',52.0
4988,23424.0,Controller,0,3.0,1.0,5.0,0,5,60.0,12.0,10.0,41.0,F,48.0
4989,23448.0,Controller,0,3.0,1.0,6.0,0,5,,,,,,
4990,23488.0,Controller,0,3.0,1.0,8.0,0,5,,,,,,
4991,23516.0,Controller,0,3.0,1.0,9.0,0,5,,,,,,
4992,23544.0,Controller,0,3.0,1.0,12.0,0,5,,,,,,
4993,23572.0,Controller,0,3.0,1.0,13.0,0,5,,,,,,
4994,23596.0,Controller,0,3.0,1.0,14.0,0,5,,,,,,
4995,23636.0,Controller,0,3.0,1.0,16.0,0,5,,,,,,
4996,23676.0,Controller,0,3.0,1.0,18.0,0,5,,,,,,
4997,23716.0,Controller,0,3.0,1.0,20.0,0,5,,,,,,
4998,23860.0,Controller,0,3.0,1.0,19.0,0,5,,,,,,
4999,23896.0,Controller,0,3.0,1.0,18.0,0,5,,,,,,
5000,23952.0,Controller,0,3.0,1.0,16.0,0,5,,,,,,
5001,23984.0,Controller,0,3.0,1.0,14.0,0,5,,,,,,
5002,24012.0,Controller,0,3.0,1.0,12.0,0,5,,,,,,
5003,24048.0,Controller,0,3.0,1.0,9.0,0,5,,,,,,
5004,24084.0,Controller,0,3.0,1.0,1.0,0,5,,,,,,
5005,24136.0,Controller,0,3.0,1.0,0.0,0,5,,,,,,
5006,24204.0,Note Off,0,3.0,53.0,73.0,0,5,,,,,,
5007,24576.0,Note On,0,3.0,62.0,64.0,0,5,1316.0,2.0,0.0,46.0,A#,92.0
5008,24576.0,Note On,0,3.0,62.0,64.0,0,5,492.0,2.0,0.0,53.0,f,83.0
5009,24576.0,Note On,0,3.0,62.0,64.0,0,5,536.0,2.0,0.0,62.0,d',92.0
5010,24576.0,Note On,0,3.0,62.0,64.0,0,5,332.0,5.0,3.0,62.0,d',64.0
5011,24576.0,Note On,0,3.0,62.0,64.0,0,5,300.0,11.0,9.0,44.0,G#,56.0
5012,24576.0,Note On,0,3.0,62.0,64.0,0,5,280.0,11.0,9.0,51.0,d#,48.0
5013,24576.0,Note On,0,3.0,62.0,64.0,0,5,112.0,11.0,9.0,70.0,a#',69.0
5014,24576.0,Note On,0,3.0,62.0,64.0,0,5,96.0,12.0,10.0,36.0,C,78.0
5015,24608.0,Controller,0,3.0,1.0,1.0,0,5,,,,,,
5016,24660.0,Controller,0,3.0,1.0,7.0,0,5,,,,,,
5017,24696.0,Controller,0,3.0,1.0,11.0,0,5,,,,,,
5018,24744.0,Controller,0,3.0,1.0,13.0,0,5,,,,,,
5019,24772.0,Controller,0,3.0,1.0,16.0,0,5,,,,,,
5020,24836.0,Controller,0,3.0,1.0,15.0,0,5,,,,,,
5021,24860.0,Controller,0,3.0,1.0,9.0,0,5,,,,,,
5022,24892.0,Controller,0,3.0,1.0,1.0,0,5,,,,,,
5023,24908.0,Note Off,0,3.0,62.0,64.0,0,5,,,,,,
5024,24920.0,Controller,0,3.0,1.0,0.0,0,5,,,,,,
5025,24952.0,Note On,0,3.0,60.0,73.0,0,5,168.0,5.0,3.0,60.0,c',73.0
5026,25120.0,Note Off,0,3.0,60.0,73.0,0,5,,,,,,
5027,25148.0,Note On,0,3.0,63.0,64.0,0,5,384.0,2.0,0.0,55.0,g,92.0
5028,25148.0,Note On,0,3.0,63.0,64.0,0,5,384.0,2.0,0.0,58.0,a#,63.0
5029,25148.0,Note On,0,3.0,63.0,64.0,0,5,376.0,2.0,0.0,63.0,d#',83.0
5030,25148.0,Note On,0,3.0,63.0,64.0,0,5,332.0,5.0,3.0,63.0,d#',64.0
5031,25240.0,Controller,0,3.0,1.0,1.0,0,5,,,,,,
5032,25284.0,Controller,0,3.0,1.0,2.0,0,5,,,,,,
5033,25308.0,Controller,0,3.0,1.0,9.0,0,5,,,,,,
5034,25344.0,Controller,0,3.0,1.0,13.0,0,5,180.0,11.0,9.0,37.0,C#,82.0
5035,25380.0,Controller,0,3.0,1.0,17.0,0,5,,,,,,
5036,25436.0,Controller,0,3.0,1.0,10.0,0,5,,,,,,
5037,25472.0,Controller,0,3.0,1.0,1.0,0,5,,,,,,
5038,25480.0,Note Off,0,3.0,63.0,64.0,0,5,,,,,,
5039,25496.0,Controller,0,3.0,1.0,0.0,0,5,,,,,,
5040,25524.0,Note On,0,3.0,62.0,73.0,0,5,176.0,5.0,3.0,62.0,d',73.0
5041,25700.0,Note Off,0,3.0,62.0,73.0,0,5,,,,,,
5042,25724.0,Note On,0,3.0,58.0,64.0,0,5,388.0,2.0,0.0,58.0,a#,82.0
5043,25724.0,Note On,0,3.0,58.0,64.0,0,5,364.0,5.0,3.0,58.0,a#,64.0
5044,26088.0,Note Off,0,3.0,58.0,64.0,0,5,,,,,,
5045,26112.0,Note On,0,3.0,62.0,75.0,0,5,752.0,5.0,3.0,62.0,d',75.0
5046,26112.0,Note On,0,3.0,62.0,75.0,0,5,96.0,12.0,10.0,36.0,C,78.0
5047,26200.0,Controller,0,3.0,1.0,1.0,0,5,,,,,,
5048,26296.0,Controller,0,3.0,1.0,5.0,0,5,,,,,,
5049,26336.0,Controller,0,3.0,1.0,9.0,0,5,,,,,,
5050,26372.0,Controller,0,3.0,1.0,13.0,0,5,,,,,,
5051,26412.0,Controller,0,3.0,1.0,17.0,0,5,,,,,,
5052,26452.0,Controller,0,3.0,1.0,19.0,0,5,,,,,,
5053,26524.0,Controller,0,3.0,1.0,18.0,0,5,,,,,,
5054,26552.0,Controller,0,3.0,1.0,15.0,0,5,,,,,,
5055,26584.0,Controller,0,3.0,1.0,10.0,0,5,,,,,,
5056,26628.0,Controller,0,3.0,1.0,4.0,0,5,,,,,,
5057,26660.0,Controller,0,3.0,1.0,1.0,0,5,,,,,,
5058,26728.0,Controller,0,3.0,1.0,0.0,0,5,,,,,,
5059,26864.0,Note Off,0,3.0,62.0,75.0,0,5,,,,,,
5060,26880.0,Note On,0,3.0,60.0,73.0,0,5,604.0,5.0,3.0,60.0,c',73.0
5061,26880.0,Note On,0,3.0,60.0,73.0,0,5,96.0,11.0,9.0,54.0,f#,91.0
5062,27036.0,Controller,0,3.0,1.0,1.0,0,5,,,,,,
5063,27192.0,Controller,0,3.0,1.0,2.0,0,5,,,,,,
5064,27220.0,Controller,0,3.0,1.0,5.0,0,5,,,,,,
5065,27256.0,Controller,0,3.0,1.0,7.0,0,5,,,,,,
5066,27288.0,Controller,0,3.0,1.0,10.0,0,5,,,,,,
5067,27312.0,Controller,0,3.0,1.0,11.0,0,5,,,,,,
5068,27340.0,Controller,0,3.0,1.0,13.0,0,5,,,,,,
5069,27376.0,Controller,0,3.0,1.0,15.0,0,5,,,,,,
5070,27400.0,Controller,0,3.0,1.0,16.0,0,5,,,,,,
5071,27456.0,Controller,0,3.0,1.0,15.0,0,5,,,,,,
5072,27484.0,Note Off,0,3.0,60.0,73.0,0,5,,,,,,
5073,27484.0,Controller,0,3.0,1.0,11.0,0,5,,,,,,
5074,27524.0,Controller,0,3.0,1.0,1.0,0,5,,,,,,
5075,27560.0,Controller,0,3.0,1.0,0.0,0,5,,,,,,
5076,27644.0,Note On,0,3.0,60.0,72.0,0,5,356.0,5.0,3.0,60.0,c',72.0
5077,27664.0,Controller,0,3.0,1.0,1.0,0,5,,,,,,
5078,27724.0,Controller,0,3.0,1.0,5.0,0,5,,,,,,
5079,27760.0,Controller,0,3.0,1.0,11.0,0,5,,,,,,
5080,27796.0,Controller,0,3.0,1.0,15.0,0,5,,,,,,
5081,27828.0,Controller,0,3.0,1.0,17.0,0,5,,,,,,
5082,27876.0,Controller,0,3.0,1.0,15.0,0,5,,,,,,
5083,27900.0,Controller,0,3.0,1.0,7.0,0,5,,,,,,
5084,27936.0,Controller,0,3.0,1.0,1.0,0,5,,,,,,
5085,27968.0,Controller,0,3.0,1.0,0.0,0,5,,,,,,
5086,28000.0,Note Off,0,3.0,60.0,72.0,0,5,,,,,,
5087,28028.0,Note On,0,3.0,59.0,60.0,0,5,164.0,5.0,3.0,59.0,b,60.0
5088,28192.0,Note Off,0,3.0,59.0,60.0,0,5,,,,,,
5089,28224.0,Note On,0,3.0,62.0,75.0,0,5,300.0,5.0,3.0,62.0,d',75.0
5090,28224.0,Note On,0,3.0,62.0,75.0,0,5,220.0,11.0,9.0,70.0,a#',32.0
5091,28248.0,Controller,0,3.0,1.0,1.0,0,5,,,,,,
5092,28404.0,Controller,0,3.0,1.0,0.0,0,5,,,,,,
5093,28524.0,Note Off,0,3.0,62.0,75.0,0,5,,,,,,
5094,28600.0,Note On,0,3.0,60.0,60.0,0,5,364.0,5.0,3.0,60.0,c',60.0
5095,28628.0,Controller,0,3.0,1.0,1.0,0,5,,,,,,
5096,28712.0,Controller,0,3.0,1.0,6.0,0,5,,,,,,
5097,28744.0,Controller,0,3.0,1.0,12.0,0,5,,,,,,
5098,28784.0,Controller,0,3.0,1.0,16.0,0,5,,,,,,
5099,28820.0,Controller,0,3.0,1.0,19.0,0,5,,,,,,
5100,28872.0,Controller,0,3.0,1.0,4.0,0,5,,,,,,
5101,28900.0,Controller,0,3.0,1.0,0.0,0,5,,,,,,
5102,28964.0,Note Off,0,3.0,60.0,60.0,0,5,,,,,,
5103,28992.0,Note On,0,3.0,57.0,56.0,0,5,172.0,2.0,0.0,57.0,a,58.0
5104,28992.0,Note On,0,3.0,57.0,56.0,0,5,144.0,5.0,3.0,57.0,a,56.0
5105,29136.0,Note Off,0,3.0,57.0,56.0,0,5,,,,,,
5106,29180.0,Note On,0,3.0,60.0,64.0,0,5,676.0,2.0,0.0,62.0,d',82.0
5107,29180.0,Note On,0,3.0,60.0,64.0,0,5,320.0,5.0,3.0,60.0,c',64.0
5108,29208.0,Controller,0,3.0,1.0,1.0,0,5,,,,,,
5109,29268.0,Controller,0,3.0,1.0,4.0,0,5,,,,,,
5110,29292.0,Controller,0,3.0,1.0,5.0,0,5,,,,,,
5111,29360.0,Controller,0,3.0,1.0,1.0,0,5,,,,,,
5112,29424.0,Controller,0,3.0,1.0,0.0,0,5,,,,,,
5113,29500.0,Note Off,0,3.0,60.0,64.0,0,5,,,,,,
5114,29560.0,Note On,0,3.0,58.0,60.0,0,5,596.0,5.0,3.0,58.0,a#,60.0
5115,30156.0,Note Off,0,3.0,58.0,60.0,0,5,,,,,,
5116,30336.0,Note On,0,3.0,57.0,69.0,0,5,176.0,5.0,3.0,57.0,a,69.0
5117,30336.0,Note On,0,3.0,57.0,69.0,0,5,352.0,11.0,9.0,81.0,a'',52.0
5118,30388.0,Controller,0,3.0,1.0,1.0,0,5,,,,,,
5119,30440.0,Controller,0,3.0,1.0,2.0,0,5,,,,,,
5120,30484.0,Controller,0,3.0,1.0,1.0,0,5,,,,,,
5121,30512.0,Note Off,0,3.0,57.0,69.0,0,5,,,,,,
5122,30528.0,Note On,0,3.0,58.0,56.0,0,5,160.0,5.0,3.0,58.0,a#,56.0
5123,30536.0,Controller,0,3.0,1.0,0.0,0,5,,,,,,
5124,30688.0,Note Off,0,3.0,58.0,56.0,0,5,,,,,,
5125,30720.0,Note On,0,3.0,55.0,73.0,0,5,520.0,2.0,0.0,63.0,d#',76.0
5126,30720.0,Note On,0,3.0,55.0,73.0,0,5,324.0,5.0,3.0,55.0,g,73.0
5127,30720.0,Note On,0,3.0,55.0,73.0,0,5,112.0,11.0,9.0,70.0,a#',69.0
5128,30720.0,Note On,0,3.0,55.0,73.0,0,5,96.0,12.0,10.0,36.0,C,78.0
5129,30768.0,Controller,0,3.0,1.0,1.0,0,5,,,,,,
5130,30872.0,Controller,0,3.0,1.0,3.0,0,5,,,,,,
5131,30948.0,Controller,0,3.0,1.0,1.0,0,5,,,,,,
5132,30996.0,Controller,0,3.0,1.0,0.0,0,5,,,,,,
5133,31044.0,Note Off,0,3.0,55.0,73.0,0,5,,,,,,
5134,31092.0,Note On,0,3.0,58.0,56.0,0,5,180.0,5.0,3.0,58.0,a#,56.0
5135,31272.0,Note Off,0,3.0,58.0,56.0,0,5,,,,,,
5136,31292.0,Note On,0,3.0,60.0,64.0,0,5,156.0,2.0,0.0,58.0,a#,72.0
5137,31292.0,Note On,0,3.0,60.0,64.0,0,5,444.0,5.0,3.0,60.0,c',64.0
5138,31484.0,Controller,0,3.0,1.0,1.0,0,5,160.0,2.0,0.0,55.0,g,83.0
5139,31484.0,Controller,0,3.0,1.0,1.0,0,5,160.0,2.0,0.0,58.0,a#,50.0
5140,31512.0,Controller,0,3.0,1.0,2.0,0,5,,,,,,
5141,31536.0,Controller,0,3.0,1.0,13.0,0,5,,,,,,
5142,31572.0,Controller,0,3.0,1.0,22.0,0,5,,,,,,
5143,31616.0,Controller,0,3.0,1.0,26.0,0,5,,,,,,
5144,31664.0,Controller,0,3.0,1.0,24.0,0,5,,,,,,
5145,31700.0,Controller,0,3.0,1.0,18.0,0,5,,,,,,
5146,31736.0,Note Off,0,3.0,60.0,64.0,0,5,,,,,,
5147,31736.0,Controller,0,3.0,1.0,9.0,0,5,,,,,,
5148,31772.0,Controller,0,3.0,1.0,1.0,0,5,,,,,,
5149,31804.0,Controller,0,3.0,1.0,0.0,0,5,,,,,,
5150,31872.0,Note On,0,3.0,58.0,56.0,0,5,184.0,5.0,3.0,58.0,a#,56.0
5151,32056.0,Note Off,0,3.0,58.0,56.0,0,5,,,,,,
5152,32068.0,Note On,0,3.0,62.0,73.0,0,5,320.0,2.0,0.0,53.0,f,83.0
5153,32068.0,Note On,0,3.0,62.0,73.0,0,5,588.0,5.0,3.0,62.0,d',73.0
5154,32404.0,Controller,0,3.0,1.0,1.0,0,5,,,,,,
5155,32536.0,Controller,0,3.0,1.0,2.0,0,5,,,,,,
5156,32576.0,Controller,0,3.0,1.0,4.0,0,5,,,,,,
5157,32600.0,Controller,0,3.0,1.0,7.0,0,5,,,,,,
5158,32640.0,Controller,0,3.0,1.0,10.0,0,5,68.0,7.0,5.0,70.0,a#',75.0
5159,32640.0,Controller,0,3.0,1.0,10.0,0,5,1036.0,15.0,13.0,72.0,c'',31.0
5160,32656.0,Note Off,0,3.0,62.0,73.0,0,5,,,,,,
5161,32680.0,Controller,0,3.0,1.0,12.0,0,5,,,,,,
5162,32708.0,Controller,0,3.0,1.0,15.0,0,5,,,,,,
5163,32740.0,Controller,0,3.0,1.0,18.0,0,5,,,,,,
5164,32780.0,Controller,0,3.0,1.0,21.0,0,5,,,,,,
5165,32832.0,Controller,0,3.0,1.0,24.0,0,5,168.0,5.0,3.0,62.0,d',64.0
5166,32832.0,Note On,0,3.0,62.0,64.0,0,5,168.0,5.0,3.0,62.0,d',64.0
5167,32860.0,Controller,0,3.0,1.0,25.0,0,5,,,,,,
5168,32896.0,Controller,0,3.0,1.0,27.0,0,5,,,,,,
5169,32960.0,Controller,0,3.0,1.0,24.0,0,5,,,,,,
5170,32992.0,Controller,0,3.0,1.0,11.0,0,5,,,,,,
5171,33000.0,Note Off,0,3.0,62.0,64.0,0,5,,,,,,
5172,33028.0,Note On,0,3.0,63.0,82.0,0,5,328.0,5.0,3.0,63.0,d#',82.0
5173,33032.0,Controller,0,3.0,1.0,0.0,0,5,,,,,,
5174,33356.0,Note Off,0,3.0,63.0,82.0,0,5,,,,,,
5175,33408.0,Note On,0,3.0,67.0,91.0,0,5,368.0,2.0,0.0,55.0,g,74.0
5176,33408.0,Note On,0,3.0,67.0,91.0,0,5,372.0,2.0,0.0,63.0,d#',101.0
5177,33408.0,Note On,0,3.0,67.0,91.0,0,5,340.0,5.0,3.0,67.0,g',91.0
5178,33408.0,Note On,0,3.0,67.0,91.0,0,5,60.0,12.0,10.0,41.0,F,48.0
5179,33748.0,Note Off,0,3.0,67.0,91.0,0,5,,,,,,
5180,33792.0,Note On,0,3.0,65.0,82.0,0,5,540.0,2.0,0.0,53.0,f,92.0
5181,33792.0,Note On,0,3.0,65.0,82.0,0,5,588.0,2.0,0.0,57.0,a,101.0
5182,33792.0,Note On,0,3.0,65.0,82.0,0,5,588.0,3.0,1.0,29.0,"F,",64.0
5183,33792.0,Note On,0,3.0,65.0,82.0,0,5,1868.0,5.0,3.0,65.0,f',82.0
5184,33792.0,Note On,0,3.0,65.0,82.0,0,5,760.0,9.0,7.0,89.0,f''',64.0
5185,33792.0,Note On,0,3.0,65.0,82.0,0,5,48.0,11.0,9.0,55.0,g,38.0
5186,33792.0,Note On,0,3.0,65.0,82.0,0,5,48.0,11.0,9.0,59.0,b,64.0
5187,33792.0,Note On,0,3.0,65.0,82.0,0,5,112.0,11.0,9.0,70.0,a#',69.0
5188,33792.0,Note On,0,3.0,65.0,82.0,0,5,96.0,12.0,10.0,36.0,C,78.0
5189,33980.0,Controller,0,3.0,1.0,1.0,0,5,,,,,,
5190,34116.0,Controller,0,3.0,1.0,2.0,0,5,,,,,,
5191,34152.0,Controller,0,3.0,1.0,4.0,0,5,,,,,,
5192,34184.0,Controller,0,3.0,1.0,7.0,0,5,,,,,,
5193,34232.0,Controller,0,3.0,1.0,9.0,0,5,,,,,,
5194,34272.0,Controller,0,3.0,1.0,11.0,0,5,,,,,,
5195,34300.0,Controller,0,3.0,1.0,12.0,0,5,,,,,,
5196,34324.0,Controller,0,3.0,1.0,13.0,0,5,,,,,,
5197,34348.0,Controller,0,3.0,1.0,14.0,0,5,,,,,,
5198,34384.0,Controller,0,3.0,1.0,16.0,0,5,,,,,,
5199,34408.0,Controller,0,3.0,1.0,17.0,0,5,,,,,,
5200,34448.0,Controller,0,3.0,1.0,19.0,0,5,,,,,,
5201,34488.0,Controller,0,3.0,1.0,21.0,0,5,,,,,,
5202,34516.0,Controller,0,3.0,1.0,22.0,0,5,,,,,,
5203,34604.0,Controller,0,3.0,1.0,23.0,0,5,,,,,,
5204,34640.0,Controller,0,3.0,1.0,24.0,0,5,,,,,,
5205,34668.0,Controller,0,3.0,1.0,25.0,0,5,,,,,,
5206,34712.0,Controller,0,3.0,1.0,26.0,0,5,,,,,,
5207,34772.0,Controller,0,3.0,1.0,27.0,0,5,,,,,,
5208,34804.0,Controller,0,3.0,1.0,28.0,0,5,,,,,,
5209,34836.0,Controller,0,3.0,1.0,29.0,0,5,,,,,,
5210,34864.0,Controller,0,3.0,1.0,30.0,0,5,,,,,,
5211,34904.0,Controller,0,3.0,1.0,31.0,0,5,,,,,,
5212,34936.0,Controller,0,3.0,1.0,32.0,0,5,,,,,,
5213,34964.0,Controller,0,3.0,1.0,33.0,0,5,,,,,,
5214,35116.0,Controller,0,3.0,1.0,32.0,0,5,,,,,,
5215,35160.0,Controller,0,3.0,1.0,31.0,0,5,,,,,,
5216,35188.0,Controller,0,3.0,1.0,30.0,0,5,,,,,,
5217,35216.0,Controller,0,3.0,1.0,29.0,0,5,,,,,,
5218,35260.0,Controller,0,3.0,1.0,27.0,0,5,,,,,,
5219,35284.0,Controller,0,3.0,1.0,26.0,0,5,,,,,,
5220,35316.0,Controller,0,3.0,1.0,23.0,0,5,492.0,2.0,0.0,62.0,d',92.0
5221,35364.0,Controller,0,3.0,1.0,21.0,0,5,,,,,,
5222,35392.0,Controller,0,3.0,1.0,18.0,0,5,,,,,,
5223,35424.0,Controller,0,3.0,1.0,15.0,0,5,,,,,,
5224,35460.0,Controller,0,3.0,1.0,10.0,0,5,,,,,,
5225,35500.0,Controller,0,3.0,1.0,6.0,0,5,,,,,,
5226,35532.0,Controller,0,3.0,1.0,1.0,0,5,,,,,,
5227,35612.0,Controller,0,3.0,1.0,0.0,0,5,,,,,,
5228,35660.0,Note Off,0,3.0,65.0,82.0,0,5,,,,,,
5229,35896.0,Note On,0,3.0,62.0,60.0,0,5,180.0,5.0,3.0,62.0,d',60.0
5230,36076.0,Note Off,0,3.0,62.0,60.0,0,5,,,,,,
5231,36088.0,Note On,0,3.0,63.0,84.0,0,5,348.0,5.0,3.0,63.0,d#',84.0
5232,36436.0,Note Off,0,3.0,63.0,84.0,0,5,,,,,,
5233,36476.0,Note On,0,3.0,67.0,87.0,0,5,344.0,5.0,3.0,67.0,g',87.0
5234,36820.0,Note Off,0,3.0,67.0,87.0,0,5,,,,,,
5235,36860.0,Note On,0,3.0,65.0,73.0,0,5,216.0,2.0,0.0,60.0,c',83.0
5236,36860.0,Note On,0,3.0,65.0,73.0,0,5,392.0,2.0,0.0,65.0,f',98.0
5237,36860.0,Note On,0,3.0,65.0,73.0,0,5,368.0,5.0,3.0,65.0,f',73.0
5238,36876.0,Controller,0,3.0,1.0,1.0,0,5,,,,,,
5239,36940.0,Controller,0,3.0,1.0,9.0,0,5,,,,,,
5240,36972.0,Controller,0,3.0,1.0,17.0,0,5,,,,,,
5241,37012.0,Controller,0,3.0,1.0,23.0,0,5,,,,,,
5242,37044.0,Controller,0,3.0,1.0,27.0,0,5,,,,,,
5243,37072.0,Controller,0,3.0,1.0,28.0,0,5,,,,,,
5244,37108.0,Controller,0,3.0,1.0,26.0,0,5,,,,,,
5245,37136.0,Controller,0,3.0,1.0,21.0,0,5,,,,,,
5246,37172.0,Controller,0,3.0,1.0,10.0,0,5,,,,,,
5247,37208.0,Controller,0,3.0,1.0,1.0,0,5,,,,,,
5248,37228.0,Note Off,0,3.0,65.0,73.0,0,5,160.0,2.0,0.0,60.0,c',74.0
5249,37240.0,Note On,0,3.0,60.0,73.0,0,5,160.0,5.0,3.0,60.0,c',73.0
5250,37240.0,Controller,0,3.0,1.0,0.0,0,5,160.0,5.0,3.0,60.0,c',73.0
5251,37400.0,Note Off,0,3.0,60.0,73.0,0,5,,,,,,
5252,37436.0,Note On,0,3.0,63.0,90.0,0,5,568.0,5.0,3.0,63.0,d#',90.0
5253,37528.0,Controller,0,3.0,1.0,1.0,0,5,,,,,,
5254,37568.0,Controller,0,3.0,1.0,5.0,0,5,,,,,,
5255,37604.0,Controller,0,3.0,1.0,11.0,0,5,,,,,,
5256,37640.0,Controller,0,3.0,1.0,17.0,0,5,,,,,,
5257,37680.0,Controller,0,3.0,1.0,21.0,0,5,,,,,,
5258,37764.0,Controller,0,3.0,1.0,19.0,0,5,,,,,,
5259,37808.0,Controller,0,3.0,1.0,15.0,0,5,,,,,,
5260,37836.0,Controller,0,3.0,1.0,11.0,0,5,,,,,,
5261,37872.0,Controller,0,3.0,1.0,3.0,0,5,,,,,,
5262,37896.0,Controller,0,3.0,1.0,1.0,0,5,,,,,,
5263,37952.0,Controller,0,3.0,1.0,0.0,0,5,,,,,,
5264,38004.0,Note Off,0,3.0,63.0,90.0,0,5,,,,,,
5265,38020.0,Note On,0,3.0,62.0,73.0,0,5,156.0,5.0,3.0,62.0,d',73.0
5266,38176.0,Note Off,0,3.0,62.0,73.0,0,5,,,,,,
5267,38212.0,Note On,0,3.0,62.0,82.0,0,5,580.0,5.0,3.0,62.0,d',82.0
5268,38304.0,Controller,0,3.0,1.0,1.0,0,5,,,,,,
5269,38388.0,Controller,0,3.0,1.0,2.0,0,5,,,,,,
5270,38412.0,Controller,0,3.0,1.0,6.0,0,5,,,,,,
5271,38460.0,Controller,0,3.0,1.0,9.0,0,5,,,,,,
5272,38484.0,Controller,0,3.0,1.0,11.0,0,5,,,,,,
5273,38524.0,Controller,0,3.0,1.0,14.0,0,5,,,,,,
5274,38556.0,Controller,0,3.0,1.0,18.0,0,5,,,,,,
5275,38596.0,Controller,0,3.0,1.0,20.0,0,5,,,,,,
5276,38628.0,Controller,0,3.0,1.0,22.0,0,5,,,,,,
5277,38652.0,Controller,0,3.0,1.0,23.0,0,5,,,,,,
5278,38676.0,Controller,0,3.0,1.0,24.0,0,5,,,,,,
5279,38732.0,Controller,0,3.0,1.0,23.0,0,5,,,,,,
5280,38764.0,Controller,0,3.0,1.0,18.0,0,5,,,,,,
5281,38788.0,Controller,0,3.0,1.0,0.0,0,5,,,,,,
5282,38792.0,Note Off,0,3.0,62.0,82.0,0,5,,,,,,
5283,39156.0,Note On,0,3.0,62.0,73.0,0,5,768.0,2.0,0.0,53.0,f,74.0
5284,39156.0,Note On,0,3.0,62.0,73.0,0,5,280.0,2.0,0.0,62.0,d',101.0
5285,39156.0,Note On,0,3.0,62.0,73.0,0,5,220.0,5.0,3.0,62.0,d',73.0
5286,39376.0,Note Off,0,3.0,62.0,73.0,0,5,,,,,,
5287,39424.0,Note On,0,3.0,63.0,73.0,0,5,224.0,5.0,3.0,63.0,d#',73.0
5288,39648.0,Note Off,0,3.0,63.0,73.0,0,5,,,,,,
5289,39688.0,Note On,0,3.0,65.0,73.0,0,5,168.0,5.0,3.0,65.0,f',73.0
5290,39856.0,Note Off,0,3.0,65.0,73.0,0,5,,,,,,
5291,39928.0,Note On,0,3.0,69.0,73.0,0,5,740.0,2.0,0.0,39.0,D#,91.0
5292,39928.0,Note On,0,3.0,69.0,73.0,0,5,328.0,5.0,3.0,69.0,a',73.0
5293,39960.0,Controller,0,3.0,1.0,1.0,0,5,,,,,,
5294,39984.0,Controller,0,3.0,1.0,3.0,0,5,,,,,,
5295,40016.0,Controller,0,3.0,1.0,14.0,0,5,,,,,,
5296,40052.0,Controller,0,3.0,1.0,23.0,0,5,,,,,,
5297,40088.0,Controller,0,3.0,1.0,32.0,0,5,,,,,,
5298,40128.0,Controller,0,3.0,1.0,37.0,0,5,84.0,11.0,9.0,70.0,a#',52.0
5299,40212.0,Controller,0,3.0,1.0,29.0,0,5,,,,,,
5300,40248.0,Controller,0,3.0,1.0,19.0,0,5,,,,,,
5301,40256.0,Note Off,0,3.0,69.0,73.0,0,5,,,,,,
5302,40284.0,Controller,0,3.0,1.0,1.0,0,5,,,,,,
5303,40308.0,Note On,0,3.0,67.0,73.0,0,5,340.0,5.0,3.0,67.0,g',73.0
5304,40312.0,Controller,0,3.0,1.0,0.0,0,5,,,,,,
5305,40648.0,Note Off,0,3.0,67.0,73.0,0,5,,,,,,
5306,40696.0,Note On,0,3.0,65.0,64.0,0,5,724.0,2.0,0.0,38.0,D,92.0
5307,40696.0,Note On,0,3.0,65.0,64.0,0,5,208.0,2.0,0.0,58.0,a#,91.0
5308,40696.0,Note On,0,3.0,65.0,64.0,0,5,412.0,2.0,0.0,65.0,f',97.0
5309,40696.0,Note On,0,3.0,65.0,64.0,0,5,396.0,5.0,3.0,65.0,f',64.0
5310,40700.0,Controller,0,3.0,1.0,1.0,0,5,,,,,,
5311,40752.0,Controller,0,3.0,1.0,10.0,0,5,,,,,,
5312,40788.0,Controller,0,3.0,1.0,19.0,0,5,,,,,,
5313,40824.0,Controller,0,3.0,1.0,29.0,0,5,,,,,,
5314,40860.0,Controller,0,3.0,1.0,39.0,0,5,,,,,,
5315,40900.0,Controller,0,3.0,1.0,45.0,0,5,,,,,,
5316,40932.0,Controller,0,3.0,1.0,53.0,0,5,,,,,,
5317,40972.0,Controller,0,3.0,1.0,57.0,0,5,,,,,,
5318,41004.0,Controller,0,3.0,1.0,60.0,0,5,,,,,,
5319,41032.0,Controller,0,3.0,1.0,61.0,0,5,,,,,,
5320,41060.0,Controller,0,3.0,1.0,56.0,0,5,,,,,,
5321,41092.0,Note Off,0,3.0,65.0,64.0,0,5,,,,,,
5322,41092.0,Controller,0,3.0,1.0,39.0,0,5,,,,,,
5323,41132.0,Controller,0,3.0,1.0,16.0,0,5,,,,,,
5324,41164.0,Controller,0,3.0,1.0,1.0,0,5,,,,,,
5325,41200.0,Controller,0,3.0,1.0,0.0,0,5,,,,,,
5326,41284.0,Note On,0,3.0,58.0,64.0,0,5,192.0,5.0,3.0,58.0,a#,64.0
5327,41476.0,Note Off,0,3.0,58.0,64.0,0,5,,,,,,
5328,41480.0,Note On,0,3.0,69.0,73.0,0,5,308.0,5.0,3.0,69.0,a',73.0
5329,41516.0,Controller,0,3.0,1.0,7.0,0,5,,,,,,
5330,41544.0,Controller,0,3.0,1.0,23.0,0,5,,,,,,
5331,41580.0,Controller,0,3.0,1.0,34.0,0,5,,,,,,
5332,41616.0,Controller,0,3.0,1.0,42.0,0,5,,,,,,
5333,41704.0,Controller,0,3.0,1.0,32.0,0,5,,,,,,
5334,41740.0,Controller,0,3.0,1.0,17.0,0,5,,,,,,
5335,41776.0,Controller,0,3.0,1.0,1.0,0,5,,,,,,
5336,41788.0,Note Off,0,3.0,69.0,73.0,0,5,,,,,,
5337,41808.0,Controller,0,3.0,1.0,0.0,0,5,,,,,,
5338,41852.0,Note On,0,3.0,70.0,64.0,0,5,176.0,5.0,3.0,70.0,a#',64.0
5339,42028.0,Note Off,0,3.0,70.0,64.0,0,5,,,,,,
5340,42056.0,Note On,0,3.0,65.0,73.0,0,5,552.0,5.0,3.0,65.0,f',73.0
5341,42076.0,Controller,0,3.0,1.0,1.0,0,5,,,,,,
5342,42108.0,Controller,0,3.0,1.0,3.0,0,5,,,,,,
5343,42136.0,Controller,0,3.0,1.0,12.0,0,5,,,,,,
5344,42176.0,Controller,0,3.0,1.0,18.0,0,5,,,,,,
5345,42208.0,Controller,0,3.0,1.0,23.0,0,5,,,,,,
5346,42252.0,Controller,0,3.0,1.0,29.0,0,5,,,,,,
5347,42284.0,Controller,0,3.0,1.0,34.0,0,5,,,,,,
5348,42320.0,Controller,0,3.0,1.0,38.0,0,5,,,,,,
5349,42360.0,Controller,0,3.0,1.0,41.0,0,5,,,,,,
5350,42384.0,Controller,0,3.0,1.0,42.0,0,5,,,,,,
5351,42412.0,Controller,0,3.0,1.0,43.0,0,5,228.0,2.0,0.0,58.0,a#,62.0
5352,42440.0,Controller,0,3.0,1.0,44.0,0,5,,,,,,
5353,42496.0,Controller,0,3.0,1.0,35.0,0,5,,,,,,
5354,42532.0,Controller,0,3.0,1.0,16.0,0,5,,,,,,
5355,42572.0,Controller,0,3.0,1.0,0.0,0,5,,,,,,
5356,42608.0,Note Off,0,3.0,65.0,73.0,0,5,,,,,,
5357,42812.0,Note On,0,3.0,58.0,52.0,0,5,196.0,5.0,3.0,58.0,a#,52.0
5358,43008.0,Note Off,0,3.0,58.0,52.0,0,5,716.0,3.0,1.0,31.0,"G,",64.0
5359,43008.0,Note Off,0,3.0,58.0,52.0,0,5,372.0,5.0,3.0,62.0,d',75.0
5360,43008.0,Note Off,0,3.0,58.0,52.0,0,5,112.0,11.0,9.0,70.0,a#',69.0
5361,43008.0,Note Off,0,3.0,58.0,52.0,0,5,96.0,12.0,10.0,36.0,C,78.0
5362,43008.0,Note On,0,3.0,62.0,75.0,0,5,716.0,3.0,1.0,31.0,"G,",64.0
5363,43008.0,Note On,0,3.0,62.0,75.0,0,5,372.0,5.0,3.0,62.0,d',75.0
5364,43008.0,Note On,0,3.0,62.0,75.0,0,5,112.0,11.0,9.0,70.0,a#',69.0
5365,43008.0,Note On,0,3.0,62.0,75.0,0,5,96.0,12.0,10.0,36.0,C,78.0
5366,43052.0,Controller,0,3.0,1.0,1.0,0,5,,,,,,
5367,43084.0,Controller,0,3.0,1.0,3.0,0,5,,,,,,
5368,43108.0,Controller,0,3.0,1.0,9.0,0,5,,,,,,
5369,43132.0,Controller,0,3.0,1.0,11.0,0,5,,,,,,
5370,43168.0,Controller,0,3.0,1.0,13.0,0,5,,,,,,
5371,43236.0,Controller,0,3.0,1.0,8.0,0,5,,,,,,
5372,43272.0,Controller,0,3.0,1.0,1.0,0,5,,,,,,
5373,43332.0,Controller,0,3.0,1.0,0.0,0,5,,,,,,
5374,43380.0,Note Off,0,3.0,62.0,75.0,0,5,,,,,,
5375,43388.0,Note On,0,3.0,60.0,60.0,0,5,136.0,5.0,3.0,60.0,c',60.0
5376,43524.0,Note Off,0,3.0,60.0,60.0,0,5,,,,,,
5377,43576.0,Note On,0,3.0,58.0,73.0,0,5,604.0,5.0,3.0,58.0,a#,73.0
5378,43648.0,Controller,0,3.0,1.0,1.0,0,5,,,,,,
5379,43680.0,Controller,0,3.0,1.0,2.0,0,5,,,,,,
5380,43704.0,Controller,0,3.0,1.0,8.0,0,5,,,,,,
5381,43740.0,Controller,0,3.0,1.0,14.0,0,5,,,,,,
5382,43776.0,Controller,0,3.0,1.0,20.0,0,5,740.0,2.0,0.0,55.0,g,78.0
5383,43776.0,Controller,0,3.0,1.0,20.0,0,5,792.0,2.0,0.0,60.0,c',83.0
5384,43776.0,Controller,0,3.0,1.0,20.0,0,5,556.0,3.0,1.0,28.0,"E,",64.0
5385,43776.0,Controller,0,3.0,1.0,20.0,0,5,180.0,11.0,9.0,37.0,C#,82.0
5386,43816.0,Controller,0,3.0,1.0,22.0,0,5,,,,,,
5387,43848.0,Controller,0,3.0,1.0,24.0,0,5,,,,,,
5388,43916.0,Controller,0,3.0,1.0,23.0,0,5,,,,,,
5389,43944.0,Controller,0,3.0,1.0,20.0,0,5,,,,,,
5390,43980.0,Controller,0,3.0,1.0,15.0,0,5,,,,,,
5391,44012.0,Controller,0,3.0,1.0,8.0,0,5,,,,,,
5392,44048.0,Controller,0,3.0,1.0,1.0,0,5,,,,,,
5393,44112.0,Controller,0,3.0,1.0,0.0,0,5,,,,,,
5394,44156.0,Note On,0,3.0,55.0,56.0,0,5,176.0,5.0,3.0,55.0,g,56.0
5395,44180.0,Note Off,0,3.0,58.0,73.0,0,5,,,,,,
5396,44332.0,Note Off,0,3.0,55.0,56.0,0,5,,,,,,
5397,44348.0,Note On,0,3.0,58.0,69.0,0,5,192.0,5.0,3.0,58.0,a#,69.0
5398,44540.0,Note Off,0,3.0,58.0,69.0,0,5,388.0,5.0,3.0,62.0,d',75.0
5399,44540.0,Note On,0,3.0,62.0,75.0,0,5,388.0,5.0,3.0,62.0,d',75.0
5400,44624.0,Controller,0,3.0,1.0,1.0,0,5,,,,,,
5401,44676.0,Controller,0,3.0,1.0,10.0,0,5,,,,,,
5402,44716.0,Controller,0,3.0,1.0,17.0,0,5,,,,,,
5403,44748.0,Controller,0,3.0,1.0,22.0,0,5,,,,,,
5404,44788.0,Controller,0,3.0,1.0,25.0,0,5,,,,,,
5405,44856.0,Controller,0,3.0,1.0,21.0,0,5,,,,,,
5406,44896.0,Controller,0,3.0,1.0,14.0,0,5,,,,,,
5407,44924.0,Note On,0,3.0,60.0,56.0,0,5,148.0,5.0,3.0,60.0,c',56.0
5408,44928.0,Note Off,0,3.0,62.0,75.0,0,5,68.0,7.0,5.0,70.0,a#',75.0
5409,44928.0,Note Off,0,3.0,62.0,75.0,0,5,1036.0,15.0,13.0,72.0,c'',31.0
5410,44932.0,Controller,0,3.0,1.0,1.0,0,5,,,,,,
5411,44972.0,Controller,0,3.0,1.0,0.0,0,5,,,,,,
5412,45072.0,Note Off,0,3.0,60.0,56.0,0,5,,,,,,
5413,45116.0,Note On,0,3.0,60.0,52.0,0,5,600.0,5.0,3.0,60.0,c',52.0
5414,45120.0,Note On,0,3.0,62.0,73.0,0,5,160.0,5.0,3.0,62.0,d',73.0
5415,45220.0,Controller,0,3.0,1.0,1.0,0,5,,,,,,
5416,45280.0,Note Off,0,3.0,62.0,73.0,0,5,,,,,,
5417,45280.0,Controller,0,3.0,1.0,2.0,0,5,,,,,,
5418,45304.0,Controller,0,3.0,1.0,8.0,0,5,364.0,2.0,0.0,63.0,d#',89.0
5419,45312.0,Note On,0,3.0,63.0,87.0,0,5,376.0,5.0,3.0,63.0,d#',87.0
5420,45312.0,Note On,0,3.0,63.0,87.0,0,5,96.0,11.0,9.0,54.0,f#,91.0
5421,45340.0,Controller,0,3.0,1.0,13.0,0,5,,,,,,
5422,45376.0,Controller,0,3.0,1.0,18.0,0,5,,,,,,
5423,45416.0,Controller,0,3.0,1.0,21.0,0,5,,,,,,
5424,45452.0,Controller,0,3.0,1.0,25.0,0,5,,,,,,
5425,45496.0,Controller,0,3.0,1.0,27.0,0,5,184.0,2.0,0.0,36.0,C,83.0
5426,45528.0,Controller,0,3.0,1.0,29.0,0,5,,,,,,
5427,45600.0,Controller,0,3.0,1.0,27.0,0,5,,,,,,
5428,45632.0,Controller,0,3.0,1.0,20.0,0,5,,,,,,
5429,45668.0,Controller,0,3.0,1.0,0.0,0,5,,,,,,
5430,45688.0,Note Off,0,3.0,63.0,87.0,0,5,200.0,2.0,0.0,39.0,D#,83.0
5431,45696.0,Note On,0,3.0,67.0,82.0,0,5,172.0,3.0,1.0,27.0,"D#,",64.0
5432,45696.0,Note On,0,3.0,67.0,82.0,0,5,332.0,5.0,3.0,67.0,g',82.0
5433,45696.0,Note On,0,3.0,67.0,82.0,0,5,60.0,12.0,10.0,41.0,F,69.0
5434,45716.0,Note Off,0,3.0,60.0,52.0,0,5,,,,,,
5435,46028.0,Note Off,0,3.0,67.0,82.0,0,5,76.0,11.0,9.0,51.0,d#,44.0
5436,46072.0,Note On,0,3.0,65.0,73.0,0,5,1592.0,5.0,3.0,65.0,f',73.0
5437,46192.0,Controller,0,3.0,1.0,1.0,0,5,,,,,,
5438,46328.0,Controller,0,3.0,1.0,3.0,0,5,,,,,,
5439,46356.0,Controller,0,3.0,1.0,5.0,0,5,,,,,,
5440,46388.0,Controller,0,3.0,1.0,7.0,0,5,,,,,,
5441,46428.0,Controller,0,3.0,1.0,9.0,0,5,,,,,,
5442,46452.0,Controller,0,3.0,1.0,10.0,0,5,,,,,,
5443,46484.0,Controller,0,3.0,1.0,11.0,0,5,,,,,,
5444,46512.0,Controller,0,3.0,1.0,12.0,0,5,,,,,,
5445,46536.0,Controller,0,3.0,1.0,13.0,0,5,,,,,,
5446,46584.0,Controller,0,3.0,1.0,15.0,0,5,,,,,,
5447,46608.0,Controller,0,3.0,1.0,16.0,0,5,,,,,,
5448,46636.0,Controller,0,3.0,1.0,17.0,0,5,,,,,,
5449,46760.0,Controller,0,3.0,1.0,18.0,0,5,,,,,,
5450,46824.0,Controller,0,3.0,1.0,19.0,0,5,,,,,,
5451,46900.0,Controller,0,3.0,1.0,20.0,0,5,,,,,,
5452,47108.0,Controller,0,3.0,1.0,18.0,0,5,,,,,,
5453,47132.0,Controller,0,3.0,1.0,17.0,0,5,,,,,,
5454,47164.0,Controller,0,3.0,1.0,15.0,0,5,,,,,,
5455,47196.0,Controller,0,3.0,1.0,14.0,0,5,,,,,,
5456,47232.0,Controller,0,3.0,1.0,13.0,0,5,,,,,,
5457,47272.0,Controller,0,3.0,1.0,10.0,0,5,,,,,,
5458,47296.0,Controller,0,3.0,1.0,9.0,0,5,,,,,,
5459,47328.0,Controller,0,3.0,1.0,3.0,0,5,,,,,,
5460,47356.0,Controller,0,3.0,1.0,1.0,0,5,,,,,,
5461,47456.0,Controller,0,3.0,1.0,0.0,0,5,,,,,,
5462,47664.0,Note Off,0,3.0,65.0,73.0,0,5,,,,,,
5463,48180.0,Note On,0,3.0,62.0,73.0,0,5,568.0,2.0,0.0,65.0,f',74.0
5464,48180.0,Note On,0,3.0,62.0,73.0,0,5,168.0,5.0,3.0,62.0,d',73.0
5465,48348.0,Note Off,0,3.0,62.0,73.0,0,5,,,,,,
5466,48380.0,Note On,0,3.0,63.0,82.0,0,5,356.0,5.0,3.0,63.0,d#',82.0
5467,48736.0,Note Off,0,3.0,63.0,82.0,0,5,,,,,,
5468,48768.0,Note On,0,3.0,67.0,82.0,0,5,328.0,5.0,3.0,67.0,g',82.0
5469,49096.0,Note Off,0,3.0,67.0,82.0,0,5,,,,,,
5470,49140.0,Note On,0,3.0,65.0,73.0,0,5,372.0,5.0,3.0,65.0,f',73.0
5471,49172.0,Controller,0,3.0,1.0,1.0,0,5,,,,,,
5472,49212.0,Controller,0,3.0,1.0,9.0,0,5,,,,,,
5473,49248.0,Controller,0,3.0,1.0,16.0,0,5,,,,,,
5474,49284.0,Controller,0,3.0,1.0,22.0,0,5,,,,,,
5475,49308.0,Controller,0,3.0,1.0,24.0,0,5,,,,,,
5476,49348.0,Controller,0,3.0,1.0,26.0,0,5,,,,,,
5477,49396.0,Controller,0,3.0,1.0,24.0,0,5,,,,,,
5478,49432.0,Controller,0,3.0,1.0,17.0,0,5,,,,,,
5479,49464.0,Controller,0,3.0,1.0,1.0,0,5,,,,,,
5480,49508.0,Controller,0,3.0,1.0,0.0,0,5,,,,,,
5481,49512.0,Note Off,0,3.0,65.0,73.0,0,5,,,,,,
5482,49528.0,Note On,0,3.0,60.0,66.0,0,5,148.0,5.0,3.0,60.0,c',66.0
5483,49676.0,Note Off,0,3.0,60.0,66.0,0,5,,,,,,
5484,49720.0,Note On,0,3.0,63.0,73.0,0,5,748.0,2.0,0.0,42.0,F#,101.0
5485,49720.0,Note On,0,3.0,63.0,73.0,0,5,388.0,2.0,0.0,60.0,c',92.0
5486,49720.0,Note On,0,3.0,63.0,73.0,0,5,380.0,2.0,0.0,63.0,d#',91.0
5487,49720.0,Note On,0,3.0,63.0,73.0,0,5,576.0,5.0,3.0,63.0,d#',73.0
5488,49816.0,Controller,0,3.0,1.0,1.0,0,5,,,,,,
5489,49860.0,Controller,0,3.0,1.0,6.0,0,5,,,,,,
5490,49896.0,Controller,0,3.0,1.0,13.0,0,5,,,,,,
5491,49932.0,Controller,0,3.0,1.0,20.0,0,5,,,,,,
5492,49956.0,Controller,0,3.0,1.0,24.0,0,5,,,,,,
5493,49988.0,Controller,0,3.0,1.0,31.0,0,5,,,,,,
5494,50012.0,Controller,0,3.0,1.0,32.0,0,5,,,,,,
5495,50080.0,Controller,0,3.0,1.0,28.0,0,5,,,,,,
5496,50112.0,Controller,0,3.0,1.0,21.0,0,5,,,,,,
5497,50148.0,Controller,0,3.0,1.0,11.0,0,5,,,,,,
5498,50184.0,Controller,0,3.0,1.0,1.0,0,5,,,,,,
5499,50220.0,Controller,0,3.0,1.0,0.0,0,5,,,,,,
5500,50292.0,Note On,0,3.0,62.0,64.0,0,5,172.0,5.0,3.0,62.0,d',64.0
5501,50296.0,Note Off,0,3.0,63.0,73.0,0,5,380.0,2.0,0.0,54.0,f#,66.0
5502,50464.0,Note Off,0,3.0,62.0,64.0,0,5,,,,,,
5503,50492.0,Note On,0,3.0,62.0,66.0,0,5,596.0,5.0,3.0,62.0,d',66.0
5504,50528.0,Controller,0,3.0,1.0,1.0,0,5,,,,,,
5505,50616.0,Controller,0,3.0,1.0,7.0,0,5,,,,,,
5506,50656.0,Controller,0,3.0,1.0,11.0,0,5,,,,,,
5507,50692.0,Controller,0,3.0,1.0,15.0,0,5,,,,,,
5508,50724.0,Controller,0,3.0,1.0,19.0,0,5,,,,,,
5509,50748.0,Controller,0,3.0,1.0,20.0,0,5,,,,,,
5510,50776.0,Controller,0,3.0,1.0,23.0,0,5,,,,,,
5511,50800.0,Controller,0,3.0,1.0,25.0,0,5,,,,,,
5512,50840.0,Controller,0,3.0,1.0,27.0,0,5,,,,,,
5513,50868.0,Controller,0,3.0,1.0,31.0,0,5,,,,,,
5514,50904.0,Controller,0,3.0,1.0,35.0,0,5,,,,,,
5515,50944.0,Controller,0,3.0,1.0,38.0,0,5,,,,,,
5516,50996.0,Controller,0,3.0,1.0,33.0,0,5,,,,,,
5517,51032.0,Controller,0,3.0,1.0,9.0,0,5,,,,,,
5518,51068.0,Controller,0,3.0,1.0,0.0,0,5,,,,,,
5519,51088.0,Note Off,0,3.0,62.0,66.0,0,5,,,,,,
5520,51452.0,Note On,0,3.0,62.0,73.0,0,5,216.0,5.0,3.0,62.0,d',73.0
5521,51668.0,Note Off,0,3.0,62.0,73.0,0,5,,,,,,
5522,51712.0,Note On,0,3.0,63.0,73.0,0,5,208.0,5.0,3.0,63.0,d#',73.0
5523,51712.0,Note On,0,3.0,63.0,73.0,0,5,60.0,12.0,10.0,47.0,B,48.0
5524,51920.0,Note Off,0,3.0,63.0,73.0,0,5,,,,,,
5525,51964.0,Note On,0,3.0,65.0,73.0,0,5,260.0,2.0,0.0,65.0,f',97.0
5526,51964.0,Note On,0,3.0,65.0,73.0,0,5,200.0,5.0,3.0,65.0,f',73.0
5527,52164.0,Note Off,0,3.0,65.0,73.0,0,5,,,,,,
5528,52208.0,Note On,0,3.0,69.0,82.0,0,5,356.0,5.0,3.0,69.0,a',82.0
5529,52220.0,Controller,0,3.0,1.0,1.0,0,5,200.0,2.0,0.0,60.0,c',92.0
5530,52220.0,Controller,0,3.0,1.0,1.0,0,5,772.0,2.0,0.0,69.0,a',99.0
5531,52256.0,Controller,0,3.0,1.0,12.0,0,5,,,,,,
5532,52288.0,Controller,0,3.0,1.0,19.0,0,5,,,,,,
5533,52328.0,Controller,0,3.0,1.0,26.0,0,5,,,,,,
5534,52364.0,Controller,0,3.0,1.0,28.0,0,5,,,,,,
5535,52404.0,Controller,0,3.0,1.0,27.0,0,5,204.0,2.0,0.0,67.0,g',85.0
5536,52432.0,Controller,0,3.0,1.0,21.0,0,5,,,,,,
5537,52472.0,Controller,0,3.0,1.0,12.0,0,5,,,,,,
5538,52508.0,Controller,0,3.0,1.0,1.0,0,5,,,,,,
5539,52556.0,Controller,0,3.0,1.0,0.0,0,5,,,,,,
5540,52564.0,Note Off,0,3.0,69.0,82.0,0,5,,,,,,
5541,52592.0,Note On,0,3.0,67.0,64.0,0,5,400.0,2.0,0.0,60.0,c',76.0
5542,52592.0,Note On,0,3.0,67.0,64.0,0,5,168.0,5.0,3.0,67.0,g',64.0
5543,52760.0,Note Off,0,3.0,67.0,64.0,0,5,,,,,,
5544,52784.0,Note On,0,3.0,65.0,73.0,0,5,572.0,5.0,3.0,65.0,f',73.0
5545,52840.0,Controller,0,3.0,1.0,1.0,0,5,,,,,,
5546,52892.0,Controller,0,3.0,1.0,3.0,0,5,,,,,,
5547,52920.0,Controller,0,3.0,1.0,9.0,0,5,,,,,,
5548,52956.0,Controller,0,3.0,1.0,15.0,0,5,,,,,,
5549,52996.0,Controller,0,3.0,1.0,19.0,0,5,,,,,,
5550,53028.0,Controller,0,3.0,1.0,23.0,0,5,,,,,,
5551,53052.0,Controller,0,3.0,1.0,25.0,0,5,,,,,,
5552,53080.0,Controller,0,3.0,1.0,29.0,0,5,,,,,,
5553,53108.0,Controller,0,3.0,1.0,30.0,0,5,,,,,,
5554,53148.0,Controller,0,3.0,1.0,31.0,0,5,,,,,,
5555,53216.0,Controller,0,3.0,1.0,30.0,0,5,,,,,,
5556,53248.0,Controller,0,3.0,1.0,20.0,0,5,,,,,,
5557,53280.0,Controller,0,3.0,1.0,8.0,0,5,,,,,,
5558,53320.0,Controller,0,3.0,1.0,0.0,0,5,,,,,,
5559,53356.0,Note Off,0,3.0,65.0,73.0,0,5,,,,,,
5560,53516.0,Note On,0,3.0,58.0,52.0,0,5,220.0,5.0,3.0,58.0,a#,52.0
5561,53736.0,Note Off,0,3.0,58.0,52.0,0,5,,,,,,
5562,53744.0,Note On,0,3.0,69.0,64.0,0,5,172.0,5.0,3.0,69.0,a',64.0
5563,53796.0,Controller,0,3.0,1.0,1.0,0,5,,,,,,
5564,53844.0,Controller,0,3.0,1.0,1.0,0,5,,,,,,
5565,53872.0,Controller,0,3.0,1.0,0.0,0,5,,,,,,
5566,53916.0,Note Off,0,3.0,69.0,64.0,0,5,,,,,,
5567,53944.0,Note On,0,3.0,70.0,64.0,0,5,340.0,5.0,3.0,70.0,a#',64.0
5568,54052.0,Controller,0,3.0,1.0,1.0,0,5,,,,,,
5569,54124.0,Controller,0,3.0,1.0,4.0,0,5,,,,,,
5570,54164.0,Controller,0,3.0,1.0,8.0,0,5,,,,,,
5571,54200.0,Controller,0,3.0,1.0,1.0,0,5,,,,,,
5572,54236.0,Controller,0,3.0,1.0,0.0,0,5,,,,,,
5573,54284.0,Note Off,0,3.0,70.0,64.0,0,5,,,,,,
5574,54332.0,Note On,0,3.0,65.0,64.0,0,5,588.0,5.0,3.0,65.0,f',64.0
5575,54436.0,Controller,0,3.0,1.0,1.0,0,5,,,,,,
5576,54504.0,Controller,0,3.0,1.0,6.0,0,5,,,,,,
5577,54544.0,Controller,0,3.0,1.0,9.0,0,5,,,,,,
5578,54576.0,Controller,0,3.0,1.0,13.0,0,5,,,,,,
5579,54620.0,Controller,0,3.0,1.0,15.0,0,5,,,,,,
5580,54648.0,Controller,0,3.0,1.0,18.0,0,5,,,,,,
5581,54688.0,Controller,0,3.0,1.0,22.0,0,5,,,,,,
5582,54716.0,Controller,0,3.0,1.0,23.0,0,5,,,,,,
5583,54740.0,Controller,0,3.0,1.0,26.0,0,5,,,,,,
5584,54788.0,Controller,0,3.0,1.0,28.0,0,5,,,,,,
5585,54816.0,Controller,0,3.0,1.0,30.0,0,5,,,,,,
5586,54844.0,Controller,0,3.0,1.0,23.0,0,5,,,,,,
5587,54880.0,Controller,0,3.0,1.0,0.0,0,5,,,,,,
5588,54920.0,Note Off,0,3.0,65.0,64.0,0,5,,,,,,
5589,55100.0,Note On,0,3.0,58.0,52.0,0,5,196.0,5.0,3.0,58.0,a#,52.0
5590,55292.0,Note On,0,3.0,62.0,73.0,0,5,728.0,2.0,0.0,58.0,a#,86.0
5591,55292.0,Note On,0,3.0,62.0,73.0,0,5,628.0,2.0,0.0,62.0,d',93.0
5592,55292.0,Note On,0,3.0,62.0,73.0,0,5,312.0,5.0,3.0,62.0,d',73.0
5593,55296.0,Note Off,0,3.0,58.0,52.0,0,5,716.0,3.0,1.0,31.0,"G,",64.0
5594,55296.0,Note Off,0,3.0,58.0,52.0,0,5,112.0,11.0,9.0,70.0,a#',69.0
5595,55296.0,Note Off,0,3.0,58.0,52.0,0,5,96.0,12.0,10.0,36.0,C,78.0
5596,55348.0,Controller,0,3.0,1.0,1.0,0,5,,,,,,
5597,55376.0,Controller,0,3.0,1.0,3.0,0,5,,,,,,
5598,55408.0,Controller,0,3.0,1.0,13.0,0,5,,,,,,
5599,55444.0,Controller,0,3.0,1.0,18.0,0,5,,,,,,
5600,55468.0,Controller,0,3.0,1.0,19.0,0,5,,,,,,
5601,55520.0,Controller,0,3.0,1.0,18.0,0,5,,,,,,
5602,55548.0,Controller,0,3.0,1.0,9.0,0,5,,,,,,
5603,55584.0,Controller,0,3.0,1.0,1.0,0,5,,,,,,
5604,55604.0,Note Off,0,3.0,62.0,73.0,0,5,,,,,,
5605,55612.0,Controller,0,3.0,1.0,0.0,0,5,,,,,,
5606,55664.0,Note On,0,3.0,60.0,64.0,0,5,164.0,5.0,3.0,60.0,c',64.0
5607,55828.0,Note Off,0,3.0,60.0,64.0,0,5,,,,,,
5608,55860.0,Note On,0,3.0,58.0,60.0,0,5,536.0,5.0,3.0,58.0,a#,60.0
5609,55960.0,Controller,0,3.0,1.0,1.0,0,5,,,,,,
5610,55996.0,Controller,0,3.0,1.0,4.0,0,5,,,,,,
5611,56032.0,Controller,0,3.0,1.0,10.0,0,5,,,,,,
5612,56076.0,Controller,0,3.0,1.0,15.0,0,5,,,,,,
5613,56112.0,Controller,0,3.0,1.0,20.0,0,5,,,,,,
5614,56140.0,Controller,0,3.0,1.0,22.0,0,5,,,,,,
5615,56180.0,Controller,0,3.0,1.0,24.0,0,5,,,,,,
5616,56336.0,Controller,0,3.0,1.0,23.0,0,5,,,,,,
5617,56360.0,Controller,0,3.0,1.0,14.0,0,5,,,,,,
5618,56392.0,Controller,0,3.0,1.0,1.0,0,5,,,,,,
5619,56396.0,Note Off,0,3.0,58.0,60.0,0,5,,,,,,
5620,56436.0,Note On,0,3.0,58.0,52.0,0,5,160.0,5.0,3.0,58.0,a#,52.0
5621,56436.0,Controller,0,3.0,1.0,0.0,0,5,160.0,5.0,3.0,58.0,a#,52.0
5622,56596.0,Note Off,0,3.0,58.0,52.0,0,5,,,,,,
5623,56632.0,Note On,0,3.0,63.0,73.0,0,5,544.0,5.0,3.0,63.0,d#',73.0
5624,56736.0,Controller,0,3.0,1.0,1.0,0,5,,,,,,
5625,56776.0,Controller,0,3.0,1.0,3.0,0,5,,,,,,
5626,56812.0,Controller,0,3.0,1.0,9.0,0,5,412.0,4.0,2.0,75.0,d#'',56.0
5627,56844.0,Controller,0,3.0,1.0,14.0,0,5,,,,,,
5628,56868.0,Controller,0,3.0,1.0,16.0,0,5,,,,,,
5629,56896.0,Controller,0,3.0,1.0,21.0,0,5,,,,,,
5630,56936.0,Controller,0,3.0,1.0,24.0,0,5,,,,,,
5631,56960.0,Controller,0,3.0,1.0,25.0,0,5,,,,,,
5632,56988.0,Controller,0,3.0,1.0,26.0,0,5,,,,,,
5633,57080.0,Controller,0,3.0,1.0,23.0,0,5,,,,,,
5634,57116.0,Controller,0,3.0,1.0,19.0,0,5,,,,,,
5635,57148.0,Controller,0,3.0,1.0,8.0,0,5,,,,,,
5636,57176.0,Note Off,0,3.0,63.0,73.0,0,5,,,,,,
5637,57184.0,Controller,0,3.0,1.0,1.0,0,5,,,,,,
5638,57212.0,Note On,0,3.0,62.0,56.0,0,5,164.0,5.0,3.0,62.0,d',56.0
5639,57220.0,Controller,0,3.0,1.0,0.0,0,5,,,,,,
5640,57376.0,Note Off,0,3.0,62.0,56.0,0,5,,,,,,
5641,57404.0,Note On,0,3.0,60.0,64.0,0,5,560.0,5.0,3.0,60.0,c',64.0
5642,57468.0,Controller,0,3.0,1.0,1.0,0,5,,,,,,
5643,57512.0,Controller,0,3.0,1.0,9.0,0,5,,,,,,
5644,57548.0,Controller,0,3.0,1.0,15.0,0,5,,,,,,
5645,57584.0,Controller,0,3.0,1.0,20.0,0,5,740.0,2.0,0.0,60.0,c',92.0
5646,57620.0,Controller,0,3.0,1.0,24.0,0,5,,,,,,
5647,57656.0,Controller,0,3.0,1.0,26.0,0,5,,,,,,
5648,57688.0,Controller,0,3.0,1.0,27.0,0,5,,,,,,
5649,57772.0,Controller,0,3.0,1.0,25.0,0,5,,,,,,
5650,57796.0,Controller,0,3.0,1.0,22.0,0,5,,,,,,
5651,57836.0,Controller,0,3.0,1.0,16.0,0,5,,,,,,
5652,57872.0,Controller,0,3.0,1.0,9.0,0,5,,,,,,
5653,57908.0,Controller,0,3.0,1.0,1.0,0,5,,,,,,
5654,57956.0,Controller,0,3.0,1.0,0.0,0,5,,,,,,
5655,57964.0,Note Off,0,3.0,60.0,64.0,0,5,,,,,,
5656,57976.0,Note On,0,3.0,58.0,56.0,0,5,160.0,5.0,3.0,58.0,a#,56.0
5657,57976.0,Note On,0,3.0,58.0,56.0,0,5,32.0,9.0,7.0,82.0,a#'',56.0
5658,58136.0,Note Off,0,3.0,58.0,56.0,0,5,,,,,,
5659,58168.0,Note On,0,3.0,58.0,64.0,0,5,1000.0,5.0,3.0,58.0,a#,64.0
5660,58240.0,Controller,0,3.0,1.0,1.0,0,5,,,,,,
5661,58324.0,Controller,0,3.0,1.0,3.0,0,5,,,,,,
5662,58360.0,Controller,0,3.0,1.0,7.0,0,5,3028.0,4.0,2.0,82.0,a#'',49.0
5663,58396.0,Controller,0,3.0,1.0,9.0,0,5,,,,,,
5664,58436.0,Controller,0,3.0,1.0,11.0,0,5,,,,,,
5665,58472.0,Controller,0,3.0,1.0,13.0,0,5,,,,,,
5666,58496.0,Controller,0,3.0,1.0,14.0,0,5,,,,,,
5667,58528.0,Controller,0,3.0,1.0,16.0,0,5,,,,,,
5668,58568.0,Controller,0,3.0,1.0,18.0,0,5,,,,,,
5669,58592.0,Controller,0,3.0,1.0,19.0,0,5,,,,,,
5670,58616.0,Controller,0,3.0,1.0,20.0,0,5,,,,,,
5671,58756.0,Controller,0,3.0,1.0,18.0,0,5,,,,,,
5672,58788.0,Controller,0,3.0,1.0,15.0,0,5,,,,,,
5673,58840.0,Controller,0,3.0,1.0,13.0,0,5,,,,,,
5674,58872.0,Controller,0,3.0,1.0,12.0,0,5,,,,,,
5675,58900.0,Controller,0,3.0,1.0,11.0,0,5,,,,,,
5676,58936.0,Controller,0,3.0,1.0,9.0,0,5,,,,,,
5677,58960.0,Controller,0,3.0,1.0,8.0,0,5,,,,,,
5678,58988.0,Controller,0,3.0,1.0,5.0,0,5,,,,,,
5679,59028.0,Controller,0,3.0,1.0,1.0,0,5,,,,,,
5680,59088.0,Controller,0,3.0,1.0,0.0,0,5,,,,,,
5681,59168.0,Note Off,0,3.0,58.0,64.0,0,5,,,,,,
5682,61440.0,Note On,0,3.0,65.0,73.0,0,5,1436.0,2.0,0.0,49.0,c#,92.0
5683,61440.0,Note On,0,3.0,65.0,73.0,0,5,492.0,2.0,0.0,56.0,g#,83.0
5684,61440.0,Note On,0,3.0,65.0,73.0,0,5,1260.0,3.0,1.0,37.0,C#,82.0
5685,61440.0,Note On,0,3.0,65.0,73.0,0,5,296.0,5.0,3.0,65.0,f',73.0
5686,61440.0,Note On,0,3.0,65.0,73.0,0,5,96.0,11.0,9.0,35.0,"B,",82.0
5687,61440.0,Note On,0,3.0,65.0,73.0,0,5,48.0,11.0,9.0,49.0,c#,50.0
5688,61440.0,Note On,0,3.0,65.0,73.0,0,5,48.0,11.0,9.0,59.0,b,64.0
5689,61440.0,Note On,0,3.0,65.0,73.0,0,5,112.0,11.0,9.0,70.0,a#',69.0
5690,61736.0,Note Off,0,3.0,65.0,73.0,0,5,,,,,,
5691,61816.0,Note On,0,3.0,63.0,64.0,0,5,172.0,5.0,3.0,63.0,d#',64.0
5692,61988.0,Note Off,0,3.0,63.0,64.0,0,5,,,,,,
5693,62016.0,Note On,0,3.0,66.0,64.0,0,5,360.0,5.0,3.0,66.0,f#',64.0
5694,62088.0,Controller,0,3.0,1.0,5.0,0,5,,,,,,
5695,62120.0,Controller,0,3.0,1.0,20.0,0,5,,,,,,
5696,62152.0,Controller,0,3.0,1.0,30.0,0,5,,,,,,
5697,62192.0,Controller,0,3.0,1.0,34.0,0,5,,,,,,
5698,62244.0,Controller,0,3.0,1.0,28.0,0,5,,,,,,
5699,62280.0,Controller,0,3.0,1.0,18.0,0,5,,,,,,
5700,62316.0,Controller,0,3.0,1.0,8.0,0,5,,,,,,
5701,62352.0,Controller,0,3.0,1.0,1.0,0,5,,,,,,
5702,62376.0,Note Off,0,3.0,66.0,64.0,0,5,,,,,,
5703,62388.0,Controller,0,3.0,1.0,0.0,0,5,1736.0,2.0,0.0,65.0,f',79.0
5704,62396.0,Note On,0,3.0,65.0,56.0,0,5,164.0,5.0,3.0,65.0,f',56.0
5705,62396.0,Note On,0,3.0,65.0,56.0,0,5,56.0,11.0,9.0,42.0,F#,31.0
5706,62560.0,Note Off,0,3.0,65.0,56.0,0,5,,,,,,
5707,62584.0,Note On,0,3.0,61.0,56.0,0,5,168.0,5.0,3.0,61.0,c#',56.0
5708,62752.0,Note Off,0,3.0,61.0,56.0,0,5,,,,,,
5709,62780.0,Note On,0,3.0,56.0,73.0,0,5,1360.0,5.0,3.0,56.0,g#,73.0
5710,63148.0,Controller,0,3.0,1.0,1.0,0,5,,,,,,
5711,63312.0,Controller,0,3.0,1.0,3.0,0,5,,,,,,
5712,63336.0,Controller,0,3.0,1.0,4.0,0,5,,,,,,
5713,63360.0,Controller,0,3.0,1.0,5.0,0,5,120.0,11.0,9.0,42.0,F#,69.0
5714,63384.0,Controller,0,3.0,1.0,6.0,0,5,,,,,,
5715,63424.0,Controller,0,3.0,1.0,8.0,0,5,,,,,,
5716,63452.0,Controller,0,3.0,1.0,10.0,0,5,,,,,,
5717,63480.0,Controller,0,3.0,1.0,11.0,0,5,,,,,,
5718,63508.0,Controller,0,3.0,1.0,13.0,0,5,,,,,,
5719,63532.0,Controller,0,3.0,1.0,14.0,0,5,,,,,,
5720,63572.0,Controller,0,3.0,1.0,16.0,0,5,,,,,,
5721,63612.0,Controller,0,3.0,1.0,18.0,0,5,,,,,,
5722,63652.0,Controller,0,3.0,1.0,20.0,0,5,,,,,,
5723,63796.0,Controller,0,3.0,1.0,19.0,0,5,,,,,,
5724,63832.0,Controller,0,3.0,1.0,18.0,0,5,,,,,,
5725,63888.0,Controller,0,3.0,1.0,16.0,0,5,,,,,,
5726,63920.0,Controller,0,3.0,1.0,13.0,0,5,,,,,,
5727,63968.0,Controller,0,3.0,1.0,11.0,0,5,,,,,,
5728,63992.0,Controller,0,3.0,1.0,8.0,0,5,,,,,,
5729,64028.0,Controller,0,3.0,1.0,1.0,0,5,,,,,,
5730,64072.0,Controller,0,3.0,1.0,0.0,0,5,,,,,,
5731,64140.0,Note Off,0,3.0,56.0,73.0,0,5,,,,,,
5732,64512.0,Note On,0,3.0,65.0,64.0,0,5,1316.0,2.0,0.0,49.0,c#,92.0
5733,64512.0,Note On,0,3.0,65.0,64.0,0,5,492.0,2.0,0.0,56.0,g#,83.0
5734,64512.0,Note On,0,3.0,65.0,64.0,0,5,536.0,2.0,0.0,65.0,f',92.0
5735,64512.0,Note On,0,3.0,65.0,64.0,0,5,1312.0,3.0,1.0,37.0,C#,82.0
5736,64512.0,Note On,0,3.0,65.0,64.0,0,5,332.0,5.0,3.0,65.0,f',64.0
5737,64512.0,Note On,0,3.0,65.0,64.0,0,5,776.0,9.0,7.0,73.0,c#'',48.0
5738,64512.0,Note On,0,3.0,65.0,64.0,0,5,96.0,11.0,9.0,35.0,"B,",82.0
5739,64512.0,Note On,0,3.0,65.0,64.0,0,5,108.0,11.0,9.0,42.0,F#,72.0
5740,64512.0,Note On,0,3.0,65.0,64.0,0,5,112.0,11.0,9.0,70.0,a#',69.0
5741,64544.0,Controller,0,3.0,1.0,1.0,0,5,,,,,,
5742,64604.0,Controller,0,3.0,1.0,8.0,0,5,,,,,,
5743,64644.0,Controller,0,3.0,1.0,11.0,0,5,,,,,,
5744,64680.0,Controller,0,3.0,1.0,13.0,0,5,,,,,,
5745,64708.0,Controller,0,3.0,1.0,16.0,0,5,,,,,,
5746,64780.0,Controller,0,3.0,1.0,12.0,0,5,,,,,,
5747,64820.0,Controller,0,3.0,1.0,3.0,0,5,,,,,,
5748,64844.0,Note Off,0,3.0,65.0,64.0,0,5,,,,,,
5749,64856.0,Controller,0,3.0,1.0,0.0,0,5,,,,,,
5750,64888.0,Note On,0,3.0,63.0,73.0,0,5,168.0,5.0,3.0,63.0,d#',73.0
5751,65056.0,Note Off,0,3.0,63.0,73.0,0,5,,,,,,
5752,65084.0,Note On,0,3.0,66.0,64.0,0,5,384.0,2.0,0.0,58.0,a#,92.0
5753,65084.0,Note On,0,3.0,66.0,64.0,0,5,384.0,2.0,0.0,61.0,c#',63.0
5754,65084.0,Note On,0,3.0,66.0,64.0,0,5,376.0,2.0,0.0,66.0,f#',83.0
5755,65084.0,Note On,0,3.0,66.0,64.0,0,5,332.0,5.0,3.0,66.0,f#',64.0
5756,65084.0,Note On,0,3.0,66.0,64.0,0,5,52.0,11.0,9.0,42.0,F#,31.0
5757,65176.0,Controller,0,3.0,1.0,1.0,0,5,,,,,,
5758,65220.0,Controller,0,3.0,1.0,4.0,0,5,,,,,,
5759,65252.0,Controller,0,3.0,1.0,9.0,0,5,,,,,,
5760,65288.0,Controller,0,3.0,1.0,14.0,0,5,,,,,,
5761,65328.0,Controller,0,3.0,1.0,17.0,0,5,,,,,,
5762,65360.0,Controller,0,3.0,1.0,14.0,0,5,,,,,,
5763,65396.0,Controller,0,3.0,1.0,1.0,0,5,,,,,,
5764,65416.0,Note Off,0,3.0,66.0,64.0,0,5,,,,,,
5765,65432.0,Controller,0,3.0,1.0,0.0,0,5,244.0,4.0,2.0,77.0,f'',64.0
5766,65460.0,Note On,0,3.0,65.0,73.0,0,5,176.0,5.0,3.0,65.0,f',73.0
5767,65636.0,Note Off,0,3.0,65.0,73.0,0,5,,,,,,
5768,65660.0,Note On,0,3.0,61.0,64.0,0,5,388.0,2.0,0.0,61.0,c#',82.0
5769,65660.0,Note On,0,3.0,61.0,64.0,0,5,364.0,5.0,3.0,61.0,c#',64.0
5770,66024.0,Note Off,0,3.0,61.0,64.0,0,5,,,,,,
5771,66048.0,Note On,0,3.0,65.0,75.0,0,5,748.0,3.0,1.0,34.0,"A#,",82.0
5772,66048.0,Note On,0,3.0,65.0,75.0,0,5,752.0,5.0,3.0,65.0,f',75.0
5773,66048.0,Note On,0,3.0,65.0,75.0,0,5,96.0,11.0,9.0,35.0,"B,",82.0
5774,66048.0,Note On,0,3.0,65.0,75.0,0,5,108.0,11.0,9.0,42.0,F#,72.0
5775,66136.0,Controller,0,3.0,1.0,1.0,0,5,,,,,,
5776,66240.0,Controller,0,3.0,1.0,6.0,0,5,536.0,2.0,0.0,54.0,f#,79.0
5777,66280.0,Controller,0,3.0,1.0,10.0,0,5,,,,,,
5778,66320.0,Controller,0,3.0,1.0,13.0,0,5,,,,,,
5779,66348.0,Controller,0,3.0,1.0,17.0,0,5,,,,,,
5780,66388.0,Controller,0,3.0,1.0,19.0,0,5,,,,,,
5781,66476.0,Controller,0,3.0,1.0,16.0,0,5,,,,,,
5782,66512.0,Controller,0,3.0,1.0,12.0,0,5,,,,,,
5783,66552.0,Controller,0,3.0,1.0,8.0,0,5,,,,,,
5784,66580.0,Controller,0,3.0,1.0,1.0,0,5,,,,,,
5785,66664.0,Controller,0,3.0,1.0,0.0,0,5,,,,,,
5786,66800.0,Note Off,0,3.0,65.0,75.0,0,5,,,,,,
5787,66816.0,Note On,0,3.0,63.0,73.0,0,5,348.0,3.0,1.0,36.0,C,82.0
5788,66816.0,Note On,0,3.0,63.0,73.0,0,5,604.0,5.0,3.0,63.0,d#',73.0
5789,66816.0,Note On,0,3.0,63.0,73.0,0,5,112.0,11.0,9.0,42.0,F#,75.0
5790,66816.0,Note On,0,3.0,63.0,73.0,0,5,96.0,11.0,9.0,54.0,f#,91.0
5791,66972.0,Controller,0,3.0,1.0,1.0,0,5,,,,,,
5792,67128.0,Controller,0,3.0,1.0,2.0,0,5,,,,,,
5793,67156.0,Controller,0,3.0,1.0,5.0,0,5,,,,,,
5794,67184.0,Controller,0,3.0,1.0,6.0,0,5,,,,,,
5795,67212.0,Controller,0,3.0,1.0,9.0,0,5,,,,,,
5796,67248.0,Controller,0,3.0,1.0,12.0,0,5,,,,,,
5797,67276.0,Controller,0,3.0,1.0,13.0,0,5,,,,,,
5798,67312.0,Controller,0,3.0,1.0,15.0,0,5,,,,,,
5799,67336.0,Controller,0,3.0,1.0,16.0,0,5,,,,,,
5800,67392.0,Controller,0,3.0,1.0,15.0,0,5,,,,,,
5801,67420.0,Note Off,0,3.0,63.0,73.0,0,5,,,,,,
5802,67432.0,Controller,0,3.0,1.0,11.0,0,5,,,,,,
5803,67464.0,Controller,0,3.0,1.0,1.0,0,5,,,,,,
5804,67496.0,Controller,0,3.0,1.0,0.0,0,5,,,,,,
5805,67580.0,Note On,0,3.0,63.0,72.0,0,5,356.0,5.0,3.0,63.0,d#',72.0
5806,67600.0,Controller,0,3.0,1.0,1.0,0,5,,,,,,
5807,67652.0,Controller,0,3.0,1.0,3.0,0,5,,,,,,
5808,67680.0,Controller,0,3.0,1.0,10.0,0,5,,,,,,
5809,67716.0,Controller,0,3.0,1.0,14.0,0,5,,,,,,
5810,67764.0,Controller,0,3.0,1.0,17.0,0,5,,,,,,
5811,67824.0,Controller,0,3.0,1.0,12.0,0,5,,,,,,
5812,67860.0,Controller,0,3.0,1.0,1.0,0,5,,,,,,
5813,67904.0,Controller,0,3.0,1.0,0.0,0,5,,,,,,
5814,67936.0,Note Off,0,3.0,63.0,72.0,0,5,,,,,,
5815,67964.0,Note On,0,3.0,62.0,60.0,0,5,164.0,5.0,3.0,62.0,d',60.0
5816,68128.0,Note Off,0,3.0,62.0,60.0,0,5,,,,,,
5817,68160.0,Note On,0,3.0,65.0,75.0,0,5,700.0,3.0,1.0,29.0,"F,",82.0
5818,68160.0,Note On,0,3.0,65.0,75.0,0,5,380.0,5.0,3.0,65.0,f',75.0
5819,68184.0,Controller,0,3.0,1.0,1.0,0,5,,,,,,
5820,68340.0,Controller,0,3.0,1.0,0.0,0,5,,,,,,
5821,68540.0,Note Off,0,3.0,65.0,75.0,0,5,56.0,11.0,9.0,42.0,F#,31.0
5822,68544.0,Note On,0,3.0,63.0,64.0,0,5,172.0,5.0,3.0,63.0,d#',64.0
5823,68564.0,Controller,0,3.0,1.0,1.0,0,5,,,,,,
5824,68632.0,Controller,0,3.0,1.0,4.0,0,5,,,,,,
5825,68672.0,Controller,0,3.0,1.0,10.0,0,5,,,,,,
5826,68704.0,Controller,0,3.0,1.0,15.0,0,5,,,,,,
5827,68716.0,Note Off,0,3.0,63.0,64.0,0,5,,,,,,
5828,68728.0,Note On,0,3.0,60.0,55.0,0,5,192.0,5.0,3.0,60.0,c',55.0
5829,68744.0,Controller,0,3.0,1.0,19.0,0,5,,,,,,
5830,68796.0,Controller,0,3.0,1.0,6.0,0,5,,,,,,
5831,68836.0,Controller,0,3.0,1.0,0.0,0,5,,,,,,
5832,68920.0,Note Off,0,3.0,60.0,55.0,0,5,384.0,5.0,3.0,63.0,d#',66.0
5833,68920.0,Note On,0,3.0,63.0,66.0,0,5,384.0,5.0,3.0,63.0,d#',66.0
5834,69304.0,Note Off,0,3.0,63.0,66.0,0,5,604.0,5.0,3.0,61.0,c#',56.0
5835,69304.0,Note On,0,3.0,61.0,56.0,0,5,604.0,5.0,3.0,61.0,c#',56.0
5836,69540.0,Controller,0,3.0,1.0,1.0,0,5,,,,,,
5837,69588.0,Controller,0,3.0,1.0,4.0,0,5,,,,,,
5838,69612.0,Controller,0,3.0,1.0,7.0,0,5,,,,,,
5839,69644.0,Controller,0,3.0,1.0,13.0,0,5,,,,,,
5840,69680.0,Controller,0,3.0,1.0,19.0,0,5,,,,,,
5841,69712.0,Controller,0,3.0,1.0,25.0,0,5,,,,,,
5842,69748.0,Controller,0,3.0,1.0,30.0,0,5,,,,,,
5843,69824.0,Controller,0,3.0,1.0,24.0,0,5,,,,,,
5844,69860.0,Controller,0,3.0,1.0,3.0,0,5,,,,,,
5845,69892.0,Controller,0,3.0,1.0,0.0,0,5,,,,,,
5846,69908.0,Note Off,0,3.0,61.0,56.0,0,5,,,,,,
5847,70272.0,Note On,0,3.0,60.0,69.0,0,5,176.0,5.0,3.0,60.0,c',69.0
5848,70272.0,Note On,0,3.0,60.0,69.0,0,5,140.0,11.0,9.0,42.0,F#,72.0
5849,70324.0,Controller,0,3.0,1.0,1.0,0,5,,,,,,
5850,70376.0,Controller,0,3.0,1.0,2.0,0,5,,,,,,
5851,70420.0,Controller,0,3.0,1.0,1.0,0,5,,,,,,
5852,70448.0,Note Off,0,3.0,60.0,69.0,0,5,,,,,,
5853,70464.0,Note On,0,3.0,61.0,56.0,0,5,160.0,5.0,3.0,61.0,c#',56.0
5854,70472.0,Controller,0,3.0,1.0,0.0,0,5,,,,,,
5855,70624.0,Note Off,0,3.0,61.0,56.0,0,5,,,,,,
5856,70656.0,Note On,0,3.0,58.0,73.0,0,5,708.0,2.0,0.0,66.0,f#',76.0
5857,70656.0,Note On,0,3.0,58.0,73.0,0,5,712.0,3.0,1.0,30.0,"F#,",82.0
5858,70656.0,Note On,0,3.0,58.0,73.0,0,5,324.0,5.0,3.0,58.0,a#,73.0
5859,70656.0,Note On,0,3.0,58.0,73.0,0,5,96.0,11.0,9.0,35.0,"B,",82.0
5860,70656.0,Note On,0,3.0,58.0,73.0,0,5,108.0,11.0,9.0,42.0,F#,72.0
5861,70656.0,Note On,0,3.0,58.0,73.0,0,5,112.0,11.0,9.0,70.0,a#',69.0
5862,70704.0,Controller,0,3.0,1.0,1.0,0,5,,,,,,
5863,70820.0,Controller,0,3.0,1.0,3.0,0,5,,,,,,
5864,70884.0,Controller,0,3.0,1.0,1.0,0,5,,,,,,
5865,70932.0,Controller,0,3.0,1.0,0.0,0,5,,,,,,
5866,70980.0,Note Off,0,3.0,58.0,73.0,0,5,,,,,,
5867,71028.0,Note On,0,3.0,61.0,56.0,0,5,180.0,5.0,3.0,61.0,c#',56.0
5868,71208.0,Note Off,0,3.0,61.0,56.0,0,5,,,,,,
5869,71228.0,Note On,0,3.0,63.0,64.0,0,5,544.0,5.0,3.0,63.0,d#',64.0
5870,71228.0,Note On,0,3.0,63.0,64.0,0,5,52.0,11.0,9.0,42.0,F#,31.0
5871,71420.0,Controller,0,3.0,1.0,1.0,0,5,540.0,2.0,0.0,58.0,a#,74.0
5872,71448.0,Controller,0,3.0,1.0,3.0,0,5,,,,,,
5873,71476.0,Controller,0,3.0,1.0,15.0,0,5,,,,,,
5874,71512.0,Controller,0,3.0,1.0,22.0,0,5,,,,,,
5875,71552.0,Controller,0,3.0,1.0,26.0,0,5,,,,,,
5876,71600.0,Controller,0,3.0,1.0,25.0,0,5,,,,,,
5877,71628.0,Controller,0,3.0,1.0,21.0,0,5,,,,,,
5878,71656.0,Controller,0,3.0,1.0,12.0,0,5,,,,,,
5879,71692.0,Controller,0,3.0,1.0,1.0,0,5,,,,,,
5880,71740.0,Controller,0,3.0,1.0,0.0,0,5,,,,,,
5881,71772.0,Note Off,0,3.0,63.0,64.0,0,5,,,,,,
5882,71808.0,Note On,0,3.0,65.0,56.0,0,5,164.0,5.0,3.0,65.0,f',56.0
5883,71808.0,Note On,0,3.0,65.0,56.0,0,5,140.0,11.0,9.0,42.0,F#,72.0
5884,71972.0,Note Off,0,3.0,65.0,56.0,0,5,,,,,,
5885,72000.0,Note On,0,3.0,65.0,73.0,0,5,84.0,3.0,1.0,37.0,C#,64.0
5886,72000.0,Note On,0,3.0,65.0,73.0,0,5,588.0,5.0,3.0,65.0,f',73.0
5887,72000.0,Note On,0,3.0,65.0,73.0,0,5,96.0,11.0,9.0,35.0,"B,",64.0
5888,72000.0,Note On,0,3.0,65.0,73.0,0,5,52.0,11.0,9.0,42.0,F#,48.0
5889,72340.0,Controller,0,3.0,1.0,1.0,0,5,,,,,,
5890,72472.0,Controller,0,3.0,1.0,2.0,0,5,,,,,,
5891,72512.0,Controller,0,3.0,1.0,4.0,0,5,,,,,,
5892,72544.0,Controller,0,3.0,1.0,7.0,0,5,,,,,,
5893,72576.0,Controller,0,3.0,1.0,10.0,0,5,120.0,11.0,9.0,42.0,F#,69.0
5894,72588.0,Note Off,0,3.0,65.0,73.0,0,5,,,,,,
5895,72616.0,Controller,0,3.0,1.0,13.0,0,5,,,,,,
5896,72668.0,Controller,0,3.0,1.0,17.0,0,5,,,,,,
5897,72704.0,Controller,0,3.0,1.0,20.0,0,5,,,,,,
5898,72728.0,Controller,0,3.0,1.0,21.0,0,5,,,,,,
5899,72768.0,Controller,0,3.0,1.0,23.0,0,5,168.0,5.0,3.0,65.0,f',64.0
5900,72768.0,Controller,0,3.0,1.0,23.0,0,5,52.0,11.0,9.0,38.0,D,55.0
5901,72768.0,Note On,0,3.0,65.0,64.0,0,5,168.0,5.0,3.0,65.0,f',64.0
5902,72768.0,Note On,0,3.0,65.0,64.0,0,5,52.0,11.0,9.0,38.0,D,55.0
5903,72796.0,Controller,0,3.0,1.0,25.0,0,5,,,,,,
5904,72832.0,Controller,0,3.0,1.0,27.0,0,5,,,,,,
5905,72896.0,Controller,0,3.0,1.0,26.0,0,5,,,,,,
5906,72920.0,Controller,0,3.0,1.0,19.0,0,5,,,,,,
5907,72936.0,Note Off,0,3.0,65.0,64.0,0,5,,,,,,
5908,72952.0,Controller,0,3.0,1.0,0.0,0,5,368.0,2.0,0.0,61.0,c#',70.0
5909,72964.0,Note On,0,3.0,66.0,82.0,0,5,328.0,5.0,3.0,66.0,f#',82.0
5910,73292.0,Note Off,0,3.0,66.0,82.0,0,5,,,,,,
5911,73344.0,Note On,0,3.0,70.0,91.0,0,5,368.0,2.0,0.0,58.0,a#,74.0
5912,73344.0,Note On,0,3.0,70.0,91.0,0,5,372.0,2.0,0.0,66.0,f#',101.0
5913,73344.0,Note On,0,3.0,70.0,91.0,0,5,340.0,5.0,3.0,70.0,a#',91.0
5914,73684.0,Note Off,0,3.0,70.0,91.0,0,5,9252.0,4.0,2.0,80.0,g#'',55.0
5915,73684.0,Note Off,0,3.0,70.0,91.0,0,5,9252.0,4.0,2.0,92.0,g#''',55.0
5916,73684.0,Note Off,0,3.0,70.0,91.0,0,5,60.0,7.0,5.0,78.0,f#'',64.0
5917,73728.0,Note On,0,3.0,68.0,82.0,0,5,540.0,2.0,0.0,56.0,g#,92.0
5918,73728.0,Note On,0,3.0,68.0,82.0,0,5,588.0,2.0,0.0,60.0,c',101.0
5919,73728.0,Note On,0,3.0,68.0,82.0,0,5,536.0,3.0,1.0,32.0,"G#,",82.0
5920,73728.0,Note On,0,3.0,68.0,82.0,0,5,1868.0,5.0,3.0,68.0,g#',82.0
5921,73728.0,Note On,0,3.0,68.0,82.0,0,5,176.0,7.0,5.0,80.0,g#'',75.0
5922,73728.0,Note On,0,3.0,68.0,82.0,0,5,96.0,11.0,9.0,35.0,"B,",82.0
5923,73728.0,Note On,0,3.0,68.0,82.0,0,5,700.0,11.0,9.0,49.0,c#,64.0
5924,73916.0,Controller,0,3.0,1.0,1.0,0,5,44.0,11.0,9.0,42.0,F#,30.0
5925,74052.0,Controller,0,3.0,1.0,2.0,0,5,,,,,,
5926,74088.0,Controller,0,3.0,1.0,5.0,0,5,,,,,,
5927,74132.0,Controller,0,3.0,1.0,7.0,0,5,,,,,,
5928,74168.0,Controller,0,3.0,1.0,9.0,0,5,,,,,,
5929,74208.0,Controller,0,3.0,1.0,11.0,0,5,,,,,,
5930,74236.0,Controller,0,3.0,1.0,12.0,0,5,,,,,,
5931,74260.0,Controller,0,3.0,1.0,13.0,0,5,,,,,,
5932,74304.0,Controller,0,3.0,1.0,16.0,0,5,216.0,2.0,0.0,61.0,c#',74.0
5933,74304.0,Controller,0,3.0,1.0,16.0,0,5,168.0,3.0,1.0,32.0,"G#,",64.0
5934,74344.0,Controller,0,3.0,1.0,17.0,0,5,,,,,,
5935,74384.0,Controller,0,3.0,1.0,19.0,0,5,,,,,,
5936,74424.0,Controller,0,3.0,1.0,21.0,0,5,,,,,,
5937,74452.0,Controller,0,3.0,1.0,22.0,0,5,,,,,,
5938,74540.0,Controller,0,3.0,1.0,23.0,0,5,,,,,,
5939,74576.0,Controller,0,3.0,1.0,24.0,0,5,,,,,,
5940,74604.0,Controller,0,3.0,1.0,25.0,0,5,,,,,,
5941,74648.0,Controller,0,3.0,1.0,26.0,0,5,,,,,,
5942,74708.0,Controller,0,3.0,1.0,27.0,0,5,,,,,,
5943,74740.0,Controller,0,3.0,1.0,28.0,0,5,,,,,,
5944,74772.0,Controller,0,3.0,1.0,29.0,0,5,,,,,,
5945,74800.0,Controller,0,3.0,1.0,30.0,0,5,,,,,,
5946,74840.0,Controller,0,3.0,1.0,31.0,0,5,,,,,,
5947,74872.0,Controller,0,3.0,1.0,32.0,0,5,,,,,,
5948,74900.0,Controller,0,3.0,1.0,33.0,0,5,,,,,,
5949,75052.0,Controller,0,3.0,1.0,32.0,0,5,,,,,,
5950,75096.0,Controller,0,3.0,1.0,31.0,0,5,,,,,,
5951,75124.0,Controller,0,3.0,1.0,30.0,0,5,,,,,,
5952,75152.0,Controller,0,3.0,1.0,29.0,0,5,,,,,,
5953,75196.0,Controller,0,3.0,1.0,27.0,0,5,,,,,,
5954,75220.0,Controller,0,3.0,1.0,25.0,0,5,,,,,,
5955,75264.0,Controller,0,3.0,1.0,23.0,0,5,1500.0,3.0,1.0,37.0,C#,82.0
5956,75264.0,Controller,0,3.0,1.0,23.0,0,5,96.0,11.0,9.0,35.0,"B,",82.0
5957,75264.0,Controller,0,3.0,1.0,23.0,0,5,108.0,11.0,9.0,42.0,F#,72.0
5958,75300.0,Controller,0,3.0,1.0,21.0,0,5,,,,,,
5959,75328.0,Controller,0,3.0,1.0,18.0,0,5,,,,,,
5960,75368.0,Controller,0,3.0,1.0,14.0,0,5,,,,,,
5961,75404.0,Controller,0,3.0,1.0,9.0,0,5,,,,,,
5962,75440.0,Controller,0,3.0,1.0,5.0,0,5,,,,,,
5963,75472.0,Controller,0,3.0,1.0,1.0,0,5,,,,,,
5964,75548.0,Controller,0,3.0,1.0,0.0,0,5,,,,,,
5965,75596.0,Note Off,0,3.0,68.0,82.0,0,5,,,,,,
5966,75832.0,Note On,0,3.0,65.0,60.0,0,5,180.0,5.0,3.0,65.0,f',60.0
5967,76012.0,Note Off,0,3.0,65.0,60.0,0,5,,,,,,
5968,76024.0,Note On,0,3.0,66.0,84.0,0,5,348.0,5.0,3.0,66.0,f#',84.0
5969,76372.0,Note Off,0,3.0,66.0,84.0,0,5,,,,,,
5970,76412.0,Note On,0,3.0,70.0,87.0,0,5,344.0,5.0,3.0,70.0,a#',87.0
5971,76756.0,Note Off,0,3.0,70.0,87.0,0,5,,,,,,
5972,76796.0,Note On,0,3.0,68.0,73.0,0,5,216.0,2.0,0.0,63.0,d#',83.0
5973,76796.0,Note On,0,3.0,68.0,73.0,0,5,392.0,2.0,0.0,68.0,g#',98.0
5974,76796.0,Note On,0,3.0,68.0,73.0,0,5,368.0,5.0,3.0,68.0,g#',73.0
5975,76812.0,Controller,0,3.0,1.0,1.0,0,5,,,,,,
5976,76876.0,Controller,0,3.0,1.0,10.0,0,5,,,,,,
5977,76912.0,Controller,0,3.0,1.0,19.0,0,5,,,,,,
5978,76956.0,Controller,0,3.0,1.0,24.0,0,5,,,,,,
5979,76992.0,Controller,0,3.0,1.0,27.0,0,5,,,,,,
5980,77032.0,Controller,0,3.0,1.0,27.0,0,5,,,,,,
5981,77060.0,Controller,0,3.0,1.0,22.0,0,5,,,,,,
5982,77096.0,Controller,0,3.0,1.0,13.0,0,5,,,,,,
5983,77132.0,Controller,0,3.0,1.0,1.0,0,5,,,,,,
5984,77164.0,Note Off,0,3.0,68.0,73.0,0,5,160.0,2.0,0.0,63.0,d#',74.0
5985,77176.0,Note On,0,3.0,63.0,73.0,0,5,160.0,5.0,3.0,63.0,d#',73.0
5986,77176.0,Controller,0,3.0,1.0,0.0,0,5,160.0,5.0,3.0,63.0,d#',73.0
5987,77336.0,Note Off,0,3.0,63.0,73.0,0,5,,,,,,
5988,77372.0,Note On,0,3.0,66.0,90.0,0,5,568.0,5.0,3.0,66.0,f#',90.0
5989,77372.0,Note On,0,3.0,66.0,90.0,0,5,52.0,11.0,9.0,42.0,F#,31.0
5990,77464.0,Controller,0,3.0,1.0,1.0,0,5,,,,,,
5991,77508.0,Controller,0,3.0,1.0,6.0,0,5,,,,,,
5992,77544.0,Controller,0,3.0,1.0,13.0,0,5,,,,,,
5993,77580.0,Controller,0,3.0,1.0,17.0,0,5,,,,,,
5994,77616.0,Controller,0,3.0,1.0,21.0,0,5,,,,,,
5995,77700.0,Controller,0,3.0,1.0,20.0,0,5,,,,,,
5996,77732.0,Controller,0,3.0,1.0,17.0,0,5,,,,,,
5997,77760.0,Controller,0,3.0,1.0,12.0,0,5,180.0,3.0,1.0,34.0,"A#,",64.0
5998,77796.0,Controller,0,3.0,1.0,7.0,0,5,,,,,,
5999,77832.0,Controller,0,3.0,1.0,1.0,0,5,,,,,,
6000,77888.0,Controller,0,3.0,1.0,0.0,0,5,,,,,,
6001,77940.0,Note Off,0,3.0,66.0,90.0,0,5,,,,,,
6002,77956.0,Note On,0,3.0,65.0,73.0,0,5,156.0,5.0,3.0,65.0,f',73.0
6003,78112.0,Note Off,0,3.0,65.0,73.0,0,5,,,,,,
6004,78148.0,Note On,0,3.0,65.0,82.0,0,5,580.0,5.0,3.0,65.0,f',82.0
6005,78240.0,Controller,0,3.0,1.0,1.0,0,5,,,,,,
6006,78336.0,Controller,0,3.0,1.0,4.0,0,5,744.0,2.0,0.0,49.0,c#,92.0
6007,78336.0,Controller,0,3.0,1.0,4.0,0,5,728.0,2.0,0.0,56.0,g#,74.0
6008,78336.0,Controller,0,3.0,1.0,4.0,0,5,712.0,3.0,1.0,37.0,C#,82.0
6009,78336.0,Controller,0,3.0,1.0,4.0,0,5,96.0,11.0,9.0,35.0,"B,",82.0
6010,78336.0,Controller,0,3.0,1.0,4.0,0,5,108.0,11.0,9.0,42.0,F#,72.0
6011,78376.0,Controller,0,3.0,1.0,8.0,0,5,,,,,,
6012,78408.0,Controller,0,3.0,1.0,11.0,0,5,,,,,,
6013,78448.0,Controller,0,3.0,1.0,14.0,0,5,,,,,,
6014,78480.0,Controller,0,3.0,1.0,17.0,0,5,,,,,,
6015,78520.0,Controller,0,3.0,1.0,20.0,0,5,,,,,,
6016,78564.0,Controller,0,3.0,1.0,22.0,0,5,,,,,,
6017,78588.0,Controller,0,3.0,1.0,23.0,0,5,,,,,,
6018,78612.0,Controller,0,3.0,1.0,24.0,0,5,,,,,,
6019,78676.0,Controller,0,3.0,1.0,21.0,0,5,,,,,,
6020,78712.0,Controller,0,3.0,1.0,1.0,0,5,,,,,,
6021,78728.0,Note Off,0,3.0,65.0,82.0,0,5,,,,,,
6022,78736.0,Controller,0,3.0,1.0,0.0,0,5,,,,,,
6023,79092.0,Note On,0,3.0,65.0,73.0,0,5,768.0,2.0,0.0,56.0,g#,74.0
6024,79092.0,Note On,0,3.0,65.0,73.0,0,5,280.0,2.0,0.0,65.0,f',101.0
6025,79092.0,Note On,0,3.0,65.0,73.0,0,5,220.0,5.0,3.0,65.0,f',73.0
6026,79312.0,Note Off,0,3.0,65.0,73.0,0,5,,,,,,
6027,79360.0,Note On,0,3.0,66.0,73.0,0,5,208.0,2.0,0.0,42.0,F#,74.0
6028,79360.0,Note On,0,3.0,66.0,73.0,0,5,224.0,5.0,3.0,66.0,f#',73.0
6029,79584.0,Note Off,0,3.0,66.0,73.0,0,5,,,,,,
6030,79624.0,Note On,0,3.0,68.0,73.0,0,5,168.0,5.0,3.0,68.0,g#',73.0
6031,79792.0,Note Off,0,3.0,68.0,73.0,0,5,,,,,,
6032,79864.0,Note On,0,3.0,72.0,73.0,0,5,740.0,2.0,0.0,42.0,F#,91.0
6033,79864.0,Note On,0,3.0,72.0,73.0,0,5,328.0,5.0,3.0,72.0,c'',73.0
6034,79896.0,Controller,0,3.0,1.0,1.0,0,5,,,,,,
6035,79920.0,Controller,0,3.0,1.0,6.0,0,5,,,,,,
6036,79956.0,Controller,0,3.0,1.0,16.0,0,5,,,,,,
6037,79992.0,Controller,0,3.0,1.0,25.0,0,5,,,,,,
6038,80028.0,Controller,0,3.0,1.0,33.0,0,5,,,,,,
6039,80064.0,Controller,0,3.0,1.0,37.0,0,5,,,,,,
6040,80128.0,Controller,0,3.0,1.0,36.0,0,5,,,,,,
6041,80160.0,Controller,0,3.0,1.0,28.0,0,5,,,,,,
6042,80192.0,Note Off,0,3.0,72.0,73.0,0,5,,,,,,
6043,80192.0,Controller,0,3.0,1.0,13.0,0,5,,,,,,
6044,80224.0,Controller,0,3.0,1.0,1.0,0,5,,,,,,
6045,80244.0,Note On,0,3.0,70.0,73.0,0,5,340.0,5.0,3.0,70.0,a#',73.0
6046,80248.0,Controller,0,3.0,1.0,0.0,0,5,,,,,,
6047,80584.0,Note Off,0,3.0,70.0,73.0,0,5,,,,,,
6048,80632.0,Note On,0,3.0,68.0,64.0,0,5,724.0,2.0,0.0,41.0,F,92.0
6049,80632.0,Note On,0,3.0,68.0,64.0,0,5,208.0,2.0,0.0,61.0,c#',91.0
6050,80632.0,Note On,0,3.0,68.0,64.0,0,5,412.0,2.0,0.0,68.0,g#',97.0
6051,80632.0,Note On,0,3.0,68.0,64.0,0,5,396.0,5.0,3.0,68.0,g#',64.0
6052,80636.0,Controller,0,3.0,1.0,1.0,0,5,,,,,,
6053,80676.0,Controller,0,3.0,1.0,6.0,0,5,,,,,,
6054,80712.0,Controller,0,3.0,1.0,16.0,0,5,,,,,,
6055,80752.0,Controller,0,3.0,1.0,26.0,0,5,,,,,,
6056,80788.0,Controller,0,3.0,1.0,36.0,0,5,,,,,,
6057,80824.0,Controller,0,3.0,1.0,43.0,0,5,,,,,,
6058,80856.0,Controller,0,3.0,1.0,50.0,0,5,,,,,,
6059,80892.0,Controller,0,3.0,1.0,55.0,0,5,,,,,,
6060,80928.0,Controller,0,3.0,1.0,59.0,0,5,,,,,,
6061,80968.0,Controller,0,3.0,1.0,61.0,0,5,,,,,,
6062,81004.0,Controller,0,3.0,1.0,55.0,0,5,,,,,,
6063,81028.0,Note Off,0,3.0,68.0,64.0,0,5,,,,,,
6064,81036.0,Controller,0,3.0,1.0,34.0,0,5,,,,,,
6065,81072.0,Controller,0,3.0,1.0,14.0,0,5,,,,,,
6066,81108.0,Controller,0,3.0,1.0,1.0,0,5,,,,,,
6067,81136.0,Controller,0,3.0,1.0,0.0,0,5,,,,,,
6068,81220.0,Note On,0,3.0,61.0,64.0,0,5,192.0,5.0,3.0,61.0,c#',64.0
6069,81412.0,Note Off,0,3.0,61.0,64.0,0,5,,,,,,
6070,81416.0,Note On,0,3.0,72.0,73.0,0,5,308.0,5.0,3.0,72.0,c'',73.0
6071,81452.0,Controller,0,3.0,1.0,11.0,0,5,,,,,,
6072,81488.0,Controller,0,3.0,1.0,26.0,0,5,,,,,,
6073,81524.0,Controller,0,3.0,1.0,36.0,0,5,,,,,,
6074,81556.0,Controller,0,3.0,1.0,42.0,0,5,,,,,,
6075,81624.0,Controller,0,3.0,1.0,40.0,0,5,,,,,,
6076,81648.0,Controller,0,3.0,1.0,30.0,0,5,,,,,,
6077,81684.0,Controller,0,3.0,1.0,15.0,0,5,,,,,,
6078,81720.0,Controller,0,3.0,1.0,1.0,0,5,,,,,,
6079,81724.0,Note Off,0,3.0,72.0,73.0,0,5,,,,,,
6080,81744.0,Controller,0,3.0,1.0,0.0,0,5,,,,,,
6081,81788.0,Note On,0,3.0,73.0,64.0,0,5,176.0,5.0,3.0,73.0,c#'',64.0
6082,81964.0,Note Off,0,3.0,73.0,64.0,0,5,,,,,,
6083,81992.0,Note On,0,3.0,68.0,73.0,0,5,552.0,5.0,3.0,68.0,g#',73.0
6084,82012.0,Controller,0,3.0,1.0,1.0,0,5,,,,,,
6085,82044.0,Controller,0,3.0,1.0,5.0,0,5,,,,,,
6086,82080.0,Controller,0,3.0,1.0,12.0,0,5,,,,,,
6087,82120.0,Controller,0,3.0,1.0,18.0,0,5,,,,,,
6088,82152.0,Controller,0,3.0,1.0,23.0,0,5,,,,,,
6089,82188.0,Controller,0,3.0,1.0,29.0,0,5,,,,,,
6090,82228.0,Controller,0,3.0,1.0,35.0,0,5,,,,,,
6091,82268.0,Controller,0,3.0,1.0,38.0,0,5,,,,,,
6092,82296.0,Controller,0,3.0,1.0,41.0,0,5,,,,,,
6093,82320.0,Controller,0,3.0,1.0,42.0,0,5,,,,,,
6094,82348.0,Controller,0,3.0,1.0,43.0,0,5,228.0,2.0,0.0,61.0,c#',62.0
6095,82376.0,Controller,0,3.0,1.0,44.0,0,5,,,,,,
6096,82424.0,Controller,0,3.0,1.0,40.0,0,5,,,,,,
6097,82460.0,Controller,0,3.0,1.0,24.0,0,5,,,,,,
6098,82492.0,Controller,0,3.0,1.0,0.0,0,5,,,,,,
6099,82544.0,Note Off,0,3.0,68.0,73.0,0,5,,,,,,
6100,82748.0,Note On,0,3.0,61.0,52.0,0,5,196.0,5.0,3.0,61.0,c#',52.0
6101,82748.0,Note On,0,3.0,61.0,52.0,0,5,56.0,11.0,9.0,42.0,F#,31.0
6102,82944.0,Note Off,0,3.0,61.0,52.0,0,5,752.0,3.0,1.0,34.0,"A#,",82.0
6103,82944.0,Note Off,0,3.0,61.0,52.0,0,5,372.0,5.0,3.0,65.0,f',75.0
6104,82944.0,Note Off,0,3.0,61.0,52.0,0,5,96.0,11.0,9.0,35.0,"B,",82.0
6105,82944.0,Note Off,0,3.0,61.0,52.0,0,5,108.0,11.0,9.0,42.0,F#,72.0
6106,82944.0,Note On,0,3.0,65.0,75.0,0,5,752.0,3.0,1.0,34.0,"A#,",82.0
6107,82944.0,Note On,0,3.0,65.0,75.0,0,5,372.0,5.0,3.0,65.0,f',75.0
6108,82944.0,Note On,0,3.0,65.0,75.0,0,5,96.0,11.0,9.0,35.0,"B,",82.0
6109,82944.0,Note On,0,3.0,65.0,75.0,0,5,108.0,11.0,9.0,42.0,F#,72.0
6110,82988.0,Controller,0,3.0,1.0,1.0,0,5,,,,,,
6111,83020.0,Controller,0,3.0,1.0,3.0,0,5,,,,,,
6112,83056.0,Controller,0,3.0,1.0,9.0,0,5,,,,,,
6113,83088.0,Controller,0,3.0,1.0,13.0,0,5,,,,,,
6114,83156.0,Controller,0,3.0,1.0,12.0,0,5,,,,,,
6115,83184.0,Controller,0,3.0,1.0,8.0,0,5,,,,,,
6116,83212.0,Controller,0,3.0,1.0,1.0,0,5,,,,,,
6117,83268.0,Controller,0,3.0,1.0,0.0,0,5,,,,,,
6118,83316.0,Note Off,0,3.0,65.0,75.0,0,5,,,,,,
6119,83324.0,Note On,0,3.0,63.0,60.0,0,5,160.0,5.0,3.0,63.0,d#',60.0
6120,83484.0,Note Off,0,3.0,63.0,60.0,0,5,,,,,,
6121,83512.0,Note On,0,3.0,61.0,73.0,0,5,604.0,5.0,3.0,61.0,c#',73.0
6122,83584.0,Controller,0,3.0,1.0,1.0,0,5,,,,,,
6123,83628.0,Controller,0,3.0,1.0,7.0,0,5,,,,,,
6124,83664.0,Controller,0,3.0,1.0,13.0,0,5,,,,,,
6125,83704.0,Controller,0,3.0,1.0,18.0,0,5,,,,,,
6126,83736.0,Controller,0,3.0,1.0,22.0,0,5,,,,,,
6127,83784.0,Controller,0,3.0,1.0,24.0,0,5,,,,,,
6128,83852.0,Controller,0,3.0,1.0,23.0,0,5,,,,,,
6129,83880.0,Controller,0,3.0,1.0,20.0,0,5,,,,,,
6130,83916.0,Controller,0,3.0,1.0,13.0,0,5,,,,,,
6131,83952.0,Controller,0,3.0,1.0,7.0,0,5,,,,,,
6132,83988.0,Controller,0,3.0,1.0,1.0,0,5,,,,,,
6133,84048.0,Controller,0,3.0,1.0,0.0,0,5,,,,,,
6134,84092.0,Note On,0,3.0,65.0,56.0,0,5,176.0,5.0,3.0,65.0,f',56.0
6135,84116.0,Note Off,0,3.0,61.0,73.0,0,5,,,,,,
6136,84268.0,Note Off,0,3.0,65.0,56.0,0,5,,,,,,
6137,84284.0,Note On,0,3.0,66.0,69.0,0,5,552.0,5.0,3.0,66.0,f#',69.0
6138,84560.0,Controller,0,3.0,1.0,1.0,0,5,,,,,,
6139,84604.0,Controller,0,3.0,1.0,8.0,0,5,,,,,,
6140,84640.0,Controller,0,3.0,1.0,13.0,0,5,,,,,,
6141,84672.0,Controller,0,3.0,1.0,21.0,0,5,,,,,,
6142,84708.0,Controller,0,3.0,1.0,24.0,0,5,,,,,,
6143,84732.0,Controller,0,3.0,1.0,25.0,0,5,,,,,,
6144,84800.0,Controller,0,3.0,1.0,20.0,0,5,,,,,,
6145,84836.0,Note Off,0,3.0,66.0,69.0,0,5,,,,,,
6146,84836.0,Controller,0,3.0,1.0,12.0,0,5,,,,,,
6147,84860.0,Note On,0,3.0,65.0,56.0,0,5,368.0,5.0,3.0,65.0,f',56.0
6148,84872.0,Controller,0,3.0,1.0,1.0,0,5,,,,,,
6149,84908.0,Controller,0,3.0,1.0,0.0,0,5,,,,,,
6150,85156.0,Controller,0,3.0,1.0,1.0,0,5,,,,,,
6151,85216.0,Controller,0,3.0,1.0,3.0,0,5,,,,,,
6152,85228.0,Note Off,0,3.0,65.0,56.0,0,5,,,,,,
6153,85248.0,Note On,0,3.0,66.0,87.0,0,5,172.0,2.0,0.0,44.0,G#,83.0
6154,85248.0,Note On,0,3.0,66.0,87.0,0,5,148.0,3.0,1.0,32.0,"G#,",73.0
6155,85248.0,Note On,0,3.0,66.0,87.0,0,5,376.0,5.0,3.0,66.0,f#',87.0
6156,85248.0,Note On,0,3.0,66.0,87.0,0,5,188.0,11.0,9.0,38.0,D,81.0
6157,85248.0,Note On,0,3.0,66.0,87.0,0,5,96.0,11.0,9.0,54.0,f#,91.0
6158,85248.0,Controller,0,3.0,1.0,10.0,0,5,172.0,2.0,0.0,44.0,G#,83.0
6159,85248.0,Controller,0,3.0,1.0,10.0,0,5,148.0,3.0,1.0,32.0,"G#,",73.0
6160,85248.0,Controller,0,3.0,1.0,10.0,0,5,376.0,5.0,3.0,66.0,f#',87.0
6161,85248.0,Controller,0,3.0,1.0,10.0,0,5,188.0,11.0,9.0,38.0,D,81.0
6162,85248.0,Controller,0,3.0,1.0,10.0,0,5,96.0,11.0,9.0,54.0,f#,91.0
6163,85284.0,Controller,0,3.0,1.0,14.0,0,5,,,,,,
6164,85308.0,Controller,0,3.0,1.0,17.0,0,5,,,,,,
6165,85340.0,Controller,0,3.0,1.0,21.0,0,5,,,,,,
6166,85368.0,Controller,0,3.0,1.0,22.0,0,5,,,,,,
6167,85400.0,Controller,0,3.0,1.0,25.0,0,5,,,,,,
6168,85432.0,Controller,0,3.0,1.0,27.0,0,5,,,,,,
6169,85464.0,Controller,0,3.0,1.0,29.0,0,5,56.0,7.0,5.0,53.0,f,31.0
6170,85536.0,Controller,0,3.0,1.0,26.0,0,5,,,,,,
6171,85572.0,Controller,0,3.0,1.0,16.0,0,5,,,,,,
6172,85608.0,Controller,0,3.0,1.0,0.0,0,5,,,,,,
6173,85624.0,Note Off,0,3.0,66.0,87.0,0,5,52.0,7.0,5.0,60.0,c',43.0
6174,85624.0,Note Off,0,3.0,66.0,87.0,0,5,188.0,11.0,9.0,45.0,A,91.0
6175,85632.0,Note On,0,3.0,70.0,82.0,0,5,172.0,3.0,1.0,37.0,C#,82.0
6176,85632.0,Note On,0,3.0,70.0,82.0,0,5,332.0,5.0,3.0,70.0,a#',82.0
6177,85964.0,Note Off,0,3.0,70.0,82.0,0,5,,,,,,
6178,86008.0,Note On,0,3.0,68.0,73.0,0,5,1592.0,5.0,3.0,68.0,g#',73.0
6179,86128.0,Controller,0,3.0,1.0,1.0,0,5,,,,,,
6180,86248.0,Controller,0,3.0,1.0,2.0,0,5,,,,,,
6181,86284.0,Controller,0,3.0,1.0,4.0,0,5,,,,,,
6182,86308.0,Controller,0,3.0,1.0,7.0,0,5,,,,,,
6183,86364.0,Controller,0,3.0,1.0,9.0,0,5,,,,,,
6184,86388.0,Controller,0,3.0,1.0,10.0,0,5,,,,,,
6185,86420.0,Controller,0,3.0,1.0,11.0,0,5,,,,,,
6186,86448.0,Controller,0,3.0,1.0,12.0,0,5,,,,,,
6187,86472.0,Controller,0,3.0,1.0,13.0,0,5,,,,,,
6188,86520.0,Controller,0,3.0,1.0,15.0,0,5,,,,,,
6189,86544.0,Controller,0,3.0,1.0,16.0,0,5,,,,,,
6190,86572.0,Controller,0,3.0,1.0,17.0,0,5,,,,,,
6191,86696.0,Controller,0,3.0,1.0,18.0,0,5,,,,,,
6192,86760.0,Controller,0,3.0,1.0,19.0,0,5,,,,,,
6193,86836.0,Controller,0,3.0,1.0,20.0,0,5,,,,,,
6194,87044.0,Controller,0,3.0,1.0,19.0,0,5,,,,,,
6195,87068.0,Controller,0,3.0,1.0,16.0,0,5,,,,,,
6196,87100.0,Controller,0,3.0,1.0,15.0,0,5,,,,,,
6197,87132.0,Controller,0,3.0,1.0,14.0,0,5,,,,,,
6198,87188.0,Controller,0,3.0,1.0,12.0,0,5,,,,,,
6199,87220.0,Controller,0,3.0,1.0,10.0,0,5,,,,,,
6200,87244.0,Controller,0,3.0,1.0,7.0,0,5,,,,,,
6201,87284.0,Controller,0,3.0,1.0,1.0,0,5,,,,,,
6202,87392.0,Controller,0,3.0,1.0,0.0,0,5,,,,,,
6203,87600.0,Note Off,0,3.0,68.0,73.0,0,5,,,,,,
6204,88116.0,Note On,0,3.0,65.0,73.0,0,5,568.0,2.0,0.0,68.0,g#',74.0
6205,88116.0,Note On,0,3.0,65.0,73.0,0,5,168.0,5.0,3.0,65.0,f',73.0
6206,88284.0,Note Off,0,3.0,65.0,73.0,0,5,,,,,,
6207,88316.0,Note On,0,3.0,66.0,82.0,0,5,356.0,5.0,3.0,66.0,f#',82.0
6208,88672.0,Note Off,0,3.0,66.0,82.0,0,5,,,,,,
6209,88704.0,Note On,0,3.0,70.0,82.0,0,5,348.0,3.0,1.0,37.0,C#,82.0
6210,88704.0,Note On,0,3.0,70.0,82.0,0,5,328.0,5.0,3.0,70.0,a#',82.0
6211,88704.0,Note On,0,3.0,70.0,82.0,0,5,140.0,11.0,9.0,42.0,F#,72.0
6212,89032.0,Note Off,0,3.0,70.0,82.0,0,5,,,,,,
6213,89076.0,Note On,0,3.0,68.0,73.0,0,5,372.0,5.0,3.0,68.0,g#',73.0
6214,89108.0,Controller,0,3.0,1.0,1.0,0,5,,,,,,
6215,89152.0,Controller,0,3.0,1.0,11.0,0,5,,,,,,
6216,89176.0,Controller,0,3.0,1.0,13.0,0,5,,,,,,
6217,89208.0,Controller,0,3.0,1.0,21.0,0,5,,,,,,
6218,89244.0,Controller,0,3.0,1.0,24.0,0,5,,,,,,
6219,89284.0,Controller,0,3.0,1.0,26.0,0,5,,,,,,
6220,89332.0,Controller,0,3.0,1.0,23.0,0,5,,,,,,
6221,89372.0,Controller,0,3.0,1.0,13.0,0,5,,,,,,
6222,89404.0,Controller,0,3.0,1.0,1.0,0,5,,,,,,
6223,89444.0,Controller,0,3.0,1.0,0.0,0,5,,,,,,
6224,89448.0,Note Off,0,3.0,68.0,73.0,0,5,,,,,,
6225,89464.0,Note On,0,3.0,63.0,66.0,0,5,148.0,5.0,3.0,63.0,d#',66.0
6226,89612.0,Note Off,0,3.0,63.0,66.0,0,5,,,,,,
6227,89656.0,Note On,0,3.0,66.0,73.0,0,5,388.0,2.0,0.0,63.0,d#',92.0
6228,89656.0,Note On,0,3.0,66.0,73.0,0,5,380.0,2.0,0.0,66.0,f#',91.0
6229,89656.0,Note On,0,3.0,66.0,73.0,0,5,576.0,5.0,3.0,66.0,f#',73.0
6230,89752.0,Controller,0,3.0,1.0,1.0,0,5,,,,,,
6231,89800.0,Controller,0,3.0,1.0,8.0,0,5,,,,,,
6232,89836.0,Controller,0,3.0,1.0,14.0,0,5,,,,,,
6233,89876.0,Controller,0,3.0,1.0,20.0,0,5,,,,,,
6234,89912.0,Controller,0,3.0,1.0,29.0,0,5,,,,,,
6235,89948.0,Controller,0,3.0,1.0,32.0,0,5,,,,,,
6236,89996.0,Controller,0,3.0,1.0,31.0,0,5,,,,,,
6237,90024.0,Controller,0,3.0,1.0,27.0,0,5,,,,,,
6238,90056.0,Controller,0,3.0,1.0,20.0,0,5,,,,,,
6239,90088.0,Controller,0,3.0,1.0,9.0,0,5,,,,,,
6240,90128.0,Controller,0,3.0,1.0,1.0,0,5,,,,,,
6241,90156.0,Controller,0,3.0,1.0,0.0,0,5,,,,,,
6242,90228.0,Note On,0,3.0,65.0,64.0,0,5,172.0,5.0,3.0,65.0,f',64.0
6243,90232.0,Note Off,0,3.0,66.0,73.0,0,5,380.0,2.0,0.0,57.0,a,66.0
6244,90400.0,Note Off,0,3.0,65.0,64.0,0,5,,,,,,
6245,90428.0,Note On,0,3.0,65.0,66.0,0,5,596.0,5.0,3.0,65.0,f',66.0
6246,90464.0,Controller,0,3.0,1.0,1.0,0,5,,,,,,
6247,90540.0,Controller,0,3.0,1.0,5.0,0,5,,,,,,
6248,90564.0,Controller,0,3.0,1.0,7.0,0,5,,,,,,
6249,90592.0,Controller,0,3.0,1.0,11.0,0,5,,,,,,
6250,90628.0,Controller,0,3.0,1.0,16.0,0,5,,,,,,
6251,90652.0,Controller,0,3.0,1.0,18.0,0,5,,,,,,
6252,90684.0,Controller,0,3.0,1.0,21.0,0,5,,,,,,
6253,90724.0,Controller,0,3.0,1.0,23.0,0,5,,,,,,
6254,90760.0,Controller,0,3.0,1.0,26.0,0,5,,,,,,
6255,90796.0,Controller,0,3.0,1.0,30.0,0,5,,,,,,
6256,90832.0,Controller,0,3.0,1.0,34.0,0,5,,,,,,
6257,90868.0,Controller,0,3.0,1.0,38.0,0,5,,,,,,
6258,90928.0,Controller,0,3.0,1.0,36.0,0,5,,,,,,
6259,90956.0,Controller,0,3.0,1.0,21.0,0,5,,,,,,
6260,90992.0,Controller,0,3.0,1.0,0.0,0,5,348.0,2.0,0.0,61.0,c#',74.0
6261,91024.0,Note Off,0,3.0,65.0,66.0,0,5,,,,,,
6262,91388.0,Note On,0,3.0,65.0,73.0,0,5,216.0,5.0,3.0,65.0,f',73.0
6263,91604.0,Note Off,0,3.0,65.0,73.0,0,5,,,,,,
6264,91648.0,Note On,0,3.0,66.0,73.0,0,5,208.0,5.0,3.0,66.0,f#',73.0
6265,91856.0,Note Off,0,3.0,66.0,73.0,0,5,,,,,,
6266,91900.0,Note On,0,3.0,68.0,73.0,0,5,260.0,2.0,0.0,68.0,g#',97.0
6267,91900.0,Note On,0,3.0,68.0,73.0,0,5,200.0,5.0,3.0,68.0,g#',73.0
6268,92100.0,Note Off,0,3.0,68.0,73.0,0,5,,,,,,
6269,92144.0,Note On,0,3.0,72.0,82.0,0,5,356.0,5.0,3.0,72.0,c'',82.0
6270,92156.0,Controller,0,3.0,1.0,1.0,0,5,200.0,2.0,0.0,63.0,d#',92.0
6271,92156.0,Controller,0,3.0,1.0,1.0,0,5,772.0,2.0,0.0,72.0,c'',99.0
6272,92180.0,Controller,0,3.0,1.0,9.0,0,5,,,,,,
6273,92212.0,Controller,0,3.0,1.0,17.0,0,5,,,,,,
6274,92252.0,Controller,0,3.0,1.0,24.0,0,5,,,,,,
6275,92288.0,Controller,0,3.0,1.0,28.0,0,5,,,,,,
6276,92356.0,Controller,0,3.0,1.0,22.0,0,5,,,,,,
6277,92380.0,Controller,0,3.0,1.0,18.0,0,5,,,,,,
6278,92412.0,Controller,0,3.0,1.0,11.0,0,5,,,,,,
6279,92448.0,Controller,0,3.0,1.0,1.0,0,5,,,,,,
6280,92492.0,Controller,0,3.0,1.0,0.0,0,5,,,,,,
6281,92500.0,Note Off,0,3.0,72.0,82.0,0,5,,,,,,
6282,92528.0,Note On,0,3.0,70.0,64.0,0,5,400.0,2.0,0.0,63.0,d#',76.0
6283,92528.0,Note On,0,3.0,70.0,64.0,0,5,168.0,5.0,3.0,70.0,a#',64.0
6284,92696.0,Note Off,0,3.0,70.0,64.0,0,5,,,,,,
6285,92720.0,Note On,0,3.0,68.0,73.0,0,5,572.0,5.0,3.0,68.0,g#',73.0
6286,92776.0,Controller,0,3.0,1.0,1.0,0,5,,,,,,
6287,92844.0,Controller,0,3.0,1.0,8.0,0,5,,,,,,
6288,92880.0,Controller,0,3.0,1.0,13.0,0,5,,,,,,
6289,92920.0,Controller,0,3.0,1.0,18.0,0,5,724.0,2.0,0.0,41.0,F,92.0
6290,92920.0,Controller,0,3.0,1.0,18.0,0,5,208.0,2.0,0.0,61.0,c#',91.0
6291,92920.0,Controller,0,3.0,1.0,18.0,0,5,412.0,2.0,0.0,68.0,g#',97.0
6292,92952.0,Controller,0,3.0,1.0,22.0,0,5,,,,,,
6293,92988.0,Controller,0,3.0,1.0,26.0,0,5,,,,,,
6294,93016.0,Controller,0,3.0,1.0,27.0,0,5,,,,,,
6295,93044.0,Controller,0,3.0,1.0,30.0,0,5,,,,,,
6296,93084.0,Controller,0,3.0,1.0,31.0,0,5,,,,,,
6297,93172.0,Controller,0,3.0,1.0,24.0,0,5,,,,,,
6298,93204.0,Controller,0,3.0,1.0,10.0,0,5,,,,,,
6299,93240.0,Controller,0,3.0,1.0,0.0,0,5,,,,,,
6300,93292.0,Note Off,0,3.0,68.0,73.0,0,5,,,,,,
6301,93508.0,Note On,0,3.0,61.0,60.0,0,5,176.0,5.0,3.0,61.0,c#',60.0
6302,93684.0,Note Off,0,3.0,61.0,60.0,0,5,,,,,,
6303,93692.0,Note On,0,3.0,72.0,82.0,0,5,692.0,2.0,0.0,42.0,F#,94.0
6304,93692.0,Note On,0,3.0,72.0,82.0,0,5,340.0,5.0,3.0,72.0,c'',82.0
6305,93732.0,Controller,0,3.0,1.0,1.0,0,5,,,,,,
6306,93780.0,Controller,0,3.0,1.0,1.0,0,5,,,,,,
6307,93808.0,Controller,0,3.0,1.0,0.0,0,5,,,,,,
6308,93988.0,Controller,0,3.0,1.0,1.0,0,5,,,,,,
6309,94032.0,Note Off,0,3.0,72.0,82.0,0,5,,,,,,
6310,94060.0,Controller,0,3.0,1.0,2.0,0,5,,,,,,
6311,94072.0,Note On,0,3.0,73.0,73.0,0,5,200.0,5.0,3.0,73.0,c#'',73.0
6312,94084.0,Controller,0,3.0,1.0,8.0,0,5,,,,,,
6313,94140.0,Controller,0,3.0,1.0,1.0,0,5,,,,,,
6314,94172.0,Controller,0,3.0,1.0,0.0,0,5,,,,,,
6315,94272.0,Note Off,0,3.0,73.0,73.0,0,5,152.0,3.0,1.0,34.0,"A#,",64.0
6316,94272.0,Note Off,0,3.0,73.0,73.0,0,5,656.0,5.0,3.0,68.0,g#',64.0
6317,94272.0,Note On,0,3.0,68.0,64.0,0,5,152.0,3.0,1.0,34.0,"A#,",64.0
6318,94272.0,Note On,0,3.0,68.0,64.0,0,5,656.0,5.0,3.0,68.0,g#',64.0
6319,94372.0,Controller,0,3.0,1.0,1.0,0,5,,,,,,
6320,94428.0,Controller,0,3.0,1.0,4.0,0,5,,,,,,
6321,94468.0,Controller,0,3.0,1.0,9.0,0,5,,,,,,
6322,94504.0,Controller,0,3.0,1.0,12.0,0,5,,,,,,
6323,94528.0,Controller,0,3.0,1.0,13.0,0,5,,,,,,
6324,94556.0,Controller,0,3.0,1.0,16.0,0,5,,,,,,
6325,94592.0,Controller,0,3.0,1.0,19.0,0,5,,,,,,
6326,94624.0,Controller,0,3.0,1.0,22.0,0,5,,,,,,
6327,94652.0,Controller,0,3.0,1.0,23.0,0,5,56.0,11.0,9.0,42.0,F#,23.0
6328,94688.0,Controller,0,3.0,1.0,26.0,0,5,,,,,,
6329,94724.0,Controller,0,3.0,1.0,28.0,0,5,,,,,,
6330,94752.0,Controller,0,3.0,1.0,30.0,0,5,,,,,,
6331,94788.0,Controller,0,3.0,1.0,18.0,0,5,,,,,,
6332,94828.0,Controller,0,3.0,1.0,0.0,0,5,,,,,,
6333,94928.0,Note Off,0,3.0,68.0,64.0,0,5,,,,,,
6334,95216.0,Note On,0,3.0,65.0,73.0,0,5,792.0,2.0,0.0,46.0,A#,83.0
6335,95216.0,Note On,0,3.0,65.0,73.0,0,5,776.0,4.0,2.0,73.0,c#'',52.0
6336,95216.0,Note On,0,3.0,65.0,73.0,0,5,352.0,5.0,3.0,65.0,f',73.0
6337,95272.0,Controller,0,3.0,1.0,8.0,0,5,,,,,,
6338,95296.0,Controller,0,3.0,1.0,13.0,0,5,,,,,,
6339,95328.0,Controller,0,3.0,1.0,20.0,0,5,,,,,,
6340,95368.0,Controller,0,3.0,1.0,26.0,0,5,,,,,,
6341,95436.0,Controller,0,3.0,1.0,15.0,0,5,,,,,,
6342,95472.0,Controller,0,3.0,1.0,1.0,0,5,,,,,,
6343,95500.0,Controller,0,3.0,1.0,0.0,0,5,,,,,,
6344,95568.0,Note Off,0,3.0,65.0,73.0,0,5,,,,,,
6345,95612.0,Note On,0,3.0,70.0,64.0,0,5,340.0,5.0,3.0,70.0,a#',64.0
6346,95680.0,Controller,0,3.0,1.0,4.0,0,5,,,,,,
6347,95708.0,Controller,0,3.0,1.0,19.0,0,5,,,,,,
6348,95744.0,Controller,0,3.0,1.0,28.0,0,5,,,,,,
6349,95796.0,Controller,0,3.0,1.0,22.0,0,5,,,,,,
6350,95836.0,Controller,0,3.0,1.0,3.0,0,5,,,,,,
6351,95872.0,Controller,0,3.0,1.0,0.0,0,5,,,,,,
6352,95952.0,Note Off,0,3.0,70.0,64.0,0,5,,,,,,
6353,95996.0,Note On,0,3.0,61.0,60.0,0,5,756.0,2.0,0.0,39.0,D#,92.0
6354,95996.0,Note On,0,3.0,61.0,60.0,0,5,368.0,5.0,3.0,61.0,c#',60.0
6355,95996.0,Controller,0,3.0,1.0,1.0,0,5,756.0,2.0,0.0,39.0,D#,92.0
6356,95996.0,Controller,0,3.0,1.0,1.0,0,5,368.0,5.0,3.0,61.0,c#',60.0
6357,96028.0,Controller,0,3.0,1.0,6.0,0,5,,,,,,
6358,96068.0,Controller,0,3.0,1.0,16.0,0,5,,,,,,
6359,96092.0,Controller,0,3.0,1.0,19.0,0,5,,,,,,
6360,96120.0,Controller,0,3.0,1.0,30.0,0,5,,,,,,
6361,96156.0,Controller,0,3.0,1.0,38.0,0,5,,,,,,
6362,96192.0,Controller,0,3.0,1.0,43.0,0,5,,,,,,
6363,96248.0,Controller,0,3.0,1.0,41.0,0,5,,,,,,
6364,96280.0,Controller,0,3.0,1.0,30.0,0,5,,,,,,
6365,96320.0,Controller,0,3.0,1.0,14.0,0,5,,,,,,
6366,96356.0,Controller,0,3.0,1.0,1.0,0,5,,,,,,
6367,96364.0,Note Off,0,3.0,61.0,60.0,0,5,,,,,,
6368,96376.0,Note On,0,3.0,63.0,64.0,0,5,164.0,5.0,3.0,63.0,d#',64.0
6369,96384.0,Controller,0,3.0,1.0,0.0,0,5,364.0,2.0,0.0,55.0,g,83.0
6370,96384.0,Controller,0,3.0,1.0,0.0,0,5,140.0,11.0,9.0,42.0,F#,72.0
6371,96540.0,Note Off,0,3.0,63.0,64.0,0,5,,,,,,
6372,96568.0,Note On,0,3.0,65.0,73.0,0,5,148.0,5.0,3.0,65.0,f',73.0
6373,96716.0,Note Off,0,3.0,65.0,73.0,0,5,,,,,,
6374,96764.0,Note On,0,3.0,66.0,73.0,0,5,336.0,5.0,3.0,66.0,f#',73.0
6375,96804.0,Controller,0,3.0,1.0,1.0,0,5,,,,,,
6376,96840.0,Controller,0,3.0,1.0,11.0,0,5,,,,,,
6377,96880.0,Controller,0,3.0,1.0,21.0,0,5,,,,,,
6378,96912.0,Controller,0,3.0,1.0,26.0,0,5,,,,,,
6379,96952.0,Controller,0,3.0,1.0,29.0,0,5,,,,,,
6380,97008.0,Controller,0,3.0,1.0,24.0,0,5,,,,,,
6381,97040.0,Controller,0,3.0,1.0,11.0,0,5,,,,,,
6382,97072.0,Controller,0,3.0,1.0,1.0,0,5,,,,,,
6383,97100.0,Note Off,0,3.0,66.0,73.0,0,5,,,,,,
6384,97100.0,Controller,0,3.0,1.0,0.0,0,5,,,,,,
6385,97136.0,Note On,0,3.0,65.0,73.0,0,5,388.0,5.0,3.0,65.0,f',73.0
6386,97208.0,Controller,0,3.0,1.0,1.0,0,5,,,,,,
6387,97252.0,Controller,0,3.0,1.0,11.0,0,5,,,,,,
6388,97288.0,Controller,0,3.0,1.0,21.0,0,5,,,,,,
6389,97316.0,Controller,0,3.0,1.0,22.0,0,5,,,,,,
6390,97344.0,Controller,0,3.0,1.0,26.0,0,5,164.0,3.0,1.0,35.0,"B,",64.0
6391,97344.0,Controller,0,3.0,1.0,26.0,0,5,96.0,11.0,9.0,35.0,"B,",78.0
6392,97376.0,Controller,0,3.0,1.0,27.0,0,5,,,,,,
6393,97432.0,Controller,0,3.0,1.0,20.0,0,5,,,,,,
6394,97468.0,Controller,0,3.0,1.0,1.0,0,5,,,,,,
6395,97504.0,Controller,0,3.0,1.0,0.0,0,5,,,,,,
6396,97524.0,Note Off,0,3.0,65.0,73.0,0,5,,,,,,
6397,97540.0,Note On,0,3.0,63.0,73.0,0,5,376.0,5.0,3.0,63.0,d#',73.0
6398,97604.0,Controller,0,3.0,1.0,1.0,0,5,72.0,7.0,5.0,65.0,f',58.0
6399,97652.0,Controller,0,3.0,1.0,9.0,0,5,72.0,7.0,5.0,63.0,d#',55.0
6400,97688.0,Controller,0,3.0,1.0,20.0,0,5,,,,,,
6401,97720.0,Controller,0,3.0,1.0,29.0,0,5,,,,,,
6402,97756.0,Controller,0,3.0,1.0,33.0,0,5,,,,,,
6403,97808.0,Controller,0,3.0,1.0,32.0,0,5,,,,,,
6404,97832.0,Controller,0,3.0,1.0,23.0,0,5,,,,,,
6405,97868.0,Controller,0,3.0,1.0,1.0,0,5,,,,,,
6406,97896.0,Controller,0,3.0,1.0,0.0,0,5,,,,,,
6407,97916.0,Note Off,0,3.0,63.0,73.0,0,5,,,,,,
6408,97920.0,Note On,0,3.0,61.0,73.0,0,5,344.0,3.0,1.0,32.0,"G#,",82.0
6409,97920.0,Note On,0,3.0,61.0,73.0,0,5,340.0,5.0,3.0,61.0,c#',73.0
6410,97920.0,Note On,0,3.0,61.0,73.0,0,5,56.0,6.0,4.0,57.0,a,109.0
6411,97920.0,Note On,0,3.0,61.0,73.0,0,5,80.0,11.0,9.0,38.0,D,81.0
6412,98260.0,Note Off,0,3.0,61.0,73.0,0,5,,,,,,
6413,98300.0,Note On,0,3.0,61.0,82.0,0,5,780.0,5.0,3.0,61.0,c#',82.0
6414,98412.0,Controller,0,3.0,1.0,1.0,0,5,,,,,,
6415,98484.0,Controller,0,3.0,1.0,3.0,0,5,,,,,,
6416,98512.0,Controller,0,3.0,1.0,8.0,0,5,,,,,,
6417,98548.0,Controller,0,3.0,1.0,11.0,0,5,,,,,,
6418,98592.0,Controller,0,3.0,1.0,13.0,0,5,,,,,,
6419,98632.0,Controller,0,3.0,1.0,15.0,0,5,,,,,,
6420,98656.0,Controller,0,3.0,1.0,17.0,0,5,,,,,,
6421,98696.0,Controller,0,3.0,1.0,19.0,0,5,,,,,,
6422,98724.0,Controller,0,3.0,1.0,20.0,0,5,,,,,,
6423,98760.0,Controller,0,3.0,1.0,22.0,0,5,,,,,,
6424,98784.0,Controller,0,3.0,1.0,26.0,0,5,,,,,,
6425,98824.0,Controller,0,3.0,1.0,31.0,0,5,,,,,,
6426,98856.0,Controller,0,3.0,1.0,34.0,0,5,,,,,,
6427,98896.0,Controller,0,3.0,1.0,38.0,0,5,,,,,,
6428,98928.0,Controller,0,3.0,1.0,41.0,0,5,,,,,,
6429,98968.0,Controller,0,3.0,1.0,42.0,0,5,,,,,,
6430,99020.0,Controller,0,3.0,1.0,30.0,0,5,,,,,,
6431,99056.0,Controller,0,3.0,1.0,0.0,0,5,764.0,4.0,2.0,74.0,d'',73.0
6432,99080.0,Note Off,0,3.0,61.0,82.0,0,5,,,,,,
6433,109204.0,Controller,0,3.0,1.0,1.0,0,5,,,,,,
6434,109336.0,Controller,0,3.0,1.0,2.0,0,5,,,,,,
6435,109376.0,Controller,0,3.0,1.0,4.0,0,5,,,,,,
6436,109408.0,Controller,0,3.0,1.0,7.0,0,5,,,,,,
6437,109440.0,Controller,0,3.0,1.0,10.0,0,5,,,,,,
6438,109480.0,Controller,0,3.0,1.0,13.0,0,5,56.0,7.0,5.0,64.0,e',49.0
6439,109532.0,Controller,0,3.0,1.0,17.0,0,5,72.0,7.0,5.0,61.0,c#',40.0
6440,109568.0,Controller,0,3.0,1.0,20.0,0,5,,,,,,
6441,109592.0,Controller,0,3.0,1.0,21.0,0,5,248.0,4.0,2.0,90.0,f#''',48.0
6442,109632.0,Controller,0,3.0,1.0,23.0,0,5,168.0,5.0,3.0,66.0,f#',64.0
6443,109632.0,Controller,0,3.0,1.0,23.0,0,5,80.0,11.0,9.0,38.0,D,58.0
6444,109632.0,Note On,0,3.0,66.0,64.0,0,5,168.0,5.0,3.0,66.0,f#',64.0
6445,109632.0,Note On,0,3.0,66.0,64.0,0,5,80.0,11.0,9.0,38.0,D,58.0
6446,109660.0,Controller,0,3.0,1.0,25.0,0,5,,,,,,
6447,109696.0,Controller,0,3.0,1.0,27.0,0,5,,,,,,
6448,109760.0,Controller,0,3.0,1.0,26.0,0,5,,,,,,
6449,109784.0,Controller,0,3.0,1.0,19.0,0,5,,,,,,
6450,109800.0,Note Off,0,3.0,66.0,64.0,0,5,,,,,,
6451,109816.0,Controller,0,3.0,1.0,0.0,0,5,368.0,2.0,0.0,62.0,d',70.0
6452,109828.0,Note On,0,3.0,67.0,82.0,0,5,328.0,5.0,3.0,67.0,g',82.0
6453,110156.0,Note Off,0,3.0,67.0,82.0,0,5,,,,,,
6454,110208.0,Note On,0,3.0,71.0,91.0,0,5,368.0,2.0,0.0,59.0,b,74.0
6455,110208.0,Note On,0,3.0,71.0,91.0,0,5,372.0,2.0,0.0,67.0,g',101.0
6456,110208.0,Note On,0,3.0,71.0,91.0,0,5,340.0,5.0,3.0,71.0,b',91.0
6457,110548.0,Note Off,0,3.0,71.0,91.0,0,5,,,,,,
6458,110592.0,Note On,0,3.0,69.0,82.0,0,5,740.0,2.0,0.0,61.0,c#',101.0
6459,110592.0,Note On,0,3.0,69.0,82.0,0,5,732.0,2.0,0.0,64.0,e',92.0
6460,110592.0,Note On,0,3.0,69.0,82.0,0,5,716.0,3.0,1.0,30.0,"F#,",82.0
6461,110592.0,Note On,0,3.0,69.0,82.0,0,5,1868.0,5.0,3.0,69.0,a',82.0
6462,110592.0,Note On,0,3.0,69.0,82.0,0,5,800.0,9.0,7.0,81.0,a'',78.0
6463,110592.0,Note On,0,3.0,69.0,82.0,0,5,96.0,11.0,9.0,35.0,"B,",82.0
6464,110592.0,Note On,0,3.0,69.0,82.0,0,5,700.0,11.0,9.0,49.0,c#,64.0
6465,110780.0,Controller,0,3.0,1.0,1.0,0,5,44.0,11.0,9.0,42.0,F#,30.0
6466,110916.0,Controller,0,3.0,1.0,2.0,0,5,,,,,,
6467,110952.0,Controller,0,3.0,1.0,5.0,0,5,,,,,,
6468,110996.0,Controller,0,3.0,1.0,7.0,0,5,,,,,,
6469,111032.0,Controller,0,3.0,1.0,9.0,0,5,,,,,,
6470,111072.0,Controller,0,3.0,1.0,11.0,0,5,,,,,,
6471,111100.0,Controller,0,3.0,1.0,12.0,0,5,,,,,,
6472,111124.0,Controller,0,3.0,1.0,13.0,0,5,,,,,,
6473,111168.0,Controller,0,3.0,1.0,16.0,0,5,,,,,,
6474,111208.0,Controller,0,3.0,1.0,17.0,0,5,,,,,,
6475,111248.0,Controller,0,3.0,1.0,19.0,0,5,,,,,,
6476,111288.0,Controller,0,3.0,1.0,21.0,0,5,,,,,,
6477,111316.0,Controller,0,3.0,1.0,22.0,0,5,,,,,,
6478,111404.0,Controller,0,3.0,1.0,23.0,0,5,,,,,,
6479,111440.0,Controller,0,3.0,1.0,24.0,0,5,,,,,,
6480,111468.0,Controller,0,3.0,1.0,25.0,0,5,,,,,,
6481,111512.0,Controller,0,3.0,1.0,26.0,0,5,,,,,,
6482,111572.0,Controller,0,3.0,1.0,27.0,0,5,,,,,,
6483,111604.0,Controller,0,3.0,1.0,28.0,0,5,,,,,,
6484,111636.0,Controller,0,3.0,1.0,29.0,0,5,,,,,,
6485,111664.0,Controller,0,3.0,1.0,30.0,0,5,,,,,,
6486,111704.0,Controller,0,3.0,1.0,31.0,0,5,,,,,,
6487,111736.0,Controller,0,3.0,1.0,32.0,0,5,,,,,,
6488,111764.0,Controller,0,3.0,1.0,33.0,0,5,,,,,,
6489,111916.0,Controller,0,3.0,1.0,32.0,0,5,,,,,,
6490,111960.0,Controller,0,3.0,1.0,31.0,0,5,,,,,,
6491,111988.0,Controller,0,3.0,1.0,30.0,0,5,,,,,,
6492,112016.0,Controller,0,3.0,1.0,29.0,0,5,,,,,,
6493,112060.0,Controller,0,3.0,1.0,27.0,0,5,,,,,,
6494,112084.0,Controller,0,3.0,1.0,25.0,0,5,,,,,,
6495,112128.0,Controller,0,3.0,1.0,23.0,0,5,1512.0,3.0,1.0,38.0,D,82.0
6496,112128.0,Controller,0,3.0,1.0,23.0,0,5,96.0,11.0,9.0,35.0,"B,",82.0
6497,112128.0,Controller,0,3.0,1.0,23.0,0,5,108.0,11.0,9.0,42.0,F#,72.0
6498,112164.0,Controller,0,3.0,1.0,21.0,0,5,,,,,,
6499,112192.0,Controller,0,3.0,1.0,18.0,0,5,,,,,,
6500,112232.0,Controller,0,3.0,1.0,14.0,0,5,,,,,,
6501,112268.0,Controller,0,3.0,1.0,9.0,0,5,,,,,,
6502,112304.0,Controller,0,3.0,1.0,5.0,0,5,,,,,,
6503,112336.0,Controller,0,3.0,1.0,1.0,0,5,,,,,,
6504,112412.0,Controller,0,3.0,1.0,0.0,0,5,,,,,,
6505,112460.0,Note Off,0,3.0,69.0,82.0,0,5,,,,,,
6506,112696.0,Note On,0,3.0,66.0,60.0,0,5,180.0,5.0,3.0,66.0,f#',60.0
6507,112876.0,Note Off,0,3.0,66.0,60.0,0,5,,,,,,
6508,112888.0,Note On,0,3.0,67.0,84.0,0,5,348.0,5.0,3.0,67.0,g',84.0
6509,113236.0,Note Off,0,3.0,67.0,84.0,0,5,,,,,,
6510,113276.0,Note On,0,3.0,71.0,87.0,0,5,344.0,5.0,3.0,71.0,b',87.0
6511,113620.0,Note Off,0,3.0,71.0,87.0,0,5,,,,,,
6512,113660.0,Note On,0,3.0,69.0,73.0,0,5,724.0,2.0,0.0,49.0,c#,88.0
6513,113660.0,Note On,0,3.0,69.0,73.0,0,5,216.0,2.0,0.0,64.0,e',83.0
6514,113660.0,Note On,0,3.0,69.0,73.0,0,5,392.0,2.0,0.0,69.0,a',98.0
6515,113660.0,Note On,0,3.0,69.0,73.0,0,5,368.0,5.0,3.0,69.0,a',73.0
6516,113676.0,Controller,0,3.0,1.0,1.0,0,5,,,,,,
6517,113740.0,Controller,0,3.0,1.0,10.0,0,5,,,,,,
6518,113776.0,Controller,0,3.0,1.0,19.0,0,5,,,,,,
6519,113820.0,Controller,0,3.0,1.0,24.0,0,5,,,,,,
6520,113856.0,Controller,0,3.0,1.0,27.0,0,5,,,,,,
6521,113896.0,Controller,0,3.0,1.0,27.0,0,5,,,,,,
6522,113924.0,Controller,0,3.0,1.0,22.0,0,5,,,,,,
6523,113960.0,Controller,0,3.0,1.0,13.0,0,5,,,,,,
6524,113996.0,Controller,0,3.0,1.0,1.0,0,5,,,,,,
6525,114028.0,Note Off,0,3.0,69.0,73.0,0,5,160.0,2.0,0.0,64.0,e',74.0
6526,114040.0,Note On,0,3.0,64.0,73.0,0,5,160.0,5.0,3.0,64.0,e',73.0
6527,114040.0,Controller,0,3.0,1.0,0.0,0,5,160.0,5.0,3.0,64.0,e',73.0
6528,114200.0,Note Off,0,3.0,64.0,73.0,0,5,,,,,,
6529,114236.0,Note On,0,3.0,67.0,90.0,0,5,568.0,5.0,3.0,67.0,g',90.0
6530,114236.0,Note On,0,3.0,67.0,90.0,0,5,52.0,11.0,9.0,42.0,F#,31.0
6531,114328.0,Controller,0,3.0,1.0,1.0,0,5,,,,,,
6532,114372.0,Controller,0,3.0,1.0,6.0,0,5,,,,,,
6533,114408.0,Controller,0,3.0,1.0,13.0,0,5,,,,,,
6534,114444.0,Controller,0,3.0,1.0,17.0,0,5,,,,,,
6535,114480.0,Controller,0,3.0,1.0,21.0,0,5,,,,,,
6536,114564.0,Controller,0,3.0,1.0,20.0,0,5,,,,,,
6537,114596.0,Controller,0,3.0,1.0,17.0,0,5,,,,,,
6538,114624.0,Controller,0,3.0,1.0,12.0,0,5,,,,,,
6539,114660.0,Controller,0,3.0,1.0,7.0,0,5,,,,,,
6540,114696.0,Controller,0,3.0,1.0,1.0,0,5,,,,,,
6541,114752.0,Controller,0,3.0,1.0,0.0,0,5,,,,,,
6542,114804.0,Note Off,0,3.0,67.0,90.0,0,5,,,,,,
6543,114820.0,Note On,0,3.0,66.0,73.0,0,5,156.0,5.0,3.0,66.0,f#',73.0
6544,114976.0,Note Off,0,3.0,66.0,73.0,0,5,,,,,,
6545,115012.0,Note On,0,3.0,66.0,82.0,0,5,168.0,2.0,0.0,45.0,A,74.0
6546,115012.0,Note On,0,3.0,66.0,82.0,0,5,580.0,5.0,3.0,66.0,f#',82.0
6547,115104.0,Controller,0,3.0,1.0,1.0,0,5,,,,,,
6548,115200.0,Controller,0,3.0,1.0,4.0,0,5,744.0,2.0,0.0,50.0,d,92.0
6549,115200.0,Controller,0,3.0,1.0,4.0,0,5,728.0,2.0,0.0,57.0,a,74.0
6550,115200.0,Controller,0,3.0,1.0,4.0,0,5,724.0,3.0,1.0,38.0,D,82.0
6551,115200.0,Controller,0,3.0,1.0,4.0,0,5,96.0,11.0,9.0,35.0,"B,",82.0
6552,115200.0,Controller,0,3.0,1.0,4.0,0,5,108.0,11.0,9.0,42.0,F#,72.0
6553,115240.0,Controller,0,3.0,1.0,8.0,0,5,,,,,,
6554,115272.0,Controller,0,3.0,1.0,11.0,0,5,,,,,,
6555,115312.0,Controller,0,3.0,1.0,14.0,0,5,,,,,,
6556,115344.0,Controller,0,3.0,1.0,17.0,0,5,,,,,,
6557,115384.0,Controller,0,3.0,1.0,20.0,0,5,,,,,,
6558,115428.0,Controller,0,3.0,1.0,22.0,0,5,,,,,,
6559,115452.0,Controller,0,3.0,1.0,23.0,0,5,,,,,,
6560,115476.0,Controller,0,3.0,1.0,24.0,0,5,,,,,,
6561,115540.0,Controller,0,3.0,1.0,21.0,0,5,,,,,,
6562,115576.0,Controller,0,3.0,1.0,1.0,0,5,,,,,,
6563,115592.0,Note Off,0,3.0,66.0,82.0,0,5,,,,,,
6564,115600.0,Controller,0,3.0,1.0,0.0,0,5,,,,,,
6565,115956.0,Note On,0,3.0,66.0,73.0,0,5,768.0,2.0,0.0,57.0,a,74.0
6566,115956.0,Note On,0,3.0,66.0,73.0,0,5,280.0,2.0,0.0,66.0,f#',101.0
6567,115956.0,Note On,0,3.0,66.0,73.0,0,5,220.0,5.0,3.0,66.0,f#',73.0
6568,116176.0,Note Off,0,3.0,66.0,73.0,0,5,,,,,,
6569,116224.0,Note On,0,3.0,67.0,73.0,0,5,208.0,2.0,0.0,40.0,E,74.0
6570,116224.0,Note On,0,3.0,67.0,73.0,0,5,200.0,3.0,1.0,28.0,"E,",78.0
6571,116224.0,Note On,0,3.0,67.0,73.0,0,5,224.0,5.0,3.0,67.0,g',73.0
6572,116448.0,Note Off,0,3.0,67.0,73.0,0,5,,,,,,
6573,116488.0,Note On,0,3.0,69.0,73.0,0,5,168.0,5.0,3.0,69.0,a',73.0
6574,116656.0,Note Off,0,3.0,69.0,73.0,0,5,,,,,,
6575,116728.0,Note On,0,3.0,73.0,73.0,0,5,740.0,2.0,0.0,43.0,G,91.0
6576,116728.0,Note On,0,3.0,73.0,73.0,0,5,328.0,5.0,3.0,73.0,c#'',73.0
6577,116760.0,Controller,0,3.0,1.0,1.0,0,5,,,,,,
6578,116784.0,Controller,0,3.0,1.0,6.0,0,5,,,,,,
6579,116820.0,Controller,0,3.0,1.0,16.0,0,5,,,,,,
6580,116856.0,Controller,0,3.0,1.0,25.0,0,5,,,,,,
6581,116892.0,Controller,0,3.0,1.0,33.0,0,5,,,,,,
6582,116928.0,Controller,0,3.0,1.0,37.0,0,5,,,,,,
6583,116992.0,Controller,0,3.0,1.0,36.0,0,5,,,,,,
6584,117024.0,Controller,0,3.0,1.0,28.0,0,5,,,,,,
6585,117056.0,Note Off,0,3.0,73.0,73.0,0,5,,,,,,
6586,117056.0,Controller,0,3.0,1.0,13.0,0,5,,,,,,
6587,117088.0,Controller,0,3.0,1.0,1.0,0,5,,,,,,
6588,117108.0,Note On,0,3.0,71.0,73.0,0,5,340.0,5.0,3.0,71.0,b',73.0
6589,117112.0,Controller,0,3.0,1.0,0.0,0,5,,,,,,
6590,117448.0,Note Off,0,3.0,71.0,73.0,0,5,,,,,,
6591,117496.0,Note On,0,3.0,69.0,64.0,0,5,724.0,2.0,0.0,42.0,F#,92.0
6592,117496.0,Note On,0,3.0,69.0,64.0,0,5,208.0,2.0,0.0,62.0,d',91.0
6593,117496.0,Note On,0,3.0,69.0,64.0,0,5,412.0,2.0,0.0,69.0,a',97.0
6594,117496.0,Note On,0,3.0,69.0,64.0,0,5,396.0,5.0,3.0,69.0,a',64.0
6595,117500.0,Controller,0,3.0,1.0,1.0,0,5,,,,,,
6596,117540.0,Controller,0,3.0,1.0,6.0,0,5,,,,,,
6597,117576.0,Controller,0,3.0,1.0,16.0,0,5,,,,,,
6598,117616.0,Controller,0,3.0,1.0,26.0,0,5,,,,,,
6599,117652.0,Controller,0,3.0,1.0,36.0,0,5,,,,,,
6600,117688.0,Controller,0,3.0,1.0,43.0,0,5,,,,,,
6601,117720.0,Controller,0,3.0,1.0,50.0,0,5,,,,,,
6602,117756.0,Controller,0,3.0,1.0,55.0,0,5,,,,,,
6603,117792.0,Controller,0,3.0,1.0,59.0,0,5,,,,,,
6604,117832.0,Controller,0,3.0,1.0,61.0,0,5,,,,,,
6605,117868.0,Controller,0,3.0,1.0,55.0,0,5,,,,,,
6606,117892.0,Note Off,0,3.0,69.0,64.0,0,5,,,,,,
6607,117900.0,Controller,0,3.0,1.0,34.0,0,5,,,,,,
6608,117936.0,Controller,0,3.0,1.0,14.0,0,5,,,,,,
6609,117972.0,Controller,0,3.0,1.0,1.0,0,5,,,,,,
6610,118000.0,Controller,0,3.0,1.0,0.0,0,5,,,,,,
6611,118084.0,Note On,0,3.0,62.0,64.0,0,5,192.0,5.0,3.0,62.0,d',64.0
6612,118276.0,Note Off,0,3.0,62.0,64.0,0,5,,,,,,
6613,118280.0,Note On,0,3.0,73.0,73.0,0,5,308.0,5.0,3.0,73.0,c#'',73.0
6614,118316.0,Controller,0,3.0,1.0,11.0,0,5,,,,,,
6615,118352.0,Controller,0,3.0,1.0,26.0,0,5,,,,,,
6616,118388.0,Controller,0,3.0,1.0,36.0,0,5,,,,,,
6617,118420.0,Controller,0,3.0,1.0,42.0,0,5,,,,,,
6618,118488.0,Controller,0,3.0,1.0,40.0,0,5,,,,,,
6619,118512.0,Controller,0,3.0,1.0,30.0,0,5,,,,,,
6620,118548.0,Controller,0,3.0,1.0,15.0,0,5,,,,,,
6621,118584.0,Controller,0,3.0,1.0,1.0,0,5,,,,,,
6622,118588.0,Note Off,0,3.0,73.0,73.0,0,5,,,,,,
6623,118608.0,Controller,0,3.0,1.0,0.0,0,5,,,,,,
6624,118652.0,Note On,0,3.0,74.0,64.0,0,5,176.0,5.0,3.0,74.0,d'',64.0
6625,118828.0,Note Off,0,3.0,74.0,64.0,0,5,,,,,,
6626,118856.0,Note On,0,3.0,69.0,73.0,0,5,552.0,5.0,3.0,69.0,a',73.0
6627,118876.0,Controller,0,3.0,1.0,1.0,0,5,,,,,,
6628,118908.0,Controller,0,3.0,1.0,5.0,0,5,,,,,,
6629,118944.0,Controller,0,3.0,1.0,12.0,0,5,,,,,,
6630,118984.0,Controller,0,3.0,1.0,18.0,0,5,,,,,,
6631,119016.0,Controller,0,3.0,1.0,23.0,0,5,,,,,,
6632,119052.0,Controller,0,3.0,1.0,29.0,0,5,,,,,,
6633,119092.0,Controller,0,3.0,1.0,35.0,0,5,,,,,,
6634,119132.0,Controller,0,3.0,1.0,38.0,0,5,,,,,,
6635,119160.0,Controller,0,3.0,1.0,41.0,0,5,,,,,,
6636,119184.0,Controller,0,3.0,1.0,42.0,0,5,,,,,,
6637,119212.0,Controller,0,3.0,1.0,43.0,0,5,228.0,2.0,0.0,62.0,d',62.0
6638,119240.0,Controller,0,3.0,1.0,44.0,0,5,,,,,,
6639,119288.0,Controller,0,3.0,1.0,40.0,0,5,,,,,,
6640,119324.0,Controller,0,3.0,1.0,24.0,0,5,,,,,,
6641,119356.0,Controller,0,3.0,1.0,0.0,0,5,,,,,,
6642,119408.0,Note Off,0,3.0,69.0,73.0,0,5,,,,,,
6643,119612.0,Note On,0,3.0,73.0,64.0,0,5,180.0,5.0,3.0,73.0,c#'',64.0
6644,119612.0,Note On,0,3.0,73.0,64.0,0,5,56.0,11.0,9.0,42.0,F#,31.0
6645,119792.0,Note Off,0,3.0,73.0,64.0,0,5,792.0,2.0,0.0,47.0,B,83.0
6646,119792.0,Note Off,0,3.0,73.0,64.0,0,5,752.0,2.0,0.0,62.0,d',101.0
6647,119792.0,Note Off,0,3.0,73.0,64.0,0,5,720.0,2.0,0.0,66.0,f#',92.0
6648,119808.0,Note On,0,3.0,74.0,82.0,0,5,696.0,3.0,1.0,35.0,"B,",82.0
6649,119808.0,Note On,0,3.0,74.0,82.0,0,5,524.0,5.0,3.0,74.0,d'',82.0
6650,119808.0,Note On,0,3.0,74.0,82.0,0,5,96.0,11.0,9.0,35.0,"B,",82.0
6651,119808.0,Note On,0,3.0,74.0,82.0,0,5,20.0,11.0,9.0,49.0,c#,64.0
6652,119864.0,Controller,0,3.0,1.0,1.0,0,5,,,,,,
6653,119900.0,Controller,0,3.0,1.0,5.0,0,5,,,,,,
6654,119936.0,Controller,0,3.0,1.0,11.0,0,5,,,,,,
6655,119972.0,Controller,0,3.0,1.0,17.0,0,5,,,,,,
6656,120008.0,Controller,0,3.0,1.0,22.0,0,5,,,,,,
6657,120044.0,Controller,0,3.0,1.0,27.0,0,5,,,,,,
6658,120084.0,Controller,0,3.0,1.0,30.0,0,5,,,,,,
6659,120148.0,Controller,0,3.0,1.0,26.0,0,5,,,,,,
6660,120176.0,Controller,0,3.0,1.0,24.0,0,5,,,,,,
6661,120204.0,Controller,0,3.0,1.0,20.0,0,5,,,,,,
6662,120240.0,Controller,0,3.0,1.0,14.0,0,5,,,,,,
6663,120276.0,Controller,0,3.0,1.0,9.0,0,5,,,,,,
6664,120300.0,Controller,0,3.0,1.0,7.0,0,5,,,,,,
6665,120332.0,Note Off,0,3.0,74.0,82.0,0,5,,,,,,
6666,120332.0,Controller,0,3.0,1.0,1.0,0,5,,,,,,
6667,120376.0,Note On,0,3.0,74.0,64.0,0,5,200.0,5.0,3.0,74.0,d'',64.0
6668,120412.0,Controller,0,3.0,1.0,0.0,0,5,,,,,,
6669,120568.0,Note On,0,3.0,73.0,56.0,0,5,748.0,2.0,0.0,56.0,g#,83.0
6670,120568.0,Note On,0,3.0,73.0,56.0,0,5,748.0,2.0,0.0,59.0,b,83.0
6671,120568.0,Note On,0,3.0,73.0,56.0,0,5,408.0,2.0,0.0,62.0,d',83.0
6672,120568.0,Note On,0,3.0,73.0,56.0,0,5,84.0,5.0,3.0,73.0,c#'',56.0
6673,120576.0,Note Off,0,3.0,74.0,64.0,0,5,520.0,3.0,1.0,28.0,"E,",82.0
6674,120576.0,Note Off,0,3.0,74.0,64.0,0,5,240.0,11.0,9.0,38.0,D,73.0
6675,120576.0,Note Off,0,3.0,74.0,64.0,0,5,20.0,11.0,9.0,57.0,a,64.0
6676,120636.0,Note On,0,3.0,71.0,64.0,0,5,100.0,5.0,3.0,71.0,b',64.0
6677,120652.0,Note Off,0,3.0,73.0,56.0,0,5,,,,,,
6678,120716.0,Note On,0,3.0,69.0,73.0,0,5,396.0,5.0,3.0,69.0,a',73.0
6679,120736.0,Note Off,0,3.0,71.0,64.0,0,5,588.0,4.0,2.0,76.0,e'',56.0
6680,120916.0,Controller,0,3.0,1.0,1.0,0,5,,,,,,
6681,120960.0,Controller,0,3.0,1.0,8.0,0,5,140.0,11.0,9.0,42.0,F#,72.0
6682,121000.0,Controller,0,3.0,1.0,15.0,0,5,,,,,,
6683,121032.0,Controller,0,3.0,1.0,24.0,0,5,,,,,,
6684,121068.0,Controller,0,3.0,1.0,30.0,0,5,,,,,,
6685,121104.0,Controller,0,3.0,1.0,28.0,0,5,,,,,,
6686,121112.0,Note Off,0,3.0,69.0,73.0,0,5,,,,,,
6687,121140.0,Controller,0,3.0,1.0,16.0,0,5,,,,,,
6688,121152.0,Note On,0,3.0,69.0,73.0,0,5,160.0,2.0,0.0,47.0,B,82.0
6689,121152.0,Note On,0,3.0,69.0,73.0,0,5,192.0,3.0,1.0,28.0,"E,",73.0
6690,121152.0,Note On,0,3.0,69.0,73.0,0,5,164.0,5.0,3.0,69.0,a',73.0
6691,121152.0,Note On,0,3.0,69.0,73.0,0,5,96.0,11.0,9.0,35.0,"B,",64.0
6692,121152.0,Note On,0,3.0,69.0,73.0,0,5,52.0,11.0,9.0,42.0,F#,48.0
6693,121176.0,Controller,0,3.0,1.0,1.0,0,5,,,,,,
6694,121208.0,Controller,0,3.0,1.0,0.0,0,5,,,,,,
6695,121316.0,Note Off,0,3.0,69.0,73.0,0,5,,,,,,
6696,121344.0,Note On,0,3.0,69.0,91.0,0,5,1460.0,3.0,1.0,33.0,"A,",82.0
6697,121344.0,Note On,0,3.0,69.0,91.0,0,5,516.0,5.0,3.0,69.0,a',91.0
6698,121344.0,Note On,0,3.0,69.0,91.0,0,5,96.0,11.0,9.0,35.0,"B,",82.0
6699,121344.0,Note On,0,3.0,69.0,91.0,0,5,20.0,11.0,9.0,49.0,c#,64.0
6700,121612.0,Controller,0,3.0,1.0,1.0,0,5,,,,,,
6701,121668.0,Controller,0,3.0,1.0,2.0,0,5,,,,,,
6702,121696.0,Controller,0,3.0,1.0,14.0,0,5,,,,,,
6703,121732.0,Controller,0,3.0,1.0,25.0,0,5,,,,,,
6704,121772.0,Controller,0,3.0,1.0,31.0,0,5,,,,,,
6705,121816.0,Controller,0,3.0,1.0,31.0,0,5,,,,,,
6706,121844.0,Controller,0,3.0,1.0,16.0,0,5,,,,,,
6707,121860.0,Note Off,0,3.0,69.0,91.0,0,5,,,,,,
6708,121880.0,Controller,0,3.0,1.0,0.0,0,5,,,,,,
6709,121920.0,Note On,0,3.0,66.0,56.0,0,5,144.0,5.0,3.0,66.0,f#',56.0
6710,121920.0,Note On,0,3.0,66.0,56.0,0,5,96.0,11.0,9.0,35.0,"B,",78.0
6711,121920.0,Note On,0,3.0,66.0,56.0,0,5,80.0,11.0,9.0,38.0,D,61.0
6712,122020.0,Controller,0,3.0,1.0,1.0,0,5,,,,,,
6713,122064.0,Note Off,0,3.0,66.0,56.0,0,5,,,,,,
6714,122080.0,Controller,0,3.0,1.0,3.0,0,5,,,,,,
6715,122112.0,Note On,0,3.0,67.0,87.0,0,5,172.0,2.0,0.0,45.0,A,83.0
6716,122112.0,Note On,0,3.0,67.0,87.0,0,5,376.0,5.0,3.0,67.0,g',87.0
6717,122112.0,Note On,0,3.0,67.0,87.0,0,5,96.0,11.0,9.0,35.0,"B,",82.0
6718,122112.0,Note On,0,3.0,67.0,87.0,0,5,80.0,11.0,9.0,38.0,D,81.0
6719,122112.0,Note On,0,3.0,67.0,87.0,0,5,96.0,11.0,9.0,54.0,f#,91.0
6720,122112.0,Controller,0,3.0,1.0,10.0,0,5,172.0,2.0,0.0,45.0,A,83.0
6721,122112.0,Controller,0,3.0,1.0,10.0,0,5,376.0,5.0,3.0,67.0,g',87.0
6722,122112.0,Controller,0,3.0,1.0,10.0,0,5,96.0,11.0,9.0,35.0,"B,",82.0
6723,122112.0,Controller,0,3.0,1.0,10.0,0,5,80.0,11.0,9.0,38.0,D,81.0
6724,122112.0,Controller,0,3.0,1.0,10.0,0,5,96.0,11.0,9.0,54.0,f#,91.0
6725,122148.0,Controller,0,3.0,1.0,14.0,0,5,,,,,,
6726,122172.0,Controller,0,3.0,1.0,17.0,0,5,,,,,,
6727,122204.0,Controller,0,3.0,1.0,21.0,0,5,52.0,7.0,5.0,49.0,c#,40.0
6728,122232.0,Controller,0,3.0,1.0,22.0,0,5,,,,,,
6729,122264.0,Controller,0,3.0,1.0,25.0,0,5,,,,,,
6730,122296.0,Controller,0,3.0,1.0,27.0,0,5,,,,,,
6731,122328.0,Controller,0,3.0,1.0,29.0,0,5,,,,,,
6732,122400.0,Controller,0,3.0,1.0,26.0,0,5,,,,,,
6733,122436.0,Controller,0,3.0,1.0,16.0,0,5,,,,,,
6734,122472.0,Controller,0,3.0,1.0,0.0,0,5,,,,,,
6735,122488.0,Note Off,0,3.0,67.0,87.0,0,5,,,,,,
6736,122496.0,Note On,0,3.0,71.0,82.0,0,5,332.0,5.0,3.0,71.0,b',82.0
6737,122496.0,Note On,0,3.0,71.0,82.0,0,5,196.0,11.0,9.0,43.0,G,82.0
6738,122828.0,Note Off,0,3.0,71.0,82.0,0,5,,,,,,
6739,122872.0,Note On,0,3.0,69.0,73.0,0,5,212.0,3.0,1.0,37.0,C#,93.0
6740,122872.0,Note On,0,3.0,69.0,73.0,0,5,3852.0,4.0,2.0,81.0,a'',56.0
6741,122872.0,Note On,0,3.0,69.0,73.0,0,5,1592.0,5.0,3.0,69.0,a',73.0
6742,122992.0,Controller,0,3.0,1.0,1.0,0,5,,,,,,
6743,123112.0,Controller,0,3.0,1.0,2.0,0,5,,,,,,
6744,123148.0,Controller,0,3.0,1.0,4.0,0,5,,,,,,
6745,123172.0,Controller,0,3.0,1.0,7.0,0,5,,,,,,
6746,123228.0,Controller,0,3.0,1.0,9.0,0,5,,,,,,
6747,123252.0,Controller,0,3.0,1.0,10.0,0,5,200.0,3.0,1.0,28.0,"E,",73.0
6748,123284.0,Controller,0,3.0,1.0,11.0,0,5,,,,,,
6749,123312.0,Controller,0,3.0,1.0,12.0,0,5,,,,,,
6750,123336.0,Controller,0,3.0,1.0,13.0,0,5,,,,,,
6751,123384.0,Controller,0,3.0,1.0,15.0,0,5,,,,,,
6752,123408.0,Controller,0,3.0,1.0,16.0,0,5,,,,,,
6753,123436.0,Controller,0,3.0,1.0,17.0,0,5,,,,,,
6754,123560.0,Controller,0,3.0,1.0,18.0,0,5,,,,,,
6755,123624.0,Controller,0,3.0,1.0,19.0,0,5,,,,,,
6756,123700.0,Controller,0,3.0,1.0,20.0,0,5,,,,,,
6757,123908.0,Controller,0,3.0,1.0,19.0,0,5,,,,,,
6758,123932.0,Controller,0,3.0,1.0,16.0,0,5,,,,,,
6759,123964.0,Controller,0,3.0,1.0,15.0,0,5,,,,,,
6760,123996.0,Controller,0,3.0,1.0,14.0,0,5,,,,,,
6761,124052.0,Controller,0,3.0,1.0,12.0,0,5,,,,,,
6762,124084.0,Controller,0,3.0,1.0,10.0,0,5,,,,,,
6763,124108.0,Controller,0,3.0,1.0,7.0,0,5,,,,,,
6764,124148.0,Controller,0,3.0,1.0,1.0,0,5,,,,,,
6765,124256.0,Controller,0,3.0,1.0,0.0,0,5,,,,,,
6766,124464.0,Note Off,0,3.0,69.0,73.0,0,5,,,,,,
6767,124980.0,Note On,0,3.0,66.0,73.0,0,5,568.0,2.0,0.0,69.0,a',74.0
6768,124980.0,Note On,0,3.0,66.0,73.0,0,5,168.0,5.0,3.0,66.0,f#',73.0
6769,125148.0,Note Off,0,3.0,66.0,73.0,0,5,,,,,,
6770,125180.0,Note On,0,3.0,67.0,82.0,0,5,356.0,5.0,3.0,67.0,g',82.0
6771,125536.0,Note Off,0,3.0,67.0,82.0,0,5,,,,,,
6772,125568.0,Note On,0,3.0,71.0,82.0,0,5,344.0,3.0,1.0,35.0,"B,",78.0
6773,125568.0,Note On,0,3.0,71.0,82.0,0,5,328.0,5.0,3.0,71.0,b',82.0
6774,125568.0,Note On,0,3.0,71.0,82.0,0,5,140.0,11.0,9.0,42.0,F#,72.0
6775,125896.0,Note Off,0,3.0,71.0,82.0,0,5,,,,,,
6776,125940.0,Note On,0,3.0,69.0,73.0,0,5,372.0,5.0,3.0,69.0,a',73.0
6777,125972.0,Controller,0,3.0,1.0,1.0,0,5,,,,,,
6778,126016.0,Controller,0,3.0,1.0,11.0,0,5,,,,,,
6779,126040.0,Controller,0,3.0,1.0,13.0,0,5,,,,,,
6780,126072.0,Controller,0,3.0,1.0,21.0,0,5,,,,,,
6781,126108.0,Controller,0,3.0,1.0,24.0,0,5,,,,,,
6782,126148.0,Controller,0,3.0,1.0,26.0,0,5,,,,,,
6783,126196.0,Controller,0,3.0,1.0,23.0,0,5,,,,,,
6784,126236.0,Controller,0,3.0,1.0,13.0,0,5,,,,,,
6785,126268.0,Controller,0,3.0,1.0,1.0,0,5,,,,,,
6786,126308.0,Controller,0,3.0,1.0,0.0,0,5,,,,,,
6787,126312.0,Note Off,0,3.0,69.0,73.0,0,5,,,,,,
6788,126328.0,Note On,0,3.0,64.0,66.0,0,5,148.0,5.0,3.0,64.0,e',66.0
6789,126476.0,Note Off,0,3.0,64.0,66.0,0,5,,,,,,
6790,126520.0,Note On,0,3.0,67.0,73.0,0,5,388.0,2.0,0.0,64.0,e',92.0
6791,126520.0,Note On,0,3.0,67.0,73.0,0,5,380.0,2.0,0.0,67.0,g',91.0
6792,126520.0,Note On,0,3.0,67.0,73.0,0,5,576.0,5.0,3.0,67.0,g',73.0
6793,126616.0,Controller,0,3.0,1.0,1.0,0,5,,,,,,
6794,126664.0,Controller,0,3.0,1.0,8.0,0,5,,,,,,
6795,126700.0,Controller,0,3.0,1.0,14.0,0,5,,,,,,
6796,126740.0,Controller,0,3.0,1.0,20.0,0,5,,,,,,
6797,126776.0,Controller,0,3.0,1.0,29.0,0,5,,,,,,
6798,126812.0,Controller,0,3.0,1.0,32.0,0,5,,,,,,
6799,126860.0,Controller,0,3.0,1.0,31.0,0,5,,,,,,
6800,126888.0,Controller,0,3.0,1.0,27.0,0,5,,,,,,
6801,126920.0,Controller,0,3.0,1.0,20.0,0,5,,,,,,
6802,126952.0,Controller,0,3.0,1.0,9.0,0,5,,,,,,
6803,126992.0,Controller,0,3.0,1.0,1.0,0,5,,,,,,
6804,127020.0,Controller,0,3.0,1.0,0.0,0,5,,,,,,
6805,127092.0,Note On,0,3.0,66.0,64.0,0,5,172.0,5.0,3.0,66.0,f#',64.0
6806,127096.0,Note Off,0,3.0,67.0,73.0,0,5,380.0,2.0,0.0,58.0,a#,66.0
6807,127264.0,Note Off,0,3.0,66.0,64.0,0,5,,,,,,
6808,127292.0,Note On,0,3.0,66.0,66.0,0,5,596.0,5.0,3.0,66.0,f#',66.0
6809,127328.0,Controller,0,3.0,1.0,1.0,0,5,,,,,,
6810,127404.0,Controller,0,3.0,1.0,5.0,0,5,,,,,,
6811,127428.0,Controller,0,3.0,1.0,7.0,0,5,,,,,,
6812,127456.0,Controller,0,3.0,1.0,11.0,0,5,720.0,4.0,2.0,78.0,f#'',60.0
6813,127492.0,Controller,0,3.0,1.0,16.0,0,5,,,,,,
6814,127516.0,Controller,0,3.0,1.0,18.0,0,5,,,,,,
6815,127548.0,Controller,0,3.0,1.0,21.0,0,5,,,,,,
6816,127588.0,Controller,0,3.0,1.0,23.0,0,5,,,,,,
6817,127624.0,Controller,0,3.0,1.0,26.0,0,5,,,,,,
6818,127660.0,Controller,0,3.0,1.0,30.0,0,5,,,,,,
6819,127696.0,Controller,0,3.0,1.0,34.0,0,5,,,,,,
6820,127732.0,Controller,0,3.0,1.0,38.0,0,5,,,,,,
6821,127792.0,Controller,0,3.0,1.0,36.0,0,5,,,,,,
6822,127820.0,Controller,0,3.0,1.0,21.0,0,5,,,,,,
6823,127856.0,Controller,0,3.0,1.0,0.0,0,5,348.0,2.0,0.0,62.0,d',74.0
6824,127888.0,Note Off,0,3.0,66.0,66.0,0,5,,,,,,
6825,128252.0,Note On,0,3.0,66.0,73.0,0,5,216.0,5.0,3.0,66.0,f#',73.0
6826,128468.0,Note Off,0,3.0,66.0,73.0,0,5,,,,,,
6827,128512.0,Note On,0,3.0,67.0,73.0,0,5,208.0,5.0,3.0,67.0,g',73.0
6828,128720.0,Note Off,0,3.0,67.0,73.0,0,5,,,,,,
6829,128764.0,Note On,0,3.0,69.0,73.0,0,5,260.0,2.0,0.0,69.0,a',97.0
6830,128764.0,Note On,0,3.0,69.0,73.0,0,5,200.0,5.0,3.0,69.0,a',73.0
6831,128964.0,Note Off,0,3.0,69.0,73.0,0,5,,,,,,
6832,129008.0,Note On,0,3.0,73.0,82.0,0,5,356.0,5.0,3.0,73.0,c#'',82.0
6833,129020.0,Controller,0,3.0,1.0,1.0,0,5,200.0,2.0,0.0,64.0,e',92.0
6834,129020.0,Controller,0,3.0,1.0,1.0,0,5,772.0,2.0,0.0,73.0,c#'',99.0
6835,129044.0,Controller,0,3.0,1.0,9.0,0,5,,,,,,
6836,129076.0,Controller,0,3.0,1.0,17.0,0,5,,,,,,
6837,129116.0,Controller,0,3.0,1.0,24.0,0,5,,,,,,
6838,129152.0,Controller,0,3.0,1.0,28.0,0,5,,,,,,
6839,129220.0,Controller,0,3.0,1.0,22.0,0,5,,,,,,
6840,129244.0,Controller,0,3.0,1.0,18.0,0,5,,,,,,
6841,129276.0,Controller,0,3.0,1.0,11.0,0,5,,,,,,
6842,129312.0,Controller,0,3.0,1.0,1.0,0,5,,,,,,
6843,129356.0,Controller,0,3.0,1.0,0.0,0,5,,,,,,
6844,129364.0,Note Off,0,3.0,73.0,82.0,0,5,,,,,,
6845,129392.0,Note On,0,3.0,71.0,64.0,0,5,400.0,2.0,0.0,64.0,e',76.0
6846,129392.0,Note On,0,3.0,71.0,64.0,0,5,168.0,5.0,3.0,71.0,b',64.0
6847,129560.0,Note Off,0,3.0,71.0,64.0,0,5,,,,,,
6848,129584.0,Note On,0,3.0,69.0,73.0,0,5,572.0,5.0,3.0,69.0,a',73.0
6849,129640.0,Controller,0,3.0,1.0,1.0,0,5,,,,,,
6850,129708.0,Controller,0,3.0,1.0,8.0,0,5,,,,,,
6851,129744.0,Controller,0,3.0,1.0,13.0,0,5,,,,,,
6852,129784.0,Controller,0,3.0,1.0,18.0,0,5,724.0,2.0,0.0,42.0,F#,92.0
6853,129784.0,Controller,0,3.0,1.0,18.0,0,5,208.0,2.0,0.0,62.0,d',91.0
6854,129784.0,Controller,0,3.0,1.0,18.0,0,5,412.0,2.0,0.0,69.0,a',97.0
6855,129816.0,Controller,0,3.0,1.0,22.0,0,5,,,,,,
6856,129852.0,Controller,0,3.0,1.0,26.0,0,5,,,,,,
6857,129880.0,Controller,0,3.0,1.0,27.0,0,5,,,,,,
6858,129908.0,Controller,0,3.0,1.0,30.0,0,5,,,,,,
6859,129948.0,Controller,0,3.0,1.0,31.0,0,5,,,,,,
6860,130036.0,Controller,0,3.0,1.0,24.0,0,5,,,,,,
6861,130068.0,Controller,0,3.0,1.0,10.0,0,5,,,,,,
6862,130104.0,Controller,0,3.0,1.0,0.0,0,5,,,,,,
6863,130156.0,Note Off,0,3.0,69.0,73.0,0,5,,,,,,
6864,130372.0,Note On,0,3.0,62.0,60.0,0,5,176.0,5.0,3.0,62.0,d',60.0
6865,130548.0,Note Off,0,3.0,62.0,60.0,0,5,,,,,,
6866,130556.0,Note On,0,3.0,73.0,82.0,0,5,692.0,2.0,0.0,43.0,G,94.0
6867,130556.0,Note On,0,3.0,73.0,82.0,0,5,340.0,5.0,3.0,73.0,c#'',82.0
6868,130596.0,Controller,0,3.0,1.0,1.0,0,5,,,,,,
6869,130644.0,Controller,0,3.0,1.0,1.0,0,5,,,,,,
6870,130672.0,Controller,0,3.0,1.0,0.0,0,5,,,,,,
6871,130852.0,Controller,0,3.0,1.0,1.0,0,5,,,,,,
6872,130896.0,Note Off,0,3.0,73.0,82.0,0,5,,,,,,
6873,130924.0,Controller,0,3.0,1.0,2.0,0,5,,,,,,
6874,130936.0,Note On,0,3.0,74.0,73.0,0,5,200.0,5.0,3.0,74.0,d'',73.0
6875,130948.0,Controller,0,3.0,1.0,8.0,0,5,,,,,,
6876,131004.0,Controller,0,3.0,1.0,1.0,0,5,,,,,,
6877,131036.0,Controller,0,3.0,1.0,0.0,0,5,,,,,,
6878,131136.0,Note Off,0,3.0,74.0,73.0,0,5,148.0,3.0,1.0,33.0,"A,",64.0
6879,131136.0,Note Off,0,3.0,74.0,73.0,0,5,656.0,5.0,3.0,69.0,a',64.0
6880,131136.0,Note Off,0,3.0,74.0,73.0,0,5,60.0,12.0,10.0,50.0,d,48.0
6881,131136.0,Note On,0,3.0,69.0,64.0,0,5,148.0,3.0,1.0,33.0,"A,",64.0
6882,131136.0,Note On,0,3.0,69.0,64.0,0,5,656.0,5.0,3.0,69.0,a',64.0
6883,131136.0,Note On,0,3.0,69.0,64.0,0,5,60.0,12.0,10.0,50.0,d,48.0
6884,131236.0,Controller,0,3.0,1.0,1.0,0,5,,,,,,
6885,131292.0,Controller,0,3.0,1.0,4.0,0,5,,,,,,
6886,131332.0,Controller,0,3.0,1.0,9.0,0,5,,,,,,
6887,131368.0,Controller,0,3.0,1.0,12.0,0,5,,,,,,
6888,131392.0,Controller,0,3.0,1.0,13.0,0,5,,,,,,
6889,131420.0,Controller,0,3.0,1.0,16.0,0,5,,,,,,
6890,131456.0,Controller,0,3.0,1.0,19.0,0,5,,,,,,
6891,131488.0,Controller,0,3.0,1.0,22.0,0,5,,,,,,
6892,131516.0,Controller,0,3.0,1.0,23.0,0,5,56.0,11.0,9.0,42.0,F#,23.0
6893,131552.0,Controller,0,3.0,1.0,26.0,0,5,,,,,,
6894,131588.0,Controller,0,3.0,1.0,28.0,0,5,,,,,,
6895,131616.0,Controller,0,3.0,1.0,30.0,0,5,,,,,,
6896,131652.0,Controller,0,3.0,1.0,18.0,0,5,,,,,,
6897,131692.0,Controller,0,3.0,1.0,0.0,0,5,,,,,,
6898,131792.0,Note Off,0,3.0,69.0,64.0,0,5,,,,,,
6899,132080.0,Note On,0,3.0,73.0,73.0,0,5,352.0,5.0,3.0,73.0,c#'',73.0
6900,132136.0,Controller,0,3.0,1.0,8.0,0,5,,,,,,
6901,132160.0,Controller,0,3.0,1.0,13.0,0,5,,,,,,
6902,132192.0,Controller,0,3.0,1.0,20.0,0,5,,,,,,
6903,132232.0,Controller,0,3.0,1.0,26.0,0,5,,,,,,
6904,132300.0,Controller,0,3.0,1.0,15.0,0,5,,,,,,
6905,132336.0,Controller,0,3.0,1.0,1.0,0,5,,,,,,
6906,132364.0,Controller,0,3.0,1.0,0.0,0,5,,,,,,
6907,132432.0,Note Off,0,3.0,73.0,73.0,0,5,,,,,,
6908,132476.0,Note On,0,3.0,71.0,64.0,0,5,340.0,5.0,3.0,71.0,b',64.0
6909,132544.0,Controller,0,3.0,1.0,4.0,0,5,,,,,,
6910,132572.0,Controller,0,3.0,1.0,19.0,0,5,,,,,,
6911,132608.0,Controller,0,3.0,1.0,28.0,0,5,,,,,,
6912,132660.0,Controller,0,3.0,1.0,22.0,0,5,,,,,,
6913,132700.0,Controller,0,3.0,1.0,3.0,0,5,,,,,,
6914,132736.0,Controller,0,3.0,1.0,0.0,0,5,,,,,,
6915,132816.0,Note Off,0,3.0,71.0,64.0,0,5,,,,,,
6916,132860.0,Note On,0,3.0,69.0,60.0,0,5,368.0,2.0,0.0,42.0,F#,101.0
6917,132860.0,Note On,0,3.0,69.0,60.0,0,5,360.0,2.0,0.0,61.0,c#',83.0
6918,132860.0,Note On,0,3.0,69.0,60.0,0,5,368.0,5.0,3.0,69.0,a',60.0
6919,132860.0,Controller,0,3.0,1.0,1.0,0,5,368.0,2.0,0.0,42.0,F#,101.0
6920,132860.0,Controller,0,3.0,1.0,1.0,0,5,360.0,2.0,0.0,61.0,c#',83.0
6921,132860.0,Controller,0,3.0,1.0,1.0,0,5,368.0,5.0,3.0,69.0,a',60.0
6922,132892.0,Controller,0,3.0,1.0,6.0,0,5,,,,,,
6923,132932.0,Controller,0,3.0,1.0,16.0,0,5,,,,,,
6924,132956.0,Controller,0,3.0,1.0,19.0,0,5,,,,,,
6925,132984.0,Controller,0,3.0,1.0,30.0,0,5,,,,,,
6926,133020.0,Controller,0,3.0,1.0,38.0,0,5,,,,,,
6927,133056.0,Controller,0,3.0,1.0,43.0,0,5,,,,,,
6928,133112.0,Controller,0,3.0,1.0,41.0,0,5,,,,,,
6929,133144.0,Controller,0,3.0,1.0,30.0,0,5,,,,,,
6930,133184.0,Controller,0,3.0,1.0,14.0,0,5,,,,,,
6931,133220.0,Controller,0,3.0,1.0,1.0,0,5,,,,,,
6932,133228.0,Note Off,0,3.0,69.0,60.0,0,5,,,,,,
6933,133248.0,Controller,0,3.0,1.0,0.0,0,5,376.0,2.0,0.0,62.0,d',74.0
6934,133248.0,Controller,0,3.0,1.0,0.0,0,5,316.0,3.0,1.0,26.0,"D,",82.0
6935,133248.0,Controller,0,3.0,1.0,0.0,0,5,140.0,11.0,9.0,42.0,F#,72.0
6936,133432.0,Note On,0,3.0,62.0,73.0,0,5,224.0,5.0,3.0,62.0,d',73.0
6937,133604.0,Controller,0,3.0,1.0,6.0,0,5,,,,,,
6938,133632.0,Controller,0,3.0,1.0,19.0,0,5,756.0,2.0,0.0,61.0,c#',83.0
6939,133632.0,Controller,0,3.0,1.0,19.0,0,5,760.0,2.0,0.0,66.0,f#',84.0
6940,133632.0,Controller,0,3.0,1.0,19.0,0,5,720.0,3.0,1.0,34.0,"A#,",82.0
6941,133632.0,Controller,0,3.0,1.0,19.0,0,5,96.0,11.0,9.0,35.0,"B,",82.0
6942,133632.0,Controller,0,3.0,1.0,19.0,0,5,108.0,11.0,9.0,42.0,F#,72.0
6943,133632.0,Controller,0,3.0,1.0,19.0,0,5,80.0,11.0,9.0,52.0,e,64.0
6944,133640.0,Note On,0,3.0,66.0,73.0,0,5,220.0,5.0,3.0,66.0,f#',73.0
6945,133656.0,Note Off,0,3.0,62.0,73.0,0,5,,,,,,
6946,133668.0,Controller,0,3.0,1.0,26.0,0,5,,,,,,
6947,133700.0,Controller,0,3.0,1.0,25.0,0,5,,,,,,
6948,133724.0,Controller,0,3.0,1.0,20.0,0,5,,,,,,
6949,133764.0,Controller,0,3.0,1.0,10.0,0,5,,,,,,
6950,133792.0,Controller,0,3.0,1.0,2.0,0,5,,,,,,
6951,133852.0,Controller,0,3.0,1.0,0.0,0,5,,,,,,
6952,133860.0,Note Off,0,3.0,66.0,73.0,0,5,,,,,,
6953,133892.0,Note On,0,3.0,69.0,73.0,0,5,212.0,5.0,3.0,69.0,a',73.0
6954,134104.0,Note Off,0,3.0,69.0,73.0,0,5,,,,,,
6955,134148.0,Note On,0,3.0,71.0,73.0,0,5,184.0,5.0,3.0,71.0,b',73.0
6956,134332.0,Note Off,0,3.0,71.0,73.0,0,5,,,,,,
6957,134392.0,Note On,0,3.0,62.0,73.0,0,5,436.0,5.0,3.0,62.0,d',73.0
6958,134440.0,Controller,0,3.0,1.0,1.0,0,5,,,,,,
6959,134500.0,Controller,0,3.0,1.0,3.0,0,5,,,,,,
6960,134536.0,Controller,0,3.0,1.0,10.0,0,5,,,,,,
6961,134576.0,Controller,0,3.0,1.0,14.0,0,5,,,,,,
6962,134604.0,Controller,0,3.0,1.0,22.0,0,5,,,,,,
6963,134640.0,Controller,0,3.0,1.0,26.0,0,5,,,,,,
6964,134672.0,Controller,0,3.0,1.0,27.0,0,5,,,,,,
6965,134712.0,Controller,0,3.0,1.0,20.0,0,5,,,,,,
6966,134748.0,Controller,0,3.0,1.0,1.0,0,5,,,,,,
6967,134772.0,Controller,0,3.0,1.0,0.0,0,5,356.0,2.0,0.0,66.0,f#',101.0
6968,134828.0,Note Off,0,3.0,62.0,73.0,0,5,,,,,,
6969,135156.0,Note On,0,3.0,66.0,64.0,0,5,264.0,5.0,3.0,66.0,f#',64.0
6970,135184.0,Controller,0,3.0,1.0,1.0,0,5,,,,,,
6971,135240.0,Controller,0,3.0,1.0,13.0,0,5,,,,,,
6972,135268.0,Controller,0,3.0,1.0,27.0,0,5,,,,,,
6973,135304.0,Controller,0,3.0,1.0,37.0,0,5,,,,,,
6974,135340.0,Controller,0,3.0,1.0,40.0,0,5,,,,,,
6975,135380.0,Controller,0,3.0,1.0,34.0,0,5,,,,,,
6976,135416.0,Controller,0,3.0,1.0,20.0,0,5,,,,,,
6977,135420.0,Note Off,0,3.0,66.0,64.0,0,5,,,,,,
6978,135436.0,Note On,0,3.0,69.0,73.0,0,5,196.0,5.0,3.0,69.0,a',73.0
6979,135452.0,Controller,0,3.0,1.0,1.0,0,5,,,,,,
6980,135488.0,Controller,0,3.0,1.0,0.0,0,5,,,,,,
6981,135632.0,Note Off,0,3.0,69.0,73.0,0,5,,,,,,
6982,135688.0,Note On,0,3.0,71.0,64.0,0,5,188.0,5.0,3.0,71.0,b',64.0
6983,135876.0,Note Off,0,3.0,71.0,64.0,0,5,,,,,,
6984,135924.0,Note On,0,3.0,62.0,73.0,0,5,508.0,5.0,3.0,62.0,d',73.0
6985,135988.0,Controller,0,3.0,1.0,1.0,0,5,,,,,,
6986,136024.0,Controller,0,3.0,1.0,5.0,0,5,,,,,,
6987,136048.0,Controller,0,3.0,1.0,8.0,0,5,,,,,,
6988,136084.0,Controller,0,3.0,1.0,15.0,0,5,,,,,,
6989,136120.0,Controller,0,3.0,1.0,21.0,0,5,,,,,,
6990,136152.0,Controller,0,3.0,1.0,27.0,0,5,,,,,,
6991,136188.0,Controller,0,3.0,1.0,31.0,0,5,,,,,,
6992,136224.0,Controller,0,3.0,1.0,35.0,0,5,,,,,,
6993,136260.0,Controller,0,3.0,1.0,40.0,0,5,,,,,,
6994,136296.0,Controller,0,3.0,1.0,43.0,0,5,,,,,,
6995,136368.0,Controller,0,3.0,1.0,36.0,0,5,,,,,,
6996,136404.0,Controller,0,3.0,1.0,18.0,0,5,,,,,,
6997,136432.0,Note Off,0,3.0,62.0,73.0,0,5,,,,,,
6998,136444.0,Controller,0,3.0,1.0,0.0,0,5,,,,,,
6999,136508.0,Note On,0,3.0,66.0,56.0,0,5,180.0,5.0,3.0,66.0,f#',56.0
7000,136688.0,Note Off,0,3.0,66.0,56.0,0,5,,,,,,
7001,136704.0,Note On,0,3.0,67.0,73.0,0,5,700.0,3.0,1.0,36.0,C,82.0
7002,136704.0,Note On,0,3.0,67.0,73.0,0,5,328.0,5.0,3.0,67.0,g',73.0
7003,136704.0,Note On,0,3.0,67.0,73.0,0,5,96.0,11.0,9.0,35.0,"B,",82.0
7004,136704.0,Note On,0,3.0,67.0,73.0,0,5,108.0,11.0,9.0,42.0,F#,72.0
7005,136704.0,Note On,0,3.0,67.0,73.0,0,5,80.0,11.0,9.0,52.0,e,64.0
7006,136752.0,Controller,0,3.0,1.0,1.0,0,5,,,,,,
7007,136784.0,Controller,0,3.0,1.0,13.0,0,5,,,,,,
7008,136820.0,Controller,0,3.0,1.0,21.0,0,5,,,,,,
7009,136852.0,Controller,0,3.0,1.0,26.0,0,5,,,,,,
7010,136876.0,Controller,0,3.0,1.0,29.0,0,5,,,,,,
7011,136912.0,Controller,0,3.0,1.0,31.0,0,5,,,,,,
7012,137004.0,Controller,0,3.0,1.0,27.0,0,5,,,,,,
7013,137032.0,Note Off,0,3.0,67.0,73.0,0,5,,,,,,
7014,137032.0,Controller,0,3.0,1.0,20.0,0,5,,,,,,
7015,137072.0,Controller,0,3.0,1.0,10.0,0,5,,,,,,
7016,137084.0,Note On,0,3.0,66.0,52.0,0,5,344.0,5.0,3.0,66.0,f#',52.0
7017,137104.0,Controller,0,3.0,1.0,1.0,0,5,,,,,,
7018,137156.0,Controller,0,3.0,1.0,0.0,0,5,,,,,,
7019,137428.0,Note Off,0,3.0,66.0,52.0,0,5,,,,,,
7020,137464.0,Note On,0,3.0,64.0,73.0,0,5,400.0,5.0,3.0,64.0,e',73.0
7021,137528.0,Controller,0,3.0,1.0,1.0,0,5,,,,,,
7022,137560.0,Controller,0,3.0,1.0,5.0,0,5,,,,,,
7023,137592.0,Controller,0,3.0,1.0,15.0,0,5,,,,,,
7024,137628.0,Controller,0,3.0,1.0,22.0,0,5,,,,,,
7025,137664.0,Controller,0,3.0,1.0,29.0,0,5,,,,,,
7026,137700.0,Controller,0,3.0,1.0,32.0,0,5,,,,,,
7027,137808.0,Controller,0,3.0,1.0,26.0,0,5,,,,,,
7028,137844.0,Controller,0,3.0,1.0,16.0,0,5,,,,,,
7029,137864.0,Note Off,0,3.0,64.0,73.0,0,5,292.0,5.0,3.0,62.0,d',64.0
7030,137864.0,Note On,0,3.0,62.0,64.0,0,5,292.0,5.0,3.0,62.0,d',64.0
7031,137884.0,Controller,0,3.0,1.0,1.0,0,5,,,,,,
7032,137916.0,Controller,0,3.0,1.0,0.0,0,5,,,,,,
7033,138156.0,Note Off,0,3.0,62.0,64.0,0,5,,,,,,
7034,138240.0,Note On,0,3.0,62.0,73.0,0,5,812.0,2.0,0.0,47.0,B,83.0
7035,138240.0,Note On,0,3.0,62.0,73.0,0,5,1500.0,3.0,1.0,35.0,"B,",82.0
7036,138240.0,Note On,0,3.0,62.0,73.0,0,5,1424.0,5.0,3.0,62.0,d',73.0
7037,138240.0,Note On,0,3.0,62.0,73.0,0,5,80.0,11.0,9.0,49.0,c#,34.0
7038,138404.0,Controller,0,3.0,1.0,1.0,0,5,,,,,,
7039,138492.0,Controller,0,3.0,1.0,3.0,0,5,,,,,,
7040,138528.0,Controller,0,3.0,1.0,6.0,0,5,,,,,,
7041,138552.0,Controller,0,3.0,1.0,8.0,0,5,,,,,,
7042,138588.0,Controller,0,3.0,1.0,11.0,0,5,,,,,,
7043,138612.0,Controller,0,3.0,1.0,12.0,0,5,,,,,,
7044,138636.0,Controller,0,3.0,1.0,15.0,0,5,,,,,,
7045,138672.0,Controller,0,3.0,1.0,18.0,0,5,,,,,,
7046,138700.0,Controller,0,3.0,1.0,19.0,0,5,,,,,,
7047,138724.0,Controller,0,3.0,1.0,22.0,0,5,,,,,,
7048,138768.0,Controller,0,3.0,1.0,24.0,0,5,,,,,,
7049,138796.0,Controller,0,3.0,1.0,25.0,0,5,,,,,,
7050,138828.0,Controller,0,3.0,1.0,27.0,0,5,240.0,2.0,0.0,62.0,d',83.0
7051,138864.0,Controller,0,3.0,1.0,29.0,0,5,,,,,,
7052,138888.0,Controller,0,3.0,1.0,32.0,0,5,,,,,,
7053,138916.0,Controller,0,3.0,1.0,33.0,0,5,,,,,,
7054,138940.0,Controller,0,3.0,1.0,35.0,0,5,,,,,,
7055,138976.0,Controller,0,3.0,1.0,36.0,0,5,,,,,,
7056,139000.0,Controller,0,3.0,1.0,37.0,0,5,792.0,2.0,0.0,66.0,f#',54.0
7057,139112.0,Controller,0,3.0,1.0,36.0,0,5,,,,,,
7058,139164.0,Controller,0,3.0,1.0,34.0,0,5,,,,,,
7059,139192.0,Controller,0,3.0,1.0,31.0,0,5,,,,,,
7060,139240.0,Controller,0,3.0,1.0,29.0,0,5,,,,,,
7061,139276.0,Controller,0,3.0,1.0,27.0,0,5,,,,,,
7062,139300.0,Controller,0,3.0,1.0,24.0,0,5,,,,,,
7063,139336.0,Controller,0,3.0,1.0,23.0,0,5,,,,,,
7064,139360.0,Controller,0,3.0,1.0,21.0,0,5,,,,,,
7065,139400.0,Controller,0,3.0,1.0,18.0,0,5,,,,,,
7066,139432.0,Controller,0,3.0,1.0,14.0,0,5,,,,,,
7067,139464.0,Controller,0,3.0,1.0,9.0,0,5,,,,,,
7068,139500.0,Controller,0,3.0,1.0,2.0,0,5,,,,,,
7069,139568.0,Controller,0,3.0,1.0,0.0,0,5,,,,,,
7070,139664.0,Note Off,0,3.0,62.0,73.0,0,5,,,,,,
7071,141888.0,Note On,0,3.0,66.0,31.0,0,5,176.0,5.0,3.0,66.0,f#',31.0
7072,142064.0,Note Off,0,3.0,66.0,31.0,0,5,,,,,,
7073,142088.0,Note On,0,3.0,67.0,64.0,0,5,300.0,5.0,3.0,67.0,g',64.0
7074,142156.0,Controller,0,3.0,1.0,3.0,0,5,,,,,,
7075,142184.0,Controller,0,3.0,1.0,12.0,0,5,,,,,,
7076,142216.0,Controller,0,3.0,1.0,19.0,0,5,,,,,,
7077,142256.0,Controller,0,3.0,1.0,22.0,0,5,,,,,,
7078,142312.0,Controller,0,3.0,1.0,19.0,0,5,,,,,,
7079,142344.0,Controller,0,3.0,1.0,10.0,0,5,,,,,,
7080,142380.0,Controller,0,3.0,1.0,1.0,0,5,,,,,,
7081,142388.0,Note Off,0,3.0,67.0,64.0,0,5,,,,,,
7082,142416.0,Controller,0,3.0,1.0,0.0,0,5,,,,,,
7083,142468.0,Note On,0,3.0,71.0,60.0,0,5,380.0,2.0,0.0,71.0,b',85.0
7084,142468.0,Note On,0,3.0,71.0,60.0,0,5,328.0,5.0,3.0,71.0,b',60.0
7085,142796.0,Note Off,0,3.0,71.0,60.0,0,5,,,,,,
7086,142844.0,Note On,0,3.0,69.0,56.0,0,5,1620.0,5.0,3.0,69.0,a',56.0
7087,143024.0,Controller,0,3.0,1.0,1.0,0,5,,,,,,
7088,143136.0,Controller,0,3.0,1.0,3.0,0,5,,,,,,
7089,143184.0,Controller,0,3.0,1.0,6.0,0,5,,,,,,
7090,143212.0,Controller,0,3.0,1.0,8.0,0,5,,,,,,
7091,143260.0,Controller,0,3.0,1.0,11.0,0,5,,,,,,
7092,143304.0,Controller,0,3.0,1.0,12.0,0,5,,,,,,
7093,143340.0,Controller,0,3.0,1.0,13.0,0,5,,,,,,
7094,143400.0,Controller,0,3.0,1.0,15.0,0,5,,,,,,
7095,143420.0,Note On,0,3.0,57.0,43.0,0,5,204.0,5.0,3.0,57.0,a,43.0
7096,143428.0,Controller,0,3.0,1.0,17.0,0,5,,,,,,
7097,143476.0,Controller,0,3.0,1.0,18.0,0,5,,,,,,
7098,143512.0,Controller,0,3.0,1.0,19.0,0,5,,,,,,
7099,143540.0,Controller,0,3.0,1.0,20.0,0,5,,,,,,
7100,143564.0,Controller,0,3.0,1.0,21.0,0,5,,,,,,
7101,143616.0,Note On,0,3.0,66.0,61.0,0,5,324.0,5.0,3.0,66.0,f#',61.0
7102,143624.0,Note Off,0,3.0,57.0,43.0,0,5,,,,,,
7103,143712.0,Controller,0,3.0,1.0,22.0,0,5,,,,,,
7104,143800.0,Controller,0,3.0,1.0,24.0,0,5,220.0,2.0,0.0,57.0,a,58.0
7105,143828.0,Controller,0,3.0,1.0,25.0,0,5,,,,,,
7106,143856.0,Controller,0,3.0,1.0,26.0,0,5,,,,,,
7107,143880.0,Controller,0,3.0,1.0,27.0,0,5,,,,,,
7108,143916.0,Controller,0,3.0,1.0,28.0,0,5,,,,,,
7109,143940.0,Note Off,0,3.0,66.0,61.0,0,5,,,,,,
7110,143996.0,Note On,0,3.0,64.0,49.0,0,5,228.0,2.0,0.0,61.0,c#',83.0
7111,143996.0,Note On,0,3.0,64.0,49.0,0,5,360.0,5.0,3.0,64.0,e',49.0
7112,144064.0,Controller,0,3.0,1.0,27.0,0,5,,,,,,
7113,144096.0,Controller,0,3.0,1.0,25.0,0,5,,,,,,
7114,144124.0,Controller,0,3.0,1.0,23.0,0,5,,,,,,
7115,144164.0,Controller,0,3.0,1.0,20.0,0,5,,,,,,
7116,144196.0,Controller,0,3.0,1.0,18.0,0,5,,,,,,
7117,144236.0,Controller,0,3.0,1.0,15.0,0,5,,,,,,
7118,144260.0,Controller,0,3.0,1.0,14.0,0,5,,,,,,
7119,144288.0,Controller,0,3.0,1.0,11.0,0,5,,,,,,
7120,144324.0,Controller,0,3.0,1.0,6.0,0,5,,,,,,
7121,144356.0,Note Off,0,3.0,64.0,49.0,0,5,,,,,,
7122,144360.0,Controller,0,3.0,1.0,1.0,0,5,,,,,,
7123,144380.0,Note On,0,3.0,62.0,40.0,0,5,556.0,5.0,3.0,62.0,d',40.0
7124,144404.0,Controller,0,3.0,1.0,0.0,0,5,,,,,,
7125,144464.0,Note Off,0,3.0,69.0,56.0,0,5,,,,,,
7126,144936.0,Note Off,0,3.0,62.0,40.0,0,5,,,,,,
7127,144964.0,Note On,0,3.0,66.0,40.0,0,5,176.0,5.0,3.0,66.0,f#',40.0
7128,145140.0,Note Off,0,3.0,66.0,40.0,0,5,,,,,,
7129,145164.0,Note On,0,3.0,67.0,64.0,0,5,284.0,5.0,3.0,67.0,g',64.0
7130,145448.0,Note Off,0,3.0,67.0,64.0,0,5,,,,,,
7131,145528.0,Note On,0,3.0,71.0,64.0,0,5,312.0,5.0,3.0,71.0,b',64.0
7132,145840.0,Note Off,0,3.0,71.0,64.0,0,5,,,,,,
7133,145904.0,Note On,0,3.0,69.0,64.0,0,5,1584.0,5.0,3.0,69.0,a',64.0
7134,146340.0,Controller,0,3.0,1.0,1.0,0,5,,,,,,
7135,146448.0,Controller,0,3.0,1.0,3.0,0,5,,,,,,
7136,146484.0,Controller,0,3.0,1.0,8.0,0,5,,,,,,
7137,146528.0,Controller,0,3.0,1.0,10.0,0,5,,,,,,
7138,146572.0,Controller,0,3.0,1.0,12.0,0,5,,,,,,
7139,146600.0,Controller,0,3.0,1.0,13.0,0,5,,,,,,
7140,146648.0,Controller,0,3.0,1.0,15.0,0,5,,,,,,
7141,146684.0,Note On,0,3.0,66.0,52.0,0,5,232.0,5.0,3.0,66.0,f#',52.0
7142,146696.0,Controller,0,3.0,1.0,17.0,0,5,,,,,,
7143,146740.0,Controller,0,3.0,1.0,18.0,0,5,,,,,,
7144,146772.0,Controller,0,3.0,1.0,19.0,0,5,,,,,,
7145,146804.0,Controller,0,3.0,1.0,20.0,0,5,,,,,,
7146,146916.0,Note Off,0,3.0,66.0,52.0,0,5,,,,,,
7147,146940.0,Note On,0,3.0,64.0,48.0,0,5,224.0,5.0,3.0,64.0,e',48.0
7148,146972.0,Controller,0,3.0,1.0,21.0,0,5,,,,,,
7149,147076.0,Controller,0,3.0,1.0,20.0,0,5,188.0,2.0,0.0,52.0,e,40.0
7150,147116.0,Controller,0,3.0,1.0,18.0,0,5,,,,,,
7151,147144.0,Controller,0,3.0,1.0,17.0,0,5,,,,,,
7152,147164.0,Note Off,0,3.0,64.0,48.0,0,5,,,,,,
7153,147188.0,Note On,0,3.0,62.0,64.0,0,5,248.0,5.0,3.0,62.0,d',64.0
7154,147196.0,Controller,0,3.0,1.0,15.0,0,5,,,,,,
7155,147228.0,Controller,0,3.0,1.0,13.0,0,5,,,,,,
7156,147260.0,Controller,0,3.0,1.0,10.0,0,5,188.0,2.0,0.0,59.0,b,74.0
7157,147292.0,Controller,0,3.0,1.0,7.0,0,5,,,,,,
7158,147320.0,Controller,0,3.0,1.0,5.0,0,5,,,,,,
7159,147348.0,Controller,0,3.0,1.0,1.0,0,5,,,,,,
7160,147392.0,Controller,0,3.0,1.0,0.0,0,5,,,,,,
7161,147436.0,Note Off,0,3.0,62.0,64.0,0,5,,,,,,
7162,147444.0,Note On,0,3.0,57.0,52.0,0,5,516.0,5.0,3.0,57.0,a,52.0
7163,147488.0,Note Off,0,3.0,69.0,64.0,0,5,,,,,,
7164,147960.0,Note Off,0,3.0,57.0,52.0,0,5,,,,,,
7165,148028.0,Note On,0,3.0,74.0,48.0,0,5,196.0,5.0,3.0,74.0,d'',48.0
7166,148216.0,Note On,0,3.0,73.0,56.0,0,5,180.0,5.0,3.0,73.0,c#'',56.0
7167,148224.0,Note Off,0,3.0,74.0,48.0,0,5,,,,,,
7168,148396.0,Note Off,0,3.0,73.0,56.0,0,5,,,,,,
7169,148408.0,Note On,0,3.0,71.0,73.0,0,5,176.0,5.0,3.0,71.0,b',73.0
7170,148584.0,Note Off,0,3.0,71.0,73.0,0,5,,,,,,
7171,148608.0,Note On,0,3.0,69.0,60.0,0,5,344.0,5.0,3.0,69.0,a',60.0
7172,148608.0,Note On,0,3.0,69.0,60.0,0,5,352.0,11.0,9.0,81.0,a'',52.0
7173,148952.0,Note Off,0,3.0,69.0,60.0,0,5,,,,,,
7174,148992.0,Note On,0,3.0,69.0,56.0,0,5,1524.0,5.0,3.0,69.0,a',56.0
7175,148992.0,Note On,0,3.0,69.0,56.0,0,5,48.0,11.0,9.0,55.0,g,38.0
7176,148992.0,Note On,0,3.0,69.0,56.0,0,5,48.0,11.0,9.0,59.0,b,64.0
7177,148992.0,Note On,0,3.0,69.0,56.0,0,5,112.0,11.0,9.0,70.0,a#',69.0
7178,149144.0,Controller,0,3.0,1.0,1.0,0,5,,,,,,
7179,149308.0,Controller,0,3.0,1.0,4.0,0,5,,,,,,
7180,149348.0,Controller,0,3.0,1.0,7.0,0,5,,,,,,
7181,149392.0,Controller,0,3.0,1.0,9.0,0,5,,,,,,
7182,149416.0,Controller,0,3.0,1.0,12.0,0,5,,,,,,
7183,149456.0,Controller,0,3.0,1.0,16.0,0,5,,,,,,
7184,149496.0,Controller,0,3.0,1.0,18.0,0,5,,,,,,
7185,149540.0,Controller,0,3.0,1.0,20.0,0,5,,,,,,
7186,149572.0,Controller,0,3.0,1.0,22.0,0,5,,,,,,
7187,149600.0,Controller,0,3.0,1.0,23.0,0,5,,,,,,
7188,149636.0,Controller,0,3.0,1.0,24.0,0,5,,,,,,
7189,149684.0,Controller,0,3.0,1.0,25.0,0,5,,,,,,
7190,149748.0,Note On,0,3.0,62.0,48.0,0,5,224.0,5.0,3.0,62.0,d',48.0
7191,149776.0,Controller,0,3.0,1.0,26.0,0,5,,,,,,
7192,149928.0,Controller,0,3.0,1.0,25.0,0,5,,,,,,
7193,149968.0,Note On,0,3.0,61.0,48.0,0,5,232.0,5.0,3.0,61.0,c#',48.0
7194,149972.0,Note Off,0,3.0,62.0,48.0,0,5,,,,,,
7195,150028.0,Controller,0,3.0,1.0,23.0,0,5,,,,,,
7196,150052.0,Controller,0,3.0,1.0,22.0,0,5,,,,,,
7197,150100.0,Controller,0,3.0,1.0,20.0,0,5,,,,,,
7198,150132.0,Controller,0,3.0,1.0,18.0,0,5,,,,,,
7199,150160.0,Controller,0,3.0,1.0,16.0,0,5,,,,,,
7200,150192.0,Controller,0,3.0,1.0,13.0,0,5,,,,,,
7201,150200.0,Note Off,0,3.0,61.0,48.0,0,5,,,,,,
7202,150220.0,Note On,0,3.0,59.0,48.0,0,5,244.0,5.0,3.0,59.0,b,48.0
7203,150220.0,Controller,0,3.0,1.0,12.0,0,5,244.0,5.0,3.0,59.0,b,48.0
7204,150244.0,Controller,0,3.0,1.0,11.0,0,5,,,,,,
7205,150276.0,Controller,0,3.0,1.0,10.0,0,5,,,,,,
7206,150320.0,Controller,0,3.0,1.0,7.0,0,5,,,,,,
7207,150352.0,Controller,0,3.0,1.0,3.0,0,5,,,,,,
7208,150376.0,Controller,0,3.0,1.0,1.0,0,5,,,,,,
7209,150432.0,Controller,0,3.0,1.0,0.0,0,5,,,,,,
7210,150464.0,Note Off,0,3.0,59.0,48.0,0,5,,,,,,
7211,150472.0,Note On,0,3.0,57.0,40.0,0,5,572.0,5.0,3.0,57.0,a,40.0
7212,150516.0,Note Off,0,3.0,69.0,56.0,0,5,,,,,,
7213,151044.0,Note Off,0,3.0,57.0,40.0,0,5,,,,,,
7214,151292.0,Note On,0,3.0,66.0,58.0,0,5,248.0,5.0,3.0,66.0,f#',58.0
7215,151540.0,Note Off,0,3.0,66.0,58.0,0,5,,,,,,
7216,151564.0,Note On,0,3.0,66.0,58.0,0,5,240.0,5.0,3.0,66.0,f#',58.0
7217,151804.0,Note Off,0,3.0,66.0,58.0,0,5,,,,,,
7218,151820.0,Note On,0,3.0,64.0,60.0,0,5,1656.0,5.0,3.0,64.0,e',60.0
7219,153476.0,Note Off,0,3.0,64.0,60.0,0,5,,,,,,
7220,153576.0,Note On,0,3.0,66.0,32.0,0,5,1484.0,5.0,3.0,66.0,f#',32.0
7221,153880.0,Controller,0,3.0,1.0,1.0,0,5,,,,,,
7222,154008.0,Controller,0,3.0,1.0,6.0,0,5,,,,,,
7223,154048.0,Controller,0,3.0,1.0,9.0,0,5,,,,,,
7224,154072.0,Controller,0,3.0,1.0,10.0,0,5,,,,,,
7225,154104.0,Controller,0,3.0,1.0,13.0,0,5,,,,,,
7226,154132.0,Controller,0,3.0,1.0,16.0,0,5,,,,,,
7227,154160.0,Controller,0,3.0,1.0,17.0,0,5,,,,,,
7228,154188.0,Controller,0,3.0,1.0,18.0,0,5,,,,,,
7229,154232.0,Controller,0,3.0,1.0,20.0,0,5,,,,,,
7230,154264.0,Controller,0,3.0,1.0,22.0,0,5,,,,,,
7231,154304.0,Controller,0,3.0,1.0,24.0,0,5,,,,,,
7232,154344.0,Controller,0,3.0,1.0,26.0,0,5,,,,,,
7233,154384.0,Controller,0,3.0,1.0,28.0,0,5,,,,,,
7234,154424.0,Controller,0,3.0,1.0,30.0,0,5,,,,,,
7235,154448.0,Controller,0,3.0,1.0,31.0,0,5,,,,,,
7236,154484.0,Controller,0,3.0,1.0,32.0,0,5,,,,,,
7237,154516.0,Controller,0,3.0,1.0,33.0,0,5,,,,,,
7238,154552.0,Controller,0,3.0,1.0,34.0,0,5,,,,,,
7239,154576.0,Controller,0,3.0,1.0,35.0,0,5,,,,,,
7240,154644.0,Controller,0,3.0,1.0,36.0,0,5,,,,,,
7241,154808.0,Controller,0,3.0,1.0,35.0,0,5,,,,,,
7242,154844.0,Controller,0,3.0,1.0,34.0,0,5,,,,,,
7243,154868.0,Controller,0,3.0,1.0,33.0,0,5,,,,,,
7244,154896.0,Controller,0,3.0,1.0,32.0,0,5,,,,,,
7245,154924.0,Controller,0,3.0,1.0,31.0,0,5,356.0,2.0,0.0,57.0,a,85.0
7246,154948.0,Controller,0,3.0,1.0,30.0,0,5,,,,,,
7247,154988.0,Controller,0,3.0,1.0,27.0,0,5,,,,,,
7248,155016.0,Controller,0,3.0,1.0,23.0,0,5,,,,,,
7249,155052.0,Controller,0,3.0,1.0,18.0,0,5,,,,,,
7250,155060.0,Note Off,0,3.0,66.0,32.0,0,5,,,,,,
7251,155088.0,Controller,0,3.0,1.0,10.0,0,5,,,,,,
7252,155124.0,Controller,0,3.0,1.0,3.0,0,5,,,,,,
7253,155148.0,Controller,0,3.0,1.0,0.0,0,5,,,,,,
7254,165180.0,Controller,0,3.0,121.0,127.0,0,5,,,,,,
7255,165888.0,End of Track,2f,0.0,0.0,0.0,0,5,,,,,,
7256,0.0,Sequence/Track Name,03,0.0,0.0,0.0,OVERDRIVE,6,,,,,,
7257,464.0,Controller,0,4.0,0.0,0.0,0,6,,,,,,
7258,472.0,Program Change,0,4.0,29.0,0.0,0,6,,,,,,
7259,476.0,Controller,0,4.0,7.0,127.0,0,6,,,,,,
7260,476.0,Controller,0,4.0,10.0,64.0,0,6,,,,,,
7261,476.0,Controller,0,4.0,11.0,127.0,0,6,,,,,,
7262,480.0,Controller,0,4.0,91.0,100.0,0,6,,,,,,
7263,480.0,Controller,0,4.0,93.0,0.0,0,6,,,,,,
7264,23520.0,Pitch Bend,0,4.0,4.0,66.0,0,6,,,,,,
7265,23536.0,Pitch Bend,0,4.0,12.0,70.0,0,6,,,,,,
7266,23552.0,Pitch Bend,0,4.0,26.0,77.0,0,6,,,,,,
7267,23572.0,Pitch Bend,0,4.0,42.0,85.0,0,6,,,,,,
7268,23592.0,Pitch Bend,0,4.0,60.0,94.0,0,6,,,,,,
7269,23612.0,Pitch Bend,0,4.0,82.0,105.0,0,6,392.0,9.0,7.0,67.0,g',48.0
7270,23628.0,Pitch Bend,0,4.0,98.0,113.0,0,6,,,,,,
7271,23644.0,Pitch Bend,0,4.0,114.0,121.0,0,6,,,,,,
7272,23660.0,Pitch Bend,0,4.0,126.0,127.0,0,6,,,,,,
7273,23808.0,Note On,0,4.0,82.0,64.0,0,6,740.0,6.0,4.0,82.0,a#'',64.0
7274,23808.0,Note On,0,4.0,82.0,64.0,0,6,96.0,11.0,9.0,54.0,f#,91.0
7275,24104.0,Pitch Bend,0,4.0,122.0,125.0,0,6,,,,,,
7276,24120.0,Pitch Bend,0,4.0,112.0,120.0,0,6,,,,,,
7277,24136.0,Pitch Bend,0,4.0,100.0,114.0,0,6,,,,,,
7278,24156.0,Pitch Bend,0,4.0,88.0,108.0,0,6,,,,,,
7279,24176.0,Pitch Bend,0,4.0,78.0,103.0,0,6,,,,,,
7280,24196.0,Pitch Bend,0,4.0,66.0,97.0,0,6,192.0,2.0,0.0,70.0,a#',74.0
7281,24212.0,Pitch Bend,0,4.0,56.0,92.0,0,6,,,,,,
7282,24228.0,Pitch Bend,0,4.0,46.0,87.0,0,6,,,,,,
7283,24244.0,Pitch Bend,0,4.0,38.0,83.0,0,6,,,,,,
7284,24264.0,Pitch Bend,0,4.0,30.0,79.0,0,6,,,,,,
7285,24280.0,Pitch Bend,0,4.0,26.0,77.0,0,6,,,,,,
7286,24300.0,Pitch Bend,0,4.0,16.0,72.0,0,6,,,,,,
7287,24316.0,Pitch Bend,0,4.0,10.0,69.0,0,6,,,,,,
7288,24336.0,Pitch Bend,0,4.0,0.0,64.0,0,6,,,,,,
7289,24548.0,Note Off,0,4.0,82.0,64.0,0,6,,,,,,
7290,97920.0,Note On,0,4.0,57.0,109.0,0,6,344.0,3.0,1.0,32.0,"G#,",82.0
7291,97920.0,Note On,0,4.0,57.0,109.0,0,6,340.0,5.0,3.0,61.0,c#',73.0
7292,97920.0,Note On,0,4.0,57.0,109.0,0,6,56.0,6.0,4.0,57.0,a,109.0
7293,97920.0,Note On,0,4.0,57.0,109.0,0,6,80.0,11.0,9.0,38.0,D,81.0
7294,97944.0,Note On,0,4.0,56.0,75.0,0,6,52.0,6.0,4.0,56.0,g#,75.0
7295,97960.0,Note On,0,4.0,55.0,78.0,0,6,52.0,6.0,4.0,55.0,g,78.0
7296,97976.0,Note Off,0,4.0,57.0,109.0,0,6,,,,,,
7297,97988.0,Note On,0,4.0,54.0,73.0,0,6,48.0,6.0,4.0,54.0,f#,73.0
7298,97988.0,Note On,0,4.0,54.0,73.0,0,6,64.0,7.0,5.0,51.0,d#,52.0
7299,97996.0,Note Off,0,4.0,56.0,75.0,0,6,,,,,,
7300,98008.0,Note On,0,4.0,53.0,82.0,0,6,48.0,6.0,4.0,53.0,f,82.0
7301,98012.0,Note Off,0,4.0,55.0,78.0,0,6,84.0,11.0,9.0,45.0,A,73.0
7302,98024.0,Note On,0,4.0,52.0,73.0,0,6,48.0,6.0,4.0,52.0,e,73.0
7303,98036.0,Note Off,0,4.0,54.0,73.0,0,6,,,,,,
7304,98048.0,Note On,0,4.0,51.0,64.0,0,6,52.0,6.0,4.0,51.0,d#,64.0
7305,98056.0,Note Off,0,4.0,53.0,82.0,0,6,,,,,,
7306,98072.0,Note Off,0,4.0,52.0,73.0,0,6,,,,,,
7307,98076.0,Note On,0,4.0,50.0,64.0,0,6,48.0,6.0,4.0,50.0,d,64.0
7308,98100.0,Note Off,0,4.0,51.0,64.0,0,6,,,,,,
7309,98104.0,Note On,0,4.0,49.0,60.0,0,6,48.0,6.0,4.0,49.0,c#,60.0
7310,98104.0,Note On,0,4.0,49.0,60.0,0,6,200.0,11.0,9.0,43.0,G,82.0
7311,98124.0,Note Off,0,4.0,50.0,64.0,0,6,,,,,,
7312,98132.0,Note On,0,4.0,48.0,56.0,0,6,48.0,6.0,4.0,48.0,c,56.0
7313,98152.0,Note Off,0,4.0,49.0,60.0,0,6,,,,,,
7314,98160.0,Note On,0,4.0,47.0,56.0,0,6,56.0,6.0,4.0,47.0,B,56.0
7315,98180.0,Note Off,0,4.0,48.0,56.0,0,6,196.0,7.0,5.0,44.0,G#,48.0
7316,98192.0,Note On,0,4.0,46.0,56.0,0,6,80.0,6.0,4.0,46.0,A#,56.0
7317,98216.0,Note Off,0,4.0,47.0,56.0,0,6,,,,,,
7318,98272.0,Note Off,0,4.0,46.0,56.0,0,6,,,,,,
7319,98304.0,Note On,0,4.0,61.0,91.0,0,6,1436.0,2.0,0.0,45.0,A,92.0
7320,98304.0,Note On,0,4.0,61.0,91.0,0,6,492.0,2.0,0.0,52.0,e,83.0
7321,98304.0,Note On,0,4.0,61.0,91.0,0,6,1304.0,3.0,1.0,33.0,"A,",82.0
7322,98304.0,Note On,0,4.0,61.0,91.0,0,6,764.0,4.0,2.0,64.0,e',52.0
7323,98304.0,Note On,0,4.0,61.0,91.0,0,6,400.0,6.0,4.0,61.0,c#',91.0
7324,98304.0,Note On,0,4.0,61.0,91.0,0,6,96.0,11.0,9.0,35.0,"B,",82.0
7325,98304.0,Note On,0,4.0,61.0,91.0,0,6,700.0,11.0,9.0,49.0,c#,64.0
7326,98528.0,Pitch Bend,0,4.0,2.0,65.0,0,6,,,,,,
7327,98548.0,Pitch Bend,0,4.0,10.0,69.0,0,6,,,,,,
7328,98568.0,Pitch Bend,0,4.0,14.0,71.0,0,6,,,,,,
7329,98636.0,Pitch Bend,0,4.0,8.0,68.0,0,6,,,,,,
7330,98656.0,Pitch Bend,0,4.0,0.0,64.0,0,6,,,,,,
7331,98684.0,Note On,0,4.0,59.0,73.0,0,6,192.0,6.0,4.0,59.0,b,73.0
7332,98704.0,Note Off,0,4.0,61.0,91.0,0,6,,,,,,
7333,98868.0,Note On,0,4.0,62.0,93.0,0,6,356.0,2.0,0.0,62.0,d',83.0
7334,98868.0,Note On,0,4.0,62.0,93.0,0,6,372.0,6.0,4.0,62.0,d',93.0
7335,98876.0,Note Off,0,4.0,59.0,73.0,0,6,52.0,11.0,9.0,42.0,F#,31.0
7336,99048.0,Pitch Bend,0,4.0,4.0,66.0,0,6,,,,,,
7337,99064.0,Pitch Bend,0,4.0,14.0,71.0,0,6,,,,,,
7338,99080.0,Pitch Bend,0,4.0,22.0,75.0,0,6,,,,,,
7339,99100.0,Pitch Bend,0,4.0,24.0,76.0,0,6,,,,,,
7340,99124.0,Pitch Bend,0,4.0,16.0,72.0,0,6,,,,,,
7341,99144.0,Pitch Bend,0,4.0,6.0,67.0,0,6,,,,,,
7342,99168.0,Pitch Bend,0,4.0,0.0,64.0,0,6,,,,,,
7343,99240.0,Note Off,0,4.0,62.0,93.0,0,6,,,,,,
7344,99248.0,Note On,0,4.0,61.0,73.0,0,6,216.0,4.0,2.0,85.0,c#''',73.0
7345,99248.0,Note On,0,4.0,61.0,73.0,0,6,196.0,6.0,4.0,61.0,c#',73.0
7346,99432.0,Note On,0,4.0,57.0,78.0,0,6,208.0,6.0,4.0,57.0,a,78.0
7347,99444.0,Note Off,0,4.0,61.0,73.0,0,6,,,,,,
7348,99636.0,Note On,0,4.0,52.0,87.0,0,6,1508.0,6.0,4.0,52.0,e,87.0
7349,99640.0,Note Off,0,4.0,57.0,78.0,0,6,,,,,,
7350,99888.0,Pitch Bend,0,4.0,4.0,66.0,0,6,,,,,,
7351,99912.0,Pitch Bend,0,4.0,8.0,68.0,0,6,,,,,,
7352,99964.0,Pitch Bend,0,4.0,6.0,67.0,0,6,,,,,,
7353,99980.0,Pitch Bend,0,4.0,0.0,64.0,0,6,,,,,,
7354,100080.0,Pitch Bend,0,4.0,8.0,68.0,0,6,,,,,,
7355,100096.0,Pitch Bend,0,4.0,12.0,70.0,0,6,,,,,,
7356,100144.0,Pitch Bend,0,4.0,8.0,68.0,0,6,,,,,,
7357,100164.0,Pitch Bend,0,4.0,0.0,64.0,0,6,,,,,,
7358,100264.0,Pitch Bend,0,4.0,4.0,66.0,0,6,,,,,,
7359,100280.0,Pitch Bend,0,4.0,8.0,68.0,0,6,,,,,,
7360,100300.0,Pitch Bend,0,4.0,12.0,70.0,0,6,,,,,,
7361,100352.0,Pitch Bend,0,4.0,8.0,68.0,0,6,,,,,,
7362,100368.0,Pitch Bend,0,4.0,0.0,64.0,0,6,,,,,,
7363,100448.0,Pitch Bend,0,4.0,2.0,65.0,0,6,,,,,,
7364,100464.0,Pitch Bend,0,4.0,8.0,68.0,0,6,,,,,,
7365,100484.0,Pitch Bend,0,4.0,14.0,71.0,0,6,,,,,,
7366,100540.0,Pitch Bend,0,4.0,10.0,69.0,0,6,,,,,,
7367,100560.0,Pitch Bend,0,4.0,0.0,64.0,0,6,,,,,,
7368,100644.0,Pitch Bend,0,4.0,6.0,67.0,0,6,,,,,,
7369,100660.0,Pitch Bend,0,4.0,12.0,70.0,0,6,,,,,,
7370,100680.0,Pitch Bend,0,4.0,16.0,72.0,0,6,,,,,,
7371,100728.0,Pitch Bend,0,4.0,10.0,69.0,0,6,,,,,,
7372,100748.0,Pitch Bend,0,4.0,0.0,64.0,0,6,,,,,,
7373,100828.0,Pitch Bend,0,4.0,2.0,65.0,0,6,,,,,,
7374,100848.0,Pitch Bend,0,4.0,10.0,69.0,0,6,,,,,,
7375,100908.0,Pitch Bend,0,4.0,6.0,67.0,0,6,,,,,,
7376,100924.0,Pitch Bend,0,4.0,0.0,64.0,0,6,,,,,,
7377,101112.0,Note On,0,4.0,51.0,49.0,0,6,52.0,6.0,4.0,51.0,d#,49.0
7378,101136.0,Note On,0,4.0,50.0,61.0,0,6,64.0,6.0,4.0,50.0,d,61.0
7379,101144.0,Note Off,0,4.0,52.0,87.0,0,6,,,,,,
7380,101164.0,Note Off,0,4.0,51.0,49.0,0,6,,,,,,
7381,101180.0,Note On,0,4.0,49.0,61.0,0,6,48.0,6.0,4.0,49.0,c#,61.0
7382,101180.0,Note On,0,4.0,49.0,61.0,0,6,56.0,11.0,9.0,42.0,F#,34.0
7383,101200.0,Note Off,0,4.0,50.0,61.0,0,6,,,,,,
7384,101208.0,Note On,0,4.0,48.0,61.0,0,6,68.0,6.0,4.0,48.0,c,61.0
7385,101228.0,Note Off,0,4.0,49.0,61.0,0,6,,,,,,
7386,101244.0,Note On,0,4.0,47.0,43.0,0,6,60.0,6.0,4.0,47.0,B,43.0
7387,101276.0,Note Off,0,4.0,48.0,61.0,0,6,,,,,,
7388,101304.0,Note Off,0,4.0,47.0,43.0,0,6,,,,,,
7389,101560.0,Note On,0,4.0,52.0,87.0,0,6,92.0,6.0,4.0,52.0,e,87.0
7390,101640.0,Note On,0,4.0,54.0,56.0,0,6,136.0,6.0,4.0,54.0,f#,56.0
7391,101652.0,Note Off,0,4.0,52.0,87.0,0,6,,,,,,
7392,101736.0,Note On,0,4.0,57.0,75.0,0,6,144.0,6.0,4.0,57.0,a,75.0
7393,101776.0,Note Off,0,4.0,54.0,56.0,0,6,,,,,,
7394,101848.0,Note On,0,4.0,59.0,61.0,0,6,120.0,6.0,4.0,59.0,b,61.0
7395,101880.0,Note Off,0,4.0,57.0,75.0,0,6,,,,,,
7396,101928.0,Note On,0,4.0,61.0,87.0,0,6,392.0,6.0,4.0,61.0,c#',87.0
7397,101968.0,Note Off,0,4.0,59.0,61.0,0,6,,,,,,
7398,101976.0,Controller,0,4.0,1.0,1.0,0,6,,,,,,
7399,102036.0,Controller,0,4.0,1.0,9.0,0,6,,,,,,
7400,102060.0,Controller,0,4.0,1.0,16.0,0,6,,,,,,
7401,102084.0,Controller,0,4.0,1.0,22.0,0,6,,,,,,
7402,102108.0,Controller,0,4.0,1.0,28.0,0,6,,,,,,
7403,102132.0,Controller,0,4.0,1.0,35.0,0,6,,,,,,
7404,102156.0,Controller,0,4.0,1.0,40.0,0,6,,,,,,
7405,102180.0,Controller,0,4.0,1.0,43.0,0,6,,,,,,
7406,102236.0,Controller,0,4.0,1.0,37.0,0,6,,,,,,
7407,102260.0,Controller,0,4.0,1.0,26.0,0,6,,,,,,
7408,102284.0,Controller,0,4.0,1.0,8.0,0,6,224.0,4.0,2.0,85.0,c#''',73.0
7409,102308.0,Controller,0,4.0,1.0,0.0,0,6,,,,,,
7410,102320.0,Note Off,0,4.0,61.0,87.0,0,6,,,,,,
7411,102332.0,Note On,0,4.0,59.0,75.0,0,6,524.0,2.0,0.0,61.0,c#',82.0
7412,102332.0,Note On,0,4.0,59.0,75.0,0,6,72.0,6.0,4.0,59.0,b,75.0
7413,102332.0,Note On,0,4.0,59.0,75.0,0,6,200.0,9.0,7.0,73.0,c#'',64.0
7414,102332.0,Note On,0,4.0,59.0,75.0,0,6,56.0,11.0,9.0,42.0,F#,23.0
7415,102376.0,Note On,0,4.0,61.0,66.0,0,6,164.0,6.0,4.0,61.0,c#',66.0
7416,102404.0,Note Off,0,4.0,59.0,75.0,0,6,,,,,,
7417,102528.0,Note On,0,4.0,64.0,90.0,0,6,192.0,6.0,4.0,64.0,e',90.0
7418,102528.0,Note On,0,4.0,64.0,90.0,0,6,140.0,11.0,9.0,42.0,F#,72.0
7419,102528.0,Note On,0,4.0,64.0,90.0,0,6,60.0,11.0,9.0,80.0,g#'',36.0
7420,102540.0,Note Off,0,4.0,61.0,66.0,0,6,,,,,,
7421,102712.0,Note On,0,4.0,69.0,91.0,0,6,188.0,6.0,4.0,69.0,a',91.0
7422,102720.0,Note Off,0,4.0,64.0,90.0,0,6,180.0,3.0,1.0,33.0,"A,",64.0
7423,102720.0,Note Off,0,4.0,64.0,90.0,0,6,96.0,11.0,9.0,35.0,"B,",64.0
7424,102720.0,Note Off,0,4.0,64.0,90.0,0,6,52.0,11.0,9.0,42.0,F#,48.0
7425,102720.0,Note Off,0,4.0,64.0,90.0,0,6,352.0,11.0,9.0,81.0,a'',52.0
7426,102900.0,Note Off,0,4.0,69.0,91.0,0,6,,,,,,
7427,102912.0,Note On,0,4.0,69.0,100.0,0,6,1120.0,3.0,1.0,29.0,"F,",82.0
7428,102912.0,Note On,0,4.0,69.0,100.0,0,6,1560.0,4.0,2.0,53.0,f,56.0
7429,102912.0,Note On,0,4.0,69.0,100.0,0,6,376.0,6.0,4.0,69.0,a',100.0
7430,102912.0,Note On,0,4.0,69.0,100.0,0,6,388.0,9.0,7.0,83.0,b'',73.0
7431,102912.0,Note On,0,4.0,69.0,100.0,0,6,96.0,11.0,9.0,35.0,"B,",82.0
7432,102912.0,Note On,0,4.0,69.0,100.0,0,6,108.0,11.0,9.0,42.0,F#,72.0
7433,102932.0,Pitch Bend,0,4.0,12.0,70.0,0,6,,,,,,
7434,102952.0,Pitch Bend,0,4.0,40.0,84.0,0,6,,,,,,
7435,102968.0,Pitch Bend,0,4.0,68.0,98.0,0,6,,,,,,
7436,102984.0,Pitch Bend,0,4.0,88.0,108.0,0,6,,,,,,
7437,103000.0,Pitch Bend,0,4.0,110.0,119.0,0,6,,,,,,
7438,103020.0,Pitch Bend,0,4.0,126.0,127.0,0,6,,,,,,
7439,103288.0,Note Off,0,4.0,69.0,100.0,0,6,,,,,,
7440,103292.0,Pitch Bend,0,4.0,0.0,64.0,0,6,408.0,2.0,0.0,57.0,a,70.0
7441,103292.0,Pitch Bend,0,4.0,0.0,64.0,0,6,168.0,9.0,7.0,81.0,a'',64.0
7442,103296.0,Note On,0,4.0,69.0,90.0,0,6,160.0,6.0,4.0,69.0,a',90.0
7443,103296.0,Note On,0,4.0,69.0,90.0,0,6,120.0,11.0,9.0,42.0,F#,69.0
7444,103456.0,Note Off,0,4.0,69.0,90.0,0,6,,,,,,
7445,103480.0,Note On,0,4.0,69.0,95.0,0,6,168.0,2.0,0.0,59.0,b,83.0
7446,103480.0,Note On,0,4.0,69.0,95.0,0,6,548.0,6.0,4.0,69.0,a',95.0
7447,103672.0,Pitch Bend,0,4.0,10.0,69.0,0,6,376.0,2.0,0.0,59.0,b,66.0
7448,103672.0,Pitch Bend,0,4.0,10.0,69.0,0,6,352.0,2.0,0.0,62.0,d',88.0
7449,103688.0,Pitch Bend,0,4.0,20.0,74.0,0,6,,,,,,
7450,103704.0,Pitch Bend,0,4.0,24.0,76.0,0,6,,,,,,
7451,103752.0,Pitch Bend,0,4.0,18.0,73.0,0,6,,,,,,
7452,103772.0,Pitch Bend,0,4.0,8.0,68.0,0,6,,,,,,
7453,103788.0,Pitch Bend,0,4.0,0.0,64.0,0,6,,,,,,
7454,103864.0,Pitch Bend,0,4.0,6.0,67.0,0,6,,,,,,
7455,103880.0,Pitch Bend,0,4.0,16.0,72.0,0,6,,,,,,
7456,103900.0,Pitch Bend,0,4.0,20.0,74.0,0,6,,,,,,
7457,103916.0,Pitch Bend,0,4.0,18.0,73.0,0,6,,,,,,
7458,103936.0,Pitch Bend,0,4.0,10.0,69.0,0,6,,,,,,
7459,103952.0,Pitch Bend,0,4.0,0.0,64.0,0,6,,,,,,
7460,104028.0,Note Off,0,4.0,69.0,95.0,0,6,,,,,,
7461,104060.0,Note On,0,4.0,68.0,91.0,0,6,260.0,6.0,4.0,68.0,g#',91.0
7462,104320.0,Note Off,0,4.0,68.0,91.0,0,6,,,,,,
7463,104328.0,Note On,0,4.0,69.0,72.0,0,6,76.0,6.0,4.0,69.0,a',72.0
7464,104388.0,Note On,0,4.0,68.0,69.0,0,6,76.0,6.0,4.0,68.0,g#',69.0
7465,104404.0,Note Off,0,4.0,69.0,72.0,0,6,,,,,,
7466,104448.0,Note On,0,4.0,66.0,90.0,0,6,712.0,2.0,0.0,38.0,D,92.0
7467,104448.0,Note On,0,4.0,66.0,90.0,0,6,732.0,2.0,0.0,59.0,b,88.0
7468,104448.0,Note On,0,4.0,66.0,90.0,0,6,724.0,3.0,1.0,26.0,"D,",82.0
7469,104448.0,Note On,0,4.0,66.0,90.0,0,6,412.0,6.0,4.0,66.0,f#',90.0
7470,104448.0,Note On,0,4.0,66.0,90.0,0,6,96.0,11.0,9.0,35.0,"B,",82.0
7471,104448.0,Note On,0,4.0,66.0,90.0,0,6,700.0,11.0,9.0,49.0,c#,64.0
7472,104464.0,Note Off,0,4.0,68.0,69.0,0,6,,,,,,
7473,104592.0,Controller,0,4.0,1.0,1.0,0,6,,,,,,
7474,104616.0,Controller,0,4.0,1.0,3.0,0,6,,,,,,
7475,104644.0,Controller,0,4.0,1.0,15.0,0,6,,,,,,
7476,104668.0,Controller,0,4.0,1.0,27.0,0,6,,,,,,
7477,104696.0,Controller,0,4.0,1.0,42.0,0,6,,,,,,
7478,104720.0,Controller,0,4.0,1.0,53.0,0,6,,,,,,
7479,104744.0,Controller,0,4.0,1.0,57.0,0,6,,,,,,
7480,104780.0,Controller,0,4.0,1.0,55.0,0,6,,,,,,
7481,104804.0,Controller,0,4.0,1.0,45.0,0,6,,,,,,
7482,104828.0,Note On,0,4.0,54.0,49.0,0,6,112.0,6.0,4.0,54.0,f#,49.0
7483,104832.0,Controller,0,4.0,1.0,23.0,0,6,120.0,11.0,9.0,42.0,F#,69.0
7484,104860.0,Note Off,0,4.0,66.0,90.0,0,6,,,,,,
7485,104860.0,Controller,0,4.0,1.0,3.0,0,6,,,,,,
7486,104884.0,Controller,0,4.0,1.0,0.0,0,6,,,,,,
7487,104924.0,Note On,0,4.0,61.0,75.0,0,6,108.0,6.0,4.0,61.0,c#',75.0
7488,104940.0,Note Off,0,4.0,54.0,49.0,0,6,,,,,,
7489,105008.0,Note On,0,4.0,66.0,90.0,0,6,172.0,6.0,4.0,66.0,f#',90.0
7490,105032.0,Note Off,0,4.0,61.0,75.0,0,6,,,,,,
7491,105180.0,Note Off,0,4.0,66.0,90.0,0,6,,,,,,
7492,105204.0,Note On,0,4.0,65.0,87.0,0,6,596.0,6.0,4.0,65.0,f',87.0
7493,105432.0,Pitch Bend,0,4.0,8.0,68.0,0,6,,,,,,
7494,105448.0,Pitch Bend,0,4.0,24.0,76.0,0,6,,,,,,
7495,105464.0,Pitch Bend,0,4.0,34.0,81.0,0,6,,,,,,
7496,105484.0,Pitch Bend,0,4.0,42.0,85.0,0,6,,,,,,
7497,105500.0,Pitch Bend,0,4.0,40.0,84.0,0,6,,,,,,
7498,105520.0,Pitch Bend,0,4.0,30.0,79.0,0,6,,,,,,
7499,105536.0,Pitch Bend,0,4.0,12.0,70.0,0,6,,,,,,
7500,105552.0,Pitch Bend,0,4.0,0.0,64.0,0,6,,,,,,
7501,105592.0,Pitch Bend,0,4.0,4.0,66.0,0,6,,,,,,
7502,105612.0,Pitch Bend,0,4.0,22.0,75.0,0,6,,,,,,
7503,105636.0,Pitch Bend,0,4.0,34.0,81.0,0,6,,,,,,
7504,105656.0,Pitch Bend,0,4.0,32.0,80.0,0,6,,,,,,
7505,105672.0,Pitch Bend,0,4.0,16.0,72.0,0,6,,,,,,
7506,105692.0,Pitch Bend,0,4.0,0.0,64.0,0,6,,,,,,
7507,105744.0,Note On,0,4.0,64.0,64.0,0,6,72.0,6.0,4.0,64.0,e',64.0
7508,105788.0,Note On,0,4.0,63.0,58.0,0,6,68.0,6.0,4.0,63.0,d#',58.0
7509,105800.0,Note Off,0,4.0,65.0,87.0,0,6,,,,,,
7510,105816.0,Note Off,0,4.0,64.0,64.0,0,6,,,,,,
7511,105820.0,Note On,0,4.0,62.0,58.0,0,6,60.0,6.0,4.0,62.0,d',58.0
7512,105852.0,Note On,0,4.0,61.0,55.0,0,6,52.0,6.0,4.0,61.0,c#',55.0
7513,105856.0,Note Off,0,4.0,63.0,58.0,0,6,,,,,,
7514,105880.0,Note Off,0,4.0,62.0,58.0,0,6,48.0,6.0,4.0,60.0,c',50.0
7515,105880.0,Note On,0,4.0,60.0,50.0,0,6,48.0,6.0,4.0,60.0,c',50.0
7516,105904.0,Note Off,0,4.0,61.0,55.0,0,6,48.0,6.0,4.0,59.0,b,46.0
7517,105904.0,Note On,0,4.0,59.0,46.0,0,6,48.0,6.0,4.0,59.0,b,46.0
7518,105928.0,Note Off,0,4.0,60.0,50.0,0,6,44.0,6.0,4.0,58.0,a#,31.0
7519,105928.0,Note On,0,4.0,58.0,31.0,0,6,44.0,6.0,4.0,58.0,a#,31.0
7520,105952.0,Note Off,0,4.0,59.0,46.0,0,6,52.0,6.0,4.0,57.0,a,26.0
7521,105952.0,Note On,0,4.0,57.0,26.0,0,6,52.0,6.0,4.0,57.0,a,26.0
7522,105972.0,Note Off,0,4.0,58.0,31.0,0,6,,,,,,
7523,105976.0,Note On,0,4.0,54.0,95.0,0,6,120.0,6.0,4.0,54.0,f#,95.0
7524,105976.0,Note On,0,4.0,54.0,95.0,0,6,204.0,9.0,7.0,73.0,c#'',61.0
7525,106004.0,Note Off,0,4.0,57.0,26.0,0,6,,,,,,
7526,106076.0,Note On,0,4.0,61.0,72.0,0,6,100.0,6.0,4.0,61.0,c#',72.0
7527,106096.0,Note Off,0,4.0,54.0,95.0,0,6,,,,,,
7528,106164.0,Note On,0,4.0,64.0,90.0,0,6,192.0,6.0,4.0,64.0,e',90.0
7529,106176.0,Note Off,0,4.0,61.0,72.0,0,6,,,,,,
7530,106344.0,Note On,0,4.0,66.0,73.0,0,6,192.0,6.0,4.0,66.0,f#',73.0
7531,106356.0,Note Off,0,4.0,64.0,90.0,0,6,424.0,4.0,2.0,68.0,g#',75.0
7532,106536.0,Note Off,0,4.0,66.0,73.0,0,6,,,,,,
7533,106552.0,Note On,0,4.0,69.0,91.0,0,6,308.0,6.0,4.0,69.0,a',91.0
7534,106732.0,Pitch Bend,0,4.0,32.0,80.0,0,6,,,,,,
7535,106748.0,Pitch Bend,0,4.0,78.0,103.0,0,6,,,,,,
7536,106764.0,Pitch Bend,0,4.0,126.0,127.0,0,6,,,,,,
7537,106860.0,Note Off,0,4.0,69.0,91.0,0,6,,,,,,
7538,106868.0,Note On,0,4.0,69.0,61.0,0,6,52.0,6.0,4.0,69.0,a',61.0
7539,106920.0,Note Off,0,4.0,69.0,61.0,0,6,,,,,,
7540,106920.0,Pitch Bend,0,4.0,0.0,64.0,0,6,,,,,,
7541,106936.0,Note On,0,4.0,76.0,90.0,0,6,344.0,6.0,4.0,76.0,e'',90.0
7542,107124.0,Pitch Bend,0,4.0,24.0,76.0,0,6,400.0,4.0,2.0,71.0,b',73.0
7543,107140.0,Pitch Bend,0,4.0,78.0,103.0,0,6,,,,,,
7544,107156.0,Pitch Bend,0,4.0,126.0,127.0,0,6,,,,,,
7545,107280.0,Note Off,0,4.0,76.0,90.0,0,6,,,,,,
7546,107324.0,Note On,0,4.0,79.0,90.0,0,6,380.0,6.0,4.0,79.0,g'',90.0
7547,107324.0,Note On,0,4.0,79.0,90.0,0,6,56.0,11.0,9.0,42.0,F#,31.0
7548,107376.0,Controller,0,4.0,1.0,1.0,0,6,,,,,,
7549,107420.0,Controller,0,4.0,1.0,13.0,0,6,,,,,,
7550,107444.0,Controller,0,4.0,1.0,23.0,0,6,,,,,,
7551,107468.0,Controller,0,4.0,1.0,31.0,0,6,,,,,,
7552,107496.0,Controller,0,4.0,1.0,42.0,0,6,1560.0,4.0,2.0,62.0,d',56.0
7553,107520.0,Controller,0,4.0,1.0,49.0,0,6,740.0,2.0,0.0,62.0,d',101.0
7554,107520.0,Controller,0,4.0,1.0,49.0,0,6,536.0,3.0,1.0,33.0,"A,",82.0
7555,107520.0,Controller,0,4.0,1.0,49.0,0,6,1552.0,4.0,2.0,74.0,d'',52.0
7556,107520.0,Controller,0,4.0,1.0,49.0,0,6,1548.0,9.0,7.0,81.0,a'',82.0
7557,107520.0,Controller,0,4.0,1.0,49.0,0,6,96.0,11.0,9.0,35.0,"B,",82.0
7558,107520.0,Controller,0,4.0,1.0,49.0,0,6,108.0,11.0,9.0,42.0,F#,72.0
7559,107544.0,Controller,0,4.0,1.0,57.0,0,6,,,,,,
7560,107568.0,Controller,0,4.0,1.0,63.0,0,6,,,,,,
7561,107592.0,Controller,0,4.0,1.0,68.0,0,6,,,,,,
7562,107616.0,Controller,0,4.0,1.0,71.0,0,6,,,,,,
7563,107676.0,Controller,0,4.0,1.0,66.0,0,6,,,,,,
7564,107704.0,Note Off,0,4.0,79.0,90.0,0,6,,,,,,
7565,107704.0,Controller,0,4.0,1.0,53.0,0,6,,,,,,
7566,107716.0,Note On,0,4.0,79.0,81.0,0,6,196.0,6.0,4.0,79.0,g'',81.0
7567,107732.0,Controller,0,4.0,1.0,23.0,0,6,,,,,,
7568,107756.0,Controller,0,4.0,1.0,0.0,0,6,,,,,,
7569,107912.0,Note Off,0,4.0,79.0,81.0,0,6,,,,,,
7570,107916.0,Note On,0,4.0,81.0,91.0,0,6,156.0,6.0,4.0,81.0,a'',91.0
7571,108072.0,Note Off,0,4.0,81.0,91.0,0,6,,,,,,
7572,108076.0,Pitch Bend,0,4.0,0.0,64.0,0,6,,,,,,
7573,108092.0,Note On,0,4.0,76.0,73.0,0,6,176.0,6.0,4.0,76.0,e'',73.0
7574,108092.0,Note On,0,4.0,76.0,73.0,0,6,52.0,11.0,9.0,42.0,F#,31.0
7575,108200.0,Pitch Bend,0,4.0,18.0,73.0,0,6,,,,,,
7576,108216.0,Pitch Bend,0,4.0,76.0,102.0,0,6,,,,,,
7577,108232.0,Pitch Bend,0,4.0,126.0,127.0,0,6,,,,,,
7578,108268.0,Note Off,0,4.0,76.0,73.0,0,6,,,,,,
7579,108276.0,Pitch Bend,0,4.0,0.0,64.0,0,6,,,,,,
7580,108288.0,Note On,0,4.0,81.0,84.0,0,6,692.0,2.0,0.0,45.0,A,62.0
7581,108288.0,Note On,0,4.0,81.0,84.0,0,6,708.0,2.0,0.0,59.0,b,58.0
7582,108288.0,Note On,0,4.0,81.0,84.0,0,6,716.0,2.0,0.0,62.0,d',101.0
7583,108288.0,Note On,0,4.0,81.0,84.0,0,6,720.0,2.0,0.0,66.0,f#',92.0
7584,108288.0,Note On,0,4.0,81.0,84.0,0,6,336.0,3.0,1.0,33.0,"A,",83.0
7585,108288.0,Note On,0,4.0,81.0,84.0,0,6,112.0,6.0,4.0,81.0,a'',84.0
7586,108288.0,Note On,0,4.0,81.0,84.0,0,6,240.0,11.0,9.0,38.0,D,73.0
7587,108288.0,Note On,0,4.0,81.0,84.0,0,6,112.0,11.0,9.0,42.0,F#,75.0
7588,108380.0,Note On,0,4.0,76.0,73.0,0,6,116.0,6.0,4.0,76.0,e'',73.0
7589,108400.0,Note Off,0,4.0,81.0,84.0,0,6,,,,,,
7590,108468.0,Note On,0,4.0,64.0,73.0,0,6,104.0,6.0,4.0,64.0,e',73.0
7591,108468.0,Note On,0,4.0,64.0,73.0,0,6,116.0,6.0,4.0,83.0,b'',64.0
7592,108468.0,Note On,0,4.0,83.0,64.0,0,6,104.0,6.0,4.0,64.0,e',73.0
7593,108468.0,Note On,0,4.0,83.0,64.0,0,6,116.0,6.0,4.0,83.0,b'',64.0
7594,108496.0,Note Off,0,4.0,76.0,73.0,0,6,,,,,,
7595,108564.0,Note On,0,4.0,76.0,73.0,0,6,128.0,6.0,4.0,76.0,e'',73.0
7596,108572.0,Note Off,0,4.0,64.0,73.0,0,6,,,,,,
7597,108584.0,Note Off,0,4.0,83.0,64.0,0,6,,,,,,
7598,108664.0,Note On,0,4.0,85.0,84.0,0,6,112.0,6.0,4.0,85.0,c#''',84.0
7599,108692.0,Note Off,0,4.0,76.0,73.0,0,6,,,,,,
7600,108748.0,Note On,0,4.0,76.0,56.0,0,6,92.0,6.0,4.0,76.0,e'',56.0
7601,108776.0,Note Off,0,4.0,85.0,84.0,0,6,,,,,,
7602,108840.0,Note Off,0,4.0,76.0,56.0,0,6,,,,,,
7603,108844.0,Note On,0,4.0,86.0,82.0,0,6,120.0,6.0,4.0,86.0,d''',82.0
7604,108940.0,Note On,0,4.0,76.0,64.0,0,6,88.0,6.0,4.0,76.0,e'',64.0
7605,108964.0,Note Off,0,4.0,86.0,82.0,0,6,,,,,,
7606,109028.0,Note Off,0,4.0,76.0,64.0,0,6,,,,,,
7607,109036.0,Note On,0,4.0,88.0,91.0,0,6,1376.0,6.0,4.0,88.0,e''',91.0
7608,109268.0,Controller,0,4.0,1.0,1.0,0,6,,,,,,
7609,109312.0,Controller,0,4.0,1.0,3.0,0,6,,,,,,
7610,109336.0,Controller,0,4.0,1.0,8.0,0,6,,,,,,
7611,109368.0,Controller,0,4.0,1.0,13.0,0,6,,,,,,
7612,109392.0,Controller,0,4.0,1.0,16.0,0,6,,,,,,
7613,109420.0,Controller,0,4.0,1.0,20.0,0,6,,,,,,
7614,109448.0,Controller,0,4.0,1.0,24.0,0,6,,,,,,
7615,109472.0,Controller,0,4.0,1.0,27.0,0,6,,,,,,
7616,109500.0,Controller,0,4.0,1.0,31.0,0,6,,,,,,
7617,109528.0,Controller,0,4.0,1.0,33.0,0,6,,,,,,
7618,109552.0,Controller,0,4.0,1.0,35.0,0,6,,,,,,
7619,109584.0,Controller,0,4.0,1.0,38.0,0,6,,,,,,
7620,109616.0,Controller,0,4.0,1.0,41.0,0,6,212.0,9.0,7.0,78.0,f#'',60.0
7621,109644.0,Controller,0,4.0,1.0,43.0,0,6,100.0,7.0,5.0,56.0,g#,26.0
7622,109672.0,Controller,0,4.0,1.0,45.0,0,6,,,,,,
7623,109708.0,Controller,0,4.0,1.0,47.0,0,6,,,,,,
7624,109744.0,Controller,0,4.0,1.0,49.0,0,6,,,,,,
7625,109776.0,Controller,0,4.0,1.0,51.0,0,6,,,,,,
7626,109820.0,Controller,0,4.0,1.0,54.0,0,6,408.0,4.0,2.0,79.0,g'',64.0
7627,109820.0,Controller,0,4.0,1.0,54.0,0,6,40.0,7.0,5.0,59.0,b,56.0
7628,109820.0,Controller,0,4.0,1.0,54.0,0,6,404.0,9.0,7.0,79.0,g'',69.0
7629,109852.0,Controller,0,4.0,1.0,57.0,0,6,,,,,,
7630,109880.0,Controller,0,4.0,1.0,59.0,0,6,,,,,,
7631,109916.0,Controller,0,4.0,1.0,62.0,0,6,52.0,7.0,5.0,54.0,f#,55.0
7632,109940.0,Controller,0,4.0,1.0,64.0,0,6,,,,,,
7633,109976.0,Controller,0,4.0,1.0,67.0,0,6,,,,,,
7634,110012.0,Controller,0,4.0,1.0,70.0,0,6,,,,,,
7635,110040.0,Controller,0,4.0,1.0,72.0,0,6,,,,,,
7636,110072.0,Controller,0,4.0,1.0,74.0,0,6,,,,,,
7637,110132.0,Controller,0,4.0,1.0,72.0,0,6,,,,,,
7638,110160.0,Controller,0,4.0,1.0,68.0,0,6,,,,,,
7639,110184.0,Controller,0,4.0,1.0,62.0,0,6,,,,,,
7640,110212.0,Controller,0,4.0,1.0,55.0,0,6,424.0,4.0,2.0,95.0,b''',60.0
7641,110212.0,Controller,0,4.0,1.0,55.0,0,6,372.0,9.0,7.0,83.0,b'',72.0
7642,110236.0,Controller,0,4.0,1.0,47.0,0,6,,,,,,
7643,110264.0,Controller,0,4.0,1.0,39.0,0,6,,,,,,
7644,110288.0,Controller,0,4.0,1.0,29.0,0,6,,,,,,
7645,110312.0,Controller,0,4.0,1.0,19.0,0,6,,,,,,
7646,110340.0,Controller,0,4.0,1.0,10.0,0,6,,,,,,
7647,110364.0,Controller,0,4.0,1.0,1.0,0,6,,,,,,
7648,110372.0,Note On,0,4.0,53.0,66.0,0,6,72.0,6.0,4.0,53.0,f,66.0
7649,110404.0,Controller,0,4.0,1.0,0.0,0,6,,,,,,
7650,110412.0,Note Off,0,4.0,88.0,91.0,0,6,,,,,,
7651,110420.0,Note On,0,4.0,52.0,64.0,0,6,56.0,6.0,4.0,52.0,e,64.0
7652,110444.0,Note Off,0,4.0,53.0,66.0,0,6,,,,,,
7653,110452.0,Note On,0,4.0,51.0,49.0,0,6,48.0,6.0,4.0,51.0,d#,49.0
7654,110476.0,Note Off,0,4.0,52.0,64.0,0,6,,,,,,
7655,110480.0,Note On,0,4.0,50.0,49.0,0,6,40.0,6.0,4.0,50.0,d,49.0
7656,110500.0,Note Off,0,4.0,51.0,49.0,0,6,,,,,,
7657,110504.0,Note On,0,4.0,49.0,49.0,0,6,36.0,6.0,4.0,49.0,c#,49.0
7658,110520.0,Note Off,0,4.0,50.0,49.0,0,6,40.0,6.0,4.0,48.0,c,46.0
7659,110520.0,Note On,0,4.0,48.0,46.0,0,6,40.0,6.0,4.0,48.0,c,46.0
7660,110540.0,Note Off,0,4.0,49.0,49.0,0,6,40.0,6.0,4.0,47.0,B,43.0
7661,110540.0,Note On,0,4.0,47.0,43.0,0,6,40.0,6.0,4.0,47.0,B,43.0
7662,110560.0,Note Off,0,4.0,48.0,46.0,0,6,56.0,6.0,4.0,46.0,A#,40.0
7663,110560.0,Note On,0,4.0,46.0,40.0,0,6,56.0,6.0,4.0,46.0,A#,40.0
7664,110580.0,Note Off,0,4.0,47.0,43.0,0,6,,,,,,
7665,110588.0,Note On,0,4.0,45.0,40.0,0,6,56.0,6.0,4.0,45.0,A,40.0
7666,110616.0,Note Off,0,4.0,46.0,40.0,0,6,,,,,,
7667,110644.0,Note Off,0,4.0,45.0,40.0,0,6,,,,,,
7668,165200.0,Controller,0,4.0,121.0,127.0,0,6,,,,,,
7669,165888.0,End of Track,2f,0.0,0.0,0.0,0,6,,,,,,
7670,0.0,Sequence/Track Name,03,0.0,0.0,0.0,HARP,7,,,,,,
7671,484.0,Controller,0,5.0,0.0,0.0,0,7,,,,,,
7672,492.0,Program Change,0,5.0,46.0,0.0,0,7,,,,,,
7673,496.0,Controller,0,5.0,7.0,127.0,0,7,,,,,,
7674,496.0,Controller,0,5.0,10.0,32.0,0,7,,,,,,
7675,496.0,Controller,0,5.0,11.0,127.0,0,7,,,,,,
7676,500.0,Controller,0,5.0,91.0,100.0,0,7,,,,,,
7677,500.0,Controller,0,5.0,93.0,0.0,0,7,,,,,,
7678,8096.0,Note On,0,5.0,46.0,14.0,0,7,20.0,7.0,5.0,46.0,A#,14.0
7679,8116.0,Note Off,0,5.0,46.0,14.0,0,7,,,,,,
7680,8124.0,Note On,0,5.0,48.0,23.0,0,7,64.0,7.0,5.0,48.0,c,23.0
7681,8172.0,Note On,0,5.0,50.0,26.0,0,7,72.0,7.0,5.0,50.0,d,26.0
7682,8188.0,Note Off,0,5.0,48.0,23.0,0,7,,,,,,
7683,8232.0,Note On,0,5.0,51.0,29.0,0,7,52.0,7.0,5.0,51.0,d#,29.0
7684,8244.0,Note Off,0,5.0,50.0,26.0,0,7,944.0,2.0,0.0,63.0,d#',92.0
7685,8272.0,Note On,0,5.0,53.0,29.0,0,7,56.0,7.0,5.0,53.0,f,29.0
7686,8284.0,Note Off,0,5.0,51.0,29.0,0,7,,,,,,
7687,8316.0,Note On,0,5.0,55.0,29.0,0,7,56.0,7.0,5.0,55.0,g,29.0
7688,8328.0,Note Off,0,5.0,53.0,29.0,0,7,,,,,,
7689,8356.0,Note On,0,5.0,57.0,29.0,0,7,60.0,7.0,5.0,57.0,a,29.0
7690,8372.0,Note Off,0,5.0,55.0,29.0,0,7,,,,,,
7691,8400.0,Note On,0,5.0,58.0,29.0,0,7,56.0,7.0,5.0,58.0,a#,29.0
7692,8416.0,Note Off,0,5.0,57.0,29.0,0,7,,,,,,
7693,8440.0,Note On,0,5.0,60.0,29.0,0,7,56.0,7.0,5.0,60.0,c',29.0
7694,8456.0,Note Off,0,5.0,58.0,29.0,0,7,,,,,,
7695,8484.0,Note On,0,5.0,62.0,29.0,0,7,56.0,7.0,5.0,62.0,d',29.0
7696,8496.0,Note Off,0,5.0,60.0,29.0,0,7,,,,,,
7697,8524.0,Note On,0,5.0,63.0,31.0,0,7,52.0,7.0,5.0,63.0,d#',31.0
7698,8540.0,Note Off,0,5.0,62.0,29.0,0,7,,,,,,
7699,8564.0,Note On,0,5.0,65.0,31.0,0,7,48.0,7.0,5.0,65.0,f',31.0
7700,8576.0,Note Off,0,5.0,63.0,31.0,0,7,,,,,,
7701,8604.0,Note On,0,5.0,67.0,34.0,0,7,40.0,7.0,5.0,67.0,g',34.0
7702,8612.0,Note Off,0,5.0,65.0,31.0,0,7,,,,,,
7703,8636.0,Note On,0,5.0,69.0,34.0,0,7,584.0,2.0,0.0,51.0,d#,74.0
7704,8636.0,Note On,0,5.0,69.0,34.0,0,7,572.0,2.0,0.0,60.0,c',83.0
7705,8636.0,Note On,0,5.0,69.0,34.0,0,7,44.0,7.0,5.0,69.0,a',34.0
7706,8644.0,Note Off,0,5.0,67.0,34.0,0,7,576.0,13.0,11.0,51.0,d#,60.0
7707,8668.0,Note On,0,5.0,70.0,34.0,0,7,48.0,7.0,5.0,70.0,a#',34.0
7708,8680.0,Note Off,0,5.0,69.0,34.0,0,7,,,,,,
7709,8704.0,Note On,0,5.0,72.0,40.0,0,7,48.0,7.0,5.0,72.0,c'',40.0
7710,8716.0,Note Off,0,5.0,70.0,34.0,0,7,,,,,,
7711,8736.0,Note On,0,5.0,74.0,46.0,0,7,52.0,7.0,5.0,74.0,d'',46.0
7712,8752.0,Note Off,0,5.0,72.0,40.0,0,7,,,,,,
7713,8772.0,Note On,0,5.0,75.0,46.0,0,7,52.0,7.0,5.0,75.0,d#'',46.0
7714,8788.0,Note Off,0,5.0,74.0,46.0,0,7,,,,,,
7715,8808.0,Note On,0,5.0,77.0,46.0,0,7,56.0,7.0,5.0,77.0,f'',46.0
7716,8824.0,Note Off,0,5.0,75.0,46.0,0,7,168.0,9.0,7.0,84.0,c''',32.0
7717,8848.0,Note On,0,5.0,79.0,49.0,0,7,52.0,7.0,5.0,79.0,g'',49.0
7718,8864.0,Note Off,0,5.0,77.0,46.0,0,7,,,,,,
7719,8888.0,Note On,0,5.0,81.0,49.0,0,7,52.0,7.0,5.0,81.0,a'',49.0
7720,8900.0,Note Off,0,5.0,79.0,49.0,0,7,,,,,,
7721,8924.0,Note On,0,5.0,82.0,49.0,0,7,52.0,7.0,5.0,82.0,a#'',49.0
7722,8940.0,Note Off,0,5.0,81.0,49.0,0,7,,,,,,
7723,8964.0,Note On,0,5.0,84.0,49.0,0,7,48.0,7.0,5.0,84.0,c''',49.0
7724,8976.0,Note Off,0,5.0,82.0,49.0,0,7,,,,,,
7725,8996.0,Note On,0,5.0,86.0,52.0,0,7,52.0,7.0,5.0,86.0,d''',52.0
7726,9012.0,Note Off,0,5.0,84.0,49.0,0,7,188.0,9.0,7.0,82.0,a#'',44.0
7727,9036.0,Note On,0,5.0,87.0,55.0,0,7,52.0,7.0,5.0,87.0,d#''',55.0
7728,9048.0,Note Off,0,5.0,86.0,52.0,0,7,,,,,,
7729,9076.0,Note On,0,5.0,89.0,58.0,0,7,52.0,7.0,5.0,89.0,f''',58.0
7730,9088.0,Note Off,0,5.0,87.0,55.0,0,7,,,,,,
7731,9112.0,Note On,0,5.0,91.0,58.0,0,7,52.0,7.0,5.0,91.0,g''',58.0
7732,9128.0,Note Off,0,5.0,89.0,58.0,0,7,72.0,11.0,9.0,59.0,b,45.0
7733,9148.0,Note On,0,5.0,93.0,58.0,0,7,56.0,7.0,5.0,93.0,a''',58.0
7734,9164.0,Note Off,0,5.0,91.0,58.0,0,7,76.0,11.0,9.0,51.0,d#,44.0
7735,9192.0,Note On,0,5.0,94.0,69.0,0,7,600.0,7.0,5.0,94.0,a#''',69.0
7736,9204.0,Note Off,0,5.0,93.0,58.0,0,7,,,,,,
7737,9792.0,Note Off,0,5.0,94.0,69.0,0,7,360.0,5.0,3.0,63.0,d#',64.0
7738,9792.0,Note Off,0,5.0,94.0,69.0,0,7,220.0,11.0,9.0,70.0,a#',32.0
7739,32640.0,Note On,0,5.0,70.0,75.0,0,7,68.0,7.0,5.0,70.0,a#',75.0
7740,32640.0,Note On,0,5.0,70.0,75.0,0,7,1036.0,15.0,13.0,72.0,c'',31.0
7741,32676.0,Note On,0,5.0,69.0,66.0,0,7,56.0,7.0,5.0,69.0,a',66.0
7742,32708.0,Note Off,0,5.0,70.0,75.0,0,7,,,,,,
7743,32712.0,Note On,0,5.0,67.0,61.0,0,7,44.0,7.0,5.0,67.0,g',61.0
7744,32732.0,Note Off,0,5.0,69.0,66.0,0,7,44.0,7.0,5.0,65.0,f',61.0
7745,32732.0,Note On,0,5.0,65.0,61.0,0,7,44.0,7.0,5.0,65.0,f',61.0
7746,32756.0,Note Off,0,5.0,67.0,61.0,0,7,,,,,,
7747,32760.0,Note On,0,5.0,63.0,61.0,0,7,36.0,7.0,5.0,63.0,d#',61.0
7748,32776.0,Note Off,0,5.0,65.0,61.0,0,7,44.0,7.0,5.0,62.0,d',59.0
7749,32776.0,Note On,0,5.0,62.0,59.0,0,7,44.0,7.0,5.0,62.0,d',59.0
7750,32796.0,Note Off,0,5.0,63.0,61.0,0,7,,,,,,
7751,32800.0,Note On,0,5.0,60.0,58.0,0,7,44.0,7.0,5.0,60.0,c',58.0
7752,32820.0,Note Off,0,5.0,62.0,59.0,0,7,,,,,,
7753,32824.0,Note On,0,5.0,58.0,52.0,0,7,52.0,7.0,5.0,58.0,a#,52.0
7754,32844.0,Note Off,0,5.0,60.0,58.0,0,7,,,,,,
7755,32856.0,Note On,0,5.0,57.0,49.0,0,7,56.0,7.0,5.0,57.0,a,49.0
7756,32876.0,Note Off,0,5.0,58.0,52.0,0,7,,,,,,
7757,32900.0,Note On,0,5.0,55.0,43.0,0,7,52.0,7.0,5.0,55.0,g,43.0
7758,32912.0,Note Off,0,5.0,57.0,49.0,0,7,,,,,,
7759,32940.0,Note On,0,5.0,53.0,32.0,0,7,48.0,7.0,5.0,53.0,f,32.0
7760,32952.0,Note Off,0,5.0,55.0,43.0,0,7,,,,,,
7761,32972.0,Note On,0,5.0,51.0,44.0,0,7,32.0,7.0,5.0,51.0,d#,44.0
7762,32988.0,Note Off,0,5.0,53.0,32.0,0,7,,,,,,
7763,33004.0,Note Off,0,5.0,51.0,44.0,0,7,,,,,,
7764,33012.0,Note On,0,5.0,53.0,36.0,0,7,24.0,7.0,5.0,53.0,f,36.0
7765,33020.0,Note On,0,5.0,55.0,55.0,0,7,64.0,7.0,5.0,55.0,g,55.0
7766,33036.0,Note Off,0,5.0,53.0,36.0,0,7,,,,,,
7767,33068.0,Note On,0,5.0,57.0,40.0,0,7,72.0,7.0,5.0,57.0,a,40.0
7768,33084.0,Note Off,0,5.0,55.0,55.0,0,7,,,,,,
7769,33120.0,Note On,0,5.0,58.0,52.0,0,7,64.0,7.0,5.0,58.0,a#,52.0
7770,33140.0,Note Off,0,5.0,57.0,40.0,0,7,,,,,,
7771,33168.0,Note On,0,5.0,60.0,56.0,0,7,64.0,7.0,5.0,60.0,c',56.0
7772,33184.0,Note Off,0,5.0,58.0,52.0,0,7,,,,,,
7773,33212.0,Note On,0,5.0,62.0,56.0,0,7,64.0,7.0,5.0,62.0,d',56.0
7774,33232.0,Note Off,0,5.0,60.0,56.0,0,7,,,,,,
7775,33260.0,Note On,0,5.0,63.0,60.0,0,7,64.0,7.0,5.0,63.0,d#',60.0
7776,33276.0,Note Off,0,5.0,62.0,56.0,0,7,,,,,,
7777,33304.0,Note On,0,5.0,65.0,60.0,0,7,64.0,7.0,5.0,65.0,f',60.0
7778,33324.0,Note Off,0,5.0,63.0,60.0,0,7,,,,,,
7779,33352.0,Note On,0,5.0,67.0,64.0,0,7,56.0,7.0,5.0,67.0,g',64.0
7780,33368.0,Note Off,0,5.0,65.0,60.0,0,7,,,,,,
7781,33392.0,Note On,0,5.0,69.0,64.0,0,7,56.0,7.0,5.0,69.0,a',64.0
7782,33408.0,Note Off,0,5.0,67.0,64.0,0,7,368.0,2.0,0.0,55.0,g,74.0
7783,33408.0,Note Off,0,5.0,67.0,64.0,0,7,372.0,2.0,0.0,63.0,d#',101.0
7784,33408.0,Note Off,0,5.0,67.0,64.0,0,7,340.0,5.0,3.0,67.0,g',91.0
7785,33408.0,Note Off,0,5.0,67.0,64.0,0,7,60.0,12.0,10.0,41.0,F,48.0
7786,33432.0,Note On,0,5.0,70.0,73.0,0,7,28.0,7.0,5.0,70.0,a#',73.0
7787,33448.0,Note Off,0,5.0,69.0,64.0,0,7,,,,,,
7788,33460.0,Note Off,0,5.0,70.0,73.0,0,7,,,,,,
7789,33484.0,Note On,0,5.0,72.0,61.0,0,7,68.0,7.0,5.0,72.0,c'',61.0
7790,33540.0,Note On,0,5.0,74.0,58.0,0,7,64.0,7.0,5.0,74.0,d'',58.0
7791,33552.0,Note Off,0,5.0,72.0,61.0,0,7,,,,,,
7792,33588.0,Note On,0,5.0,75.0,55.0,0,7,64.0,7.0,5.0,75.0,d#'',55.0
7793,33604.0,Note Off,0,5.0,74.0,58.0,0,7,,,,,,
7794,33632.0,Note On,0,5.0,77.0,49.0,0,7,64.0,7.0,5.0,77.0,f'',49.0
7795,33652.0,Note Off,0,5.0,75.0,55.0,0,7,,,,,,
7796,33680.0,Note On,0,5.0,79.0,46.0,0,7,56.0,7.0,5.0,79.0,g'',46.0
7797,33696.0,Note Off,0,5.0,77.0,49.0,0,7,,,,,,
7798,33720.0,Note On,0,5.0,81.0,37.0,0,7,56.0,7.0,5.0,81.0,a'',37.0
7799,33736.0,Note Off,0,5.0,79.0,46.0,0,7,,,,,,
7800,33760.0,Note On,0,5.0,82.0,37.0,0,7,28.0,7.0,5.0,82.0,a#'',37.0
7801,33776.0,Note Off,0,5.0,81.0,37.0,0,7,9240.0,4.0,2.0,65.0,f',42.0
7802,33788.0,Note Off,0,5.0,82.0,37.0,0,7,,,,,,
7803,44928.0,Note On,0,5.0,70.0,75.0,0,7,68.0,7.0,5.0,70.0,a#',75.0
7804,44928.0,Note On,0,5.0,70.0,75.0,0,7,1036.0,15.0,13.0,72.0,c'',31.0
7805,44964.0,Note On,0,5.0,69.0,66.0,0,7,56.0,7.0,5.0,69.0,a',66.0
7806,44996.0,Note Off,0,5.0,70.0,75.0,0,7,,,,,,
7807,45000.0,Note On,0,5.0,67.0,61.0,0,7,44.0,7.0,5.0,67.0,g',61.0
7808,45020.0,Note Off,0,5.0,69.0,66.0,0,7,44.0,7.0,5.0,65.0,f',61.0
7809,45020.0,Note On,0,5.0,65.0,61.0,0,7,44.0,7.0,5.0,65.0,f',61.0
7810,45044.0,Note Off,0,5.0,67.0,61.0,0,7,,,,,,
7811,45048.0,Note On,0,5.0,63.0,61.0,0,7,36.0,7.0,5.0,63.0,d#',61.0
7812,45064.0,Note Off,0,5.0,65.0,61.0,0,7,44.0,7.0,5.0,62.0,d',59.0
7813,45064.0,Note On,0,5.0,62.0,59.0,0,7,44.0,7.0,5.0,62.0,d',59.0
7814,45084.0,Note Off,0,5.0,63.0,61.0,0,7,,,,,,
7815,45088.0,Note On,0,5.0,60.0,58.0,0,7,44.0,7.0,5.0,60.0,c',58.0
7816,45108.0,Note Off,0,5.0,62.0,59.0,0,7,152.0,2.0,0.0,62.0,d',74.0
7817,45112.0,Note On,0,5.0,58.0,52.0,0,7,168.0,2.0,0.0,53.0,f,74.0
7818,45112.0,Note On,0,5.0,58.0,52.0,0,7,52.0,7.0,5.0,58.0,a#,52.0
7819,45132.0,Note Off,0,5.0,60.0,58.0,0,7,,,,,,
7820,45144.0,Note On,0,5.0,57.0,49.0,0,7,56.0,7.0,5.0,57.0,a,49.0
7821,45164.0,Note Off,0,5.0,58.0,52.0,0,7,,,,,,
7822,45188.0,Note On,0,5.0,55.0,43.0,0,7,52.0,7.0,5.0,55.0,g,43.0
7823,45200.0,Note Off,0,5.0,57.0,49.0,0,7,,,,,,
7824,45228.0,Note On,0,5.0,53.0,32.0,0,7,48.0,7.0,5.0,53.0,f,32.0
7825,45240.0,Note Off,0,5.0,55.0,43.0,0,7,,,,,,
7826,45260.0,Note On,0,5.0,51.0,44.0,0,7,32.0,7.0,5.0,51.0,d#,44.0
7827,45276.0,Note Off,0,5.0,53.0,32.0,0,7,,,,,,
7828,45292.0,Note Off,0,5.0,51.0,44.0,0,7,,,,,,
7829,45300.0,Note On,0,5.0,53.0,36.0,0,7,24.0,7.0,5.0,53.0,f,36.0
7830,45308.0,Note On,0,5.0,55.0,55.0,0,7,344.0,2.0,0.0,55.0,g,98.0
7831,45308.0,Note On,0,5.0,55.0,55.0,0,7,64.0,7.0,5.0,55.0,g,55.0
7832,45324.0,Note Off,0,5.0,53.0,36.0,0,7,,,,,,
7833,45356.0,Note On,0,5.0,57.0,40.0,0,7,72.0,7.0,5.0,57.0,a,40.0
7834,45372.0,Note Off,0,5.0,55.0,55.0,0,7,,,,,,
7835,45408.0,Note On,0,5.0,58.0,52.0,0,7,64.0,7.0,5.0,58.0,a#,52.0
7836,45428.0,Note Off,0,5.0,57.0,40.0,0,7,,,,,,
7837,45456.0,Note On,0,5.0,60.0,56.0,0,7,64.0,7.0,5.0,60.0,c',56.0
7838,45472.0,Note Off,0,5.0,58.0,52.0,0,7,,,,,,
7839,45500.0,Note On,0,5.0,62.0,56.0,0,7,64.0,7.0,5.0,62.0,d',56.0
7840,45520.0,Note Off,0,5.0,60.0,56.0,0,7,,,,,,
7841,45548.0,Note On,0,5.0,63.0,60.0,0,7,64.0,7.0,5.0,63.0,d#',60.0
7842,45564.0,Note Off,0,5.0,62.0,56.0,0,7,,,,,,
7843,45592.0,Note On,0,5.0,65.0,60.0,0,7,64.0,7.0,5.0,65.0,f',60.0
7844,45612.0,Note Off,0,5.0,63.0,60.0,0,7,,,,,,
7845,45640.0,Note On,0,5.0,67.0,64.0,0,7,56.0,7.0,5.0,67.0,g',64.0
7846,45656.0,Note Off,0,5.0,65.0,60.0,0,7,,,,,,
7847,45680.0,Note On,0,5.0,69.0,64.0,0,7,56.0,7.0,5.0,69.0,a',64.0
7848,45696.0,Note Off,0,5.0,67.0,64.0,0,7,172.0,3.0,1.0,27.0,"D#,",64.0
7849,45696.0,Note Off,0,5.0,67.0,64.0,0,7,332.0,5.0,3.0,67.0,g',82.0
7850,45696.0,Note Off,0,5.0,67.0,64.0,0,7,60.0,12.0,10.0,41.0,F,69.0
7851,45720.0,Note On,0,5.0,70.0,73.0,0,7,28.0,7.0,5.0,70.0,a#',73.0
7852,45736.0,Note Off,0,5.0,69.0,64.0,0,7,,,,,,
7853,45748.0,Note Off,0,5.0,70.0,73.0,0,7,,,,,,
7854,45772.0,Note On,0,5.0,72.0,61.0,0,7,68.0,7.0,5.0,72.0,c'',61.0
7855,45828.0,Note On,0,5.0,74.0,58.0,0,7,64.0,7.0,5.0,74.0,d'',58.0
7856,45840.0,Note Off,0,5.0,72.0,61.0,0,7,,,,,,
7857,45876.0,Note On,0,5.0,75.0,55.0,0,7,64.0,7.0,5.0,75.0,d#'',55.0
7858,45892.0,Note Off,0,5.0,74.0,58.0,0,7,,,,,,
7859,45920.0,Note On,0,5.0,77.0,49.0,0,7,64.0,7.0,5.0,77.0,f'',49.0
7860,45940.0,Note Off,0,5.0,75.0,55.0,0,7,,,,,,
7861,45968.0,Note On,0,5.0,79.0,46.0,0,7,56.0,7.0,5.0,79.0,g'',46.0
7862,45984.0,Note Off,0,5.0,77.0,49.0,0,7,,,,,,
7863,46008.0,Note On,0,5.0,81.0,37.0,0,7,56.0,7.0,5.0,81.0,a'',37.0
7864,46024.0,Note Off,0,5.0,79.0,46.0,0,7,,,,,,
7865,46048.0,Note On,0,5.0,82.0,37.0,0,7,28.0,7.0,5.0,82.0,a#'',37.0
7866,46064.0,Note Off,0,5.0,81.0,37.0,0,7,,,,,,
7867,46076.0,Note Off,0,5.0,82.0,37.0,0,7,,,,,,
7868,59904.0,Note On,0,5.0,49.0,29.0,0,7,64.0,7.0,5.0,49.0,c#,29.0
7869,59904.0,Note On,0,5.0,49.0,29.0,0,7,96.0,12.0,10.0,36.0,C,78.0
7870,59948.0,Note On,0,5.0,51.0,32.0,0,7,96.0,7.0,5.0,51.0,d#,32.0
7871,59968.0,Note Off,0,5.0,49.0,29.0,0,7,,,,,,
7872,60036.0,Note On,0,5.0,53.0,26.0,0,7,88.0,7.0,5.0,53.0,f,26.0
7873,60044.0,Note Off,0,5.0,51.0,32.0,0,7,,,,,,
7874,60108.0,Note On,0,5.0,54.0,26.0,0,7,84.0,7.0,5.0,54.0,f#,26.0
7875,60124.0,Note Off,0,5.0,53.0,26.0,0,7,,,,,,
7876,60172.0,Note On,0,5.0,56.0,31.0,0,7,72.0,7.0,5.0,56.0,g#,31.0
7877,60192.0,Note Off,0,5.0,54.0,26.0,0,7,,,,,,
7878,60232.0,Note On,0,5.0,58.0,40.0,0,7,76.0,7.0,5.0,58.0,a#,40.0
7879,60244.0,Note Off,0,5.0,56.0,31.0,0,7,,,,,,
7880,60292.0,Note On,0,5.0,60.0,36.0,0,7,72.0,7.0,5.0,60.0,c',36.0
7881,60308.0,Note Off,0,5.0,58.0,40.0,0,7,,,,,,
7882,60348.0,Note On,0,5.0,61.0,36.0,0,7,80.0,7.0,5.0,61.0,c#',36.0
7883,60364.0,Note Off,0,5.0,60.0,36.0,0,7,,,,,,
7884,60412.0,Note On,0,5.0,63.0,36.0,0,7,80.0,7.0,5.0,63.0,d#',36.0
7885,60428.0,Note Off,0,5.0,61.0,36.0,0,7,,,,,,
7886,60472.0,Note On,0,5.0,65.0,36.0,0,7,76.0,7.0,5.0,65.0,f',36.0
7887,60492.0,Note Off,0,5.0,63.0,36.0,0,7,,,,,,
7888,60532.0,Note On,0,5.0,66.0,44.0,0,7,76.0,7.0,5.0,66.0,f#',44.0
7889,60548.0,Note Off,0,5.0,65.0,36.0,0,7,,,,,,
7890,60588.0,Note On,0,5.0,68.0,44.0,0,7,76.0,7.0,5.0,68.0,g#',44.0
7891,60608.0,Note Off,0,5.0,66.0,44.0,0,7,,,,,,
7892,60648.0,Note On,0,5.0,70.0,44.0,0,7,76.0,7.0,5.0,70.0,a#',44.0
7893,60664.0,Note Off,0,5.0,68.0,44.0,0,7,,,,,,
7894,60708.0,Note On,0,5.0,72.0,36.0,0,7,80.0,7.0,5.0,72.0,c'',36.0
7895,60724.0,Note Off,0,5.0,70.0,44.0,0,7,,,,,,
7896,60768.0,Note On,0,5.0,73.0,40.0,0,7,96.0,7.0,5.0,73.0,c#'',40.0
7897,60788.0,Note Off,0,5.0,72.0,36.0,0,7,,,,,,
7898,60832.0,Note On,0,5.0,75.0,40.0,0,7,96.0,7.0,5.0,75.0,d#'',40.0
7899,60864.0,Note Off,0,5.0,73.0,40.0,0,7,532.0,11.0,9.0,45.0,A,64.0
7900,60864.0,Note Off,0,5.0,73.0,40.0,0,7,588.0,14.0,12.0,60.0,c',43.0
7901,60904.0,Note On,0,5.0,77.0,36.0,0,7,80.0,7.0,5.0,77.0,f'',36.0
7902,60928.0,Note Off,0,5.0,75.0,40.0,0,7,,,,,,
7903,60968.0,Note On,0,5.0,78.0,36.0,0,7,76.0,7.0,5.0,78.0,f#'',36.0
7904,60984.0,Note Off,0,5.0,77.0,36.0,0,7,,,,,,
7905,61020.0,Note On,0,5.0,80.0,52.0,0,7,76.0,7.0,5.0,80.0,g#'',52.0
7906,61044.0,Note Off,0,5.0,78.0,36.0,0,7,,,,,,
7907,61076.0,Note On,0,5.0,82.0,56.0,0,7,64.0,7.0,5.0,82.0,a#'',56.0
7908,61096.0,Note Off,0,5.0,80.0,52.0,0,7,,,,,,
7909,61124.0,Note On,0,5.0,84.0,56.0,0,7,64.0,7.0,5.0,84.0,c''',56.0
7910,61140.0,Note Off,0,5.0,82.0,56.0,0,7,,,,,,
7911,61164.0,Note On,0,5.0,85.0,46.0,0,7,64.0,7.0,5.0,85.0,c#''',46.0
7912,61188.0,Note Off,0,5.0,84.0,56.0,0,7,,,,,,
7913,61208.0,Note On,0,5.0,87.0,52.0,0,7,56.0,7.0,5.0,87.0,d#''',52.0
7914,61228.0,Note Off,0,5.0,85.0,46.0,0,7,,,,,,
7915,61248.0,Note On,0,5.0,89.0,55.0,0,7,48.0,7.0,5.0,89.0,f''',55.0
7916,61264.0,Note Off,0,5.0,87.0,52.0,0,7,,,,,,
7917,61284.0,Note On,0,5.0,90.0,58.0,0,7,48.0,7.0,5.0,90.0,f#''',58.0
7918,61296.0,Note Off,0,5.0,89.0,55.0,0,7,,,,,,
7919,61324.0,Note On,0,5.0,92.0,58.0,0,7,48.0,7.0,5.0,92.0,g#''',58.0
7920,61332.0,Note Off,0,5.0,90.0,58.0,0,7,,,,,,
7921,61352.0,Note On,0,5.0,94.0,61.0,0,7,52.0,7.0,5.0,94.0,a#''',61.0
7922,61352.0,Note On,0,5.0,94.0,61.0,0,7,72.0,11.0,9.0,59.0,b,45.0
7923,61372.0,Note Off,0,5.0,92.0,58.0,0,7,,,,,,
7924,61388.0,Note On,0,5.0,96.0,66.0,0,7,136.0,7.0,5.0,96.0,c'''',66.0
7925,61388.0,Note On,0,5.0,96.0,66.0,0,7,76.0,11.0,9.0,51.0,d#,44.0
7926,61404.0,Note Off,0,5.0,94.0,61.0,0,7,,,,,,
7927,61428.0,Note On,0,5.0,97.0,81.0,0,7,304.0,7.0,5.0,97.0,c#'''',81.0
7928,61524.0,Note Off,0,5.0,96.0,66.0,0,7,,,,,,
7929,61732.0,Note Off,0,5.0,97.0,81.0,0,7,,,,,,
7930,73088.0,Note On,0,5.0,56.0,16.0,0,7,80.0,7.0,5.0,56.0,g#,16.0
7931,73148.0,Note On,0,5.0,58.0,34.0,0,7,80.0,7.0,5.0,58.0,a#,34.0
7932,73168.0,Note Off,0,5.0,56.0,16.0,0,7,,,,,,
7933,73208.0,Note On,0,5.0,60.0,29.0,0,7,72.0,7.0,5.0,60.0,c',29.0
7934,73228.0,Note Off,0,5.0,58.0,34.0,0,7,,,,,,
7935,73264.0,Note On,0,5.0,61.0,31.0,0,7,68.0,7.0,5.0,61.0,c#',31.0
7936,73280.0,Note Off,0,5.0,60.0,29.0,0,7,,,,,,
7937,73316.0,Note On,0,5.0,63.0,34.0,0,7,68.0,7.0,5.0,63.0,d#',34.0
7938,73332.0,Note Off,0,5.0,61.0,31.0,0,7,,,,,,
7939,73364.0,Note On,0,5.0,65.0,43.0,0,7,68.0,7.0,5.0,65.0,f',43.0
7940,73384.0,Note Off,0,5.0,63.0,34.0,0,7,,,,,,
7941,73420.0,Note On,0,5.0,66.0,46.0,0,7,60.0,7.0,5.0,66.0,f#',46.0
7942,73432.0,Note Off,0,5.0,65.0,43.0,0,7,,,,,,
7943,73464.0,Note On,0,5.0,68.0,49.0,0,7,60.0,7.0,5.0,68.0,g#',49.0
7944,73480.0,Note Off,0,5.0,66.0,46.0,0,7,,,,,,
7945,73508.0,Note On,0,5.0,70.0,52.0,0,7,52.0,7.0,5.0,70.0,a#',52.0
7946,73524.0,Note Off,0,5.0,68.0,49.0,0,7,,,,,,
7947,73548.0,Note On,0,5.0,72.0,55.0,0,7,48.0,7.0,5.0,72.0,c'',55.0
7948,73560.0,Note Off,0,5.0,70.0,52.0,0,7,,,,,,
7949,73576.0,Note On,0,5.0,73.0,58.0,0,7,52.0,7.0,5.0,73.0,c#'',58.0
7950,73596.0,Note Off,0,5.0,72.0,55.0,0,7,,,,,,
7951,73612.0,Note On,0,5.0,75.0,58.0,0,7,52.0,7.0,5.0,75.0,d#'',58.0
7952,73628.0,Note Off,0,5.0,73.0,58.0,0,7,,,,,,
7953,73648.0,Note On,0,5.0,77.0,58.0,0,7,52.0,7.0,5.0,77.0,f'',58.0
7954,73664.0,Note Off,0,5.0,75.0,58.0,0,7,,,,,,
7955,73684.0,Note On,0,5.0,78.0,64.0,0,7,9252.0,4.0,2.0,80.0,g#'',55.0
7956,73684.0,Note On,0,5.0,78.0,64.0,0,7,9252.0,4.0,2.0,92.0,g#''',55.0
7957,73684.0,Note On,0,5.0,78.0,64.0,0,7,60.0,7.0,5.0,78.0,f#'',64.0
7958,73700.0,Note Off,0,5.0,77.0,58.0,0,7,,,,,,
7959,73728.0,Note On,0,5.0,80.0,75.0,0,7,540.0,2.0,0.0,56.0,g#,92.0
7960,73728.0,Note On,0,5.0,80.0,75.0,0,7,588.0,2.0,0.0,60.0,c',101.0
7961,73728.0,Note On,0,5.0,80.0,75.0,0,7,536.0,3.0,1.0,32.0,"G#,",82.0
7962,73728.0,Note On,0,5.0,80.0,75.0,0,7,1868.0,5.0,3.0,68.0,g#',82.0
7963,73728.0,Note On,0,5.0,80.0,75.0,0,7,176.0,7.0,5.0,80.0,g#'',75.0
7964,73728.0,Note On,0,5.0,80.0,75.0,0,7,96.0,11.0,9.0,35.0,"B,",82.0
7965,73728.0,Note On,0,5.0,80.0,75.0,0,7,700.0,11.0,9.0,49.0,c#,64.0
7966,73744.0,Note Off,0,5.0,78.0,64.0,0,7,,,,,,
7967,73904.0,Note Off,0,5.0,80.0,75.0,0,7,,,,,,
7968,85240.0,Note On,0,5.0,44.0,40.0,0,7,364.0,2.0,0.0,66.0,f#',89.0
7969,85240.0,Note On,0,5.0,44.0,40.0,0,7,68.0,7.0,5.0,44.0,G#,40.0
7970,85292.0,Note On,0,5.0,46.0,36.0,0,7,80.0,7.0,5.0,46.0,A#,36.0
7971,85308.0,Note Off,0,5.0,44.0,40.0,0,7,,,,,,
7972,85352.0,Note On,0,5.0,48.0,31.0,0,7,76.0,7.0,5.0,48.0,c,31.0
7973,85372.0,Note Off,0,5.0,46.0,36.0,0,7,,,,,,
7974,85412.0,Note On,0,5.0,51.0,31.0,0,7,68.0,7.0,5.0,51.0,d#,31.0
7975,85428.0,Note Off,0,5.0,48.0,31.0,0,7,156.0,11.0,9.0,45.0,A,64.0
7976,85464.0,Note On,0,5.0,53.0,31.0,0,7,56.0,7.0,5.0,53.0,f,31.0
7977,85480.0,Note Off,0,5.0,51.0,31.0,0,7,,,,,,
7978,85508.0,Note On,0,5.0,54.0,34.0,0,7,60.0,7.0,5.0,54.0,f#,34.0
7979,85520.0,Note Off,0,5.0,53.0,31.0,0,7,,,,,,
7980,85552.0,Note On,0,5.0,56.0,37.0,0,7,52.0,7.0,5.0,56.0,g#,37.0
7981,85568.0,Note Off,0,5.0,54.0,34.0,0,7,,,,,,
7982,85588.0,Note On,0,5.0,58.0,40.0,0,7,56.0,7.0,5.0,58.0,a#,40.0
7983,85604.0,Note Off,0,5.0,56.0,37.0,0,7,,,,,,
7984,85624.0,Note On,0,5.0,60.0,43.0,0,7,52.0,7.0,5.0,60.0,c',43.0
7985,85624.0,Note On,0,5.0,60.0,43.0,0,7,188.0,11.0,9.0,45.0,A,91.0
7986,85644.0,Note Off,0,5.0,58.0,40.0,0,7,,,,,,
7987,85660.0,Note On,0,5.0,61.0,44.0,0,7,44.0,7.0,5.0,61.0,c#',44.0
7988,85676.0,Note Off,0,5.0,60.0,43.0,0,7,,,,,,
7989,85692.0,Note On,0,5.0,63.0,46.0,0,7,44.0,7.0,5.0,63.0,d#',46.0
7990,85704.0,Note Off,0,5.0,61.0,44.0,0,7,,,,,,
7991,85720.0,Note On,0,5.0,65.0,47.0,0,7,44.0,7.0,5.0,65.0,f',47.0
7992,85736.0,Note Off,0,5.0,63.0,46.0,0,7,,,,,,
7993,85752.0,Note On,0,5.0,66.0,49.0,0,7,44.0,7.0,5.0,66.0,f#',49.0
7994,85764.0,Note Off,0,5.0,65.0,47.0,0,7,,,,,,
7995,85776.0,Note On,0,5.0,68.0,52.0,0,7,48.0,7.0,5.0,68.0,g#',52.0
7996,85796.0,Note Off,0,5.0,66.0,49.0,0,7,,,,,,
7997,85808.0,Note On,0,5.0,70.0,55.0,0,7,36.0,7.0,5.0,70.0,a#',55.0
7998,85824.0,Note Off,0,5.0,68.0,52.0,0,7,156.0,3.0,1.0,32.0,"G#,",64.0
7999,85832.0,Note On,0,5.0,72.0,58.0,0,7,48.0,7.0,5.0,72.0,c'',58.0
8000,85844.0,Note Off,0,5.0,70.0,55.0,0,7,,,,,,
8001,85864.0,Note On,0,5.0,73.0,58.0,0,7,40.0,7.0,5.0,73.0,c#'',58.0
8002,85880.0,Note Off,0,5.0,72.0,58.0,0,7,,,,,,
8003,85888.0,Note On,0,5.0,75.0,61.0,0,7,48.0,7.0,5.0,75.0,d#'',61.0
8004,85904.0,Note Off,0,5.0,73.0,58.0,0,7,,,,,,
8005,85920.0,Note On,0,5.0,77.0,64.0,0,7,52.0,7.0,5.0,77.0,f'',64.0
8006,85936.0,Note Off,0,5.0,75.0,61.0,0,7,,,,,,
8007,85952.0,Note On,0,5.0,78.0,72.0,0,7,48.0,7.0,5.0,78.0,f#'',72.0
8008,85972.0,Note Off,0,5.0,77.0,64.0,0,7,,,,,,
8009,85984.0,Note On,0,5.0,80.0,72.0,0,7,64.0,7.0,5.0,80.0,g#'',72.0
8010,86000.0,Note Off,0,5.0,78.0,72.0,0,7,,,,,,
8011,86024.0,Note On,0,5.0,84.0,78.0,0,7,216.0,7.0,5.0,84.0,c''',78.0
8012,86048.0,Note Off,0,5.0,80.0,72.0,0,7,,,,,,
8013,86240.0,Note Off,0,5.0,84.0,78.0,0,7,,,,,,
8014,97520.0,Note On,0,5.0,68.0,73.0,0,7,408.0,4.0,2.0,87.0,d#''',73.0
8015,97520.0,Note On,0,5.0,68.0,73.0,0,7,68.0,7.0,5.0,68.0,g#',73.0
8016,97564.0,Note On,0,5.0,66.0,58.0,0,7,92.0,7.0,5.0,66.0,f#',58.0
8017,97588.0,Note Off,0,5.0,68.0,73.0,0,7,,,,,,
8018,97604.0,Note On,0,5.0,65.0,58.0,0,7,72.0,7.0,5.0,65.0,f',58.0
8019,97652.0,Note On,0,5.0,63.0,55.0,0,7,72.0,7.0,5.0,63.0,d#',55.0
8020,97656.0,Note Off,0,5.0,66.0,58.0,0,7,,,,,,
8021,97676.0,Note Off,0,5.0,65.0,58.0,0,7,,,,,,
8022,97704.0,Note On,0,5.0,61.0,52.0,0,7,64.0,7.0,5.0,61.0,c#',52.0
8023,97724.0,Note Off,0,5.0,63.0,55.0,0,7,,,,,,
8024,97752.0,Note On,0,5.0,60.0,52.0,0,7,64.0,7.0,5.0,60.0,c',52.0
8025,97768.0,Note Off,0,5.0,61.0,52.0,0,7,,,,,,
8026,97796.0,Note On,0,5.0,58.0,44.0,0,7,64.0,7.0,5.0,58.0,a#,44.0
8027,97816.0,Note Off,0,5.0,60.0,52.0,0,7,,,,,,
8028,97844.0,Note On,0,5.0,56.0,36.0,0,7,72.0,7.0,5.0,56.0,g#,36.0
8029,97860.0,Note Off,0,5.0,58.0,44.0,0,7,,,,,,
8030,97888.0,Note On,0,5.0,54.0,48.0,0,7,68.0,7.0,5.0,54.0,f#,48.0
8031,97916.0,Note Off,0,5.0,56.0,36.0,0,7,,,,,,
8032,97936.0,Note On,0,5.0,53.0,52.0,0,7,68.0,7.0,5.0,53.0,f,52.0
8033,97956.0,Note Off,0,5.0,54.0,48.0,0,7,,,,,,
8034,97988.0,Note On,0,5.0,51.0,52.0,0,7,48.0,6.0,4.0,54.0,f#,73.0
8035,97988.0,Note On,0,5.0,51.0,52.0,0,7,64.0,7.0,5.0,51.0,d#,52.0
8036,98004.0,Note Off,0,5.0,53.0,52.0,0,7,,,,,,
8037,98032.0,Note On,0,5.0,49.0,48.0,0,7,68.0,7.0,5.0,49.0,c#,48.0
8038,98052.0,Note Off,0,5.0,51.0,52.0,0,7,,,,,,
8039,98080.0,Note On,0,5.0,48.0,52.0,0,7,64.0,7.0,5.0,48.0,c,52.0
8040,98100.0,Note Off,0,5.0,49.0,48.0,0,7,,,,,,
8041,98128.0,Note On,0,5.0,46.0,56.0,0,7,72.0,7.0,5.0,46.0,A#,56.0
8042,98144.0,Note Off,0,5.0,48.0,52.0,0,7,,,,,,
8043,98180.0,Note On,0,5.0,44.0,48.0,0,7,196.0,7.0,5.0,44.0,G#,48.0
8044,98200.0,Note Off,0,5.0,46.0,56.0,0,7,,,,,,
8045,98376.0,Note Off,0,5.0,44.0,48.0,0,7,,,,,,
8046,109404.0,Note On,0,5.0,69.0,70.0,0,7,48.0,7.0,5.0,69.0,a',70.0
8047,109412.0,Note On,0,5.0,68.0,58.0,0,7,68.0,7.0,5.0,68.0,g#',58.0
8048,109436.0,Note On,0,5.0,66.0,55.0,0,7,72.0,7.0,5.0,66.0,f#',55.0
8049,109452.0,Note Off,0,5.0,69.0,70.0,0,7,,,,,,
8050,109480.0,Note Off,0,5.0,68.0,58.0,0,7,56.0,7.0,5.0,64.0,e',49.0
8051,109480.0,Note On,0,5.0,64.0,49.0,0,7,56.0,7.0,5.0,64.0,e',49.0
8052,109508.0,Note Off,0,5.0,66.0,55.0,0,7,60.0,7.0,5.0,62.0,d',63.0
8053,109508.0,Note On,0,5.0,62.0,63.0,0,7,60.0,7.0,5.0,62.0,d',63.0
8054,109532.0,Note On,0,5.0,61.0,40.0,0,7,72.0,7.0,5.0,61.0,c#',40.0
8055,109536.0,Note Off,0,5.0,64.0,49.0,0,7,,,,,,
8056,109564.0,Note On,0,5.0,59.0,34.0,0,7,80.0,7.0,5.0,59.0,b,34.0
8057,109568.0,Note Off,0,5.0,62.0,47.0,0,7,,,,,,
8058,109596.0,Note On,0,5.0,57.0,31.0,0,7,264.0,4.0,2.0,78.0,f#'',56.0
8059,109596.0,Note On,0,5.0,57.0,31.0,0,7,96.0,7.0,5.0,57.0,a,31.0
8060,109604.0,Note Off,0,5.0,61.0,40.0,0,7,,,,,,
8061,109644.0,Note Off,0,5.0,59.0,34.0,0,7,100.0,7.0,5.0,56.0,g#,26.0
8062,109644.0,Note On,0,5.0,56.0,26.0,0,7,100.0,7.0,5.0,56.0,g#,26.0
8063,109692.0,Note Off,0,5.0,57.0,31.0,0,7,,,,,,
8064,109700.0,Note On,0,5.0,54.0,23.0,0,7,88.0,7.0,5.0,54.0,f#,23.0
8065,109744.0,Note Off,0,5.0,56.0,26.0,0,7,,,,,,
8066,109752.0,Note On,0,5.0,52.0,23.0,0,7,48.0,7.0,5.0,52.0,e,23.0
8067,109788.0,Note Off,0,5.0,54.0,23.0,0,7,,,,,,
8068,109800.0,Note Off,0,5.0,52.0,23.0,0,7,,,,,,
8069,109820.0,Note On,0,5.0,59.0,56.0,0,7,408.0,4.0,2.0,79.0,g'',64.0
8070,109820.0,Note On,0,5.0,59.0,56.0,0,7,40.0,7.0,5.0,59.0,b,56.0
8071,109820.0,Note On,0,5.0,59.0,56.0,0,7,404.0,9.0,7.0,79.0,g'',69.0
8072,109836.0,Note On,0,5.0,57.0,58.0,0,7,64.0,7.0,5.0,57.0,a,58.0
8073,109860.0,Note Off,0,5.0,59.0,56.0,0,7,,,,,,
8074,109876.0,Note On,0,5.0,56.0,58.0,0,7,60.0,7.0,5.0,56.0,g#,58.0
8075,109900.0,Note Off,0,5.0,57.0,58.0,0,7,,,,,,
8076,109916.0,Note On,0,5.0,54.0,55.0,0,7,52.0,7.0,5.0,54.0,f#,55.0
8077,109936.0,Note Off,0,5.0,56.0,58.0,0,7,,,,,,
8078,109948.0,Note On,0,5.0,52.0,49.0,0,7,44.0,7.0,5.0,52.0,e,49.0
8079,109968.0,Note Off,0,5.0,54.0,55.0,0,7,,,,,,
8080,109972.0,Note On,0,5.0,50.0,43.0,0,7,52.0,7.0,5.0,50.0,d,43.0
8081,109992.0,Note Off,0,5.0,52.0,49.0,0,7,,,,,,
8082,110000.0,Note On,0,5.0,49.0,37.0,0,7,48.0,7.0,5.0,49.0,c#,37.0
8083,110024.0,Note Off,0,5.0,50.0,43.0,0,7,,,,,,
8084,110028.0,Note On,0,5.0,47.0,35.0,0,7,52.0,7.0,5.0,47.0,B,35.0
8085,110048.0,Note Off,0,5.0,49.0,37.0,0,7,,,,,,
8086,110056.0,Note On,0,5.0,45.0,34.0,0,7,56.0,7.0,5.0,45.0,A,34.0
8087,110080.0,Note Off,0,5.0,47.0,35.0,0,7,96.0,11.0,9.0,47.0,B,64.0
8088,110084.0,Note On,0,5.0,44.0,30.0,0,7,60.0,7.0,5.0,44.0,G#,30.0
8089,110112.0,Note Off,0,5.0,45.0,34.0,0,7,,,,,,
8090,110116.0,Note On,0,5.0,42.0,31.0,0,7,60.0,7.0,5.0,42.0,F#,31.0
8091,110144.0,Note Off,0,5.0,44.0,30.0,0,7,,,,,,
8092,110148.0,Note On,0,5.0,40.0,29.0,0,7,108.0,7.0,5.0,40.0,E,29.0
8093,110176.0,Note Off,0,5.0,42.0,31.0,0,7,,,,,,
8094,110204.0,Note On,0,5.0,38.0,34.0,0,7,384.0,2.0,0.0,62.0,d',66.0
8095,110204.0,Note On,0,5.0,38.0,34.0,0,7,72.0,7.0,5.0,38.0,D,34.0
8096,110256.0,Note Off,0,5.0,40.0,29.0,0,7,,,,,,
8097,110276.0,Note Off,0,5.0,38.0,34.0,0,7,,,,,,
8098,122040.0,Note On,0,5.0,42.0,37.0,0,7,52.0,7.0,5.0,42.0,F#,37.0
8099,122076.0,Note On,0,5.0,44.0,37.0,0,7,64.0,7.0,5.0,44.0,G#,37.0
8100,122092.0,Note Off,0,5.0,42.0,37.0,0,7,,,,,,
8101,122124.0,Note On,0,5.0,45.0,40.0,0,7,52.0,7.0,5.0,45.0,A,40.0
8102,122140.0,Note Off,0,5.0,44.0,37.0,0,7,,,,,,
8103,122164.0,Note On,0,5.0,47.0,40.0,0,7,52.0,7.0,5.0,47.0,B,40.0
8104,122176.0,Note Off,0,5.0,45.0,40.0,0,7,,,,,,
8105,122204.0,Note On,0,5.0,49.0,40.0,0,7,52.0,7.0,5.0,49.0,c#,40.0
8106,122216.0,Note Off,0,5.0,47.0,40.0,0,7,,,,,,
8107,122240.0,Note On,0,5.0,50.0,40.0,0,7,48.0,7.0,5.0,50.0,d,40.0
8108,122256.0,Note Off,0,5.0,49.0,40.0,0,7,,,,,,
8109,122276.0,Note On,0,5.0,52.0,43.0,0,7,48.0,7.0,5.0,52.0,e,43.0
8110,122288.0,Note Off,0,5.0,50.0,40.0,0,7,160.0,2.0,0.0,47.0,B,70.0
8111,122308.0,Note On,0,5.0,54.0,43.0,0,7,52.0,7.0,5.0,54.0,f#,43.0
8112,122324.0,Note Off,0,5.0,52.0,43.0,0,7,,,,,,
8113,122344.0,Note On,0,5.0,56.0,46.0,0,7,48.0,7.0,5.0,56.0,g#,46.0
8114,122360.0,Note Off,0,5.0,54.0,43.0,0,7,,,,,,
8115,122380.0,Note On,0,5.0,57.0,46.0,0,7,44.0,7.0,5.0,57.0,a,46.0
8116,122392.0,Note Off,0,5.0,56.0,46.0,0,7,,,,,,
8117,122408.0,Note On,0,5.0,59.0,52.0,0,7,52.0,7.0,5.0,59.0,b,52.0
8118,122424.0,Note Off,0,5.0,57.0,46.0,0,7,,,,,,
8119,122444.0,Note On,0,5.0,61.0,55.0,0,7,44.0,7.0,5.0,61.0,c#',55.0
8120,122460.0,Note Off,0,5.0,59.0,52.0,0,7,,,,,,
8121,122476.0,Note On,0,5.0,62.0,58.0,0,7,44.0,7.0,5.0,62.0,d',58.0
8122,122488.0,Note Off,0,5.0,61.0,55.0,0,7,,,,,,
8123,122512.0,Note On,0,5.0,64.0,61.0,0,7,44.0,7.0,5.0,64.0,e',61.0
8124,122520.0,Note Off,0,5.0,62.0,58.0,0,7,,,,,,
8125,122544.0,Note On,0,5.0,66.0,66.0,0,7,44.0,7.0,5.0,66.0,f#',66.0
8126,122556.0,Note Off,0,5.0,64.0,61.0,0,7,,,,,,
8127,122576.0,Note On,0,5.0,68.0,69.0,0,7,48.0,7.0,5.0,68.0,g#',69.0
8128,122588.0,Note Off,0,5.0,66.0,66.0,0,7,,,,,,
8129,122612.0,Note On,0,5.0,69.0,69.0,0,7,48.0,7.0,5.0,69.0,a',69.0
8130,122624.0,Note Off,0,5.0,68.0,69.0,0,7,,,,,,
8131,122644.0,Note On,0,5.0,71.0,69.0,0,7,52.0,7.0,5.0,71.0,b',69.0
8132,122660.0,Note Off,0,5.0,69.0,69.0,0,7,,,,,,
8133,122680.0,Note On,0,5.0,73.0,69.0,0,7,48.0,7.0,5.0,73.0,c#'',69.0
8134,122696.0,Note Off,0,5.0,71.0,69.0,0,7,,,,,,
8135,122712.0,Note On,0,5.0,74.0,69.0,0,7,52.0,7.0,5.0,74.0,d'',69.0
8136,122728.0,Note Off,0,5.0,73.0,69.0,0,7,,,,,,
8137,122752.0,Note On,0,5.0,76.0,69.0,0,7,48.0,7.0,5.0,76.0,e'',69.0
8138,122764.0,Note Off,0,5.0,74.0,69.0,0,7,,,,,,
8139,122784.0,Note On,0,5.0,78.0,58.0,0,7,52.0,7.0,5.0,78.0,f#'',58.0
8140,122800.0,Note Off,0,5.0,76.0,69.0,0,7,,,,,,
8141,122824.0,Note On,0,5.0,80.0,55.0,0,7,64.0,7.0,5.0,80.0,g#'',55.0
8142,122836.0,Note Off,0,5.0,78.0,58.0,0,7,,,,,,
8143,122868.0,Note On,0,5.0,81.0,49.0,0,7,3824.0,4.0,2.0,93.0,a''',64.0
8144,122868.0,Note On,0,5.0,81.0,49.0,0,7,176.0,7.0,5.0,81.0,a'',49.0
8145,122888.0,Note Off,0,5.0,80.0,55.0,0,7,,,,,,
8146,123044.0,Note Off,0,5.0,81.0,49.0,0,7,,,,,,
8147,140376.0,Note On,0,5.0,71.0,32.0,0,7,92.0,7.0,5.0,71.0,b',32.0
8148,140424.0,Note On,0,5.0,74.0,32.0,0,7,100.0,7.0,5.0,74.0,d'',32.0
8149,140464.0,Note On,0,5.0,78.0,48.0,0,7,80.0,7.0,5.0,78.0,f#'',48.0
8150,140468.0,Note Off,0,5.0,71.0,32.0,0,7,,,,,,
8151,140524.0,Note Off,0,5.0,74.0,32.0,0,7,44.0,7.0,5.0,83.0,b'',60.0
8152,140524.0,Note On,0,5.0,83.0,60.0,0,7,44.0,7.0,5.0,83.0,b'',60.0
8153,140544.0,Note Off,0,5.0,78.0,48.0,0,7,,,,,,
8154,140568.0,Note Off,0,5.0,83.0,60.0,0,7,,,,,,
8155,152420.0,Note On,0,5.0,50.0,16.0,0,7,52.0,7.0,5.0,50.0,d,16.0
8156,152440.0,Note On,0,5.0,52.0,30.0,0,7,88.0,7.0,5.0,52.0,e,30.0
8157,152472.0,Note Off,0,5.0,50.0,16.0,0,7,,,,,,
8158,152512.0,Note On,0,5.0,54.0,31.0,0,7,76.0,7.0,5.0,54.0,f#,31.0
8159,152528.0,Note Off,0,5.0,52.0,30.0,0,7,,,,,,
8160,152572.0,Note On,0,5.0,55.0,36.0,0,7,64.0,7.0,5.0,55.0,g,36.0
8161,152588.0,Note Off,0,5.0,54.0,31.0,0,7,,,,,,
8162,152620.0,Note On,0,5.0,57.0,44.0,0,7,68.0,7.0,5.0,57.0,a,44.0
8163,152636.0,Note Off,0,5.0,55.0,36.0,0,7,,,,,,
8164,152668.0,Note On,0,5.0,59.0,43.0,0,7,68.0,7.0,5.0,59.0,b,43.0
8165,152688.0,Note Off,0,5.0,57.0,44.0,0,7,,,,,,
8166,152724.0,Note On,0,5.0,61.0,40.0,0,7,60.0,7.0,5.0,61.0,c#',40.0
8167,152736.0,Note Off,0,5.0,59.0,43.0,0,7,,,,,,
8168,152768.0,Note On,0,5.0,62.0,46.0,0,7,72.0,7.0,5.0,62.0,d',46.0
8169,152784.0,Note Off,0,5.0,61.0,40.0,0,7,,,,,,
8170,152820.0,Note On,0,5.0,64.0,46.0,0,7,60.0,7.0,5.0,64.0,e',46.0
8171,152840.0,Note Off,0,5.0,62.0,46.0,0,7,,,,,,
8172,152864.0,Note On,0,5.0,66.0,46.0,0,7,68.0,7.0,5.0,66.0,f#',46.0
8173,152880.0,Note Off,0,5.0,64.0,46.0,0,7,,,,,,
8174,152912.0,Note On,0,5.0,67.0,46.0,0,7,64.0,7.0,5.0,67.0,g',46.0
8175,152932.0,Note Off,0,5.0,66.0,46.0,0,7,,,,,,
8176,152956.0,Note On,0,5.0,69.0,43.0,0,7,60.0,7.0,5.0,69.0,a',43.0
8177,152976.0,Note Off,0,5.0,67.0,46.0,0,7,,,,,,
8178,153000.0,Note On,0,5.0,71.0,46.0,0,7,56.0,7.0,5.0,71.0,b',46.0
8179,153016.0,Note Off,0,5.0,69.0,43.0,0,7,,,,,,
8180,153040.0,Note On,0,5.0,73.0,49.0,0,7,56.0,7.0,5.0,73.0,c#'',49.0
8181,153056.0,Note Off,0,5.0,71.0,46.0,0,7,,,,,,
8182,153080.0,Note On,0,5.0,74.0,52.0,0,7,56.0,7.0,5.0,74.0,d'',52.0
8183,153096.0,Note Off,0,5.0,73.0,49.0,0,7,,,,,,
8184,153120.0,Note On,0,5.0,76.0,52.0,0,7,56.0,7.0,5.0,76.0,e'',52.0
8185,153136.0,Note Off,0,5.0,74.0,52.0,0,7,,,,,,
8186,153160.0,Note On,0,5.0,78.0,52.0,0,7,48.0,7.0,5.0,78.0,f#'',52.0
8187,153176.0,Note Off,0,5.0,76.0,52.0,0,7,,,,,,
8188,153196.0,Note On,0,5.0,79.0,55.0,0,7,52.0,7.0,5.0,79.0,g'',55.0
8189,153208.0,Note Off,0,5.0,78.0,52.0,0,7,,,,,,
8190,153232.0,Note On,0,5.0,81.0,58.0,0,7,52.0,7.0,5.0,81.0,a'',58.0
8191,153248.0,Note Off,0,5.0,79.0,55.0,0,7,,,,,,
8192,153264.0,Note On,0,5.0,83.0,61.0,0,7,52.0,7.0,5.0,83.0,b'',61.0
8193,153284.0,Note Off,0,5.0,81.0,58.0,0,7,,,,,,
8194,153304.0,Note On,0,5.0,85.0,61.0,0,7,44.0,7.0,5.0,85.0,c#''',61.0
8195,153316.0,Note Off,0,5.0,83.0,61.0,0,7,,,,,,
8196,153332.0,Note On,0,5.0,86.0,61.0,0,7,52.0,7.0,5.0,86.0,d''',61.0
8197,153348.0,Note Off,0,5.0,85.0,61.0,0,7,,,,,,
8198,153368.0,Note On,0,5.0,88.0,64.0,0,7,48.0,7.0,5.0,88.0,e''',64.0
8199,153384.0,Note Off,0,5.0,86.0,61.0,0,7,,,,,,
8200,153404.0,Note On,0,5.0,90.0,66.0,0,7,48.0,7.0,5.0,90.0,f#''',66.0
8201,153416.0,Note Off,0,5.0,88.0,64.0,0,7,,,,,,
8202,153444.0,Note On,0,5.0,91.0,66.0,0,7,56.0,7.0,5.0,91.0,g''',66.0
8203,153452.0,Note Off,0,5.0,90.0,66.0,0,7,,,,,,
8204,153484.0,Note On,0,5.0,93.0,66.0,0,7,56.0,7.0,5.0,93.0,a''',66.0
8205,153500.0,Note Off,0,5.0,91.0,66.0,0,7,,,,,,
8206,153524.0,Note On,0,5.0,95.0,66.0,0,7,56.0,7.0,5.0,95.0,b''',66.0
8207,153540.0,Note Off,0,5.0,93.0,66.0,0,7,,,,,,
8208,153568.0,Note On,0,5.0,97.0,64.0,0,7,60.0,7.0,5.0,97.0,c#'''',64.0
8209,153580.0,Note Off,0,5.0,95.0,66.0,0,7,,,,,,
8210,153612.0,Note On,0,5.0,98.0,73.0,0,7,60.0,7.0,5.0,98.0,d'''',73.0
8211,153628.0,Note Off,0,5.0,97.0,64.0,0,7,,,,,,
8212,153672.0,Note Off,0,5.0,98.0,73.0,0,7,,,,,,
8213,165220.0,Controller,0,5.0,121.0,127.0,0,7,,,,,,
8214,165888.0,End of Track,2f,0.0,0.0,0.0,0,7,,,,,,
8215,0.0,Sequence/Track Name,03,0.0,0.0,0.0,+FEEDBCKGT,8,,,,,,
8216,504.0,Controller,0,6.0,0.0,8.0,0,8,,,,,,
8217,512.0,Program Change,0,6.0,31.0,0.0,0,8,,,,,,
8218,516.0,Controller,0,6.0,7.0,127.0,0,8,,,,,,
8219,516.0,Controller,0,6.0,10.0,64.0,0,8,,,,,,
8220,516.0,Controller,0,6.0,11.0,127.0,0,8,,,,,,
8221,520.0,Controller,0,6.0,91.0,100.0,0,8,,,,,,
8222,520.0,Controller,0,6.0,93.0,0.0,0,8,,,,,,
8223,99792.0,Note On,0,6.0,76.0,52.0,0,8,1504.0,4.0,2.0,64.0,e',56.0
8224,99792.0,Note On,0,6.0,76.0,52.0,0,8,768.0,8.0,6.0,76.0,e'',52.0
8225,100376.0,Note On,0,6.0,88.0,58.0,0,8,964.0,8.0,6.0,88.0,e''',58.0
8226,100560.0,Note Off,0,6.0,76.0,52.0,0,8,,,,,,
8227,101340.0,Note Off,0,6.0,88.0,58.0,0,8,,,,,,
8228,165240.0,Controller,0,6.0,121.0,127.0,0,8,,,,,,
8229,165888.0,End of Track,2f,0.0,0.0,0.0,0,8,,,,,,
8230,0.0,Sequence/Track Name,03,0.0,0.0,0.0,FANTASIA,9,,,,,,
8231,524.0,Controller,0,7.0,0.0,0.0,0,9,,,,,,
8232,532.0,Program Change,0,7.0,88.0,0.0,0,9,,,,,,
8233,536.0,Controller,0,7.0,7.0,127.0,0,9,,,,,,
8234,536.0,Controller,0,7.0,10.0,96.0,0,9,,,,,,
8235,536.0,Controller,0,7.0,11.0,127.0,0,9,,,,,,
8236,540.0,Controller,0,7.0,91.0,100.0,0,9,,,,,,
8237,540.0,Controller,0,7.0,93.0,0.0,0,9,,,,,,
8238,4224.0,Note On,0,7.0,84.0,48.0,0,9,200.0,9.0,7.0,84.0,c''',48.0
8239,4420.0,Note On,0,7.0,86.0,56.0,0,9,1328.0,9.0,7.0,86.0,d''',56.0
8240,4424.0,Note Off,0,7.0,84.0,48.0,0,9,,,,,,
8241,5748.0,Note Off,0,7.0,86.0,56.0,0,9,,,,,,
8242,5756.0,Note On,0,7.0,84.0,48.0,0,9,192.0,9.0,7.0,84.0,c''',48.0
8243,5948.0,Note Off,0,7.0,84.0,48.0,0,9,,,,,,
8244,5952.0,Note On,0,7.0,82.0,48.0,0,9,556.0,9.0,7.0,82.0,a#'',48.0
8245,6508.0,Note Off,0,7.0,82.0,48.0,0,9,,,,,,
8246,6524.0,Note On,0,7.0,84.0,44.0,0,9,192.0,9.0,7.0,84.0,c''',44.0
8247,6712.0,Note On,0,7.0,86.0,52.0,0,9,1484.0,9.0,7.0,86.0,d''',52.0
8248,6716.0,Note Off,0,7.0,84.0,44.0,0,9,980.0,2.0,0.0,62.0,d',83.0
8249,8196.0,Note Off,0,7.0,86.0,52.0,0,9,,,,,,
8250,8240.0,Note On,0,7.0,86.0,48.0,0,9,588.0,9.0,7.0,86.0,d''',48.0
8251,8240.0,Note On,0,7.0,86.0,48.0,0,9,400.0,13.0,11.0,55.0,g,61.0
8252,8824.0,Note On,0,7.0,84.0,32.0,0,9,168.0,9.0,7.0,84.0,c''',32.0
8253,8828.0,Note Off,0,7.0,86.0,48.0,0,9,,,,,,
8254,8992.0,Note Off,0,7.0,84.0,32.0,0,9,,,,,,
8255,9012.0,Note On,0,7.0,82.0,44.0,0,9,188.0,9.0,7.0,82.0,a#'',44.0
8256,9200.0,Note Off,0,7.0,82.0,44.0,0,9,,,,,,
8257,11336.0,Note On,0,7.0,65.0,40.0,0,9,188.0,9.0,7.0,65.0,f',40.0
8258,11516.0,Note On,0,7.0,74.0,55.0,0,9,204.0,9.0,7.0,74.0,d'',55.0
8259,11524.0,Note Off,0,7.0,65.0,40.0,0,9,,,,,,
8260,11700.0,Note On,0,7.0,63.0,48.0,0,9,572.0,2.0,0.0,63.0,d#',74.0
8261,11700.0,Note On,0,7.0,63.0,48.0,0,9,216.0,9.0,7.0,63.0,d#',48.0
8262,11720.0,Note Off,0,7.0,74.0,55.0,0,9,,,,,,
8263,11904.0,Note On,0,7.0,72.0,48.0,0,9,376.0,9.0,7.0,72.0,c'',48.0
8264,11904.0,Note On,0,7.0,72.0,48.0,0,9,352.0,11.0,9.0,81.0,a'',52.0
8265,11916.0,Note Off,0,7.0,63.0,48.0,0,9,,,,,,
8266,12280.0,Note Off,0,7.0,72.0,48.0,0,9,400.0,9.0,7.0,65.0,f',46.0
8267,12280.0,Note On,0,7.0,65.0,46.0,0,9,400.0,9.0,7.0,65.0,f',46.0
8268,12680.0,Note Off,0,7.0,65.0,46.0,0,9,,,,,,
8269,20548.0,Note On,0,7.0,77.0,44.0,0,9,188.0,9.0,7.0,77.0,f'',44.0
8270,20728.0,Note On,0,7.0,86.0,64.0,0,9,188.0,9.0,7.0,86.0,d''',64.0
8271,20736.0,Note Off,0,7.0,77.0,44.0,0,9,96.0,11.0,9.0,54.0,f#,91.0
8272,20916.0,Note Off,0,7.0,86.0,64.0,0,9,,,,,,
8273,20924.0,Note On,0,7.0,75.0,48.0,0,9,384.0,2.0,0.0,63.0,d#',82.0
8274,20924.0,Note On,0,7.0,75.0,48.0,0,9,192.0,9.0,7.0,75.0,d#'',48.0
8275,21108.0,Note On,0,7.0,84.0,52.0,0,9,196.0,9.0,7.0,84.0,c''',52.0
8276,21116.0,Note Off,0,7.0,75.0,48.0,0,9,368.0,2.0,0.0,53.0,f,66.0
8277,21300.0,Note On,0,7.0,74.0,60.0,0,9,212.0,9.0,7.0,74.0,d'',60.0
8278,21304.0,Note Off,0,7.0,84.0,52.0,0,9,192.0,2.0,0.0,62.0,d',83.0
8279,21496.0,Note On,0,7.0,82.0,48.0,0,9,1264.0,2.0,0.0,70.0,a#',88.0
8280,21496.0,Note On,0,7.0,82.0,48.0,0,9,792.0,9.0,7.0,82.0,a#'',48.0
8281,21512.0,Note Off,0,7.0,74.0,60.0,0,9,536.0,2.0,0.0,62.0,d',92.0
8282,22288.0,Note Off,0,7.0,82.0,48.0,0,9,,,,,,
8283,23424.0,Note On,0,7.0,63.0,48.0,0,9,216.0,9.0,7.0,63.0,d#',48.0
8284,23424.0,Note On,0,7.0,63.0,48.0,0,9,208.0,9.0,7.0,72.0,c'',52.0
8285,23424.0,Note On,0,7.0,63.0,48.0,0,9,60.0,12.0,10.0,41.0,F,48.0
8286,23424.0,Note On,0,7.0,72.0,52.0,0,9,216.0,9.0,7.0,63.0,d#',48.0
8287,23424.0,Note On,0,7.0,72.0,52.0,0,9,208.0,9.0,7.0,72.0,c'',52.0
8288,23424.0,Note On,0,7.0,72.0,52.0,0,9,60.0,12.0,10.0,41.0,F,48.0
8289,23608.0,Note On,0,7.0,75.0,52.0,0,9,416.0,2.0,0.0,75.0,d#'',92.0
8290,23608.0,Note On,0,7.0,75.0,52.0,0,9,416.0,9.0,7.0,75.0,d#'',52.0
8291,23612.0,Note On,0,7.0,67.0,48.0,0,9,392.0,9.0,7.0,67.0,g',48.0
8292,23632.0,Note Off,0,7.0,72.0,52.0,0,9,,,,,,
8293,23640.0,Note Off,0,7.0,63.0,48.0,0,9,,,,,,
8294,24000.0,Note On,0,7.0,65.0,52.0,0,9,200.0,9.0,7.0,65.0,f',52.0
8295,24000.0,Note On,0,7.0,65.0,52.0,0,9,200.0,11.0,9.0,80.0,g#'',36.0
8296,24004.0,Note Off,0,7.0,67.0,48.0,0,9,,,,,,
8297,24008.0,Note On,0,7.0,74.0,48.0,0,9,196.0,9.0,7.0,74.0,d'',48.0
8298,24024.0,Note Off,0,7.0,75.0,52.0,0,9,,,,,,
8299,24188.0,Note On,0,7.0,70.0,52.0,0,9,376.0,2.0,0.0,62.0,d',66.0
8300,24188.0,Note On,0,7.0,70.0,52.0,0,9,204.0,9.0,7.0,70.0,a#',52.0
8301,24192.0,Note On,0,7.0,62.0,40.0,0,9,372.0,9.0,7.0,62.0,d',40.0
8302,24192.0,Note On,0,7.0,62.0,40.0,0,9,352.0,11.0,9.0,81.0,a'',52.0
8303,24200.0,Note Off,0,7.0,65.0,52.0,0,9,,,,,,
8304,24204.0,Note Off,0,7.0,74.0,48.0,0,9,,,,,,
8305,24384.0,Note On,0,7.0,65.0,52.0,0,9,572.0,9.0,7.0,65.0,f',52.0
8306,24384.0,Note On,0,7.0,65.0,52.0,0,9,228.0,11.0,9.0,46.0,A#,55.0
8307,24384.0,Note On,0,7.0,65.0,52.0,0,9,188.0,11.0,9.0,53.0,f,48.0
8308,24392.0,Note Off,0,7.0,70.0,52.0,0,9,,,,,,
8309,24564.0,Note Off,0,7.0,62.0,40.0,0,9,,,,,,
8310,24956.0,Note Off,0,7.0,65.0,52.0,0,9,,,,,,
8311,33792.0,Note On,0,7.0,89.0,64.0,0,9,540.0,2.0,0.0,53.0,f,92.0
8312,33792.0,Note On,0,7.0,89.0,64.0,0,9,588.0,2.0,0.0,57.0,a,101.0
8313,33792.0,Note On,0,7.0,89.0,64.0,0,9,588.0,3.0,1.0,29.0,"F,",64.0
8314,33792.0,Note On,0,7.0,89.0,64.0,0,9,1868.0,5.0,3.0,65.0,f',82.0
8315,33792.0,Note On,0,7.0,89.0,64.0,0,9,760.0,9.0,7.0,89.0,f''',64.0
8316,33792.0,Note On,0,7.0,89.0,64.0,0,9,48.0,11.0,9.0,55.0,g,38.0
8317,33792.0,Note On,0,7.0,89.0,64.0,0,9,48.0,11.0,9.0,59.0,b,64.0
8318,33792.0,Note On,0,7.0,89.0,64.0,0,9,112.0,11.0,9.0,70.0,a#',69.0
8319,33792.0,Note On,0,7.0,89.0,64.0,0,9,96.0,12.0,10.0,36.0,C,78.0
8320,34552.0,Note Off,0,7.0,89.0,64.0,0,9,748.0,2.0,0.0,45.0,A,101.0
8321,46080.0,Note On,0,7.0,89.0,66.0,0,9,312.0,2.0,0.0,57.0,a,92.0
8322,46080.0,Note On,0,7.0,89.0,66.0,0,9,340.0,2.0,0.0,65.0,f',95.0
8323,46080.0,Note On,0,7.0,89.0,66.0,0,9,588.0,3.0,1.0,29.0,"F,",64.0
8324,46080.0,Note On,0,7.0,89.0,66.0,0,9,1540.0,4.0,2.0,69.0,a',52.0
8325,46080.0,Note On,0,7.0,89.0,66.0,0,9,168.0,9.0,7.0,89.0,f''',66.0
8326,46080.0,Note On,0,7.0,89.0,66.0,0,9,48.0,11.0,9.0,55.0,g,38.0
8327,46080.0,Note On,0,7.0,89.0,66.0,0,9,48.0,11.0,9.0,59.0,b,64.0
8328,46080.0,Note On,0,7.0,89.0,66.0,0,9,112.0,11.0,9.0,70.0,a#',69.0
8329,46080.0,Note On,0,7.0,89.0,66.0,0,9,96.0,12.0,10.0,36.0,C,78.0
8330,46248.0,Note Off,0,7.0,89.0,66.0,0,9,,,,,,
8331,46264.0,Note On,0,7.0,84.0,52.0,0,9,204.0,9.0,7.0,84.0,c''',52.0
8332,46460.0,Note On,0,7.0,77.0,52.0,0,9,208.0,9.0,7.0,77.0,f'',52.0
8333,46468.0,Note Off,0,7.0,84.0,52.0,0,9,196.0,2.0,0.0,60.0,c',66.0
8334,46652.0,Note On,0,7.0,89.0,52.0,0,9,208.0,9.0,7.0,89.0,f''',52.0
8335,46668.0,Note Off,0,7.0,77.0,52.0,0,9,,,,,,
8336,46840.0,Note On,0,7.0,81.0,43.0,0,9,748.0,2.0,0.0,45.0,A,101.0
8337,46840.0,Note On,0,7.0,81.0,43.0,0,9,784.0,4.0,2.0,72.0,c'',52.0
8338,46840.0,Note On,0,7.0,81.0,43.0,0,9,272.0,9.0,7.0,81.0,a'',43.0
8339,46860.0,Note Off,0,7.0,89.0,52.0,0,9,,,,,,
8340,47112.0,Note Off,0,7.0,81.0,43.0,0,9,,,,,,
8341,56788.0,Note On,0,7.0,79.0,40.0,0,9,56.0,9.0,7.0,79.0,g'',40.0
8342,56804.0,Note On,0,7.0,87.0,56.0,0,9,52.0,9.0,7.0,87.0,d#''',56.0
8343,56844.0,Note Off,0,7.0,79.0,40.0,0,9,,,,,,
8344,56856.0,Note Off,0,7.0,87.0,56.0,0,9,,,,,,
8345,57208.0,Note On,0,7.0,86.0,56.0,0,9,376.0,2.0,0.0,62.0,d',83.0
8346,57208.0,Note On,0,7.0,86.0,56.0,0,9,40.0,9.0,7.0,86.0,d''',56.0
8347,57248.0,Note Off,0,7.0,86.0,56.0,0,9,,,,,,
8348,57576.0,Note On,0,7.0,84.0,60.0,0,9,52.0,9.0,7.0,84.0,c''',60.0
8349,57628.0,Note Off,0,7.0,84.0,60.0,0,9,,,,,,
8350,57976.0,Note On,0,7.0,82.0,56.0,0,9,160.0,5.0,3.0,58.0,a#,56.0
8351,57976.0,Note On,0,7.0,82.0,56.0,0,9,32.0,9.0,7.0,82.0,a#'',56.0
8352,58008.0,Note Off,0,7.0,82.0,56.0,0,9,,,,,,
8353,59324.0,Note On,0,7.0,65.0,40.0,0,9,784.0,2.0,0.0,65.0,f',62.0
8354,59324.0,Note On,0,7.0,65.0,40.0,0,9,612.0,9.0,7.0,65.0,f',40.0
8355,59520.0,Note On,0,7.0,72.0,40.0,0,9,456.0,9.0,7.0,72.0,c'',40.0
8356,59716.0,Note On,0,7.0,74.0,40.0,0,9,296.0,9.0,7.0,74.0,d'',40.0
8357,59936.0,Note Off,0,7.0,65.0,40.0,0,9,,,,,,
8358,59976.0,Note Off,0,7.0,72.0,40.0,0,9,,,,,,
8359,60012.0,Note Off,0,7.0,74.0,40.0,0,9,,,,,,
8360,60096.0,Note On,0,7.0,77.0,43.0,0,9,1120.0,9.0,7.0,77.0,f'',43.0
8361,60280.0,Note On,0,7.0,84.0,52.0,0,9,1048.0,9.0,7.0,84.0,c''',52.0
8362,60468.0,Note On,0,7.0,86.0,56.0,0,9,848.0,2.0,0.0,86.0,d''',83.0
8363,60468.0,Note On,0,7.0,86.0,56.0,0,9,864.0,9.0,7.0,86.0,d''',56.0
8364,61216.0,Note Off,0,7.0,77.0,43.0,0,9,,,,,,
8365,61328.0,Note Off,0,7.0,84.0,52.0,0,9,,,,,,
8366,61332.0,Note Off,0,7.0,86.0,56.0,0,9,,,,,,
8367,63560.0,Note On,0,7.0,68.0,29.0,0,9,224.0,9.0,7.0,68.0,g#',29.0
8368,63740.0,Note On,0,7.0,77.0,56.0,0,9,360.0,2.0,0.0,77.0,f'',92.0
8369,63740.0,Note On,0,7.0,77.0,56.0,0,9,216.0,9.0,7.0,77.0,f'',56.0
8370,63784.0,Note Off,0,7.0,68.0,29.0,0,9,,,,,,
8371,63940.0,Note On,0,7.0,66.0,40.0,0,9,256.0,2.0,0.0,66.0,f#',66.0
8372,63940.0,Note On,0,7.0,66.0,40.0,0,9,216.0,9.0,7.0,66.0,f#',40.0
8373,63956.0,Note Off,0,7.0,77.0,56.0,0,9,,,,,,
8374,64120.0,Note On,0,7.0,75.0,60.0,0,9,208.0,9.0,7.0,75.0,d#'',60.0
8375,64156.0,Note Off,0,7.0,66.0,40.0,0,9,,,,,,
8376,64312.0,Note On,0,7.0,65.0,48.0,0,9,212.0,9.0,7.0,65.0,f',48.0
8377,64328.0,Note Off,0,7.0,75.0,60.0,0,9,,,,,,
8378,64512.0,Note On,0,7.0,73.0,48.0,0,9,1316.0,2.0,0.0,49.0,c#,92.0
8379,64512.0,Note On,0,7.0,73.0,48.0,0,9,492.0,2.0,0.0,56.0,g#,83.0
8380,64512.0,Note On,0,7.0,73.0,48.0,0,9,536.0,2.0,0.0,65.0,f',92.0
8381,64512.0,Note On,0,7.0,73.0,48.0,0,9,1312.0,3.0,1.0,37.0,C#,82.0
8382,64512.0,Note On,0,7.0,73.0,48.0,0,9,332.0,5.0,3.0,65.0,f',64.0
8383,64512.0,Note On,0,7.0,73.0,48.0,0,9,776.0,9.0,7.0,73.0,c#'',48.0
8384,64512.0,Note On,0,7.0,73.0,48.0,0,9,96.0,11.0,9.0,35.0,"B,",82.0
8385,64512.0,Note On,0,7.0,73.0,48.0,0,9,108.0,11.0,9.0,42.0,F#,72.0
8386,64512.0,Note On,0,7.0,73.0,48.0,0,9,112.0,11.0,9.0,70.0,a#',69.0
8387,64524.0,Note Off,0,7.0,65.0,48.0,0,9,,,,,,
8388,65288.0,Note Off,0,7.0,73.0,48.0,0,9,,,,,,
8389,100408.0,Note On,0,7.0,88.0,73.0,0,9,204.0,9.0,7.0,88.0,e''',73.0
8390,100600.0,Note On,0,7.0,85.0,73.0,0,9,188.0,9.0,7.0,85.0,c#''',73.0
8391,100612.0,Note Off,0,7.0,88.0,73.0,0,9,,,,,,
8392,100788.0,Note Off,0,7.0,85.0,73.0,0,9,,,,,,
8393,100800.0,Note On,0,7.0,86.0,72.0,0,9,172.0,9.0,7.0,86.0,d''',72.0
8394,100800.0,Note On,0,7.0,86.0,72.0,0,9,60.0,11.0,9.0,80.0,g#'',36.0
8395,100972.0,Note Off,0,7.0,86.0,72.0,0,9,,,,,,
8396,100980.0,Note On,0,7.0,83.0,73.0,0,9,200.0,9.0,7.0,83.0,b'',73.0
8397,101172.0,Note On,0,7.0,85.0,72.0,0,9,192.0,9.0,7.0,85.0,c#''',72.0
8398,101180.0,Note Off,0,7.0,83.0,73.0,0,9,48.0,6.0,4.0,49.0,c#,61.0
8399,101180.0,Note Off,0,7.0,83.0,73.0,0,9,56.0,11.0,9.0,42.0,F#,34.0
8400,101364.0,Note Off,0,7.0,85.0,72.0,0,9,,,,,,
8401,101372.0,Note On,0,7.0,81.0,81.0,0,9,588.0,2.0,0.0,64.0,e',62.0
8402,101372.0,Note On,0,7.0,81.0,81.0,0,9,760.0,9.0,7.0,81.0,a'',81.0
8403,102132.0,Note Off,0,7.0,81.0,81.0,0,9,,,,,,
8404,102332.0,Note On,0,7.0,73.0,64.0,0,9,524.0,2.0,0.0,61.0,c#',82.0
8405,102332.0,Note On,0,7.0,73.0,64.0,0,9,72.0,6.0,4.0,59.0,b,75.0
8406,102332.0,Note On,0,7.0,73.0,64.0,0,9,200.0,9.0,7.0,73.0,c#'',64.0
8407,102332.0,Note On,0,7.0,73.0,64.0,0,9,56.0,11.0,9.0,42.0,F#,23.0
8408,102524.0,Note On,0,7.0,76.0,69.0,0,9,388.0,2.0,0.0,57.0,a,82.0
8409,102524.0,Note On,0,7.0,76.0,69.0,0,9,188.0,9.0,7.0,76.0,e'',69.0
8410,102532.0,Note Off,0,7.0,73.0,64.0,0,9,,,,,,
8411,102712.0,Note Off,0,7.0,76.0,69.0,0,9,188.0,6.0,4.0,69.0,a',91.0
8412,102724.0,Note On,0,7.0,81.0,64.0,0,9,184.0,9.0,7.0,81.0,a'',64.0
8413,102908.0,Note Off,0,7.0,81.0,64.0,0,9,,,,,,
8414,102912.0,Note On,0,7.0,83.0,73.0,0,9,1120.0,3.0,1.0,29.0,"F,",82.0
8415,102912.0,Note On,0,7.0,83.0,73.0,0,9,1560.0,4.0,2.0,53.0,f,56.0
8416,102912.0,Note On,0,7.0,83.0,73.0,0,9,376.0,6.0,4.0,69.0,a',100.0
8417,102912.0,Note On,0,7.0,83.0,73.0,0,9,388.0,9.0,7.0,83.0,b'',73.0
8418,102912.0,Note On,0,7.0,83.0,73.0,0,9,96.0,11.0,9.0,35.0,"B,",82.0
8419,102912.0,Note On,0,7.0,83.0,73.0,0,9,108.0,11.0,9.0,42.0,F#,72.0
8420,103292.0,Note On,0,7.0,81.0,64.0,0,9,408.0,2.0,0.0,57.0,a,70.0
8421,103292.0,Note On,0,7.0,81.0,64.0,0,9,168.0,9.0,7.0,81.0,a'',64.0
8422,103300.0,Note Off,0,7.0,83.0,73.0,0,9,,,,,,
8423,103460.0,Note Off,0,7.0,81.0,64.0,0,9,,,,,,
8424,103492.0,Note On,0,7.0,81.0,73.0,0,9,552.0,9.0,7.0,81.0,a'',73.0
8425,104044.0,Note Off,0,7.0,81.0,73.0,0,9,,,,,,
8426,104064.0,Note On,0,7.0,80.0,72.0,0,9,360.0,2.0,0.0,40.0,E,92.0
8427,104064.0,Note On,0,7.0,80.0,72.0,0,9,356.0,2.0,0.0,56.0,g#,92.0
8428,104064.0,Note On,0,7.0,80.0,72.0,0,9,344.0,2.0,0.0,62.0,d',83.0
8429,104064.0,Note On,0,7.0,80.0,72.0,0,9,352.0,3.0,1.0,28.0,"E,",82.0
8430,104064.0,Note On,0,7.0,80.0,72.0,0,9,396.0,9.0,7.0,80.0,g#'',72.0
8431,104064.0,Note On,0,7.0,80.0,72.0,0,9,196.0,11.0,9.0,43.0,G,82.0
8432,104064.0,Note On,0,7.0,80.0,72.0,0,9,60.0,11.0,9.0,80.0,g#'',36.0
8433,104460.0,Note Off,0,7.0,80.0,72.0,0,9,732.0,9.0,7.0,78.0,f#'',64.0
8434,104460.0,Note On,0,7.0,78.0,64.0,0,9,732.0,9.0,7.0,78.0,f#'',64.0
8435,105192.0,Note Off,0,7.0,78.0,64.0,0,9,772.0,4.0,2.0,89.0,f''',73.0
8436,105976.0,Note On,0,7.0,73.0,61.0,0,9,120.0,6.0,4.0,54.0,f#,95.0
8437,105976.0,Note On,0,7.0,73.0,61.0,0,9,204.0,9.0,7.0,73.0,c#'',61.0
8438,106172.0,Note On,0,7.0,78.0,69.0,0,9,196.0,9.0,7.0,78.0,f#'',69.0
8439,106172.0,Note On,0,7.0,78.0,69.0,0,9,44.0,11.0,9.0,42.0,F#,23.0
8440,106180.0,Note Off,0,7.0,73.0,61.0,0,9,,,,,,
8441,106364.0,Note On,0,7.0,80.0,73.0,0,9,384.0,9.0,7.0,80.0,g#'',73.0
8442,106368.0,Note Off,0,7.0,78.0,69.0,0,9,120.0,11.0,9.0,42.0,F#,69.0
8443,106748.0,Note Off,0,7.0,80.0,73.0,0,9,,,,,,
8444,106752.0,Note On,0,7.0,81.0,73.0,0,9,744.0,3.0,1.0,28.0,"E,",82.0
8445,106752.0,Note On,0,7.0,81.0,73.0,0,9,364.0,9.0,7.0,81.0,a'',73.0
8446,106752.0,Note On,0,7.0,81.0,73.0,0,9,240.0,11.0,9.0,38.0,D,73.0
8447,106752.0,Note On,0,7.0,81.0,73.0,0,9,112.0,11.0,9.0,42.0,F#,75.0
8448,106752.0,Note On,0,7.0,81.0,73.0,0,9,96.0,11.0,9.0,54.0,f#,91.0
8449,107116.0,Note Off,0,7.0,81.0,73.0,0,9,,,,,,
8450,107128.0,Note On,0,7.0,83.0,75.0,0,9,404.0,9.0,7.0,83.0,b'',75.0
8451,107520.0,Note On,0,7.0,81.0,82.0,0,9,740.0,2.0,0.0,62.0,d',101.0
8452,107520.0,Note On,0,7.0,81.0,82.0,0,9,536.0,3.0,1.0,33.0,"A,",82.0
8453,107520.0,Note On,0,7.0,81.0,82.0,0,9,1552.0,4.0,2.0,74.0,d'',52.0
8454,107520.0,Note On,0,7.0,81.0,82.0,0,9,1548.0,9.0,7.0,81.0,a'',82.0
8455,107520.0,Note On,0,7.0,81.0,82.0,0,9,96.0,11.0,9.0,35.0,"B,",82.0
8456,107520.0,Note On,0,7.0,81.0,82.0,0,9,108.0,11.0,9.0,42.0,F#,72.0
8457,107532.0,Note Off,0,7.0,83.0,75.0,0,9,,,,,,
8458,109068.0,Note Off,0,7.0,81.0,82.0,0,9,,,,,,
8459,109616.0,Note On,0,7.0,78.0,60.0,0,9,212.0,9.0,7.0,78.0,f#'',60.0
8460,109820.0,Note On,0,7.0,79.0,69.0,0,9,408.0,4.0,2.0,79.0,g'',64.0
8461,109820.0,Note On,0,7.0,79.0,69.0,0,9,40.0,7.0,5.0,59.0,b,56.0
8462,109820.0,Note On,0,7.0,79.0,69.0,0,9,404.0,9.0,7.0,79.0,g'',69.0
8463,109828.0,Note Off,0,7.0,78.0,60.0,0,9,328.0,5.0,3.0,67.0,g',82.0
8464,110212.0,Note On,0,7.0,83.0,72.0,0,9,424.0,4.0,2.0,95.0,b''',60.0
8465,110212.0,Note On,0,7.0,83.0,72.0,0,9,372.0,9.0,7.0,83.0,b'',72.0
8466,110224.0,Note Off,0,7.0,79.0,69.0,0,9,,,,,,
8467,110584.0,Note Off,0,7.0,83.0,72.0,0,9,,,,,,
8468,110592.0,Note On,0,7.0,81.0,78.0,0,9,740.0,2.0,0.0,61.0,c#',101.0
8469,110592.0,Note On,0,7.0,81.0,78.0,0,9,732.0,2.0,0.0,64.0,e',92.0
8470,110592.0,Note On,0,7.0,81.0,78.0,0,9,716.0,3.0,1.0,30.0,"F#,",82.0
8471,110592.0,Note On,0,7.0,81.0,78.0,0,9,1868.0,5.0,3.0,69.0,a',82.0
8472,110592.0,Note On,0,7.0,81.0,78.0,0,9,800.0,9.0,7.0,81.0,a'',78.0
8473,110592.0,Note On,0,7.0,81.0,78.0,0,9,96.0,11.0,9.0,35.0,"B,",82.0
8474,110592.0,Note On,0,7.0,81.0,78.0,0,9,700.0,11.0,9.0,49.0,c#,64.0
8475,111392.0,Note Off,0,7.0,81.0,78.0,0,9,,,,,,
8476,137856.0,Note On,0,7.0,86.0,55.0,0,9,380.0,2.0,0.0,62.0,d',74.0
8477,137856.0,Note On,0,7.0,86.0,55.0,0,9,1336.0,9.0,7.0,86.0,d''',55.0
8478,139192.0,Note Off,0,7.0,86.0,55.0,0,9,,,,,,
8479,139196.0,Note On,0,7.0,71.0,40.0,0,9,200.0,9.0,7.0,71.0,b',40.0
8480,139388.0,Note On,0,7.0,73.0,52.0,0,9,208.0,9.0,7.0,73.0,c#'',52.0
8481,139396.0,Note Off,0,7.0,71.0,40.0,0,9,,,,,,
8482,139588.0,Note On,0,7.0,74.0,49.0,0,9,220.0,9.0,7.0,74.0,d'',49.0
8483,139596.0,Note Off,0,7.0,73.0,52.0,0,9,,,,,,
8484,139780.0,Note On,0,7.0,81.0,61.0,0,9,392.0,9.0,7.0,81.0,a'',61.0
8485,139808.0,Note Off,0,7.0,74.0,49.0,0,9,,,,,,
8486,140168.0,Note On,0,7.0,83.0,49.0,0,9,1424.0,9.0,7.0,83.0,b'',49.0
8487,140172.0,Note Off,0,7.0,81.0,61.0,0,9,,,,,,
8488,141592.0,Note Off,0,7.0,83.0,49.0,0,9,,,,,,
8489,155700.0,Note On,0,7.0,69.0,40.0,0,9,220.0,9.0,7.0,69.0,a',40.0
8490,155896.0,Note On,0,7.0,78.0,64.0,0,9,224.0,2.0,0.0,78.0,f#'',74.0
8491,155896.0,Note On,0,7.0,78.0,64.0,0,9,216.0,9.0,7.0,78.0,f#'',64.0
8492,155920.0,Note Off,0,7.0,69.0,40.0,0,9,,,,,,
8493,156092.0,Note On,0,7.0,67.0,56.0,0,9,208.0,2.0,0.0,67.0,g',58.0
8494,156092.0,Note On,0,7.0,67.0,56.0,0,9,212.0,9.0,7.0,67.0,g',56.0
8495,156112.0,Note Off,0,7.0,78.0,64.0,0,9,,,,,,
8496,156284.0,Note On,0,7.0,76.0,48.0,0,9,196.0,9.0,7.0,76.0,e'',48.0
8497,156304.0,Note Off,0,7.0,67.0,56.0,0,9,,,,,,
8498,156476.0,Note On,0,7.0,66.0,52.0,0,9,224.0,9.0,7.0,66.0,f#',52.0
8499,156480.0,Note Off,0,7.0,76.0,48.0,0,9,168.0,2.0,0.0,66.0,f#',50.0
8500,156480.0,Note Off,0,7.0,76.0,48.0,0,9,24.0,11.0,9.0,51.0,d#,31.0
8501,156668.0,Note On,0,7.0,74.0,49.0,0,9,588.0,2.0,0.0,69.0,a',62.0
8502,156668.0,Note On,0,7.0,74.0,49.0,0,9,744.0,9.0,7.0,74.0,d'',49.0
8503,156700.0,Note Off,0,7.0,66.0,52.0,0,9,,,,,,
8504,157412.0,Note Off,0,7.0,74.0,49.0,0,9,,,,,,
8505,165260.0,Controller,0,7.0,121.0,127.0,0,9,,,,,,
8506,165888.0,End of Track,2f,0.0,0.0,0.0,0,9,,,,,,
8507,0.0,Sequence/Track Name,03,0.0,0.0,0.0,A.PIANO 2,10,,,,,,
8508,544.0,Controller,0,8.0,0.0,0.0,0,10,,,,,,
8509,552.0,Program Change,0,8.0,1.0,0.0,0,10,,,,,,
8510,556.0,Controller,0,8.0,7.0,127.0,0,10,,,,,,
8511,556.0,Controller,0,8.0,10.0,32.0,0,10,,,,,,
8512,556.0,Controller,0,8.0,11.0,127.0,0,10,,,,,,
8513,560.0,Controller,0,8.0,91.0,100.0,0,10,,,,,,
8514,560.0,Controller,0,8.0,93.0,0.0,0,10,,,,,,
8515,21312.0,Note On,0,8.0,62.0,44.0,0,10,560.0,10.0,8.0,62.0,d',44.0
8516,21380.0,Note On,0,8.0,65.0,52.0,0,10,512.0,10.0,8.0,65.0,f',52.0
8517,21416.0,Note On,0,8.0,70.0,69.0,0,10,492.0,10.0,8.0,70.0,a#',69.0
8518,21416.0,Note On,0,8.0,70.0,69.0,0,10,72.0,11.0,9.0,59.0,b,45.0
8519,21484.0,Note On,0,8.0,74.0,75.0,0,10,412.0,10.0,8.0,74.0,d'',75.0
8520,21872.0,Note Off,0,8.0,62.0,44.0,0,10,,,,,,
8521,21892.0,Note Off,0,8.0,65.0,52.0,0,10,,,,,,
8522,21896.0,Note Off,0,8.0,74.0,75.0,0,10,,,,,,
8523,21908.0,Note Off,0,8.0,70.0,69.0,0,10,,,,,,
8524,165280.0,Controller,0,8.0,121.0,127.0,0,10,,,,,,
8525,165888.0,End of Track,2f,0.0,0.0,0.0,0,10,,,,,,
8526,0.0,Sequence/Track Name,03,0.0,0.0,0.0,DRUMS,11,,,,,,
8527,564.0,Controller,0,9.0,0.0,0.0,0,11,,,,,,
8528,572.0,Program Change,0,9.0,16.0,0.0,0,11,,,,,,
8529,576.0,Controller,0,9.0,7.0,127.0,0,11,,,,,,
8530,576.0,Controller,0,9.0,10.0,64.0,0,11,,,,,,
8531,576.0,Controller,0,9.0,11.0,127.0,0,11,,,,,,
8532,580.0,Controller,0,9.0,91.0,100.0,0,11,,,,,,
8533,580.0,Controller,0,9.0,93.0,0.0,0,11,,,,,,
8534,3072.0,Note On,0,9.0,70.0,69.0,0,11,1460.0,2.0,0.0,46.0,A#,83.0
8535,3072.0,Note On,0,9.0,70.0,69.0,0,11,3016.0,4.0,2.0,65.0,f',32.0
8536,3072.0,Note On,0,9.0,70.0,69.0,0,11,112.0,11.0,9.0,70.0,a#',69.0
8537,3072.0,Note On,0,9.0,70.0,69.0,0,11,60.0,12.0,10.0,41.0,F,48.0
8538,3072.0,Note On,0,9.0,70.0,69.0,0,11,132.0,13.0,11.0,46.0,A#,69.0
8539,3184.0,Note Off,0,9.0,70.0,69.0,0,11,,,,,,
8540,3264.0,Note On,0,9.0,70.0,52.0,0,11,84.0,11.0,9.0,70.0,a#',52.0
8541,3348.0,Note Off,0,9.0,70.0,52.0,0,11,,,,,,
8542,3456.0,Note On,0,9.0,70.0,52.0,0,11,192.0,2.0,0.0,60.0,c',83.0
8543,3456.0,Note On,0,9.0,70.0,52.0,0,11,112.0,11.0,9.0,70.0,a#',52.0
8544,3568.0,Note Off,0,9.0,70.0,52.0,0,11,,,,,,
8545,3648.0,Note On,0,9.0,70.0,32.0,0,11,2084.0,4.0,2.0,74.0,d'',32.0
8546,3648.0,Note On,0,9.0,70.0,32.0,0,11,220.0,11.0,9.0,70.0,a#',32.0
8547,3840.0,Note On,0,9.0,37.0,82.0,0,11,180.0,11.0,9.0,37.0,C#,82.0
8548,3868.0,Note Off,0,9.0,70.0,32.0,0,11,,,,,,
8549,4020.0,Note Off,0,9.0,37.0,82.0,0,11,,,,,,
8550,5376.0,Note On,0,9.0,54.0,91.0,0,11,96.0,11.0,9.0,54.0,f#,91.0
8551,5472.0,Note Off,0,9.0,54.0,91.0,0,11,,,,,,
8552,6144.0,Note On,0,9.0,70.0,69.0,0,11,1460.0,2.0,0.0,46.0,A#,83.0
8553,6144.0,Note On,0,9.0,70.0,69.0,0,11,112.0,11.0,9.0,70.0,a#',69.0
8554,6144.0,Note On,0,9.0,70.0,69.0,0,11,60.0,12.0,10.0,41.0,F,48.0
8555,6144.0,Note On,0,9.0,70.0,69.0,0,11,132.0,13.0,11.0,46.0,A#,69.0
8556,6256.0,Note Off,0,9.0,70.0,69.0,0,11,,,,,,
8557,6336.0,Note On,0,9.0,70.0,52.0,0,11,84.0,11.0,9.0,70.0,a#',52.0
8558,6420.0,Note Off,0,9.0,70.0,52.0,0,11,,,,,,
8559,6528.0,Note On,0,9.0,70.0,52.0,0,11,192.0,2.0,0.0,60.0,c',83.0
8560,6528.0,Note On,0,9.0,70.0,52.0,0,11,112.0,11.0,9.0,70.0,a#',52.0
8561,6640.0,Note Off,0,9.0,70.0,52.0,0,11,,,,,,
8562,6720.0,Note On,0,9.0,70.0,32.0,0,11,220.0,11.0,9.0,70.0,a#',32.0
8563,6912.0,Note On,0,9.0,37.0,82.0,0,11,180.0,11.0,9.0,37.0,C#,82.0
8564,6940.0,Note Off,0,9.0,70.0,32.0,0,11,,,,,,
8565,7092.0,Note Off,0,9.0,37.0,82.0,0,11,,,,,,
8566,8448.0,Note On,0,9.0,54.0,91.0,0,11,96.0,11.0,9.0,54.0,f#,91.0
8567,8544.0,Note Off,0,9.0,54.0,91.0,0,11,,,,,,
8568,9096.0,Note On,0,9.0,51.0,29.0,0,11,52.0,11.0,9.0,51.0,d#,29.0
8569,9128.0,Note On,0,9.0,59.0,45.0,0,11,72.0,11.0,9.0,59.0,b,45.0
8570,9148.0,Note Off,0,9.0,51.0,29.0,0,11,56.0,7.0,5.0,93.0,a''',58.0
8571,9164.0,Note On,0,9.0,51.0,44.0,0,11,76.0,11.0,9.0,51.0,d#,44.0
8572,9200.0,Note Off,0,9.0,59.0,45.0,0,11,,,,,,
8573,9216.0,Note On,0,9.0,59.0,64.0,0,11,1436.0,2.0,0.0,46.0,A#,92.0
8574,9216.0,Note On,0,9.0,59.0,64.0,0,11,492.0,2.0,0.0,53.0,f,83.0
8575,9216.0,Note On,0,9.0,59.0,64.0,0,11,296.0,5.0,3.0,62.0,d',73.0
8576,9216.0,Note On,0,9.0,59.0,64.0,0,11,48.0,11.0,9.0,59.0,b,64.0
8577,9216.0,Note On,0,9.0,59.0,64.0,0,11,112.0,11.0,9.0,70.0,a#',69.0
8578,9216.0,Note On,0,9.0,70.0,69.0,0,11,1436.0,2.0,0.0,46.0,A#,92.0
8579,9216.0,Note On,0,9.0,70.0,69.0,0,11,492.0,2.0,0.0,53.0,f,83.0
8580,9216.0,Note On,0,9.0,70.0,69.0,0,11,296.0,5.0,3.0,62.0,d',73.0
8581,9216.0,Note On,0,9.0,70.0,69.0,0,11,48.0,11.0,9.0,59.0,b,64.0
8582,9216.0,Note On,0,9.0,70.0,69.0,0,11,112.0,11.0,9.0,70.0,a#',69.0
8583,9240.0,Note Off,0,9.0,51.0,44.0,0,11,,,,,,
8584,9264.0,Note Off,0,9.0,59.0,64.0,0,11,,,,,,
8585,9328.0,Note Off,0,9.0,70.0,69.0,0,11,,,,,,
8586,9408.0,Note On,0,9.0,70.0,52.0,0,11,84.0,11.0,9.0,70.0,a#',52.0
8587,9492.0,Note Off,0,9.0,70.0,52.0,0,11,,,,,,
8588,9600.0,Note On,0,9.0,70.0,52.0,0,11,112.0,11.0,9.0,70.0,a#',52.0
8589,9712.0,Note Off,0,9.0,70.0,52.0,0,11,,,,,,
8590,9792.0,Note On,0,9.0,70.0,32.0,0,11,360.0,5.0,3.0,63.0,d#',64.0
8591,9792.0,Note On,0,9.0,70.0,32.0,0,11,220.0,11.0,9.0,70.0,a#',32.0
8592,9984.0,Note On,0,9.0,37.0,82.0,0,11,180.0,11.0,9.0,37.0,C#,82.0
8593,10012.0,Note Off,0,9.0,70.0,32.0,0,11,,,,,,
8594,10164.0,Note Off,0,9.0,37.0,82.0,0,11,,,,,,
8595,11520.0,Note On,0,9.0,54.0,91.0,0,11,96.0,11.0,9.0,54.0,f#,91.0
8596,11616.0,Note Off,0,9.0,54.0,91.0,0,11,,,,,,
8597,11712.0,Note On,0,9.0,80.0,36.0,0,11,200.0,11.0,9.0,80.0,g#'',36.0
8598,11904.0,Note On,0,9.0,81.0,52.0,0,11,376.0,9.0,7.0,72.0,c'',48.0
8599,11904.0,Note On,0,9.0,81.0,52.0,0,11,352.0,11.0,9.0,81.0,a'',52.0
8600,11912.0,Note Off,0,9.0,80.0,36.0,0,11,,,,,,
8601,12256.0,Note Off,0,9.0,81.0,52.0,0,11,,,,,,
8602,12288.0,Note On,0,9.0,70.0,69.0,0,11,1496.0,2.0,0.0,46.0,A#,92.0
8603,12288.0,Note On,0,9.0,70.0,69.0,0,11,492.0,2.0,0.0,53.0,f,83.0
8604,12288.0,Note On,0,9.0,70.0,69.0,0,11,548.0,2.0,0.0,65.0,f',70.0
8605,12288.0,Note On,0,9.0,70.0,69.0,0,11,332.0,5.0,3.0,62.0,d',64.0
8606,12288.0,Note On,0,9.0,70.0,69.0,0,11,112.0,11.0,9.0,70.0,a#',69.0
8607,12400.0,Note Off,0,9.0,70.0,69.0,0,11,,,,,,
8608,12480.0,Note On,0,9.0,70.0,52.0,0,11,84.0,11.0,9.0,70.0,a#',52.0
8609,12564.0,Note Off,0,9.0,70.0,52.0,0,11,,,,,,
8610,12672.0,Note On,0,9.0,70.0,52.0,0,11,112.0,11.0,9.0,70.0,a#',52.0
8611,12784.0,Note Off,0,9.0,70.0,52.0,0,11,,,,,,
8612,12864.0,Note On,0,9.0,70.0,32.0,0,11,220.0,11.0,9.0,70.0,a#',32.0
8613,13056.0,Note On,0,9.0,37.0,82.0,0,11,180.0,11.0,9.0,37.0,C#,82.0
8614,13084.0,Note Off,0,9.0,70.0,32.0,0,11,,,,,,
8615,13236.0,Note Off,0,9.0,37.0,82.0,0,11,176.0,5.0,3.0,62.0,d',73.0
8616,14592.0,Note On,0,9.0,54.0,91.0,0,11,604.0,5.0,3.0,60.0,c',73.0
8617,14592.0,Note On,0,9.0,54.0,91.0,0,11,96.0,11.0,9.0,54.0,f#,91.0
8618,14688.0,Note Off,0,9.0,54.0,91.0,0,11,,,,,,
8619,15360.0,Note On,0,9.0,70.0,69.0,0,11,572.0,2.0,0.0,60.0,c',88.0
8620,15360.0,Note On,0,9.0,70.0,69.0,0,11,112.0,11.0,9.0,70.0,a#',69.0
8621,15472.0,Note Off,0,9.0,70.0,69.0,0,11,,,,,,
8622,15552.0,Note On,0,9.0,70.0,52.0,0,11,84.0,11.0,9.0,70.0,a#',52.0
8623,15636.0,Note Off,0,9.0,70.0,52.0,0,11,,,,,,
8624,15744.0,Note On,0,9.0,70.0,52.0,0,11,112.0,11.0,9.0,70.0,a#',52.0
8625,15856.0,Note Off,0,9.0,70.0,52.0,0,11,,,,,,
8626,15936.0,Note On,0,9.0,70.0,32.0,0,11,300.0,5.0,3.0,62.0,d',75.0
8627,15936.0,Note On,0,9.0,70.0,32.0,0,11,220.0,11.0,9.0,70.0,a#',32.0
8628,16128.0,Note On,0,9.0,37.0,82.0,0,11,756.0,2.0,0.0,38.0,D,92.0
8629,16128.0,Note On,0,9.0,37.0,82.0,0,11,180.0,11.0,9.0,37.0,C#,82.0
8630,16156.0,Note Off,0,9.0,70.0,32.0,0,11,,,,,,
8631,16308.0,Note Off,0,9.0,37.0,82.0,0,11,,,,,,
8632,17664.0,Note On,0,9.0,54.0,91.0,0,11,96.0,11.0,9.0,54.0,f#,91.0
8633,17760.0,Note Off,0,9.0,54.0,91.0,0,11,,,,,,
8634,17856.0,Note On,0,9.0,80.0,36.0,0,11,200.0,11.0,9.0,80.0,g#'',36.0
8635,18048.0,Note On,0,9.0,81.0,52.0,0,11,352.0,11.0,9.0,81.0,a'',52.0
8636,18056.0,Note Off,0,9.0,80.0,36.0,0,11,,,,,,
8637,18400.0,Note Off,0,9.0,81.0,52.0,0,11,,,,,,
8638,18432.0,Note On,0,9.0,70.0,69.0,0,11,772.0,2.0,0.0,58.0,a#,86.0
8639,18432.0,Note On,0,9.0,70.0,69.0,0,11,324.0,5.0,3.0,55.0,g,73.0
8640,18432.0,Note On,0,9.0,70.0,69.0,0,11,112.0,11.0,9.0,70.0,a#',69.0
8641,18544.0,Note Off,0,9.0,70.0,69.0,0,11,,,,,,
8642,18624.0,Note On,0,9.0,70.0,52.0,0,11,84.0,11.0,9.0,70.0,a#',52.0
8643,18708.0,Note Off,0,9.0,70.0,52.0,0,11,,,,,,
8644,18816.0,Note On,0,9.0,70.0,52.0,0,11,112.0,11.0,9.0,70.0,a#',52.0
8645,18928.0,Note Off,0,9.0,70.0,52.0,0,11,,,,,,
8646,19008.0,Note On,0,9.0,70.0,32.0,0,11,220.0,11.0,9.0,70.0,a#',32.0
8647,19200.0,Note On,0,9.0,37.0,82.0,0,11,180.0,11.0,9.0,37.0,C#,82.0
8648,19228.0,Note Off,0,9.0,70.0,32.0,0,11,,,,,,
8649,19380.0,Note Off,0,9.0,37.0,82.0,0,11,360.0,2.0,0.0,58.0,a#,74.0
8650,20736.0,Note On,0,9.0,54.0,91.0,0,11,96.0,11.0,9.0,54.0,f#,91.0
8651,20832.0,Note Off,0,9.0,54.0,91.0,0,11,,,,,,
8652,21384.0,Note On,0,9.0,51.0,29.0,0,11,52.0,11.0,9.0,51.0,d#,29.0
8653,21416.0,Note On,0,9.0,59.0,45.0,0,11,492.0,10.0,8.0,70.0,a#',69.0
8654,21416.0,Note On,0,9.0,59.0,45.0,0,11,72.0,11.0,9.0,59.0,b,45.0
8655,21436.0,Note Off,0,9.0,51.0,29.0,0,11,,,,,,
8656,21452.0,Note On,0,9.0,51.0,44.0,0,11,76.0,11.0,9.0,51.0,d#,44.0
8657,21488.0,Note Off,0,9.0,59.0,45.0,0,11,,,,,,
8658,21504.0,Note On,0,9.0,59.0,64.0,0,11,1436.0,2.0,0.0,46.0,A#,92.0
8659,21504.0,Note On,0,9.0,59.0,64.0,0,11,492.0,2.0,0.0,53.0,f,83.0
8660,21504.0,Note On,0,9.0,59.0,64.0,0,11,296.0,5.0,3.0,62.0,d',73.0
8661,21504.0,Note On,0,9.0,59.0,64.0,0,11,48.0,11.0,9.0,59.0,b,64.0
8662,21504.0,Note On,0,9.0,59.0,64.0,0,11,112.0,11.0,9.0,70.0,a#',69.0
8663,21504.0,Note On,0,9.0,59.0,64.0,0,11,96.0,12.0,10.0,36.0,C,78.0
8664,21504.0,Note On,0,9.0,70.0,69.0,0,11,1436.0,2.0,0.0,46.0,A#,92.0
8665,21504.0,Note On,0,9.0,70.0,69.0,0,11,492.0,2.0,0.0,53.0,f,83.0
8666,21504.0,Note On,0,9.0,70.0,69.0,0,11,296.0,5.0,3.0,62.0,d',73.0
8667,21504.0,Note On,0,9.0,70.0,69.0,0,11,48.0,11.0,9.0,59.0,b,64.0
8668,21504.0,Note On,0,9.0,70.0,69.0,0,11,112.0,11.0,9.0,70.0,a#',69.0
8669,21504.0,Note On,0,9.0,70.0,69.0,0,11,96.0,12.0,10.0,36.0,C,78.0
8670,21528.0,Note Off,0,9.0,51.0,44.0,0,11,,,,,,
8671,21552.0,Note Off,0,9.0,59.0,64.0,0,11,,,,,,
8672,21616.0,Note Off,0,9.0,70.0,69.0,0,11,,,,,,
8673,21696.0,Note On,0,9.0,70.0,52.0,0,11,84.0,11.0,9.0,70.0,a#',52.0
8674,21780.0,Note Off,0,9.0,70.0,52.0,0,11,,,,,,
8675,21888.0,Note On,0,9.0,70.0,52.0,0,11,112.0,11.0,9.0,70.0,a#',52.0
8676,22000.0,Note Off,0,9.0,70.0,52.0,0,11,,,,,,
8677,22080.0,Note On,0,9.0,70.0,32.0,0,11,360.0,5.0,3.0,63.0,d#',64.0
8678,22080.0,Note On,0,9.0,70.0,32.0,0,11,220.0,11.0,9.0,70.0,a#',32.0
8679,22272.0,Note On,0,9.0,37.0,82.0,0,11,180.0,11.0,9.0,37.0,C#,82.0
8680,22300.0,Note Off,0,9.0,70.0,32.0,0,11,,,,,,
8681,22452.0,Note Off,0,9.0,37.0,82.0,0,11,1704.0,2.0,0.0,62.0,d',79.0
8682,23808.0,Note On,0,9.0,54.0,91.0,0,11,740.0,6.0,4.0,82.0,a#'',64.0
8683,23808.0,Note On,0,9.0,54.0,91.0,0,11,96.0,11.0,9.0,54.0,f#,91.0
8684,23904.0,Note Off,0,9.0,54.0,91.0,0,11,,,,,,
8685,24000.0,Note On,0,9.0,80.0,36.0,0,11,200.0,9.0,7.0,65.0,f',52.0
8686,24000.0,Note On,0,9.0,80.0,36.0,0,11,200.0,11.0,9.0,80.0,g#'',36.0
8687,24192.0,Note On,0,9.0,81.0,52.0,0,11,372.0,9.0,7.0,62.0,d',40.0
8688,24192.0,Note On,0,9.0,81.0,52.0,0,11,352.0,11.0,9.0,81.0,a'',52.0
8689,24200.0,Note Off,0,9.0,80.0,36.0,0,11,,,,,,
8690,24384.0,Note On,0,9.0,46.0,55.0,0,11,572.0,9.0,7.0,65.0,f',52.0
8691,24384.0,Note On,0,9.0,46.0,55.0,0,11,228.0,11.0,9.0,46.0,A#,55.0
8692,24384.0,Note On,0,9.0,46.0,55.0,0,11,188.0,11.0,9.0,53.0,f,48.0
8693,24384.0,Note On,0,9.0,53.0,48.0,0,11,572.0,9.0,7.0,65.0,f',52.0
8694,24384.0,Note On,0,9.0,53.0,48.0,0,11,228.0,11.0,9.0,46.0,A#,55.0
8695,24384.0,Note On,0,9.0,53.0,48.0,0,11,188.0,11.0,9.0,53.0,f,48.0
8696,24544.0,Note Off,0,9.0,81.0,52.0,0,11,,,,,,
8697,24572.0,Note Off,0,9.0,53.0,48.0,0,11,588.0,2.0,0.0,65.0,f',62.0
8698,24576.0,Note On,0,9.0,44.0,56.0,0,11,1316.0,2.0,0.0,46.0,A#,92.0
8699,24576.0,Note On,0,9.0,44.0,56.0,0,11,492.0,2.0,0.0,53.0,f,83.0
8700,24576.0,Note On,0,9.0,44.0,56.0,0,11,536.0,2.0,0.0,62.0,d',92.0
8701,24576.0,Note On,0,9.0,44.0,56.0,0,11,332.0,5.0,3.0,62.0,d',64.0
8702,24576.0,Note On,0,9.0,44.0,56.0,0,11,300.0,11.0,9.0,44.0,G#,56.0
8703,24576.0,Note On,0,9.0,44.0,56.0,0,11,280.0,11.0,9.0,51.0,d#,48.0
8704,24576.0,Note On,0,9.0,44.0,56.0,0,11,112.0,11.0,9.0,70.0,a#',69.0
8705,24576.0,Note On,0,9.0,44.0,56.0,0,11,96.0,12.0,10.0,36.0,C,78.0
8706,24576.0,Note On,0,9.0,51.0,48.0,0,11,1316.0,2.0,0.0,46.0,A#,92.0
8707,24576.0,Note On,0,9.0,51.0,48.0,0,11,492.0,2.0,0.0,53.0,f,83.0
8708,24576.0,Note On,0,9.0,51.0,48.0,0,11,536.0,2.0,0.0,62.0,d',92.0
8709,24576.0,Note On,0,9.0,51.0,48.0,0,11,332.0,5.0,3.0,62.0,d',64.0
8710,24576.0,Note On,0,9.0,51.0,48.0,0,11,300.0,11.0,9.0,44.0,G#,56.0
8711,24576.0,Note On,0,9.0,51.0,48.0,0,11,280.0,11.0,9.0,51.0,d#,48.0
8712,24576.0,Note On,0,9.0,51.0,48.0,0,11,112.0,11.0,9.0,70.0,a#',69.0
8713,24576.0,Note On,0,9.0,51.0,48.0,0,11,96.0,12.0,10.0,36.0,C,78.0
8714,24576.0,Note On,0,9.0,70.0,69.0,0,11,1316.0,2.0,0.0,46.0,A#,92.0
8715,24576.0,Note On,0,9.0,70.0,69.0,0,11,492.0,2.0,0.0,53.0,f,83.0
8716,24576.0,Note On,0,9.0,70.0,69.0,0,11,536.0,2.0,0.0,62.0,d',92.0
8717,24576.0,Note On,0,9.0,70.0,69.0,0,11,332.0,5.0,3.0,62.0,d',64.0
8718,24576.0,Note On,0,9.0,70.0,69.0,0,11,300.0,11.0,9.0,44.0,G#,56.0
8719,24576.0,Note On,0,9.0,70.0,69.0,0,11,280.0,11.0,9.0,51.0,d#,48.0
8720,24576.0,Note On,0,9.0,70.0,69.0,0,11,112.0,11.0,9.0,70.0,a#',69.0
8721,24576.0,Note On,0,9.0,70.0,69.0,0,11,96.0,12.0,10.0,36.0,C,78.0
8722,24612.0,Note Off,0,9.0,46.0,55.0,0,11,,,,,,
8723,24688.0,Note Off,0,9.0,70.0,69.0,0,11,,,,,,
8724,24768.0,Note On,0,9.0,70.0,52.0,0,11,84.0,11.0,9.0,70.0,a#',52.0
8725,24852.0,Note Off,0,9.0,70.0,52.0,0,11,,,,,,
8726,24856.0,Note Off,0,9.0,51.0,48.0,0,11,,,,,,
8727,24876.0,Note Off,0,9.0,44.0,56.0,0,11,,,,,,
8728,24960.0,Note On,0,9.0,70.0,52.0,0,11,112.0,11.0,9.0,70.0,a#',52.0
8729,25072.0,Note Off,0,9.0,70.0,52.0,0,11,,,,,,
8730,25152.0,Note On,0,9.0,70.0,32.0,0,11,220.0,11.0,9.0,70.0,a#',32.0
8731,25344.0,Note On,0,9.0,37.0,82.0,0,11,180.0,11.0,9.0,37.0,C#,82.0
8732,25372.0,Note Off,0,9.0,70.0,32.0,0,11,,,,,,
8733,25524.0,Note Off,0,9.0,37.0,82.0,0,11,176.0,5.0,3.0,62.0,d',73.0
8734,26880.0,Note On,0,9.0,54.0,91.0,0,11,604.0,5.0,3.0,60.0,c',73.0
8735,26880.0,Note On,0,9.0,54.0,91.0,0,11,96.0,11.0,9.0,54.0,f#,91.0
8736,26976.0,Note Off,0,9.0,54.0,91.0,0,11,,,,,,
8737,27648.0,Note On,0,9.0,70.0,69.0,0,11,572.0,2.0,0.0,60.0,c',88.0
8738,27648.0,Note On,0,9.0,70.0,69.0,0,11,112.0,11.0,9.0,70.0,a#',69.0
8739,27648.0,Note On,0,9.0,70.0,69.0,0,11,236.0,12.0,10.0,36.0,C,78.0
8740,27760.0,Note Off,0,9.0,70.0,69.0,0,11,,,,,,
8741,27840.0,Note On,0,9.0,70.0,52.0,0,11,84.0,11.0,9.0,70.0,a#',52.0
8742,27924.0,Note Off,0,9.0,70.0,52.0,0,11,,,,,,
8743,28032.0,Note On,0,9.0,70.0,52.0,0,11,112.0,11.0,9.0,70.0,a#',52.0
8744,28144.0,Note Off,0,9.0,70.0,52.0,0,11,,,,,,
8745,28224.0,Note On,0,9.0,70.0,32.0,0,11,300.0,5.0,3.0,62.0,d',75.0
8746,28224.0,Note On,0,9.0,70.0,32.0,0,11,220.0,11.0,9.0,70.0,a#',32.0
8747,28416.0,Note On,0,9.0,37.0,82.0,0,11,756.0,2.0,0.0,38.0,D,92.0
8748,28416.0,Note On,0,9.0,37.0,82.0,0,11,180.0,11.0,9.0,37.0,C#,82.0
8749,28444.0,Note Off,0,9.0,70.0,32.0,0,11,,,,,,
8750,28596.0,Note Off,0,9.0,37.0,82.0,0,11,,,,,,
8751,29952.0,Note On,0,9.0,54.0,91.0,0,11,96.0,11.0,9.0,54.0,f#,91.0
8752,30048.0,Note Off,0,9.0,54.0,91.0,0,11,,,,,,
8753,30144.0,Note On,0,9.0,80.0,36.0,0,11,200.0,11.0,9.0,80.0,g#'',36.0
8754,30336.0,Note On,0,9.0,81.0,52.0,0,11,176.0,5.0,3.0,57.0,a,69.0
8755,30336.0,Note On,0,9.0,81.0,52.0,0,11,352.0,11.0,9.0,81.0,a'',52.0
8756,30344.0,Note Off,0,9.0,80.0,36.0,0,11,,,,,,
8757,30688.0,Note Off,0,9.0,81.0,52.0,0,11,,,,,,
8758,30720.0,Note On,0,9.0,70.0,69.0,0,11,520.0,2.0,0.0,63.0,d#',76.0
8759,30720.0,Note On,0,9.0,70.0,69.0,0,11,324.0,5.0,3.0,55.0,g,73.0
8760,30720.0,Note On,0,9.0,70.0,69.0,0,11,112.0,11.0,9.0,70.0,a#',69.0
8761,30720.0,Note On,0,9.0,70.0,69.0,0,11,96.0,12.0,10.0,36.0,C,78.0
8762,30832.0,Note Off,0,9.0,70.0,69.0,0,11,,,,,,
8763,30912.0,Note On,0,9.0,70.0,52.0,0,11,84.0,11.0,9.0,70.0,a#',52.0
8764,30996.0,Note Off,0,9.0,70.0,52.0,0,11,,,,,,
8765,31104.0,Note On,0,9.0,70.0,52.0,0,11,188.0,2.0,0.0,55.0,g,66.0
8766,31104.0,Note On,0,9.0,70.0,52.0,0,11,112.0,11.0,9.0,70.0,a#',52.0
8767,31216.0,Note Off,0,9.0,70.0,52.0,0,11,,,,,,
8768,31296.0,Note On,0,9.0,70.0,32.0,0,11,168.0,2.0,0.0,63.0,d#',79.0
8769,31296.0,Note On,0,9.0,70.0,32.0,0,11,164.0,2.0,0.0,70.0,a#',83.0
8770,31296.0,Note On,0,9.0,70.0,32.0,0,11,220.0,11.0,9.0,70.0,a#',32.0
8771,31488.0,Note On,0,9.0,37.0,82.0,0,11,180.0,11.0,9.0,37.0,C#,82.0
8772,31516.0,Note Off,0,9.0,70.0,32.0,0,11,,,,,,
8773,31668.0,Note Off,0,9.0,37.0,82.0,0,11,172.0,2.0,0.0,58.0,a#,74.0
8774,31668.0,Note Off,0,9.0,37.0,82.0,0,11,176.0,2.0,0.0,70.0,a#',74.0
8775,33024.0,Note On,0,9.0,54.0,91.0,0,11,360.0,2.0,0.0,55.0,g,83.0
8776,33024.0,Note On,0,9.0,54.0,91.0,0,11,344.0,2.0,0.0,63.0,d#',86.0
8777,33024.0,Note On,0,9.0,54.0,91.0,0,11,96.0,11.0,9.0,54.0,f#,91.0
8778,33024.0,Note On,0,9.0,54.0,91.0,0,11,60.0,12.0,10.0,50.0,d,48.0
8779,33120.0,Note Off,0,9.0,54.0,91.0,0,11,64.0,7.0,5.0,58.0,a#,52.0
8780,33672.0,Note On,0,9.0,51.0,29.0,0,11,52.0,11.0,9.0,51.0,d#,29.0
8781,33704.0,Note On,0,9.0,59.0,45.0,0,11,72.0,11.0,9.0,59.0,b,45.0
8782,33724.0,Note Off,0,9.0,51.0,29.0,0,11,,,,,,
8783,33740.0,Note On,0,9.0,51.0,44.0,0,11,76.0,11.0,9.0,51.0,d#,44.0
8784,33776.0,Note Off,0,9.0,59.0,45.0,0,11,9240.0,4.0,2.0,65.0,f',42.0
8785,33792.0,Note On,0,9.0,55.0,38.0,0,11,540.0,2.0,0.0,53.0,f,92.0
8786,33792.0,Note On,0,9.0,55.0,38.0,0,11,588.0,2.0,0.0,57.0,a,101.0
8787,33792.0,Note On,0,9.0,55.0,38.0,0,11,588.0,3.0,1.0,29.0,"F,",64.0
8788,33792.0,Note On,0,9.0,55.0,38.0,0,11,1868.0,5.0,3.0,65.0,f',82.0
8789,33792.0,Note On,0,9.0,55.0,38.0,0,11,760.0,9.0,7.0,89.0,f''',64.0
8790,33792.0,Note On,0,9.0,55.0,38.0,0,11,48.0,11.0,9.0,55.0,g,38.0
8791,33792.0,Note On,0,9.0,55.0,38.0,0,11,48.0,11.0,9.0,59.0,b,64.0
8792,33792.0,Note On,0,9.0,55.0,38.0,0,11,112.0,11.0,9.0,70.0,a#',69.0
8793,33792.0,Note On,0,9.0,55.0,38.0,0,11,96.0,12.0,10.0,36.0,C,78.0
8794,33792.0,Note On,0,9.0,59.0,64.0,0,11,540.0,2.0,0.0,53.0,f,92.0
8795,33792.0,Note On,0,9.0,59.0,64.0,0,11,588.0,2.0,0.0,57.0,a,101.0
8796,33792.0,Note On,0,9.0,59.0,64.0,0,11,588.0,3.0,1.0,29.0,"F,",64.0
8797,33792.0,Note On,0,9.0,59.0,64.0,0,11,1868.0,5.0,3.0,65.0,f',82.0
8798,33792.0,Note On,0,9.0,59.0,64.0,0,11,760.0,9.0,7.0,89.0,f''',64.0
8799,33792.0,Note On,0,9.0,59.0,64.0,0,11,48.0,11.0,9.0,55.0,g,38.0
8800,33792.0,Note On,0,9.0,59.0,64.0,0,11,48.0,11.0,9.0,59.0,b,64.0
8801,33792.0,Note On,0,9.0,59.0,64.0,0,11,112.0,11.0,9.0,70.0,a#',69.0
8802,33792.0,Note On,0,9.0,59.0,64.0,0,11,96.0,12.0,10.0,36.0,C,78.0
8803,33792.0,Note On,0,9.0,70.0,69.0,0,11,540.0,2.0,0.0,53.0,f,92.0
8804,33792.0,Note On,0,9.0,70.0,69.0,0,11,588.0,2.0,0.0,57.0,a,101.0
8805,33792.0,Note On,0,9.0,70.0,69.0,0,11,588.0,3.0,1.0,29.0,"F,",64.0
8806,33792.0,Note On,0,9.0,70.0,69.0,0,11,1868.0,5.0,3.0,65.0,f',82.0
8807,33792.0,Note On,0,9.0,70.0,69.0,0,11,760.0,9.0,7.0,89.0,f''',64.0
8808,33792.0,Note On,0,9.0,70.0,69.0,0,11,48.0,11.0,9.0,55.0,g,38.0
8809,33792.0,Note On,0,9.0,70.0,69.0,0,11,48.0,11.0,9.0,59.0,b,64.0
8810,33792.0,Note On,0,9.0,70.0,69.0,0,11,112.0,11.0,9.0,70.0,a#',69.0
8811,33792.0,Note On,0,9.0,70.0,69.0,0,11,96.0,12.0,10.0,36.0,C,78.0
8812,33816.0,Note Off,0,9.0,51.0,44.0,0,11,,,,,,
8813,33840.0,Note Off,0,9.0,59.0,64.0,0,11,,,,,,
8814,33840.0,Note Off,0,9.0,55.0,38.0,0,11,,,,,,
8815,33904.0,Note Off,0,9.0,70.0,69.0,0,11,,,,,,
8816,33984.0,Note On,0,9.0,70.0,52.0,0,11,84.0,11.0,9.0,70.0,a#',52.0
8817,34068.0,Note Off,0,9.0,70.0,52.0,0,11,,,,,,
8818,34176.0,Note On,0,9.0,70.0,52.0,0,11,112.0,11.0,9.0,70.0,a#',52.0
8819,34288.0,Note Off,0,9.0,70.0,52.0,0,11,,,,,,
8820,34368.0,Note On,0,9.0,70.0,32.0,0,11,216.0,2.0,0.0,58.0,a#,74.0
8821,34368.0,Note On,0,9.0,70.0,32.0,0,11,188.0,3.0,1.0,31.0,"G,",64.0
8822,34368.0,Note On,0,9.0,70.0,32.0,0,11,220.0,11.0,9.0,70.0,a#',32.0
8823,34560.0,Note On,0,9.0,37.0,82.0,0,11,360.0,2.0,0.0,60.0,c',101.0
8824,34560.0,Note On,0,9.0,37.0,82.0,0,11,724.0,3.0,1.0,33.0,"A,",64.0
8825,34560.0,Note On,0,9.0,37.0,82.0,0,11,180.0,11.0,9.0,37.0,C#,82.0
8826,34588.0,Note Off,0,9.0,70.0,32.0,0,11,,,,,,
8827,34740.0,Note Off,0,9.0,37.0,82.0,0,11,,,,,,
8828,36096.0,Note On,0,9.0,54.0,91.0,0,11,96.0,11.0,9.0,54.0,f#,91.0
8829,36192.0,Note Off,0,9.0,54.0,91.0,0,11,,,,,,
8830,36864.0,Note On,0,9.0,70.0,69.0,0,11,1516.0,2.0,0.0,45.0,A,91.0
8831,36864.0,Note On,0,9.0,70.0,69.0,0,11,1444.0,3.0,1.0,33.0,"A,",64.0
8832,36864.0,Note On,0,9.0,70.0,69.0,0,11,112.0,11.0,9.0,70.0,a#',69.0
8833,36864.0,Note On,0,9.0,70.0,69.0,0,11,96.0,12.0,10.0,36.0,C,78.0
8834,36976.0,Note Off,0,9.0,70.0,69.0,0,11,,,,,,
8835,37056.0,Note On,0,9.0,70.0,52.0,0,11,84.0,11.0,9.0,70.0,a#',52.0
8836,37140.0,Note Off,0,9.0,70.0,52.0,0,11,,,,,,
8837,37248.0,Note On,0,9.0,70.0,52.0,0,11,112.0,11.0,9.0,70.0,a#',52.0
8838,37360.0,Note Off,0,9.0,70.0,52.0,0,11,,,,,,
8839,37440.0,Note On,0,9.0,70.0,32.0,0,11,220.0,11.0,9.0,70.0,a#',32.0
8840,37632.0,Note On,0,9.0,37.0,82.0,0,11,180.0,11.0,9.0,37.0,C#,82.0
8841,37660.0,Note Off,0,9.0,70.0,32.0,0,11,,,,,,
8842,37812.0,Note Off,0,9.0,37.0,82.0,0,11,,,,,,
8843,39168.0,Note On,0,9.0,54.0,91.0,0,11,720.0,3.0,1.0,38.0,D,64.0
8844,39168.0,Note On,0,9.0,54.0,91.0,0,11,96.0,11.0,9.0,54.0,f#,91.0
8845,39264.0,Note Off,0,9.0,54.0,91.0,0,11,,,,,,
8846,39936.0,Note On,0,9.0,70.0,69.0,0,11,732.0,3.0,1.0,39.0,D#,64.0
8847,39936.0,Note On,0,9.0,70.0,69.0,0,11,112.0,11.0,9.0,70.0,a#',69.0
8848,39936.0,Note On,0,9.0,70.0,69.0,0,11,96.0,12.0,10.0,36.0,C,78.0
8849,40048.0,Note Off,0,9.0,70.0,69.0,0,11,,,,,,
8850,40128.0,Note On,0,9.0,70.0,52.0,0,11,84.0,11.0,9.0,70.0,a#',52.0
8851,40212.0,Note Off,0,9.0,70.0,52.0,0,11,,,,,,
8852,40320.0,Note On,0,9.0,70.0,52.0,0,11,112.0,11.0,9.0,70.0,a#',52.0
8853,40432.0,Note Off,0,9.0,70.0,52.0,0,11,,,,,,
8854,40512.0,Note On,0,9.0,70.0,32.0,0,11,220.0,11.0,9.0,70.0,a#',32.0
8855,40704.0,Note On,0,9.0,37.0,82.0,0,11,660.0,3.0,1.0,38.0,D,64.0
8856,40704.0,Note On,0,9.0,37.0,82.0,0,11,180.0,11.0,9.0,37.0,C#,82.0
8857,40732.0,Note Off,0,9.0,70.0,32.0,0,11,,,,,,
8858,40884.0,Note Off,0,9.0,37.0,82.0,0,11,,,,,,
8859,42240.0,Note On,0,9.0,54.0,91.0,0,11,696.0,3.0,1.0,38.0,D,64.0
8860,42240.0,Note On,0,9.0,54.0,91.0,0,11,96.0,11.0,9.0,54.0,f#,91.0
8861,42336.0,Note Off,0,9.0,54.0,91.0,0,11,,,,,,
8862,42432.0,Note On,0,9.0,80.0,36.0,0,11,200.0,11.0,9.0,80.0,g#'',36.0
8863,42624.0,Note On,0,9.0,81.0,52.0,0,11,352.0,11.0,9.0,81.0,a'',52.0
8864,42632.0,Note Off,0,9.0,80.0,36.0,0,11,,,,,,
8865,42976.0,Note Off,0,9.0,81.0,52.0,0,11,,,,,,
8866,43008.0,Note On,0,9.0,70.0,69.0,0,11,716.0,3.0,1.0,31.0,"G,",64.0
8867,43008.0,Note On,0,9.0,70.0,69.0,0,11,372.0,5.0,3.0,62.0,d',75.0
8868,43008.0,Note On,0,9.0,70.0,69.0,0,11,112.0,11.0,9.0,70.0,a#',69.0
8869,43008.0,Note On,0,9.0,70.0,69.0,0,11,96.0,12.0,10.0,36.0,C,78.0
8870,43120.0,Note Off,0,9.0,70.0,69.0,0,11,,,,,,
8871,43200.0,Note On,0,9.0,70.0,52.0,0,11,84.0,11.0,9.0,70.0,a#',52.0
8872,43284.0,Note Off,0,9.0,70.0,52.0,0,11,,,,,,
8873,43392.0,Note On,0,9.0,70.0,52.0,0,11,112.0,11.0,9.0,70.0,a#',52.0
8874,43504.0,Note Off,0,9.0,70.0,52.0,0,11,,,,,,
8875,43584.0,Note On,0,9.0,70.0,32.0,0,11,220.0,11.0,9.0,70.0,a#',32.0
8876,43776.0,Note On,0,9.0,37.0,82.0,0,11,740.0,2.0,0.0,55.0,g,78.0
8877,43776.0,Note On,0,9.0,37.0,82.0,0,11,792.0,2.0,0.0,60.0,c',83.0
8878,43776.0,Note On,0,9.0,37.0,82.0,0,11,556.0,3.0,1.0,28.0,"E,",64.0
8879,43776.0,Note On,0,9.0,37.0,82.0,0,11,180.0,11.0,9.0,37.0,C#,82.0
8880,43804.0,Note Off,0,9.0,70.0,32.0,0,11,,,,,,
8881,43956.0,Note Off,0,9.0,37.0,82.0,0,11,,,,,,
8882,45312.0,Note On,0,9.0,54.0,91.0,0,11,376.0,5.0,3.0,63.0,d#',87.0
8883,45312.0,Note On,0,9.0,54.0,91.0,0,11,96.0,11.0,9.0,54.0,f#,91.0
8884,45408.0,Note Off,0,9.0,54.0,91.0,0,11,64.0,7.0,5.0,58.0,a#,52.0
8885,45960.0,Note On,0,9.0,51.0,29.0,0,11,52.0,11.0,9.0,51.0,d#,29.0
8886,45992.0,Note On,0,9.0,59.0,45.0,0,11,72.0,11.0,9.0,59.0,b,45.0
8887,46012.0,Note Off,0,9.0,51.0,29.0,0,11,,,,,,
8888,46028.0,Note On,0,9.0,51.0,44.0,0,11,76.0,11.0,9.0,51.0,d#,44.0
8889,46064.0,Note Off,0,9.0,59.0,45.0,0,11,,,,,,
8890,46080.0,Note On,0,9.0,55.0,38.0,0,11,312.0,2.0,0.0,57.0,a,92.0
8891,46080.0,Note On,0,9.0,55.0,38.0,0,11,340.0,2.0,0.0,65.0,f',95.0
8892,46080.0,Note On,0,9.0,55.0,38.0,0,11,588.0,3.0,1.0,29.0,"F,",64.0
8893,46080.0,Note On,0,9.0,55.0,38.0,0,11,1540.0,4.0,2.0,69.0,a',52.0
8894,46080.0,Note On,0,9.0,55.0,38.0,0,11,168.0,9.0,7.0,89.0,f''',66.0
8895,46080.0,Note On,0,9.0,55.0,38.0,0,11,48.0,11.0,9.0,55.0,g,38.0
8896,46080.0,Note On,0,9.0,55.0,38.0,0,11,48.0,11.0,9.0,59.0,b,64.0
8897,46080.0,Note On,0,9.0,55.0,38.0,0,11,112.0,11.0,9.0,70.0,a#',69.0
8898,46080.0,Note On,0,9.0,55.0,38.0,0,11,96.0,12.0,10.0,36.0,C,78.0
8899,46080.0,Note On,0,9.0,59.0,64.0,0,11,312.0,2.0,0.0,57.0,a,92.0
8900,46080.0,Note On,0,9.0,59.0,64.0,0,11,340.0,2.0,0.0,65.0,f',95.0
8901,46080.0,Note On,0,9.0,59.0,64.0,0,11,588.0,3.0,1.0,29.0,"F,",64.0
8902,46080.0,Note On,0,9.0,59.0,64.0,0,11,1540.0,4.0,2.0,69.0,a',52.0
8903,46080.0,Note On,0,9.0,59.0,64.0,0,11,168.0,9.0,7.0,89.0,f''',66.0
8904,46080.0,Note On,0,9.0,59.0,64.0,0,11,48.0,11.0,9.0,55.0,g,38.0
8905,46080.0,Note On,0,9.0,59.0,64.0,0,11,48.0,11.0,9.0,59.0,b,64.0
8906,46080.0,Note On,0,9.0,59.0,64.0,0,11,112.0,11.0,9.0,70.0,a#',69.0
8907,46080.0,Note On,0,9.0,59.0,64.0,0,11,96.0,12.0,10.0,36.0,C,78.0
8908,46080.0,Note On,0,9.0,70.0,69.0,0,11,312.0,2.0,0.0,57.0,a,92.0
8909,46080.0,Note On,0,9.0,70.0,69.0,0,11,340.0,2.0,0.0,65.0,f',95.0
8910,46080.0,Note On,0,9.0,70.0,69.0,0,11,588.0,3.0,1.0,29.0,"F,",64.0
8911,46080.0,Note On,0,9.0,70.0,69.0,0,11,1540.0,4.0,2.0,69.0,a',52.0
8912,46080.0,Note On,0,9.0,70.0,69.0,0,11,168.0,9.0,7.0,89.0,f''',66.0
8913,46080.0,Note On,0,9.0,70.0,69.0,0,11,48.0,11.0,9.0,55.0,g,38.0
8914,46080.0,Note On,0,9.0,70.0,69.0,0,11,48.0,11.0,9.0,59.0,b,64.0
8915,46080.0,Note On,0,9.0,70.0,69.0,0,11,112.0,11.0,9.0,70.0,a#',69.0
8916,46080.0,Note On,0,9.0,70.0,69.0,0,11,96.0,12.0,10.0,36.0,C,78.0
8917,46104.0,Note Off,0,9.0,51.0,44.0,0,11,,,,,,
8918,46128.0,Note Off,0,9.0,59.0,64.0,0,11,,,,,,
8919,46128.0,Note Off,0,9.0,55.0,38.0,0,11,,,,,,
8920,46192.0,Note Off,0,9.0,70.0,69.0,0,11,,,,,,
8921,46272.0,Note On,0,9.0,70.0,52.0,0,11,84.0,11.0,9.0,70.0,a#',52.0
8922,46356.0,Note Off,0,9.0,70.0,52.0,0,11,,,,,,
8923,46464.0,Note On,0,9.0,70.0,52.0,0,11,192.0,2.0,0.0,57.0,a,66.0
8924,46464.0,Note On,0,9.0,70.0,52.0,0,11,112.0,11.0,9.0,70.0,a#',52.0
8925,46576.0,Note Off,0,9.0,70.0,52.0,0,11,,,,,,
8926,46656.0,Note On,0,9.0,70.0,32.0,0,11,188.0,3.0,1.0,31.0,"G,",64.0
8927,46656.0,Note On,0,9.0,70.0,32.0,0,11,220.0,11.0,9.0,70.0,a#',32.0
8928,46848.0,Note On,0,9.0,37.0,82.0,0,11,360.0,2.0,0.0,57.0,a,92.0
8929,46848.0,Note On,0,9.0,37.0,82.0,0,11,724.0,3.0,1.0,33.0,"A,",64.0
8930,46848.0,Note On,0,9.0,37.0,82.0,0,11,180.0,11.0,9.0,37.0,C#,82.0
8931,46876.0,Note Off,0,9.0,70.0,32.0,0,11,,,,,,
8932,47028.0,Note Off,0,9.0,37.0,82.0,0,11,,,,,,
8933,47808.0,Note On,0,9.0,80.0,36.0,0,11,60.0,11.0,9.0,80.0,g#'',36.0
8934,47808.0,Note On,0,9.0,80.0,36.0,0,11,60.0,12.0,10.0,50.0,d,48.0
8935,47868.0,Note Off,0,9.0,80.0,36.0,0,11,,,,,,
8936,48000.0,Note On,0,9.0,80.0,36.0,0,11,60.0,11.0,9.0,80.0,g#'',36.0
8937,48000.0,Note On,0,9.0,80.0,36.0,0,11,60.0,12.0,10.0,45.0,A,48.0
8938,48060.0,Note Off,0,9.0,80.0,36.0,0,11,,,,,,
8939,48192.0,Note On,0,9.0,81.0,52.0,0,11,920.0,3.0,1.0,34.0,"A#,",64.0
8940,48192.0,Note On,0,9.0,81.0,52.0,0,11,352.0,11.0,9.0,81.0,a'',52.0
8941,48192.0,Note On,0,9.0,81.0,52.0,0,11,60.0,12.0,10.0,50.0,d,48.0
8942,48384.0,Note On,0,9.0,54.0,91.0,0,11,96.0,11.0,9.0,54.0,f#,91.0
8943,48480.0,Note Off,0,9.0,54.0,91.0,0,11,,,,,,
8944,48544.0,Note Off,0,9.0,81.0,52.0,0,11,,,,,,
8945,49152.0,Note On,0,9.0,70.0,69.0,0,11,536.0,2.0,0.0,41.0,F,91.0
8946,49152.0,Note On,0,9.0,70.0,69.0,0,11,540.0,3.0,1.0,29.0,"F,",64.0
8947,49152.0,Note On,0,9.0,70.0,69.0,0,11,732.0,4.0,2.0,77.0,f'',52.0
8948,49152.0,Note On,0,9.0,70.0,69.0,0,11,112.0,11.0,9.0,70.0,a#',69.0
8949,49152.0,Note On,0,9.0,70.0,69.0,0,11,96.0,12.0,10.0,36.0,C,78.0
8950,49264.0,Note Off,0,9.0,70.0,69.0,0,11,,,,,,
8951,49344.0,Note On,0,9.0,70.0,52.0,0,11,84.0,11.0,9.0,70.0,a#',52.0
8952,49428.0,Note Off,0,9.0,70.0,52.0,0,11,,,,,,
8953,49536.0,Note On,0,9.0,70.0,52.0,0,11,112.0,11.0,9.0,70.0,a#',52.0
8954,49648.0,Note Off,0,9.0,70.0,52.0,0,11,,,,,,
8955,49728.0,Note On,0,9.0,70.0,32.0,0,11,736.0,3.0,1.0,30.0,"F#,",64.0
8956,49728.0,Note On,0,9.0,70.0,32.0,0,11,220.0,11.0,9.0,70.0,a#',32.0
8957,49920.0,Note On,0,9.0,37.0,82.0,0,11,180.0,11.0,9.0,37.0,C#,82.0
8958,49948.0,Note Off,0,9.0,70.0,32.0,0,11,,,,,,
8959,50100.0,Note Off,0,9.0,37.0,82.0,0,11,,,,,,
8960,50880.0,Note On,0,9.0,80.0,36.0,0,11,60.0,11.0,9.0,80.0,g#'',36.0
8961,50880.0,Note On,0,9.0,80.0,36.0,0,11,60.0,12.0,10.0,50.0,d,48.0
8962,50940.0,Note Off,0,9.0,80.0,36.0,0,11,,,,,,
8963,51072.0,Note On,0,9.0,80.0,36.0,0,11,60.0,11.0,9.0,80.0,g#'',36.0
8964,51072.0,Note On,0,9.0,80.0,36.0,0,11,60.0,12.0,10.0,45.0,A,48.0
8965,51132.0,Note Off,0,9.0,80.0,36.0,0,11,,,,,,
8966,51264.0,Note On,0,9.0,81.0,52.0,0,11,352.0,11.0,9.0,81.0,a'',52.0
8967,51264.0,Note On,0,9.0,81.0,52.0,0,11,60.0,12.0,10.0,50.0,d,48.0
8968,51456.0,Note On,0,9.0,54.0,91.0,0,11,716.0,3.0,1.0,34.0,"A#,",64.0
8969,51456.0,Note On,0,9.0,54.0,91.0,0,11,96.0,11.0,9.0,54.0,f#,91.0
8970,51456.0,Note On,0,9.0,54.0,91.0,0,11,60.0,12.0,10.0,50.0,d,48.0
8971,51552.0,Note Off,0,9.0,54.0,91.0,0,11,,,,,,
8972,51616.0,Note Off,0,9.0,81.0,52.0,0,11,,,,,,
8973,52224.0,Note On,0,9.0,70.0,69.0,0,11,732.0,3.0,1.0,39.0,D#,64.0
8974,52224.0,Note On,0,9.0,70.0,69.0,0,11,112.0,11.0,9.0,70.0,a#',69.0
8975,52224.0,Note On,0,9.0,70.0,69.0,0,11,96.0,12.0,10.0,36.0,C,78.0
8976,52336.0,Note Off,0,9.0,70.0,69.0,0,11,,,,,,
8977,52416.0,Note On,0,9.0,70.0,52.0,0,11,84.0,11.0,9.0,70.0,a#',52.0
8978,52500.0,Note Off,0,9.0,70.0,52.0,0,11,,,,,,
8979,52608.0,Note On,0,9.0,70.0,52.0,0,11,212.0,4.0,2.0,79.0,g'',40.0
8980,52608.0,Note On,0,9.0,70.0,52.0,0,11,112.0,11.0,9.0,70.0,a#',52.0
8981,52720.0,Note Off,0,9.0,70.0,52.0,0,11,,,,,,
8982,52800.0,Note On,0,9.0,70.0,32.0,0,11,2472.0,4.0,2.0,77.0,f'',44.0
8983,52800.0,Note On,0,9.0,70.0,32.0,0,11,220.0,11.0,9.0,70.0,a#',32.0
8984,52992.0,Note On,0,9.0,37.0,82.0,0,11,660.0,3.0,1.0,38.0,D,64.0
8985,52992.0,Note On,0,9.0,37.0,82.0,0,11,180.0,11.0,9.0,37.0,C#,82.0
8986,53020.0,Note Off,0,9.0,70.0,32.0,0,11,,,,,,
8987,53172.0,Note Off,0,9.0,37.0,82.0,0,11,,,,,,
8988,53952.0,Note On,0,9.0,80.0,36.0,0,11,60.0,11.0,9.0,80.0,g#'',36.0
8989,54012.0,Note Off,0,9.0,80.0,36.0,0,11,,,,,,
8990,54144.0,Note On,0,9.0,80.0,36.0,0,11,60.0,11.0,9.0,80.0,g#'',36.0
8991,54204.0,Note Off,0,9.0,80.0,36.0,0,11,,,,,,
8992,54336.0,Note On,0,9.0,81.0,52.0,0,11,352.0,11.0,9.0,81.0,a'',52.0
8993,54336.0,Note On,0,9.0,81.0,52.0,0,11,60.0,12.0,10.0,50.0,d,48.0
8994,54528.0,Note On,0,9.0,54.0,91.0,0,11,696.0,3.0,1.0,38.0,D,64.0
8995,54528.0,Note On,0,9.0,54.0,91.0,0,11,96.0,11.0,9.0,54.0,f#,91.0
8996,54624.0,Note Off,0,9.0,54.0,91.0,0,11,,,,,,
8997,54688.0,Note Off,0,9.0,81.0,52.0,0,11,,,,,,
8998,55296.0,Note On,0,9.0,70.0,69.0,0,11,716.0,3.0,1.0,31.0,"G,",64.0
8999,55296.0,Note On,0,9.0,70.0,69.0,0,11,112.0,11.0,9.0,70.0,a#',69.0
9000,55296.0,Note On,0,9.0,70.0,69.0,0,11,96.0,12.0,10.0,36.0,C,78.0
9001,55408.0,Note Off,0,9.0,70.0,69.0,0,11,,,,,,
9002,55488.0,Note On,0,9.0,70.0,52.0,0,11,84.0,11.0,9.0,70.0,a#',52.0
9003,55572.0,Note Off,0,9.0,70.0,52.0,0,11,,,,,,
9004,55680.0,Note On,0,9.0,70.0,52.0,0,11,112.0,11.0,9.0,70.0,a#',52.0
9005,55792.0,Note Off,0,9.0,70.0,52.0,0,11,,,,,,
9006,55872.0,Note On,0,9.0,70.0,32.0,0,11,220.0,11.0,9.0,70.0,a#',32.0
9007,56064.0,Note On,0,9.0,37.0,82.0,0,11,792.0,2.0,0.0,60.0,c',83.0
9008,56064.0,Note On,0,9.0,37.0,82.0,0,11,712.0,3.0,1.0,28.0,"E,",64.0
9009,56064.0,Note On,0,9.0,37.0,82.0,0,11,180.0,11.0,9.0,37.0,C#,82.0
9010,56064.0,Note On,0,9.0,37.0,82.0,0,11,60.0,12.0,10.0,50.0,d,48.0
9011,56092.0,Note Off,0,9.0,70.0,32.0,0,11,,,,,,
9012,56244.0,Note Off,0,9.0,37.0,82.0,0,11,,,,,,
9013,57024.0,Note On,0,9.0,80.0,36.0,0,11,60.0,11.0,9.0,80.0,g#'',36.0
9014,57084.0,Note Off,0,9.0,80.0,36.0,0,11,,,,,,
9015,57216.0,Note On,0,9.0,80.0,36.0,0,11,60.0,11.0,9.0,80.0,g#'',36.0
9016,57276.0,Note Off,0,9.0,80.0,36.0,0,11,,,,,,
9017,57408.0,Note On,0,9.0,81.0,52.0,0,11,352.0,11.0,9.0,81.0,a'',52.0
9018,57600.0,Note On,0,9.0,54.0,91.0,0,11,748.0,2.0,0.0,41.0,F,97.0
9019,57600.0,Note On,0,9.0,54.0,91.0,0,11,680.0,3.0,1.0,29.0,"F,",64.0
9020,57600.0,Note On,0,9.0,54.0,91.0,0,11,96.0,11.0,9.0,54.0,f#,91.0
9021,57696.0,Note Off,0,9.0,54.0,91.0,0,11,,,,,,
9022,57760.0,Note Off,0,9.0,81.0,52.0,0,11,,,,,,
9023,58248.0,Note On,0,9.0,51.0,29.0,0,11,52.0,11.0,9.0,51.0,d#,29.0
9024,58280.0,Note On,0,9.0,59.0,45.0,0,11,72.0,11.0,9.0,59.0,b,45.0
9025,58300.0,Note Off,0,9.0,51.0,29.0,0,11,,,,,,
9026,58316.0,Note On,0,9.0,51.0,44.0,0,11,76.0,11.0,9.0,51.0,d#,44.0
9027,58352.0,Note Off,0,9.0,59.0,45.0,0,11,,,,,,
9028,58368.0,Note On,0,9.0,49.0,38.0,0,11,3020.0,3.0,1.0,34.0,"A#,",64.0
9029,58368.0,Note On,0,9.0,49.0,38.0,0,11,48.0,11.0,9.0,49.0,c#,38.0
9030,58368.0,Note On,0,9.0,49.0,38.0,0,11,48.0,11.0,9.0,59.0,b,64.0
9031,58368.0,Note On,0,9.0,49.0,38.0,0,11,112.0,11.0,9.0,70.0,a#',69.0
9032,58368.0,Note On,0,9.0,49.0,38.0,0,11,96.0,12.0,10.0,36.0,C,78.0
9033,58368.0,Note On,0,9.0,59.0,64.0,0,11,3020.0,3.0,1.0,34.0,"A#,",64.0
9034,58368.0,Note On,0,9.0,59.0,64.0,0,11,48.0,11.0,9.0,49.0,c#,38.0
9035,58368.0,Note On,0,9.0,59.0,64.0,0,11,48.0,11.0,9.0,59.0,b,64.0
9036,58368.0,Note On,0,9.0,59.0,64.0,0,11,112.0,11.0,9.0,70.0,a#',69.0
9037,58368.0,Note On,0,9.0,59.0,64.0,0,11,96.0,12.0,10.0,36.0,C,78.0
9038,58368.0,Note On,0,9.0,70.0,69.0,0,11,3020.0,3.0,1.0,34.0,"A#,",64.0
9039,58368.0,Note On,0,9.0,70.0,69.0,0,11,48.0,11.0,9.0,49.0,c#,38.0
9040,58368.0,Note On,0,9.0,70.0,69.0,0,11,48.0,11.0,9.0,59.0,b,64.0
9041,58368.0,Note On,0,9.0,70.0,69.0,0,11,112.0,11.0,9.0,70.0,a#',69.0
9042,58368.0,Note On,0,9.0,70.0,69.0,0,11,96.0,12.0,10.0,36.0,C,78.0
9043,58392.0,Note Off,0,9.0,51.0,44.0,0,11,,,,,,
9044,58416.0,Note Off,0,9.0,59.0,64.0,0,11,,,,,,
9045,58416.0,Note Off,0,9.0,49.0,38.0,0,11,,,,,,
9046,58480.0,Note Off,0,9.0,70.0,69.0,0,11,,,,,,
9047,58560.0,Note On,0,9.0,70.0,52.0,0,11,84.0,11.0,9.0,70.0,a#',52.0
9048,58560.0,Note On,0,9.0,70.0,52.0,0,11,60.0,12.0,10.0,41.0,F,43.0
9049,58644.0,Note Off,0,9.0,70.0,52.0,0,11,,,,,,
9050,58752.0,Note On,0,9.0,70.0,52.0,0,11,112.0,11.0,9.0,70.0,a#',52.0
9051,58752.0,Note On,0,9.0,70.0,52.0,0,11,60.0,12.0,10.0,45.0,A,48.0
9052,58864.0,Note Off,0,9.0,70.0,52.0,0,11,,,,,,
9053,58944.0,Note On,0,9.0,70.0,32.0,0,11,220.0,11.0,9.0,70.0,a#',32.0
9054,58944.0,Note On,0,9.0,70.0,32.0,0,11,60.0,12.0,10.0,50.0,d,48.0
9055,59136.0,Note On,0,9.0,37.0,82.0,0,11,180.0,11.0,9.0,37.0,C#,82.0
9056,59164.0,Note Off,0,9.0,70.0,32.0,0,11,,,,,,
9057,59316.0,Note Off,0,9.0,37.0,82.0,0,11,,,,,,
9058,60672.0,Note On,0,9.0,38.0,73.0,0,11,180.0,11.0,9.0,38.0,D,73.0
9059,60672.0,Note On,0,9.0,38.0,73.0,0,11,96.0,11.0,9.0,54.0,f#,91.0
9060,60672.0,Note On,0,9.0,54.0,91.0,0,11,180.0,11.0,9.0,38.0,D,73.0
9061,60672.0,Note On,0,9.0,54.0,91.0,0,11,96.0,11.0,9.0,54.0,f#,91.0
9062,60768.0,Note Off,0,9.0,54.0,91.0,0,11,96.0,7.0,5.0,73.0,c#'',40.0
9063,60852.0,Note Off,0,9.0,38.0,73.0,0,11,,,,,,
9064,60864.0,Note On,0,9.0,45.0,64.0,0,11,532.0,11.0,9.0,45.0,A,64.0
9065,60864.0,Note On,0,9.0,45.0,64.0,0,11,588.0,14.0,12.0,60.0,c',43.0
9066,61056.0,Note On,0,9.0,43.0,82.0,0,11,324.0,11.0,9.0,43.0,G,82.0
9067,61320.0,Note On,0,9.0,51.0,29.0,0,11,52.0,11.0,9.0,51.0,d#,29.0
9068,61352.0,Note On,0,9.0,59.0,45.0,0,11,52.0,7.0,5.0,94.0,a#''',61.0
9069,61352.0,Note On,0,9.0,59.0,45.0,0,11,72.0,11.0,9.0,59.0,b,45.0
9070,61372.0,Note Off,0,9.0,51.0,29.0,0,11,,,,,,
9071,61380.0,Note Off,0,9.0,43.0,82.0,0,11,,,,,,
9072,61388.0,Note On,0,9.0,51.0,44.0,0,11,136.0,7.0,5.0,96.0,c'''',66.0
9073,61388.0,Note On,0,9.0,51.0,44.0,0,11,76.0,11.0,9.0,51.0,d#,44.0
9074,61396.0,Note Off,0,9.0,45.0,64.0,0,11,624.0,4.0,2.0,77.0,f'',56.0
9075,61424.0,Note Off,0,9.0,59.0,45.0,0,11,,,,,,
9076,61440.0,Note On,0,9.0,35.0,82.0,0,11,1436.0,2.0,0.0,49.0,c#,92.0
9077,61440.0,Note On,0,9.0,35.0,82.0,0,11,492.0,2.0,0.0,56.0,g#,83.0
9078,61440.0,Note On,0,9.0,35.0,82.0,0,11,1260.0,3.0,1.0,37.0,C#,82.0
9079,61440.0,Note On,0,9.0,35.0,82.0,0,11,296.0,5.0,3.0,65.0,f',73.0
9080,61440.0,Note On,0,9.0,35.0,82.0,0,11,96.0,11.0,9.0,35.0,"B,",82.0
9081,61440.0,Note On,0,9.0,35.0,82.0,0,11,48.0,11.0,9.0,49.0,c#,50.0
9082,61440.0,Note On,0,9.0,35.0,82.0,0,11,48.0,11.0,9.0,59.0,b,64.0
9083,61440.0,Note On,0,9.0,35.0,82.0,0,11,112.0,11.0,9.0,70.0,a#',69.0
9084,61440.0,Note On,0,9.0,49.0,50.0,0,11,1436.0,2.0,0.0,49.0,c#,92.0
9085,61440.0,Note On,0,9.0,49.0,50.0,0,11,492.0,2.0,0.0,56.0,g#,83.0
9086,61440.0,Note On,0,9.0,49.0,50.0,0,11,1260.0,3.0,1.0,37.0,C#,82.0
9087,61440.0,Note On,0,9.0,49.0,50.0,0,11,296.0,5.0,3.0,65.0,f',73.0
9088,61440.0,Note On,0,9.0,49.0,50.0,0,11,96.0,11.0,9.0,35.0,"B,",82.0
9089,61440.0,Note On,0,9.0,49.0,50.0,0,11,48.0,11.0,9.0,49.0,c#,50.0
9090,61440.0,Note On,0,9.0,49.0,50.0,0,11,48.0,11.0,9.0,59.0,b,64.0
9091,61440.0,Note On,0,9.0,49.0,50.0,0,11,112.0,11.0,9.0,70.0,a#',69.0
9092,61440.0,Note On,0,9.0,59.0,64.0,0,11,1436.0,2.0,0.0,49.0,c#,92.0
9093,61440.0,Note On,0,9.0,59.0,64.0,0,11,492.0,2.0,0.0,56.0,g#,83.0
9094,61440.0,Note On,0,9.0,59.0,64.0,0,11,1260.0,3.0,1.0,37.0,C#,82.0
9095,61440.0,Note On,0,9.0,59.0,64.0,0,11,296.0,5.0,3.0,65.0,f',73.0
9096,61440.0,Note On,0,9.0,59.0,64.0,0,11,96.0,11.0,9.0,35.0,"B,",82.0
9097,61440.0,Note On,0,9.0,59.0,64.0,0,11,48.0,11.0,9.0,49.0,c#,50.0
9098,61440.0,Note On,0,9.0,59.0,64.0,0,11,48.0,11.0,9.0,59.0,b,64.0
9099,61440.0,Note On,0,9.0,59.0,64.0,0,11,112.0,11.0,9.0,70.0,a#',69.0
9100,61440.0,Note On,0,9.0,70.0,69.0,0,11,1436.0,2.0,0.0,49.0,c#,92.0
9101,61440.0,Note On,0,9.0,70.0,69.0,0,11,492.0,2.0,0.0,56.0,g#,83.0
9102,61440.0,Note On,0,9.0,70.0,69.0,0,11,1260.0,3.0,1.0,37.0,C#,82.0
9103,61440.0,Note On,0,9.0,70.0,69.0,0,11,296.0,5.0,3.0,65.0,f',73.0
9104,61440.0,Note On,0,9.0,70.0,69.0,0,11,96.0,11.0,9.0,35.0,"B,",82.0
9105,61440.0,Note On,0,9.0,70.0,69.0,0,11,48.0,11.0,9.0,49.0,c#,50.0
9106,61440.0,Note On,0,9.0,70.0,69.0,0,11,48.0,11.0,9.0,59.0,b,64.0
9107,61440.0,Note On,0,9.0,70.0,69.0,0,11,112.0,11.0,9.0,70.0,a#',69.0
9108,61464.0,Note Off,0,9.0,51.0,44.0,0,11,,,,,,
9109,61488.0,Note Off,0,9.0,59.0,64.0,0,11,,,,,,
9110,61488.0,Note Off,0,9.0,49.0,50.0,0,11,,,,,,
9111,61536.0,Note Off,0,9.0,35.0,82.0,0,11,,,,,,
9112,61552.0,Note Off,0,9.0,70.0,69.0,0,11,,,,,,
9113,61628.0,Note On,0,9.0,42.0,30.0,0,11,44.0,11.0,9.0,42.0,F#,30.0
9114,61672.0,Note Off,0,9.0,42.0,30.0,0,11,,,,,,
9115,61824.0,Note On,0,9.0,42.0,69.0,0,11,120.0,11.0,9.0,42.0,F#,69.0
9116,61944.0,Note Off,0,9.0,42.0,69.0,0,11,,,,,,
9117,62012.0,Note On,0,9.0,42.0,31.0,0,11,52.0,11.0,9.0,42.0,F#,31.0
9118,62064.0,Note Off,0,9.0,42.0,31.0,0,11,,,,,,
9119,62208.0,Note On,0,9.0,37.0,82.0,0,11,180.0,11.0,9.0,37.0,C#,82.0
9120,62208.0,Note On,0,9.0,37.0,82.0,0,11,112.0,11.0,9.0,42.0,F#,75.0
9121,62208.0,Note On,0,9.0,42.0,75.0,0,11,180.0,11.0,9.0,37.0,C#,82.0
9122,62208.0,Note On,0,9.0,42.0,75.0,0,11,112.0,11.0,9.0,42.0,F#,75.0
9123,62320.0,Note Off,0,9.0,42.0,75.0,0,11,,,,,,
9124,62388.0,Note Off,0,9.0,37.0,82.0,0,11,1736.0,2.0,0.0,65.0,f',79.0
9125,62396.0,Note On,0,9.0,42.0,31.0,0,11,164.0,5.0,3.0,65.0,f',56.0
9126,62396.0,Note On,0,9.0,42.0,31.0,0,11,56.0,11.0,9.0,42.0,F#,31.0
9127,62452.0,Note Off,0,9.0,42.0,31.0,0,11,,,,,,
9128,62592.0,Note On,0,9.0,42.0,72.0,0,11,140.0,11.0,9.0,42.0,F#,72.0
9129,62732.0,Note Off,0,9.0,42.0,72.0,0,11,,,,,,
9130,62784.0,Note On,0,9.0,35.0,64.0,0,11,148.0,3.0,1.0,37.0,C#,64.0
9131,62784.0,Note On,0,9.0,35.0,64.0,0,11,96.0,11.0,9.0,35.0,"B,",64.0
9132,62784.0,Note On,0,9.0,35.0,64.0,0,11,52.0,11.0,9.0,42.0,F#,48.0
9133,62784.0,Note On,0,9.0,42.0,48.0,0,11,148.0,3.0,1.0,37.0,C#,64.0
9134,62784.0,Note On,0,9.0,42.0,48.0,0,11,96.0,11.0,9.0,35.0,"B,",64.0
9135,62784.0,Note On,0,9.0,42.0,48.0,0,11,52.0,11.0,9.0,42.0,F#,48.0
9136,62836.0,Note Off,0,9.0,42.0,48.0,0,11,,,,,,
9137,62880.0,Note Off,0,9.0,35.0,64.0,0,11,,,,,,
9138,62976.0,Note On,0,9.0,35.0,82.0,0,11,1460.0,3.0,1.0,37.0,C#,82.0
9139,62976.0,Note On,0,9.0,35.0,82.0,0,11,96.0,11.0,9.0,35.0,"B,",82.0
9140,62976.0,Note On,0,9.0,35.0,82.0,0,11,108.0,11.0,9.0,42.0,F#,72.0
9141,62976.0,Note On,0,9.0,42.0,72.0,0,11,1460.0,3.0,1.0,37.0,C#,82.0
9142,62976.0,Note On,0,9.0,42.0,72.0,0,11,96.0,11.0,9.0,35.0,"B,",82.0
9143,62976.0,Note On,0,9.0,42.0,72.0,0,11,108.0,11.0,9.0,42.0,F#,72.0
9144,63072.0,Note Off,0,9.0,35.0,82.0,0,11,,,,,,
9145,63084.0,Note Off,0,9.0,42.0,72.0,0,11,,,,,,
9146,63164.0,Note On,0,9.0,42.0,23.0,0,11,44.0,11.0,9.0,42.0,F#,23.0
9147,63208.0,Note Off,0,9.0,42.0,23.0,0,11,,,,,,
9148,63360.0,Note On,0,9.0,42.0,69.0,0,11,120.0,11.0,9.0,42.0,F#,69.0
9149,63480.0,Note Off,0,9.0,42.0,69.0,0,11,,,,,,
9150,63548.0,Note On,0,9.0,42.0,31.0,0,11,52.0,11.0,9.0,42.0,F#,31.0
9151,63600.0,Note Off,0,9.0,42.0,31.0,0,11,,,,,,
9152,63744.0,Note On,0,9.0,42.0,75.0,0,11,112.0,11.0,9.0,42.0,F#,75.0
9153,63744.0,Note On,0,9.0,42.0,75.0,0,11,96.0,11.0,9.0,54.0,f#,91.0
9154,63744.0,Note On,0,9.0,54.0,91.0,0,11,112.0,11.0,9.0,42.0,F#,75.0
9155,63744.0,Note On,0,9.0,54.0,91.0,0,11,96.0,11.0,9.0,54.0,f#,91.0
9156,63840.0,Note Off,0,9.0,54.0,91.0,0,11,,,,,,
9157,63856.0,Note Off,0,9.0,42.0,75.0,0,11,,,,,,
9158,63932.0,Note On,0,9.0,42.0,23.0,0,11,56.0,11.0,9.0,42.0,F#,23.0
9159,63988.0,Note Off,0,9.0,42.0,23.0,0,11,,,,,,
9160,64128.0,Note On,0,9.0,42.0,72.0,0,11,140.0,11.0,9.0,42.0,F#,72.0
9161,64268.0,Note Off,0,9.0,42.0,72.0,0,11,,,,,,
9162,64316.0,Note On,0,9.0,42.0,34.0,0,11,56.0,11.0,9.0,42.0,F#,34.0
9163,64372.0,Note Off,0,9.0,42.0,34.0,0,11,,,,,,
9164,64512.0,Note On,0,9.0,35.0,82.0,0,11,1316.0,2.0,0.0,49.0,c#,92.0
9165,64512.0,Note On,0,9.0,35.0,82.0,0,11,492.0,2.0,0.0,56.0,g#,83.0
9166,64512.0,Note On,0,9.0,35.0,82.0,0,11,536.0,2.0,0.0,65.0,f',92.0
9167,64512.0,Note On,0,9.0,35.0,82.0,0,11,1312.0,3.0,1.0,37.0,C#,82.0
9168,64512.0,Note On,0,9.0,35.0,82.0,0,11,332.0,5.0,3.0,65.0,f',64.0
9169,64512.0,Note On,0,9.0,35.0,82.0,0,11,776.0,9.0,7.0,73.0,c#'',48.0
9170,64512.0,Note On,0,9.0,35.0,82.0,0,11,96.0,11.0,9.0,35.0,"B,",82.0
9171,64512.0,Note On,0,9.0,35.0,82.0,0,11,108.0,11.0,9.0,42.0,F#,72.0
9172,64512.0,Note On,0,9.0,35.0,82.0,0,11,112.0,11.0,9.0,70.0,a#',69.0
9173,64512.0,Note On,0,9.0,42.0,72.0,0,11,1316.0,2.0,0.0,49.0,c#,92.0
9174,64512.0,Note On,0,9.0,42.0,72.0,0,11,492.0,2.0,0.0,56.0,g#,83.0
9175,64512.0,Note On,0,9.0,42.0,72.0,0,11,536.0,2.0,0.0,65.0,f',92.0
9176,64512.0,Note On,0,9.0,42.0,72.0,0,11,1312.0,3.0,1.0,37.0,C#,82.0
9177,64512.0,Note On,0,9.0,42.0,72.0,0,11,332.0,5.0,3.0,65.0,f',64.0
9178,64512.0,Note On,0,9.0,42.0,72.0,0,11,776.0,9.0,7.0,73.0,c#'',48.0
9179,64512.0,Note On,0,9.0,42.0,72.0,0,11,96.0,11.0,9.0,35.0,"B,",82.0
9180,64512.0,Note On,0,9.0,42.0,72.0,0,11,108.0,11.0,9.0,42.0,F#,72.0
9181,64512.0,Note On,0,9.0,42.0,72.0,0,11,112.0,11.0,9.0,70.0,a#',69.0
9182,64512.0,Note On,0,9.0,70.0,69.0,0,11,1316.0,2.0,0.0,49.0,c#,92.0
9183,64512.0,Note On,0,9.0,70.0,69.0,0,11,492.0,2.0,0.0,56.0,g#,83.0
9184,64512.0,Note On,0,9.0,70.0,69.0,0,11,536.0,2.0,0.0,65.0,f',92.0
9185,64512.0,Note On,0,9.0,70.0,69.0,0,11,1312.0,3.0,1.0,37.0,C#,82.0
9186,64512.0,Note On,0,9.0,70.0,69.0,0,11,332.0,5.0,3.0,65.0,f',64.0
9187,64512.0,Note On,0,9.0,70.0,69.0,0,11,776.0,9.0,7.0,73.0,c#'',48.0
9188,64512.0,Note On,0,9.0,70.0,69.0,0,11,96.0,11.0,9.0,35.0,"B,",82.0
9189,64512.0,Note On,0,9.0,70.0,69.0,0,11,108.0,11.0,9.0,42.0,F#,72.0
9190,64512.0,Note On,0,9.0,70.0,69.0,0,11,112.0,11.0,9.0,70.0,a#',69.0
9191,64608.0,Note Off,0,9.0,35.0,82.0,0,11,,,,,,
9192,64620.0,Note Off,0,9.0,42.0,72.0,0,11,,,,,,
9193,64624.0,Note Off,0,9.0,70.0,69.0,0,11,,,,,,
9194,64700.0,Note On,0,9.0,42.0,26.0,0,11,44.0,11.0,9.0,42.0,F#,26.0
9195,64744.0,Note Off,0,9.0,42.0,26.0,0,11,,,,,,
9196,64896.0,Note On,0,9.0,42.0,69.0,0,11,120.0,11.0,9.0,42.0,F#,69.0
9197,65016.0,Note Off,0,9.0,42.0,69.0,0,11,,,,,,
9198,65084.0,Note On,0,9.0,42.0,31.0,0,11,384.0,2.0,0.0,58.0,a#,92.0
9199,65084.0,Note On,0,9.0,42.0,31.0,0,11,384.0,2.0,0.0,61.0,c#',63.0
9200,65084.0,Note On,0,9.0,42.0,31.0,0,11,376.0,2.0,0.0,66.0,f#',83.0
9201,65084.0,Note On,0,9.0,42.0,31.0,0,11,332.0,5.0,3.0,66.0,f#',64.0
9202,65084.0,Note On,0,9.0,42.0,31.0,0,11,52.0,11.0,9.0,42.0,F#,31.0
9203,65136.0,Note Off,0,9.0,42.0,31.0,0,11,,,,,,
9204,65280.0,Note On,0,9.0,37.0,82.0,0,11,180.0,11.0,9.0,37.0,C#,82.0
9205,65280.0,Note On,0,9.0,37.0,82.0,0,11,112.0,11.0,9.0,42.0,F#,75.0
9206,65280.0,Note On,0,9.0,42.0,75.0,0,11,180.0,11.0,9.0,37.0,C#,82.0
9207,65280.0,Note On,0,9.0,42.0,75.0,0,11,112.0,11.0,9.0,42.0,F#,75.0
9208,65392.0,Note Off,0,9.0,42.0,75.0,0,11,,,,,,
9209,65460.0,Note Off,0,9.0,37.0,82.0,0,11,176.0,5.0,3.0,65.0,f',73.0
9210,65468.0,Note On,0,9.0,42.0,23.0,0,11,524.0,2.0,0.0,65.0,f',82.0
9211,65468.0,Note On,0,9.0,42.0,23.0,0,11,56.0,11.0,9.0,42.0,F#,23.0
9212,65524.0,Note Off,0,9.0,42.0,23.0,0,11,,,,,,
9213,65664.0,Note On,0,9.0,42.0,72.0,0,11,140.0,11.0,9.0,42.0,F#,72.0
9214,65804.0,Note Off,0,9.0,42.0,72.0,0,11,,,,,,
9215,65856.0,Note On,0,9.0,35.0,64.0,0,11,188.0,3.0,1.0,37.0,C#,64.0
9216,65856.0,Note On,0,9.0,35.0,64.0,0,11,96.0,11.0,9.0,35.0,"B,",64.0
9217,65856.0,Note On,0,9.0,35.0,64.0,0,11,52.0,11.0,9.0,42.0,F#,48.0
9218,65856.0,Note On,0,9.0,42.0,48.0,0,11,188.0,3.0,1.0,37.0,C#,64.0
9219,65856.0,Note On,0,9.0,42.0,48.0,0,11,96.0,11.0,9.0,35.0,"B,",64.0
9220,65856.0,Note On,0,9.0,42.0,48.0,0,11,52.0,11.0,9.0,42.0,F#,48.0
9221,65908.0,Note Off,0,9.0,42.0,48.0,0,11,,,,,,
9222,65952.0,Note Off,0,9.0,35.0,64.0,0,11,,,,,,
9223,66048.0,Note On,0,9.0,35.0,82.0,0,11,748.0,3.0,1.0,34.0,"A#,",82.0
9224,66048.0,Note On,0,9.0,35.0,82.0,0,11,752.0,5.0,3.0,65.0,f',75.0
9225,66048.0,Note On,0,9.0,35.0,82.0,0,11,96.0,11.0,9.0,35.0,"B,",82.0
9226,66048.0,Note On,0,9.0,35.0,82.0,0,11,108.0,11.0,9.0,42.0,F#,72.0
9227,66048.0,Note On,0,9.0,42.0,72.0,0,11,748.0,3.0,1.0,34.0,"A#,",82.0
9228,66048.0,Note On,0,9.0,42.0,72.0,0,11,752.0,5.0,3.0,65.0,f',75.0
9229,66048.0,Note On,0,9.0,42.0,72.0,0,11,96.0,11.0,9.0,35.0,"B,",82.0
9230,66048.0,Note On,0,9.0,42.0,72.0,0,11,108.0,11.0,9.0,42.0,F#,72.0
9231,66144.0,Note Off,0,9.0,35.0,82.0,0,11,,,,,,
9232,66156.0,Note Off,0,9.0,42.0,72.0,0,11,,,,,,
9233,66236.0,Note On,0,9.0,42.0,23.0,0,11,44.0,11.0,9.0,42.0,F#,23.0
9234,66280.0,Note Off,0,9.0,42.0,23.0,0,11,,,,,,
9235,66432.0,Note On,0,9.0,42.0,69.0,0,11,120.0,11.0,9.0,42.0,F#,69.0
9236,66552.0,Note Off,0,9.0,42.0,69.0,0,11,,,,,,
9237,66620.0,Note On,0,9.0,42.0,34.0,0,11,52.0,11.0,9.0,42.0,F#,34.0
9238,66672.0,Note Off,0,9.0,42.0,34.0,0,11,,,,,,
9239,66816.0,Note On,0,9.0,42.0,75.0,0,11,348.0,3.0,1.0,36.0,C,82.0
9240,66816.0,Note On,0,9.0,42.0,75.0,0,11,604.0,5.0,3.0,63.0,d#',73.0
9241,66816.0,Note On,0,9.0,42.0,75.0,0,11,112.0,11.0,9.0,42.0,F#,75.0
9242,66816.0,Note On,0,9.0,42.0,75.0,0,11,96.0,11.0,9.0,54.0,f#,91.0
9243,66816.0,Note On,0,9.0,54.0,91.0,0,11,348.0,3.0,1.0,36.0,C,82.0
9244,66816.0,Note On,0,9.0,54.0,91.0,0,11,604.0,5.0,3.0,63.0,d#',73.0
9245,66816.0,Note On,0,9.0,54.0,91.0,0,11,112.0,11.0,9.0,42.0,F#,75.0
9246,66816.0,Note On,0,9.0,54.0,91.0,0,11,96.0,11.0,9.0,54.0,f#,91.0
9247,66912.0,Note Off,0,9.0,54.0,91.0,0,11,,,,,,
9248,66928.0,Note Off,0,9.0,42.0,75.0,0,11,,,,,,
9249,67004.0,Note On,0,9.0,42.0,23.0,0,11,196.0,2.0,0.0,56.0,g#,74.0
9250,67004.0,Note On,0,9.0,42.0,23.0,0,11,56.0,11.0,9.0,42.0,F#,23.0
9251,67060.0,Note Off,0,9.0,42.0,23.0,0,11,,,,,,
9252,67200.0,Note On,0,9.0,42.0,72.0,0,11,356.0,3.0,1.0,32.0,"G#,",82.0
9253,67200.0,Note On,0,9.0,42.0,72.0,0,11,140.0,11.0,9.0,42.0,F#,72.0
9254,67340.0,Note Off,0,9.0,42.0,72.0,0,11,,,,,,
9255,67388.0,Note On,0,9.0,42.0,31.0,0,11,224.0,2.0,0.0,56.0,g#,74.0
9256,67388.0,Note On,0,9.0,42.0,31.0,0,11,56.0,11.0,9.0,42.0,F#,31.0
9257,67444.0,Note Off,0,9.0,42.0,31.0,0,11,,,,,,
9258,67584.0,Note On,0,9.0,35.0,82.0,0,11,572.0,2.0,0.0,63.0,d#',88.0
9259,67584.0,Note On,0,9.0,35.0,82.0,0,11,544.0,3.0,1.0,30.0,"F#,",82.0
9260,67584.0,Note On,0,9.0,35.0,82.0,0,11,96.0,11.0,9.0,35.0,"B,",82.0
9261,67584.0,Note On,0,9.0,35.0,82.0,0,11,140.0,11.0,9.0,42.0,F#,72.0
9262,67584.0,Note On,0,9.0,35.0,82.0,0,11,112.0,11.0,9.0,70.0,a#',69.0
9263,67584.0,Note On,0,9.0,42.0,72.0,0,11,572.0,2.0,0.0,63.0,d#',88.0
9264,67584.0,Note On,0,9.0,42.0,72.0,0,11,544.0,3.0,1.0,30.0,"F#,",82.0
9265,67584.0,Note On,0,9.0,42.0,72.0,0,11,96.0,11.0,9.0,35.0,"B,",82.0
9266,67584.0,Note On,0,9.0,42.0,72.0,0,11,140.0,11.0,9.0,42.0,F#,72.0
9267,67584.0,Note On,0,9.0,42.0,72.0,0,11,112.0,11.0,9.0,70.0,a#',69.0
9268,67584.0,Note On,0,9.0,70.0,69.0,0,11,572.0,2.0,0.0,63.0,d#',88.0
9269,67584.0,Note On,0,9.0,70.0,69.0,0,11,544.0,3.0,1.0,30.0,"F#,",82.0
9270,67584.0,Note On,0,9.0,70.0,69.0,0,11,96.0,11.0,9.0,35.0,"B,",82.0
9271,67584.0,Note On,0,9.0,70.0,69.0,0,11,140.0,11.0,9.0,42.0,F#,72.0
9272,67584.0,Note On,0,9.0,70.0,69.0,0,11,112.0,11.0,9.0,70.0,a#',69.0
9273,67680.0,Note Off,0,9.0,35.0,82.0,0,11,,,,,,
9274,67696.0,Note Off,0,9.0,70.0,69.0,0,11,,,,,,
9275,67724.0,Note Off,0,9.0,42.0,72.0,0,11,,,,,,
9276,67772.0,Note On,0,9.0,42.0,30.0,0,11,44.0,11.0,9.0,42.0,F#,30.0
9277,67816.0,Note Off,0,9.0,42.0,30.0,0,11,,,,,,
9278,67968.0,Note On,0,9.0,42.0,69.0,0,11,120.0,11.0,9.0,42.0,F#,69.0
9279,68088.0,Note Off,0,9.0,42.0,69.0,0,11,,,,,,
9280,68156.0,Note On,0,9.0,42.0,31.0,0,11,52.0,11.0,9.0,42.0,F#,31.0
9281,68208.0,Note Off,0,9.0,42.0,31.0,0,11,,,,,,
9282,68352.0,Note On,0,9.0,37.0,82.0,0,11,756.0,2.0,0.0,41.0,F,92.0
9283,68352.0,Note On,0,9.0,37.0,82.0,0,11,180.0,11.0,9.0,37.0,C#,82.0
9284,68352.0,Note On,0,9.0,37.0,82.0,0,11,112.0,11.0,9.0,42.0,F#,75.0
9285,68352.0,Note On,0,9.0,42.0,75.0,0,11,756.0,2.0,0.0,41.0,F,92.0
9286,68352.0,Note On,0,9.0,42.0,75.0,0,11,180.0,11.0,9.0,37.0,C#,82.0
9287,68352.0,Note On,0,9.0,42.0,75.0,0,11,112.0,11.0,9.0,42.0,F#,75.0
9288,68464.0,Note Off,0,9.0,42.0,75.0,0,11,,,,,,
9289,68532.0,Note Off,0,9.0,37.0,82.0,0,11,,,,,,
9290,68540.0,Note On,0,9.0,42.0,31.0,0,11,56.0,11.0,9.0,42.0,F#,31.0
9291,68596.0,Note Off,0,9.0,42.0,31.0,0,11,,,,,,
9292,68736.0,Note On,0,9.0,42.0,72.0,0,11,140.0,11.0,9.0,42.0,F#,72.0
9293,68876.0,Note Off,0,9.0,42.0,72.0,0,11,,,,,,
9294,68928.0,Note On,0,9.0,35.0,64.0,0,11,172.0,2.0,0.0,60.0,c',58.0
9295,68928.0,Note On,0,9.0,35.0,64.0,0,11,176.0,3.0,1.0,29.0,"F,",64.0
9296,68928.0,Note On,0,9.0,35.0,64.0,0,11,96.0,11.0,9.0,35.0,"B,",64.0
9297,68928.0,Note On,0,9.0,35.0,64.0,0,11,52.0,11.0,9.0,42.0,F#,48.0
9298,68928.0,Note On,0,9.0,42.0,48.0,0,11,172.0,2.0,0.0,60.0,c',58.0
9299,68928.0,Note On,0,9.0,42.0,48.0,0,11,176.0,3.0,1.0,29.0,"F,",64.0
9300,68928.0,Note On,0,9.0,42.0,48.0,0,11,96.0,11.0,9.0,35.0,"B,",64.0
9301,68928.0,Note On,0,9.0,42.0,48.0,0,11,52.0,11.0,9.0,42.0,F#,48.0
9302,68980.0,Note Off,0,9.0,42.0,48.0,0,11,,,,,,
9303,69024.0,Note Off,0,9.0,35.0,64.0,0,11,,,,,,
9304,69120.0,Note On,0,9.0,35.0,82.0,0,11,168.0,2.0,0.0,63.0,d#',74.0
9305,69120.0,Note On,0,9.0,35.0,82.0,0,11,720.0,3.0,1.0,34.0,"A#,",73.0
9306,69120.0,Note On,0,9.0,35.0,82.0,0,11,3076.0,4.0,2.0,73.0,c#'',48.0
9307,69120.0,Note On,0,9.0,35.0,82.0,0,11,96.0,11.0,9.0,35.0,"B,",82.0
9308,69120.0,Note On,0,9.0,35.0,82.0,0,11,108.0,11.0,9.0,42.0,F#,72.0
9309,69120.0,Note On,0,9.0,42.0,72.0,0,11,168.0,2.0,0.0,63.0,d#',74.0
9310,69120.0,Note On,0,9.0,42.0,72.0,0,11,720.0,3.0,1.0,34.0,"A#,",73.0
9311,69120.0,Note On,0,9.0,42.0,72.0,0,11,3076.0,4.0,2.0,73.0,c#'',48.0
9312,69120.0,Note On,0,9.0,42.0,72.0,0,11,96.0,11.0,9.0,35.0,"B,",82.0
9313,69120.0,Note On,0,9.0,42.0,72.0,0,11,108.0,11.0,9.0,42.0,F#,72.0
9314,69216.0,Note Off,0,9.0,35.0,82.0,0,11,,,,,,
9315,69228.0,Note Off,0,9.0,42.0,72.0,0,11,,,,,,
9316,69308.0,Note On,0,9.0,42.0,23.0,0,11,44.0,11.0,9.0,42.0,F#,23.0
9317,69352.0,Note Off,0,9.0,42.0,23.0,0,11,,,,,,
9318,69504.0,Note On,0,9.0,42.0,69.0,0,11,120.0,11.0,9.0,42.0,F#,69.0
9319,69624.0,Note Off,0,9.0,42.0,69.0,0,11,,,,,,
9320,69692.0,Note On,0,9.0,42.0,31.0,0,11,52.0,11.0,9.0,42.0,F#,31.0
9321,69744.0,Note Off,0,9.0,42.0,31.0,0,11,,,,,,
9322,69888.0,Note On,0,9.0,42.0,75.0,0,11,720.0,3.0,1.0,32.0,"G#,",82.0
9323,69888.0,Note On,0,9.0,42.0,75.0,0,11,112.0,11.0,9.0,42.0,F#,75.0
9324,69888.0,Note On,0,9.0,42.0,75.0,0,11,96.0,11.0,9.0,54.0,f#,91.0
9325,69888.0,Note On,0,9.0,54.0,91.0,0,11,720.0,3.0,1.0,32.0,"G#,",82.0
9326,69888.0,Note On,0,9.0,54.0,91.0,0,11,112.0,11.0,9.0,42.0,F#,75.0
9327,69888.0,Note On,0,9.0,54.0,91.0,0,11,96.0,11.0,9.0,54.0,f#,91.0
9328,69984.0,Note Off,0,9.0,54.0,91.0,0,11,,,,,,
9329,70000.0,Note Off,0,9.0,42.0,75.0,0,11,,,,,,
9330,70076.0,Note On,0,9.0,42.0,23.0,0,11,56.0,11.0,9.0,42.0,F#,23.0
9331,70132.0,Note Off,0,9.0,42.0,23.0,0,11,,,,,,
9332,70272.0,Note On,0,9.0,42.0,72.0,0,11,176.0,5.0,3.0,60.0,c',69.0
9333,70272.0,Note On,0,9.0,42.0,72.0,0,11,140.0,11.0,9.0,42.0,F#,72.0
9334,70412.0,Note Off,0,9.0,42.0,72.0,0,11,,,,,,
9335,70460.0,Note On,0,9.0,42.0,34.0,0,11,56.0,11.0,9.0,42.0,F#,34.0
9336,70516.0,Note Off,0,9.0,42.0,34.0,0,11,,,,,,
9337,70656.0,Note On,0,9.0,35.0,82.0,0,11,708.0,2.0,0.0,66.0,f#',76.0
9338,70656.0,Note On,0,9.0,35.0,82.0,0,11,712.0,3.0,1.0,30.0,"F#,",82.0
9339,70656.0,Note On,0,9.0,35.0,82.0,0,11,324.0,5.0,3.0,58.0,a#,73.0
9340,70656.0,Note On,0,9.0,35.0,82.0,0,11,96.0,11.0,9.0,35.0,"B,",82.0
9341,70656.0,Note On,0,9.0,35.0,82.0,0,11,108.0,11.0,9.0,42.0,F#,72.0
9342,70656.0,Note On,0,9.0,35.0,82.0,0,11,112.0,11.0,9.0,70.0,a#',69.0
9343,70656.0,Note On,0,9.0,42.0,72.0,0,11,708.0,2.0,0.0,66.0,f#',76.0
9344,70656.0,Note On,0,9.0,42.0,72.0,0,11,712.0,3.0,1.0,30.0,"F#,",82.0
9345,70656.0,Note On,0,9.0,42.0,72.0,0,11,324.0,5.0,3.0,58.0,a#,73.0
9346,70656.0,Note On,0,9.0,42.0,72.0,0,11,96.0,11.0,9.0,35.0,"B,",82.0
9347,70656.0,Note On,0,9.0,42.0,72.0,0,11,108.0,11.0,9.0,42.0,F#,72.0
9348,70656.0,Note On,0,9.0,42.0,72.0,0,11,112.0,11.0,9.0,70.0,a#',69.0
9349,70656.0,Note On,0,9.0,70.0,69.0,0,11,708.0,2.0,0.0,66.0,f#',76.0
9350,70656.0,Note On,0,9.0,70.0,69.0,0,11,712.0,3.0,1.0,30.0,"F#,",82.0
9351,70656.0,Note On,0,9.0,70.0,69.0,0,11,324.0,5.0,3.0,58.0,a#,73.0
9352,70656.0,Note On,0,9.0,70.0,69.0,0,11,96.0,11.0,9.0,35.0,"B,",82.0
9353,70656.0,Note On,0,9.0,70.0,69.0,0,11,108.0,11.0,9.0,42.0,F#,72.0
9354,70656.0,Note On,0,9.0,70.0,69.0,0,11,112.0,11.0,9.0,70.0,a#',69.0
9355,70752.0,Note Off,0,9.0,35.0,82.0,0,11,,,,,,
9356,70764.0,Note Off,0,9.0,42.0,72.0,0,11,,,,,,
9357,70768.0,Note Off,0,9.0,70.0,69.0,0,11,,,,,,
9358,70844.0,Note On,0,9.0,42.0,26.0,0,11,44.0,11.0,9.0,42.0,F#,26.0
9359,70888.0,Note Off,0,9.0,42.0,26.0,0,11,,,,,,
9360,71040.0,Note On,0,9.0,42.0,69.0,0,11,120.0,11.0,9.0,42.0,F#,69.0
9361,71160.0,Note Off,0,9.0,42.0,69.0,0,11,,,,,,
9362,71228.0,Note On,0,9.0,42.0,31.0,0,11,544.0,5.0,3.0,63.0,d#',64.0
9363,71228.0,Note On,0,9.0,42.0,31.0,0,11,52.0,11.0,9.0,42.0,F#,31.0
9364,71280.0,Note Off,0,9.0,42.0,31.0,0,11,,,,,,
9365,71424.0,Note On,0,9.0,37.0,82.0,0,11,536.0,2.0,0.0,61.0,c#',83.0
9366,71424.0,Note On,0,9.0,37.0,82.0,0,11,556.0,2.0,0.0,66.0,f#',70.0
9367,71424.0,Note On,0,9.0,37.0,82.0,0,11,160.0,3.0,1.0,34.0,"A#,",82.0
9368,71424.0,Note On,0,9.0,37.0,82.0,0,11,180.0,11.0,9.0,37.0,C#,82.0
9369,71424.0,Note On,0,9.0,37.0,82.0,0,11,112.0,11.0,9.0,42.0,F#,75.0
9370,71424.0,Note On,0,9.0,42.0,75.0,0,11,536.0,2.0,0.0,61.0,c#',83.0
9371,71424.0,Note On,0,9.0,42.0,75.0,0,11,556.0,2.0,0.0,66.0,f#',70.0
9372,71424.0,Note On,0,9.0,42.0,75.0,0,11,160.0,3.0,1.0,34.0,"A#,",82.0
9373,71424.0,Note On,0,9.0,42.0,75.0,0,11,180.0,11.0,9.0,37.0,C#,82.0
9374,71424.0,Note On,0,9.0,42.0,75.0,0,11,112.0,11.0,9.0,42.0,F#,75.0
9375,71536.0,Note Off,0,9.0,42.0,75.0,0,11,,,,,,
9376,71604.0,Note Off,0,9.0,37.0,82.0,0,11,548.0,2.0,0.0,42.0,F#,83.0
9377,71612.0,Note On,0,9.0,42.0,23.0,0,11,56.0,11.0,9.0,42.0,F#,23.0
9378,71668.0,Note Off,0,9.0,42.0,23.0,0,11,,,,,,
9379,71808.0,Note On,0,9.0,42.0,72.0,0,11,164.0,5.0,3.0,65.0,f',56.0
9380,71808.0,Note On,0,9.0,42.0,72.0,0,11,140.0,11.0,9.0,42.0,F#,72.0
9381,71948.0,Note Off,0,9.0,42.0,72.0,0,11,,,,,,
9382,72000.0,Note On,0,9.0,35.0,64.0,0,11,84.0,3.0,1.0,37.0,C#,64.0
9383,72000.0,Note On,0,9.0,35.0,64.0,0,11,588.0,5.0,3.0,65.0,f',73.0
9384,72000.0,Note On,0,9.0,35.0,64.0,0,11,96.0,11.0,9.0,35.0,"B,",64.0
9385,72000.0,Note On,0,9.0,35.0,64.0,0,11,52.0,11.0,9.0,42.0,F#,48.0
9386,72000.0,Note On,0,9.0,42.0,48.0,0,11,84.0,3.0,1.0,37.0,C#,64.0
9387,72000.0,Note On,0,9.0,42.0,48.0,0,11,588.0,5.0,3.0,65.0,f',73.0
9388,72000.0,Note On,0,9.0,42.0,48.0,0,11,96.0,11.0,9.0,35.0,"B,",64.0
9389,72000.0,Note On,0,9.0,42.0,48.0,0,11,52.0,11.0,9.0,42.0,F#,48.0
9390,72052.0,Note Off,0,9.0,42.0,48.0,0,11,,,,,,
9391,72096.0,Note Off,0,9.0,35.0,64.0,0,11,100.0,3.0,1.0,39.0,D#,64.0
9392,72192.0,Note On,0,9.0,35.0,82.0,0,11,1404.0,2.0,0.0,49.0,c#,92.0
9393,72192.0,Note On,0,9.0,35.0,82.0,0,11,1468.0,3.0,1.0,37.0,C#,82.0
9394,72192.0,Note On,0,9.0,35.0,82.0,0,11,96.0,11.0,9.0,35.0,"B,",82.0
9395,72192.0,Note On,0,9.0,35.0,82.0,0,11,108.0,11.0,9.0,42.0,F#,72.0
9396,72192.0,Note On,0,9.0,42.0,72.0,0,11,1404.0,2.0,0.0,49.0,c#,92.0
9397,72192.0,Note On,0,9.0,42.0,72.0,0,11,1468.0,3.0,1.0,37.0,C#,82.0
9398,72192.0,Note On,0,9.0,42.0,72.0,0,11,96.0,11.0,9.0,35.0,"B,",82.0
9399,72192.0,Note On,0,9.0,42.0,72.0,0,11,108.0,11.0,9.0,42.0,F#,72.0
9400,72288.0,Note Off,0,9.0,35.0,82.0,0,11,,,,,,
9401,72300.0,Note Off,0,9.0,42.0,72.0,0,11,,,,,,
9402,72380.0,Note On,0,9.0,42.0,23.0,0,11,44.0,11.0,9.0,42.0,F#,23.0
9403,72424.0,Note Off,0,9.0,42.0,23.0,0,11,,,,,,
9404,72576.0,Note On,0,9.0,42.0,69.0,0,11,120.0,11.0,9.0,42.0,F#,69.0
9405,72696.0,Note Off,0,9.0,42.0,69.0,0,11,,,,,,
9406,72768.0,Note On,0,9.0,38.0,55.0,0,11,168.0,5.0,3.0,65.0,f',64.0
9407,72768.0,Note On,0,9.0,38.0,55.0,0,11,52.0,11.0,9.0,38.0,D,55.0
9408,72820.0,Note Off,0,9.0,38.0,55.0,0,11,,,,,,
9409,72960.0,Note On,0,9.0,38.0,81.0,0,11,360.0,2.0,0.0,58.0,a#,83.0
9410,72960.0,Note On,0,9.0,38.0,81.0,0,11,344.0,2.0,0.0,66.0,f#',86.0
9411,72960.0,Note On,0,9.0,38.0,81.0,0,11,188.0,11.0,9.0,38.0,D,81.0
9412,72960.0,Note On,0,9.0,38.0,81.0,0,11,96.0,11.0,9.0,54.0,f#,91.0
9413,72960.0,Note On,0,9.0,54.0,91.0,0,11,360.0,2.0,0.0,58.0,a#,83.0
9414,72960.0,Note On,0,9.0,54.0,91.0,0,11,344.0,2.0,0.0,66.0,f#',86.0
9415,72960.0,Note On,0,9.0,54.0,91.0,0,11,188.0,11.0,9.0,38.0,D,81.0
9416,72960.0,Note On,0,9.0,54.0,91.0,0,11,96.0,11.0,9.0,54.0,f#,91.0
9417,73056.0,Note Off,0,9.0,54.0,91.0,0,11,,,,,,
9418,73140.0,Note On,0,9.0,45.0,64.0,0,11,156.0,11.0,9.0,45.0,A,64.0
9419,73148.0,Note Off,0,9.0,38.0,81.0,0,11,80.0,7.0,5.0,58.0,a#,34.0
9420,73296.0,Note Off,0,9.0,45.0,64.0,0,11,,,,,,
9421,73336.0,Note On,0,9.0,45.0,91.0,0,11,188.0,11.0,9.0,45.0,A,91.0
9422,73524.0,Note Off,0,9.0,45.0,91.0,0,11,,,,,,
9423,73536.0,Note On,0,9.0,35.0,64.0,0,11,96.0,11.0,9.0,35.0,"B,",64.0
9424,73536.0,Note On,0,9.0,35.0,64.0,0,11,184.0,11.0,9.0,55.0,g,64.0
9425,73536.0,Note On,0,9.0,55.0,64.0,0,11,96.0,11.0,9.0,35.0,"B,",64.0
9426,73536.0,Note On,0,9.0,55.0,64.0,0,11,184.0,11.0,9.0,55.0,g,64.0
9427,73632.0,Note Off,0,9.0,35.0,64.0,0,11,,,,,,
9428,73720.0,Note Off,0,9.0,55.0,64.0,0,11,,,,,,
9429,73728.0,Note On,0,9.0,35.0,82.0,0,11,540.0,2.0,0.0,56.0,g#,92.0
9430,73728.0,Note On,0,9.0,35.0,82.0,0,11,588.0,2.0,0.0,60.0,c',101.0
9431,73728.0,Note On,0,9.0,35.0,82.0,0,11,536.0,3.0,1.0,32.0,"G#,",82.0
9432,73728.0,Note On,0,9.0,35.0,82.0,0,11,1868.0,5.0,3.0,68.0,g#',82.0
9433,73728.0,Note On,0,9.0,35.0,82.0,0,11,176.0,7.0,5.0,80.0,g#'',75.0
9434,73728.0,Note On,0,9.0,35.0,82.0,0,11,96.0,11.0,9.0,35.0,"B,",82.0
9435,73728.0,Note On,0,9.0,35.0,82.0,0,11,700.0,11.0,9.0,49.0,c#,64.0
9436,73728.0,Note On,0,9.0,49.0,64.0,0,11,540.0,2.0,0.0,56.0,g#,92.0
9437,73728.0,Note On,0,9.0,49.0,64.0,0,11,588.0,2.0,0.0,60.0,c',101.0
9438,73728.0,Note On,0,9.0,49.0,64.0,0,11,536.0,3.0,1.0,32.0,"G#,",82.0
9439,73728.0,Note On,0,9.0,49.0,64.0,0,11,1868.0,5.0,3.0,68.0,g#',82.0
9440,73728.0,Note On,0,9.0,49.0,64.0,0,11,176.0,7.0,5.0,80.0,g#'',75.0
9441,73728.0,Note On,0,9.0,49.0,64.0,0,11,96.0,11.0,9.0,35.0,"B,",82.0
9442,73728.0,Note On,0,9.0,49.0,64.0,0,11,700.0,11.0,9.0,49.0,c#,64.0
9443,73824.0,Note Off,0,9.0,35.0,82.0,0,11,,,,,,
9444,73916.0,Note On,0,9.0,42.0,30.0,0,11,44.0,11.0,9.0,42.0,F#,30.0
9445,73960.0,Note Off,0,9.0,42.0,30.0,0,11,,,,,,
9446,74112.0,Note On,0,9.0,42.0,69.0,0,11,120.0,11.0,9.0,42.0,F#,69.0
9447,74232.0,Note Off,0,9.0,42.0,69.0,0,11,,,,,,
9448,74300.0,Note On,0,9.0,42.0,31.0,0,11,52.0,11.0,9.0,42.0,F#,31.0
9449,74352.0,Note Off,0,9.0,42.0,31.0,0,11,,,,,,
9450,74428.0,Note Off,0,9.0,49.0,64.0,0,11,,,,,,
9451,74496.0,Note On,0,9.0,38.0,73.0,0,11,360.0,2.0,0.0,63.0,d#',101.0
9452,74496.0,Note On,0,9.0,38.0,73.0,0,11,540.0,3.0,1.0,36.0,C,82.0
9453,74496.0,Note On,0,9.0,38.0,73.0,0,11,240.0,11.0,9.0,38.0,D,73.0
9454,74496.0,Note On,0,9.0,38.0,73.0,0,11,112.0,11.0,9.0,42.0,F#,75.0
9455,74496.0,Note On,0,9.0,42.0,75.0,0,11,360.0,2.0,0.0,63.0,d#',101.0
9456,74496.0,Note On,0,9.0,42.0,75.0,0,11,540.0,3.0,1.0,36.0,C,82.0
9457,74496.0,Note On,0,9.0,42.0,75.0,0,11,240.0,11.0,9.0,38.0,D,73.0
9458,74496.0,Note On,0,9.0,42.0,75.0,0,11,112.0,11.0,9.0,42.0,F#,75.0
9459,74608.0,Note Off,0,9.0,42.0,75.0,0,11,,,,,,
9460,74684.0,Note On,0,9.0,42.0,31.0,0,11,56.0,11.0,9.0,42.0,F#,31.0
9461,74736.0,Note Off,0,9.0,38.0,73.0,0,11,,,,,,
9462,74740.0,Note Off,0,9.0,42.0,31.0,0,11,,,,,,
9463,74880.0,Note On,0,9.0,42.0,72.0,0,11,140.0,11.0,9.0,42.0,F#,72.0
9464,75020.0,Note Off,0,9.0,42.0,72.0,0,11,,,,,,
9465,75072.0,Note On,0,9.0,35.0,64.0,0,11,168.0,3.0,1.0,32.0,"G#,",64.0
9466,75072.0,Note On,0,9.0,35.0,64.0,0,11,96.0,11.0,9.0,35.0,"B,",64.0
9467,75072.0,Note On,0,9.0,35.0,64.0,0,11,52.0,11.0,9.0,42.0,F#,48.0
9468,75072.0,Note On,0,9.0,42.0,48.0,0,11,168.0,3.0,1.0,32.0,"G#,",64.0
9469,75072.0,Note On,0,9.0,42.0,48.0,0,11,96.0,11.0,9.0,35.0,"B,",64.0
9470,75072.0,Note On,0,9.0,42.0,48.0,0,11,52.0,11.0,9.0,42.0,F#,48.0
9471,75124.0,Note Off,0,9.0,42.0,48.0,0,11,,,,,,
9472,75168.0,Note Off,0,9.0,35.0,64.0,0,11,,,,,,
9473,75264.0,Note On,0,9.0,35.0,82.0,0,11,1500.0,3.0,1.0,37.0,C#,82.0
9474,75264.0,Note On,0,9.0,35.0,82.0,0,11,96.0,11.0,9.0,35.0,"B,",82.0
9475,75264.0,Note On,0,9.0,35.0,82.0,0,11,108.0,11.0,9.0,42.0,F#,72.0
9476,75264.0,Note On,0,9.0,42.0,72.0,0,11,1500.0,3.0,1.0,37.0,C#,82.0
9477,75264.0,Note On,0,9.0,42.0,72.0,0,11,96.0,11.0,9.0,35.0,"B,",82.0
9478,75264.0,Note On,0,9.0,42.0,72.0,0,11,108.0,11.0,9.0,42.0,F#,72.0
9479,75360.0,Note Off,0,9.0,35.0,82.0,0,11,,,,,,
9480,75372.0,Note Off,0,9.0,42.0,72.0,0,11,,,,,,
9481,75452.0,Note On,0,9.0,42.0,23.0,0,11,44.0,11.0,9.0,42.0,F#,23.0
9482,75496.0,Note Off,0,9.0,42.0,23.0,0,11,,,,,,
9483,75648.0,Note On,0,9.0,42.0,69.0,0,11,120.0,11.0,9.0,42.0,F#,69.0
9484,75768.0,Note Off,0,9.0,42.0,69.0,0,11,,,,,,
9485,75836.0,Note On,0,9.0,42.0,31.0,0,11,52.0,11.0,9.0,42.0,F#,31.0
9486,75888.0,Note Off,0,9.0,42.0,31.0,0,11,,,,,,
9487,76032.0,Note On,0,9.0,38.0,73.0,0,11,240.0,11.0,9.0,38.0,D,73.0
9488,76032.0,Note On,0,9.0,38.0,73.0,0,11,112.0,11.0,9.0,42.0,F#,75.0
9489,76032.0,Note On,0,9.0,38.0,73.0,0,11,96.0,11.0,9.0,54.0,f#,91.0
9490,76032.0,Note On,0,9.0,42.0,75.0,0,11,240.0,11.0,9.0,38.0,D,73.0
9491,76032.0,Note On,0,9.0,42.0,75.0,0,11,112.0,11.0,9.0,42.0,F#,75.0
9492,76032.0,Note On,0,9.0,42.0,75.0,0,11,96.0,11.0,9.0,54.0,f#,91.0
9493,76032.0,Note On,0,9.0,54.0,91.0,0,11,240.0,11.0,9.0,38.0,D,73.0
9494,76032.0,Note On,0,9.0,54.0,91.0,0,11,112.0,11.0,9.0,42.0,F#,75.0
9495,76032.0,Note On,0,9.0,54.0,91.0,0,11,96.0,11.0,9.0,54.0,f#,91.0
9496,76128.0,Note Off,0,9.0,54.0,91.0,0,11,,,,,,
9497,76144.0,Note Off,0,9.0,42.0,75.0,0,11,,,,,,
9498,76220.0,Note On,0,9.0,42.0,23.0,0,11,56.0,11.0,9.0,42.0,F#,23.0
9499,76272.0,Note Off,0,9.0,38.0,73.0,0,11,,,,,,
9500,76276.0,Note Off,0,9.0,42.0,23.0,0,11,,,,,,
9501,76416.0,Note On,0,9.0,42.0,72.0,0,11,140.0,11.0,9.0,42.0,F#,72.0
9502,76556.0,Note Off,0,9.0,42.0,72.0,0,11,,,,,,
9503,76604.0,Note On,0,9.0,42.0,34.0,0,11,56.0,11.0,9.0,42.0,F#,34.0
9504,76660.0,Note Off,0,9.0,42.0,34.0,0,11,,,,,,
9505,76800.0,Note On,0,9.0,35.0,82.0,0,11,1516.0,2.0,0.0,44.0,G#,91.0
9506,76800.0,Note On,0,9.0,35.0,82.0,0,11,728.0,3.0,1.0,32.0,"G#,",82.0
9507,76800.0,Note On,0,9.0,35.0,82.0,0,11,96.0,11.0,9.0,35.0,"B,",82.0
9508,76800.0,Note On,0,9.0,35.0,82.0,0,11,108.0,11.0,9.0,42.0,F#,72.0
9509,76800.0,Note On,0,9.0,42.0,72.0,0,11,1516.0,2.0,0.0,44.0,G#,91.0
9510,76800.0,Note On,0,9.0,42.0,72.0,0,11,728.0,3.0,1.0,32.0,"G#,",82.0
9511,76800.0,Note On,0,9.0,42.0,72.0,0,11,96.0,11.0,9.0,35.0,"B,",82.0
9512,76800.0,Note On,0,9.0,42.0,72.0,0,11,108.0,11.0,9.0,42.0,F#,72.0
9513,76896.0,Note Off,0,9.0,35.0,82.0,0,11,,,,,,
9514,76908.0,Note Off,0,9.0,42.0,72.0,0,11,,,,,,
9515,76988.0,Note On,0,9.0,42.0,26.0,0,11,44.0,11.0,9.0,42.0,F#,26.0
9516,77032.0,Note Off,0,9.0,42.0,26.0,0,11,,,,,,
9517,77184.0,Note On,0,9.0,42.0,69.0,0,11,120.0,11.0,9.0,42.0,F#,69.0
9518,77304.0,Note Off,0,9.0,42.0,69.0,0,11,,,,,,
9519,77372.0,Note On,0,9.0,42.0,31.0,0,11,568.0,5.0,3.0,66.0,f#',90.0
9520,77372.0,Note On,0,9.0,42.0,31.0,0,11,52.0,11.0,9.0,42.0,F#,31.0
9521,77424.0,Note Off,0,9.0,42.0,31.0,0,11,,,,,,
9522,77568.0,Note On,0,9.0,38.0,73.0,0,11,160.0,3.0,1.0,36.0,C,91.0
9523,77568.0,Note On,0,9.0,38.0,73.0,0,11,240.0,11.0,9.0,38.0,D,73.0
9524,77568.0,Note On,0,9.0,38.0,73.0,0,11,112.0,11.0,9.0,42.0,F#,75.0
9525,77568.0,Note On,0,9.0,42.0,75.0,0,11,160.0,3.0,1.0,36.0,C,91.0
9526,77568.0,Note On,0,9.0,42.0,75.0,0,11,240.0,11.0,9.0,38.0,D,73.0
9527,77568.0,Note On,0,9.0,42.0,75.0,0,11,112.0,11.0,9.0,42.0,F#,75.0
9528,77680.0,Note Off,0,9.0,42.0,75.0,0,11,,,,,,
9529,77756.0,Note On,0,9.0,42.0,23.0,0,11,56.0,11.0,9.0,42.0,F#,23.0
9530,77808.0,Note Off,0,9.0,38.0,73.0,0,11,,,,,,
9531,77812.0,Note Off,0,9.0,42.0,23.0,0,11,,,,,,
9532,77952.0,Note On,0,9.0,42.0,72.0,0,11,212.0,3.0,1.0,32.0,"G#,",73.0
9533,77952.0,Note On,0,9.0,42.0,72.0,0,11,140.0,11.0,9.0,42.0,F#,72.0
9534,78092.0,Note Off,0,9.0,42.0,72.0,0,11,,,,,,
9535,78144.0,Note On,0,9.0,35.0,64.0,0,11,148.0,3.0,1.0,37.0,C#,64.0
9536,78144.0,Note On,0,9.0,35.0,64.0,0,11,96.0,11.0,9.0,35.0,"B,",64.0
9537,78144.0,Note On,0,9.0,35.0,64.0,0,11,52.0,11.0,9.0,42.0,F#,48.0
9538,78144.0,Note On,0,9.0,42.0,48.0,0,11,148.0,3.0,1.0,37.0,C#,64.0
9539,78144.0,Note On,0,9.0,42.0,48.0,0,11,96.0,11.0,9.0,35.0,"B,",64.0
9540,78144.0,Note On,0,9.0,42.0,48.0,0,11,52.0,11.0,9.0,42.0,F#,48.0
9541,78196.0,Note Off,0,9.0,42.0,48.0,0,11,,,,,,
9542,78240.0,Note Off,0,9.0,35.0,64.0,0,11,,,,,,
9543,78336.0,Note On,0,9.0,35.0,82.0,0,11,744.0,2.0,0.0,49.0,c#,92.0
9544,78336.0,Note On,0,9.0,35.0,82.0,0,11,728.0,2.0,0.0,56.0,g#,74.0
9545,78336.0,Note On,0,9.0,35.0,82.0,0,11,712.0,3.0,1.0,37.0,C#,82.0
9546,78336.0,Note On,0,9.0,35.0,82.0,0,11,96.0,11.0,9.0,35.0,"B,",82.0
9547,78336.0,Note On,0,9.0,35.0,82.0,0,11,108.0,11.0,9.0,42.0,F#,72.0
9548,78336.0,Note On,0,9.0,42.0,72.0,0,11,744.0,2.0,0.0,49.0,c#,92.0
9549,78336.0,Note On,0,9.0,42.0,72.0,0,11,728.0,2.0,0.0,56.0,g#,74.0
9550,78336.0,Note On,0,9.0,42.0,72.0,0,11,712.0,3.0,1.0,37.0,C#,82.0
9551,78336.0,Note On,0,9.0,42.0,72.0,0,11,96.0,11.0,9.0,35.0,"B,",82.0
9552,78336.0,Note On,0,9.0,42.0,72.0,0,11,108.0,11.0,9.0,42.0,F#,72.0
9553,78432.0,Note Off,0,9.0,35.0,82.0,0,11,,,,,,
9554,78444.0,Note Off,0,9.0,42.0,72.0,0,11,,,,,,
9555,78524.0,Note On,0,9.0,42.0,23.0,0,11,44.0,11.0,9.0,42.0,F#,23.0
9556,78568.0,Note Off,0,9.0,42.0,23.0,0,11,,,,,,
9557,78720.0,Note On,0,9.0,42.0,69.0,0,11,120.0,11.0,9.0,42.0,F#,69.0
9558,78720.0,Note On,0,9.0,42.0,69.0,0,11,60.0,12.0,10.0,45.0,A,48.0
9559,78840.0,Note Off,0,9.0,42.0,69.0,0,11,,,,,,
9560,78908.0,Note On,0,9.0,42.0,34.0,0,11,924.0,2.0,0.0,61.0,c#',62.0
9561,78908.0,Note On,0,9.0,42.0,34.0,0,11,52.0,11.0,9.0,42.0,F#,34.0
9562,78960.0,Note Off,0,9.0,42.0,34.0,0,11,,,,,,
9563,79104.0,Note On,0,9.0,38.0,73.0,0,11,712.0,3.0,1.0,30.0,"F#,",82.0
9564,79104.0,Note On,0,9.0,38.0,73.0,0,11,240.0,11.0,9.0,38.0,D,73.0
9565,79104.0,Note On,0,9.0,38.0,73.0,0,11,112.0,11.0,9.0,42.0,F#,75.0
9566,79104.0,Note On,0,9.0,38.0,73.0,0,11,96.0,11.0,9.0,54.0,f#,91.0
9567,79104.0,Note On,0,9.0,42.0,75.0,0,11,712.0,3.0,1.0,30.0,"F#,",82.0
9568,79104.0,Note On,0,9.0,42.0,75.0,0,11,240.0,11.0,9.0,38.0,D,73.0
9569,79104.0,Note On,0,9.0,42.0,75.0,0,11,112.0,11.0,9.0,42.0,F#,75.0
9570,79104.0,Note On,0,9.0,42.0,75.0,0,11,96.0,11.0,9.0,54.0,f#,91.0
9571,79104.0,Note On,0,9.0,54.0,91.0,0,11,712.0,3.0,1.0,30.0,"F#,",82.0
9572,79104.0,Note On,0,9.0,54.0,91.0,0,11,240.0,11.0,9.0,38.0,D,73.0
9573,79104.0,Note On,0,9.0,54.0,91.0,0,11,112.0,11.0,9.0,42.0,F#,75.0
9574,79104.0,Note On,0,9.0,54.0,91.0,0,11,96.0,11.0,9.0,54.0,f#,91.0
9575,79200.0,Note Off,0,9.0,54.0,91.0,0,11,,,,,,
9576,79216.0,Note Off,0,9.0,42.0,75.0,0,11,,,,,,
9577,79292.0,Note On,0,9.0,42.0,23.0,0,11,56.0,11.0,9.0,42.0,F#,23.0
9578,79344.0,Note Off,0,9.0,38.0,73.0,0,11,,,,,,
9579,79348.0,Note Off,0,9.0,42.0,23.0,0,11,,,,,,
9580,79488.0,Note On,0,9.0,42.0,72.0,0,11,140.0,11.0,9.0,42.0,F#,72.0
9581,79628.0,Note Off,0,9.0,42.0,72.0,0,11,,,,,,
9582,79676.0,Note On,0,9.0,42.0,31.0,0,11,56.0,11.0,9.0,42.0,F#,31.0
9583,79732.0,Note Off,0,9.0,42.0,31.0,0,11,,,,,,
9584,79872.0,Note On,0,9.0,35.0,82.0,0,11,716.0,3.0,1.0,30.0,"F#,",82.0
9585,79872.0,Note On,0,9.0,35.0,82.0,0,11,96.0,11.0,9.0,35.0,"B,",82.0
9586,79872.0,Note On,0,9.0,35.0,82.0,0,11,108.0,11.0,9.0,42.0,F#,72.0
9587,79872.0,Note On,0,9.0,42.0,72.0,0,11,716.0,3.0,1.0,30.0,"F#,",82.0
9588,79872.0,Note On,0,9.0,42.0,72.0,0,11,96.0,11.0,9.0,35.0,"B,",82.0
9589,79872.0,Note On,0,9.0,42.0,72.0,0,11,108.0,11.0,9.0,42.0,F#,72.0
9590,79968.0,Note Off,0,9.0,35.0,82.0,0,11,,,,,,
9591,79980.0,Note Off,0,9.0,42.0,72.0,0,11,,,,,,
9592,80060.0,Note On,0,9.0,42.0,26.0,0,11,44.0,11.0,9.0,42.0,F#,26.0
9593,80104.0,Note Off,0,9.0,42.0,26.0,0,11,,,,,,
9594,80256.0,Note On,0,9.0,42.0,69.0,0,11,120.0,11.0,9.0,42.0,F#,69.0
9595,80376.0,Note Off,0,9.0,42.0,69.0,0,11,,,,,,
9596,80444.0,Note On,0,9.0,42.0,31.0,0,11,52.0,11.0,9.0,42.0,F#,31.0
9597,80496.0,Note Off,0,9.0,42.0,31.0,0,11,,,,,,
9598,80640.0,Note On,0,9.0,38.0,73.0,0,11,556.0,3.0,1.0,29.0,"F,",82.0
9599,80640.0,Note On,0,9.0,38.0,73.0,0,11,240.0,11.0,9.0,38.0,D,73.0
9600,80640.0,Note On,0,9.0,38.0,73.0,0,11,112.0,11.0,9.0,42.0,F#,75.0
9601,80640.0,Note On,0,9.0,42.0,75.0,0,11,556.0,3.0,1.0,29.0,"F,",82.0
9602,80640.0,Note On,0,9.0,42.0,75.0,0,11,240.0,11.0,9.0,38.0,D,73.0
9603,80640.0,Note On,0,9.0,42.0,75.0,0,11,112.0,11.0,9.0,42.0,F#,75.0
9604,80752.0,Note Off,0,9.0,42.0,75.0,0,11,,,,,,
9605,80828.0,Note On,0,9.0,42.0,23.0,0,11,56.0,11.0,9.0,42.0,F#,23.0
9606,80880.0,Note Off,0,9.0,38.0,73.0,0,11,,,,,,
9607,80884.0,Note Off,0,9.0,42.0,23.0,0,11,,,,,,
9608,81024.0,Note On,0,9.0,42.0,72.0,0,11,140.0,11.0,9.0,42.0,F#,72.0
9609,81164.0,Note Off,0,9.0,42.0,72.0,0,11,,,,,,
9610,81216.0,Note On,0,9.0,35.0,64.0,0,11,148.0,3.0,1.0,29.0,"F,",64.0
9611,81216.0,Note On,0,9.0,35.0,64.0,0,11,96.0,11.0,9.0,35.0,"B,",64.0
9612,81216.0,Note On,0,9.0,35.0,64.0,0,11,52.0,11.0,9.0,42.0,F#,48.0
9613,81216.0,Note On,0,9.0,42.0,48.0,0,11,148.0,3.0,1.0,29.0,"F,",64.0
9614,81216.0,Note On,0,9.0,42.0,48.0,0,11,96.0,11.0,9.0,35.0,"B,",64.0
9615,81216.0,Note On,0,9.0,42.0,48.0,0,11,52.0,11.0,9.0,42.0,F#,48.0
9616,81268.0,Note Off,0,9.0,42.0,48.0,0,11,,,,,,
9617,81312.0,Note Off,0,9.0,35.0,64.0,0,11,,,,,,
9618,81408.0,Note On,0,9.0,35.0,82.0,0,11,328.0,2.0,0.0,68.0,g#',83.0
9619,81408.0,Note On,0,9.0,35.0,82.0,0,11,300.0,2.0,0.0,72.0,c'',96.0
9620,81408.0,Note On,0,9.0,35.0,82.0,0,11,704.0,3.0,1.0,30.0,"F#,",82.0
9621,81408.0,Note On,0,9.0,35.0,82.0,0,11,96.0,11.0,9.0,35.0,"B,",82.0
9622,81408.0,Note On,0,9.0,35.0,82.0,0,11,108.0,11.0,9.0,42.0,F#,72.0
9623,81408.0,Note On,0,9.0,42.0,72.0,0,11,328.0,2.0,0.0,68.0,g#',83.0
9624,81408.0,Note On,0,9.0,42.0,72.0,0,11,300.0,2.0,0.0,72.0,c'',96.0
9625,81408.0,Note On,0,9.0,42.0,72.0,0,11,704.0,3.0,1.0,30.0,"F#,",82.0
9626,81408.0,Note On,0,9.0,42.0,72.0,0,11,96.0,11.0,9.0,35.0,"B,",82.0
9627,81408.0,Note On,0,9.0,42.0,72.0,0,11,108.0,11.0,9.0,42.0,F#,72.0
9628,81504.0,Note Off,0,9.0,35.0,82.0,0,11,,,,,,
9629,81516.0,Note Off,0,9.0,42.0,72.0,0,11,,,,,,
9630,81596.0,Note On,0,9.0,42.0,23.0,0,11,276.0,2.0,0.0,61.0,c#',58.0
9631,81596.0,Note On,0,9.0,42.0,23.0,0,11,44.0,11.0,9.0,42.0,F#,23.0
9632,81640.0,Note Off,0,9.0,42.0,23.0,0,11,,,,,,
9633,81792.0,Note On,0,9.0,42.0,69.0,0,11,120.0,11.0,9.0,42.0,F#,69.0
9634,81912.0,Note Off,0,9.0,42.0,69.0,0,11,,,,,,
9635,81980.0,Note On,0,9.0,42.0,34.0,0,11,52.0,11.0,9.0,42.0,F#,34.0
9636,82032.0,Note Off,0,9.0,42.0,34.0,0,11,,,,,,
9637,82176.0,Note On,0,9.0,38.0,73.0,0,11,740.0,3.0,1.0,29.0,"F,",82.0
9638,82176.0,Note On,0,9.0,38.0,73.0,0,11,240.0,11.0,9.0,38.0,D,73.0
9639,82176.0,Note On,0,9.0,38.0,73.0,0,11,112.0,11.0,9.0,42.0,F#,75.0
9640,82176.0,Note On,0,9.0,38.0,73.0,0,11,96.0,11.0,9.0,54.0,f#,91.0
9641,82176.0,Note On,0,9.0,42.0,75.0,0,11,740.0,3.0,1.0,29.0,"F,",82.0
9642,82176.0,Note On,0,9.0,42.0,75.0,0,11,240.0,11.0,9.0,38.0,D,73.0
9643,82176.0,Note On,0,9.0,42.0,75.0,0,11,112.0,11.0,9.0,42.0,F#,75.0
9644,82176.0,Note On,0,9.0,42.0,75.0,0,11,96.0,11.0,9.0,54.0,f#,91.0
9645,82176.0,Note On,0,9.0,54.0,91.0,0,11,740.0,3.0,1.0,29.0,"F,",82.0
9646,82176.0,Note On,0,9.0,54.0,91.0,0,11,240.0,11.0,9.0,38.0,D,73.0
9647,82176.0,Note On,0,9.0,54.0,91.0,0,11,112.0,11.0,9.0,42.0,F#,75.0
9648,82176.0,Note On,0,9.0,54.0,91.0,0,11,96.0,11.0,9.0,54.0,f#,91.0
9649,82272.0,Note Off,0,9.0,54.0,91.0,0,11,,,,,,
9650,82288.0,Note Off,0,9.0,42.0,75.0,0,11,,,,,,
9651,82364.0,Note On,0,9.0,42.0,23.0,0,11,56.0,11.0,9.0,42.0,F#,23.0
9652,82416.0,Note Off,0,9.0,38.0,73.0,0,11,,,,,,
9653,82420.0,Note Off,0,9.0,42.0,23.0,0,11,,,,,,
9654,82560.0,Note On,0,9.0,42.0,72.0,0,11,140.0,11.0,9.0,42.0,F#,72.0
9655,82700.0,Note Off,0,9.0,42.0,72.0,0,11,,,,,,
9656,82748.0,Note On,0,9.0,42.0,31.0,0,11,196.0,5.0,3.0,61.0,c#',52.0
9657,82748.0,Note On,0,9.0,42.0,31.0,0,11,56.0,11.0,9.0,42.0,F#,31.0
9658,82804.0,Note Off,0,9.0,42.0,31.0,0,11,,,,,,
9659,82944.0,Note On,0,9.0,35.0,82.0,0,11,752.0,3.0,1.0,34.0,"A#,",82.0
9660,82944.0,Note On,0,9.0,35.0,82.0,0,11,372.0,5.0,3.0,65.0,f',75.0
9661,82944.0,Note On,0,9.0,35.0,82.0,0,11,96.0,11.0,9.0,35.0,"B,",82.0
9662,82944.0,Note On,0,9.0,35.0,82.0,0,11,108.0,11.0,9.0,42.0,F#,72.0
9663,82944.0,Note On,0,9.0,42.0,72.0,0,11,752.0,3.0,1.0,34.0,"A#,",82.0
9664,82944.0,Note On,0,9.0,42.0,72.0,0,11,372.0,5.0,3.0,65.0,f',75.0
9665,82944.0,Note On,0,9.0,42.0,72.0,0,11,96.0,11.0,9.0,35.0,"B,",82.0
9666,82944.0,Note On,0,9.0,42.0,72.0,0,11,108.0,11.0,9.0,42.0,F#,72.0
9667,83040.0,Note Off,0,9.0,35.0,82.0,0,11,,,,,,
9668,83052.0,Note Off,0,9.0,42.0,72.0,0,11,,,,,,
9669,83132.0,Note On,0,9.0,42.0,26.0,0,11,44.0,11.0,9.0,42.0,F#,26.0
9670,83176.0,Note Off,0,9.0,42.0,26.0,0,11,,,,,,
9671,83328.0,Note On,0,9.0,42.0,69.0,0,11,120.0,11.0,9.0,42.0,F#,69.0
9672,83448.0,Note Off,0,9.0,42.0,69.0,0,11,,,,,,
9673,83516.0,Note On,0,9.0,42.0,31.0,0,11,208.0,2.0,0.0,56.0,g#,74.0
9674,83516.0,Note On,0,9.0,42.0,31.0,0,11,52.0,11.0,9.0,42.0,F#,31.0
9675,83568.0,Note Off,0,9.0,42.0,31.0,0,11,,,,,,
9676,83712.0,Note On,0,9.0,38.0,73.0,0,11,740.0,2.0,0.0,58.0,a#,78.0
9677,83712.0,Note On,0,9.0,38.0,73.0,0,11,792.0,2.0,0.0,63.0,d#',83.0
9678,83712.0,Note On,0,9.0,38.0,73.0,0,11,496.0,3.0,1.0,27.0,"D#,",82.0
9679,83712.0,Note On,0,9.0,38.0,73.0,0,11,180.0,11.0,9.0,38.0,D,73.0
9680,83712.0,Note On,0,9.0,38.0,73.0,0,11,112.0,11.0,9.0,42.0,F#,75.0
9681,83712.0,Note On,0,9.0,42.0,75.0,0,11,740.0,2.0,0.0,58.0,a#,78.0
9682,83712.0,Note On,0,9.0,42.0,75.0,0,11,792.0,2.0,0.0,63.0,d#',83.0
9683,83712.0,Note On,0,9.0,42.0,75.0,0,11,496.0,3.0,1.0,27.0,"D#,",82.0
9684,83712.0,Note On,0,9.0,42.0,75.0,0,11,180.0,11.0,9.0,38.0,D,73.0
9685,83712.0,Note On,0,9.0,42.0,75.0,0,11,112.0,11.0,9.0,42.0,F#,75.0
9686,83824.0,Note Off,0,9.0,42.0,75.0,0,11,,,,,,
9687,83892.0,Note Off,0,9.0,38.0,73.0,0,11,,,,,,
9688,83900.0,Note On,0,9.0,42.0,23.0,0,11,56.0,11.0,9.0,42.0,F#,23.0
9689,83956.0,Note Off,0,9.0,42.0,23.0,0,11,,,,,,
9690,84096.0,Note On,0,9.0,42.0,72.0,0,11,364.0,2.0,0.0,55.0,g,83.0
9691,84096.0,Note On,0,9.0,42.0,72.0,0,11,140.0,11.0,9.0,42.0,F#,72.0
9692,84236.0,Note Off,0,9.0,42.0,72.0,0,11,,,,,,
9693,84288.0,Note On,0,9.0,35.0,64.0,0,11,160.0,2.0,0.0,46.0,A#,82.0
9694,84288.0,Note On,0,9.0,35.0,64.0,0,11,180.0,3.0,1.0,34.0,"A#,",64.0
9695,84288.0,Note On,0,9.0,35.0,64.0,0,11,96.0,11.0,9.0,35.0,"B,",64.0
9696,84288.0,Note On,0,9.0,35.0,64.0,0,11,52.0,11.0,9.0,42.0,F#,48.0
9697,84288.0,Note On,0,9.0,42.0,48.0,0,11,160.0,2.0,0.0,46.0,A#,82.0
9698,84288.0,Note On,0,9.0,42.0,48.0,0,11,180.0,3.0,1.0,34.0,"A#,",64.0
9699,84288.0,Note On,0,9.0,42.0,48.0,0,11,96.0,11.0,9.0,35.0,"B,",64.0
9700,84288.0,Note On,0,9.0,42.0,48.0,0,11,52.0,11.0,9.0,42.0,F#,48.0
9701,84340.0,Note Off,0,9.0,42.0,48.0,0,11,,,,,,
9702,84384.0,Note Off,0,9.0,35.0,64.0,0,11,,,,,,
9703,84480.0,Note On,0,9.0,35.0,82.0,0,11,736.0,3.0,1.0,32.0,"G#,",82.0
9704,84480.0,Note On,0,9.0,35.0,82.0,0,11,96.0,11.0,9.0,35.0,"B,",82.0
9705,84480.0,Note On,0,9.0,35.0,82.0,0,11,108.0,11.0,9.0,42.0,F#,72.0
9706,84480.0,Note On,0,9.0,42.0,72.0,0,11,736.0,3.0,1.0,32.0,"G#,",82.0
9707,84480.0,Note On,0,9.0,42.0,72.0,0,11,96.0,11.0,9.0,35.0,"B,",82.0
9708,84480.0,Note On,0,9.0,42.0,72.0,0,11,108.0,11.0,9.0,42.0,F#,72.0
9709,84576.0,Note Off,0,9.0,35.0,82.0,0,11,,,,,,
9710,84588.0,Note Off,0,9.0,42.0,72.0,0,11,,,,,,
9711,84668.0,Note On,0,9.0,42.0,23.0,0,11,44.0,11.0,9.0,42.0,F#,23.0
9712,84712.0,Note Off,0,9.0,42.0,23.0,0,11,,,,,,
9713,84864.0,Note On,0,9.0,42.0,69.0,0,11,120.0,11.0,9.0,42.0,F#,69.0
9714,84864.0,Note On,0,9.0,42.0,69.0,0,11,1036.0,15.0,13.0,72.0,c'',31.0
9715,84984.0,Note Off,0,9.0,42.0,69.0,0,11,,,,,,
9716,85056.0,Note On,0,9.0,38.0,55.0,0,11,52.0,11.0,9.0,38.0,D,55.0
9717,85108.0,Note Off,0,9.0,38.0,55.0,0,11,,,,,,
9718,85248.0,Note On,0,9.0,38.0,81.0,0,11,172.0,2.0,0.0,44.0,G#,83.0
9719,85248.0,Note On,0,9.0,38.0,81.0,0,11,148.0,3.0,1.0,32.0,"G#,",73.0
9720,85248.0,Note On,0,9.0,38.0,81.0,0,11,376.0,5.0,3.0,66.0,f#',87.0
9721,85248.0,Note On,0,9.0,38.0,81.0,0,11,188.0,11.0,9.0,38.0,D,81.0
9722,85248.0,Note On,0,9.0,38.0,81.0,0,11,96.0,11.0,9.0,54.0,f#,91.0
9723,85248.0,Note On,0,9.0,54.0,91.0,0,11,172.0,2.0,0.0,44.0,G#,83.0
9724,85248.0,Note On,0,9.0,54.0,91.0,0,11,148.0,3.0,1.0,32.0,"G#,",73.0
9725,85248.0,Note On,0,9.0,54.0,91.0,0,11,376.0,5.0,3.0,66.0,f#',87.0
9726,85248.0,Note On,0,9.0,54.0,91.0,0,11,188.0,11.0,9.0,38.0,D,81.0
9727,85248.0,Note On,0,9.0,54.0,91.0,0,11,96.0,11.0,9.0,54.0,f#,91.0
9728,85344.0,Note Off,0,9.0,54.0,91.0,0,11,,,,,,
9729,85428.0,Note On,0,9.0,45.0,64.0,0,11,156.0,11.0,9.0,45.0,A,64.0
9730,85436.0,Note Off,0,9.0,38.0,81.0,0,11,,,,,,
9731,85584.0,Note Off,0,9.0,45.0,64.0,0,11,,,,,,
9732,85624.0,Note On,0,9.0,45.0,91.0,0,11,52.0,7.0,5.0,60.0,c',43.0
9733,85624.0,Note On,0,9.0,45.0,91.0,0,11,188.0,11.0,9.0,45.0,A,91.0
9734,85812.0,Note Off,0,9.0,45.0,91.0,0,11,,,,,,
9735,85820.0,Note On,0,9.0,42.0,31.0,0,11,56.0,11.0,9.0,42.0,F#,31.0
9736,85876.0,Note Off,0,9.0,42.0,31.0,0,11,,,,,,
9737,86016.0,Note On,0,9.0,35.0,82.0,0,11,312.0,2.0,0.0,60.0,c',92.0
9738,86016.0,Note On,0,9.0,35.0,82.0,0,11,340.0,2.0,0.0,68.0,g#',95.0
9739,86016.0,Note On,0,9.0,35.0,82.0,0,11,1096.0,3.0,1.0,32.0,"G#,",82.0
9740,86016.0,Note On,0,9.0,35.0,82.0,0,11,96.0,11.0,9.0,35.0,"B,",82.0
9741,86016.0,Note On,0,9.0,35.0,82.0,0,11,700.0,11.0,9.0,49.0,c#,64.0
9742,86016.0,Note On,0,9.0,49.0,64.0,0,11,312.0,2.0,0.0,60.0,c',92.0
9743,86016.0,Note On,0,9.0,49.0,64.0,0,11,340.0,2.0,0.0,68.0,g#',95.0
9744,86016.0,Note On,0,9.0,49.0,64.0,0,11,1096.0,3.0,1.0,32.0,"G#,",82.0
9745,86016.0,Note On,0,9.0,49.0,64.0,0,11,96.0,11.0,9.0,35.0,"B,",82.0
9746,86016.0,Note On,0,9.0,49.0,64.0,0,11,700.0,11.0,9.0,49.0,c#,64.0
9747,86112.0,Note Off,0,9.0,35.0,82.0,0,11,,,,,,
9748,86204.0,Note On,0,9.0,42.0,30.0,0,11,44.0,11.0,9.0,42.0,F#,30.0
9749,86248.0,Note Off,0,9.0,42.0,30.0,0,11,,,,,,
9750,86400.0,Note On,0,9.0,42.0,69.0,0,11,192.0,2.0,0.0,60.0,c',66.0
9751,86400.0,Note On,0,9.0,42.0,69.0,0,11,120.0,11.0,9.0,42.0,F#,69.0
9752,86520.0,Note Off,0,9.0,42.0,69.0,0,11,,,,,,
9753,86588.0,Note On,0,9.0,42.0,31.0,0,11,52.0,11.0,9.0,42.0,F#,31.0
9754,86640.0,Note Off,0,9.0,42.0,31.0,0,11,,,,,,
9755,86716.0,Note Off,0,9.0,49.0,64.0,0,11,,,,,,
9756,86784.0,Note On,0,9.0,38.0,73.0,0,11,360.0,2.0,0.0,60.0,c',92.0
9757,86784.0,Note On,0,9.0,38.0,73.0,0,11,240.0,11.0,9.0,38.0,D,73.0
9758,86784.0,Note On,0,9.0,38.0,73.0,0,11,112.0,11.0,9.0,42.0,F#,75.0
9759,86784.0,Note On,0,9.0,42.0,75.0,0,11,360.0,2.0,0.0,60.0,c',92.0
9760,86784.0,Note On,0,9.0,42.0,75.0,0,11,240.0,11.0,9.0,38.0,D,73.0
9761,86784.0,Note On,0,9.0,42.0,75.0,0,11,112.0,11.0,9.0,42.0,F#,75.0
9762,86896.0,Note Off,0,9.0,42.0,75.0,0,11,,,,,,
9763,86972.0,Note On,0,9.0,42.0,31.0,0,11,56.0,11.0,9.0,42.0,F#,31.0
9764,87024.0,Note Off,0,9.0,38.0,73.0,0,11,,,,,,
9765,87028.0,Note Off,0,9.0,42.0,31.0,0,11,,,,,,
9766,87168.0,Note On,0,9.0,42.0,72.0,0,11,164.0,3.0,1.0,32.0,"G#,",81.0
9767,87168.0,Note On,0,9.0,42.0,72.0,0,11,140.0,11.0,9.0,42.0,F#,72.0
9768,87308.0,Note Off,0,9.0,42.0,72.0,0,11,,,,,,
9769,87360.0,Note On,0,9.0,35.0,64.0,0,11,176.0,2.0,0.0,48.0,c,83.0
9770,87360.0,Note On,0,9.0,35.0,64.0,0,11,164.0,3.0,1.0,36.0,C,81.0
9771,87360.0,Note On,0,9.0,35.0,64.0,0,11,96.0,11.0,9.0,35.0,"B,",64.0
9772,87360.0,Note On,0,9.0,35.0,64.0,0,11,52.0,11.0,9.0,42.0,F#,48.0
9773,87360.0,Note On,0,9.0,42.0,48.0,0,11,176.0,2.0,0.0,48.0,c,83.0
9774,87360.0,Note On,0,9.0,42.0,48.0,0,11,164.0,3.0,1.0,36.0,C,81.0
9775,87360.0,Note On,0,9.0,42.0,48.0,0,11,96.0,11.0,9.0,35.0,"B,",64.0
9776,87360.0,Note On,0,9.0,42.0,48.0,0,11,52.0,11.0,9.0,42.0,F#,48.0
9777,87412.0,Note Off,0,9.0,42.0,48.0,0,11,,,,,,
9778,87456.0,Note Off,0,9.0,35.0,64.0,0,11,,,,,,
9779,87552.0,Note On,0,9.0,35.0,82.0,0,11,1108.0,3.0,1.0,37.0,C#,82.0
9780,87552.0,Note On,0,9.0,35.0,82.0,0,11,96.0,11.0,9.0,35.0,"B,",82.0
9781,87552.0,Note On,0,9.0,35.0,82.0,0,11,108.0,11.0,9.0,42.0,F#,72.0
9782,87552.0,Note On,0,9.0,42.0,72.0,0,11,1108.0,3.0,1.0,37.0,C#,82.0
9783,87552.0,Note On,0,9.0,42.0,72.0,0,11,96.0,11.0,9.0,35.0,"B,",82.0
9784,87552.0,Note On,0,9.0,42.0,72.0,0,11,108.0,11.0,9.0,42.0,F#,72.0
9785,87648.0,Note Off,0,9.0,35.0,82.0,0,11,,,,,,
9786,87660.0,Note Off,0,9.0,42.0,72.0,0,11,,,,,,
9787,87740.0,Note On,0,9.0,42.0,23.0,0,11,44.0,11.0,9.0,42.0,F#,23.0
9788,87784.0,Note Off,0,9.0,42.0,23.0,0,11,,,,,,
9789,87936.0,Note On,0,9.0,42.0,69.0,0,11,120.0,11.0,9.0,42.0,F#,69.0
9790,88056.0,Note Off,0,9.0,42.0,69.0,0,11,,,,,,
9791,88124.0,Note On,0,9.0,42.0,31.0,0,11,912.0,2.0,0.0,49.0,c#,92.0
9792,88124.0,Note On,0,9.0,42.0,31.0,0,11,52.0,11.0,9.0,42.0,F#,31.0
9793,88176.0,Note Off,0,9.0,42.0,31.0,0,11,,,,,,
9794,88320.0,Note On,0,9.0,38.0,73.0,0,11,240.0,11.0,9.0,38.0,D,73.0
9795,88320.0,Note On,0,9.0,38.0,73.0,0,11,112.0,11.0,9.0,42.0,F#,75.0
9796,88320.0,Note On,0,9.0,38.0,73.0,0,11,96.0,11.0,9.0,54.0,f#,91.0
9797,88320.0,Note On,0,9.0,42.0,75.0,0,11,240.0,11.0,9.0,38.0,D,73.0
9798,88320.0,Note On,0,9.0,42.0,75.0,0,11,112.0,11.0,9.0,42.0,F#,75.0
9799,88320.0,Note On,0,9.0,42.0,75.0,0,11,96.0,11.0,9.0,54.0,f#,91.0
9800,88320.0,Note On,0,9.0,54.0,91.0,0,11,240.0,11.0,9.0,38.0,D,73.0
9801,88320.0,Note On,0,9.0,54.0,91.0,0,11,112.0,11.0,9.0,42.0,F#,75.0
9802,88320.0,Note On,0,9.0,54.0,91.0,0,11,96.0,11.0,9.0,54.0,f#,91.0
9803,88416.0,Note Off,0,9.0,54.0,91.0,0,11,,,,,,
9804,88432.0,Note Off,0,9.0,42.0,75.0,0,11,,,,,,
9805,88508.0,Note On,0,9.0,42.0,23.0,0,11,56.0,11.0,9.0,42.0,F#,23.0
9806,88560.0,Note Off,0,9.0,38.0,73.0,0,11,,,,,,
9807,88564.0,Note Off,0,9.0,42.0,23.0,0,11,,,,,,
9808,88704.0,Note On,0,9.0,42.0,72.0,0,11,348.0,3.0,1.0,37.0,C#,82.0
9809,88704.0,Note On,0,9.0,42.0,72.0,0,11,328.0,5.0,3.0,70.0,a#',82.0
9810,88704.0,Note On,0,9.0,42.0,72.0,0,11,140.0,11.0,9.0,42.0,F#,72.0
9811,88844.0,Note Off,0,9.0,42.0,72.0,0,11,,,,,,
9812,88892.0,Note On,0,9.0,42.0,34.0,0,11,56.0,11.0,9.0,42.0,F#,34.0
9813,88948.0,Note Off,0,9.0,42.0,34.0,0,11,,,,,,
9814,89088.0,Note On,0,9.0,35.0,82.0,0,11,536.0,2.0,0.0,48.0,c,91.0
9815,89088.0,Note On,0,9.0,35.0,82.0,0,11,736.0,3.0,1.0,36.0,C,82.0
9816,89088.0,Note On,0,9.0,35.0,82.0,0,11,96.0,11.0,9.0,35.0,"B,",82.0
9817,89088.0,Note On,0,9.0,35.0,82.0,0,11,108.0,11.0,9.0,42.0,F#,72.0
9818,89088.0,Note On,0,9.0,42.0,72.0,0,11,536.0,2.0,0.0,48.0,c,91.0
9819,89088.0,Note On,0,9.0,42.0,72.0,0,11,736.0,3.0,1.0,36.0,C,82.0
9820,89088.0,Note On,0,9.0,42.0,72.0,0,11,96.0,11.0,9.0,35.0,"B,",82.0
9821,89088.0,Note On,0,9.0,42.0,72.0,0,11,108.0,11.0,9.0,42.0,F#,72.0
9822,89184.0,Note Off,0,9.0,35.0,82.0,0,11,,,,,,
9823,89196.0,Note Off,0,9.0,42.0,72.0,0,11,,,,,,
9824,89276.0,Note On,0,9.0,42.0,26.0,0,11,44.0,11.0,9.0,42.0,F#,26.0
9825,89320.0,Note Off,0,9.0,42.0,26.0,0,11,,,,,,
9826,89472.0,Note On,0,9.0,42.0,69.0,0,11,120.0,11.0,9.0,42.0,F#,69.0
9827,89592.0,Note Off,0,9.0,42.0,69.0,0,11,,,,,,
9828,89660.0,Note On,0,9.0,42.0,31.0,0,11,164.0,2.0,0.0,48.0,c,80.0
9829,89660.0,Note On,0,9.0,42.0,31.0,0,11,52.0,11.0,9.0,42.0,F#,31.0
9830,89712.0,Note Off,0,9.0,42.0,31.0,0,11,,,,,,
9831,89856.0,Note On,0,9.0,38.0,73.0,0,11,528.0,2.0,0.0,45.0,A,101.0
9832,89856.0,Note On,0,9.0,38.0,73.0,0,11,468.0,3.0,1.0,33.0,"A,",82.0
9833,89856.0,Note On,0,9.0,38.0,73.0,0,11,240.0,11.0,9.0,38.0,D,73.0
9834,89856.0,Note On,0,9.0,38.0,73.0,0,11,112.0,11.0,9.0,42.0,F#,75.0
9835,89856.0,Note On,0,9.0,42.0,75.0,0,11,528.0,2.0,0.0,45.0,A,101.0
9836,89856.0,Note On,0,9.0,42.0,75.0,0,11,468.0,3.0,1.0,33.0,"A,",82.0
9837,89856.0,Note On,0,9.0,42.0,75.0,0,11,240.0,11.0,9.0,38.0,D,73.0
9838,89856.0,Note On,0,9.0,42.0,75.0,0,11,112.0,11.0,9.0,42.0,F#,75.0
9839,89968.0,Note Off,0,9.0,42.0,75.0,0,11,,,,,,
9840,90044.0,Note On,0,9.0,42.0,23.0,0,11,556.0,2.0,0.0,65.0,f',70.0
9841,90044.0,Note On,0,9.0,42.0,23.0,0,11,56.0,11.0,9.0,42.0,F#,23.0
9842,90096.0,Note Off,0,9.0,38.0,73.0,0,11,,,,,,
9843,90100.0,Note Off,0,9.0,42.0,23.0,0,11,,,,,,
9844,90240.0,Note On,0,9.0,42.0,72.0,0,11,140.0,11.0,9.0,42.0,F#,72.0
9845,90380.0,Note Off,0,9.0,42.0,72.0,0,11,,,,,,
9846,90432.0,Note On,0,9.0,35.0,64.0,0,11,144.0,3.0,1.0,33.0,"A,",64.0
9847,90432.0,Note On,0,9.0,35.0,64.0,0,11,96.0,11.0,9.0,35.0,"B,",64.0
9848,90432.0,Note On,0,9.0,35.0,64.0,0,11,52.0,11.0,9.0,42.0,F#,48.0
9849,90432.0,Note On,0,9.0,42.0,48.0,0,11,144.0,3.0,1.0,33.0,"A,",64.0
9850,90432.0,Note On,0,9.0,42.0,48.0,0,11,96.0,11.0,9.0,35.0,"B,",64.0
9851,90432.0,Note On,0,9.0,42.0,48.0,0,11,52.0,11.0,9.0,42.0,F#,48.0
9852,90484.0,Note Off,0,9.0,42.0,48.0,0,11,,,,,,
9853,90528.0,Note Off,0,9.0,35.0,64.0,0,11,,,,,,
9854,90624.0,Note On,0,9.0,35.0,82.0,0,11,744.0,3.0,1.0,34.0,"A#,",82.0
9855,90624.0,Note On,0,9.0,35.0,82.0,0,11,96.0,11.0,9.0,35.0,"B,",82.0
9856,90624.0,Note On,0,9.0,35.0,82.0,0,11,108.0,11.0,9.0,42.0,F#,72.0
9857,90624.0,Note On,0,9.0,42.0,72.0,0,11,744.0,3.0,1.0,34.0,"A#,",82.0
9858,90624.0,Note On,0,9.0,42.0,72.0,0,11,96.0,11.0,9.0,35.0,"B,",82.0
9859,90624.0,Note On,0,9.0,42.0,72.0,0,11,108.0,11.0,9.0,42.0,F#,72.0
9860,90720.0,Note Off,0,9.0,35.0,82.0,0,11,,,,,,
9861,90732.0,Note Off,0,9.0,42.0,72.0,0,11,,,,,,
9862,90812.0,Note On,0,9.0,42.0,23.0,0,11,44.0,11.0,9.0,42.0,F#,23.0
9863,90856.0,Note Off,0,9.0,42.0,23.0,0,11,,,,,,
9864,91008.0,Note On,0,9.0,42.0,69.0,0,11,120.0,11.0,9.0,42.0,F#,69.0
9865,91008.0,Note On,0,9.0,42.0,69.0,0,11,60.0,12.0,10.0,45.0,A,48.0
9866,91128.0,Note Off,0,9.0,42.0,69.0,0,11,,,,,,
9867,91196.0,Note On,0,9.0,42.0,34.0,0,11,52.0,11.0,9.0,42.0,F#,34.0
9868,91248.0,Note Off,0,9.0,42.0,34.0,0,11,,,,,,
9869,91392.0,Note On,0,9.0,38.0,73.0,0,11,728.0,3.0,1.0,32.0,"G#,",82.0
9870,91392.0,Note On,0,9.0,38.0,73.0,0,11,240.0,11.0,9.0,38.0,D,73.0
9871,91392.0,Note On,0,9.0,38.0,73.0,0,11,112.0,11.0,9.0,42.0,F#,75.0
9872,91392.0,Note On,0,9.0,38.0,73.0,0,11,96.0,11.0,9.0,54.0,f#,91.0
9873,91392.0,Note On,0,9.0,42.0,75.0,0,11,728.0,3.0,1.0,32.0,"G#,",82.0
9874,91392.0,Note On,0,9.0,42.0,75.0,0,11,240.0,11.0,9.0,38.0,D,73.0
9875,91392.0,Note On,0,9.0,42.0,75.0,0,11,112.0,11.0,9.0,42.0,F#,75.0
9876,91392.0,Note On,0,9.0,42.0,75.0,0,11,96.0,11.0,9.0,54.0,f#,91.0
9877,91392.0,Note On,0,9.0,54.0,91.0,0,11,728.0,3.0,1.0,32.0,"G#,",82.0
9878,91392.0,Note On,0,9.0,54.0,91.0,0,11,240.0,11.0,9.0,38.0,D,73.0
9879,91392.0,Note On,0,9.0,54.0,91.0,0,11,112.0,11.0,9.0,42.0,F#,75.0
9880,91392.0,Note On,0,9.0,54.0,91.0,0,11,96.0,11.0,9.0,54.0,f#,91.0
9881,91488.0,Note Off,0,9.0,54.0,91.0,0,11,,,,,,
9882,91504.0,Note Off,0,9.0,42.0,75.0,0,11,,,,,,
9883,91580.0,Note On,0,9.0,42.0,23.0,0,11,56.0,11.0,9.0,42.0,F#,23.0
9884,91632.0,Note Off,0,9.0,38.0,73.0,0,11,,,,,,
9885,91636.0,Note Off,0,9.0,42.0,23.0,0,11,,,,,,
9886,91776.0,Note On,0,9.0,42.0,72.0,0,11,140.0,11.0,9.0,42.0,F#,72.0
9887,91916.0,Note Off,0,9.0,42.0,72.0,0,11,,,,,,
9888,91964.0,Note On,0,9.0,42.0,31.0,0,11,56.0,11.0,9.0,42.0,F#,31.0
9889,92020.0,Note Off,0,9.0,42.0,31.0,0,11,,,,,,
9890,92160.0,Note On,0,9.0,35.0,82.0,0,11,732.0,3.0,1.0,30.0,"F#,",82.0
9891,92160.0,Note On,0,9.0,35.0,82.0,0,11,96.0,11.0,9.0,35.0,"B,",82.0
9892,92160.0,Note On,0,9.0,35.0,82.0,0,11,108.0,11.0,9.0,42.0,F#,72.0
9893,92160.0,Note On,0,9.0,42.0,72.0,0,11,732.0,3.0,1.0,30.0,"F#,",82.0
9894,92160.0,Note On,0,9.0,42.0,72.0,0,11,96.0,11.0,9.0,35.0,"B,",82.0
9895,92160.0,Note On,0,9.0,42.0,72.0,0,11,108.0,11.0,9.0,42.0,F#,72.0
9896,92256.0,Note Off,0,9.0,35.0,82.0,0,11,,,,,,
9897,92268.0,Note Off,0,9.0,42.0,72.0,0,11,,,,,,
9898,92348.0,Note On,0,9.0,42.0,26.0,0,11,44.0,11.0,9.0,42.0,F#,26.0
9899,92392.0,Note Off,0,9.0,42.0,26.0,0,11,,,,,,
9900,92544.0,Note On,0,9.0,42.0,69.0,0,11,120.0,11.0,9.0,42.0,F#,69.0
9901,92664.0,Note Off,0,9.0,42.0,69.0,0,11,,,,,,
9902,92732.0,Note On,0,9.0,42.0,31.0,0,11,52.0,11.0,9.0,42.0,F#,31.0
9903,92784.0,Note Off,0,9.0,42.0,31.0,0,11,,,,,,
9904,92928.0,Note On,0,9.0,38.0,73.0,0,11,532.0,3.0,1.0,29.0,"F,",82.0
9905,92928.0,Note On,0,9.0,38.0,73.0,0,11,240.0,11.0,9.0,38.0,D,73.0
9906,92928.0,Note On,0,9.0,38.0,73.0,0,11,112.0,11.0,9.0,42.0,F#,75.0
9907,92928.0,Note On,0,9.0,42.0,75.0,0,11,532.0,3.0,1.0,29.0,"F,",82.0
9908,92928.0,Note On,0,9.0,42.0,75.0,0,11,240.0,11.0,9.0,38.0,D,73.0
9909,92928.0,Note On,0,9.0,42.0,75.0,0,11,112.0,11.0,9.0,42.0,F#,75.0
9910,93040.0,Note Off,0,9.0,42.0,75.0,0,11,,,,,,
9911,93116.0,Note On,0,9.0,42.0,23.0,0,11,56.0,11.0,9.0,42.0,F#,23.0
9912,93168.0,Note Off,0,9.0,38.0,73.0,0,11,,,,,,
9913,93172.0,Note Off,0,9.0,42.0,23.0,0,11,,,,,,
9914,93312.0,Note On,0,9.0,42.0,72.0,0,11,140.0,11.0,9.0,42.0,F#,72.0
9915,93452.0,Note Off,0,9.0,42.0,72.0,0,11,,,,,,
9916,93504.0,Note On,0,9.0,35.0,64.0,0,11,144.0,3.0,1.0,29.0,"F,",64.0
9917,93504.0,Note On,0,9.0,35.0,64.0,0,11,96.0,11.0,9.0,35.0,"B,",64.0
9918,93504.0,Note On,0,9.0,35.0,64.0,0,11,52.0,11.0,9.0,42.0,F#,48.0
9919,93504.0,Note On,0,9.0,42.0,48.0,0,11,144.0,3.0,1.0,29.0,"F,",64.0
9920,93504.0,Note On,0,9.0,42.0,48.0,0,11,96.0,11.0,9.0,35.0,"B,",64.0
9921,93504.0,Note On,0,9.0,42.0,48.0,0,11,52.0,11.0,9.0,42.0,F#,48.0
9922,93556.0,Note Off,0,9.0,42.0,48.0,0,11,,,,,,
9923,93600.0,Note Off,0,9.0,35.0,64.0,0,11,,,,,,
9924,93696.0,Note On,0,9.0,35.0,82.0,0,11,328.0,2.0,0.0,68.0,g#',83.0
9925,93696.0,Note On,0,9.0,35.0,82.0,0,11,300.0,2.0,0.0,72.0,c'',96.0
9926,93696.0,Note On,0,9.0,35.0,82.0,0,11,568.0,3.0,1.0,30.0,"F#,",82.0
9927,93696.0,Note On,0,9.0,35.0,82.0,0,11,96.0,11.0,9.0,35.0,"B,",82.0
9928,93696.0,Note On,0,9.0,35.0,82.0,0,11,108.0,11.0,9.0,42.0,F#,72.0
9929,93696.0,Note On,0,9.0,42.0,72.0,0,11,328.0,2.0,0.0,68.0,g#',83.0
9930,93696.0,Note On,0,9.0,42.0,72.0,0,11,300.0,2.0,0.0,72.0,c'',96.0
9931,93696.0,Note On,0,9.0,42.0,72.0,0,11,568.0,3.0,1.0,30.0,"F#,",82.0
9932,93696.0,Note On,0,9.0,42.0,72.0,0,11,96.0,11.0,9.0,35.0,"B,",82.0
9933,93696.0,Note On,0,9.0,42.0,72.0,0,11,108.0,11.0,9.0,42.0,F#,72.0
9934,93792.0,Note Off,0,9.0,35.0,82.0,0,11,,,,,,
9935,93804.0,Note Off,0,9.0,42.0,72.0,0,11,,,,,,
9936,93884.0,Note On,0,9.0,42.0,23.0,0,11,636.0,2.0,0.0,61.0,c#',58.0
9937,93884.0,Note On,0,9.0,42.0,23.0,0,11,44.0,11.0,9.0,42.0,F#,23.0
9938,93928.0,Note Off,0,9.0,42.0,23.0,0,11,,,,,,
9939,94080.0,Note On,0,9.0,42.0,69.0,0,11,120.0,11.0,9.0,42.0,F#,69.0
9940,94200.0,Note Off,0,9.0,42.0,69.0,0,11,,,,,,
9941,94268.0,Note On,0,9.0,42.0,34.0,0,11,52.0,11.0,9.0,42.0,F#,34.0
9942,94320.0,Note Off,0,9.0,42.0,34.0,0,11,,,,,,
9943,94464.0,Note On,0,9.0,38.0,73.0,0,11,732.0,3.0,1.0,29.0,"F,",82.0
9944,94464.0,Note On,0,9.0,38.0,73.0,0,11,240.0,11.0,9.0,38.0,D,73.0
9945,94464.0,Note On,0,9.0,38.0,73.0,0,11,112.0,11.0,9.0,42.0,F#,75.0
9946,94464.0,Note On,0,9.0,38.0,73.0,0,11,96.0,11.0,9.0,54.0,f#,91.0
9947,94464.0,Note On,0,9.0,42.0,75.0,0,11,732.0,3.0,1.0,29.0,"F,",82.0
9948,94464.0,Note On,0,9.0,42.0,75.0,0,11,240.0,11.0,9.0,38.0,D,73.0
9949,94464.0,Note On,0,9.0,42.0,75.0,0,11,112.0,11.0,9.0,42.0,F#,75.0
9950,94464.0,Note On,0,9.0,42.0,75.0,0,11,96.0,11.0,9.0,54.0,f#,91.0
9951,94464.0,Note On,0,9.0,54.0,91.0,0,11,732.0,3.0,1.0,29.0,"F,",82.0
9952,94464.0,Note On,0,9.0,54.0,91.0,0,11,240.0,11.0,9.0,38.0,D,73.0
9953,94464.0,Note On,0,9.0,54.0,91.0,0,11,112.0,11.0,9.0,42.0,F#,75.0
9954,94464.0,Note On,0,9.0,54.0,91.0,0,11,96.0,11.0,9.0,54.0,f#,91.0
9955,94560.0,Note Off,0,9.0,54.0,91.0,0,11,,,,,,
9956,94576.0,Note Off,0,9.0,42.0,75.0,0,11,,,,,,
9957,94652.0,Note On,0,9.0,42.0,23.0,0,11,56.0,11.0,9.0,42.0,F#,23.0
9958,94704.0,Note Off,0,9.0,38.0,73.0,0,11,,,,,,
9959,94708.0,Note Off,0,9.0,42.0,23.0,0,11,,,,,,
9960,94848.0,Note On,0,9.0,42.0,72.0,0,11,140.0,11.0,9.0,42.0,F#,72.0
9961,94988.0,Note Off,0,9.0,42.0,72.0,0,11,,,,,,
9962,95036.0,Note On,0,9.0,42.0,31.0,0,11,56.0,11.0,9.0,42.0,F#,31.0
9963,95092.0,Note Off,0,9.0,42.0,31.0,0,11,,,,,,
9964,95232.0,Note On,0,9.0,35.0,82.0,0,11,728.0,3.0,1.0,34.0,"A#,",82.0
9965,95232.0,Note On,0,9.0,35.0,82.0,0,11,96.0,11.0,9.0,35.0,"B,",82.0
9966,95232.0,Note On,0,9.0,35.0,82.0,0,11,108.0,11.0,9.0,42.0,F#,72.0
9967,95232.0,Note On,0,9.0,42.0,72.0,0,11,728.0,3.0,1.0,34.0,"A#,",82.0
9968,95232.0,Note On,0,9.0,42.0,72.0,0,11,96.0,11.0,9.0,35.0,"B,",82.0
9969,95232.0,Note On,0,9.0,42.0,72.0,0,11,108.0,11.0,9.0,42.0,F#,72.0
9970,95328.0,Note Off,0,9.0,35.0,82.0,0,11,,,,,,
9971,95340.0,Note Off,0,9.0,42.0,72.0,0,11,,,,,,
9972,95420.0,Note On,0,9.0,42.0,26.0,0,11,44.0,11.0,9.0,42.0,F#,26.0
9973,95464.0,Note Off,0,9.0,42.0,26.0,0,11,,,,,,
9974,95616.0,Note On,0,9.0,42.0,69.0,0,11,120.0,11.0,9.0,42.0,F#,69.0
9975,95736.0,Note Off,0,9.0,42.0,69.0,0,11,,,,,,
9976,95804.0,Note On,0,9.0,42.0,31.0,0,11,208.0,2.0,0.0,56.0,g#,74.0
9977,95804.0,Note On,0,9.0,42.0,31.0,0,11,52.0,11.0,9.0,42.0,F#,31.0
9978,95856.0,Note Off,0,9.0,42.0,31.0,0,11,,,,,,
9979,96000.0,Note On,0,9.0,38.0,73.0,0,11,792.0,2.0,0.0,63.0,d#',83.0
9980,96000.0,Note On,0,9.0,38.0,73.0,0,11,516.0,3.0,1.0,27.0,"D#,",82.0
9981,96000.0,Note On,0,9.0,38.0,73.0,0,11,240.0,11.0,9.0,38.0,D,73.0
9982,96000.0,Note On,0,9.0,38.0,73.0,0,11,112.0,11.0,9.0,42.0,F#,75.0
9983,96000.0,Note On,0,9.0,42.0,75.0,0,11,792.0,2.0,0.0,63.0,d#',83.0
9984,96000.0,Note On,0,9.0,42.0,75.0,0,11,516.0,3.0,1.0,27.0,"D#,",82.0
9985,96000.0,Note On,0,9.0,42.0,75.0,0,11,240.0,11.0,9.0,38.0,D,73.0
9986,96000.0,Note On,0,9.0,42.0,75.0,0,11,112.0,11.0,9.0,42.0,F#,75.0
9987,96112.0,Note Off,0,9.0,42.0,75.0,0,11,,,,,,
9988,96188.0,Note On,0,9.0,42.0,23.0,0,11,56.0,11.0,9.0,42.0,F#,23.0
9989,96240.0,Note Off,0,9.0,38.0,73.0,0,11,,,,,,
9990,96244.0,Note Off,0,9.0,42.0,23.0,0,11,,,,,,
9991,96384.0,Note On,0,9.0,42.0,72.0,0,11,364.0,2.0,0.0,55.0,g,83.0
9992,96384.0,Note On,0,9.0,42.0,72.0,0,11,140.0,11.0,9.0,42.0,F#,72.0
9993,96524.0,Note Off,0,9.0,42.0,72.0,0,11,,,,,,
9994,96576.0,Note On,0,9.0,35.0,64.0,0,11,164.0,3.0,1.0,27.0,"D#,",64.0
9995,96576.0,Note On,0,9.0,35.0,64.0,0,11,96.0,11.0,9.0,35.0,"B,",64.0
9996,96576.0,Note On,0,9.0,35.0,64.0,0,11,52.0,11.0,9.0,42.0,F#,48.0
9997,96576.0,Note On,0,9.0,42.0,48.0,0,11,164.0,3.0,1.0,27.0,"D#,",64.0
9998,96576.0,Note On,0,9.0,42.0,48.0,0,11,96.0,11.0,9.0,35.0,"B,",64.0
9999,96576.0,Note On,0,9.0,42.0,48.0,0,11,52.0,11.0,9.0,42.0,F#,48.0
10000,96628.0,Note Off,0,9.0,42.0,48.0,0,11,,,,,,
10001,96672.0,Note Off,0,9.0,35.0,64.0,0,11,,,,,,
10002,96768.0,Note On,0,9.0,35.0,82.0,0,11,556.0,3.0,1.0,35.0,"B,",82.0
10003,96768.0,Note On,0,9.0,35.0,82.0,0,11,96.0,11.0,9.0,35.0,"B,",82.0
10004,96768.0,Note On,0,9.0,35.0,82.0,0,11,108.0,11.0,9.0,42.0,F#,72.0
10005,96768.0,Note On,0,9.0,42.0,72.0,0,11,556.0,3.0,1.0,35.0,"B,",82.0
10006,96768.0,Note On,0,9.0,42.0,72.0,0,11,96.0,11.0,9.0,35.0,"B,",82.0
10007,96768.0,Note On,0,9.0,42.0,72.0,0,11,108.0,11.0,9.0,42.0,F#,72.0
10008,96864.0,Note Off,0,9.0,35.0,82.0,0,11,,,,,,
10009,96876.0,Note Off,0,9.0,42.0,72.0,0,11,,,,,,
10010,96960.0,Note On,0,9.0,38.0,61.0,0,11,80.0,11.0,9.0,38.0,D,61.0
10011,97040.0,Note Off,0,9.0,38.0,61.0,0,11,,,,,,
10012,97152.0,Note On,0,9.0,38.0,81.0,0,11,80.0,11.0,9.0,38.0,D,81.0
10013,97152.0,Note On,0,9.0,38.0,81.0,0,11,1036.0,15.0,13.0,72.0,c'',31.0
10014,97232.0,Note Off,0,9.0,38.0,81.0,0,11,,,,,,
10015,97340.0,Note On,0,9.0,42.0,34.0,0,11,52.0,11.0,9.0,42.0,F#,34.0
10016,97344.0,Note On,0,9.0,35.0,78.0,0,11,164.0,3.0,1.0,35.0,"B,",64.0
10017,97344.0,Note On,0,9.0,35.0,78.0,0,11,96.0,11.0,9.0,35.0,"B,",78.0
10018,97392.0,Note Off,0,9.0,42.0,34.0,0,11,,,,,,
10019,97440.0,Note Off,0,9.0,35.0,78.0,0,11,,,,,,
10020,97536.0,Note On,0,9.0,35.0,82.0,0,11,748.0,2.0,0.0,44.0,G#,97.0
10021,97536.0,Note On,0,9.0,35.0,82.0,0,11,344.0,3.0,1.0,32.0,"G#,",82.0
10022,97536.0,Note On,0,9.0,35.0,82.0,0,11,96.0,11.0,9.0,35.0,"B,",82.0
10023,97536.0,Note On,0,9.0,35.0,82.0,0,11,112.0,11.0,9.0,42.0,F#,75.0
10024,97536.0,Note On,0,9.0,35.0,82.0,0,11,96.0,11.0,9.0,54.0,f#,91.0
10025,97536.0,Note On,0,9.0,42.0,75.0,0,11,748.0,2.0,0.0,44.0,G#,97.0
10026,97536.0,Note On,0,9.0,42.0,75.0,0,11,344.0,3.0,1.0,32.0,"G#,",82.0
10027,97536.0,Note On,0,9.0,42.0,75.0,0,11,96.0,11.0,9.0,35.0,"B,",82.0
10028,97536.0,Note On,0,9.0,42.0,75.0,0,11,112.0,11.0,9.0,42.0,F#,75.0
10029,97536.0,Note On,0,9.0,42.0,75.0,0,11,96.0,11.0,9.0,54.0,f#,91.0
10030,97536.0,Note On,0,9.0,54.0,91.0,0,11,748.0,2.0,0.0,44.0,G#,97.0
10031,97536.0,Note On,0,9.0,54.0,91.0,0,11,344.0,3.0,1.0,32.0,"G#,",82.0
10032,97536.0,Note On,0,9.0,54.0,91.0,0,11,96.0,11.0,9.0,35.0,"B,",82.0
10033,97536.0,Note On,0,9.0,54.0,91.0,0,11,112.0,11.0,9.0,42.0,F#,75.0
10034,97536.0,Note On,0,9.0,54.0,91.0,0,11,96.0,11.0,9.0,54.0,f#,91.0
10035,97632.0,Note Off,0,9.0,54.0,91.0,0,11,,,,,,
10036,97632.0,Note Off,0,9.0,35.0,82.0,0,11,,,,,,
10037,97648.0,Note Off,0,9.0,42.0,75.0,0,11,,,,,,
10038,97728.0,Note On,0,9.0,38.0,61.0,0,11,80.0,11.0,9.0,38.0,D,61.0
10039,97808.0,Note Off,0,9.0,38.0,61.0,0,11,,,,,,
10040,97920.0,Note On,0,9.0,38.0,81.0,0,11,344.0,3.0,1.0,32.0,"G#,",82.0
10041,97920.0,Note On,0,9.0,38.0,81.0,0,11,340.0,5.0,3.0,61.0,c#',73.0
10042,97920.0,Note On,0,9.0,38.0,81.0,0,11,56.0,6.0,4.0,57.0,a,109.0
10043,97920.0,Note On,0,9.0,38.0,81.0,0,11,80.0,11.0,9.0,38.0,D,81.0
10044,98000.0,Note Off,0,9.0,38.0,81.0,0,11,,,,,,
10045,98012.0,Note On,0,9.0,45.0,73.0,0,11,84.0,11.0,9.0,45.0,A,73.0
10046,98096.0,Note Off,0,9.0,45.0,73.0,0,11,,,,,,
10047,98104.0,Note On,0,9.0,43.0,82.0,0,11,48.0,6.0,4.0,49.0,c#,60.0
10048,98104.0,Note On,0,9.0,43.0,82.0,0,11,200.0,11.0,9.0,43.0,G,82.0
10049,98304.0,Note Off,0,9.0,43.0,82.0,0,11,1436.0,2.0,0.0,45.0,A,92.0
10050,98304.0,Note Off,0,9.0,43.0,82.0,0,11,492.0,2.0,0.0,52.0,e,83.0
10051,98304.0,Note Off,0,9.0,43.0,82.0,0,11,1304.0,3.0,1.0,33.0,"A,",82.0
10052,98304.0,Note Off,0,9.0,43.0,82.0,0,11,764.0,4.0,2.0,64.0,e',52.0
10053,98304.0,Note Off,0,9.0,43.0,82.0,0,11,400.0,6.0,4.0,61.0,c#',91.0
10054,98304.0,Note Off,0,9.0,43.0,82.0,0,11,96.0,11.0,9.0,35.0,"B,",82.0
10055,98304.0,Note Off,0,9.0,43.0,82.0,0,11,700.0,11.0,9.0,49.0,c#,64.0
10056,98304.0,Note On,0,9.0,35.0,82.0,0,11,1436.0,2.0,0.0,45.0,A,92.0
10057,98304.0,Note On,0,9.0,35.0,82.0,0,11,492.0,2.0,0.0,52.0,e,83.0
10058,98304.0,Note On,0,9.0,35.0,82.0,0,11,1304.0,3.0,1.0,33.0,"A,",82.0
10059,98304.0,Note On,0,9.0,35.0,82.0,0,11,764.0,4.0,2.0,64.0,e',52.0
10060,98304.0,Note On,0,9.0,35.0,82.0,0,11,400.0,6.0,4.0,61.0,c#',91.0
10061,98304.0,Note On,0,9.0,35.0,82.0,0,11,96.0,11.0,9.0,35.0,"B,",82.0
10062,98304.0,Note On,0,9.0,35.0,82.0,0,11,700.0,11.0,9.0,49.0,c#,64.0
10063,98304.0,Note On,0,9.0,49.0,64.0,0,11,1436.0,2.0,0.0,45.0,A,92.0
10064,98304.0,Note On,0,9.0,49.0,64.0,0,11,492.0,2.0,0.0,52.0,e,83.0
10065,98304.0,Note On,0,9.0,49.0,64.0,0,11,1304.0,3.0,1.0,33.0,"A,",82.0
10066,98304.0,Note On,0,9.0,49.0,64.0,0,11,764.0,4.0,2.0,64.0,e',52.0
10067,98304.0,Note On,0,9.0,49.0,64.0,0,11,400.0,6.0,4.0,61.0,c#',91.0
10068,98304.0,Note On,0,9.0,49.0,64.0,0,11,96.0,11.0,9.0,35.0,"B,",82.0
10069,98304.0,Note On,0,9.0,49.0,64.0,0,11,700.0,11.0,9.0,49.0,c#,64.0
10070,98400.0,Note Off,0,9.0,35.0,82.0,0,11,,,,,,
10071,98492.0,Note On,0,9.0,42.0,30.0,0,11,44.0,11.0,9.0,42.0,F#,30.0
10072,98536.0,Note Off,0,9.0,42.0,30.0,0,11,,,,,,
10073,98688.0,Note On,0,9.0,42.0,69.0,0,11,120.0,11.0,9.0,42.0,F#,69.0
10074,98808.0,Note Off,0,9.0,42.0,69.0,0,11,,,,,,
10075,98876.0,Note On,0,9.0,42.0,31.0,0,11,52.0,11.0,9.0,42.0,F#,31.0
10076,98928.0,Note Off,0,9.0,42.0,31.0,0,11,,,,,,
10077,99004.0,Note Off,0,9.0,49.0,64.0,0,11,,,,,,
10078,99072.0,Note On,0,9.0,38.0,73.0,0,11,240.0,11.0,9.0,38.0,D,73.0
10079,99072.0,Note On,0,9.0,38.0,73.0,0,11,112.0,11.0,9.0,42.0,F#,75.0
10080,99072.0,Note On,0,9.0,42.0,75.0,0,11,240.0,11.0,9.0,38.0,D,73.0
10081,99072.0,Note On,0,9.0,42.0,75.0,0,11,112.0,11.0,9.0,42.0,F#,75.0
10082,99184.0,Note Off,0,9.0,42.0,75.0,0,11,,,,,,
10083,99260.0,Note On,0,9.0,42.0,31.0,0,11,56.0,11.0,9.0,42.0,F#,31.0
10084,99264.0,Note On,0,9.0,80.0,36.0,0,11,60.0,11.0,9.0,80.0,g#'',36.0
10085,99312.0,Note Off,0,9.0,38.0,73.0,0,11,,,,,,
10086,99316.0,Note Off,0,9.0,42.0,31.0,0,11,,,,,,
10087,99324.0,Note Off,0,9.0,80.0,36.0,0,11,,,,,,
10088,99456.0,Note On,0,9.0,42.0,72.0,0,11,140.0,11.0,9.0,42.0,F#,72.0
10089,99456.0,Note On,0,9.0,42.0,72.0,0,11,60.0,11.0,9.0,80.0,g#'',36.0
10090,99456.0,Note On,0,9.0,80.0,36.0,0,11,140.0,11.0,9.0,42.0,F#,72.0
10091,99456.0,Note On,0,9.0,80.0,36.0,0,11,60.0,11.0,9.0,80.0,g#'',36.0
10092,99516.0,Note Off,0,9.0,80.0,36.0,0,11,,,,,,
10093,99596.0,Note Off,0,9.0,42.0,72.0,0,11,,,,,,
10094,99648.0,Note On,0,9.0,35.0,64.0,0,11,156.0,3.0,1.0,33.0,"A,",64.0
10095,99648.0,Note On,0,9.0,35.0,64.0,0,11,96.0,11.0,9.0,35.0,"B,",64.0
10096,99648.0,Note On,0,9.0,35.0,64.0,0,11,52.0,11.0,9.0,42.0,F#,48.0
10097,99648.0,Note On,0,9.0,35.0,64.0,0,11,352.0,11.0,9.0,81.0,a'',52.0
10098,99648.0,Note On,0,9.0,42.0,48.0,0,11,156.0,3.0,1.0,33.0,"A,",64.0
10099,99648.0,Note On,0,9.0,42.0,48.0,0,11,96.0,11.0,9.0,35.0,"B,",64.0
10100,99648.0,Note On,0,9.0,42.0,48.0,0,11,52.0,11.0,9.0,42.0,F#,48.0
10101,99648.0,Note On,0,9.0,42.0,48.0,0,11,352.0,11.0,9.0,81.0,a'',52.0
10102,99648.0,Note On,0,9.0,81.0,52.0,0,11,156.0,3.0,1.0,33.0,"A,",64.0
10103,99648.0,Note On,0,9.0,81.0,52.0,0,11,96.0,11.0,9.0,35.0,"B,",64.0
10104,99648.0,Note On,0,9.0,81.0,52.0,0,11,52.0,11.0,9.0,42.0,F#,48.0
10105,99648.0,Note On,0,9.0,81.0,52.0,0,11,352.0,11.0,9.0,81.0,a'',52.0
10106,99700.0,Note Off,0,9.0,42.0,48.0,0,11,,,,,,
10107,99744.0,Note Off,0,9.0,35.0,64.0,0,11,,,,,,
10108,99840.0,Note On,0,9.0,35.0,82.0,0,11,1456.0,3.0,1.0,33.0,"A,",82.0
10109,99840.0,Note On,0,9.0,35.0,82.0,0,11,96.0,11.0,9.0,35.0,"B,",82.0
10110,99840.0,Note On,0,9.0,35.0,82.0,0,11,108.0,11.0,9.0,42.0,F#,72.0
10111,99840.0,Note On,0,9.0,42.0,72.0,0,11,1456.0,3.0,1.0,33.0,"A,",82.0
10112,99840.0,Note On,0,9.0,42.0,72.0,0,11,96.0,11.0,9.0,35.0,"B,",82.0
10113,99840.0,Note On,0,9.0,42.0,72.0,0,11,108.0,11.0,9.0,42.0,F#,72.0
10114,99936.0,Note Off,0,9.0,35.0,82.0,0,11,,,,,,
10115,99948.0,Note Off,0,9.0,42.0,72.0,0,11,,,,,,
10116,100000.0,Note Off,0,9.0,81.0,52.0,0,11,,,,,,
10117,100028.0,Note On,0,9.0,42.0,23.0,0,11,44.0,11.0,9.0,42.0,F#,23.0
10118,100072.0,Note Off,0,9.0,42.0,23.0,0,11,,,,,,
10119,100224.0,Note On,0,9.0,42.0,69.0,0,11,120.0,11.0,9.0,42.0,F#,69.0
10120,100344.0,Note Off,0,9.0,42.0,69.0,0,11,,,,,,
10121,100412.0,Note On,0,9.0,42.0,31.0,0,11,52.0,11.0,9.0,42.0,F#,31.0
10122,100464.0,Note Off,0,9.0,42.0,31.0,0,11,,,,,,
10123,100608.0,Note On,0,9.0,38.0,73.0,0,11,240.0,11.0,9.0,38.0,D,73.0
10124,100608.0,Note On,0,9.0,38.0,73.0,0,11,112.0,11.0,9.0,42.0,F#,75.0
10125,100608.0,Note On,0,9.0,38.0,73.0,0,11,96.0,11.0,9.0,54.0,f#,91.0
10126,100608.0,Note On,0,9.0,42.0,75.0,0,11,240.0,11.0,9.0,38.0,D,73.0
10127,100608.0,Note On,0,9.0,42.0,75.0,0,11,112.0,11.0,9.0,42.0,F#,75.0
10128,100608.0,Note On,0,9.0,42.0,75.0,0,11,96.0,11.0,9.0,54.0,f#,91.0
10129,100608.0,Note On,0,9.0,54.0,91.0,0,11,240.0,11.0,9.0,38.0,D,73.0
10130,100608.0,Note On,0,9.0,54.0,91.0,0,11,112.0,11.0,9.0,42.0,F#,75.0
10131,100608.0,Note On,0,9.0,54.0,91.0,0,11,96.0,11.0,9.0,54.0,f#,91.0
10132,100704.0,Note Off,0,9.0,54.0,91.0,0,11,,,,,,
10133,100720.0,Note Off,0,9.0,42.0,75.0,0,11,,,,,,
10134,100796.0,Note On,0,9.0,42.0,23.0,0,11,56.0,11.0,9.0,42.0,F#,23.0
10135,100800.0,Note On,0,9.0,80.0,36.0,0,11,172.0,9.0,7.0,86.0,d''',72.0
10136,100800.0,Note On,0,9.0,80.0,36.0,0,11,60.0,11.0,9.0,80.0,g#'',36.0
10137,100848.0,Note Off,0,9.0,38.0,73.0,0,11,,,,,,
10138,100852.0,Note Off,0,9.0,42.0,23.0,0,11,,,,,,
10139,100860.0,Note Off,0,9.0,80.0,36.0,0,11,,,,,,
10140,100992.0,Note On,0,9.0,42.0,72.0,0,11,140.0,11.0,9.0,42.0,F#,72.0
10141,100992.0,Note On,0,9.0,42.0,72.0,0,11,60.0,11.0,9.0,80.0,g#'',36.0
10142,100992.0,Note On,0,9.0,80.0,36.0,0,11,140.0,11.0,9.0,42.0,F#,72.0
10143,100992.0,Note On,0,9.0,80.0,36.0,0,11,60.0,11.0,9.0,80.0,g#'',36.0
10144,101052.0,Note Off,0,9.0,80.0,36.0,0,11,,,,,,
10145,101132.0,Note Off,0,9.0,42.0,72.0,0,11,,,,,,
10146,101180.0,Note On,0,9.0,42.0,34.0,0,11,48.0,6.0,4.0,49.0,c#,61.0
10147,101180.0,Note On,0,9.0,42.0,34.0,0,11,56.0,11.0,9.0,42.0,F#,34.0
10148,101184.0,Note On,0,9.0,81.0,52.0,0,11,184.0,2.0,0.0,61.0,c#',66.0
10149,101184.0,Note On,0,9.0,81.0,52.0,0,11,352.0,11.0,9.0,81.0,a'',52.0
10150,101236.0,Note Off,0,9.0,42.0,34.0,0,11,,,,,,
10151,101376.0,Note On,0,9.0,35.0,82.0,0,11,716.0,2.0,0.0,45.0,A,92.0
10152,101376.0,Note On,0,9.0,35.0,82.0,0,11,492.0,2.0,0.0,52.0,e,83.0
10153,101376.0,Note On,0,9.0,35.0,82.0,0,11,536.0,2.0,0.0,61.0,c#',92.0
10154,101376.0,Note On,0,9.0,35.0,82.0,0,11,732.0,3.0,1.0,33.0,"A,",82.0
10155,101376.0,Note On,0,9.0,35.0,82.0,0,11,96.0,11.0,9.0,35.0,"B,",82.0
10156,101376.0,Note On,0,9.0,35.0,82.0,0,11,108.0,11.0,9.0,42.0,F#,72.0
10157,101376.0,Note On,0,9.0,42.0,72.0,0,11,716.0,2.0,0.0,45.0,A,92.0
10158,101376.0,Note On,0,9.0,42.0,72.0,0,11,492.0,2.0,0.0,52.0,e,83.0
10159,101376.0,Note On,0,9.0,42.0,72.0,0,11,536.0,2.0,0.0,61.0,c#',92.0
10160,101376.0,Note On,0,9.0,42.0,72.0,0,11,732.0,3.0,1.0,33.0,"A,",82.0
10161,101376.0,Note On,0,9.0,42.0,72.0,0,11,96.0,11.0,9.0,35.0,"B,",82.0
10162,101376.0,Note On,0,9.0,42.0,72.0,0,11,108.0,11.0,9.0,42.0,F#,72.0
10163,101472.0,Note Off,0,9.0,35.0,82.0,0,11,,,,,,
10164,101484.0,Note Off,0,9.0,42.0,72.0,0,11,,,,,,
10165,101536.0,Note Off,0,9.0,81.0,52.0,0,11,,,,,,
10166,101564.0,Note On,0,9.0,42.0,26.0,0,11,44.0,11.0,9.0,42.0,F#,26.0
10167,101608.0,Note Off,0,9.0,42.0,26.0,0,11,,,,,,
10168,101760.0,Note On,0,9.0,42.0,69.0,0,11,120.0,11.0,9.0,42.0,F#,69.0
10169,101880.0,Note Off,0,9.0,42.0,69.0,0,11,,,,,,
10170,101948.0,Note On,0,9.0,42.0,31.0,0,11,384.0,2.0,0.0,54.0,f#,92.0
10171,101948.0,Note On,0,9.0,42.0,31.0,0,11,384.0,2.0,0.0,57.0,a,63.0
10172,101948.0,Note On,0,9.0,42.0,31.0,0,11,376.0,2.0,0.0,62.0,d',83.0
10173,101948.0,Note On,0,9.0,42.0,31.0,0,11,52.0,11.0,9.0,42.0,F#,31.0
10174,102000.0,Note Off,0,9.0,42.0,31.0,0,11,,,,,,
10175,102144.0,Note On,0,9.0,38.0,73.0,0,11,560.0,2.0,0.0,42.0,F#,92.0
10176,102144.0,Note On,0,9.0,38.0,73.0,0,11,572.0,3.0,1.0,30.0,"F#,",82.0
10177,102144.0,Note On,0,9.0,38.0,73.0,0,11,240.0,11.0,9.0,38.0,D,73.0
10178,102144.0,Note On,0,9.0,38.0,73.0,0,11,112.0,11.0,9.0,42.0,F#,75.0
10179,102144.0,Note On,0,9.0,42.0,75.0,0,11,560.0,2.0,0.0,42.0,F#,92.0
10180,102144.0,Note On,0,9.0,42.0,75.0,0,11,572.0,3.0,1.0,30.0,"F#,",82.0
10181,102144.0,Note On,0,9.0,42.0,75.0,0,11,240.0,11.0,9.0,38.0,D,73.0
10182,102144.0,Note On,0,9.0,42.0,75.0,0,11,112.0,11.0,9.0,42.0,F#,75.0
10183,102256.0,Note Off,0,9.0,42.0,75.0,0,11,,,,,,
10184,102332.0,Note On,0,9.0,42.0,23.0,0,11,524.0,2.0,0.0,61.0,c#',82.0
10185,102332.0,Note On,0,9.0,42.0,23.0,0,11,72.0,6.0,4.0,59.0,b,75.0
10186,102332.0,Note On,0,9.0,42.0,23.0,0,11,200.0,9.0,7.0,73.0,c#'',64.0
10187,102332.0,Note On,0,9.0,42.0,23.0,0,11,56.0,11.0,9.0,42.0,F#,23.0
10188,102336.0,Note On,0,9.0,80.0,36.0,0,11,60.0,11.0,9.0,80.0,g#'',36.0
10189,102384.0,Note Off,0,9.0,38.0,73.0,0,11,,,,,,
10190,102388.0,Note Off,0,9.0,42.0,23.0,0,11,,,,,,
10191,102396.0,Note Off,0,9.0,80.0,36.0,0,11,,,,,,
10192,102528.0,Note On,0,9.0,42.0,72.0,0,11,192.0,6.0,4.0,64.0,e',90.0
10193,102528.0,Note On,0,9.0,42.0,72.0,0,11,140.0,11.0,9.0,42.0,F#,72.0
10194,102528.0,Note On,0,9.0,42.0,72.0,0,11,60.0,11.0,9.0,80.0,g#'',36.0
10195,102528.0,Note On,0,9.0,80.0,36.0,0,11,192.0,6.0,4.0,64.0,e',90.0
10196,102528.0,Note On,0,9.0,80.0,36.0,0,11,140.0,11.0,9.0,42.0,F#,72.0
10197,102528.0,Note On,0,9.0,80.0,36.0,0,11,60.0,11.0,9.0,80.0,g#'',36.0
10198,102588.0,Note Off,0,9.0,80.0,36.0,0,11,,,,,,
10199,102668.0,Note Off,0,9.0,42.0,72.0,0,11,,,,,,
10200,102720.0,Note On,0,9.0,35.0,64.0,0,11,180.0,3.0,1.0,33.0,"A,",64.0
10201,102720.0,Note On,0,9.0,35.0,64.0,0,11,96.0,11.0,9.0,35.0,"B,",64.0
10202,102720.0,Note On,0,9.0,35.0,64.0,0,11,52.0,11.0,9.0,42.0,F#,48.0
10203,102720.0,Note On,0,9.0,35.0,64.0,0,11,352.0,11.0,9.0,81.0,a'',52.0
10204,102720.0,Note On,0,9.0,42.0,48.0,0,11,180.0,3.0,1.0,33.0,"A,",64.0
10205,102720.0,Note On,0,9.0,42.0,48.0,0,11,96.0,11.0,9.0,35.0,"B,",64.0
10206,102720.0,Note On,0,9.0,42.0,48.0,0,11,52.0,11.0,9.0,42.0,F#,48.0
10207,102720.0,Note On,0,9.0,42.0,48.0,0,11,352.0,11.0,9.0,81.0,a'',52.0
10208,102720.0,Note On,0,9.0,81.0,52.0,0,11,180.0,3.0,1.0,33.0,"A,",64.0
10209,102720.0,Note On,0,9.0,81.0,52.0,0,11,96.0,11.0,9.0,35.0,"B,",64.0
10210,102720.0,Note On,0,9.0,81.0,52.0,0,11,52.0,11.0,9.0,42.0,F#,48.0
10211,102720.0,Note On,0,9.0,81.0,52.0,0,11,352.0,11.0,9.0,81.0,a'',52.0
10212,102772.0,Note Off,0,9.0,42.0,48.0,0,11,,,,,,
10213,102816.0,Note Off,0,9.0,35.0,64.0,0,11,,,,,,
10214,102912.0,Note On,0,9.0,35.0,82.0,0,11,1120.0,3.0,1.0,29.0,"F,",82.0
10215,102912.0,Note On,0,9.0,35.0,82.0,0,11,1560.0,4.0,2.0,53.0,f,56.0
10216,102912.0,Note On,0,9.0,35.0,82.0,0,11,376.0,6.0,4.0,69.0,a',100.0
10217,102912.0,Note On,0,9.0,35.0,82.0,0,11,388.0,9.0,7.0,83.0,b'',73.0
10218,102912.0,Note On,0,9.0,35.0,82.0,0,11,96.0,11.0,9.0,35.0,"B,",82.0
10219,102912.0,Note On,0,9.0,35.0,82.0,0,11,108.0,11.0,9.0,42.0,F#,72.0
10220,102912.0,Note On,0,9.0,42.0,72.0,0,11,1120.0,3.0,1.0,29.0,"F,",82.0
10221,102912.0,Note On,0,9.0,42.0,72.0,0,11,1560.0,4.0,2.0,53.0,f,56.0
10222,102912.0,Note On,0,9.0,42.0,72.0,0,11,376.0,6.0,4.0,69.0,a',100.0
10223,102912.0,Note On,0,9.0,42.0,72.0,0,11,388.0,9.0,7.0,83.0,b'',73.0
10224,102912.0,Note On,0,9.0,42.0,72.0,0,11,96.0,11.0,9.0,35.0,"B,",82.0
10225,102912.0,Note On,0,9.0,42.0,72.0,0,11,108.0,11.0,9.0,42.0,F#,72.0
10226,103008.0,Note Off,0,9.0,35.0,82.0,0,11,,,,,,
10227,103020.0,Note Off,0,9.0,42.0,72.0,0,11,,,,,,
10228,103072.0,Note Off,0,9.0,81.0,52.0,0,11,,,,,,
10229,103100.0,Note On,0,9.0,42.0,23.0,0,11,44.0,11.0,9.0,42.0,F#,23.0
10230,103144.0,Note Off,0,9.0,42.0,23.0,0,11,,,,,,
10231,103296.0,Note On,0,9.0,42.0,69.0,0,11,160.0,6.0,4.0,69.0,a',90.0
10232,103296.0,Note On,0,9.0,42.0,69.0,0,11,120.0,11.0,9.0,42.0,F#,69.0
10233,103416.0,Note Off,0,9.0,42.0,69.0,0,11,,,,,,
10234,103484.0,Note On,0,9.0,42.0,34.0,0,11,52.0,11.0,9.0,42.0,F#,34.0
10235,103536.0,Note Off,0,9.0,42.0,34.0,0,11,,,,,,
10236,103668.0,Note On,0,9.0,38.0,52.0,0,11,12.0,11.0,9.0,38.0,D,52.0
10237,103680.0,Note On,0,9.0,54.0,91.0,0,11,4.0,11.0,9.0,38.0,D,73.0
10238,103680.0,Note On,0,9.0,54.0,91.0,0,11,96.0,11.0,9.0,54.0,f#,91.0
10239,103680.0,Note On,0,9.0,38.0,73.0,0,11,4.0,11.0,9.0,38.0,D,73.0
10240,103680.0,Note On,0,9.0,38.0,73.0,0,11,96.0,11.0,9.0,54.0,f#,91.0
10241,103692.0,Note Off,0,9.0,38.0,0.0,0,11,,,,,,
10242,103696.0,Note Off,0,9.0,38.0,52.0,0,11,,,,,,
10243,103776.0,Note Off,0,9.0,54.0,91.0,0,11,,,,,,
10244,103872.0,Note On,0,9.0,45.0,73.0,0,11,84.0,11.0,9.0,45.0,A,73.0
10245,103872.0,Note On,0,9.0,45.0,73.0,0,11,60.0,11.0,9.0,80.0,g#'',36.0
10246,103872.0,Note On,0,9.0,80.0,36.0,0,11,84.0,11.0,9.0,45.0,A,73.0
10247,103872.0,Note On,0,9.0,80.0,36.0,0,11,60.0,11.0,9.0,80.0,g#'',36.0
10248,103932.0,Note Off,0,9.0,80.0,36.0,0,11,,,,,,
10249,103956.0,Note Off,0,9.0,45.0,73.0,0,11,,,,,,
10250,104064.0,Note On,0,9.0,43.0,82.0,0,11,360.0,2.0,0.0,40.0,E,92.0
10251,104064.0,Note On,0,9.0,43.0,82.0,0,11,356.0,2.0,0.0,56.0,g#,92.0
10252,104064.0,Note On,0,9.0,43.0,82.0,0,11,344.0,2.0,0.0,62.0,d',83.0
10253,104064.0,Note On,0,9.0,43.0,82.0,0,11,352.0,3.0,1.0,28.0,"E,",82.0
10254,104064.0,Note On,0,9.0,43.0,82.0,0,11,396.0,9.0,7.0,80.0,g#'',72.0
10255,104064.0,Note On,0,9.0,43.0,82.0,0,11,196.0,11.0,9.0,43.0,G,82.0
10256,104064.0,Note On,0,9.0,43.0,82.0,0,11,60.0,11.0,9.0,80.0,g#'',36.0
10257,104064.0,Note On,0,9.0,80.0,36.0,0,11,360.0,2.0,0.0,40.0,E,92.0
10258,104064.0,Note On,0,9.0,80.0,36.0,0,11,356.0,2.0,0.0,56.0,g#,92.0
10259,104064.0,Note On,0,9.0,80.0,36.0,0,11,344.0,2.0,0.0,62.0,d',83.0
10260,104064.0,Note On,0,9.0,80.0,36.0,0,11,352.0,3.0,1.0,28.0,"E,",82.0
10261,104064.0,Note On,0,9.0,80.0,36.0,0,11,396.0,9.0,7.0,80.0,g#'',72.0
10262,104064.0,Note On,0,9.0,80.0,36.0,0,11,196.0,11.0,9.0,43.0,G,82.0
10263,104064.0,Note On,0,9.0,80.0,36.0,0,11,60.0,11.0,9.0,80.0,g#'',36.0
10264,104124.0,Note Off,0,9.0,80.0,36.0,0,11,,,,,,
10265,104252.0,Note On,0,9.0,42.0,31.0,0,11,56.0,11.0,9.0,42.0,F#,31.0
10266,104256.0,Note On,0,9.0,35.0,75.0,0,11,96.0,11.0,9.0,35.0,"B,",75.0
10267,104256.0,Note On,0,9.0,35.0,75.0,0,11,352.0,11.0,9.0,81.0,a'',52.0
10268,104256.0,Note On,0,9.0,81.0,52.0,0,11,96.0,11.0,9.0,35.0,"B,",75.0
10269,104256.0,Note On,0,9.0,81.0,52.0,0,11,352.0,11.0,9.0,81.0,a'',52.0
10270,104260.0,Note Off,0,9.0,43.0,82.0,0,11,,,,,,
10271,104308.0,Note Off,0,9.0,42.0,31.0,0,11,,,,,,
10272,104352.0,Note Off,0,9.0,35.0,75.0,0,11,,,,,,
10273,104448.0,Note On,0,9.0,35.0,82.0,0,11,712.0,2.0,0.0,38.0,D,92.0
10274,104448.0,Note On,0,9.0,35.0,82.0,0,11,732.0,2.0,0.0,59.0,b,88.0
10275,104448.0,Note On,0,9.0,35.0,82.0,0,11,724.0,3.0,1.0,26.0,"D,",82.0
10276,104448.0,Note On,0,9.0,35.0,82.0,0,11,412.0,6.0,4.0,66.0,f#',90.0
10277,104448.0,Note On,0,9.0,35.0,82.0,0,11,96.0,11.0,9.0,35.0,"B,",82.0
10278,104448.0,Note On,0,9.0,35.0,82.0,0,11,700.0,11.0,9.0,49.0,c#,64.0
10279,104448.0,Note On,0,9.0,49.0,64.0,0,11,712.0,2.0,0.0,38.0,D,92.0
10280,104448.0,Note On,0,9.0,49.0,64.0,0,11,732.0,2.0,0.0,59.0,b,88.0
10281,104448.0,Note On,0,9.0,49.0,64.0,0,11,724.0,3.0,1.0,26.0,"D,",82.0
10282,104448.0,Note On,0,9.0,49.0,64.0,0,11,412.0,6.0,4.0,66.0,f#',90.0
10283,104448.0,Note On,0,9.0,49.0,64.0,0,11,96.0,11.0,9.0,35.0,"B,",82.0
10284,104448.0,Note On,0,9.0,49.0,64.0,0,11,700.0,11.0,9.0,49.0,c#,64.0
10285,104544.0,Note Off,0,9.0,35.0,82.0,0,11,,,,,,
10286,104608.0,Note Off,0,9.0,81.0,52.0,0,11,,,,,,
10287,104636.0,Note On,0,9.0,42.0,26.0,0,11,44.0,11.0,9.0,42.0,F#,26.0
10288,104680.0,Note Off,0,9.0,42.0,26.0,0,11,,,,,,
10289,104832.0,Note On,0,9.0,42.0,69.0,0,11,120.0,11.0,9.0,42.0,F#,69.0
10290,104952.0,Note Off,0,9.0,42.0,69.0,0,11,,,,,,
10291,105020.0,Note On,0,9.0,42.0,31.0,0,11,52.0,11.0,9.0,42.0,F#,31.0
10292,105072.0,Note Off,0,9.0,42.0,31.0,0,11,,,,,,
10293,105148.0,Note Off,0,9.0,49.0,64.0,0,11,,,,,,
10294,105216.0,Note On,0,9.0,38.0,73.0,0,11,756.0,2.0,0.0,37.0,C#,92.0
10295,105216.0,Note On,0,9.0,38.0,73.0,0,11,732.0,2.0,0.0,61.0,c#',96.0
10296,105216.0,Note On,0,9.0,38.0,73.0,0,11,748.0,3.0,1.0,25.0,"C#,",82.0
10297,105216.0,Note On,0,9.0,38.0,73.0,0,11,756.0,4.0,2.0,65.0,f',64.0
10298,105216.0,Note On,0,9.0,38.0,73.0,0,11,240.0,11.0,9.0,38.0,D,73.0
10299,105216.0,Note On,0,9.0,38.0,73.0,0,11,112.0,11.0,9.0,42.0,F#,75.0
10300,105216.0,Note On,0,9.0,42.0,75.0,0,11,756.0,2.0,0.0,37.0,C#,92.0
10301,105216.0,Note On,0,9.0,42.0,75.0,0,11,732.0,2.0,0.0,61.0,c#',96.0
10302,105216.0,Note On,0,9.0,42.0,75.0,0,11,748.0,3.0,1.0,25.0,"C#,",82.0
10303,105216.0,Note On,0,9.0,42.0,75.0,0,11,756.0,4.0,2.0,65.0,f',64.0
10304,105216.0,Note On,0,9.0,42.0,75.0,0,11,240.0,11.0,9.0,38.0,D,73.0
10305,105216.0,Note On,0,9.0,42.0,75.0,0,11,112.0,11.0,9.0,42.0,F#,75.0
10306,105328.0,Note Off,0,9.0,42.0,75.0,0,11,,,,,,
10307,105404.0,Note On,0,9.0,42.0,23.0,0,11,56.0,11.0,9.0,42.0,F#,23.0
10308,105408.0,Note On,0,9.0,80.0,36.0,0,11,60.0,11.0,9.0,80.0,g#'',36.0
10309,105456.0,Note Off,0,9.0,38.0,73.0,0,11,,,,,,
10310,105460.0,Note Off,0,9.0,42.0,23.0,0,11,,,,,,
10311,105468.0,Note Off,0,9.0,80.0,36.0,0,11,,,,,,
10312,105600.0,Note On,0,9.0,42.0,72.0,0,11,368.0,2.0,0.0,53.0,f,83.0
10313,105600.0,Note On,0,9.0,42.0,72.0,0,11,140.0,11.0,9.0,42.0,F#,72.0
10314,105600.0,Note On,0,9.0,42.0,72.0,0,11,60.0,11.0,9.0,80.0,g#'',36.0
10315,105600.0,Note On,0,9.0,80.0,36.0,0,11,368.0,2.0,0.0,53.0,f,83.0
10316,105600.0,Note On,0,9.0,80.0,36.0,0,11,140.0,11.0,9.0,42.0,F#,72.0
10317,105600.0,Note On,0,9.0,80.0,36.0,0,11,60.0,11.0,9.0,80.0,g#'',36.0
10318,105660.0,Note Off,0,9.0,80.0,36.0,0,11,,,,,,
10319,105740.0,Note Off,0,9.0,42.0,72.0,0,11,,,,,,
10320,105792.0,Note On,0,9.0,35.0,64.0,0,11,96.0,11.0,9.0,35.0,"B,",64.0
10321,105792.0,Note On,0,9.0,35.0,64.0,0,11,52.0,11.0,9.0,42.0,F#,48.0
10322,105792.0,Note On,0,9.0,35.0,64.0,0,11,352.0,11.0,9.0,81.0,a'',52.0
10323,105792.0,Note On,0,9.0,42.0,48.0,0,11,96.0,11.0,9.0,35.0,"B,",64.0
10324,105792.0,Note On,0,9.0,42.0,48.0,0,11,52.0,11.0,9.0,42.0,F#,48.0
10325,105792.0,Note On,0,9.0,42.0,48.0,0,11,352.0,11.0,9.0,81.0,a'',52.0
10326,105792.0,Note On,0,9.0,81.0,52.0,0,11,96.0,11.0,9.0,35.0,"B,",64.0
10327,105792.0,Note On,0,9.0,81.0,52.0,0,11,52.0,11.0,9.0,42.0,F#,48.0
10328,105792.0,Note On,0,9.0,81.0,52.0,0,11,352.0,11.0,9.0,81.0,a'',52.0
10329,105844.0,Note Off,0,9.0,42.0,48.0,0,11,,,,,,
10330,105888.0,Note Off,0,9.0,35.0,64.0,0,11,,,,,,
10331,105984.0,Note On,0,9.0,35.0,82.0,0,11,168.0,2.0,0.0,59.0,b,74.0
10332,105984.0,Note On,0,9.0,35.0,82.0,0,11,548.0,3.0,1.0,30.0,"F#,",82.0
10333,105984.0,Note On,0,9.0,35.0,82.0,0,11,96.0,11.0,9.0,35.0,"B,",82.0
10334,105984.0,Note On,0,9.0,35.0,82.0,0,11,108.0,11.0,9.0,42.0,F#,72.0
10335,105984.0,Note On,0,9.0,42.0,72.0,0,11,168.0,2.0,0.0,59.0,b,74.0
10336,105984.0,Note On,0,9.0,42.0,72.0,0,11,548.0,3.0,1.0,30.0,"F#,",82.0
10337,105984.0,Note On,0,9.0,42.0,72.0,0,11,96.0,11.0,9.0,35.0,"B,",82.0
10338,105984.0,Note On,0,9.0,42.0,72.0,0,11,108.0,11.0,9.0,42.0,F#,72.0
10339,106080.0,Note Off,0,9.0,35.0,82.0,0,11,,,,,,
10340,106092.0,Note Off,0,9.0,42.0,72.0,0,11,,,,,,
10341,106144.0,Note Off,0,9.0,81.0,52.0,0,11,,,,,,
10342,106172.0,Note On,0,9.0,42.0,23.0,0,11,196.0,9.0,7.0,78.0,f#'',69.0
10343,106172.0,Note On,0,9.0,42.0,23.0,0,11,44.0,11.0,9.0,42.0,F#,23.0
10344,106216.0,Note Off,0,9.0,42.0,23.0,0,11,,,,,,
10345,106368.0,Note On,0,9.0,42.0,69.0,0,11,120.0,11.0,9.0,42.0,F#,69.0
10346,106488.0,Note Off,0,9.0,42.0,69.0,0,11,,,,,,
10347,106556.0,Note On,0,9.0,42.0,34.0,0,11,52.0,11.0,9.0,42.0,F#,34.0
10348,106608.0,Note Off,0,9.0,42.0,34.0,0,11,,,,,,
10349,106752.0,Note On,0,9.0,38.0,73.0,0,11,744.0,3.0,1.0,28.0,"E,",82.0
10350,106752.0,Note On,0,9.0,38.0,73.0,0,11,364.0,9.0,7.0,81.0,a'',73.0
10351,106752.0,Note On,0,9.0,38.0,73.0,0,11,240.0,11.0,9.0,38.0,D,73.0
10352,106752.0,Note On,0,9.0,38.0,73.0,0,11,112.0,11.0,9.0,42.0,F#,75.0
10353,106752.0,Note On,0,9.0,38.0,73.0,0,11,96.0,11.0,9.0,54.0,f#,91.0
10354,106752.0,Note On,0,9.0,42.0,75.0,0,11,744.0,3.0,1.0,28.0,"E,",82.0
10355,106752.0,Note On,0,9.0,42.0,75.0,0,11,364.0,9.0,7.0,81.0,a'',73.0
10356,106752.0,Note On,0,9.0,42.0,75.0,0,11,240.0,11.0,9.0,38.0,D,73.0
10357,106752.0,Note On,0,9.0,42.0,75.0,0,11,112.0,11.0,9.0,42.0,F#,75.0
10358,106752.0,Note On,0,9.0,42.0,75.0,0,11,96.0,11.0,9.0,54.0,f#,91.0
10359,106752.0,Note On,0,9.0,54.0,91.0,0,11,744.0,3.0,1.0,28.0,"E,",82.0
10360,106752.0,Note On,0,9.0,54.0,91.0,0,11,364.0,9.0,7.0,81.0,a'',73.0
10361,106752.0,Note On,0,9.0,54.0,91.0,0,11,240.0,11.0,9.0,38.0,D,73.0
10362,106752.0,Note On,0,9.0,54.0,91.0,0,11,112.0,11.0,9.0,42.0,F#,75.0
10363,106752.0,Note On,0,9.0,54.0,91.0,0,11,96.0,11.0,9.0,54.0,f#,91.0
10364,106848.0,Note Off,0,9.0,54.0,91.0,0,11,,,,,,
10365,106864.0,Note Off,0,9.0,42.0,75.0,0,11,,,,,,
10366,106940.0,Note On,0,9.0,42.0,23.0,0,11,56.0,11.0,9.0,42.0,F#,23.0
10367,106944.0,Note On,0,9.0,80.0,36.0,0,11,60.0,11.0,9.0,80.0,g#'',36.0
10368,106992.0,Note Off,0,9.0,38.0,73.0,0,11,,,,,,
10369,106996.0,Note Off,0,9.0,42.0,23.0,0,11,,,,,,
10370,107004.0,Note Off,0,9.0,80.0,36.0,0,11,,,,,,
10371,107136.0,Note On,0,9.0,42.0,72.0,0,11,140.0,11.0,9.0,42.0,F#,72.0
10372,107136.0,Note On,0,9.0,42.0,72.0,0,11,60.0,11.0,9.0,80.0,g#'',36.0
10373,107136.0,Note On,0,9.0,80.0,36.0,0,11,140.0,11.0,9.0,42.0,F#,72.0
10374,107136.0,Note On,0,9.0,80.0,36.0,0,11,60.0,11.0,9.0,80.0,g#'',36.0
10375,107196.0,Note Off,0,9.0,80.0,36.0,0,11,,,,,,
10376,107276.0,Note Off,0,9.0,42.0,72.0,0,11,,,,,,
10377,107324.0,Note On,0,9.0,42.0,31.0,0,11,380.0,6.0,4.0,79.0,g'',90.0
10378,107324.0,Note On,0,9.0,42.0,31.0,0,11,56.0,11.0,9.0,42.0,F#,31.0
10379,107328.0,Note On,0,9.0,81.0,52.0,0,11,352.0,11.0,9.0,81.0,a'',52.0
10380,107380.0,Note Off,0,9.0,42.0,31.0,0,11,,,,,,
10381,107520.0,Note On,0,9.0,35.0,82.0,0,11,740.0,2.0,0.0,62.0,d',101.0
10382,107520.0,Note On,0,9.0,35.0,82.0,0,11,536.0,3.0,1.0,33.0,"A,",82.0
10383,107520.0,Note On,0,9.0,35.0,82.0,0,11,1552.0,4.0,2.0,74.0,d'',52.0
10384,107520.0,Note On,0,9.0,35.0,82.0,0,11,1548.0,9.0,7.0,81.0,a'',82.0
10385,107520.0,Note On,0,9.0,35.0,82.0,0,11,96.0,11.0,9.0,35.0,"B,",82.0
10386,107520.0,Note On,0,9.0,35.0,82.0,0,11,108.0,11.0,9.0,42.0,F#,72.0
10387,107520.0,Note On,0,9.0,42.0,72.0,0,11,740.0,2.0,0.0,62.0,d',101.0
10388,107520.0,Note On,0,9.0,42.0,72.0,0,11,536.0,3.0,1.0,33.0,"A,",82.0
10389,107520.0,Note On,0,9.0,42.0,72.0,0,11,1552.0,4.0,2.0,74.0,d'',52.0
10390,107520.0,Note On,0,9.0,42.0,72.0,0,11,1548.0,9.0,7.0,81.0,a'',82.0
10391,107520.0,Note On,0,9.0,42.0,72.0,0,11,96.0,11.0,9.0,35.0,"B,",82.0
10392,107520.0,Note On,0,9.0,42.0,72.0,0,11,108.0,11.0,9.0,42.0,F#,72.0
10393,107616.0,Note Off,0,9.0,35.0,82.0,0,11,,,,,,
10394,107628.0,Note Off,0,9.0,42.0,72.0,0,11,,,,,,
10395,107680.0,Note Off,0,9.0,81.0,52.0,0,11,,,,,,
10396,107708.0,Note On,0,9.0,42.0,26.0,0,11,44.0,11.0,9.0,42.0,F#,26.0
10397,107752.0,Note Off,0,9.0,42.0,26.0,0,11,,,,,,
10398,107904.0,Note On,0,9.0,42.0,69.0,0,11,120.0,11.0,9.0,42.0,F#,69.0
10399,108024.0,Note Off,0,9.0,42.0,69.0,0,11,,,,,,
10400,108092.0,Note On,0,9.0,42.0,31.0,0,11,176.0,6.0,4.0,76.0,e'',73.0
10401,108092.0,Note On,0,9.0,42.0,31.0,0,11,52.0,11.0,9.0,42.0,F#,31.0
10402,108144.0,Note Off,0,9.0,42.0,31.0,0,11,,,,,,
10403,108288.0,Note On,0,9.0,38.0,73.0,0,11,692.0,2.0,0.0,45.0,A,62.0
10404,108288.0,Note On,0,9.0,38.0,73.0,0,11,708.0,2.0,0.0,59.0,b,58.0
10405,108288.0,Note On,0,9.0,38.0,73.0,0,11,716.0,2.0,0.0,62.0,d',101.0
10406,108288.0,Note On,0,9.0,38.0,73.0,0,11,720.0,2.0,0.0,66.0,f#',92.0
10407,108288.0,Note On,0,9.0,38.0,73.0,0,11,336.0,3.0,1.0,33.0,"A,",83.0
10408,108288.0,Note On,0,9.0,38.0,73.0,0,11,112.0,6.0,4.0,81.0,a'',84.0
10409,108288.0,Note On,0,9.0,38.0,73.0,0,11,240.0,11.0,9.0,38.0,D,73.0
10410,108288.0,Note On,0,9.0,38.0,73.0,0,11,112.0,11.0,9.0,42.0,F#,75.0
10411,108288.0,Note On,0,9.0,42.0,75.0,0,11,692.0,2.0,0.0,45.0,A,62.0
10412,108288.0,Note On,0,9.0,42.0,75.0,0,11,708.0,2.0,0.0,59.0,b,58.0
10413,108288.0,Note On,0,9.0,42.0,75.0,0,11,716.0,2.0,0.0,62.0,d',101.0
10414,108288.0,Note On,0,9.0,42.0,75.0,0,11,720.0,2.0,0.0,66.0,f#',92.0
10415,108288.0,Note On,0,9.0,42.0,75.0,0,11,336.0,3.0,1.0,33.0,"A,",83.0
10416,108288.0,Note On,0,9.0,42.0,75.0,0,11,112.0,6.0,4.0,81.0,a'',84.0
10417,108288.0,Note On,0,9.0,42.0,75.0,0,11,240.0,11.0,9.0,38.0,D,73.0
10418,108288.0,Note On,0,9.0,42.0,75.0,0,11,112.0,11.0,9.0,42.0,F#,75.0
10419,108400.0,Note Off,0,9.0,42.0,75.0,0,11,,,,,,
10420,108476.0,Note On,0,9.0,42.0,23.0,0,11,56.0,11.0,9.0,42.0,F#,23.0
10421,108480.0,Note On,0,9.0,80.0,36.0,0,11,60.0,11.0,9.0,80.0,g#'',36.0
10422,108528.0,Note Off,0,9.0,38.0,73.0,0,11,,,,,,
10423,108532.0,Note Off,0,9.0,42.0,23.0,0,11,,,,,,
10424,108540.0,Note Off,0,9.0,80.0,36.0,0,11,,,,,,
10425,108672.0,Note On,0,9.0,42.0,72.0,0,11,336.0,3.0,1.0,33.0,"A,",83.0
10426,108672.0,Note On,0,9.0,42.0,72.0,0,11,140.0,11.0,9.0,42.0,F#,72.0
10427,108672.0,Note On,0,9.0,42.0,72.0,0,11,60.0,11.0,9.0,80.0,g#'',36.0
10428,108672.0,Note On,0,9.0,80.0,36.0,0,11,336.0,3.0,1.0,33.0,"A,",83.0
10429,108672.0,Note On,0,9.0,80.0,36.0,0,11,140.0,11.0,9.0,42.0,F#,72.0
10430,108672.0,Note On,0,9.0,80.0,36.0,0,11,60.0,11.0,9.0,80.0,g#'',36.0
10431,108732.0,Note Off,0,9.0,80.0,36.0,0,11,,,,,,
10432,108812.0,Note Off,0,9.0,42.0,72.0,0,11,,,,,,
10433,108864.0,Note On,0,9.0,35.0,66.0,0,11,96.0,11.0,9.0,35.0,"B,",66.0
10434,108864.0,Note On,0,9.0,35.0,66.0,0,11,52.0,11.0,9.0,42.0,F#,48.0
10435,108864.0,Note On,0,9.0,35.0,66.0,0,11,352.0,11.0,9.0,81.0,a'',52.0
10436,108864.0,Note On,0,9.0,42.0,48.0,0,11,96.0,11.0,9.0,35.0,"B,",66.0
10437,108864.0,Note On,0,9.0,42.0,48.0,0,11,52.0,11.0,9.0,42.0,F#,48.0
10438,108864.0,Note On,0,9.0,42.0,48.0,0,11,352.0,11.0,9.0,81.0,a'',52.0
10439,108864.0,Note On,0,9.0,81.0,52.0,0,11,96.0,11.0,9.0,35.0,"B,",66.0
10440,108864.0,Note On,0,9.0,81.0,52.0,0,11,52.0,11.0,9.0,42.0,F#,48.0
10441,108864.0,Note On,0,9.0,81.0,52.0,0,11,352.0,11.0,9.0,81.0,a'',52.0
10442,108916.0,Note Off,0,9.0,42.0,48.0,0,11,,,,,,
10443,108960.0,Note Off,0,9.0,35.0,66.0,0,11,96.0,11.0,9.0,35.0,"B,",81.0
10444,108960.0,Note On,0,9.0,35.0,81.0,0,11,96.0,11.0,9.0,35.0,"B,",81.0
10445,109044.0,Note On,0,9.0,38.0,55.0,0,11,116.0,2.0,0.0,59.0,b,101.0
10446,109044.0,Note On,0,9.0,38.0,55.0,0,11,120.0,2.0,0.0,62.0,d',101.0
10447,109044.0,Note On,0,9.0,38.0,55.0,0,11,124.0,2.0,0.0,64.0,e',92.0
10448,109044.0,Note On,0,9.0,38.0,55.0,0,11,112.0,2.0,0.0,69.0,a',62.0
10449,109044.0,Note On,0,9.0,38.0,55.0,0,11,16.0,11.0,9.0,38.0,D,55.0
10450,109056.0,Note Off,0,9.0,35.0,81.0,0,11,148.0,3.0,1.0,33.0,"A,",82.0
10451,109060.0,Note On,0,9.0,38.0,78.0,0,11,0.0,11.0,9.0,38.0,D,78.0
10452,109076.0,Note Off,0,9.0,38.0,55.0,0,11,,,,,,
10453,109076.0,Note Off,0,9.0,38.0,0.0,0,11,,,,,,
10454,109216.0,Note Off,0,9.0,81.0,52.0,0,11,,,,,,
10455,109632.0,Note On,0,9.0,38.0,58.0,0,11,168.0,5.0,3.0,66.0,f#',64.0
10456,109632.0,Note On,0,9.0,38.0,58.0,0,11,80.0,11.0,9.0,38.0,D,58.0
10457,109712.0,Note Off,0,9.0,38.0,58.0,0,11,,,,,,
10458,109824.0,Note On,0,9.0,38.0,78.0,0,11,740.0,2.0,0.0,50.0,d,92.0
10459,109824.0,Note On,0,9.0,38.0,78.0,0,11,360.0,2.0,0.0,59.0,b,83.0
10460,109824.0,Note On,0,9.0,38.0,78.0,0,11,344.0,2.0,0.0,67.0,g',86.0
10461,109824.0,Note On,0,9.0,38.0,78.0,0,11,80.0,11.0,9.0,38.0,D,78.0
10462,109904.0,Note Off,0,9.0,38.0,78.0,0,11,,,,,,
10463,110080.0,Note On,0,9.0,47.0,64.0,0,11,96.0,11.0,9.0,47.0,B,64.0
10464,110176.0,Note Off,0,9.0,47.0,64.0,0,11,,,,,,
10465,110336.0,Note On,0,9.0,45.0,64.0,0,11,140.0,11.0,9.0,45.0,A,64.0
10466,110476.0,Note Off,0,9.0,45.0,64.0,0,11,,,,,,
10467,110592.0,Note On,0,9.0,35.0,82.0,0,11,740.0,2.0,0.0,61.0,c#',101.0
10468,110592.0,Note On,0,9.0,35.0,82.0,0,11,732.0,2.0,0.0,64.0,e',92.0
10469,110592.0,Note On,0,9.0,35.0,82.0,0,11,716.0,3.0,1.0,30.0,"F#,",82.0
10470,110592.0,Note On,0,9.0,35.0,82.0,0,11,1868.0,5.0,3.0,69.0,a',82.0
10471,110592.0,Note On,0,9.0,35.0,82.0,0,11,800.0,9.0,7.0,81.0,a'',78.0
10472,110592.0,Note On,0,9.0,35.0,82.0,0,11,96.0,11.0,9.0,35.0,"B,",82.0
10473,110592.0,Note On,0,9.0,35.0,82.0,0,11,700.0,11.0,9.0,49.0,c#,64.0
10474,110592.0,Note On,0,9.0,49.0,64.0,0,11,740.0,2.0,0.0,61.0,c#',101.0
10475,110592.0,Note On,0,9.0,49.0,64.0,0,11,732.0,2.0,0.0,64.0,e',92.0
10476,110592.0,Note On,0,9.0,49.0,64.0,0,11,716.0,3.0,1.0,30.0,"F#,",82.0
10477,110592.0,Note On,0,9.0,49.0,64.0,0,11,1868.0,5.0,3.0,69.0,a',82.0
10478,110592.0,Note On,0,9.0,49.0,64.0,0,11,800.0,9.0,7.0,81.0,a'',78.0
10479,110592.0,Note On,0,9.0,49.0,64.0,0,11,96.0,11.0,9.0,35.0,"B,",82.0
10480,110592.0,Note On,0,9.0,49.0,64.0,0,11,700.0,11.0,9.0,49.0,c#,64.0
10481,110688.0,Note Off,0,9.0,35.0,82.0,0,11,,,,,,
10482,110780.0,Note On,0,9.0,42.0,30.0,0,11,44.0,11.0,9.0,42.0,F#,30.0
10483,110824.0,Note Off,0,9.0,42.0,30.0,0,11,,,,,,
10484,110976.0,Note On,0,9.0,42.0,69.0,0,11,120.0,11.0,9.0,42.0,F#,69.0
10485,111096.0,Note Off,0,9.0,42.0,69.0,0,11,,,,,,
10486,111164.0,Note On,0,9.0,42.0,31.0,0,11,52.0,11.0,9.0,42.0,F#,31.0
10487,111216.0,Note Off,0,9.0,42.0,31.0,0,11,,,,,,
10488,111292.0,Note Off,0,9.0,49.0,64.0,0,11,,,,,,
10489,111360.0,Note On,0,9.0,38.0,73.0,0,11,548.0,3.0,1.0,37.0,C#,82.0
10490,111360.0,Note On,0,9.0,38.0,73.0,0,11,240.0,11.0,9.0,38.0,D,73.0
10491,111360.0,Note On,0,9.0,38.0,73.0,0,11,112.0,11.0,9.0,42.0,F#,75.0
10492,111360.0,Note On,0,9.0,42.0,75.0,0,11,548.0,3.0,1.0,37.0,C#,82.0
10493,111360.0,Note On,0,9.0,42.0,75.0,0,11,240.0,11.0,9.0,38.0,D,73.0
10494,111360.0,Note On,0,9.0,42.0,75.0,0,11,112.0,11.0,9.0,42.0,F#,75.0
10495,111472.0,Note Off,0,9.0,42.0,75.0,0,11,,,,,,
10496,111548.0,Note On,0,9.0,42.0,31.0,0,11,56.0,11.0,9.0,42.0,F#,31.0
10497,111600.0,Note Off,0,9.0,38.0,73.0,0,11,,,,,,
10498,111604.0,Note Off,0,9.0,42.0,31.0,0,11,,,,,,
10499,111744.0,Note On,0,9.0,42.0,72.0,0,11,140.0,11.0,9.0,42.0,F#,72.0
10500,111884.0,Note Off,0,9.0,42.0,72.0,0,11,,,,,,
10501,111936.0,Note On,0,9.0,35.0,64.0,0,11,148.0,3.0,1.0,37.0,C#,64.0
10502,111936.0,Note On,0,9.0,35.0,64.0,0,11,96.0,11.0,9.0,35.0,"B,",64.0
10503,111936.0,Note On,0,9.0,35.0,64.0,0,11,52.0,11.0,9.0,42.0,F#,48.0
10504,111936.0,Note On,0,9.0,42.0,48.0,0,11,148.0,3.0,1.0,37.0,C#,64.0
10505,111936.0,Note On,0,9.0,42.0,48.0,0,11,96.0,11.0,9.0,35.0,"B,",64.0
10506,111936.0,Note On,0,9.0,42.0,48.0,0,11,52.0,11.0,9.0,42.0,F#,48.0
10507,111988.0,Note Off,0,9.0,42.0,48.0,0,11,,,,,,
10508,112032.0,Note Off,0,9.0,35.0,64.0,0,11,,,,,,
10509,112128.0,Note On,0,9.0,35.0,82.0,0,11,1512.0,3.0,1.0,38.0,D,82.0
10510,112128.0,Note On,0,9.0,35.0,82.0,0,11,96.0,11.0,9.0,35.0,"B,",82.0
10511,112128.0,Note On,0,9.0,35.0,82.0,0,11,108.0,11.0,9.0,42.0,F#,72.0
10512,112128.0,Note On,0,9.0,42.0,72.0,0,11,1512.0,3.0,1.0,38.0,D,82.0
10513,112128.0,Note On,0,9.0,42.0,72.0,0,11,96.0,11.0,9.0,35.0,"B,",82.0
10514,112128.0,Note On,0,9.0,42.0,72.0,0,11,108.0,11.0,9.0,42.0,F#,72.0
10515,112224.0,Note Off,0,9.0,35.0,82.0,0,11,,,,,,
10516,112236.0,Note Off,0,9.0,42.0,72.0,0,11,,,,,,
10517,112316.0,Note On,0,9.0,42.0,23.0,0,11,44.0,11.0,9.0,42.0,F#,23.0
10518,112360.0,Note Off,0,9.0,42.0,23.0,0,11,,,,,,
10519,112512.0,Note On,0,9.0,42.0,69.0,0,11,120.0,11.0,9.0,42.0,F#,69.0
10520,112632.0,Note Off,0,9.0,42.0,69.0,0,11,,,,,,
10521,112700.0,Note On,0,9.0,42.0,31.0,0,11,52.0,11.0,9.0,42.0,F#,31.0
10522,112752.0,Note Off,0,9.0,42.0,31.0,0,11,,,,,,
10523,112896.0,Note On,0,9.0,38.0,73.0,0,11,240.0,11.0,9.0,38.0,D,73.0
10524,112896.0,Note On,0,9.0,38.0,73.0,0,11,112.0,11.0,9.0,42.0,F#,75.0
10525,112896.0,Note On,0,9.0,38.0,73.0,0,11,96.0,11.0,9.0,54.0,f#,91.0
10526,112896.0,Note On,0,9.0,42.0,75.0,0,11,240.0,11.0,9.0,38.0,D,73.0
10527,112896.0,Note On,0,9.0,42.0,75.0,0,11,112.0,11.0,9.0,42.0,F#,75.0
10528,112896.0,Note On,0,9.0,42.0,75.0,0,11,96.0,11.0,9.0,54.0,f#,91.0
10529,112896.0,Note On,0,9.0,54.0,91.0,0,11,240.0,11.0,9.0,38.0,D,73.0
10530,112896.0,Note On,0,9.0,54.0,91.0,0,11,112.0,11.0,9.0,42.0,F#,75.0
10531,112896.0,Note On,0,9.0,54.0,91.0,0,11,96.0,11.0,9.0,54.0,f#,91.0
10532,112992.0,Note Off,0,9.0,54.0,91.0,0,11,,,,,,
10533,113008.0,Note Off,0,9.0,42.0,75.0,0,11,,,,,,
10534,113084.0,Note On,0,9.0,42.0,23.0,0,11,56.0,11.0,9.0,42.0,F#,23.0
10535,113136.0,Note Off,0,9.0,38.0,73.0,0,11,,,,,,
10536,113140.0,Note Off,0,9.0,42.0,23.0,0,11,,,,,,
10537,113280.0,Note On,0,9.0,42.0,72.0,0,11,140.0,11.0,9.0,42.0,F#,72.0
10538,113420.0,Note Off,0,9.0,42.0,72.0,0,11,,,,,,
10539,113468.0,Note On,0,9.0,42.0,34.0,0,11,56.0,11.0,9.0,42.0,F#,34.0
10540,113524.0,Note Off,0,9.0,42.0,34.0,0,11,,,,,,
10541,113664.0,Note On,0,9.0,35.0,82.0,0,11,708.0,3.0,1.0,37.0,C#,82.0
10542,113664.0,Note On,0,9.0,35.0,82.0,0,11,96.0,11.0,9.0,35.0,"B,",82.0
10543,113664.0,Note On,0,9.0,35.0,82.0,0,11,108.0,11.0,9.0,42.0,F#,72.0
10544,113664.0,Note On,0,9.0,42.0,72.0,0,11,708.0,3.0,1.0,37.0,C#,82.0
10545,113664.0,Note On,0,9.0,42.0,72.0,0,11,96.0,11.0,9.0,35.0,"B,",82.0
10546,113664.0,Note On,0,9.0,42.0,72.0,0,11,108.0,11.0,9.0,42.0,F#,72.0
10547,113760.0,Note Off,0,9.0,35.0,82.0,0,11,,,,,,
10548,113772.0,Note Off,0,9.0,42.0,72.0,0,11,,,,,,
10549,113852.0,Note On,0,9.0,42.0,26.0,0,11,44.0,11.0,9.0,42.0,F#,26.0
10550,113896.0,Note Off,0,9.0,42.0,26.0,0,11,,,,,,
10551,114048.0,Note On,0,9.0,42.0,69.0,0,11,120.0,11.0,9.0,42.0,F#,69.0
10552,114168.0,Note Off,0,9.0,42.0,69.0,0,11,,,,,,
10553,114236.0,Note On,0,9.0,42.0,31.0,0,11,568.0,5.0,3.0,67.0,g',90.0
10554,114236.0,Note On,0,9.0,42.0,31.0,0,11,52.0,11.0,9.0,42.0,F#,31.0
10555,114288.0,Note Off,0,9.0,42.0,31.0,0,11,,,,,,
10556,114432.0,Note On,0,9.0,38.0,73.0,0,11,512.0,3.0,1.0,37.0,C#,82.0
10557,114432.0,Note On,0,9.0,38.0,73.0,0,11,240.0,11.0,9.0,38.0,D,73.0
10558,114432.0,Note On,0,9.0,38.0,73.0,0,11,112.0,11.0,9.0,42.0,F#,75.0
10559,114432.0,Note On,0,9.0,42.0,75.0,0,11,512.0,3.0,1.0,37.0,C#,82.0
10560,114432.0,Note On,0,9.0,42.0,75.0,0,11,240.0,11.0,9.0,38.0,D,73.0
10561,114432.0,Note On,0,9.0,42.0,75.0,0,11,112.0,11.0,9.0,42.0,F#,75.0
10562,114544.0,Note Off,0,9.0,42.0,75.0,0,11,,,,,,
10563,114620.0,Note On,0,9.0,42.0,23.0,0,11,56.0,11.0,9.0,42.0,F#,23.0
10564,114672.0,Note Off,0,9.0,38.0,73.0,0,11,,,,,,
10565,114676.0,Note Off,0,9.0,42.0,23.0,0,11,,,,,,
10566,114816.0,Note On,0,9.0,42.0,72.0,0,11,140.0,11.0,9.0,42.0,F#,72.0
10567,114956.0,Note Off,0,9.0,42.0,72.0,0,11,,,,,,
10568,115008.0,Note On,0,9.0,35.0,64.0,0,11,148.0,3.0,1.0,33.0,"A,",64.0
10569,115008.0,Note On,0,9.0,35.0,64.0,0,11,96.0,11.0,9.0,35.0,"B,",64.0
10570,115008.0,Note On,0,9.0,35.0,64.0,0,11,52.0,11.0,9.0,42.0,F#,48.0
10571,115008.0,Note On,0,9.0,42.0,48.0,0,11,148.0,3.0,1.0,33.0,"A,",64.0
10572,115008.0,Note On,0,9.0,42.0,48.0,0,11,96.0,11.0,9.0,35.0,"B,",64.0
10573,115008.0,Note On,0,9.0,42.0,48.0,0,11,52.0,11.0,9.0,42.0,F#,48.0
10574,115060.0,Note Off,0,9.0,42.0,48.0,0,11,,,,,,
10575,115104.0,Note Off,0,9.0,35.0,64.0,0,11,,,,,,
10576,115200.0,Note On,0,9.0,35.0,82.0,0,11,744.0,2.0,0.0,50.0,d,92.0
10577,115200.0,Note On,0,9.0,35.0,82.0,0,11,728.0,2.0,0.0,57.0,a,74.0
10578,115200.0,Note On,0,9.0,35.0,82.0,0,11,724.0,3.0,1.0,38.0,D,82.0
10579,115200.0,Note On,0,9.0,35.0,82.0,0,11,96.0,11.0,9.0,35.0,"B,",82.0
10580,115200.0,Note On,0,9.0,35.0,82.0,0,11,108.0,11.0,9.0,42.0,F#,72.0
10581,115200.0,Note On,0,9.0,42.0,72.0,0,11,744.0,2.0,0.0,50.0,d,92.0
10582,115200.0,Note On,0,9.0,42.0,72.0,0,11,728.0,2.0,0.0,57.0,a,74.0
10583,115200.0,Note On,0,9.0,42.0,72.0,0,11,724.0,3.0,1.0,38.0,D,82.0
10584,115200.0,Note On,0,9.0,42.0,72.0,0,11,96.0,11.0,9.0,35.0,"B,",82.0
10585,115200.0,Note On,0,9.0,42.0,72.0,0,11,108.0,11.0,9.0,42.0,F#,72.0
10586,115296.0,Note Off,0,9.0,35.0,82.0,0,11,,,,,,
10587,115308.0,Note Off,0,9.0,42.0,72.0,0,11,,,,,,
10588,115388.0,Note On,0,9.0,42.0,23.0,0,11,44.0,11.0,9.0,42.0,F#,23.0
10589,115432.0,Note Off,0,9.0,42.0,23.0,0,11,,,,,,
10590,115584.0,Note On,0,9.0,42.0,69.0,0,11,120.0,11.0,9.0,42.0,F#,69.0
10591,115704.0,Note Off,0,9.0,42.0,69.0,0,11,,,,,,
10592,115772.0,Note On,0,9.0,42.0,34.0,0,11,924.0,2.0,0.0,62.0,d',62.0
10593,115772.0,Note On,0,9.0,42.0,34.0,0,11,52.0,11.0,9.0,42.0,F#,34.0
10594,115824.0,Note Off,0,9.0,42.0,34.0,0,11,,,,,,
10595,115968.0,Note On,0,9.0,38.0,73.0,0,11,228.0,3.0,1.0,26.0,"D,",82.0
10596,115968.0,Note On,0,9.0,38.0,73.0,0,11,240.0,11.0,9.0,38.0,D,73.0
10597,115968.0,Note On,0,9.0,38.0,73.0,0,11,112.0,11.0,9.0,42.0,F#,75.0
10598,115968.0,Note On,0,9.0,38.0,73.0,0,11,96.0,11.0,9.0,54.0,f#,91.0
10599,115968.0,Note On,0,9.0,42.0,75.0,0,11,228.0,3.0,1.0,26.0,"D,",82.0
10600,115968.0,Note On,0,9.0,42.0,75.0,0,11,240.0,11.0,9.0,38.0,D,73.0
10601,115968.0,Note On,0,9.0,42.0,75.0,0,11,112.0,11.0,9.0,42.0,F#,75.0
10602,115968.0,Note On,0,9.0,42.0,75.0,0,11,96.0,11.0,9.0,54.0,f#,91.0
10603,115968.0,Note On,0,9.0,54.0,91.0,0,11,228.0,3.0,1.0,26.0,"D,",82.0
10604,115968.0,Note On,0,9.0,54.0,91.0,0,11,240.0,11.0,9.0,38.0,D,73.0
10605,115968.0,Note On,0,9.0,54.0,91.0,0,11,112.0,11.0,9.0,42.0,F#,75.0
10606,115968.0,Note On,0,9.0,54.0,91.0,0,11,96.0,11.0,9.0,54.0,f#,91.0
10607,116064.0,Note Off,0,9.0,54.0,91.0,0,11,,,,,,
10608,116080.0,Note Off,0,9.0,42.0,75.0,0,11,,,,,,
10609,116156.0,Note On,0,9.0,42.0,23.0,0,11,56.0,11.0,9.0,42.0,F#,23.0
10610,116208.0,Note Off,0,9.0,38.0,73.0,0,11,,,,,,
10611,116212.0,Note Off,0,9.0,42.0,23.0,0,11,,,,,,
10612,116352.0,Note On,0,9.0,42.0,72.0,0,11,140.0,11.0,9.0,42.0,F#,72.0
10613,116492.0,Note Off,0,9.0,42.0,72.0,0,11,,,,,,
10614,116540.0,Note On,0,9.0,42.0,31.0,0,11,56.0,11.0,9.0,42.0,F#,31.0
10615,116596.0,Note Off,0,9.0,42.0,31.0,0,11,,,,,,
10616,116736.0,Note On,0,9.0,35.0,82.0,0,11,540.0,3.0,1.0,31.0,"G,",82.0
10617,116736.0,Note On,0,9.0,35.0,82.0,0,11,96.0,11.0,9.0,35.0,"B,",82.0
10618,116736.0,Note On,0,9.0,35.0,82.0,0,11,108.0,11.0,9.0,42.0,F#,72.0
10619,116736.0,Note On,0,9.0,42.0,72.0,0,11,540.0,3.0,1.0,31.0,"G,",82.0
10620,116736.0,Note On,0,9.0,42.0,72.0,0,11,96.0,11.0,9.0,35.0,"B,",82.0
10621,116736.0,Note On,0,9.0,42.0,72.0,0,11,108.0,11.0,9.0,42.0,F#,72.0
10622,116832.0,Note Off,0,9.0,35.0,82.0,0,11,,,,,,
10623,116844.0,Note Off,0,9.0,42.0,72.0,0,11,,,,,,
10624,116924.0,Note On,0,9.0,42.0,26.0,0,11,44.0,11.0,9.0,42.0,F#,26.0
10625,116968.0,Note Off,0,9.0,42.0,26.0,0,11,,,,,,
10626,117120.0,Note On,0,9.0,42.0,69.0,0,11,120.0,11.0,9.0,42.0,F#,69.0
10627,117240.0,Note Off,0,9.0,42.0,69.0,0,11,,,,,,
10628,117308.0,Note On,0,9.0,42.0,31.0,0,11,52.0,11.0,9.0,42.0,F#,31.0
10629,117360.0,Note Off,0,9.0,42.0,31.0,0,11,,,,,,
10630,117504.0,Note On,0,9.0,38.0,73.0,0,11,536.0,3.0,1.0,30.0,"F#,",82.0
10631,117504.0,Note On,0,9.0,38.0,73.0,0,11,240.0,11.0,9.0,38.0,D,73.0
10632,117504.0,Note On,0,9.0,38.0,73.0,0,11,112.0,11.0,9.0,42.0,F#,75.0
10633,117504.0,Note On,0,9.0,42.0,75.0,0,11,536.0,3.0,1.0,30.0,"F#,",82.0
10634,117504.0,Note On,0,9.0,42.0,75.0,0,11,240.0,11.0,9.0,38.0,D,73.0
10635,117504.0,Note On,0,9.0,42.0,75.0,0,11,112.0,11.0,9.0,42.0,F#,75.0
10636,117616.0,Note Off,0,9.0,42.0,75.0,0,11,,,,,,
10637,117692.0,Note On,0,9.0,42.0,23.0,0,11,56.0,11.0,9.0,42.0,F#,23.0
10638,117744.0,Note Off,0,9.0,38.0,73.0,0,11,,,,,,
10639,117748.0,Note Off,0,9.0,42.0,23.0,0,11,,,,,,
10640,117888.0,Note On,0,9.0,42.0,72.0,0,11,140.0,11.0,9.0,42.0,F#,72.0
10641,118028.0,Note Off,0,9.0,42.0,72.0,0,11,,,,,,
10642,118080.0,Note On,0,9.0,35.0,64.0,0,11,148.0,3.0,1.0,30.0,"F#,",64.0
10643,118080.0,Note On,0,9.0,35.0,64.0,0,11,96.0,11.0,9.0,35.0,"B,",64.0
10644,118080.0,Note On,0,9.0,35.0,64.0,0,11,52.0,11.0,9.0,42.0,F#,48.0
10645,118080.0,Note On,0,9.0,42.0,48.0,0,11,148.0,3.0,1.0,30.0,"F#,",64.0
10646,118080.0,Note On,0,9.0,42.0,48.0,0,11,96.0,11.0,9.0,35.0,"B,",64.0
10647,118080.0,Note On,0,9.0,42.0,48.0,0,11,52.0,11.0,9.0,42.0,F#,48.0
10648,118132.0,Note Off,0,9.0,42.0,48.0,0,11,,,,,,
10649,118176.0,Note Off,0,9.0,35.0,64.0,0,11,,,,,,
10650,118272.0,Note On,0,9.0,35.0,82.0,0,11,328.0,2.0,0.0,69.0,a',83.0
10651,118272.0,Note On,0,9.0,35.0,82.0,0,11,300.0,2.0,0.0,73.0,c#'',96.0
10652,118272.0,Note On,0,9.0,35.0,82.0,0,11,540.0,3.0,1.0,31.0,"G,",82.0
10653,118272.0,Note On,0,9.0,35.0,82.0,0,11,96.0,11.0,9.0,35.0,"B,",82.0
10654,118272.0,Note On,0,9.0,35.0,82.0,0,11,108.0,11.0,9.0,42.0,F#,72.0
10655,118272.0,Note On,0,9.0,42.0,72.0,0,11,328.0,2.0,0.0,69.0,a',83.0
10656,118272.0,Note On,0,9.0,42.0,72.0,0,11,300.0,2.0,0.0,73.0,c#'',96.0
10657,118272.0,Note On,0,9.0,42.0,72.0,0,11,540.0,3.0,1.0,31.0,"G,",82.0
10658,118272.0,Note On,0,9.0,42.0,72.0,0,11,96.0,11.0,9.0,35.0,"B,",82.0
10659,118272.0,Note On,0,9.0,42.0,72.0,0,11,108.0,11.0,9.0,42.0,F#,72.0
10660,118368.0,Note Off,0,9.0,35.0,82.0,0,11,,,,,,
10661,118380.0,Note Off,0,9.0,42.0,72.0,0,11,,,,,,
10662,118460.0,Note On,0,9.0,42.0,23.0,0,11,276.0,2.0,0.0,62.0,d',58.0
10663,118460.0,Note On,0,9.0,42.0,23.0,0,11,44.0,11.0,9.0,42.0,F#,23.0
10664,118504.0,Note Off,0,9.0,42.0,23.0,0,11,,,,,,
10665,118656.0,Note On,0,9.0,42.0,69.0,0,11,120.0,11.0,9.0,42.0,F#,69.0
10666,118776.0,Note Off,0,9.0,42.0,69.0,0,11,,,,,,
10667,118844.0,Note On,0,9.0,42.0,34.0,0,11,52.0,11.0,9.0,42.0,F#,34.0
10668,118896.0,Note Off,0,9.0,42.0,34.0,0,11,,,,,,
10669,119040.0,Note On,0,9.0,38.0,73.0,0,11,520.0,3.0,1.0,30.0,"F#,",82.0
10670,119040.0,Note On,0,9.0,38.0,73.0,0,11,240.0,11.0,9.0,38.0,D,73.0
10671,119040.0,Note On,0,9.0,38.0,73.0,0,11,112.0,11.0,9.0,42.0,F#,75.0
10672,119040.0,Note On,0,9.0,38.0,73.0,0,11,96.0,11.0,9.0,54.0,f#,91.0
10673,119040.0,Note On,0,9.0,42.0,75.0,0,11,520.0,3.0,1.0,30.0,"F#,",82.0
10674,119040.0,Note On,0,9.0,42.0,75.0,0,11,240.0,11.0,9.0,38.0,D,73.0
10675,119040.0,Note On,0,9.0,42.0,75.0,0,11,112.0,11.0,9.0,42.0,F#,75.0
10676,119040.0,Note On,0,9.0,42.0,75.0,0,11,96.0,11.0,9.0,54.0,f#,91.0
10677,119040.0,Note On,0,9.0,54.0,91.0,0,11,520.0,3.0,1.0,30.0,"F#,",82.0
10678,119040.0,Note On,0,9.0,54.0,91.0,0,11,240.0,11.0,9.0,38.0,D,73.0
10679,119040.0,Note On,0,9.0,54.0,91.0,0,11,112.0,11.0,9.0,42.0,F#,75.0
10680,119040.0,Note On,0,9.0,54.0,91.0,0,11,96.0,11.0,9.0,54.0,f#,91.0
10681,119136.0,Note Off,0,9.0,54.0,91.0,0,11,,,,,,
10682,119152.0,Note Off,0,9.0,42.0,75.0,0,11,,,,,,
10683,119228.0,Note On,0,9.0,42.0,23.0,0,11,56.0,11.0,9.0,42.0,F#,23.0
10684,119280.0,Note Off,0,9.0,38.0,73.0,0,11,,,,,,
10685,119284.0,Note Off,0,9.0,42.0,23.0,0,11,,,,,,
10686,119424.0,Note On,0,9.0,42.0,72.0,0,11,140.0,11.0,9.0,42.0,F#,72.0
10687,119564.0,Note Off,0,9.0,42.0,72.0,0,11,,,,,,
10688,119612.0,Note On,0,9.0,42.0,31.0,0,11,180.0,5.0,3.0,73.0,c#'',64.0
10689,119612.0,Note On,0,9.0,42.0,31.0,0,11,56.0,11.0,9.0,42.0,F#,31.0
10690,119668.0,Note Off,0,9.0,42.0,31.0,0,11,,,,,,
10691,119808.0,Note On,0,9.0,35.0,82.0,0,11,696.0,3.0,1.0,35.0,"B,",82.0
10692,119808.0,Note On,0,9.0,35.0,82.0,0,11,524.0,5.0,3.0,74.0,d'',82.0
10693,119808.0,Note On,0,9.0,35.0,82.0,0,11,96.0,11.0,9.0,35.0,"B,",82.0
10694,119808.0,Note On,0,9.0,35.0,82.0,0,11,20.0,11.0,9.0,49.0,c#,64.0
10695,119808.0,Note On,0,9.0,49.0,64.0,0,11,696.0,3.0,1.0,35.0,"B,",82.0
10696,119808.0,Note On,0,9.0,49.0,64.0,0,11,524.0,5.0,3.0,74.0,d'',82.0
10697,119808.0,Note On,0,9.0,49.0,64.0,0,11,96.0,11.0,9.0,35.0,"B,",82.0
10698,119808.0,Note On,0,9.0,49.0,64.0,0,11,20.0,11.0,9.0,49.0,c#,64.0
10699,119828.0,Note Off,0,9.0,49.0,64.0,0,11,,,,,,
10700,119904.0,Note Off,0,9.0,35.0,82.0,0,11,,,,,,
10701,119996.0,Note On,0,9.0,42.0,26.0,0,11,44.0,11.0,9.0,42.0,F#,26.0
10702,120040.0,Note Off,0,9.0,42.0,26.0,0,11,,,,,,
10703,120192.0,Note On,0,9.0,42.0,69.0,0,11,120.0,11.0,9.0,42.0,F#,69.0
10704,120312.0,Note Off,0,9.0,42.0,69.0,0,11,,,,,,
10705,120380.0,Note On,0,9.0,42.0,31.0,0,11,52.0,11.0,9.0,42.0,F#,31.0
10706,120432.0,Note Off,0,9.0,42.0,31.0,0,11,,,,,,
10707,120576.0,Note On,0,9.0,38.0,73.0,0,11,520.0,3.0,1.0,28.0,"E,",82.0
10708,120576.0,Note On,0,9.0,38.0,73.0,0,11,240.0,11.0,9.0,38.0,D,73.0
10709,120576.0,Note On,0,9.0,38.0,73.0,0,11,20.0,11.0,9.0,57.0,a,64.0
10710,120576.0,Note On,0,9.0,57.0,64.0,0,11,520.0,3.0,1.0,28.0,"E,",82.0
10711,120576.0,Note On,0,9.0,57.0,64.0,0,11,240.0,11.0,9.0,38.0,D,73.0
10712,120576.0,Note On,0,9.0,57.0,64.0,0,11,20.0,11.0,9.0,57.0,a,64.0
10713,120596.0,Note Off,0,9.0,57.0,64.0,0,11,,,,,,
10714,120764.0,Note On,0,9.0,42.0,23.0,0,11,56.0,11.0,9.0,42.0,F#,23.0
10715,120816.0,Note Off,0,9.0,38.0,73.0,0,11,,,,,,
10716,120820.0,Note Off,0,9.0,42.0,23.0,0,11,,,,,,
10717,120960.0,Note On,0,9.0,42.0,72.0,0,11,140.0,11.0,9.0,42.0,F#,72.0
10718,121100.0,Note Off,0,9.0,42.0,72.0,0,11,,,,,,
10719,121152.0,Note On,0,9.0,35.0,64.0,0,11,160.0,2.0,0.0,47.0,B,82.0
10720,121152.0,Note On,0,9.0,35.0,64.0,0,11,192.0,3.0,1.0,28.0,"E,",73.0
10721,121152.0,Note On,0,9.0,35.0,64.0,0,11,164.0,5.0,3.0,69.0,a',73.0
10722,121152.0,Note On,0,9.0,35.0,64.0,0,11,96.0,11.0,9.0,35.0,"B,",64.0
10723,121152.0,Note On,0,9.0,35.0,64.0,0,11,52.0,11.0,9.0,42.0,F#,48.0
10724,121152.0,Note On,0,9.0,42.0,48.0,0,11,160.0,2.0,0.0,47.0,B,82.0
10725,121152.0,Note On,0,9.0,42.0,48.0,0,11,192.0,3.0,1.0,28.0,"E,",73.0
10726,121152.0,Note On,0,9.0,42.0,48.0,0,11,164.0,5.0,3.0,69.0,a',73.0
10727,121152.0,Note On,0,9.0,42.0,48.0,0,11,96.0,11.0,9.0,35.0,"B,",64.0
10728,121152.0,Note On,0,9.0,42.0,48.0,0,11,52.0,11.0,9.0,42.0,F#,48.0
10729,121204.0,Note Off,0,9.0,42.0,48.0,0,11,,,,,,
10730,121248.0,Note Off,0,9.0,35.0,64.0,0,11,,,,,,
10731,121344.0,Note On,0,9.0,35.0,82.0,0,11,1460.0,3.0,1.0,33.0,"A,",82.0
10732,121344.0,Note On,0,9.0,35.0,82.0,0,11,516.0,5.0,3.0,69.0,a',91.0
10733,121344.0,Note On,0,9.0,35.0,82.0,0,11,96.0,11.0,9.0,35.0,"B,",82.0
10734,121344.0,Note On,0,9.0,35.0,82.0,0,11,20.0,11.0,9.0,49.0,c#,64.0
10735,121344.0,Note On,0,9.0,49.0,64.0,0,11,1460.0,3.0,1.0,33.0,"A,",82.0
10736,121344.0,Note On,0,9.0,49.0,64.0,0,11,516.0,5.0,3.0,69.0,a',91.0
10737,121344.0,Note On,0,9.0,49.0,64.0,0,11,96.0,11.0,9.0,35.0,"B,",82.0
10738,121344.0,Note On,0,9.0,49.0,64.0,0,11,20.0,11.0,9.0,49.0,c#,64.0
10739,121364.0,Note Off,0,9.0,49.0,64.0,0,11,,,,,,
10740,121440.0,Note Off,0,9.0,35.0,82.0,0,11,,,,,,
10741,121532.0,Note On,0,9.0,42.0,48.0,0,11,56.0,11.0,9.0,42.0,F#,48.0
10742,121588.0,Note Off,0,9.0,42.0,48.0,0,11,,,,,,
10743,121728.0,Note On,0,9.0,42.0,75.0,0,11,112.0,11.0,9.0,42.0,F#,75.0
10744,121728.0,Note On,0,9.0,42.0,75.0,0,11,1036.0,15.0,13.0,72.0,c'',31.0
10745,121840.0,Note Off,0,9.0,42.0,75.0,0,11,,,,,,
10746,121920.0,Note On,0,9.0,35.0,78.0,0,11,144.0,5.0,3.0,66.0,f#',56.0
10747,121920.0,Note On,0,9.0,35.0,78.0,0,11,96.0,11.0,9.0,35.0,"B,",78.0
10748,121920.0,Note On,0,9.0,35.0,78.0,0,11,80.0,11.0,9.0,38.0,D,61.0
10749,121920.0,Note On,0,9.0,38.0,61.0,0,11,144.0,5.0,3.0,66.0,f#',56.0
10750,121920.0,Note On,0,9.0,38.0,61.0,0,11,96.0,11.0,9.0,35.0,"B,",78.0
10751,121920.0,Note On,0,9.0,38.0,61.0,0,11,80.0,11.0,9.0,38.0,D,61.0
10752,122000.0,Note Off,0,9.0,38.0,61.0,0,11,,,,,,
10753,122016.0,Note Off,0,9.0,35.0,78.0,0,11,,,,,,
10754,122112.0,Note On,0,9.0,35.0,82.0,0,11,172.0,2.0,0.0,45.0,A,83.0
10755,122112.0,Note On,0,9.0,35.0,82.0,0,11,376.0,5.0,3.0,67.0,g',87.0
10756,122112.0,Note On,0,9.0,35.0,82.0,0,11,96.0,11.0,9.0,35.0,"B,",82.0
10757,122112.0,Note On,0,9.0,35.0,82.0,0,11,80.0,11.0,9.0,38.0,D,81.0
10758,122112.0,Note On,0,9.0,35.0,82.0,0,11,96.0,11.0,9.0,54.0,f#,91.0
10759,122112.0,Note On,0,9.0,38.0,81.0,0,11,172.0,2.0,0.0,45.0,A,83.0
10760,122112.0,Note On,0,9.0,38.0,81.0,0,11,376.0,5.0,3.0,67.0,g',87.0
10761,122112.0,Note On,0,9.0,38.0,81.0,0,11,96.0,11.0,9.0,35.0,"B,",82.0
10762,122112.0,Note On,0,9.0,38.0,81.0,0,11,80.0,11.0,9.0,38.0,D,81.0
10763,122112.0,Note On,0,9.0,38.0,81.0,0,11,96.0,11.0,9.0,54.0,f#,91.0
10764,122112.0,Note On,0,9.0,54.0,91.0,0,11,172.0,2.0,0.0,45.0,A,83.0
10765,122112.0,Note On,0,9.0,54.0,91.0,0,11,376.0,5.0,3.0,67.0,g',87.0
10766,122112.0,Note On,0,9.0,54.0,91.0,0,11,96.0,11.0,9.0,35.0,"B,",82.0
10767,122112.0,Note On,0,9.0,54.0,91.0,0,11,80.0,11.0,9.0,38.0,D,81.0
10768,122112.0,Note On,0,9.0,54.0,91.0,0,11,96.0,11.0,9.0,54.0,f#,91.0
10769,122192.0,Note Off,0,9.0,38.0,81.0,0,11,,,,,,
10770,122208.0,Note Off,0,9.0,54.0,91.0,0,11,,,,,,
10771,122208.0,Note Off,0,9.0,35.0,82.0,0,11,,,,,,
10772,122304.0,Note On,0,9.0,45.0,73.0,0,11,84.0,11.0,9.0,45.0,A,73.0
10773,122388.0,Note Off,0,9.0,45.0,73.0,0,11,,,,,,
10774,122496.0,Note On,0,9.0,43.0,82.0,0,11,332.0,5.0,3.0,71.0,b',82.0
10775,122496.0,Note On,0,9.0,43.0,82.0,0,11,196.0,11.0,9.0,43.0,G,82.0
10776,122688.0,Note On,0,9.0,35.0,64.0,0,11,96.0,11.0,9.0,35.0,"B,",64.0
10777,122688.0,Note On,0,9.0,35.0,64.0,0,11,48.0,11.0,9.0,46.0,A#,58.0
10778,122688.0,Note On,0,9.0,46.0,58.0,0,11,96.0,11.0,9.0,35.0,"B,",64.0
10779,122688.0,Note On,0,9.0,46.0,58.0,0,11,48.0,11.0,9.0,46.0,A#,58.0
10780,122692.0,Note Off,0,9.0,43.0,82.0,0,11,,,,,,
10781,122736.0,Note Off,0,9.0,46.0,58.0,0,11,,,,,,
10782,122784.0,Note Off,0,9.0,35.0,64.0,0,11,52.0,7.0,5.0,78.0,f#'',58.0
10783,122880.0,Note On,0,9.0,35.0,82.0,0,11,312.0,2.0,0.0,61.0,c#',92.0
10784,122880.0,Note On,0,9.0,35.0,82.0,0,11,340.0,2.0,0.0,69.0,a',95.0
10785,122880.0,Note On,0,9.0,35.0,82.0,0,11,96.0,11.0,9.0,35.0,"B,",82.0
10786,122880.0,Note On,0,9.0,35.0,82.0,0,11,40.0,11.0,9.0,44.0,G#,30.0
10787,122880.0,Note On,0,9.0,35.0,82.0,0,11,700.0,11.0,9.0,49.0,c#,64.0
10788,122880.0,Note On,0,9.0,44.0,30.0,0,11,312.0,2.0,0.0,61.0,c#',92.0
10789,122880.0,Note On,0,9.0,44.0,30.0,0,11,340.0,2.0,0.0,69.0,a',95.0
10790,122880.0,Note On,0,9.0,44.0,30.0,0,11,96.0,11.0,9.0,35.0,"B,",82.0
10791,122880.0,Note On,0,9.0,44.0,30.0,0,11,40.0,11.0,9.0,44.0,G#,30.0
10792,122880.0,Note On,0,9.0,44.0,30.0,0,11,700.0,11.0,9.0,49.0,c#,64.0
10793,122880.0,Note On,0,9.0,49.0,64.0,0,11,312.0,2.0,0.0,61.0,c#',92.0
10794,122880.0,Note On,0,9.0,49.0,64.0,0,11,340.0,2.0,0.0,69.0,a',95.0
10795,122880.0,Note On,0,9.0,49.0,64.0,0,11,96.0,11.0,9.0,35.0,"B,",82.0
10796,122880.0,Note On,0,9.0,49.0,64.0,0,11,40.0,11.0,9.0,44.0,G#,30.0
10797,122880.0,Note On,0,9.0,49.0,64.0,0,11,700.0,11.0,9.0,49.0,c#,64.0
10798,122920.0,Note Off,0,9.0,44.0,30.0,0,11,,,,,,
10799,122976.0,Note Off,0,9.0,35.0,82.0,0,11,,,,,,
10800,123068.0,Note On,0,9.0,42.0,30.0,0,11,44.0,11.0,9.0,42.0,F#,30.0
10801,123112.0,Note Off,0,9.0,42.0,30.0,0,11,,,,,,
10802,123264.0,Note On,0,9.0,42.0,69.0,0,11,192.0,2.0,0.0,61.0,c#',66.0
10803,123264.0,Note On,0,9.0,42.0,69.0,0,11,120.0,11.0,9.0,42.0,F#,69.0
10804,123384.0,Note Off,0,9.0,42.0,69.0,0,11,,,,,,
10805,123452.0,Note On,0,9.0,42.0,31.0,0,11,52.0,11.0,9.0,42.0,F#,31.0
10806,123504.0,Note Off,0,9.0,42.0,31.0,0,11,,,,,,
10807,123580.0,Note Off,0,9.0,49.0,64.0,0,11,,,,,,
10808,123648.0,Note On,0,9.0,38.0,73.0,0,11,360.0,2.0,0.0,61.0,c#',92.0
10809,123648.0,Note On,0,9.0,38.0,73.0,0,11,548.0,3.0,1.0,37.0,C#,82.0
10810,123648.0,Note On,0,9.0,38.0,73.0,0,11,240.0,11.0,9.0,38.0,D,73.0
10811,123648.0,Note On,0,9.0,38.0,73.0,0,11,112.0,11.0,9.0,42.0,F#,75.0
10812,123648.0,Note On,0,9.0,42.0,75.0,0,11,360.0,2.0,0.0,61.0,c#',92.0
10813,123648.0,Note On,0,9.0,42.0,75.0,0,11,548.0,3.0,1.0,37.0,C#,82.0
10814,123648.0,Note On,0,9.0,42.0,75.0,0,11,240.0,11.0,9.0,38.0,D,73.0
10815,123648.0,Note On,0,9.0,42.0,75.0,0,11,112.0,11.0,9.0,42.0,F#,75.0
10816,123760.0,Note Off,0,9.0,42.0,75.0,0,11,,,,,,
10817,123836.0,Note On,0,9.0,42.0,31.0,0,11,56.0,11.0,9.0,42.0,F#,31.0
10818,123888.0,Note Off,0,9.0,38.0,73.0,0,11,,,,,,
10819,123892.0,Note Off,0,9.0,42.0,31.0,0,11,,,,,,
10820,124032.0,Note On,0,9.0,42.0,72.0,0,11,140.0,11.0,9.0,42.0,F#,72.0
10821,124172.0,Note Off,0,9.0,42.0,72.0,0,11,,,,,,
10822,124224.0,Note On,0,9.0,35.0,64.0,0,11,176.0,2.0,0.0,49.0,c#,83.0
10823,124224.0,Note On,0,9.0,35.0,64.0,0,11,148.0,3.0,1.0,37.0,C#,64.0
10824,124224.0,Note On,0,9.0,35.0,64.0,0,11,96.0,11.0,9.0,35.0,"B,",64.0
10825,124224.0,Note On,0,9.0,35.0,64.0,0,11,52.0,11.0,9.0,42.0,F#,48.0
10826,124224.0,Note On,0,9.0,42.0,48.0,0,11,176.0,2.0,0.0,49.0,c#,83.0
10827,124224.0,Note On,0,9.0,42.0,48.0,0,11,148.0,3.0,1.0,37.0,C#,64.0
10828,124224.0,Note On,0,9.0,42.0,48.0,0,11,96.0,11.0,9.0,35.0,"B,",64.0
10829,124224.0,Note On,0,9.0,42.0,48.0,0,11,52.0,11.0,9.0,42.0,F#,48.0
10830,124276.0,Note Off,0,9.0,42.0,48.0,0,11,,,,,,
10831,124320.0,Note Off,0,9.0,35.0,64.0,0,11,,,,,,
10832,124416.0,Note On,0,9.0,35.0,82.0,0,11,732.0,3.0,1.0,38.0,D,82.0
10833,124416.0,Note On,0,9.0,35.0,82.0,0,11,96.0,11.0,9.0,35.0,"B,",82.0
10834,124416.0,Note On,0,9.0,35.0,82.0,0,11,108.0,11.0,9.0,42.0,F#,72.0
10835,124416.0,Note On,0,9.0,42.0,72.0,0,11,732.0,3.0,1.0,38.0,D,82.0
10836,124416.0,Note On,0,9.0,42.0,72.0,0,11,96.0,11.0,9.0,35.0,"B,",82.0
10837,124416.0,Note On,0,9.0,42.0,72.0,0,11,108.0,11.0,9.0,42.0,F#,72.0
10838,124512.0,Note Off,0,9.0,35.0,82.0,0,11,,,,,,
10839,124524.0,Note Off,0,9.0,42.0,72.0,0,11,,,,,,
10840,124604.0,Note On,0,9.0,42.0,23.0,0,11,44.0,11.0,9.0,42.0,F#,23.0
10841,124648.0,Note Off,0,9.0,42.0,23.0,0,11,,,,,,
10842,124800.0,Note On,0,9.0,42.0,69.0,0,11,120.0,11.0,9.0,42.0,F#,69.0
10843,124800.0,Note On,0,9.0,42.0,69.0,0,11,60.0,12.0,10.0,45.0,A,48.0
10844,124920.0,Note Off,0,9.0,42.0,69.0,0,11,,,,,,
10845,124988.0,Note On,0,9.0,42.0,31.0,0,11,912.0,2.0,0.0,50.0,d,92.0
10846,124988.0,Note On,0,9.0,42.0,31.0,0,11,52.0,11.0,9.0,42.0,F#,31.0
10847,125040.0,Note Off,0,9.0,42.0,31.0,0,11,,,,,,
10848,125184.0,Note On,0,9.0,38.0,73.0,0,11,344.0,3.0,1.0,38.0,D,86.0
10849,125184.0,Note On,0,9.0,38.0,73.0,0,11,240.0,11.0,9.0,38.0,D,73.0
10850,125184.0,Note On,0,9.0,38.0,73.0,0,11,112.0,11.0,9.0,42.0,F#,75.0
10851,125184.0,Note On,0,9.0,38.0,73.0,0,11,96.0,11.0,9.0,54.0,f#,91.0
10852,125184.0,Note On,0,9.0,42.0,75.0,0,11,344.0,3.0,1.0,38.0,D,86.0
10853,125184.0,Note On,0,9.0,42.0,75.0,0,11,240.0,11.0,9.0,38.0,D,73.0
10854,125184.0,Note On,0,9.0,42.0,75.0,0,11,112.0,11.0,9.0,42.0,F#,75.0
10855,125184.0,Note On,0,9.0,42.0,75.0,0,11,96.0,11.0,9.0,54.0,f#,91.0
10856,125184.0,Note On,0,9.0,54.0,91.0,0,11,344.0,3.0,1.0,38.0,D,86.0
10857,125184.0,Note On,0,9.0,54.0,91.0,0,11,240.0,11.0,9.0,38.0,D,73.0
10858,125184.0,Note On,0,9.0,54.0,91.0,0,11,112.0,11.0,9.0,42.0,F#,75.0
10859,125184.0,Note On,0,9.0,54.0,91.0,0,11,96.0,11.0,9.0,54.0,f#,91.0
10860,125280.0,Note Off,0,9.0,54.0,91.0,0,11,,,,,,
10861,125296.0,Note Off,0,9.0,42.0,75.0,0,11,,,,,,
10862,125372.0,Note On,0,9.0,42.0,23.0,0,11,56.0,11.0,9.0,42.0,F#,23.0
10863,125424.0,Note Off,0,9.0,38.0,73.0,0,11,,,,,,
10864,125428.0,Note Off,0,9.0,42.0,23.0,0,11,,,,,,
10865,125568.0,Note On,0,9.0,42.0,72.0,0,11,344.0,3.0,1.0,35.0,"B,",78.0
10866,125568.0,Note On,0,9.0,42.0,72.0,0,11,328.0,5.0,3.0,71.0,b',82.0
10867,125568.0,Note On,0,9.0,42.0,72.0,0,11,140.0,11.0,9.0,42.0,F#,72.0
10868,125708.0,Note Off,0,9.0,42.0,72.0,0,11,,,,,,
10869,125756.0,Note On,0,9.0,42.0,34.0,0,11,56.0,11.0,9.0,42.0,F#,34.0
10870,125812.0,Note Off,0,9.0,42.0,34.0,0,11,,,,,,
10871,125952.0,Note On,0,9.0,35.0,82.0,0,11,536.0,2.0,0.0,49.0,c#,91.0
10872,125952.0,Note On,0,9.0,35.0,82.0,0,11,548.0,3.0,1.0,37.0,C#,82.0
10873,125952.0,Note On,0,9.0,35.0,82.0,0,11,96.0,11.0,9.0,35.0,"B,",82.0
10874,125952.0,Note On,0,9.0,35.0,82.0,0,11,108.0,11.0,9.0,42.0,F#,72.0
10875,125952.0,Note On,0,9.0,42.0,72.0,0,11,536.0,2.0,0.0,49.0,c#,91.0
10876,125952.0,Note On,0,9.0,42.0,72.0,0,11,548.0,3.0,1.0,37.0,C#,82.0
10877,125952.0,Note On,0,9.0,42.0,72.0,0,11,96.0,11.0,9.0,35.0,"B,",82.0
10878,125952.0,Note On,0,9.0,42.0,72.0,0,11,108.0,11.0,9.0,42.0,F#,72.0
10879,126048.0,Note Off,0,9.0,35.0,82.0,0,11,,,,,,
10880,126060.0,Note Off,0,9.0,42.0,72.0,0,11,,,,,,
10881,126140.0,Note On,0,9.0,42.0,26.0,0,11,44.0,11.0,9.0,42.0,F#,26.0
10882,126184.0,Note Off,0,9.0,42.0,26.0,0,11,,,,,,
10883,126336.0,Note On,0,9.0,42.0,69.0,0,11,120.0,11.0,9.0,42.0,F#,69.0
10884,126456.0,Note Off,0,9.0,42.0,69.0,0,11,,,,,,
10885,126524.0,Note On,0,9.0,42.0,31.0,0,11,164.0,2.0,0.0,49.0,c#,80.0
10886,126524.0,Note On,0,9.0,42.0,31.0,0,11,52.0,11.0,9.0,42.0,F#,31.0
10887,126576.0,Note Off,0,9.0,42.0,31.0,0,11,,,,,,
10888,126720.0,Note On,0,9.0,38.0,73.0,0,11,384.0,2.0,0.0,46.0,A#,92.0
10889,126720.0,Note On,0,9.0,38.0,73.0,0,11,512.0,3.0,1.0,34.0,"A#,",82.0
10890,126720.0,Note On,0,9.0,38.0,73.0,0,11,240.0,11.0,9.0,38.0,D,73.0
10891,126720.0,Note On,0,9.0,38.0,73.0,0,11,112.0,11.0,9.0,42.0,F#,75.0
10892,126720.0,Note On,0,9.0,42.0,75.0,0,11,384.0,2.0,0.0,46.0,A#,92.0
10893,126720.0,Note On,0,9.0,42.0,75.0,0,11,512.0,3.0,1.0,34.0,"A#,",82.0
10894,126720.0,Note On,0,9.0,42.0,75.0,0,11,240.0,11.0,9.0,38.0,D,73.0
10895,126720.0,Note On,0,9.0,42.0,75.0,0,11,112.0,11.0,9.0,42.0,F#,75.0
10896,126832.0,Note Off,0,9.0,42.0,75.0,0,11,,,,,,
10897,126908.0,Note On,0,9.0,42.0,23.0,0,11,556.0,2.0,0.0,66.0,f#',70.0
10898,126908.0,Note On,0,9.0,42.0,23.0,0,11,56.0,11.0,9.0,42.0,F#,23.0
10899,126960.0,Note Off,0,9.0,38.0,73.0,0,11,,,,,,
10900,126964.0,Note Off,0,9.0,42.0,23.0,0,11,,,,,,
10901,127104.0,Note On,0,9.0,42.0,72.0,0,11,328.0,2.0,0.0,42.0,F#,92.0
10902,127104.0,Note On,0,9.0,42.0,72.0,0,11,140.0,11.0,9.0,42.0,F#,72.0
10903,127244.0,Note Off,0,9.0,42.0,72.0,0,11,,,,,,
10904,127296.0,Note On,0,9.0,35.0,64.0,0,11,148.0,3.0,1.0,30.0,"F#,",64.0
10905,127296.0,Note On,0,9.0,35.0,64.0,0,11,96.0,11.0,9.0,35.0,"B,",64.0
10906,127296.0,Note On,0,9.0,35.0,64.0,0,11,52.0,11.0,9.0,42.0,F#,48.0
10907,127296.0,Note On,0,9.0,42.0,48.0,0,11,148.0,3.0,1.0,30.0,"F#,",64.0
10908,127296.0,Note On,0,9.0,42.0,48.0,0,11,96.0,11.0,9.0,35.0,"B,",64.0
10909,127296.0,Note On,0,9.0,42.0,48.0,0,11,52.0,11.0,9.0,42.0,F#,48.0
10910,127348.0,Note Off,0,9.0,42.0,48.0,0,11,,,,,,
10911,127392.0,Note Off,0,9.0,35.0,64.0,0,11,,,,,,
10912,127488.0,Note On,0,9.0,35.0,82.0,0,11,724.0,3.0,1.0,35.0,"B,",82.0
10913,127488.0,Note On,0,9.0,35.0,82.0,0,11,96.0,11.0,9.0,35.0,"B,",82.0
10914,127488.0,Note On,0,9.0,35.0,82.0,0,11,108.0,11.0,9.0,42.0,F#,72.0
10915,127488.0,Note On,0,9.0,42.0,72.0,0,11,724.0,3.0,1.0,35.0,"B,",82.0
10916,127488.0,Note On,0,9.0,42.0,72.0,0,11,96.0,11.0,9.0,35.0,"B,",82.0
10917,127488.0,Note On,0,9.0,42.0,72.0,0,11,108.0,11.0,9.0,42.0,F#,72.0
10918,127584.0,Note Off,0,9.0,35.0,82.0,0,11,,,,,,
10919,127596.0,Note Off,0,9.0,42.0,72.0,0,11,,,,,,
10920,127676.0,Note On,0,9.0,42.0,23.0,0,11,44.0,11.0,9.0,42.0,F#,23.0
10921,127720.0,Note Off,0,9.0,42.0,23.0,0,11,,,,,,
10922,127872.0,Note On,0,9.0,42.0,69.0,0,11,120.0,11.0,9.0,42.0,F#,69.0
10923,127872.0,Note On,0,9.0,42.0,69.0,0,11,60.0,12.0,10.0,45.0,A,48.0
10924,127992.0,Note Off,0,9.0,42.0,69.0,0,11,,,,,,
10925,128060.0,Note On,0,9.0,42.0,34.0,0,11,52.0,11.0,9.0,42.0,F#,34.0
10926,128112.0,Note Off,0,9.0,42.0,34.0,0,11,,,,,,
10927,128256.0,Note On,0,9.0,38.0,73.0,0,11,668.0,3.0,1.0,33.0,"A,",82.0
10928,128256.0,Note On,0,9.0,38.0,73.0,0,11,240.0,11.0,9.0,38.0,D,73.0
10929,128256.0,Note On,0,9.0,38.0,73.0,0,11,112.0,11.0,9.0,42.0,F#,75.0
10930,128256.0,Note On,0,9.0,38.0,73.0,0,11,96.0,11.0,9.0,54.0,f#,91.0
10931,128256.0,Note On,0,9.0,42.0,75.0,0,11,668.0,3.0,1.0,33.0,"A,",82.0
10932,128256.0,Note On,0,9.0,42.0,75.0,0,11,240.0,11.0,9.0,38.0,D,73.0
10933,128256.0,Note On,0,9.0,42.0,75.0,0,11,112.0,11.0,9.0,42.0,F#,75.0
10934,128256.0,Note On,0,9.0,42.0,75.0,0,11,96.0,11.0,9.0,54.0,f#,91.0
10935,128256.0,Note On,0,9.0,54.0,91.0,0,11,668.0,3.0,1.0,33.0,"A,",82.0
10936,128256.0,Note On,0,9.0,54.0,91.0,0,11,240.0,11.0,9.0,38.0,D,73.0
10937,128256.0,Note On,0,9.0,54.0,91.0,0,11,112.0,11.0,9.0,42.0,F#,75.0
10938,128256.0,Note On,0,9.0,54.0,91.0,0,11,96.0,11.0,9.0,54.0,f#,91.0
10939,128352.0,Note Off,0,9.0,54.0,91.0,0,11,,,,,,
10940,128368.0,Note Off,0,9.0,42.0,75.0,0,11,,,,,,
10941,128444.0,Note On,0,9.0,42.0,23.0,0,11,56.0,11.0,9.0,42.0,F#,23.0
10942,128496.0,Note Off,0,9.0,38.0,73.0,0,11,,,,,,
10943,128500.0,Note Off,0,9.0,42.0,23.0,0,11,288.0,4.0,2.0,79.0,g'',64.0
10944,128640.0,Note On,0,9.0,42.0,72.0,0,11,140.0,11.0,9.0,42.0,F#,72.0
10945,128780.0,Note Off,0,9.0,42.0,72.0,0,11,,,,,,
10946,128828.0,Note On,0,9.0,42.0,31.0,0,11,56.0,11.0,9.0,42.0,F#,31.0
10947,128884.0,Note Off,0,9.0,42.0,31.0,0,11,,,,,,
10948,129024.0,Note On,0,9.0,35.0,82.0,0,11,540.0,3.0,1.0,31.0,"G,",82.0
10949,129024.0,Note On,0,9.0,35.0,82.0,0,11,96.0,11.0,9.0,35.0,"B,",82.0
10950,129024.0,Note On,0,9.0,35.0,82.0,0,11,80.0,11.0,9.0,49.0,c#,64.0
10951,129024.0,Note On,0,9.0,49.0,64.0,0,11,540.0,3.0,1.0,31.0,"G,",82.0
10952,129024.0,Note On,0,9.0,49.0,64.0,0,11,96.0,11.0,9.0,35.0,"B,",82.0
10953,129024.0,Note On,0,9.0,49.0,64.0,0,11,80.0,11.0,9.0,49.0,c#,64.0
10954,129104.0,Note Off,0,9.0,49.0,64.0,0,11,,,,,,
10955,129120.0,Note Off,0,9.0,35.0,82.0,0,11,,,,,,
10956,129212.0,Note On,0,9.0,42.0,26.0,0,11,44.0,11.0,9.0,42.0,F#,26.0
10957,129256.0,Note Off,0,9.0,42.0,26.0,0,11,,,,,,
10958,129408.0,Note On,0,9.0,42.0,69.0,0,11,120.0,11.0,9.0,42.0,F#,69.0
10959,129528.0,Note Off,0,9.0,42.0,69.0,0,11,,,,,,
10960,129596.0,Note On,0,9.0,42.0,31.0,0,11,52.0,11.0,9.0,42.0,F#,31.0
10961,129648.0,Note Off,0,9.0,42.0,31.0,0,11,,,,,,
10962,129792.0,Note On,0,9.0,38.0,73.0,0,11,536.0,3.0,1.0,30.0,"F#,",82.0
10963,129792.0,Note On,0,9.0,38.0,73.0,0,11,240.0,11.0,9.0,38.0,D,73.0
10964,129792.0,Note On,0,9.0,38.0,73.0,0,11,112.0,11.0,9.0,42.0,F#,75.0
10965,129792.0,Note On,0,9.0,42.0,75.0,0,11,536.0,3.0,1.0,30.0,"F#,",82.0
10966,129792.0,Note On,0,9.0,42.0,75.0,0,11,240.0,11.0,9.0,38.0,D,73.0
10967,129792.0,Note On,0,9.0,42.0,75.0,0,11,112.0,11.0,9.0,42.0,F#,75.0
10968,129904.0,Note Off,0,9.0,42.0,75.0,0,11,,,,,,
10969,129980.0,Note On,0,9.0,42.0,23.0,0,11,56.0,11.0,9.0,42.0,F#,23.0
10970,130032.0,Note Off,0,9.0,38.0,73.0,0,11,,,,,,
10971,130036.0,Note Off,0,9.0,42.0,23.0,0,11,,,,,,
10972,130176.0,Note On,0,9.0,42.0,72.0,0,11,140.0,11.0,9.0,42.0,F#,72.0
10973,130316.0,Note Off,0,9.0,42.0,72.0,0,11,,,,,,
10974,130368.0,Note On,0,9.0,35.0,64.0,0,11,148.0,3.0,1.0,30.0,"F#,",64.0
10975,130368.0,Note On,0,9.0,35.0,64.0,0,11,96.0,11.0,9.0,35.0,"B,",64.0
10976,130368.0,Note On,0,9.0,35.0,64.0,0,11,52.0,11.0,9.0,42.0,F#,48.0
10977,130368.0,Note On,0,9.0,35.0,64.0,0,11,80.0,11.0,9.0,52.0,e,49.0
10978,130368.0,Note On,0,9.0,42.0,48.0,0,11,148.0,3.0,1.0,30.0,"F#,",64.0
10979,130368.0,Note On,0,9.0,42.0,48.0,0,11,96.0,11.0,9.0,35.0,"B,",64.0
10980,130368.0,Note On,0,9.0,42.0,48.0,0,11,52.0,11.0,9.0,42.0,F#,48.0
10981,130368.0,Note On,0,9.0,42.0,48.0,0,11,80.0,11.0,9.0,52.0,e,49.0
10982,130368.0,Note On,0,9.0,52.0,49.0,0,11,148.0,3.0,1.0,30.0,"F#,",64.0
10983,130368.0,Note On,0,9.0,52.0,49.0,0,11,96.0,11.0,9.0,35.0,"B,",64.0
10984,130368.0,Note On,0,9.0,52.0,49.0,0,11,52.0,11.0,9.0,42.0,F#,48.0
10985,130368.0,Note On,0,9.0,52.0,49.0,0,11,80.0,11.0,9.0,52.0,e,49.0
10986,130420.0,Note Off,0,9.0,42.0,48.0,0,11,,,,,,
10987,130448.0,Note Off,0,9.0,52.0,49.0,0,11,,,,,,
10988,130464.0,Note Off,0,9.0,35.0,64.0,0,11,,,,,,
10989,130560.0,Note On,0,9.0,35.0,82.0,0,11,328.0,2.0,0.0,69.0,a',83.0
10990,130560.0,Note On,0,9.0,35.0,82.0,0,11,300.0,2.0,0.0,73.0,c#'',96.0
10991,130560.0,Note On,0,9.0,35.0,82.0,0,11,540.0,3.0,1.0,31.0,"G,",82.0
10992,130560.0,Note On,0,9.0,35.0,82.0,0,11,96.0,11.0,9.0,35.0,"B,",82.0
10993,130560.0,Note On,0,9.0,35.0,82.0,0,11,108.0,11.0,9.0,42.0,F#,72.0
10994,130560.0,Note On,0,9.0,35.0,82.0,0,11,80.0,11.0,9.0,52.0,e,64.0
10995,130560.0,Note On,0,9.0,42.0,72.0,0,11,328.0,2.0,0.0,69.0,a',83.0
10996,130560.0,Note On,0,9.0,42.0,72.0,0,11,300.0,2.0,0.0,73.0,c#'',96.0
10997,130560.0,Note On,0,9.0,42.0,72.0,0,11,540.0,3.0,1.0,31.0,"G,",82.0
10998,130560.0,Note On,0,9.0,42.0,72.0,0,11,96.0,11.0,9.0,35.0,"B,",82.0
10999,130560.0,Note On,0,9.0,42.0,72.0,0,11,108.0,11.0,9.0,42.0,F#,72.0
11000,130560.0,Note On,0,9.0,42.0,72.0,0,11,80.0,11.0,9.0,52.0,e,64.0
11001,130560.0,Note On,0,9.0,52.0,64.0,0,11,328.0,2.0,0.0,69.0,a',83.0
11002,130560.0,Note On,0,9.0,52.0,64.0,0,11,300.0,2.0,0.0,73.0,c#'',96.0
11003,130560.0,Note On,0,9.0,52.0,64.0,0,11,540.0,3.0,1.0,31.0,"G,",82.0
11004,130560.0,Note On,0,9.0,52.0,64.0,0,11,96.0,11.0,9.0,35.0,"B,",82.0
11005,130560.0,Note On,0,9.0,52.0,64.0,0,11,108.0,11.0,9.0,42.0,F#,72.0
11006,130560.0,Note On,0,9.0,52.0,64.0,0,11,80.0,11.0,9.0,52.0,e,64.0
11007,130640.0,Note Off,0,9.0,52.0,64.0,0,11,,,,,,
11008,130656.0,Note Off,0,9.0,35.0,82.0,0,11,,,,,,
11009,130668.0,Note Off,0,9.0,42.0,72.0,0,11,,,,,,
11010,130748.0,Note On,0,9.0,42.0,23.0,0,11,636.0,2.0,0.0,62.0,d',58.0
11011,130748.0,Note On,0,9.0,42.0,23.0,0,11,44.0,11.0,9.0,42.0,F#,23.0
11012,130792.0,Note Off,0,9.0,42.0,23.0,0,11,,,,,,
11013,130944.0,Note On,0,9.0,42.0,69.0,0,11,120.0,11.0,9.0,42.0,F#,69.0
11014,130944.0,Note On,0,9.0,42.0,69.0,0,11,60.0,12.0,10.0,45.0,A,48.0
11015,131064.0,Note Off,0,9.0,42.0,69.0,0,11,,,,,,
11016,131132.0,Note On,0,9.0,42.0,34.0,0,11,52.0,11.0,9.0,42.0,F#,34.0
11017,131184.0,Note Off,0,9.0,42.0,34.0,0,11,,,,,,
11018,131328.0,Note On,0,9.0,38.0,73.0,0,11,520.0,3.0,1.0,30.0,"F#,",82.0
11019,131328.0,Note On,0,9.0,38.0,73.0,0,11,240.0,11.0,9.0,38.0,D,73.0
11020,131328.0,Note On,0,9.0,38.0,73.0,0,11,112.0,11.0,9.0,42.0,F#,75.0
11021,131328.0,Note On,0,9.0,38.0,73.0,0,11,96.0,11.0,9.0,54.0,f#,91.0
11022,131328.0,Note On,0,9.0,42.0,75.0,0,11,520.0,3.0,1.0,30.0,"F#,",82.0
11023,131328.0,Note On,0,9.0,42.0,75.0,0,11,240.0,11.0,9.0,38.0,D,73.0
11024,131328.0,Note On,0,9.0,42.0,75.0,0,11,112.0,11.0,9.0,42.0,F#,75.0
11025,131328.0,Note On,0,9.0,42.0,75.0,0,11,96.0,11.0,9.0,54.0,f#,91.0
11026,131328.0,Note On,0,9.0,54.0,91.0,0,11,520.0,3.0,1.0,30.0,"F#,",82.0
11027,131328.0,Note On,0,9.0,54.0,91.0,0,11,240.0,11.0,9.0,38.0,D,73.0
11028,131328.0,Note On,0,9.0,54.0,91.0,0,11,112.0,11.0,9.0,42.0,F#,75.0
11029,131328.0,Note On,0,9.0,54.0,91.0,0,11,96.0,11.0,9.0,54.0,f#,91.0
11030,131424.0,Note Off,0,9.0,54.0,91.0,0,11,,,,,,
11031,131440.0,Note Off,0,9.0,42.0,75.0,0,11,,,,,,
11032,131516.0,Note On,0,9.0,42.0,23.0,0,11,56.0,11.0,9.0,42.0,F#,23.0
11033,131520.0,Note On,0,9.0,45.0,73.0,0,11,84.0,11.0,9.0,45.0,A,73.0
11034,131568.0,Note Off,0,9.0,38.0,73.0,0,11,,,,,,
11035,131572.0,Note Off,0,9.0,42.0,23.0,0,11,,,,,,
11036,131604.0,Note Off,0,9.0,45.0,73.0,0,11,,,,,,
11037,131712.0,Note On,0,9.0,42.0,72.0,0,11,140.0,11.0,9.0,42.0,F#,72.0
11038,131712.0,Note On,0,9.0,42.0,72.0,0,11,196.0,11.0,9.0,43.0,G,82.0
11039,131712.0,Note On,0,9.0,42.0,72.0,0,11,80.0,11.0,9.0,52.0,e,49.0
11040,131712.0,Note On,0,9.0,43.0,82.0,0,11,140.0,11.0,9.0,42.0,F#,72.0
11041,131712.0,Note On,0,9.0,43.0,82.0,0,11,196.0,11.0,9.0,43.0,G,82.0
11042,131712.0,Note On,0,9.0,43.0,82.0,0,11,80.0,11.0,9.0,52.0,e,49.0
11043,131712.0,Note On,0,9.0,52.0,49.0,0,11,140.0,11.0,9.0,42.0,F#,72.0
11044,131712.0,Note On,0,9.0,52.0,49.0,0,11,196.0,11.0,9.0,43.0,G,82.0
11045,131712.0,Note On,0,9.0,52.0,49.0,0,11,80.0,11.0,9.0,52.0,e,49.0
11046,131792.0,Note Off,0,9.0,52.0,49.0,0,11,,,,,,
11047,131852.0,Note Off,0,9.0,42.0,72.0,0,11,,,,,,
11048,131900.0,Note On,0,9.0,42.0,31.0,0,11,56.0,11.0,9.0,42.0,F#,31.0
11049,131908.0,Note Off,0,9.0,43.0,82.0,0,11,,,,,,
11050,131956.0,Note Off,0,9.0,42.0,31.0,0,11,,,,,,
11051,132096.0,Note On,0,9.0,35.0,82.0,0,11,756.0,2.0,0.0,69.0,a',101.0
11052,132096.0,Note On,0,9.0,35.0,82.0,0,11,696.0,3.0,1.0,31.0,"G,",82.0
11053,132096.0,Note On,0,9.0,35.0,82.0,0,11,96.0,11.0,9.0,35.0,"B,",82.0
11054,132096.0,Note On,0,9.0,35.0,82.0,0,11,108.0,11.0,9.0,42.0,F#,72.0
11055,132096.0,Note On,0,9.0,35.0,82.0,0,11,80.0,11.0,9.0,49.0,c#,64.0
11056,132096.0,Note On,0,9.0,42.0,72.0,0,11,756.0,2.0,0.0,69.0,a',101.0
11057,132096.0,Note On,0,9.0,42.0,72.0,0,11,696.0,3.0,1.0,31.0,"G,",82.0
11058,132096.0,Note On,0,9.0,42.0,72.0,0,11,96.0,11.0,9.0,35.0,"B,",82.0
11059,132096.0,Note On,0,9.0,42.0,72.0,0,11,108.0,11.0,9.0,42.0,F#,72.0
11060,132096.0,Note On,0,9.0,42.0,72.0,0,11,80.0,11.0,9.0,49.0,c#,64.0
11061,132096.0,Note On,0,9.0,49.0,64.0,0,11,756.0,2.0,0.0,69.0,a',101.0
11062,132096.0,Note On,0,9.0,49.0,64.0,0,11,696.0,3.0,1.0,31.0,"G,",82.0
11063,132096.0,Note On,0,9.0,49.0,64.0,0,11,96.0,11.0,9.0,35.0,"B,",82.0
11064,132096.0,Note On,0,9.0,49.0,64.0,0,11,108.0,11.0,9.0,42.0,F#,72.0
11065,132096.0,Note On,0,9.0,49.0,64.0,0,11,80.0,11.0,9.0,49.0,c#,64.0
11066,132176.0,Note Off,0,9.0,49.0,64.0,0,11,,,,,,
11067,132192.0,Note Off,0,9.0,35.0,82.0,0,11,,,,,,
11068,132204.0,Note Off,0,9.0,42.0,72.0,0,11,,,,,,
11069,132284.0,Note On,0,9.0,42.0,26.0,0,11,44.0,11.0,9.0,42.0,F#,26.0
11070,132328.0,Note Off,0,9.0,42.0,26.0,0,11,,,,,,
11071,132480.0,Note On,0,9.0,42.0,69.0,0,11,372.0,4.0,2.0,74.0,d'',48.0
11072,132480.0,Note On,0,9.0,42.0,69.0,0,11,120.0,11.0,9.0,42.0,F#,69.0
11073,132600.0,Note Off,0,9.0,42.0,69.0,0,11,,,,,,
11074,132668.0,Note On,0,9.0,42.0,31.0,0,11,52.0,11.0,9.0,42.0,F#,31.0
11075,132720.0,Note Off,0,9.0,42.0,31.0,0,11,,,,,,
11076,132864.0,Note On,0,9.0,38.0,73.0,0,11,316.0,3.0,1.0,30.0,"F#,",82.0
11077,132864.0,Note On,0,9.0,38.0,73.0,0,11,240.0,11.0,9.0,38.0,D,73.0
11078,132864.0,Note On,0,9.0,38.0,73.0,0,11,112.0,11.0,9.0,42.0,F#,75.0
11079,132864.0,Note On,0,9.0,42.0,75.0,0,11,316.0,3.0,1.0,30.0,"F#,",82.0
11080,132864.0,Note On,0,9.0,42.0,75.0,0,11,240.0,11.0,9.0,38.0,D,73.0
11081,132864.0,Note On,0,9.0,42.0,75.0,0,11,112.0,11.0,9.0,42.0,F#,75.0
11082,132976.0,Note Off,0,9.0,42.0,75.0,0,11,,,,,,
11083,133052.0,Note On,0,9.0,42.0,23.0,0,11,56.0,11.0,9.0,42.0,F#,23.0
11084,133104.0,Note Off,0,9.0,38.0,73.0,0,11,,,,,,
11085,133108.0,Note Off,0,9.0,42.0,23.0,0,11,,,,,,
11086,133248.0,Note On,0,9.0,42.0,72.0,0,11,376.0,2.0,0.0,62.0,d',74.0
11087,133248.0,Note On,0,9.0,42.0,72.0,0,11,316.0,3.0,1.0,26.0,"D,",82.0
11088,133248.0,Note On,0,9.0,42.0,72.0,0,11,140.0,11.0,9.0,42.0,F#,72.0
11089,133388.0,Note Off,0,9.0,42.0,72.0,0,11,,,,,,
11090,133440.0,Note On,0,9.0,35.0,64.0,0,11,96.0,11.0,9.0,35.0,"B,",64.0
11091,133440.0,Note On,0,9.0,35.0,64.0,0,11,52.0,11.0,9.0,42.0,F#,48.0
11092,133440.0,Note On,0,9.0,35.0,64.0,0,11,80.0,11.0,9.0,52.0,e,49.0
11093,133440.0,Note On,0,9.0,42.0,48.0,0,11,96.0,11.0,9.0,35.0,"B,",64.0
11094,133440.0,Note On,0,9.0,42.0,48.0,0,11,52.0,11.0,9.0,42.0,F#,48.0
11095,133440.0,Note On,0,9.0,42.0,48.0,0,11,80.0,11.0,9.0,52.0,e,49.0
11096,133440.0,Note On,0,9.0,52.0,49.0,0,11,96.0,11.0,9.0,35.0,"B,",64.0
11097,133440.0,Note On,0,9.0,52.0,49.0,0,11,52.0,11.0,9.0,42.0,F#,48.0
11098,133440.0,Note On,0,9.0,52.0,49.0,0,11,80.0,11.0,9.0,52.0,e,49.0
11099,133492.0,Note Off,0,9.0,42.0,48.0,0,11,,,,,,
11100,133520.0,Note Off,0,9.0,52.0,49.0,0,11,,,,,,
11101,133536.0,Note Off,0,9.0,35.0,64.0,0,11,,,,,,
11102,133632.0,Note On,0,9.0,35.0,82.0,0,11,756.0,2.0,0.0,61.0,c#',83.0
11103,133632.0,Note On,0,9.0,35.0,82.0,0,11,760.0,2.0,0.0,66.0,f#',84.0
11104,133632.0,Note On,0,9.0,35.0,82.0,0,11,720.0,3.0,1.0,34.0,"A#,",82.0
11105,133632.0,Note On,0,9.0,35.0,82.0,0,11,96.0,11.0,9.0,35.0,"B,",82.0
11106,133632.0,Note On,0,9.0,35.0,82.0,0,11,108.0,11.0,9.0,42.0,F#,72.0
11107,133632.0,Note On,0,9.0,35.0,82.0,0,11,80.0,11.0,9.0,52.0,e,64.0
11108,133632.0,Note On,0,9.0,42.0,72.0,0,11,756.0,2.0,0.0,61.0,c#',83.0
11109,133632.0,Note On,0,9.0,42.0,72.0,0,11,760.0,2.0,0.0,66.0,f#',84.0
11110,133632.0,Note On,0,9.0,42.0,72.0,0,11,720.0,3.0,1.0,34.0,"A#,",82.0
11111,133632.0,Note On,0,9.0,42.0,72.0,0,11,96.0,11.0,9.0,35.0,"B,",82.0
11112,133632.0,Note On,0,9.0,42.0,72.0,0,11,108.0,11.0,9.0,42.0,F#,72.0
11113,133632.0,Note On,0,9.0,42.0,72.0,0,11,80.0,11.0,9.0,52.0,e,64.0
11114,133632.0,Note On,0,9.0,52.0,64.0,0,11,756.0,2.0,0.0,61.0,c#',83.0
11115,133632.0,Note On,0,9.0,52.0,64.0,0,11,760.0,2.0,0.0,66.0,f#',84.0
11116,133632.0,Note On,0,9.0,52.0,64.0,0,11,720.0,3.0,1.0,34.0,"A#,",82.0
11117,133632.0,Note On,0,9.0,52.0,64.0,0,11,96.0,11.0,9.0,35.0,"B,",82.0
11118,133632.0,Note On,0,9.0,52.0,64.0,0,11,108.0,11.0,9.0,42.0,F#,72.0
11119,133632.0,Note On,0,9.0,52.0,64.0,0,11,80.0,11.0,9.0,52.0,e,64.0
11120,133712.0,Note Off,0,9.0,52.0,64.0,0,11,,,,,,
11121,133728.0,Note Off,0,9.0,35.0,82.0,0,11,,,,,,
11122,133740.0,Note Off,0,9.0,42.0,72.0,0,11,,,,,,
11123,133820.0,Note On,0,9.0,42.0,23.0,0,11,44.0,11.0,9.0,42.0,F#,23.0
11124,133864.0,Note Off,0,9.0,42.0,23.0,0,11,,,,,,
11125,134016.0,Note On,0,9.0,42.0,69.0,0,11,120.0,11.0,9.0,42.0,F#,69.0
11126,134136.0,Note Off,0,9.0,42.0,69.0,0,11,,,,,,
11127,134204.0,Note On,0,9.0,42.0,34.0,0,11,52.0,11.0,9.0,42.0,F#,34.0
11128,134256.0,Note Off,0,9.0,42.0,34.0,0,11,,,,,,
11129,134400.0,Note On,0,9.0,38.0,73.0,0,11,340.0,3.0,1.0,35.0,"B,",82.0
11130,134400.0,Note On,0,9.0,38.0,73.0,0,11,240.0,11.0,9.0,38.0,D,73.0
11131,134400.0,Note On,0,9.0,38.0,73.0,0,11,96.0,11.0,9.0,54.0,f#,91.0
11132,134400.0,Note On,0,9.0,54.0,91.0,0,11,340.0,3.0,1.0,35.0,"B,",82.0
11133,134400.0,Note On,0,9.0,54.0,91.0,0,11,240.0,11.0,9.0,38.0,D,73.0
11134,134400.0,Note On,0,9.0,54.0,91.0,0,11,96.0,11.0,9.0,54.0,f#,91.0
11135,134496.0,Note Off,0,9.0,54.0,91.0,0,11,,,,,,
11136,134592.0,Note On,0,9.0,45.0,73.0,0,11,84.0,11.0,9.0,45.0,A,73.0
11137,134640.0,Note Off,0,9.0,38.0,73.0,0,11,,,,,,
11138,134676.0,Note Off,0,9.0,45.0,73.0,0,11,,,,,,
11139,134784.0,Note On,0,9.0,43.0,82.0,0,11,340.0,3.0,1.0,30.0,"F#,",82.0
11140,134784.0,Note On,0,9.0,43.0,82.0,0,11,196.0,11.0,9.0,43.0,G,82.0
11141,134972.0,Note On,0,9.0,42.0,31.0,0,11,56.0,11.0,9.0,42.0,F#,31.0
11142,134980.0,Note Off,0,9.0,43.0,82.0,0,11,,,,,,
11143,135028.0,Note Off,0,9.0,42.0,31.0,0,11,,,,,,
11144,135168.0,Note On,0,9.0,35.0,82.0,0,11,1500.0,3.0,1.0,28.0,"E,",82.0
11145,135168.0,Note On,0,9.0,35.0,82.0,0,11,96.0,11.0,9.0,35.0,"B,",82.0
11146,135168.0,Note On,0,9.0,35.0,82.0,0,11,108.0,11.0,9.0,42.0,F#,72.0
11147,135168.0,Note On,0,9.0,35.0,82.0,0,11,80.0,11.0,9.0,49.0,c#,64.0
11148,135168.0,Note On,0,9.0,42.0,72.0,0,11,1500.0,3.0,1.0,28.0,"E,",82.0
11149,135168.0,Note On,0,9.0,42.0,72.0,0,11,96.0,11.0,9.0,35.0,"B,",82.0
11150,135168.0,Note On,0,9.0,42.0,72.0,0,11,108.0,11.0,9.0,42.0,F#,72.0
11151,135168.0,Note On,0,9.0,42.0,72.0,0,11,80.0,11.0,9.0,49.0,c#,64.0
11152,135168.0,Note On,0,9.0,49.0,64.0,0,11,1500.0,3.0,1.0,28.0,"E,",82.0
11153,135168.0,Note On,0,9.0,49.0,64.0,0,11,96.0,11.0,9.0,35.0,"B,",82.0
11154,135168.0,Note On,0,9.0,49.0,64.0,0,11,108.0,11.0,9.0,42.0,F#,72.0
11155,135168.0,Note On,0,9.0,49.0,64.0,0,11,80.0,11.0,9.0,49.0,c#,64.0
11156,135248.0,Note Off,0,9.0,49.0,64.0,0,11,,,,,,
11157,135264.0,Note Off,0,9.0,35.0,82.0,0,11,,,,,,
11158,135276.0,Note Off,0,9.0,42.0,72.0,0,11,,,,,,
11159,135356.0,Note On,0,9.0,42.0,26.0,0,11,44.0,11.0,9.0,42.0,F#,26.0
11160,135400.0,Note Off,0,9.0,42.0,26.0,0,11,,,,,,
11161,135552.0,Note On,0,9.0,42.0,69.0,0,11,120.0,11.0,9.0,42.0,F#,69.0
11162,135672.0,Note Off,0,9.0,42.0,69.0,0,11,,,,,,
11163,135740.0,Note On,0,9.0,42.0,31.0,0,11,52.0,11.0,9.0,42.0,F#,31.0
11164,135792.0,Note Off,0,9.0,42.0,31.0,0,11,,,,,,
11165,135936.0,Note On,0,9.0,38.0,73.0,0,11,732.0,2.0,0.0,64.0,e',83.0
11166,135936.0,Note On,0,9.0,38.0,73.0,0,11,240.0,11.0,9.0,38.0,D,73.0
11167,135936.0,Note On,0,9.0,38.0,73.0,0,11,112.0,11.0,9.0,42.0,F#,75.0
11168,135936.0,Note On,0,9.0,42.0,75.0,0,11,732.0,2.0,0.0,64.0,e',83.0
11169,135936.0,Note On,0,9.0,42.0,75.0,0,11,240.0,11.0,9.0,38.0,D,73.0
11170,135936.0,Note On,0,9.0,42.0,75.0,0,11,112.0,11.0,9.0,42.0,F#,75.0
11171,136048.0,Note Off,0,9.0,42.0,75.0,0,11,,,,,,
11172,136124.0,Note On,0,9.0,42.0,23.0,0,11,56.0,11.0,9.0,42.0,F#,23.0
11173,136176.0,Note Off,0,9.0,38.0,73.0,0,11,,,,,,
11174,136180.0,Note Off,0,9.0,42.0,23.0,0,11,,,,,,
11175,136320.0,Note On,0,9.0,42.0,72.0,0,11,140.0,11.0,9.0,42.0,F#,72.0
11176,136460.0,Note Off,0,9.0,42.0,72.0,0,11,,,,,,
11177,136512.0,Note On,0,9.0,35.0,64.0,0,11,96.0,11.0,9.0,35.0,"B,",64.0
11178,136512.0,Note On,0,9.0,35.0,64.0,0,11,52.0,11.0,9.0,46.0,A#,61.0
11179,136512.0,Note On,0,9.0,46.0,61.0,0,11,96.0,11.0,9.0,35.0,"B,",64.0
11180,136512.0,Note On,0,9.0,46.0,61.0,0,11,52.0,11.0,9.0,46.0,A#,61.0
11181,136564.0,Note Off,0,9.0,46.0,61.0,0,11,,,,,,
11182,136608.0,Note Off,0,9.0,35.0,64.0,0,11,,,,,,
11183,136704.0,Note On,0,9.0,35.0,82.0,0,11,700.0,3.0,1.0,36.0,C,82.0
11184,136704.0,Note On,0,9.0,35.0,82.0,0,11,328.0,5.0,3.0,67.0,g',73.0
11185,136704.0,Note On,0,9.0,35.0,82.0,0,11,96.0,11.0,9.0,35.0,"B,",82.0
11186,136704.0,Note On,0,9.0,35.0,82.0,0,11,108.0,11.0,9.0,42.0,F#,72.0
11187,136704.0,Note On,0,9.0,35.0,82.0,0,11,80.0,11.0,9.0,52.0,e,64.0
11188,136704.0,Note On,0,9.0,42.0,72.0,0,11,700.0,3.0,1.0,36.0,C,82.0
11189,136704.0,Note On,0,9.0,42.0,72.0,0,11,328.0,5.0,3.0,67.0,g',73.0
11190,136704.0,Note On,0,9.0,42.0,72.0,0,11,96.0,11.0,9.0,35.0,"B,",82.0
11191,136704.0,Note On,0,9.0,42.0,72.0,0,11,108.0,11.0,9.0,42.0,F#,72.0
11192,136704.0,Note On,0,9.0,42.0,72.0,0,11,80.0,11.0,9.0,52.0,e,64.0
11193,136704.0,Note On,0,9.0,52.0,64.0,0,11,700.0,3.0,1.0,36.0,C,82.0
11194,136704.0,Note On,0,9.0,52.0,64.0,0,11,328.0,5.0,3.0,67.0,g',73.0
11195,136704.0,Note On,0,9.0,52.0,64.0,0,11,96.0,11.0,9.0,35.0,"B,",82.0
11196,136704.0,Note On,0,9.0,52.0,64.0,0,11,108.0,11.0,9.0,42.0,F#,72.0
11197,136704.0,Note On,0,9.0,52.0,64.0,0,11,80.0,11.0,9.0,52.0,e,64.0
11198,136784.0,Note Off,0,9.0,52.0,64.0,0,11,,,,,,
11199,136800.0,Note Off,0,9.0,35.0,82.0,0,11,,,,,,
11200,136812.0,Note Off,0,9.0,42.0,72.0,0,11,,,,,,
11201,136892.0,Note On,0,9.0,42.0,23.0,0,11,44.0,11.0,9.0,42.0,F#,23.0
11202,136936.0,Note Off,0,9.0,42.0,23.0,0,11,,,,,,
11203,137088.0,Note On,0,9.0,59.0,26.0,0,11,48.0,11.0,9.0,59.0,b,26.0
11204,137136.0,Note Off,0,9.0,59.0,26.0,0,11,48.0,11.0,9.0,51.0,d#,26.0
11205,137136.0,Note On,0,9.0,51.0,26.0,0,11,48.0,11.0,9.0,51.0,d#,26.0
11206,137184.0,Note Off,0,9.0,51.0,26.0,0,11,,,,,,
11207,137188.0,Note On,0,9.0,59.0,29.0,0,11,44.0,11.0,9.0,59.0,b,29.0
11208,137232.0,Note Off,0,9.0,59.0,29.0,0,11,56.0,11.0,9.0,51.0,d#,29.0
11209,137232.0,Note On,0,9.0,51.0,29.0,0,11,56.0,11.0,9.0,51.0,d#,29.0
11210,137284.0,Note On,0,9.0,59.0,34.0,0,11,48.0,11.0,9.0,59.0,b,34.0
11211,137288.0,Note Off,0,9.0,51.0,29.0,0,11,,,,,,
11212,137328.0,Note On,0,9.0,51.0,34.0,0,11,40.0,11.0,9.0,51.0,d#,34.0
11213,137332.0,Note Off,0,9.0,59.0,34.0,0,11,,,,,,
11214,137368.0,Note Off,0,9.0,51.0,34.0,0,11,36.0,11.0,9.0,59.0,b,34.0
11215,137368.0,Note On,0,9.0,59.0,34.0,0,11,36.0,11.0,9.0,59.0,b,34.0
11216,137404.0,Note Off,0,9.0,59.0,34.0,0,11,56.0,11.0,9.0,51.0,d#,34.0
11217,137404.0,Note On,0,9.0,51.0,34.0,0,11,56.0,11.0,9.0,51.0,d#,34.0
11218,137460.0,Note Off,0,9.0,51.0,34.0,0,11,40.0,11.0,9.0,59.0,b,37.0
11219,137460.0,Note On,0,9.0,59.0,37.0,0,11,40.0,11.0,9.0,59.0,b,37.0
11220,137472.0,Note On,0,9.0,54.0,91.0,0,11,748.0,2.0,0.0,45.0,A,97.0
11221,137472.0,Note On,0,9.0,54.0,91.0,0,11,804.0,2.0,0.0,59.0,b,83.0
11222,137472.0,Note On,0,9.0,54.0,91.0,0,11,820.0,2.0,0.0,64.0,e',83.0
11223,137472.0,Note On,0,9.0,54.0,91.0,0,11,700.0,3.0,1.0,33.0,"A,",82.0
11224,137472.0,Note On,0,9.0,54.0,91.0,0,11,96.0,11.0,9.0,54.0,f#,91.0
11225,137500.0,Note Off,0,9.0,59.0,37.0,0,11,,,,,,
11226,137512.0,Note On,0,9.0,51.0,40.0,0,11,40.0,11.0,9.0,51.0,d#,40.0
11227,137552.0,Note Off,0,9.0,51.0,40.0,0,11,32.0,11.0,9.0,59.0,b,43.0
11228,137552.0,Note On,0,9.0,59.0,43.0,0,11,32.0,11.0,9.0,59.0,b,43.0
11229,137568.0,Note Off,0,9.0,54.0,91.0,0,11,,,,,,
11230,137584.0,Note Off,0,9.0,59.0,43.0,0,11,,,,,,
11231,137600.0,Note On,0,9.0,51.0,43.0,0,11,48.0,11.0,9.0,51.0,d#,43.0
11232,137648.0,Note Off,0,9.0,51.0,43.0,0,11,36.0,11.0,9.0,59.0,b,40.0
11233,137648.0,Note On,0,9.0,59.0,40.0,0,11,36.0,11.0,9.0,59.0,b,40.0
11234,137684.0,Note Off,0,9.0,59.0,40.0,0,11,,,,,,
11235,137692.0,Note On,0,9.0,51.0,40.0,0,11,44.0,11.0,9.0,51.0,d#,40.0
11236,137736.0,Note Off,0,9.0,51.0,40.0,0,11,,,,,,
11237,137740.0,Note On,0,9.0,59.0,43.0,0,11,32.0,11.0,9.0,59.0,b,43.0
11238,137772.0,Note Off,0,9.0,59.0,43.0,0,11,,,,,,
11239,137780.0,Note On,0,9.0,51.0,46.0,0,11,24.0,11.0,9.0,51.0,d#,46.0
11240,137804.0,Note Off,0,9.0,51.0,46.0,0,11,,,,,,
11241,137824.0,Note On,0,9.0,59.0,46.0,0,11,48.0,11.0,9.0,59.0,b,46.0
11242,137872.0,Note Off,0,9.0,59.0,46.0,0,11,,,,,,
11243,137876.0,Note On,0,9.0,51.0,49.0,0,11,44.0,11.0,9.0,51.0,d#,49.0
11244,137920.0,Note Off,0,9.0,51.0,49.0,0,11,44.0,11.0,9.0,59.0,b,52.0
11245,137920.0,Note On,0,9.0,59.0,52.0,0,11,44.0,11.0,9.0,59.0,b,52.0
11246,137964.0,Note Off,0,9.0,59.0,52.0,0,11,,,,,,
11247,137972.0,Note On,0,9.0,51.0,52.0,0,11,40.0,11.0,9.0,51.0,d#,52.0
11248,138012.0,Note Off,0,9.0,51.0,52.0,0,11,48.0,11.0,9.0,59.0,b,55.0
11249,138012.0,Note On,0,9.0,59.0,55.0,0,11,48.0,11.0,9.0,59.0,b,55.0
11250,138060.0,Note Off,0,9.0,59.0,55.0,0,11,32.0,11.0,9.0,51.0,d#,58.0
11251,138060.0,Note On,0,9.0,51.0,58.0,0,11,32.0,11.0,9.0,51.0,d#,58.0
11252,138092.0,Note Off,0,9.0,51.0,58.0,0,11,,,,,,
11253,138100.0,Note On,0,9.0,59.0,66.0,0,11,48.0,11.0,9.0,59.0,b,66.0
11254,138140.0,Note On,0,9.0,51.0,58.0,0,11,32.0,11.0,9.0,51.0,d#,58.0
11255,138148.0,Note Off,0,9.0,59.0,66.0,0,11,,,,,,
11256,138172.0,Note Off,0,9.0,51.0,58.0,0,11,,,,,,
11257,138184.0,Note On,0,9.0,59.0,58.0,0,11,32.0,11.0,9.0,59.0,b,58.0
11258,138216.0,Note Off,0,9.0,59.0,58.0,0,11,,,,,,
11259,138240.0,Note On,0,9.0,49.0,34.0,0,11,812.0,2.0,0.0,47.0,B,83.0
11260,138240.0,Note On,0,9.0,49.0,34.0,0,11,1500.0,3.0,1.0,35.0,"B,",82.0
11261,138240.0,Note On,0,9.0,49.0,34.0,0,11,1424.0,5.0,3.0,62.0,d',73.0
11262,138240.0,Note On,0,9.0,49.0,34.0,0,11,80.0,11.0,9.0,49.0,c#,34.0
11263,138320.0,Note Off,0,9.0,49.0,34.0,0,11,,,,,,
11264,139656.0,Note On,0,9.0,51.0,29.0,0,11,52.0,11.0,9.0,51.0,d#,29.0
11265,139688.0,Note On,0,9.0,59.0,45.0,0,11,1624.0,2.0,0.0,44.0,G#,74.0
11266,139688.0,Note On,0,9.0,59.0,45.0,0,11,72.0,11.0,9.0,59.0,b,45.0
11267,139708.0,Note Off,0,9.0,51.0,29.0,0,11,,,,,,
11268,139724.0,Note On,0,9.0,51.0,44.0,0,11,76.0,11.0,9.0,51.0,d#,44.0
11269,139760.0,Note Off,0,9.0,59.0,45.0,0,11,,,,,,
11270,139776.0,Note On,0,9.0,55.0,38.0,0,11,1500.0,3.0,1.0,32.0,"G#,",82.0
11271,139776.0,Note On,0,9.0,55.0,38.0,0,11,48.0,11.0,9.0,55.0,g,38.0
11272,139776.0,Note On,0,9.0,55.0,38.0,0,11,48.0,11.0,9.0,59.0,b,64.0
11273,139776.0,Note On,0,9.0,59.0,64.0,0,11,1500.0,3.0,1.0,32.0,"G#,",82.0
11274,139776.0,Note On,0,9.0,59.0,64.0,0,11,48.0,11.0,9.0,55.0,g,38.0
11275,139776.0,Note On,0,9.0,59.0,64.0,0,11,48.0,11.0,9.0,59.0,b,64.0
11276,139800.0,Note Off,0,9.0,51.0,44.0,0,11,,,,,,
11277,139824.0,Note Off,0,9.0,59.0,64.0,0,11,,,,,,
11278,139824.0,Note Off,0,9.0,55.0,38.0,0,11,,,,,,
11279,142848.0,Note On,0,9.0,51.0,52.0,0,11,1304.0,2.0,0.0,42.0,F#,82.0
11280,142848.0,Note On,0,9.0,51.0,52.0,0,11,24.0,11.0,9.0,51.0,d#,52.0
11281,142848.0,Note On,0,9.0,51.0,52.0,0,11,112.0,11.0,9.0,70.0,a#',69.0
11282,142848.0,Note On,0,9.0,70.0,69.0,0,11,1304.0,2.0,0.0,42.0,F#,82.0
11283,142848.0,Note On,0,9.0,70.0,69.0,0,11,24.0,11.0,9.0,51.0,d#,52.0
11284,142848.0,Note On,0,9.0,70.0,69.0,0,11,112.0,11.0,9.0,70.0,a#',69.0
11285,142872.0,Note Off,0,9.0,51.0,52.0,0,11,1436.0,2.0,0.0,69.0,a',88.0
11286,142960.0,Note Off,0,9.0,70.0,69.0,0,11,,,,,,
11287,143040.0,Note On,0,9.0,70.0,52.0,0,11,84.0,11.0,9.0,70.0,a#',52.0
11288,143124.0,Note Off,0,9.0,70.0,52.0,0,11,,,,,,
11289,143232.0,Note On,0,9.0,70.0,52.0,0,11,112.0,11.0,9.0,70.0,a#',52.0
11290,143344.0,Note Off,0,9.0,70.0,52.0,0,11,,,,,,
11291,143424.0,Note On,0,9.0,70.0,32.0,0,11,220.0,11.0,9.0,70.0,a#',32.0
11292,143644.0,Note Off,0,9.0,70.0,32.0,0,11,,,,,,
11293,145344.0,Note On,0,9.0,80.0,36.0,0,11,200.0,11.0,9.0,80.0,g#'',36.0
11294,145536.0,Note On,0,9.0,81.0,52.0,0,11,352.0,11.0,9.0,81.0,a'',52.0
11295,145544.0,Note Off,0,9.0,80.0,36.0,0,11,,,,,,
11296,145888.0,Note Off,0,9.0,81.0,52.0,0,11,,,,,,
11297,145920.0,Note On,0,9.0,70.0,69.0,0,11,1380.0,2.0,0.0,42.0,F#,75.0
11298,145920.0,Note On,0,9.0,70.0,69.0,0,11,112.0,11.0,9.0,70.0,a#',69.0
11299,146032.0,Note Off,0,9.0,70.0,69.0,0,11,,,,,,
11300,146112.0,Note On,0,9.0,70.0,52.0,0,11,84.0,11.0,9.0,70.0,a#',52.0
11301,146196.0,Note Off,0,9.0,70.0,52.0,0,11,,,,,,
11302,146304.0,Note On,0,9.0,70.0,52.0,0,11,112.0,11.0,9.0,70.0,a#',52.0
11303,146416.0,Note Off,0,9.0,70.0,52.0,0,11,,,,,,
11304,146496.0,Note On,0,9.0,70.0,32.0,0,11,220.0,11.0,9.0,70.0,a#',32.0
11305,146716.0,Note Off,0,9.0,70.0,32.0,0,11,,,,,,
11306,148416.0,Note On,0,9.0,80.0,36.0,0,11,200.0,11.0,9.0,80.0,g#'',36.0
11307,148608.0,Note On,0,9.0,81.0,52.0,0,11,344.0,5.0,3.0,69.0,a',60.0
11308,148608.0,Note On,0,9.0,81.0,52.0,0,11,352.0,11.0,9.0,81.0,a'',52.0
11309,148616.0,Note Off,0,9.0,80.0,36.0,0,11,,,,,,
11310,148872.0,Note On,0,9.0,51.0,29.0,0,11,52.0,11.0,9.0,51.0,d#,29.0
11311,148904.0,Note On,0,9.0,59.0,45.0,0,11,72.0,11.0,9.0,59.0,b,45.0
11312,148924.0,Note Off,0,9.0,51.0,29.0,0,11,,,,,,
11313,148940.0,Note On,0,9.0,51.0,44.0,0,11,76.0,11.0,9.0,51.0,d#,44.0
11314,148960.0,Note Off,0,9.0,81.0,52.0,0,11,,,,,,
11315,148976.0,Note Off,0,9.0,59.0,45.0,0,11,,,,,,
11316,148992.0,Note On,0,9.0,55.0,38.0,0,11,1524.0,5.0,3.0,69.0,a',56.0
11317,148992.0,Note On,0,9.0,55.0,38.0,0,11,48.0,11.0,9.0,55.0,g,38.0
11318,148992.0,Note On,0,9.0,55.0,38.0,0,11,48.0,11.0,9.0,59.0,b,64.0
11319,148992.0,Note On,0,9.0,55.0,38.0,0,11,112.0,11.0,9.0,70.0,a#',69.0
11320,148992.0,Note On,0,9.0,59.0,64.0,0,11,1524.0,5.0,3.0,69.0,a',56.0
11321,148992.0,Note On,0,9.0,59.0,64.0,0,11,48.0,11.0,9.0,55.0,g,38.0
11322,148992.0,Note On,0,9.0,59.0,64.0,0,11,48.0,11.0,9.0,59.0,b,64.0
11323,148992.0,Note On,0,9.0,59.0,64.0,0,11,112.0,11.0,9.0,70.0,a#',69.0
11324,148992.0,Note On,0,9.0,70.0,69.0,0,11,1524.0,5.0,3.0,69.0,a',56.0
11325,148992.0,Note On,0,9.0,70.0,69.0,0,11,48.0,11.0,9.0,55.0,g,38.0
11326,148992.0,Note On,0,9.0,70.0,69.0,0,11,48.0,11.0,9.0,59.0,b,64.0
11327,148992.0,Note On,0,9.0,70.0,69.0,0,11,112.0,11.0,9.0,70.0,a#',69.0
11328,149016.0,Note Off,0,9.0,51.0,44.0,0,11,,,,,,
11329,149040.0,Note Off,0,9.0,59.0,64.0,0,11,,,,,,
11330,149040.0,Note Off,0,9.0,55.0,38.0,0,11,,,,,,
11331,149104.0,Note Off,0,9.0,70.0,69.0,0,11,,,,,,
11332,149184.0,Note On,0,9.0,70.0,52.0,0,11,84.0,11.0,9.0,70.0,a#',52.0
11333,149268.0,Note Off,0,9.0,70.0,52.0,0,11,,,,,,
11334,149376.0,Note On,0,9.0,70.0,52.0,0,11,112.0,11.0,9.0,70.0,a#',52.0
11335,149488.0,Note Off,0,9.0,70.0,52.0,0,11,,,,,,
11336,149568.0,Note On,0,9.0,70.0,32.0,0,11,220.0,11.0,9.0,70.0,a#',32.0
11337,149788.0,Note Off,0,9.0,70.0,32.0,0,11,,,,,,
11338,150528.0,Note On,0,9.0,51.0,52.0,0,11,24.0,11.0,9.0,51.0,d#,52.0
11339,150552.0,Note Off,0,9.0,51.0,52.0,0,11,,,,,,
11340,153600.0,Note On,0,9.0,51.0,52.0,0,11,1436.0,2.0,0.0,50.0,d,92.0
11341,153600.0,Note On,0,9.0,51.0,52.0,0,11,160.0,2.0,0.0,57.0,a,83.0
11342,153600.0,Note On,0,9.0,51.0,52.0,0,11,24.0,11.0,9.0,51.0,d#,52.0
11343,153624.0,Note Off,0,9.0,51.0,52.0,0,11,,,,,,
11344,154176.0,Note On,0,9.0,51.0,31.0,0,11,24.0,11.0,9.0,51.0,d#,31.0
11345,154200.0,Note Off,0,9.0,51.0,31.0,0,11,,,,,,
11346,154368.0,Note On,0,9.0,51.0,52.0,0,11,24.0,11.0,9.0,51.0,d#,52.0
11347,154392.0,Note Off,0,9.0,51.0,52.0,0,11,,,,,,
11348,155712.0,Note On,0,9.0,51.0,31.0,0,11,24.0,11.0,9.0,51.0,d#,31.0
11349,155736.0,Note Off,0,9.0,51.0,31.0,0,11,,,,,,
11350,155904.0,Note On,0,9.0,51.0,52.0,0,11,24.0,11.0,9.0,51.0,d#,52.0
11351,155928.0,Note Off,0,9.0,51.0,52.0,0,11,,,,,,
11352,156480.0,Note On,0,9.0,51.0,31.0,0,11,168.0,2.0,0.0,66.0,f#',50.0
11353,156480.0,Note On,0,9.0,51.0,31.0,0,11,24.0,11.0,9.0,51.0,d#,31.0
11354,156504.0,Note Off,0,9.0,51.0,31.0,0,11,,,,,,
11355,156672.0,Note On,0,9.0,51.0,52.0,0,11,1316.0,2.0,0.0,50.0,d,92.0
11356,156672.0,Note On,0,9.0,51.0,52.0,0,11,156.0,2.0,0.0,57.0,a,83.0
11357,156672.0,Note On,0,9.0,51.0,52.0,0,11,536.0,2.0,0.0,66.0,f#',92.0
11358,156672.0,Note On,0,9.0,51.0,52.0,0,11,744.0,2.0,0.0,74.0,d'',66.0
11359,156672.0,Note On,0,9.0,51.0,52.0,0,11,24.0,11.0,9.0,51.0,d#,52.0
11360,156696.0,Note Off,0,9.0,51.0,52.0,0,11,,,,,,
11361,157440.0,Note On,0,9.0,51.0,52.0,0,11,24.0,11.0,9.0,51.0,d#,52.0
11362,157464.0,Note Off,0,9.0,51.0,52.0,0,11,,,,,,
11363,159624.0,Note On,0,9.0,51.0,29.0,0,11,52.0,11.0,9.0,51.0,d#,29.0
11364,159656.0,Note On,0,9.0,59.0,45.0,0,11,72.0,11.0,9.0,59.0,b,45.0
11365,159676.0,Note Off,0,9.0,51.0,29.0,0,11,,,,,,
11366,159692.0,Note On,0,9.0,51.0,44.0,0,11,3052.0,2.0,0.0,54.0,f#,54.0
11367,159692.0,Note On,0,9.0,51.0,44.0,0,11,76.0,11.0,9.0,51.0,d#,44.0
11368,159728.0,Note Off,0,9.0,59.0,45.0,0,11,3004.0,2.0,0.0,45.0,A,66.0
11369,159744.0,Note On,0,9.0,55.0,38.0,0,11,48.0,11.0,9.0,55.0,g,38.0
11370,159744.0,Note On,0,9.0,55.0,38.0,0,11,48.0,11.0,9.0,59.0,b,64.0
11371,159744.0,Note On,0,9.0,59.0,64.0,0,11,48.0,11.0,9.0,55.0,g,38.0
11372,159744.0,Note On,0,9.0,59.0,64.0,0,11,48.0,11.0,9.0,59.0,b,64.0
11373,159768.0,Note Off,0,9.0,51.0,44.0,0,11,2964.0,2.0,0.0,50.0,d,70.0
11374,159768.0,Note Off,0,9.0,51.0,44.0,0,11,2972.0,2.0,0.0,57.0,a,74.0
11375,159768.0,Note Off,0,9.0,51.0,44.0,0,11,2916.0,4.0,2.0,57.0,a,18.0
11376,159768.0,Note Off,0,9.0,51.0,44.0,0,11,2932.0,4.0,2.0,64.0,e',21.0
11377,159792.0,Note Off,0,9.0,59.0,64.0,0,11,2952.0,2.0,0.0,62.0,d',66.0
11378,159792.0,Note Off,0,9.0,55.0,38.0,0,11,2952.0,2.0,0.0,62.0,d',66.0
11379,165300.0,Controller,0,9.0,121.0,127.0,0,11,,,,,,
11380,165888.0,End of Track,2f,0.0,0.0,0.0,0,11,,,,,,
11381,0.0,Sequence/Track Name,03,0.0,0.0,0.0,STEEL GTR,12,,,,,,
11382,584.0,Controller,0,10.0,0.0,0.0,0,12,,,,,,
11383,592.0,Program Change,0,10.0,25.0,0.0,0,12,,,,,,
11384,596.0,Controller,0,10.0,7.0,127.0,0,12,,,,,,
11385,596.0,Controller,0,10.0,10.0,64.0,0,12,,,,,,
11386,596.0,Controller,0,10.0,11.0,127.0,0,12,,,,,,
11387,600.0,Controller,0,10.0,91.0,100.0,0,12,,,,,,
11388,600.0,Controller,0,10.0,93.0,0.0,0,12,,,,,,
11389,3072.0,Note On,0,10.0,41.0,48.0,0,12,1460.0,2.0,0.0,46.0,A#,83.0
11390,3072.0,Note On,0,10.0,41.0,48.0,0,12,3016.0,4.0,2.0,65.0,f',32.0
11391,3072.0,Note On,0,10.0,41.0,48.0,0,12,112.0,11.0,9.0,70.0,a#',69.0
11392,3072.0,Note On,0,10.0,41.0,48.0,0,12,60.0,12.0,10.0,41.0,F,48.0
11393,3072.0,Note On,0,10.0,41.0,48.0,0,12,132.0,13.0,11.0,46.0,A#,69.0
11394,3132.0,Note Off,0,10.0,41.0,48.0,0,12,,,,,,
11395,4800.0,Note On,0,10.0,41.0,43.0,0,12,60.0,12.0,10.0,41.0,F,43.0
11396,4860.0,Note Off,0,10.0,41.0,43.0,0,12,,,,,,
11397,4992.0,Note On,0,10.0,45.0,48.0,0,12,60.0,12.0,10.0,45.0,A,48.0
11398,5052.0,Note Off,0,10.0,45.0,48.0,0,12,,,,,,
11399,5184.0,Note On,0,10.0,50.0,48.0,0,12,60.0,12.0,10.0,50.0,d,48.0
11400,5244.0,Note Off,0,10.0,50.0,48.0,0,12,,,,,,
11401,5568.0,Note On,0,10.0,41.0,31.0,0,12,60.0,12.0,10.0,41.0,F,31.0
11402,5628.0,Note Off,0,10.0,41.0,31.0,0,12,,,,,,
11403,6144.0,Note On,0,10.0,41.0,48.0,0,12,1460.0,2.0,0.0,46.0,A#,83.0
11404,6144.0,Note On,0,10.0,41.0,48.0,0,12,112.0,11.0,9.0,70.0,a#',69.0
11405,6144.0,Note On,0,10.0,41.0,48.0,0,12,60.0,12.0,10.0,41.0,F,48.0
11406,6144.0,Note On,0,10.0,41.0,48.0,0,12,132.0,13.0,11.0,46.0,A#,69.0
11407,6204.0,Note Off,0,10.0,41.0,48.0,0,12,,,,,,
11408,7872.0,Note On,0,10.0,41.0,43.0,0,12,60.0,12.0,10.0,41.0,F,43.0
11409,7932.0,Note Off,0,10.0,41.0,43.0,0,12,,,,,,
11410,8064.0,Note On,0,10.0,45.0,48.0,0,12,60.0,12.0,10.0,45.0,A,48.0
11411,8064.0,Note On,0,10.0,45.0,48.0,0,12,1036.0,15.0,13.0,72.0,c'',31.0
11412,8124.0,Note Off,0,10.0,45.0,48.0,0,12,64.0,7.0,5.0,48.0,c,23.0
11413,8256.0,Note On,0,10.0,50.0,48.0,0,12,60.0,12.0,10.0,50.0,d,48.0
11414,8316.0,Note Off,0,10.0,50.0,48.0,0,12,56.0,7.0,5.0,55.0,g,29.0
11415,8640.0,Note On,0,10.0,41.0,31.0,0,12,60.0,12.0,10.0,41.0,F,31.0
11416,8640.0,Note On,0,10.0,41.0,31.0,0,12,588.0,14.0,12.0,60.0,c',43.0
11417,8700.0,Note Off,0,10.0,41.0,31.0,0,12,,,,,,
11418,20544.0,Note On,0,10.0,45.0,48.0,0,12,60.0,12.0,10.0,45.0,A,48.0
11419,20604.0,Note Off,0,10.0,45.0,48.0,0,12,,,,,,
11420,20928.0,Note On,0,10.0,50.0,48.0,0,12,60.0,12.0,10.0,50.0,d,48.0
11421,20988.0,Note Off,0,10.0,50.0,48.0,0,12,,,,,,
11422,21120.0,Note On,0,10.0,43.0,48.0,0,12,60.0,12.0,10.0,43.0,G,48.0
11423,21180.0,Note Off,0,10.0,43.0,48.0,0,12,,,,,,
11424,21504.0,Note On,0,10.0,36.0,78.0,0,12,1436.0,2.0,0.0,46.0,A#,92.0
11425,21504.0,Note On,0,10.0,36.0,78.0,0,12,492.0,2.0,0.0,53.0,f,83.0
11426,21504.0,Note On,0,10.0,36.0,78.0,0,12,296.0,5.0,3.0,62.0,d',73.0
11427,21504.0,Note On,0,10.0,36.0,78.0,0,12,48.0,11.0,9.0,59.0,b,64.0
11428,21504.0,Note On,0,10.0,36.0,78.0,0,12,112.0,11.0,9.0,70.0,a#',69.0
11429,21504.0,Note On,0,10.0,36.0,78.0,0,12,96.0,12.0,10.0,36.0,C,78.0
11430,21600.0,Note Off,0,10.0,36.0,78.0,0,12,,,,,,
11431,22848.0,Note On,0,10.0,36.0,55.0,0,12,96.0,12.0,10.0,36.0,C,55.0
11432,22944.0,Note Off,0,10.0,36.0,55.0,0,12,,,,,,
11433,23040.0,Note On,0,10.0,36.0,78.0,0,12,96.0,12.0,10.0,36.0,C,78.0
11434,23136.0,Note Off,0,10.0,36.0,78.0,0,12,,,,,,
11435,23232.0,Note On,0,10.0,43.0,48.0,0,12,60.0,12.0,10.0,43.0,G,48.0
11436,23292.0,Note Off,0,10.0,43.0,48.0,0,12,,,,,,
11437,23424.0,Note On,0,10.0,41.0,48.0,0,12,216.0,9.0,7.0,63.0,d#',48.0
11438,23424.0,Note On,0,10.0,41.0,48.0,0,12,208.0,9.0,7.0,72.0,c'',52.0
11439,23424.0,Note On,0,10.0,41.0,48.0,0,12,60.0,12.0,10.0,41.0,F,48.0
11440,23484.0,Note Off,0,10.0,41.0,48.0,0,12,,,,,,
11441,24576.0,Note On,0,10.0,36.0,78.0,0,12,1316.0,2.0,0.0,46.0,A#,92.0
11442,24576.0,Note On,0,10.0,36.0,78.0,0,12,492.0,2.0,0.0,53.0,f,83.0
11443,24576.0,Note On,0,10.0,36.0,78.0,0,12,536.0,2.0,0.0,62.0,d',92.0
11444,24576.0,Note On,0,10.0,36.0,78.0,0,12,332.0,5.0,3.0,62.0,d',64.0
11445,24576.0,Note On,0,10.0,36.0,78.0,0,12,300.0,11.0,9.0,44.0,G#,56.0
11446,24576.0,Note On,0,10.0,36.0,78.0,0,12,280.0,11.0,9.0,51.0,d#,48.0
11447,24576.0,Note On,0,10.0,36.0,78.0,0,12,112.0,11.0,9.0,70.0,a#',69.0
11448,24576.0,Note On,0,10.0,36.0,78.0,0,12,96.0,12.0,10.0,36.0,C,78.0
11449,24672.0,Note Off,0,10.0,36.0,78.0,0,12,,,,,,
11450,25920.0,Note On,0,10.0,36.0,55.0,0,12,96.0,12.0,10.0,36.0,C,55.0
11451,26016.0,Note Off,0,10.0,36.0,55.0,0,12,,,,,,
11452,26112.0,Note On,0,10.0,36.0,78.0,0,12,752.0,5.0,3.0,62.0,d',75.0
11453,26112.0,Note On,0,10.0,36.0,78.0,0,12,96.0,12.0,10.0,36.0,C,78.0
11454,26208.0,Note Off,0,10.0,36.0,78.0,0,12,,,,,,
11455,27648.0,Note On,0,10.0,36.0,78.0,0,12,572.0,2.0,0.0,60.0,c',88.0
11456,27648.0,Note On,0,10.0,36.0,78.0,0,12,112.0,11.0,9.0,70.0,a#',69.0
11457,27648.0,Note On,0,10.0,36.0,78.0,0,12,236.0,12.0,10.0,36.0,C,78.0
11458,27884.0,Note Off,0,10.0,36.0,78.0,0,12,,,,,,
11459,29184.0,Note On,0,10.0,36.0,78.0,0,12,168.0,2.0,0.0,60.0,c',74.0
11460,29184.0,Note On,0,10.0,36.0,78.0,0,12,236.0,12.0,10.0,36.0,C,78.0
11461,29376.0,Note On,0,10.0,43.0,48.0,0,12,60.0,12.0,10.0,43.0,G,48.0
11462,29420.0,Note Off,0,10.0,36.0,78.0,0,12,,,,,,
11463,29436.0,Note Off,0,10.0,43.0,48.0,0,12,,,,,,
11464,29568.0,Note On,0,10.0,41.0,48.0,0,12,60.0,12.0,10.0,41.0,F,48.0
11465,29628.0,Note Off,0,10.0,41.0,48.0,0,12,,,,,,
11466,30720.0,Note On,0,10.0,36.0,78.0,0,12,520.0,2.0,0.0,63.0,d#',76.0
11467,30720.0,Note On,0,10.0,36.0,78.0,0,12,324.0,5.0,3.0,55.0,g,73.0
11468,30720.0,Note On,0,10.0,36.0,78.0,0,12,112.0,11.0,9.0,70.0,a#',69.0
11469,30720.0,Note On,0,10.0,36.0,78.0,0,12,96.0,12.0,10.0,36.0,C,78.0
11470,30816.0,Note Off,0,10.0,36.0,78.0,0,12,,,,,,
11471,32064.0,Note On,0,10.0,36.0,55.0,0,12,96.0,12.0,10.0,36.0,C,55.0
11472,32160.0,Note Off,0,10.0,36.0,55.0,0,12,,,,,,
11473,32256.0,Note On,0,10.0,36.0,78.0,0,12,1404.0,2.0,0.0,46.0,A#,92.0
11474,32256.0,Note On,0,10.0,36.0,78.0,0,12,96.0,12.0,10.0,36.0,C,78.0
11475,32352.0,Note Off,0,10.0,36.0,78.0,0,12,,,,,,
11476,33024.0,Note On,0,10.0,50.0,48.0,0,12,360.0,2.0,0.0,55.0,g,83.0
11477,33024.0,Note On,0,10.0,50.0,48.0,0,12,344.0,2.0,0.0,63.0,d#',86.0
11478,33024.0,Note On,0,10.0,50.0,48.0,0,12,96.0,11.0,9.0,54.0,f#,91.0
11479,33024.0,Note On,0,10.0,50.0,48.0,0,12,60.0,12.0,10.0,50.0,d,48.0
11480,33084.0,Note Off,0,10.0,50.0,48.0,0,12,,,,,,
11481,33216.0,Note On,0,10.0,45.0,48.0,0,12,60.0,12.0,10.0,45.0,A,48.0
11482,33216.0,Note On,0,10.0,45.0,48.0,0,12,588.0,14.0,12.0,60.0,c',43.0
11483,33276.0,Note Off,0,10.0,45.0,48.0,0,12,,,,,,
11484,33408.0,Note On,0,10.0,41.0,48.0,0,12,368.0,2.0,0.0,55.0,g,74.0
11485,33408.0,Note On,0,10.0,41.0,48.0,0,12,372.0,2.0,0.0,63.0,d#',101.0
11486,33408.0,Note On,0,10.0,41.0,48.0,0,12,340.0,5.0,3.0,67.0,g',91.0
11487,33408.0,Note On,0,10.0,41.0,48.0,0,12,60.0,12.0,10.0,41.0,F,48.0
11488,33468.0,Note Off,0,10.0,41.0,48.0,0,12,,,,,,
11489,33792.0,Note On,0,10.0,36.0,78.0,0,12,540.0,2.0,0.0,53.0,f,92.0
11490,33792.0,Note On,0,10.0,36.0,78.0,0,12,588.0,2.0,0.0,57.0,a,101.0
11491,33792.0,Note On,0,10.0,36.0,78.0,0,12,588.0,3.0,1.0,29.0,"F,",64.0
11492,33792.0,Note On,0,10.0,36.0,78.0,0,12,1868.0,5.0,3.0,65.0,f',82.0
11493,33792.0,Note On,0,10.0,36.0,78.0,0,12,760.0,9.0,7.0,89.0,f''',64.0
11494,33792.0,Note On,0,10.0,36.0,78.0,0,12,48.0,11.0,9.0,55.0,g,38.0
11495,33792.0,Note On,0,10.0,36.0,78.0,0,12,48.0,11.0,9.0,59.0,b,64.0
11496,33792.0,Note On,0,10.0,36.0,78.0,0,12,112.0,11.0,9.0,70.0,a#',69.0
11497,33792.0,Note On,0,10.0,36.0,78.0,0,12,96.0,12.0,10.0,36.0,C,78.0
11498,33888.0,Note Off,0,10.0,36.0,78.0,0,12,,,,,,
11499,35136.0,Note On,0,10.0,36.0,55.0,0,12,96.0,12.0,10.0,36.0,C,55.0
11500,35232.0,Note Off,0,10.0,36.0,55.0,0,12,,,,,,
11501,35328.0,Note On,0,10.0,36.0,78.0,0,12,1492.0,3.0,1.0,34.0,"A#,",64.0
11502,35328.0,Note On,0,10.0,36.0,78.0,0,12,96.0,12.0,10.0,36.0,C,78.0
11503,35424.0,Note Off,0,10.0,36.0,78.0,0,12,,,,,,
11504,36864.0,Note On,0,10.0,36.0,78.0,0,12,1516.0,2.0,0.0,45.0,A,91.0
11505,36864.0,Note On,0,10.0,36.0,78.0,0,12,1444.0,3.0,1.0,33.0,"A,",64.0
11506,36864.0,Note On,0,10.0,36.0,78.0,0,12,112.0,11.0,9.0,70.0,a#',69.0
11507,36864.0,Note On,0,10.0,36.0,78.0,0,12,96.0,12.0,10.0,36.0,C,78.0
11508,36960.0,Note Off,0,10.0,36.0,78.0,0,12,,,,,,
11509,38208.0,Note On,0,10.0,36.0,55.0,0,12,96.0,12.0,10.0,36.0,C,55.0
11510,38304.0,Note Off,0,10.0,36.0,55.0,0,12,,,,,,
11511,38400.0,Note On,0,10.0,36.0,78.0,0,12,744.0,2.0,0.0,46.0,A#,92.0
11512,38400.0,Note On,0,10.0,36.0,78.0,0,12,728.0,2.0,0.0,53.0,f,74.0
11513,38400.0,Note On,0,10.0,36.0,78.0,0,12,716.0,3.0,1.0,34.0,"A#,",64.0
11514,38400.0,Note On,0,10.0,36.0,78.0,0,12,96.0,12.0,10.0,36.0,C,78.0
11515,38496.0,Note Off,0,10.0,36.0,78.0,0,12,,,,,,
11516,39936.0,Note On,0,10.0,36.0,78.0,0,12,732.0,3.0,1.0,39.0,D#,64.0
11517,39936.0,Note On,0,10.0,36.0,78.0,0,12,112.0,11.0,9.0,70.0,a#',69.0
11518,39936.0,Note On,0,10.0,36.0,78.0,0,12,96.0,12.0,10.0,36.0,C,78.0
11519,40032.0,Note Off,0,10.0,36.0,78.0,0,12,,,,,,
11520,41280.0,Note On,0,10.0,36.0,55.0,0,12,96.0,12.0,10.0,36.0,C,55.0
11521,41376.0,Note Off,0,10.0,36.0,55.0,0,12,,,,,,
11522,41472.0,Note On,0,10.0,36.0,78.0,0,12,328.0,2.0,0.0,65.0,f',83.0
11523,41472.0,Note On,0,10.0,36.0,78.0,0,12,300.0,2.0,0.0,69.0,a',96.0
11524,41472.0,Note On,0,10.0,36.0,78.0,0,12,688.0,3.0,1.0,39.0,D#,64.0
11525,41472.0,Note On,0,10.0,36.0,78.0,0,12,96.0,12.0,10.0,36.0,C,78.0
11526,41568.0,Note Off,0,10.0,36.0,78.0,0,12,,,,,,
11527,43008.0,Note On,0,10.0,36.0,78.0,0,12,716.0,3.0,1.0,31.0,"G,",64.0
11528,43008.0,Note On,0,10.0,36.0,78.0,0,12,372.0,5.0,3.0,62.0,d',75.0
11529,43008.0,Note On,0,10.0,36.0,78.0,0,12,112.0,11.0,9.0,70.0,a#',69.0
11530,43008.0,Note On,0,10.0,36.0,78.0,0,12,96.0,12.0,10.0,36.0,C,78.0
11531,43104.0,Note Off,0,10.0,36.0,78.0,0,12,,,,,,
11532,44352.0,Note On,0,10.0,36.0,55.0,0,12,160.0,2.0,0.0,40.0,E,82.0
11533,44352.0,Note On,0,10.0,36.0,55.0,0,12,160.0,3.0,1.0,28.0,"E,",56.0
11534,44352.0,Note On,0,10.0,36.0,55.0,0,12,96.0,12.0,10.0,36.0,C,55.0
11535,44448.0,Note Off,0,10.0,36.0,55.0,0,12,,,,,,
11536,44544.0,Note On,0,10.0,36.0,78.0,0,12,940.0,3.0,1.0,29.0,"F,",64.0
11537,44544.0,Note On,0,10.0,36.0,78.0,0,12,96.0,12.0,10.0,36.0,C,78.0
11538,44640.0,Note Off,0,10.0,36.0,78.0,0,12,,,,,,
11539,45504.0,Note On,0,10.0,45.0,55.0,0,12,168.0,3.0,1.0,24.0,"C,",64.0
11540,45504.0,Note On,0,10.0,45.0,55.0,0,12,60.0,12.0,10.0,45.0,A,55.0
11541,45504.0,Note On,0,10.0,45.0,55.0,0,12,588.0,14.0,12.0,60.0,c',43.0
11542,45564.0,Note Off,0,10.0,45.0,55.0,0,12,,,,,,
11543,45696.0,Note On,0,10.0,41.0,69.0,0,12,172.0,3.0,1.0,27.0,"D#,",64.0
11544,45696.0,Note On,0,10.0,41.0,69.0,0,12,332.0,5.0,3.0,67.0,g',82.0
11545,45696.0,Note On,0,10.0,41.0,69.0,0,12,60.0,12.0,10.0,41.0,F,69.0
11546,45756.0,Note Off,0,10.0,41.0,69.0,0,12,,,,,,
11547,46080.0,Note On,0,10.0,36.0,78.0,0,12,312.0,2.0,0.0,57.0,a,92.0
11548,46080.0,Note On,0,10.0,36.0,78.0,0,12,340.0,2.0,0.0,65.0,f',95.0
11549,46080.0,Note On,0,10.0,36.0,78.0,0,12,588.0,3.0,1.0,29.0,"F,",64.0
11550,46080.0,Note On,0,10.0,36.0,78.0,0,12,1540.0,4.0,2.0,69.0,a',52.0
11551,46080.0,Note On,0,10.0,36.0,78.0,0,12,168.0,9.0,7.0,89.0,f''',66.0
11552,46080.0,Note On,0,10.0,36.0,78.0,0,12,48.0,11.0,9.0,55.0,g,38.0
11553,46080.0,Note On,0,10.0,36.0,78.0,0,12,48.0,11.0,9.0,59.0,b,64.0
11554,46080.0,Note On,0,10.0,36.0,78.0,0,12,112.0,11.0,9.0,70.0,a#',69.0
11555,46080.0,Note On,0,10.0,36.0,78.0,0,12,96.0,12.0,10.0,36.0,C,78.0
11556,46176.0,Note Off,0,10.0,36.0,78.0,0,12,,,,,,
11557,47424.0,Note On,0,10.0,36.0,55.0,0,12,96.0,12.0,10.0,36.0,C,55.0
11558,47520.0,Note Off,0,10.0,36.0,55.0,0,12,,,,,,
11559,47616.0,Note On,0,10.0,36.0,78.0,0,12,540.0,3.0,1.0,34.0,"A#,",64.0
11560,47616.0,Note On,0,10.0,36.0,78.0,0,12,96.0,12.0,10.0,36.0,C,78.0
11561,47712.0,Note Off,0,10.0,36.0,78.0,0,12,,,,,,
11562,47808.0,Note On,0,10.0,50.0,48.0,0,12,60.0,11.0,9.0,80.0,g#'',36.0
11563,47808.0,Note On,0,10.0,50.0,48.0,0,12,60.0,12.0,10.0,50.0,d,48.0
11564,47868.0,Note Off,0,10.0,50.0,48.0,0,12,,,,,,
11565,48000.0,Note On,0,10.0,45.0,48.0,0,12,60.0,11.0,9.0,80.0,g#'',36.0
11566,48000.0,Note On,0,10.0,45.0,48.0,0,12,60.0,12.0,10.0,45.0,A,48.0
11567,48060.0,Note Off,0,10.0,45.0,48.0,0,12,,,,,,
11568,48192.0,Note On,0,10.0,50.0,48.0,0,12,920.0,3.0,1.0,34.0,"A#,",64.0
11569,48192.0,Note On,0,10.0,50.0,48.0,0,12,352.0,11.0,9.0,81.0,a'',52.0
11570,48192.0,Note On,0,10.0,50.0,48.0,0,12,60.0,12.0,10.0,50.0,d,48.0
11571,48252.0,Note Off,0,10.0,50.0,48.0,0,12,,,,,,
11572,49152.0,Note On,0,10.0,36.0,78.0,0,12,536.0,2.0,0.0,41.0,F,91.0
11573,49152.0,Note On,0,10.0,36.0,78.0,0,12,540.0,3.0,1.0,29.0,"F,",64.0
11574,49152.0,Note On,0,10.0,36.0,78.0,0,12,732.0,4.0,2.0,77.0,f'',52.0
11575,49152.0,Note On,0,10.0,36.0,78.0,0,12,112.0,11.0,9.0,70.0,a#',69.0
11576,49152.0,Note On,0,10.0,36.0,78.0,0,12,96.0,12.0,10.0,36.0,C,78.0
11577,49248.0,Note Off,0,10.0,36.0,78.0,0,12,,,,,,
11578,50496.0,Note On,0,10.0,36.0,55.0,0,12,176.0,3.0,1.0,33.0,"A,",52.0
11579,50496.0,Note On,0,10.0,36.0,55.0,0,12,96.0,12.0,10.0,36.0,C,55.0
11580,50592.0,Note Off,0,10.0,36.0,55.0,0,12,,,,,,
11581,50688.0,Note On,0,10.0,36.0,78.0,0,12,716.0,3.0,1.0,31.0,"G,",64.0
11582,50688.0,Note On,0,10.0,36.0,78.0,0,12,1528.0,4.0,2.0,70.0,a#',44.0
11583,50688.0,Note On,0,10.0,36.0,78.0,0,12,96.0,12.0,10.0,36.0,C,78.0
11584,50784.0,Note Off,0,10.0,36.0,78.0,0,12,,,,,,
11585,50880.0,Note On,0,10.0,50.0,48.0,0,12,60.0,11.0,9.0,80.0,g#'',36.0
11586,50880.0,Note On,0,10.0,50.0,48.0,0,12,60.0,12.0,10.0,50.0,d,48.0
11587,50940.0,Note Off,0,10.0,50.0,48.0,0,12,,,,,,
11588,51072.0,Note On,0,10.0,45.0,48.0,0,12,60.0,11.0,9.0,80.0,g#'',36.0
11589,51072.0,Note On,0,10.0,45.0,48.0,0,12,60.0,12.0,10.0,45.0,A,48.0
11590,51132.0,Note Off,0,10.0,45.0,48.0,0,12,,,,,,
11591,51264.0,Note On,0,10.0,50.0,48.0,0,12,352.0,11.0,9.0,81.0,a'',52.0
11592,51264.0,Note On,0,10.0,50.0,48.0,0,12,60.0,12.0,10.0,50.0,d,48.0
11593,51324.0,Note Off,0,10.0,50.0,48.0,0,12,,,,,,
11594,51456.0,Note On,0,10.0,50.0,48.0,0,12,716.0,3.0,1.0,34.0,"A#,",64.0
11595,51456.0,Note On,0,10.0,50.0,48.0,0,12,96.0,11.0,9.0,54.0,f#,91.0
11596,51456.0,Note On,0,10.0,50.0,48.0,0,12,60.0,12.0,10.0,50.0,d,48.0
11597,51516.0,Note Off,0,10.0,50.0,48.0,0,12,,,,,,
11598,51712.0,Note On,0,10.0,47.0,48.0,0,12,208.0,5.0,3.0,63.0,d#',73.0
11599,51712.0,Note On,0,10.0,47.0,48.0,0,12,60.0,12.0,10.0,47.0,B,48.0
11600,51772.0,Note Off,0,10.0,47.0,48.0,0,12,,,,,,
11601,51968.0,Note On,0,10.0,41.0,48.0,0,12,60.0,12.0,10.0,41.0,F,48.0
11602,52028.0,Note Off,0,10.0,41.0,48.0,0,12,,,,,,
11603,52224.0,Note On,0,10.0,36.0,78.0,0,12,732.0,3.0,1.0,39.0,D#,64.0
11604,52224.0,Note On,0,10.0,36.0,78.0,0,12,112.0,11.0,9.0,70.0,a#',69.0
11605,52224.0,Note On,0,10.0,36.0,78.0,0,12,96.0,12.0,10.0,36.0,C,78.0
11606,52320.0,Note Off,0,10.0,36.0,78.0,0,12,,,,,,
11607,53568.0,Note On,0,10.0,36.0,55.0,0,12,96.0,12.0,10.0,36.0,C,55.0
11608,53664.0,Note Off,0,10.0,36.0,55.0,0,12,,,,,,
11609,53760.0,Note On,0,10.0,36.0,78.0,0,12,328.0,2.0,0.0,65.0,f',83.0
11610,53760.0,Note On,0,10.0,36.0,78.0,0,12,300.0,2.0,0.0,69.0,a',96.0
11611,53760.0,Note On,0,10.0,36.0,78.0,0,12,688.0,3.0,1.0,39.0,D#,64.0
11612,53760.0,Note On,0,10.0,36.0,78.0,0,12,96.0,12.0,10.0,36.0,C,78.0
11613,53856.0,Note Off,0,10.0,36.0,78.0,0,12,,,,,,
11614,54336.0,Note On,0,10.0,50.0,48.0,0,12,352.0,11.0,9.0,81.0,a'',52.0
11615,54336.0,Note On,0,10.0,50.0,48.0,0,12,60.0,12.0,10.0,50.0,d,48.0
11616,54396.0,Note Off,0,10.0,50.0,48.0,0,12,,,,,,
11617,55296.0,Note On,0,10.0,36.0,78.0,0,12,716.0,3.0,1.0,31.0,"G,",64.0
11618,55296.0,Note On,0,10.0,36.0,78.0,0,12,112.0,11.0,9.0,70.0,a#',69.0
11619,55296.0,Note On,0,10.0,36.0,78.0,0,12,96.0,12.0,10.0,36.0,C,78.0
11620,55392.0,Note Off,0,10.0,36.0,78.0,0,12,,,,,,
11621,56064.0,Note On,0,10.0,50.0,48.0,0,12,792.0,2.0,0.0,60.0,c',83.0
11622,56064.0,Note On,0,10.0,50.0,48.0,0,12,712.0,3.0,1.0,28.0,"E,",64.0
11623,56064.0,Note On,0,10.0,50.0,48.0,0,12,180.0,11.0,9.0,37.0,C#,82.0
11624,56064.0,Note On,0,10.0,50.0,48.0,0,12,60.0,12.0,10.0,50.0,d,48.0
11625,56124.0,Note Off,0,10.0,50.0,48.0,0,12,,,,,,
11626,56640.0,Note On,0,10.0,36.0,55.0,0,12,96.0,12.0,10.0,36.0,C,55.0
11627,56736.0,Note Off,0,10.0,36.0,55.0,0,12,,,,,,
11628,56832.0,Note On,0,10.0,36.0,78.0,0,12,680.0,3.0,1.0,32.0,"G#,",64.0
11629,56832.0,Note On,0,10.0,36.0,78.0,0,12,96.0,12.0,10.0,36.0,C,78.0
11630,56928.0,Note Off,0,10.0,36.0,78.0,0,12,,,,,,
11631,57792.0,Note On,0,10.0,47.0,48.0,0,12,60.0,12.0,10.0,47.0,B,48.0
11632,57792.0,Note On,0,10.0,47.0,48.0,0,12,588.0,14.0,12.0,60.0,c',43.0
11633,57852.0,Note Off,0,10.0,47.0,48.0,0,12,,,,,,
11634,57984.0,Note On,0,10.0,41.0,48.0,0,12,60.0,12.0,10.0,41.0,F,48.0
11635,58044.0,Note Off,0,10.0,41.0,48.0,0,12,,,,,,
11636,58368.0,Note On,0,10.0,36.0,78.0,0,12,3020.0,3.0,1.0,34.0,"A#,",64.0
11637,58368.0,Note On,0,10.0,36.0,78.0,0,12,48.0,11.0,9.0,49.0,c#,38.0
11638,58368.0,Note On,0,10.0,36.0,78.0,0,12,48.0,11.0,9.0,59.0,b,64.0
11639,58368.0,Note On,0,10.0,36.0,78.0,0,12,112.0,11.0,9.0,70.0,a#',69.0
11640,58368.0,Note On,0,10.0,36.0,78.0,0,12,96.0,12.0,10.0,36.0,C,78.0
11641,58464.0,Note Off,0,10.0,36.0,78.0,0,12,,,,,,
11642,58560.0,Note On,0,10.0,41.0,43.0,0,12,84.0,11.0,9.0,70.0,a#',52.0
11643,58560.0,Note On,0,10.0,41.0,43.0,0,12,60.0,12.0,10.0,41.0,F,43.0
11644,58620.0,Note Off,0,10.0,41.0,43.0,0,12,,,,,,
11645,58752.0,Note On,0,10.0,45.0,48.0,0,12,112.0,11.0,9.0,70.0,a#',52.0
11646,58752.0,Note On,0,10.0,45.0,48.0,0,12,60.0,12.0,10.0,45.0,A,48.0
11647,58812.0,Note Off,0,10.0,45.0,48.0,0,12,,,,,,
11648,58944.0,Note On,0,10.0,50.0,48.0,0,12,220.0,11.0,9.0,70.0,a#',32.0
11649,58944.0,Note On,0,10.0,50.0,48.0,0,12,60.0,12.0,10.0,50.0,d,48.0
11650,59004.0,Note Off,0,10.0,50.0,48.0,0,12,,,,,,
11651,59712.0,Note On,0,10.0,36.0,55.0,0,12,96.0,12.0,10.0,36.0,C,55.0
11652,59808.0,Note Off,0,10.0,36.0,55.0,0,12,,,,,,
11653,59904.0,Note On,0,10.0,36.0,78.0,0,12,64.0,7.0,5.0,49.0,c#,29.0
11654,59904.0,Note On,0,10.0,36.0,78.0,0,12,96.0,12.0,10.0,36.0,C,78.0
11655,60000.0,Note Off,0,10.0,36.0,78.0,0,12,,,,,,
11656,78528.0,Note On,0,10.0,41.0,43.0,0,12,60.0,12.0,10.0,41.0,F,43.0
11657,78588.0,Note Off,0,10.0,41.0,43.0,0,12,,,,,,
11658,78720.0,Note On,0,10.0,45.0,48.0,0,12,120.0,11.0,9.0,42.0,F#,69.0
11659,78720.0,Note On,0,10.0,45.0,48.0,0,12,60.0,12.0,10.0,45.0,A,48.0
11660,78780.0,Note Off,0,10.0,45.0,48.0,0,12,,,,,,
11661,78912.0,Note On,0,10.0,50.0,48.0,0,12,60.0,12.0,10.0,50.0,d,48.0
11662,78972.0,Note Off,0,10.0,50.0,48.0,0,12,,,,,,
11663,90816.0,Note On,0,10.0,41.0,43.0,0,12,60.0,12.0,10.0,41.0,F,43.0
11664,90876.0,Note Off,0,10.0,41.0,43.0,0,12,,,,,,
11665,91008.0,Note On,0,10.0,45.0,48.0,0,12,120.0,11.0,9.0,42.0,F#,69.0
11666,91008.0,Note On,0,10.0,45.0,48.0,0,12,60.0,12.0,10.0,45.0,A,48.0
11667,91068.0,Note Off,0,10.0,45.0,48.0,0,12,,,,,,
11668,91200.0,Note On,0,10.0,50.0,48.0,0,12,60.0,12.0,10.0,50.0,d,48.0
11669,91260.0,Note Off,0,10.0,50.0,48.0,0,12,,,,,,
11670,124608.0,Note On,0,10.0,41.0,43.0,0,12,60.0,12.0,10.0,41.0,F,43.0
11671,124668.0,Note Off,0,10.0,41.0,43.0,0,12,,,,,,
11672,124800.0,Note On,0,10.0,45.0,48.0,0,12,120.0,11.0,9.0,42.0,F#,69.0
11673,124800.0,Note On,0,10.0,45.0,48.0,0,12,60.0,12.0,10.0,45.0,A,48.0
11674,124860.0,Note Off,0,10.0,45.0,48.0,0,12,,,,,,
11675,124992.0,Note On,0,10.0,50.0,48.0,0,12,60.0,12.0,10.0,50.0,d,48.0
11676,125052.0,Note Off,0,10.0,50.0,48.0,0,12,,,,,,
11677,127680.0,Note On,0,10.0,41.0,43.0,0,12,60.0,12.0,10.0,41.0,F,43.0
11678,127740.0,Note Off,0,10.0,41.0,43.0,0,12,,,,,,
11679,127872.0,Note On,0,10.0,45.0,48.0,0,12,120.0,11.0,9.0,42.0,F#,69.0
11680,127872.0,Note On,0,10.0,45.0,48.0,0,12,60.0,12.0,10.0,45.0,A,48.0
11681,127932.0,Note Off,0,10.0,45.0,48.0,0,12,,,,,,
11682,128064.0,Note On,0,10.0,50.0,48.0,0,12,60.0,12.0,10.0,50.0,d,48.0
11683,128124.0,Note Off,0,10.0,50.0,48.0,0,12,,,,,,
11684,130752.0,Note On,0,10.0,41.0,43.0,0,12,60.0,12.0,10.0,41.0,F,43.0
11685,130812.0,Note Off,0,10.0,41.0,43.0,0,12,,,,,,
11686,130944.0,Note On,0,10.0,45.0,48.0,0,12,120.0,11.0,9.0,42.0,F#,69.0
11687,130944.0,Note On,0,10.0,45.0,48.0,0,12,60.0,12.0,10.0,45.0,A,48.0
11688,131004.0,Note Off,0,10.0,45.0,48.0,0,12,,,,,,
11689,131136.0,Note On,0,10.0,50.0,48.0,0,12,148.0,3.0,1.0,33.0,"A,",64.0
11690,131136.0,Note On,0,10.0,50.0,48.0,0,12,656.0,5.0,3.0,69.0,a',64.0
11691,131136.0,Note On,0,10.0,50.0,48.0,0,12,60.0,12.0,10.0,50.0,d,48.0
11692,131196.0,Note Off,0,10.0,50.0,48.0,0,12,,,,,,
11693,165320.0,Controller,0,10.0,121.0,127.0,0,12,,,,,,
11694,165888.0,End of Track,2f,0.0,0.0,0.0,0,12,,,,,,
11695,0.0,Sequence/Track Name,03,0.0,0.0,0.0,STEEL GTR,13,,,,,,
11696,604.0,Controller,0,11.0,0.0,0.0,0,13,,,,,,
11697,612.0,Program Change,0,11.0,25.0,0.0,0,13,,,,,,
11698,616.0,Controller,0,11.0,7.0,127.0,0,13,,,,,,
11699,616.0,Controller,0,11.0,10.0,32.0,0,13,,,,,,
11700,616.0,Controller,0,11.0,11.0,127.0,0,13,,,,,,
11701,620.0,Controller,0,11.0,91.0,100.0,0,13,,,,,,
11702,620.0,Controller,0,11.0,93.0,0.0,0,13,,,,,,
11703,3072.0,Note On,0,11.0,46.0,69.0,0,13,1460.0,2.0,0.0,46.0,A#,83.0
11704,3072.0,Note On,0,11.0,46.0,69.0,0,13,3016.0,4.0,2.0,65.0,f',32.0
11705,3072.0,Note On,0,11.0,46.0,69.0,0,13,112.0,11.0,9.0,70.0,a#',69.0
11706,3072.0,Note On,0,11.0,46.0,69.0,0,13,60.0,12.0,10.0,41.0,F,48.0
11707,3072.0,Note On,0,11.0,46.0,69.0,0,13,132.0,13.0,11.0,46.0,A#,69.0
11708,3204.0,Note Off,0,11.0,46.0,69.0,0,13,,,,,,
11709,3256.0,Note On,0,11.0,46.0,52.0,0,13,1288.0,13.0,11.0,46.0,A#,52.0
11710,3444.0,Note On,0,11.0,51.0,55.0,0,13,196.0,13.0,11.0,51.0,d#,55.0
11711,3632.0,Note On,0,11.0,53.0,61.0,0,13,984.0,13.0,11.0,53.0,f,61.0
11712,3640.0,Note Off,0,11.0,51.0,55.0,0,13,,,,,,
11713,4544.0,Note Off,0,11.0,46.0,52.0,0,13,,,,,,
11714,4608.0,Note On,0,11.0,46.0,69.0,0,13,132.0,13.0,11.0,46.0,A#,69.0
11715,4616.0,Note Off,0,11.0,53.0,61.0,0,13,,,,,,
11716,4740.0,Note Off,0,11.0,46.0,69.0,0,13,,,,,,
11717,4792.0,Note On,0,11.0,46.0,52.0,0,13,1328.0,2.0,0.0,46.0,A#,74.0
11718,4792.0,Note On,0,11.0,46.0,52.0,0,13,1300.0,13.0,11.0,46.0,A#,52.0
11719,4980.0,Note On,0,11.0,53.0,55.0,0,13,196.0,2.0,0.0,62.0,d',85.0
11720,4980.0,Note On,0,11.0,53.0,55.0,0,13,196.0,13.0,11.0,53.0,f,55.0
11721,5168.0,Note On,0,11.0,55.0,61.0,0,13,400.0,13.0,11.0,55.0,g,61.0
11722,5176.0,Note Off,0,11.0,53.0,55.0,0,13,412.0,2.0,0.0,55.0,g,83.0
11723,5568.0,Note Off,0,11.0,55.0,61.0,0,13,60.0,12.0,10.0,41.0,F,31.0
11724,5572.0,Note On,0,11.0,51.0,60.0,0,13,576.0,13.0,11.0,51.0,d#,60.0
11725,6092.0,Note Off,0,11.0,46.0,52.0,0,13,,,,,,
11726,6144.0,Note On,0,11.0,46.0,69.0,0,13,1460.0,2.0,0.0,46.0,A#,83.0
11727,6144.0,Note On,0,11.0,46.0,69.0,0,13,112.0,11.0,9.0,70.0,a#',69.0
11728,6144.0,Note On,0,11.0,46.0,69.0,0,13,60.0,12.0,10.0,41.0,F,48.0
11729,6144.0,Note On,0,11.0,46.0,69.0,0,13,132.0,13.0,11.0,46.0,A#,69.0
11730,6148.0,Note Off,0,11.0,51.0,60.0,0,13,,,,,,
11731,6276.0,Note Off,0,11.0,46.0,69.0,0,13,,,,,,
11732,6328.0,Note On,0,11.0,46.0,52.0,0,13,1288.0,13.0,11.0,46.0,A#,52.0
11733,6516.0,Note On,0,11.0,51.0,55.0,0,13,196.0,13.0,11.0,51.0,d#,55.0
11734,6704.0,Note On,0,11.0,53.0,61.0,0,13,984.0,13.0,11.0,53.0,f,61.0
11735,6712.0,Note Off,0,11.0,51.0,55.0,0,13,1484.0,9.0,7.0,86.0,d''',52.0
11736,7616.0,Note Off,0,11.0,46.0,52.0,0,13,,,,,,
11737,7680.0,Note On,0,11.0,46.0,69.0,0,13,132.0,13.0,11.0,46.0,A#,69.0
11738,7688.0,Note Off,0,11.0,53.0,61.0,0,13,,,,,,
11739,7812.0,Note Off,0,11.0,46.0,69.0,0,13,,,,,,
11740,7864.0,Note On,0,11.0,46.0,52.0,0,13,1328.0,2.0,0.0,46.0,A#,74.0
11741,7864.0,Note On,0,11.0,46.0,52.0,0,13,1360.0,13.0,11.0,46.0,A#,52.0
11742,8052.0,Note On,0,11.0,53.0,55.0,0,13,196.0,2.0,0.0,62.0,d',85.0
11743,8052.0,Note On,0,11.0,53.0,55.0,0,13,196.0,13.0,11.0,53.0,f,55.0
11744,8240.0,Note On,0,11.0,55.0,61.0,0,13,588.0,9.0,7.0,86.0,d''',48.0
11745,8240.0,Note On,0,11.0,55.0,61.0,0,13,400.0,13.0,11.0,55.0,g,61.0
11746,8248.0,Note Off,0,11.0,53.0,55.0,0,13,412.0,2.0,0.0,55.0,g,83.0
11747,8640.0,Note Off,0,11.0,55.0,61.0,0,13,60.0,12.0,10.0,41.0,F,31.0
11748,8640.0,Note Off,0,11.0,55.0,61.0,0,13,588.0,14.0,12.0,60.0,c',43.0
11749,8644.0,Note On,0,11.0,51.0,60.0,0,13,576.0,13.0,11.0,51.0,d#,60.0
11750,9220.0,Note Off,0,11.0,51.0,60.0,0,13,,,,,,
11751,9224.0,Note Off,0,11.0,46.0,52.0,0,13,536.0,2.0,0.0,62.0,d',92.0
11752,165340.0,Controller,0,11.0,121.0,127.0,0,13,,,,,,
11753,165888.0,End of Track,2f,0.0,0.0,0.0,0,13,,,,,,
11754,0.0,Sequence/Track Name,03,0.0,0.0,0.0,REVERSCYMB,14,,,,,,
11755,664.0,Controller,0,12.0,0.0,0.0,0,14,,,,,,
11756,672.0,Program Change,0,12.0,119.0,0.0,0,14,,,,,,
11757,676.0,Controller,0,12.0,7.0,127.0,0,14,,,,,,
11758,676.0,Controller,0,12.0,10.0,64.0,0,14,,,,,,
11759,676.0,Controller,0,12.0,11.0,127.0,0,14,,,,,,
11760,680.0,Controller,0,12.0,91.0,100.0,0,14,,,,,,
11761,680.0,Controller,0,12.0,93.0,0.0,0,14,,,,,,
11762,8640.0,Note On,0,12.0,60.0,43.0,0,14,60.0,12.0,10.0,41.0,F,31.0
11763,8640.0,Note On,0,12.0,60.0,43.0,0,14,588.0,14.0,12.0,60.0,c',43.0
11764,9228.0,Note Off,0,12.0,60.0,43.0,0,14,,,,,,
11765,33216.0,Note On,0,12.0,60.0,43.0,0,14,60.0,12.0,10.0,45.0,A,48.0
11766,33216.0,Note On,0,12.0,60.0,43.0,0,14,588.0,14.0,12.0,60.0,c',43.0
11767,33804.0,Note Off,0,12.0,60.0,43.0,0,14,,,,,,
11768,45504.0,Note On,0,12.0,60.0,43.0,0,14,168.0,3.0,1.0,24.0,"C,",64.0
11769,45504.0,Note On,0,12.0,60.0,43.0,0,14,60.0,12.0,10.0,45.0,A,55.0
11770,45504.0,Note On,0,12.0,60.0,43.0,0,14,588.0,14.0,12.0,60.0,c',43.0
11771,46092.0,Note Off,0,12.0,60.0,43.0,0,14,,,,,,
11772,57792.0,Note On,0,12.0,60.0,43.0,0,14,60.0,12.0,10.0,47.0,B,48.0
11773,57792.0,Note On,0,12.0,60.0,43.0,0,14,588.0,14.0,12.0,60.0,c',43.0
11774,58380.0,Note Off,0,12.0,60.0,43.0,0,14,,,,,,
11775,60864.0,Note On,0,12.0,60.0,43.0,0,14,532.0,11.0,9.0,45.0,A,64.0
11776,60864.0,Note On,0,12.0,60.0,43.0,0,14,588.0,14.0,12.0,60.0,c',43.0
11777,61452.0,Note Off,0,12.0,60.0,43.0,0,14,,,,,,
11778,137280.0,Note On,0,12.0,60.0,40.0,0,14,964.0,14.0,12.0,60.0,c',40.0
11779,138244.0,Note Off,0,12.0,60.0,40.0,0,14,,,,,,
11780,139200.0,Note On,0,12.0,60.0,43.0,0,14,596.0,2.0,0.0,71.0,b',70.0
11781,139200.0,Note On,0,12.0,60.0,43.0,0,14,588.0,14.0,12.0,60.0,c',43.0
11782,139788.0,Note Off,0,12.0,60.0,43.0,0,14,,,,,,
11783,153024.0,Note On,0,12.0,60.0,43.0,0,14,588.0,14.0,12.0,60.0,c',43.0
11784,153612.0,Note Off,0,12.0,60.0,43.0,0,14,60.0,7.0,5.0,98.0,d'''',73.0
11785,159168.0,Note On,0,12.0,60.0,43.0,0,14,588.0,14.0,12.0,60.0,c',43.0
11786,159756.0,Note Off,0,12.0,60.0,43.0,0,14,2888.0,4.0,2.0,50.0,d,21.0
11787,165360.0,Controller,0,12.0,121.0,127.0,0,14,,,,,,
11788,165888.0,End of Track,2f,0.0,0.0,0.0,0,14,,,,,,
11789,0.0,Sequence/Track Name,03,0.0,0.0,0.0,+WINDCHIME,15,,,,,,
11790,684.0,Controller,0,13.0,0.0,5.0,0,15,,,,,,
11791,692.0,Program Change,0,13.0,124.0,0.0,0,15,,,,,,
11792,696.0,Controller,0,13.0,7.0,127.0,0,15,,,,,,
11793,696.0,Controller,0,13.0,10.0,64.0,0,15,,,,,,
11794,696.0,Controller,0,13.0,11.0,127.0,0,15,,,,,,
11795,700.0,Controller,0,13.0,91.0,100.0,0,15,,,,,,
11796,700.0,Controller,0,13.0,93.0,0.0,0,15,,,,,,
11797,8064.0,Note On,0,13.0,72.0,31.0,0,15,60.0,12.0,10.0,45.0,A,48.0
11798,8064.0,Note On,0,13.0,72.0,31.0,0,15,1036.0,15.0,13.0,72.0,c'',31.0
11799,9100.0,Note Off,0,13.0,72.0,31.0,0,15,,,,,,
11800,32640.0,Note On,0,13.0,72.0,31.0,0,15,68.0,7.0,5.0,70.0,a#',75.0
11801,32640.0,Note On,0,13.0,72.0,31.0,0,15,1036.0,15.0,13.0,72.0,c'',31.0
11802,33676.0,Note Off,0,13.0,72.0,31.0,0,15,,,,,,
11803,44928.0,Note On,0,13.0,72.0,31.0,0,15,68.0,7.0,5.0,70.0,a#',75.0
11804,44928.0,Note On,0,13.0,72.0,31.0,0,15,1036.0,15.0,13.0,72.0,c'',31.0
11805,45964.0,Note Off,0,13.0,72.0,31.0,0,15,,,,,,
11806,60288.0,Note On,0,13.0,72.0,31.0,0,15,1036.0,15.0,13.0,72.0,c'',31.0
11807,61324.0,Note Off,0,13.0,72.0,31.0,0,15,48.0,7.0,5.0,92.0,g#''',58.0
11808,84864.0,Note On,0,13.0,72.0,31.0,0,15,120.0,11.0,9.0,42.0,F#,69.0
11809,84864.0,Note On,0,13.0,72.0,31.0,0,15,1036.0,15.0,13.0,72.0,c'',31.0
11810,85900.0,Note Off,0,13.0,72.0,31.0,0,15,,,,,,
11811,97152.0,Note On,0,13.0,72.0,31.0,0,15,80.0,11.0,9.0,38.0,D,81.0
11812,97152.0,Note On,0,13.0,72.0,31.0,0,15,1036.0,15.0,13.0,72.0,c'',31.0
11813,98188.0,Note Off,0,13.0,72.0,31.0,0,15,,,,,,
11814,121728.0,Note On,0,13.0,72.0,31.0,0,15,112.0,11.0,9.0,42.0,F#,75.0
11815,121728.0,Note On,0,13.0,72.0,31.0,0,15,1036.0,15.0,13.0,72.0,c'',31.0
11816,122764.0,Note Off,0,13.0,72.0,31.0,0,15,,,,,,
11817,140160.0,Note On,0,13.0,72.0,31.0,0,15,1036.0,15.0,13.0,72.0,c'',31.0
11818,141196.0,Note Off,0,13.0,72.0,31.0,0,15,,,,,,
11819,152448.0,Note On,0,13.0,72.0,31.0,0,15,1036.0,15.0,13.0,72.0,c'',31.0
11820,153484.0,Note Off,0,13.0,72.0,31.0,0,15,56.0,7.0,5.0,93.0,a''',66.0
11821,158592.0,Note On,0,13.0,72.0,31.0,0,15,1036.0,15.0,13.0,72.0,c'',31.0
11822,159628.0,Note Off,0,13.0,72.0,31.0,0,15,,,,,,
11823,165380.0,Controller,0,13.0,121.0,127.0,0,15,,,,,,
11824,165888.0,End of Track,2f,0.0,0.0,0.0,0,15,,,,,,
11825,0.0,Sequence/Track Name,03,0.0,0.0,0.0,GS/RESET,16,,,,,,
11826,0.0,System,0,0.0,0.0,0.0,0,16,,,,,,
11827,6144.0,End of Track,2f,0.0,0.0,0.0,0,16,1460.0,2.0,0.0,46.0,A#,83.0
11828,6144.0,End of Track,2f,0.0,0.0,0.0,0,16,112.0,11.0,9.0,70.0,a#',69.0
11829,6144.0,End of Track,2f,0.0,0.0,0.0,0,16,60.0,12.0,10.0,41.0,F,48.0
11830,6144.0,End of Track,2f,0.0,0.0,0.0,0,16,132.0,13.0,11.0,46.0,A#,69.0
